<svg width="456" height="53" fill="none" xmlns="http://www.w3.org/2000/svg"><path d="M.653 52V1.6h11.16v45.936h8.64c2.4 0 4.584-.192 6.552-.576 2.016-.384 3.408-.768 4.176-1.152l1.152-.504.864.864V52H.653zm46.773-13.392L42.242 52h-5.616L55.13 5.272l-1.656-2.808V1.6h12.168L86.018 52h-11.52l-5.4-13.392H47.426zm11.952-24.264l-1.296-3.024-8.928 22.824h18.144l-7.92-19.8zM140.783 52l-4.824-41.112-.288-.288-12.744 39.96h-7.416l-1.512-1.512-13.104-38.376-.36.288L96.647 52h-5.4l3.816-37.656c.192-2.448.264-4.536.216-6.264 0-1.776-.048-3.168-.144-4.176l-.216-1.44.864-.864h13.608l12.24 35.568L133.007 1.6h13.32l5.976 50.4h-11.52zm20.816 0V1.6h11.16V52h-11.16zm22.148 0V21.76c0-3.84-.168-7.368-.504-10.584-.288-3.216-.6-5.472-.936-6.768l-.504-1.944.864-.864h3.816l33.48 32.904V1.6h5.544V52h-3.312l-33.48-32.976V52h-4.968zm59.429-13.392L237.992 52h-5.616L250.88 5.272l-1.656-2.808V1.6h12.168L281.768 52h-11.52l-5.4-13.392h-21.672zm11.952-24.264l-1.296-3.024-8.928 22.824h18.144l-7.92-19.8zm53.442-8.28V52h-11.16V6.064h-4.464c-2.4 0-4.608.192-6.624.576-1.968.384-3.336.768-4.104 1.152l-1.152.504-.864-.864V1.6h45.576v5.832l-.864.864c-2.496-1.488-6.456-2.232-11.88-2.232h-4.464zM333.232 52V1.6h11.16V52h-11.16zm27.044-6.408c-4.752-4.8-7.128-11.064-7.128-18.792 0-7.728 2.376-13.968 7.128-18.72 4.8-4.8 11.064-7.2 18.792-7.2 7.68 0 13.896 2.4 18.648 7.2 4.8 4.752 7.2 10.992 7.2 18.72 0 7.728-2.4 13.992-7.2 18.792-4.752 4.752-10.968 7.128-18.648 7.128-7.728 0-13.992-2.376-18.792-7.128zm8.928-35.208c-2.4 3.792-3.6 9.264-3.6 16.416 0 7.152 1.2 12.648 3.6 16.488 2.448 3.792 5.736 5.688 9.864 5.688 4.128 0 7.392-1.896 9.792-5.688 2.448-3.84 3.672-9.336 3.672-16.488 0-7.152-1.224-12.624-3.672-16.416-2.4-3.84-5.664-5.76-9.792-5.76s-7.416 1.92-9.864 5.76zM413.739 52V21.76c0-3.84-.168-7.368-.504-10.584-.288-3.216-.6-5.472-.936-6.768l-.504-1.944.864-.864h3.816l33.48 32.904V1.6h5.544V52h-3.312l-33.48-32.976V52h-4.968z" fill="#fff"/></svg>