<svg width="104" height="120" viewBox="0 0 104 120" fill="none" xmlns="http://www.w3.org/2000/svg">
<g clip-path="url(#clip0_75_36)">
<path fill-rule="evenodd" clip-rule="evenodd" d="M73.3492 21.9589C71.3324 23.6869 69.0724 22.7838 69.0724 22.7838C69.0724 22.7838 68.5145 20.423 70.5242 18.7021C72.5411 16.9741 76.3674 16.5332 76.3674 16.5332C76.3674 16.5332 75.3661 20.231 73.3492 21.9589ZM47.3948 47.9783H46.9799V42.8157H47.3948C47.9097 45.6815 49.4116 47.1108 51.9005 47.1108C52.7587 47.1108 53.4739 46.8832 54.0461 46.421C54.6183 45.9588 54.9043 45.3686 54.9043 44.6432C54.9043 43.8255 54.4824 43.1073 53.6456 42.4673C51.6573 41.3153 50.0267 40.3268 48.7465 39.4948C47.4663 38.6628 46.8369 37.5606 46.8369 36.1953C46.8369 35.0646 47.2589 34.1189 48.1171 33.3722C48.9682 32.6113 50.0195 32.2344 51.2711 32.2344C52.0865 32.2344 52.9375 32.4264 53.8315 32.8175C54.2535 33.0095 54.5467 33.102 54.7184 33.102C55.1117 33.102 55.362 32.8104 55.4908 32.2344H55.8985V37.4468H55.4908C55.2691 35.9108 54.7613 34.8015 53.9746 34.1331C53.1807 33.4575 52.2867 33.1304 51.3069 33.1304C50.5702 33.1304 49.9409 33.358 49.4116 33.806C48.8824 34.2469 48.6178 34.7944 48.6178 35.4344C48.6178 35.854 48.7966 36.2948 49.1542 36.7642C49.5118 37.2335 50.5917 37.9517 52.394 38.9117C53.4954 39.502 54.3322 39.9855 54.9043 40.3624C55.4693 40.7393 55.9414 41.237 56.3276 41.8415C56.7066 42.4459 56.8997 43.1001 56.8997 43.8041C56.8997 45.0059 56.442 46.0015 55.5266 46.7979C54.6111 47.5943 53.4811 47.9926 52.1437 47.9926C51.4142 47.9926 50.513 47.8148 49.4402 47.4663C48.7822 47.2459 48.3245 47.1392 48.0742 47.1392C47.7023 47.125 47.4806 47.4023 47.3948 47.9783ZM52.7087 27.5767C53.288 27.9251 53.8601 28.1669 54.4251 28.2878C54.9902 28.4087 55.5194 28.43 56.0129 28.3447C56.5064 28.2594 56.9498 28.0887 57.3431 27.8256C57.7365 27.5696 58.0583 27.2354 58.3087 26.83C58.7878 26.0549 58.9738 25.294 58.8737 24.5332C58.7735 23.7794 58.5232 23.0185 58.137 22.2647C57.7508 21.5038 57.2931 20.7287 56.771 19.9465C56.2489 19.1572 55.8126 18.3536 55.4693 17.5216C55.126 16.6897 54.9401 15.8363 54.9115 14.9617C54.8829 14.0799 55.1761 13.1554 55.7769 12.1812C56.1273 11.6052 56.5922 11.1288 57.1715 10.7448C57.7508 10.3608 58.3945 10.1048 59.0954 9.9697C59.8034 9.83459 60.5401 9.84169 61.3197 9.98391C62.0992 10.1261 62.8716 10.4319 63.6297 10.9012C64.2662 11.2924 64.7955 11.7546 65.2103 12.295C65.6251 12.8355 65.9398 13.3759 66.1544 13.9234C66.3689 14.471 66.4762 14.983 66.4762 15.4594C66.4762 15.943 66.3904 16.327 66.2116 16.6256C65.9255 17.0879 65.5321 17.3865 65.0315 17.5003C64.5309 17.6212 64.0445 17.5359 63.5797 17.2514C63.1148 16.967 62.8144 16.5759 62.7 16.0781C62.5784 15.5803 62.6642 15.0968 62.9503 14.6346C63.2364 14.1723 63.6297 13.8737 64.1304 13.7599C64.631 13.639 65.1173 13.7243 65.5822 14.0088C65.6466 14.0443 65.7038 14.0941 65.7539 14.1439C65.8039 14.1937 65.8611 14.2506 65.9112 14.3003C65.9613 14.3572 66.0256 14.4141 66.09 14.4781C65.9684 14.087 65.7968 13.6888 65.5679 13.2977C65.3748 12.9492 65.1173 12.5795 64.7812 12.1955C64.4522 11.8115 64.0159 11.4559 63.4867 11.1359C62.9575 10.8159 62.4282 10.6026 61.899 10.503C61.3697 10.4035 60.8762 10.3893 60.4113 10.4604C59.9536 10.5315 59.5317 10.6879 59.1454 10.9226C58.7664 11.1572 58.466 11.4488 58.2586 11.7901C57.7794 12.5652 57.5935 13.3261 57.6936 14.087C57.7937 14.8408 58.044 15.6017 58.4303 16.3554C58.8165 17.1163 59.2742 17.8914 59.7963 18.6736C60.3184 19.463 60.7546 20.2665 61.0979 21.0985C61.4412 21.9305 61.6272 22.7838 61.6486 23.6727C61.6701 24.5616 61.384 25.486 60.7904 26.446C60.397 27.0789 59.9036 27.6051 59.2956 28.0105C58.6877 28.4229 58.0226 28.6931 57.3002 28.8211C56.5779 28.9562 55.8055 28.942 54.9902 28.7856C54.1748 28.6291 53.3595 28.3091 52.5513 27.8114C52.1437 27.5625 51.7861 27.2994 51.4642 27.0149C51.1495 27.2994 50.7848 27.5625 50.3771 27.8114C49.569 28.302 48.7536 28.6291 47.9383 28.7856C47.123 28.942 46.3506 28.9491 45.6282 28.8211C44.9059 28.686 44.2408 28.4158 43.6328 28.0105C43.0249 27.6051 42.5314 27.0789 42.1381 26.446C41.5445 25.486 41.2584 24.5616 41.2798 23.6727C41.3013 22.7838 41.4873 21.9305 41.8305 21.0985C42.1738 20.2736 42.6101 19.463 43.1322 18.6736C43.6543 17.8843 44.112 17.1163 44.4982 16.3554C44.8844 15.5946 45.1347 14.8408 45.2349 14.087C45.335 13.3332 45.149 12.5652 44.6699 11.7901C44.4624 11.4488 44.1621 11.1572 43.783 10.9226C43.404 10.6879 42.982 10.5315 42.5171 10.4604C42.0523 10.3893 41.5588 10.4035 41.0295 10.503C40.5003 10.6026 39.971 10.8088 39.4418 11.1359C38.9125 11.4559 38.4834 11.8115 38.1473 12.1955C37.8183 12.5795 37.5537 12.9421 37.3606 13.2977C37.1317 13.6959 36.9601 14.087 36.8385 14.4781C36.91 14.4141 36.9672 14.3572 37.0173 14.3003C37.0673 14.2506 37.1245 14.1937 37.1746 14.1439C37.2247 14.087 37.2819 14.0443 37.3463 14.0088C37.8111 13.7243 38.2975 13.639 38.7981 13.7599C39.2987 13.8808 39.6921 14.1723 39.9782 14.6346C40.2642 15.0968 40.3501 15.5803 40.2285 16.0781C40.1069 16.5759 39.8137 16.967 39.3488 17.2514C38.8839 17.5359 38.3976 17.6212 37.897 17.5003C37.3963 17.3794 37.003 17.0879 36.7169 16.6256C36.5381 16.3341 36.4451 15.943 36.4523 15.4594C36.4594 14.9759 36.5667 14.4639 36.7741 13.9234C36.9815 13.3759 37.2962 12.8355 37.7182 12.295C38.133 11.7546 38.6622 11.2852 39.2987 10.9012C40.064 10.439 40.8364 10.1332 41.6088 9.98391C42.3884 9.84169 43.1322 9.83459 43.8331 9.9697C44.5411 10.1048 45.1777 10.3608 45.757 10.7448C46.3363 11.1288 46.8011 11.6052 47.1516 12.1812C47.7524 13.1554 48.0384 14.087 48.017 14.9617C47.9884 15.8434 47.8024 16.6968 47.4591 17.5216C47.1158 18.3536 46.6796 19.1572 46.1575 19.9465C45.6354 20.7358 45.1777 21.5038 44.7914 22.2647C44.4052 23.0256 44.1549 23.7794 44.0548 24.5332C43.9547 25.2869 44.1406 26.0549 44.6198 26.83C44.8701 27.2354 45.192 27.5625 45.5853 27.8256C45.9787 28.0887 46.4221 28.2594 46.9156 28.3447C47.4091 28.43 47.9383 28.4087 48.5033 28.2878C49.0683 28.1669 49.6405 27.9323 50.2198 27.5767C50.5988 27.342 50.9421 27.0931 51.2425 26.8229C49.9909 25.5856 48.911 24.1918 48.911 22.3501C48.911 19.3847 51.3212 15.8506 51.3284 15.8434L51.4499 15.6657L51.5715 15.8434C51.5787 15.8506 53.9889 19.3847 53.9889 22.3501C53.9889 24.1918 52.9089 25.5927 51.6573 26.8229C51.9863 27.0931 52.3296 27.3491 52.7087 27.5767ZM50.842 25.8771C51.1281 26.126 51.3641 26.2754 51.4785 26.3394C51.593 26.2754 51.829 26.1189 52.1151 25.8771C54.8185 23.1536 53.617 19.5199 51.4785 16.1848C49.6548 19.0292 48.017 23.1252 50.842 25.8771ZM53.4882 8.27726C53.4882 6.04439 51.9649 4.90663 51.4785 4.60086C50.9922 4.90663 49.4688 6.04439 49.4688 8.27726C49.4688 10.4461 50.8849 12.9706 51.4785 13.9306C52.0722 12.9706 53.4882 10.4461 53.4882 8.27726ZM51.6287 3.97508L51.4857 3.89685L51.3427 3.97508C51.3355 3.98219 48.8609 5.25506 48.8609 8.27015C48.8609 11.1928 51.2211 14.6559 51.2282 14.663L51.4857 15.0399L51.7432 14.663C51.7503 14.6559 54.1105 11.1928 54.1105 8.27015C54.1033 5.26217 51.6359 3.98219 51.6287 3.97508ZM49.7549 22.3714C49.7549 24.4834 51.4857 25.3723 51.4857 25.3723C51.4857 25.3723 53.2165 24.4763 53.2165 22.3714C53.2165 20.2594 51.4857 17.7279 51.4857 17.7279C51.4857 17.7279 49.7549 20.2594 49.7549 22.3714ZM52.3868 28.9918C52.3868 27.8825 51.4785 27.4203 51.4785 27.4203C51.4785 27.4203 50.5702 27.8896 50.5702 28.9918C50.5702 30.094 51.4785 31.4238 51.4785 31.4238C51.4785 31.4238 52.3868 30.1011 52.3868 28.9918ZM50.2484 52.8778C49.6691 52.5294 49.0969 52.2876 48.5319 52.1667C47.9669 52.0459 47.4377 52.0245 46.9442 52.1099C46.4507 52.1952 46.0073 52.3658 45.6139 52.629C45.2206 52.8921 44.8987 53.2192 44.6484 53.6245C44.1692 54.3996 43.9833 55.1605 44.0834 55.9214C44.1835 56.6752 44.4339 57.436 44.8201 58.1898C45.2063 58.9507 45.664 59.7187 46.1861 60.508C46.7082 61.2974 47.1444 62.1009 47.4877 62.9329C47.831 63.7649 48.017 64.6182 48.0456 65.4929C48.0742 66.3746 47.781 67.2991 47.1802 68.2733C46.8298 68.8493 46.3577 69.3257 45.7856 69.7097C45.2063 70.0937 44.5626 70.3497 43.8617 70.4848C43.1537 70.62 42.417 70.6128 41.6374 70.4706C40.8579 70.3284 40.0855 70.0226 39.3274 69.5604C38.6908 69.1693 38.1616 68.7071 37.7468 68.1666C37.3319 67.6262 37.0173 67.0857 36.8027 66.5382C36.5881 65.9906 36.4809 65.4786 36.4809 65.0022C36.4809 64.5186 36.5667 64.1347 36.7455 63.836C37.0316 63.3738 37.4249 63.0822 37.9256 62.9613C38.4262 62.8404 38.9125 62.9258 39.3774 63.2102C39.8423 63.4947 40.1427 63.8858 40.2571 64.3835C40.3787 64.8813 40.2929 65.3649 40.0068 65.8271C39.7207 66.2893 39.3273 66.5809 38.8267 66.7018C38.3261 66.8226 37.8397 66.7373 37.3749 66.4529C37.3105 66.4173 37.2533 66.3675 37.2032 66.3178C37.1532 66.268 37.0959 66.2111 37.0459 66.1542C36.9958 66.0973 36.9314 66.0404 36.8671 65.9764C36.9887 66.3675 37.1603 66.7658 37.3892 67.1569C37.5823 67.5053 37.8397 67.8751 38.1759 68.2591C38.5049 68.6431 38.9411 68.9986 39.4704 69.3186C39.9996 69.6386 40.5289 69.852 41.0581 69.9515C41.5874 70.0511 42.0809 70.0653 42.5457 69.9942C43.0035 69.9231 43.4254 69.7737 43.8116 69.532C44.1907 69.2973 44.4911 69.0057 44.6985 68.6644C45.1777 67.8893 45.3636 67.1284 45.2635 66.3675C45.1634 65.6138 44.913 64.8529 44.5268 64.0991C44.1406 63.3382 43.6829 62.5702 43.1608 61.7809C42.6387 60.9916 42.2024 60.188 41.8591 59.356C41.5158 58.524 41.3299 57.6707 41.3084 56.7818C41.287 55.8929 41.5731 54.9685 42.1667 54.0085C42.56 53.3756 43.0535 52.8494 43.6614 52.4441C44.2694 52.0316 44.9345 51.7614 45.6568 51.6334C46.3792 51.4983 47.1516 51.5125 47.9669 51.669C48.7822 51.8254 49.5976 52.1454 50.4057 52.6432C50.8134 52.8921 51.171 53.1552 51.4928 53.4396C51.8075 53.1552 52.1723 52.8921 52.5799 52.6432C53.3881 52.1525 54.2034 51.8254 55.0188 51.669C55.8341 51.5125 56.6065 51.5054 57.3288 51.6334C58.0512 51.7685 58.7163 52.0388 59.3242 52.4441C59.9322 52.8565 60.4256 53.3756 60.819 54.0085C61.4126 54.9685 61.6987 55.8929 61.6773 56.7818C61.6558 57.6707 61.4698 58.524 61.1265 59.356C60.7832 60.188 60.347 60.9916 59.8249 61.7809C59.3028 62.5702 58.8451 63.3382 58.4589 64.0991C58.0727 64.86 57.8223 65.6138 57.7222 66.3675C57.6221 67.1213 57.808 67.8893 58.2872 68.6644C58.4946 69.0057 58.795 69.2902 59.1741 69.532C59.5531 69.7666 59.9751 69.9231 60.44 69.9942C60.9048 70.0653 61.3983 70.0511 61.9276 69.9515C62.4568 69.852 62.986 69.6457 63.5153 69.3186C64.0445 68.9986 64.4737 68.6431 64.8098 68.2591C65.1388 67.8751 65.4034 67.5124 65.5965 67.1569C65.8254 66.7587 65.997 66.3675 66.1186 65.9764C66.0471 66.0404 65.9899 66.0973 65.9398 66.1542C65.8898 66.204 65.8325 66.2609 65.7825 66.3178C65.7324 66.3746 65.6752 66.4173 65.6108 66.4529C65.146 66.7373 64.6596 66.8226 64.159 66.7018C63.6583 66.5809 63.265 66.2893 62.9789 65.8271C62.6928 65.3649 62.607 64.8813 62.7286 64.3835C62.8502 63.8858 63.1434 63.4947 63.6083 63.2102C64.0731 62.9258 64.5595 62.8404 65.0601 62.9613C65.5608 63.0822 65.9541 63.3738 66.2402 63.836C66.419 64.1276 66.512 64.5186 66.5048 65.0022C66.4977 65.4858 66.3975 65.9978 66.183 66.5382C65.9684 67.0786 65.6609 67.6262 65.2389 68.1666C64.8241 68.7071 64.2949 69.1764 63.6583 69.5604C62.8931 70.0226 62.1207 70.3284 61.3482 70.4706C60.5687 70.6128 59.8249 70.62 59.124 70.4848C58.4159 70.3497 57.7794 70.0937 57.2001 69.7097C56.6208 69.3257 56.1559 68.8493 55.8055 68.2733C55.2047 67.2991 54.9186 66.3675 54.9401 65.4929C54.9687 64.6111 55.1546 63.7578 55.4979 62.9329C55.8412 62.1009 56.2775 61.2974 56.7996 60.508C57.3217 59.7187 57.7794 58.9507 58.1656 58.1898C58.5518 57.4289 58.8022 56.6752 58.9023 55.9214C59.0024 55.1676 58.8165 54.3996 58.3373 53.6245C58.087 53.2192 57.7651 52.8921 57.3718 52.629C56.9784 52.373 56.535 52.1952 56.0415 52.1099C55.548 52.0245 55.0188 52.0459 54.4538 52.1667C53.8888 52.2876 53.3166 52.5223 52.7373 52.8778C52.3582 53.1125 52.0149 53.3614 51.7145 53.6316C52.9733 54.8689 54.0461 56.2627 54.0461 58.1045C54.0461 61.0698 51.6359 64.604 51.6287 64.6111L51.5072 64.7889L51.3856 64.6111C51.3784 64.604 48.9682 61.0698 48.9682 58.1045C48.9682 56.2627 50.0481 54.8618 51.2997 53.6316C50.9708 53.3614 50.6346 53.1054 50.2484 52.8778ZM52.1151 54.5774C51.829 54.3285 51.593 54.1792 51.4785 54.1152C51.3641 54.1792 51.1281 54.3356 50.842 54.5774C48.1386 57.3009 49.3401 60.9347 51.4785 64.2698C53.3023 61.4253 54.9401 57.3294 52.1151 54.5774ZM49.4688 72.1773C49.4688 74.403 50.9922 75.5479 51.4785 75.8537C51.9649 75.5479 53.4882 74.4102 53.4882 72.1773C53.4882 70.0084 52.0722 67.484 51.4785 66.524C50.8921 67.484 49.4688 70.0084 49.4688 72.1773ZM51.3355 76.4795L51.4785 76.5577L51.6216 76.4795C51.6287 76.4724 54.1033 75.1995 54.1033 72.1844C54.1033 69.2617 51.7432 65.7987 51.736 65.7915L51.4785 65.4147L51.2211 65.7915C51.2139 65.7987 48.8538 69.2617 48.8538 72.1844C48.8538 75.1924 51.3283 76.4724 51.3355 76.4795ZM53.2093 58.0832C53.2093 55.9712 51.4785 55.0752 51.4785 55.0752C51.4785 55.0752 49.7478 55.9712 49.7478 58.0832C49.7478 60.1951 51.4785 62.7267 51.4785 62.7267C51.4785 62.7267 53.2093 60.188 53.2093 58.0832ZM50.5774 51.4628C50.5774 52.5721 51.4857 53.0343 51.4857 53.0343C51.4857 53.0343 52.394 52.565 52.394 51.4628C52.394 50.3534 51.4857 49.0308 51.4857 49.0308C51.4857 49.0308 50.5774 50.3534 50.5774 51.4628ZM38.7623 39.0042C38.5263 39.381 38.276 39.7224 38.0042 40.0211C36.767 38.7695 35.358 37.7028 33.5056 37.7028C30.5233 37.7028 26.9688 40.0993 26.9616 40.1064L26.7828 40.2273L26.9616 40.3482C26.9688 40.3553 30.5233 42.7517 33.5056 42.7517C35.358 42.7517 36.767 41.6779 38.0042 40.4335C38.276 40.7322 38.5335 41.0735 38.7623 41.4504C39.1128 42.0264 39.356 42.5953 39.4775 43.157C39.5991 43.7188 39.6206 44.245 39.5347 44.7357C39.4489 45.2263 39.2773 45.6672 39.0127 46.0583C38.7552 46.4495 38.419 46.7695 38.0114 47.0183C37.2318 47.4948 36.4666 47.6797 35.7013 47.5801C34.9432 47.4805 34.1779 47.2317 33.4198 46.8477C32.6546 46.4637 31.875 46.0086 31.0883 45.4895C30.2944 44.9704 29.4862 44.5366 28.6495 44.1952C27.8127 43.8468 26.9544 43.6619 26.0747 43.6406C25.1879 43.6121 24.2582 43.9037 23.2783 44.501C22.699 44.8495 22.2198 45.3117 21.8336 45.8877C21.4474 46.4637 21.19 47.1037 21.0541 47.8006C20.9182 48.5046 20.9253 49.237 21.0684 50.0121C21.2114 50.7872 21.5189 51.5552 21.991 52.309C22.3843 52.9419 22.8492 53.4681 23.3928 53.8805C23.9363 54.293 24.4799 54.6058 25.0306 54.8192C25.5813 55.0325 26.0962 55.1392 26.5754 55.1392C27.0617 55.1392 27.4479 55.0538 27.7483 54.8761C28.2132 54.5916 28.5064 54.2005 28.628 53.7027C28.7496 53.205 28.6638 52.7214 28.3777 52.2592C28.0916 51.797 27.6982 51.5054 27.1976 51.3845C26.697 51.2636 26.2106 51.349 25.7458 51.6334C25.2809 51.9179 24.9805 52.309 24.8661 52.8067C24.7445 53.3045 24.8303 53.7881 25.1164 54.2503C25.1521 54.3143 25.2022 54.3712 25.2523 54.421C25.3023 54.4707 25.3596 54.5276 25.4096 54.5774C25.4668 54.6272 25.524 54.6912 25.5884 54.7552C25.1951 54.6343 24.7945 54.4565 24.4012 54.2361C24.0507 54.0441 23.6788 53.7881 23.2926 53.4538C22.9064 53.1267 22.5488 52.693 22.227 52.1667C21.9052 51.6405 21.6906 51.1143 21.5905 50.5881C21.4903 50.0619 21.476 49.5712 21.5476 49.109C21.6191 48.6468 21.7764 48.2343 22.0124 47.8503C22.2484 47.4734 22.5417 47.1748 22.885 46.9686C23.6645 46.4921 24.4298 46.3072 25.1951 46.4068C25.9532 46.5063 26.7184 46.7552 27.4765 47.1392C28.2418 47.5232 29.0214 47.9783 29.8081 48.4974C30.6019 49.0165 31.4101 49.4503 32.2469 49.7916C33.0837 50.133 33.9419 50.3179 34.8359 50.3392C35.7299 50.3605 36.6597 50.0761 37.6252 49.4859C38.2617 49.0948 38.7909 48.6041 39.1986 47.9997C39.6134 47.3952 39.8852 46.7339 40.0139 46.0157C40.1498 45.2975 40.1355 44.5295 39.9782 43.7188C39.8208 42.9081 39.499 42.1046 38.9984 41.2939C38.748 40.8886 38.4834 40.533 38.1973 40.213C38.4834 39.9002 38.748 39.5375 38.9984 39.1322C39.4918 38.3286 39.8208 37.518 39.9782 36.7073C40.1355 35.8966 40.1427 35.1286 40.0139 34.4104C39.8781 33.6922 39.6063 33.0309 39.1986 32.4264C38.7909 31.822 38.2617 31.3313 37.6252 30.9402C36.6597 30.35 35.7299 30.0656 34.8359 30.0869C33.9419 30.1082 33.0837 30.2931 32.2469 30.6344C31.4173 30.9829 30.6019 31.4096 29.8081 31.9287C29.0142 32.4478 28.2418 32.9029 27.4765 33.2869C26.7113 33.6709 25.9532 33.9198 25.1951 34.0193C24.437 34.1189 23.6645 33.934 22.885 33.4575C22.5417 33.2513 22.2484 32.9527 22.0124 32.5758C21.7764 32.1989 21.6191 31.7793 21.5476 31.3171C21.476 30.8549 21.4903 30.3642 21.5905 29.838C21.6906 29.3118 21.898 28.7856 22.227 28.2594C22.5488 27.7331 22.9064 27.3065 23.2926 26.9723C23.6788 26.6451 24.0436 26.382 24.4012 26.19C24.8017 25.9625 25.1951 25.7918 25.5884 25.6709C25.524 25.742 25.4668 25.7989 25.4096 25.8487C25.3596 25.8985 25.3023 25.9554 25.2523 26.0051C25.1951 26.0549 25.1521 26.1118 25.1164 26.1758C24.8303 26.638 24.7445 27.1216 24.8661 27.6194C24.9877 28.1171 25.2809 28.5082 25.7458 28.7927C26.2106 29.0771 26.697 29.1625 27.1976 29.0416C27.6982 28.9207 28.0916 28.6291 28.3777 28.1669C28.6638 27.7047 28.7496 27.2211 28.628 26.7234C28.5064 26.2256 28.2132 25.8345 27.7483 25.55C27.4551 25.3723 27.0617 25.2798 26.5754 25.2869C26.0891 25.294 25.5741 25.3936 25.0306 25.6069C24.4799 25.8131 23.9363 26.126 23.3928 26.5456C22.8492 26.958 22.3772 27.4842 21.991 28.1171C21.5261 28.878 21.2186 29.646 21.0684 30.414C20.9253 31.1891 20.9182 31.9287 21.0541 32.6255C21.19 33.3295 21.4474 33.9624 21.8336 34.5384C22.2198 35.1144 22.699 35.5766 23.2783 35.9251C24.2582 36.5224 25.1951 36.8068 26.0747 36.7855C26.9616 36.7571 27.8198 36.5722 28.6495 36.2308C29.4862 35.8895 30.2944 35.4557 31.0883 34.9366C31.8821 34.4175 32.6546 33.9624 33.4198 33.5784C34.1851 33.1873 34.9432 32.9456 35.7013 32.846C36.4594 32.7464 37.2318 32.9313 38.0114 33.4078C38.419 33.6566 38.748 33.9766 39.0127 34.3678C39.2773 34.7589 39.4489 35.1998 39.5347 35.6904C39.6206 36.1811 39.5991 36.7073 39.4775 37.2691C39.3488 37.8664 39.1128 38.4353 38.7623 39.0042ZM37.0459 40.8602C34.2781 43.669 30.1585 42.0406 27.2977 40.2273C30.652 38.1011 34.3067 36.9064 37.0459 39.5944C37.2962 39.8788 37.4464 40.1135 37.5108 40.2273C37.4464 40.341 37.2962 40.5757 37.0459 40.8602ZM19.3448 38.2291C21.5261 38.2291 24.065 39.637 25.0306 40.2273C24.065 40.8175 21.5261 42.2255 19.3448 42.2255C17.1062 42.2255 15.9547 40.7108 15.6472 40.2273C15.9547 39.7437 17.099 38.2291 19.3448 38.2291ZM15.025 40.0851C15.025 40.0779 16.3123 37.6175 19.3448 37.6175C22.2842 37.6175 25.7672 39.9642 25.7744 39.9713L26.1534 40.2273L25.7744 40.4833C25.7672 40.4904 22.2842 42.837 19.3448 42.837C16.3123 42.837 15.025 40.3766 15.025 40.3695L14.9463 40.2273L15.025 40.0851ZM33.5271 41.9481C31.403 41.9481 28.8569 40.2273 28.8569 40.2273C28.8569 40.2273 31.403 38.5135 33.5271 38.5135C35.6512 38.5135 36.5452 40.2273 36.5452 40.2273C36.5452 40.2273 35.6512 41.9481 33.5271 41.9481ZM40.1856 39.3242C41.2941 39.3242 42.6316 40.2273 42.6316 40.2273C42.6316 40.2273 41.2941 41.1304 40.1856 41.1304C39.0699 41.1304 38.605 40.2273 38.605 40.2273C38.605 40.2273 39.0699 39.3242 40.1856 39.3242ZM64.2019 41.4504C64.4379 41.0735 64.6882 40.7322 64.96 40.4335C66.1973 41.685 67.6062 42.7517 69.4586 42.7517C72.4409 42.7517 75.9955 40.3553 76.0026 40.3482L76.1814 40.2273L76.0026 40.1064C75.9955 40.0993 72.4409 37.7028 69.4586 37.7028C67.6062 37.7028 66.1973 38.7766 64.96 40.0211C64.6882 39.7224 64.4308 39.381 64.2019 39.0042C63.8514 38.4282 63.6083 37.8593 63.4867 37.2975C63.3651 36.7357 63.3436 36.2095 63.4295 35.7189C63.5153 35.2282 63.6869 34.7873 63.9516 34.3962C64.2162 34.0051 64.5452 33.6851 64.9528 33.4362C65.7324 32.9598 66.4977 32.7749 67.2629 32.8744C68.021 32.974 68.7863 33.2229 69.5444 33.6069C70.3097 33.9909 71.0821 34.446 71.8759 34.9651C72.6698 35.4842 73.478 35.918 74.3148 36.2593C75.1515 36.6006 76.0098 36.7855 76.8895 36.814C77.7763 36.8424 78.7061 36.5509 79.6859 35.9535C80.2652 35.6051 80.7444 35.1429 81.1306 34.5669C81.5168 33.9909 81.7743 33.3509 81.9101 32.654C82.046 31.95 82.0389 31.2176 81.8958 30.4425C81.7528 29.6673 81.4453 28.8993 80.9732 28.1456C80.5799 27.5127 80.115 26.9865 79.5715 26.574C79.0279 26.1616 78.4844 25.8487 77.9337 25.6354C77.383 25.422 76.868 25.3154 76.3888 25.3154C75.9025 25.3154 75.5163 25.4007 75.2159 25.5785C74.751 25.8629 74.4578 26.254 74.3362 26.7518C74.2146 27.2496 74.3005 27.7331 74.5865 28.1954C74.8726 28.6576 75.266 28.9562 75.7666 29.07C76.2672 29.1909 76.7536 29.1056 77.2185 28.8211C77.6833 28.5367 77.9766 28.1456 78.0982 27.6478C78.2197 27.15 78.1339 26.6665 77.8478 26.2042C77.8121 26.1402 77.762 26.0834 77.7119 26.0336C77.6547 25.9838 77.6047 25.9269 77.5474 25.8771C77.4902 25.8274 77.433 25.7634 77.3686 25.6994C77.762 25.8203 78.1625 25.9909 78.5559 26.2185C78.9063 26.4105 79.2782 26.6665 79.6644 27.0007C80.0506 27.3278 80.4082 27.7616 80.7301 28.2878C81.0519 28.814 81.2665 29.3402 81.3666 29.8665C81.4667 30.3927 81.481 30.8833 81.4095 31.3456C81.338 31.8007 81.1806 32.2202 80.9446 32.6042C80.7086 32.9811 80.4154 33.2798 80.0721 33.486C79.2925 33.9624 78.5273 34.1473 77.762 34.0477C77.0039 33.9482 76.2386 33.6993 75.4805 33.3153C74.7153 32.9313 73.9429 32.4762 73.149 31.9571C72.3551 31.438 71.5469 31.0042 70.7102 30.6629C69.8734 30.3216 69.0152 30.1367 68.1212 30.1153C67.2272 30.094 66.2974 30.3784 65.3319 30.9687C64.6954 31.3598 64.1661 31.8504 63.7585 32.4549C63.3436 33.0593 63.0719 33.7207 62.9431 34.4389C62.8073 35.1571 62.8215 35.9251 62.9789 36.7357C63.1362 37.5464 63.4581 38.3571 63.9587 39.1606C64.209 39.5659 64.4737 39.9215 64.7597 40.2415C64.4737 40.5544 64.209 40.917 63.9587 41.3224C63.4652 42.1259 63.1362 42.9366 62.9789 43.7472C62.8215 44.5579 62.8144 45.3259 62.9431 46.0441C63.079 46.7623 63.3508 47.4237 63.7585 48.0281C64.1661 48.6325 64.6954 49.1232 65.3319 49.5143C66.2974 50.1045 67.2272 50.389 68.1212 50.3676C69.0152 50.3463 69.8734 50.1614 70.7102 49.8201C71.5469 49.4788 72.3551 49.045 73.149 48.5259C73.9429 48.0068 74.7153 47.5517 75.4805 47.1677C76.2458 46.7837 77.0039 46.5348 77.762 46.4352C78.5201 46.3357 79.2925 46.5206 80.0721 46.997C80.4154 47.2032 80.7015 47.5019 80.9446 47.8788C81.1806 48.2557 81.338 48.6752 81.4095 49.1374C81.481 49.5996 81.4667 50.0903 81.3666 50.6165C81.2665 51.1428 81.0591 51.669 80.7301 52.1952C80.4082 52.7214 80.0506 53.1481 79.6644 53.4823C79.2782 53.8094 78.9135 54.0725 78.5559 54.2645C78.1554 54.4921 77.762 54.6627 77.3686 54.7836C77.433 54.7125 77.4902 54.6556 77.5474 54.6058C77.6047 54.5561 77.6547 54.4992 77.7119 54.4494C77.7692 54.3996 77.8121 54.3427 77.8478 54.2787C78.1339 53.8165 78.2197 53.333 78.0982 52.8352C77.9766 52.3374 77.6833 51.9463 77.2185 51.6619C76.7536 51.3774 76.2672 51.2921 75.7666 51.413C75.266 51.5339 74.8726 51.8254 74.5865 52.2876C74.3005 52.7499 74.2146 53.2334 74.3362 53.7312C74.4578 54.229 74.751 54.6201 75.2159 54.9045C75.5091 55.0823 75.9025 55.1747 76.3888 55.1676C76.8752 55.1676 77.3901 55.0609 77.9337 54.8476C78.4772 54.6343 79.0279 54.3285 79.5715 53.909C80.115 53.4965 80.587 52.9703 80.9732 52.3374C81.4381 51.5765 81.7457 50.8085 81.8958 50.0405C82.0389 49.2654 82.046 48.5259 81.9101 47.829C81.7743 47.125 81.5168 46.4921 81.1306 45.9161C80.7444 45.3401 80.2652 44.8779 79.6859 44.5295C78.7061 43.9321 77.7692 43.6477 76.8895 43.669C76.0026 43.6975 75.1444 43.8824 74.3148 44.2237C73.478 44.565 72.6698 44.9988 71.8759 45.5179C71.0821 46.037 70.3097 46.4921 69.5444 46.8761C68.7792 47.2601 68.021 47.509 67.2629 47.6085C66.5048 47.7081 65.7324 47.5232 64.9528 47.0468C64.5452 46.7979 64.2162 46.4779 63.9516 46.0868C63.6941 45.6957 63.5153 45.2548 63.4295 44.7641C63.3436 44.2735 63.3651 43.7472 63.4867 43.1855C63.6083 42.5881 63.8443 42.0193 64.2019 41.4504ZM65.9112 39.5944C68.6719 36.7855 72.7985 38.4139 75.6593 40.2273C72.3051 42.3535 68.6504 43.5481 65.9112 40.8602C65.6609 40.5757 65.5107 40.341 65.4463 40.2273C65.5107 40.1135 65.668 39.8788 65.9112 39.5944ZM83.6123 42.2255C81.431 42.2255 78.892 40.8175 77.9265 40.2273C78.892 39.637 81.431 38.2291 83.6123 38.2291C85.8509 38.2291 87.0024 39.7437 87.3099 40.2273C87.0024 40.7108 85.858 42.2255 83.6123 42.2255ZM87.9392 40.3695C87.9321 40.3766 86.6519 42.837 83.6195 42.837C80.68 42.837 77.197 40.4904 77.1898 40.4833L76.8108 40.2273L77.1898 39.9713C77.197 39.9642 80.68 37.6175 83.6195 37.6175C86.6519 37.6175 87.9392 40.0779 87.9392 40.0851L88.0179 40.2273L87.9392 40.3695ZM69.4371 38.5064C71.5612 38.5064 74.1073 40.2273 74.1073 40.2273C74.1073 40.2273 71.5612 41.9481 69.4371 41.9481C67.313 41.9481 66.419 40.2273 66.419 40.2273C66.419 40.2273 67.313 38.5064 69.4371 38.5064ZM62.7786 41.1304C61.6629 41.1304 60.3327 40.2273 60.3327 40.2273C60.3327 40.2273 61.6629 39.3242 62.7786 39.3242C63.8943 39.3242 64.3592 40.2273 64.3592 40.2273C64.3592 40.2273 63.8872 41.1304 62.7786 41.1304ZM29.6078 58.5525C31.6247 56.8245 33.8847 57.7276 33.8847 57.7276C33.8847 57.7276 34.4426 60.0885 32.4329 61.8093C30.416 63.5373 26.5897 63.9782 26.5897 63.9782C26.5897 63.9782 27.5981 60.2805 29.6078 58.5525ZM29.615 21.9589C31.6318 23.6869 33.8919 22.7838 33.8919 22.7838C33.8919 22.7838 34.4497 20.423 32.44 18.7021C30.4232 16.9741 26.5968 16.5332 26.5968 16.5332C26.5968 16.5332 27.5981 20.231 29.615 21.9589ZM73.3492 58.5525C71.3324 56.8245 69.0724 57.7276 69.0724 57.7276C69.0724 57.7276 68.5145 60.0885 70.5242 61.8093C72.5411 63.5373 76.3674 63.9782 76.3674 63.9782C76.3674 63.9782 75.3661 60.2805 73.3492 58.5525Z" fill="#242333"/>
<path fill-rule="evenodd" clip-rule="evenodd" d="M51.4786 0C62.6499 0 72.7628 4.50129 80.0864 11.783C87.41 19.0647 91.9372 29.1198 91.9372 40.2273C91.9372 51.3347 87.41 61.3898 80.0864 68.6715C72.7628 75.9532 62.6499 80.4545 51.4786 80.4545C40.3072 80.4545 30.1943 75.9532 22.8707 68.6715C15.5471 61.3898 11.0199 51.3347 11.0199 40.2273C11.0199 29.1198 15.5471 19.0647 22.8707 11.783C30.1943 4.5084 40.3072 0 51.4786 0ZM79.0208 12.8426C71.9761 5.83818 62.2351 1.50042 51.4786 1.50042C40.722 1.50042 30.9882 5.83818 23.9363 12.8426C16.8917 19.847 12.529 29.5322 12.529 40.2273C12.529 50.9223 16.8917 60.6005 23.9363 67.612C30.981 74.6164 40.722 78.9541 51.4786 78.9541C62.2351 78.9541 71.969 74.6164 79.0208 67.612C86.0655 60.6076 90.4282 50.9223 90.4282 40.2273C90.4282 29.5322 86.0655 19.8541 79.0208 12.8426Z" fill="#242333"/>
<path d="M103.754 113.576H83.5564V114.073H103.754V113.576Z" fill="#242333"/>
<path d="M20.2615 113.576H0.0643311V114.073H20.2615V113.576Z" fill="#242333"/>
<path fill-rule="evenodd" clip-rule="evenodd" d="M30.3887 110.81C30.1884 110.81 30.0096 110.852 29.8665 110.93C29.7164 111.016 29.5948 111.101 29.5018 111.201C29.3874 111.314 29.2944 111.442 29.2157 111.592V115.51C29.3087 115.737 29.4231 115.929 29.559 116.1C29.6735 116.249 29.8093 116.385 29.9667 116.505C30.124 116.626 30.31 116.69 30.5317 116.69C30.6819 116.69 30.8321 116.641 30.9823 116.548C31.1324 116.456 31.2755 116.292 31.4042 116.057C31.533 115.83 31.6331 115.524 31.7189 115.147C31.8047 114.77 31.8405 114.308 31.8405 113.753C31.8405 113.199 31.7976 112.729 31.7189 112.36C31.6331 111.983 31.5258 111.684 31.3899 111.457C31.254 111.229 31.1038 111.066 30.9322 110.966C30.7462 110.859 30.5674 110.81 30.3887 110.81ZM30.5817 110.546C30.8964 110.546 31.1968 110.618 31.49 110.76C31.7761 110.902 32.0408 111.115 32.2625 111.386C32.4913 111.663 32.6701 111.997 32.806 112.388C32.9419 112.786 33.0063 113.234 33.0063 113.739C33.0063 114.244 32.9348 114.692 32.806 115.09C32.6701 115.489 32.4985 115.823 32.2839 116.093C32.0694 116.37 31.8262 116.577 31.5473 116.719C31.2683 116.861 30.9966 116.932 30.7105 116.932C30.4459 116.932 30.217 116.882 30.0239 116.783C29.8308 116.683 29.6734 116.569 29.5519 116.449C29.4017 116.299 29.2872 116.136 29.1943 115.951V116.733H27.3562V116.605L28.1429 116.406V107.922L27.3562 107.723V107.595H29.1943V111.186C29.2729 111.066 29.3802 110.959 29.509 110.859C29.6234 110.781 29.7664 110.71 29.9381 110.639C30.1169 110.582 30.3314 110.546 30.5817 110.546ZM38.17 113.746C38.17 114.301 38.2129 114.77 38.2916 115.14C38.3774 115.517 38.4847 115.816 38.6205 116.05C38.7564 116.278 38.9066 116.441 39.0783 116.541C39.2499 116.633 39.4287 116.683 39.6075 116.683C39.8364 116.683 40.0509 116.641 40.2512 116.555C40.4515 116.47 40.6303 116.349 40.7876 116.2C40.9449 116.05 41.0737 115.873 41.1738 115.666C41.2739 115.46 41.3455 115.233 41.3741 114.991H41.5743C41.5386 115.268 41.4599 115.531 41.3454 115.766C41.2239 116.008 41.0737 116.214 40.8949 116.385C40.7089 116.555 40.5015 116.697 40.2584 116.797C40.0152 116.897 39.7577 116.946 39.4788 116.946C39.1427 116.946 38.828 116.875 38.5347 116.733C38.2343 116.591 37.9697 116.377 37.7409 116.107C37.512 115.83 37.326 115.496 37.1902 115.105C37.0543 114.706 36.9899 114.258 36.9899 113.753C36.9899 113.234 37.0543 112.772 37.1902 112.367C37.3189 111.969 37.4977 111.634 37.7123 111.371C37.9268 111.108 38.1771 110.902 38.4632 110.767C38.7493 110.625 39.0497 110.561 39.3644 110.561C39.679 110.561 39.9794 110.632 40.2655 110.767C40.5516 110.909 40.8019 111.108 41.0165 111.371C41.231 111.634 41.4027 111.969 41.5386 112.367C41.6673 112.765 41.7388 113.227 41.7388 113.753H38.17V113.746ZM39.3501 110.745C39.2213 110.745 39.0854 110.788 38.9567 110.866C38.828 110.952 38.7064 111.094 38.592 111.307C38.4775 111.513 38.3845 111.798 38.313 112.146C38.2415 112.502 38.1914 112.943 38.1771 113.483H40.5444C40.5301 112.943 40.4801 112.495 40.4085 112.146C40.337 111.791 40.2369 111.513 40.1296 111.307C40.0152 111.101 39.8936 110.952 39.7649 110.866C39.6147 110.788 39.4788 110.745 39.3501 110.745ZM48.9694 113.554C48.2113 113.554 47.6463 113.725 47.2816 114.059C46.9168 114.393 46.738 114.856 46.738 115.453C46.738 115.844 46.831 116.15 47.0241 116.37C47.2172 116.591 47.4246 116.697 47.6535 116.697C47.8609 116.697 48.0468 116.633 48.2113 116.513C48.3758 116.392 48.5117 116.257 48.6262 116.107C48.7549 115.944 48.8693 115.745 48.9694 115.517V113.554V113.554ZM47.9896 110.745C47.725 110.745 47.5105 110.838 47.3317 111.016C47.16 111.193 47.067 111.428 47.067 111.727C47.067 111.798 47.067 111.855 47.0742 111.912C47.0813 111.961 47.0885 112.011 47.0956 112.054C47.1028 112.097 47.1171 112.139 47.1385 112.182L46.0872 112.445C46.0729 112.417 46.0586 112.381 46.0515 112.338C46.0443 112.296 46.0372 112.246 46.03 112.196C46.0228 112.146 46.0228 112.075 46.0228 111.99C46.0228 111.805 46.0657 111.634 46.1516 111.464C46.2374 111.293 46.3661 111.144 46.5378 111.009C46.7094 110.874 46.9168 110.767 47.1529 110.681C47.396 110.596 47.6749 110.561 47.9896 110.561C48.619 110.561 49.1197 110.738 49.4773 111.094C49.842 111.45 50.0208 111.926 50.0208 112.516V116.434L50.8075 116.633V116.761H48.9694V115.979C48.8765 116.164 48.7478 116.328 48.6047 116.477C48.4831 116.598 48.3258 116.712 48.1398 116.811C47.9539 116.911 47.725 116.961 47.4604 116.961C46.831 116.961 46.3518 116.811 46.0372 116.52C45.7153 116.221 45.558 115.83 45.558 115.332C45.558 115.09 45.6223 114.841 45.7582 114.6C45.8941 114.358 46.1015 114.137 46.3733 113.945C46.6522 113.753 47.0027 113.597 47.4318 113.483C47.8609 113.362 48.3758 113.305 48.9694 113.305V112.523C48.9694 111.869 48.8693 111.414 48.6762 111.151C48.476 110.874 48.2471 110.745 47.9896 110.745ZM59.3112 111.073V116.427L60.0979 116.626V116.754H58.2599V115.972C58.1669 116.157 58.0381 116.321 57.8951 116.47C57.7735 116.591 57.6162 116.705 57.4302 116.804C57.2443 116.904 57.0154 116.953 56.7508 116.953C56.4862 116.953 56.243 116.904 56.0213 116.811C55.7996 116.719 55.6065 116.584 55.4348 116.413C55.2703 116.242 55.1416 116.036 55.0486 115.801C54.9556 115.56 54.9127 115.297 54.9127 114.998V111.08L54.126 110.881V110.753H56.6864V110.881L55.9641 111.08V114.998C55.9641 115.617 56.0642 116.05 56.2573 116.313C56.4576 116.569 56.6864 116.697 56.9439 116.697C57.1513 116.697 57.3373 116.633 57.5018 116.513C57.6663 116.392 57.8021 116.257 57.9166 116.107C58.0453 115.944 58.1597 115.745 58.2599 115.517V111.08L57.5375 110.881V110.753H60.0979V110.881L59.3112 111.073ZM67.1641 110.745V111.009H65.655V115.176C65.655 115.709 65.748 116.093 65.9411 116.335C66.1342 116.577 66.3416 116.69 66.5705 116.69C66.8708 116.69 67.1211 116.577 67.3286 116.356C67.536 116.136 67.6575 115.809 67.6862 115.382H67.8864C67.8506 115.88 67.7005 116.264 67.4358 116.534C67.1712 116.804 66.8351 116.946 66.4417 116.946C65.8839 116.946 65.4333 116.783 65.1043 116.456C64.7681 116.129 64.6037 115.702 64.6037 115.183V111.002H63.488V110.738H64.6037V109.238L65.655 108.52V110.738H67.1641V110.745ZM73.3648 117.857C73.2218 118.269 73.0859 118.61 72.9572 118.881C72.8284 119.158 72.6854 119.378 72.5423 119.549C72.3993 119.72 72.2491 119.841 72.0989 119.905C71.9487 119.976 71.7771 120.011 71.5911 120.011C71.5411 120.011 71.491 120.011 71.4481 120.004C71.4052 119.997 71.3623 119.99 71.3193 119.983C71.2764 119.976 71.2335 119.961 71.1978 119.947L70.9975 118.966C71.0333 118.98 71.069 118.994 71.1191 119.001C71.162 119.009 71.2049 119.016 71.2478 119.023C71.2908 119.03 71.3408 119.03 71.3909 119.03C71.913 119.03 72.2992 118.93 72.5423 118.738C72.7855 118.539 72.9715 118.248 73.1002 117.857L73.4649 116.747L71.1906 111.066L70.4039 110.866V110.738H73.0287V110.866L72.3063 111.066L73.9727 115.233L75.3245 111.201L74.4734 110.874V110.745H76.4402V110.874L75.5891 111.201L73.3648 117.857Z" fill="#242333"/>
<path fill-rule="evenodd" clip-rule="evenodd" d="M89.8001 103.201V101.835C90.0718 101.764 90.3365 101.672 90.594 101.558C91.2376 101.266 91.8169 100.833 92.3176 100.257C92.8111 99.6878 93.183 99.0194 93.4333 98.2585C93.6765 97.5118 93.798 96.6727 93.798 95.7554C93.798 94.8381 93.6765 93.999 93.4333 93.2523C93.183 92.4985 92.8111 91.8301 92.3176 91.2541C91.8169 90.6781 91.2448 90.2443 90.594 89.9528C90.3436 89.839 90.079 89.7465 89.8001 89.6754V88.3101C91.7311 88.4594 93.3689 89.1776 94.7135 90.4647C95.4788 91.1901 96.0509 91.9936 96.43 92.8754C96.809 93.7501 97.0021 94.703 97.0021 95.7412C97.0021 96.7936 96.809 97.7536 96.43 98.6425C96.0509 99.5242 95.4788 100.335 94.7135 101.06C93.3689 102.326 91.7311 103.044 89.8001 103.201ZM103.825 103.137V88.3954C103.825 88.3812 103.825 88.367 103.818 88.3528C103.811 88.3385 103.804 88.3314 103.789 88.3172C103.775 88.3101 103.768 88.2959 103.754 88.2959C103.739 88.2888 103.718 88.2888 103.689 88.2888H100.299C100.478 88.5448 100.607 88.8363 100.7 89.1563C100.793 89.5048 100.843 89.8888 100.843 90.3083V103.165C100.85 103.172 100.857 103.186 100.878 103.208L100.921 103.243H103.689C103.718 103.243 103.739 103.243 103.754 103.236C103.768 103.229 103.782 103.222 103.789 103.215L103.825 103.172V103.137ZM89.8001 88.3101V89.6754C89.371 89.5688 88.9204 89.5119 88.4484 89.5119H86.6675C86.5531 89.5119 86.4387 89.5332 86.3314 89.583C86.2241 89.6257 86.1311 89.6967 86.0525 89.7892C85.9738 89.8745 85.9166 89.9741 85.8737 90.0807C85.8379 90.1874 85.8164 90.3012 85.8164 90.415V101.124C85.8164 101.245 85.8379 101.359 85.8737 101.458C85.9166 101.572 85.9809 101.672 86.0596 101.75C86.2241 101.914 86.4315 101.999 86.6675 101.999H88.4484C88.9275 101.999 89.3781 101.942 89.8001 101.835V103.201C89.5426 103.222 89.278 103.229 89.0134 103.229H82.927L82.8841 103.194L82.8484 103.151V90.2941C82.8484 89.8745 82.7983 89.4905 82.7053 89.1421C82.6124 88.815 82.4836 88.5234 82.3048 88.2746H89.0134C89.278 88.2817 89.5426 88.2888 89.8001 88.3101ZM46.5593 98.9198V97.6825H48.2615C48.9552 97.6825 49.1841 97.3483 48.9338 96.6798L47.1386 91.7021C47.1028 91.5812 47.0385 91.4816 46.9527 91.4034C46.8525 91.311 46.7309 91.2683 46.5879 91.2683H46.5522V88.2816H48.4617C48.5618 88.2816 48.6405 88.303 48.6906 88.3385C48.7478 88.3741 48.7907 88.4452 48.8265 88.5448L54.4336 103.236H51.5156C51.4298 103.236 51.3654 103.222 51.3153 103.186C51.2653 103.151 51.2295 103.094 51.1938 103.009L49.935 99.5242C49.7991 99.126 49.4916 98.9269 49.0053 98.9269H46.5593V98.9198ZM58.2742 90.3012V103.158L58.31 103.201L58.3529 103.236H61.0993C61.1279 103.236 61.1493 103.236 61.1636 103.229C61.1779 103.222 61.1922 103.215 61.1994 103.208L61.2351 103.165V98.0309C61.2351 97.846 61.2637 97.6754 61.3138 97.5189C61.371 97.3483 61.4497 97.206 61.5641 97.078L61.793 96.8292C62.1434 96.4238 62.4867 96.438 62.83 96.8789L67.3501 102.902C67.5289 103.13 67.8221 103.243 68.2369 103.243H71.0405L64.6109 94.8665C64.289 94.4683 64.2962 94.0914 64.6395 93.7572L69.796 88.2816H68.0009C67.8221 88.2816 67.6576 88.3101 67.5289 88.367C67.4001 88.4239 67.2857 88.5092 67.1856 88.6159C65.5978 90.4576 63.8027 92.207 62.2006 94.0487C62.122 94.127 62.0433 94.1838 61.9575 94.2194C61.8287 94.2763 61.6929 94.2834 61.5641 94.2336C61.4354 94.1838 61.3353 94.0914 61.2781 93.9563C61.2423 93.871 61.228 93.7785 61.228 93.6718V88.3954C61.228 88.3812 61.228 88.367 61.2208 88.3528C61.2137 88.3385 61.2065 88.3314 61.1922 88.3172C61.1779 88.3101 61.1708 88.2959 61.1565 88.2959C61.1422 88.2888 61.1207 88.2888 61.0921 88.2888H57.7235C57.9023 88.5448 58.0311 88.8363 58.124 89.1563C58.2242 89.4976 58.2742 89.8816 58.2742 90.3012ZM77.6703 103.137V88.3954C77.6703 88.3812 77.6704 88.367 77.6632 88.3528C77.6561 88.3385 77.6489 88.3314 77.6346 88.3172C77.6203 88.3101 77.6131 88.2959 77.5988 88.2959C77.5845 88.2888 77.5631 88.2888 77.5345 88.2888H74.1444C74.3232 88.5448 74.452 88.8363 74.5449 89.1563C74.6379 89.5048 74.688 89.8888 74.688 90.3083V103.165C74.6951 103.172 74.7023 103.186 74.7237 103.208L74.7666 103.243H77.5345C77.5631 103.243 77.5845 103.243 77.5988 103.236C77.6131 103.229 77.6274 103.222 77.6346 103.215L77.6703 103.172V103.137ZM0.944054 98.5643L0.021455 100.25C0.00715109 100.278 0 100.306 0 100.335C0 100.385 0.0214572 100.449 0.057217 100.513L0.0643651 100.52C0.271772 100.954 0.550694 101.352 0.886837 101.707C1.23013 102.07 1.64495 102.39 2.13128 102.674C2.61762 102.959 3.13971 103.172 3.71187 103.314C4.28403 103.457 4.8991 103.528 5.56423 103.528C7.13766 103.528 8.3821 103.115 9.2904 102.283C9.74097 101.871 10.0843 101.409 10.306 100.89C10.5277 100.378 10.6421 99.8016 10.6421 99.1687C10.6421 98.5002 10.5205 97.8816 10.2917 97.3198C10.1772 97.0354 10.0342 96.7723 9.86256 96.5234C9.69806 96.2745 9.51211 96.0469 9.29756 95.8407C9.06869 95.6132 8.84698 95.414 8.63958 95.2363C8.42502 95.0514 8.21045 94.8878 7.99589 94.7385C7.77418 94.5892 7.54532 94.4398 7.30215 94.2976C7.05898 94.1554 6.80151 94.0132 6.52974 93.8638L6.3867 93.7927L6.19361 93.6932C5.88607 93.5367 5.62144 93.3945 5.38543 93.2736C5.13511 93.1385 4.9277 93.0247 4.77751 92.9394C4.59871 92.8327 4.42707 92.7189 4.26972 92.591C4.10523 92.463 3.95504 92.3207 3.812 92.1643C3.65466 91.9936 3.53307 91.8087 3.44724 91.6239C3.36142 91.4247 3.31851 91.2185 3.31851 91.0123C3.31851 90.735 3.36857 90.4861 3.4687 90.2585C3.57598 90.031 3.72617 89.8319 3.93358 89.6612C4.13384 89.5048 4.3627 89.3839 4.63447 89.3056C4.89194 89.2345 5.17802 89.1919 5.48556 89.1919C5.836 89.1919 6.16499 89.2345 6.47968 89.327C6.79437 89.4194 7.09475 89.5474 7.36653 89.7252C7.624 89.8959 7.86001 90.0736 8.06027 90.2656C8.26768 90.4576 8.44648 90.6639 8.59667 90.8772C8.61812 90.9056 8.63958 90.927 8.66103 90.9412L8.68963 90.9483L9.4835 89.6399C9.52641 89.5474 9.54787 89.4692 9.54072 89.4194C9.54072 89.391 9.52641 89.3696 9.50496 89.3483C9.01862 88.8861 8.43932 88.5377 7.77418 88.3101C7.09475 88.0754 6.30804 87.9545 5.42119 87.9545C4.75606 87.9545 4.14814 88.0399 3.59744 88.2176C3.04674 88.3883 2.54609 88.6443 2.09552 88.9928C1.65925 89.327 1.32312 89.711 1.10856 90.1447C0.886846 90.5785 0.772407 91.0692 0.765255 91.6167C0.765255 91.9438 0.793863 92.2496 0.843927 92.5341C0.893991 92.8185 0.979822 93.0887 1.0871 93.3447C1.19438 93.5936 1.32312 93.8354 1.48761 94.0629C1.65211 94.2905 1.83805 94.4967 2.05261 94.6887C2.51034 95.1012 2.95376 95.4425 3.39002 95.7127C3.61174 95.8549 3.86206 95.9972 4.13384 96.1465C4.41276 96.2958 4.7203 96.4594 5.04929 96.6158C6.08632 97.1207 6.85873 97.59 7.35222 98.0167C7.63115 98.2585 7.84571 98.5358 7.98874 98.8558C8.13178 99.1758 8.19615 99.5242 8.19615 99.9011C8.19615 100.257 8.13179 100.584 8.00305 100.875C7.87432 101.174 7.68121 101.43 7.43089 101.658C7.18057 101.878 6.88018 102.042 6.52974 102.148C6.1936 102.255 5.81454 102.305 5.39258 102.305C4.33409 102.305 3.38288 101.935 2.53895 101.188C2.12414 100.826 1.78798 100.42 1.52336 99.9794C1.24443 99.5456 1.05849 99.0763 0.944054 98.5643ZM46.5593 88.2816V91.2683C46.4377 91.2754 46.3233 91.3181 46.2303 91.3892C46.1302 91.4674 46.0587 91.5741 46.0229 91.7021L44.1562 96.6798C44.1062 96.8149 44.0847 96.9358 44.0847 97.0425C44.0847 97.1776 44.1205 97.2985 44.192 97.398C44.2635 97.5047 44.3636 97.5829 44.4995 97.6327C44.5925 97.6683 44.6998 97.6825 44.8142 97.6825H46.5665V98.9198H43.9631C43.7629 98.9198 43.5912 98.9696 43.441 99.0763C43.298 99.1829 43.1907 99.3251 43.1264 99.5171L41.8676 103.009C41.839 103.094 41.7961 103.151 41.746 103.186C41.7031 103.215 41.6316 103.236 41.5458 103.236H39.8651L44.7713 90.4363C44.9501 89.9456 45.0431 89.519 45.0431 89.1634C45.0431 88.9999 45.0288 88.8505 44.993 88.7012C44.9644 88.559 44.9144 88.4239 44.85 88.2888V88.2816H46.5593V88.2816ZM27.6638 88.2816H24.9747C24.9461 88.2816 24.9246 88.2888 24.9103 88.2888C24.896 88.2959 24.8817 88.303 24.8745 88.3101C24.8602 88.3243 24.8531 88.3385 24.8459 88.3456L24.8388 88.3883V94.1127C24.8388 94.3545 24.753 94.5607 24.5813 94.7314C24.5026 94.8096 24.4097 94.8736 24.3095 94.9163C24.2023 94.9661 24.095 94.9874 23.9805 94.9874H19.0171C18.7525 94.9874 18.5379 94.9092 18.3877 94.7456C18.2375 94.5892 18.166 94.3758 18.166 94.1127V88.3883C18.166 88.3741 18.166 88.3528 18.1588 88.3456C18.1517 88.3385 18.1445 88.3243 18.1302 88.3101C18.1159 88.2959 18.1088 88.2888 18.0945 88.2888C18.0802 88.2817 18.0587 88.2816 18.0301 88.2816H14.6615C14.8403 88.5376 14.9691 88.8292 15.062 89.1492C15.1622 89.4976 15.2051 89.8816 15.2051 90.3012V103.158L15.2408 103.201L15.2838 103.236H18.0301C18.0587 103.236 18.0802 103.236 18.0945 103.229C18.1088 103.222 18.1231 103.215 18.1302 103.208C18.1445 103.194 18.1588 103.179 18.166 103.165V97.0923C18.166 96.5092 18.4521 96.2176 19.0242 96.2176H23.9877C24.1021 96.2176 24.2094 96.2389 24.3167 96.2887C24.4168 96.3314 24.5098 96.3954 24.5885 96.4736C24.6743 96.5589 24.7315 96.6514 24.7816 96.758C24.8245 96.8647 24.8531 96.9785 24.8531 97.0923V103.165L24.8888 103.208C24.9031 103.222 24.9103 103.229 24.9246 103.229C24.9389 103.236 24.9604 103.236 24.989 103.236H27.6781C27.7067 103.236 27.7282 103.236 27.7425 103.229C27.7568 103.222 27.7711 103.215 27.7782 103.208C27.7925 103.194 27.8068 103.179 27.814 103.165V88.4025C27.814 88.3883 27.814 88.367 27.8068 88.3599C27.7997 88.3528 27.7925 88.3385 27.7782 88.3243C27.7639 88.3101 27.7568 88.303 27.7425 88.303C27.7067 88.2816 27.6853 88.2816 27.6638 88.2816ZM36.0245 103.137V88.3954C36.0245 88.3812 36.0245 88.367 36.0173 88.3528C36.0101 88.3385 36.003 88.3314 35.9887 88.3172C35.9744 88.3101 35.9672 88.2959 35.9529 88.2959C35.9386 88.2888 35.9172 88.2888 35.8886 88.2888H32.4985C32.6773 88.5448 32.8061 88.8363 32.899 89.1563C32.9992 89.5048 33.0421 89.8888 33.0421 90.3083V103.165C33.0492 103.172 33.0564 103.186 33.0778 103.208L33.1207 103.243H35.8886C35.9172 103.243 35.9386 103.243 35.9529 103.236C35.9672 103.229 35.9815 103.222 35.9887 103.215L36.0173 103.172L36.0245 103.137Z" fill="#242333"/>
</g>
<defs>
<clipPath id="clip0_75_36">
<rect width="104" height="120" fill="white"/>
</clipPath>
</defs>
</svg>
