<svg width="186" height="219" viewBox="0 0 186 219" fill="none" xmlns="http://www.w3.org/2000/svg">
<path fill-rule="evenodd" clip-rule="evenodd" d="M159.729 188.023V185.56C160.22 185.434 160.688 185.272 161.14 185.066C162.29 184.546 163.309 183.763 164.199 182.722C165.08 181.69 165.739 180.491 166.182 179.123C166.616 177.775 166.833 176.271 166.833 174.613C166.833 172.956 166.616 171.451 166.182 170.1C165.744 168.735 165.08 167.537 164.199 166.505C163.309 165.464 162.29 164.681 161.14 164.156C160.688 163.951 160.22 163.789 159.729 163.662V161.2C163.157 161.471 166.073 162.765 168.468 165.075C169.827 166.382 170.842 167.83 171.519 169.413C172.191 170.992 172.53 172.711 172.53 174.57C172.53 176.459 172.191 178.2 171.519 179.792C170.842 181.384 169.827 182.836 168.468 184.148C166.069 186.457 163.157 187.752 159.729 188.023ZM184.658 187.913V161.344C184.658 161.313 184.654 161.287 184.645 161.27C184.636 161.248 184.619 161.226 184.597 161.204C184.575 161.187 184.554 161.169 184.532 161.16C184.502 161.147 184.463 161.143 184.415 161.143H178.388C178.7 161.598 178.939 162.122 179.099 162.713C179.273 163.338 179.355 164.029 179.355 164.786L179.36 187.944C179.368 187.962 179.39 187.988 179.416 188.018L179.486 188.075L184.411 188.08C184.458 188.08 184.497 188.075 184.528 188.062C184.554 188.053 184.575 188.036 184.593 188.018L184.649 187.944L184.658 187.913ZM159.729 161.2V163.662C158.97 163.47 158.167 163.373 157.321 163.373H154.154C153.945 163.373 153.746 163.417 153.555 163.496C153.368 163.579 153.199 163.701 153.052 163.863C152.913 164.016 152.804 164.191 152.735 164.388C152.665 164.576 152.631 164.782 152.631 164.992V184.279C152.631 184.493 152.665 184.694 152.739 184.883C152.817 185.088 152.926 185.263 153.073 185.407C153.368 185.705 153.728 185.853 154.154 185.853H157.321C158.167 185.853 158.97 185.757 159.729 185.565V188.027C159.27 188.062 158.801 188.084 158.324 188.084L147.502 188.08L147.432 188.023L147.376 187.948L147.372 164.79C147.372 164.034 147.285 163.343 147.116 162.717C146.955 162.131 146.716 161.606 146.404 161.147H158.328C158.801 161.143 159.27 161.165 159.729 161.2ZM82.8789 180.312V178.086H85.9076C87.1442 178.086 87.5434 177.482 87.1052 176.275L83.9116 167.305C83.8508 167.082 83.738 166.903 83.5818 166.767C83.3996 166.605 83.1826 166.527 82.9353 166.527H82.8745V161.147H86.2634C86.4413 161.147 86.5758 161.182 86.6713 161.248C86.7667 161.318 86.8492 161.44 86.9099 161.615L96.8769 188.08H91.683C91.5311 188.08 91.414 188.049 91.3315 187.992C91.2447 187.931 91.1753 187.826 91.1146 187.673L88.8756 181.392C88.6369 180.675 88.0902 180.317 87.2267 180.317H82.8789V180.312ZM103.694 164.786L103.698 187.944L103.759 188.018L103.828 188.075L108.714 188.08C108.762 188.08 108.801 188.075 108.831 188.062C108.853 188.053 108.879 188.036 108.896 188.018L108.953 187.944L108.957 178.694C108.957 178.357 109.001 178.047 109.092 177.767C109.187 177.461 109.339 177.198 109.534 176.979L109.938 176.533C110.563 175.799 111.174 175.825 111.782 176.616L119.814 187.463C120.13 187.87 120.66 188.075 121.393 188.075H126.37L114.967 173.013C114.394 172.291 114.411 171.622 115.015 171.01L124.183 161.143H120.99C120.668 161.143 120.386 161.195 120.143 161.3C119.913 161.401 119.71 161.554 119.54 161.755C116.716 165.079 113.531 168.228 110.68 171.539C110.545 171.674 110.402 171.779 110.255 171.845C110.02 171.95 109.786 171.963 109.56 171.876C109.326 171.788 109.152 171.617 109.053 171.373L109.048 171.368C108.987 171.22 108.953 171.045 108.953 170.852V161.348C108.953 161.318 108.948 161.291 108.94 161.274C108.931 161.252 108.914 161.23 108.892 161.208C108.87 161.191 108.849 161.173 108.827 161.165C108.797 161.152 108.758 161.147 108.71 161.147H102.722C103.034 161.602 103.273 162.127 103.433 162.717C103.607 163.338 103.694 164.029 103.694 164.786ZM138.173 187.913V161.344C138.173 161.313 138.168 161.287 138.16 161.27C138.151 161.248 138.134 161.226 138.112 161.204C138.09 161.187 138.068 161.169 138.047 161.16C138.016 161.147 137.977 161.143 137.93 161.143H131.903C132.215 161.598 132.454 162.122 132.614 162.713C132.788 163.338 132.87 164.029 132.87 164.786L132.874 187.944C132.883 187.962 132.905 187.988 132.931 188.018L133 188.075L137.925 188.08C137.973 188.08 138.012 188.075 138.042 188.062C138.068 188.053 138.09 188.036 138.107 188.018L138.164 187.944L138.173 187.913ZM1.80193 179.678L0.157394 182.718C0.131359 182.766 0.114001 182.818 0.11834 182.871C0.122679 182.963 0.153055 183.072 0.218142 183.194L0.226819 183.203C0.599985 183.99 1.09031 184.703 1.69345 185.346C2.30961 185.998 3.04727 186.579 3.91076 187.096C4.76991 187.607 5.70282 187.992 6.71384 188.25C7.7292 188.508 8.827 188.639 10.0029 188.639C12.7973 188.639 15.0059 187.892 16.6244 186.396C17.4272 185.652 18.0303 184.817 18.4295 183.89C18.8287 182.963 19.0283 181.93 19.0283 180.793C19.0283 179.591 18.8201 178.475 18.3992 177.456C18.1909 176.945 17.9392 176.468 17.6441 176.022C17.3534 175.58 17.0193 175.169 16.6418 174.788C16.2383 174.382 15.8477 174.019 15.4702 173.695C15.0884 173.367 14.7065 173.07 14.329 172.803C13.9385 172.527 13.5263 172.26 13.1011 172.002C12.6758 171.744 12.2159 171.486 11.7256 171.224L11.4652 171.101L11.1181 170.918C10.5757 170.638 10.094 170.384 9.68182 170.161C9.23488 169.921 8.87474 169.719 8.60137 169.558C8.28461 169.369 7.98087 169.16 7.69449 168.928C7.4081 168.692 7.13474 168.434 6.87873 168.158C6.59668 167.847 6.37973 167.519 6.22786 167.178C6.07165 166.82 5.99354 166.452 5.99354 166.076C5.99354 165.578 6.08467 165.123 6.26691 164.716C6.45349 164.301 6.72686 163.942 7.09135 163.644C7.44282 163.356 7.85938 163.142 8.33234 163.002C8.78795 162.866 9.29563 162.8 9.84671 162.8C10.4672 162.8 11.0573 162.879 11.6171 163.041C12.1812 163.203 12.7062 163.443 13.1878 163.763C13.6478 164.064 14.06 164.392 14.4245 164.738C14.789 165.083 15.1101 165.455 15.3748 165.844C15.4138 165.901 15.4529 165.941 15.4876 165.958L15.5353 165.976L16.9455 163.618C17.0237 163.452 17.0584 163.316 17.054 163.216C17.0497 163.168 17.028 163.124 16.9889 163.085C16.1254 162.254 15.1014 161.628 13.9125 161.213C12.6975 160.789 11.3047 160.574 9.72955 160.574C8.55364 160.574 7.47319 160.732 6.48821 161.042C5.5119 161.353 4.62237 161.816 3.82397 162.433C3.04292 163.037 2.45714 163.732 2.06662 164.515C1.6761 165.298 1.47649 166.181 1.46347 167.165C1.46781 167.751 1.51555 168.302 1.61101 168.814C1.70647 169.33 1.84966 169.82 2.03624 170.279C2.22283 170.734 2.45714 171.163 2.74352 171.569C3.02991 171.976 3.36836 172.357 3.75021 172.702C4.56163 173.441 5.35135 174.058 6.12372 174.552C6.51858 174.801 6.95683 175.064 7.43848 175.331C7.93748 175.606 8.48421 175.89 9.06566 176.175C10.9098 177.089 12.2766 177.929 13.1618 178.694C13.6608 179.127 14.0383 179.63 14.29 180.203C14.5373 180.776 14.6632 181.401 14.6632 182.088C14.6632 182.731 14.5503 183.317 14.3247 183.846C14.0991 184.384 13.7563 184.852 13.305 185.25C12.8581 185.644 12.3244 185.941 11.7039 186.133C11.1051 186.321 10.4325 186.413 9.6905 186.413C7.80731 186.413 6.11938 185.74 4.62238 184.401C3.88906 183.745 3.29026 183.015 2.81729 182.223C2.33998 181.441 2.00587 180.592 1.80193 179.678ZM82.8789 161.143V166.522C82.6576 166.535 82.4623 166.605 82.2931 166.741C82.1152 166.881 81.9937 167.069 81.9286 167.305L78.6178 176.275L78.6135 176.28C78.5267 176.52 78.4833 176.739 78.4833 176.936C78.4833 177.176 78.544 177.391 78.6699 177.579C78.8001 177.771 78.9823 177.911 79.2123 177.999C79.3772 178.06 79.5681 178.09 79.7764 178.09H82.8832V180.317H78.249C77.8932 180.317 77.5851 180.413 77.3248 180.596C77.0644 180.785 76.8778 181.051 76.765 181.392L74.526 187.677C74.4696 187.83 74.3958 187.935 74.309 187.997C74.2266 188.053 74.1094 188.084 73.9576 188.084H70.9722L79.6896 165.027C80.0107 164.139 80.1756 163.373 80.1756 162.726C80.1756 162.437 80.1452 162.157 80.0888 161.895C80.0324 161.641 79.9456 161.392 79.8371 161.156L79.8328 161.147H82.8789V161.143ZM49.2895 161.143H44.5165C44.4687 161.143 44.4297 161.147 44.3993 161.16C44.3733 161.169 44.3516 161.182 44.3342 161.2C44.3082 161.226 44.2908 161.248 44.2822 161.27L44.2735 161.344V171.657C44.2735 172.09 44.1216 172.462 43.8135 172.768C43.6747 172.908 43.5141 173.021 43.3362 173.1C43.1496 173.188 42.9544 173.231 42.7504 173.231H33.9246C33.4517 173.231 33.0741 173.087 32.8008 172.794C32.5361 172.514 32.4016 172.134 32.4016 171.657V161.344C32.4016 161.313 32.3972 161.287 32.3886 161.27C32.3799 161.252 32.3625 161.23 32.3408 161.204C32.3235 161.182 32.2974 161.169 32.2757 161.16C32.2454 161.147 32.2063 161.143 32.1586 161.143H26.1706C26.483 161.598 26.7216 162.122 26.8822 162.713C27.0558 163.338 27.1382 164.029 27.1382 164.786V187.944L27.1989 188.018L27.2684 188.075L32.1499 188.08C32.1976 188.08 32.2367 188.075 32.2671 188.062C32.2888 188.053 32.3148 188.036 32.3322 188.018C32.3625 187.988 32.3799 187.966 32.3886 187.944L32.3929 176.997C32.3929 175.947 32.9006 175.422 33.9159 175.422H42.7418C42.9414 175.422 43.1366 175.466 43.3232 175.549C43.5011 175.628 43.6617 175.742 43.8049 175.886C43.9524 176.035 44.0652 176.205 44.1433 176.393C44.2258 176.586 44.2648 176.787 44.2648 176.997V187.944L44.3256 188.018C44.3472 188.04 44.3689 188.053 44.3906 188.062C44.421 188.075 44.4601 188.08 44.5078 188.08H49.2809C49.3286 188.08 49.3676 188.075 49.398 188.062C49.424 188.053 49.4457 188.036 49.4631 188.018C49.4935 187.988 49.5108 187.966 49.5195 187.944L49.5239 161.348C49.5239 161.318 49.5195 161.291 49.5108 161.274C49.5022 161.256 49.4848 161.235 49.4631 161.208C49.4414 161.187 49.4197 161.173 49.398 161.165C49.3763 161.152 49.3373 161.143 49.2895 161.143ZM64.1511 187.913V161.344C64.1511 161.313 64.1468 161.287 64.1381 161.27C64.1294 161.248 64.1121 161.226 64.0904 161.204C64.0687 161.187 64.047 161.169 64.0253 161.16C63.9949 161.147 63.9558 161.143 63.9081 161.143H57.881C58.1935 161.598 58.4321 162.122 58.5927 162.713C58.7662 163.338 58.8487 164.029 58.8487 164.786L58.853 187.944C58.8617 187.962 58.8834 187.988 58.9094 188.018L58.9788 188.075L63.9038 188.08C63.9515 188.08 63.9906 188.075 64.0209 188.062C64.047 188.053 64.0687 188.036 64.086 188.018L64.1424 187.944L64.1511 187.913Z" fill="#242333"/>
<path fill-rule="evenodd" clip-rule="evenodd" d="M131.256 40.1874C127.676 43.297 123.654 41.6744 123.654 41.6744C123.654 41.6744 122.656 37.4233 126.24 34.3137C129.82 31.2041 136.619 30.4125 136.619 30.4125C136.619 30.4125 134.836 37.0778 131.256 40.1874ZM85.1222 87.0677H84.3845V77.7651H85.1222C86.0378 82.9303 88.7063 85.5063 93.1323 85.5063C94.6596 85.5063 95.9353 85.0909 96.9507 84.2642C97.9661 83.4376 98.4824 82.3705 98.4824 81.0672C98.4824 79.5976 97.7317 78.2943 96.2434 77.1441C92.7114 75.0623 89.8172 73.2822 87.5348 71.7821C85.2654 70.2819 84.1372 68.2963 84.1372 65.8296C84.1372 63.7916 84.8879 62.0946 86.4066 60.7388C87.9166 59.3743 89.7824 58.692 92.0128 58.692C93.462 58.692 94.9677 59.0419 96.5602 59.746C97.3109 60.0871 97.8315 60.2533 98.1309 60.2533C98.8295 60.2533 99.2808 59.7241 99.5065 58.692H100.235V68.0777H99.5065C99.1159 65.3048 98.2134 63.3192 96.8075 62.1077C95.3886 60.8962 93.8092 60.2971 92.0648 60.2971C90.7587 60.2971 89.6306 60.6994 88.6977 61.5085C87.7647 62.3045 87.2918 63.2886 87.2918 64.4476C87.2918 65.2042 87.6085 66.0002 88.2464 66.8399C88.8842 67.6884 90.8021 68.983 94.0044 70.7105C95.9657 71.7777 97.454 72.648 98.4694 73.3303C99.4761 74.0126 100.318 74.9048 100.995 75.9895C101.672 77.0741 102.01 78.255 102.01 79.5277C102.01 81.6882 101.199 83.4814 99.5672 84.9203C97.9444 86.3592 95.931 87.0721 93.5488 87.0721C92.2557 87.0721 90.6546 86.7528 88.7454 86.1187C87.5738 85.725 86.7624 85.5282 86.3241 85.5282C85.6776 85.5282 85.2741 86.0355 85.1222 87.0677ZM94.5685 50.3166C95.5926 50.9507 96.6123 51.375 97.6189 51.5937C98.6256 51.8123 99.5672 51.8473 100.444 51.6943C101.316 51.5412 102.106 51.2307 102.809 50.7671C103.511 50.2991 104.084 49.7043 104.527 48.9783C105.373 47.5831 105.707 46.2054 105.525 44.8452C105.343 43.4851 104.904 42.1205 104.214 40.7559C103.525 39.387 102.713 37.9962 101.785 36.5792C100.856 35.1578 100.084 33.7058 99.4674 32.21C98.8513 30.7142 98.5215 29.1791 98.4737 27.5959C98.426 26.0126 98.938 24.3419 100.005 22.5838C100.635 21.5516 101.459 20.69 102.492 19.999C103.52 19.308 104.661 18.8443 105.911 18.5994C107.165 18.3545 108.484 18.3633 109.868 18.6213C111.253 18.8837 112.624 19.4304 113.982 20.2701C115.119 20.9699 116.056 21.8096 116.794 22.7849C117.536 23.7602 118.091 24.7356 118.464 25.7196C118.842 26.6993 119.033 27.6221 119.037 28.4925C119.041 29.3584 118.885 30.0582 118.564 30.5874C118.052 31.4271 117.353 31.9519 116.459 32.1663C115.566 32.3849 114.706 32.2319 113.873 31.7201C113.045 31.2084 112.52 30.4999 112.303 29.6033C112.09 28.7024 112.238 27.8364 112.745 26.9967C113.253 26.1613 113.956 25.6321 114.85 25.4178C115.744 25.2035 116.603 25.3522 117.436 25.8639C117.549 25.9339 117.648 26.0126 117.744 26.1132C117.839 26.2094 117.93 26.3057 118.026 26.4019C118.121 26.4981 118.23 26.6031 118.347 26.7168C118.13 26.0083 117.822 25.2954 117.414 24.5868C117.076 23.9571 116.611 23.2966 116.021 22.6056C115.431 21.9146 114.667 21.2804 113.726 20.6987C112.784 20.1171 111.843 19.7409 110.905 19.5616C109.964 19.3823 109.087 19.3604 108.267 19.4873C107.447 19.6141 106.696 19.8896 106.02 20.3182C105.343 20.7425 104.818 21.2629 104.444 21.8796C103.598 23.2748 103.264 24.6525 103.446 26.0126C103.629 27.3728 104.067 28.7374 104.757 30.1019C105.447 31.4709 106.258 32.8616 107.187 34.2831C108.115 35.7001 108.888 37.1565 109.504 38.6479C110.12 40.1437 110.445 41.6875 110.484 43.2839C110.524 44.8802 110.016 46.5466 108.966 48.2785C108.272 49.4244 107.386 50.3647 106.306 51.0995C105.23 51.8386 104.05 52.324 102.761 52.5646C101.472 52.8051 100.105 52.7833 98.656 52.5034C97.2067 52.2235 95.7618 51.6374 94.3212 50.7496C93.6009 50.3035 92.9587 49.8224 92.3946 49.315C91.8305 49.8267 91.1883 50.3078 90.468 50.7496C89.0274 51.6374 87.5825 52.2235 86.1376 52.5034C84.6883 52.7833 83.3171 52.8051 82.0327 52.5646C80.744 52.324 79.5637 51.8342 78.4833 51.0995C77.4072 50.3647 76.522 49.4244 75.8234 48.2785C74.7733 46.5466 74.2657 44.8846 74.3047 43.2839C74.3438 41.6875 74.6692 40.1393 75.2854 38.6479C75.9015 37.1565 76.6739 35.7001 77.6025 34.2831C78.531 32.866 79.3425 31.4709 80.0324 30.1019C80.7266 28.733 81.1606 27.3728 81.3428 26.0126C81.525 24.6525 81.1909 23.2748 80.3448 21.8796C79.9716 21.2673 79.4466 20.7469 78.7697 20.3182C78.0928 19.894 77.3421 19.6185 76.522 19.4873C75.7019 19.3604 74.8211 19.3867 73.8838 19.5616C72.9422 19.7409 72.005 20.1171 71.0634 20.6987C70.1218 21.2804 69.3537 21.9146 68.768 22.6056C68.1778 23.2966 67.7135 23.9571 67.3751 24.5868C66.9716 25.2997 66.6591 26.0083 66.4422 26.7168C66.5637 26.6031 66.6722 26.4981 66.7633 26.4019C66.8587 26.3057 66.9499 26.2094 67.0453 26.1132C67.1408 26.017 67.2406 25.9339 67.3534 25.8639C68.1865 25.3522 69.0457 25.2035 69.9395 25.4178C70.8334 25.6321 71.5363 26.1613 72.044 26.9967C72.556 27.8364 72.6992 28.7024 72.4866 29.6033C72.274 30.5043 71.749 31.2084 70.9202 31.7201C70.0914 32.2319 69.2279 32.3849 68.334 32.1663C67.4402 31.9519 66.7416 31.4227 66.2296 30.5874C65.9085 30.0582 65.7479 29.3584 65.7523 28.4925C65.7566 27.6265 65.9519 26.6993 66.325 25.7196C66.6982 24.7399 67.2579 23.7602 67.9956 22.7849C68.7376 21.8096 69.6748 20.9699 70.8117 20.2701C72.1655 19.4348 73.541 18.8837 74.9252 18.6213C76.3094 18.3633 77.6285 18.3545 78.8825 18.5994C80.1365 18.8443 81.2777 19.308 82.3061 19.999C83.3345 20.6856 84.1632 21.5472 84.7881 22.5838C85.8598 24.3419 86.3675 26.0126 86.3198 27.5959C86.2721 29.1791 85.9423 30.7186 85.3261 32.21C84.71 33.7014 83.9376 35.1578 83.009 36.5792C82.0804 37.9962 81.269 39.3914 80.5791 40.7559C79.8849 42.1249 79.4509 43.4894 79.2644 44.8452C79.0821 46.2054 79.4162 47.5831 80.2624 48.9783C80.7049 49.7043 81.2734 50.2991 81.9807 50.7671C82.6836 51.235 83.4733 51.5456 84.3455 51.6943C85.2177 51.8473 86.1592 51.8123 87.1703 51.5937C88.1813 51.375 89.1967 50.9464 90.2207 50.3166C90.8976 49.9011 91.5051 49.4462 92.0388 48.9564C89.8085 46.7302 87.8906 44.2154 87.8906 40.8915C87.8906 35.547 92.1733 29.1835 92.1863 29.166L92.3989 28.8423L92.6159 29.166C92.6246 29.1835 96.9116 35.547 96.9116 40.8915C96.9116 44.2154 94.9981 46.7346 92.7634 48.9564C93.2885 49.4462 93.8916 49.9011 94.5685 50.3166ZM91.2577 47.2507C91.7611 47.6968 92.1863 47.968 92.3859 48.0861C92.5855 47.968 93.0108 47.6924 93.5141 47.2507C98.3175 42.3479 96.1783 35.7919 92.3859 29.787C89.1446 34.9172 86.233 42.2954 91.2577 47.2507ZM95.957 15.5379C95.957 11.523 93.2494 9.47178 92.3903 8.92071C91.5311 9.47178 88.8191 11.523 88.8191 15.5379C88.8191 19.4435 91.3359 23.9964 92.3903 25.7284C93.4403 23.9964 95.957 19.4435 95.957 15.5379ZM92.6463 7.79233L92.3859 7.65237L92.1256 7.79233C92.1126 7.79671 87.7213 10.1016 87.7213 15.5336C87.7213 20.8037 91.9216 27.0404 91.9346 27.0579L92.3859 27.7358L92.8372 27.0579C92.8502 27.0404 97.0462 20.8037 97.0462 15.5336C97.0505 10.1016 92.6593 7.80108 92.6463 7.79233ZM89.3181 40.9396C89.3181 44.7446 92.3903 46.3541 92.3903 46.3541C92.3903 46.3541 95.458 44.7446 95.458 40.9396C95.458 37.1346 92.3903 32.573 92.3903 32.573C92.3903 32.573 89.3181 37.1346 89.3181 40.9396ZM93.9957 52.8664C93.9957 50.872 92.3859 50.0279 92.3859 50.0279C92.3859 50.0279 90.7761 50.872 90.7761 52.8664C90.7761 54.8563 92.3859 57.2487 92.3859 57.2487C92.3859 57.2487 93.9957 54.8607 93.9957 52.8664ZM90.2033 95.8936C89.1793 95.2594 88.1639 94.8352 87.1529 94.6165C86.1462 94.3978 85.2046 94.3628 84.3281 94.5159C83.456 94.669 82.6662 94.9795 81.9633 95.4431C81.2603 95.9111 80.6876 96.5059 80.245 97.2319C79.3945 98.6271 79.0648 100.005 79.247 101.365C79.4292 102.725 79.8675 104.09 80.5574 105.459C81.2517 106.828 82.0588 108.218 82.9873 109.635C83.9159 111.052 84.6883 112.509 85.3044 114C85.9206 115.496 86.2504 117.031 86.2981 118.614C86.3458 120.198 85.8338 121.868 84.7664 123.626C84.1372 124.659 83.3084 125.52 82.2801 126.207C81.2517 126.898 80.1105 127.361 78.8608 127.606C77.6068 127.851 76.2877 127.843 74.9035 127.58C73.5193 127.322 72.1481 126.771 70.79 125.936C69.6531 125.236 68.7159 124.396 67.9782 123.421C67.2362 122.446 66.6808 121.466 66.3033 120.486C65.9302 119.506 65.7392 118.584 65.7306 117.713C65.7262 116.847 65.8824 116.148 66.2035 115.618C66.7112 114.783 67.4141 114.254 68.308 114.04C69.2019 113.825 70.061 113.974 70.8941 114.486C71.7229 114.997 72.2479 115.706 72.4606 116.607C72.6732 117.508 72.53 118.378 72.018 119.213C71.5103 120.049 70.8074 120.578 69.9135 120.792C69.0196 121.007 68.1561 120.858 67.3274 120.346C67.2145 120.276 67.1147 120.198 67.0193 120.101C66.9238 120.005 66.8327 119.909 66.7372 119.813C66.6418 119.716 66.5376 119.611 66.4161 119.498C66.6331 120.206 66.9412 120.919 67.3491 121.628C67.6875 122.257 68.1518 122.922 68.7419 123.609C69.332 124.3 70.0957 124.934 71.0373 125.516C71.9789 126.097 72.9205 126.478 73.8578 126.653C74.795 126.832 75.6759 126.854 76.496 126.727C77.3161 126.6 78.0624 126.325 78.7437 125.896C79.4206 125.472 79.9456 124.952 80.3188 124.335C81.1692 122.94 81.499 121.562 81.3168 120.202C81.1345 118.842 80.6963 117.477 80.0063 116.108C79.3164 114.739 78.505 113.349 77.5764 111.931C76.6478 110.514 75.8755 109.058 75.2593 107.562C74.6432 106.071 74.3177 104.523 74.2787 102.926C74.2396 101.33 74.7473 99.6636 75.7974 97.936C76.4916 96.7902 77.3768 95.8498 78.4529 95.1151C79.529 94.3803 80.7136 93.8905 82.0024 93.6499C83.2911 93.4094 84.6579 93.4313 86.1072 93.7112C87.5565 93.9911 89.0014 94.5771 90.442 95.465C91.1623 95.9111 91.8045 96.3878 92.3686 96.9039C92.9327 96.3922 93.5748 95.9111 94.2951 95.465C95.7357 94.5771 97.1807 93.9911 98.6256 93.7112C100.075 93.4313 101.442 93.4094 102.73 93.6499C104.019 93.8905 105.199 94.3803 106.28 95.1151C107.356 95.8498 108.241 96.7902 108.935 97.936C109.985 99.668 110.493 101.33 110.458 102.926C110.419 104.523 110.094 106.071 109.478 107.562C108.862 109.054 108.089 110.51 107.161 111.931C106.232 113.349 105.421 114.744 104.731 116.108C104.037 117.477 103.603 118.842 103.42 120.202C103.238 121.562 103.572 122.94 104.418 124.335C104.792 124.947 105.317 125.468 105.993 125.896C106.67 126.321 107.421 126.6 108.241 126.727C109.061 126.854 109.942 126.828 110.879 126.653C111.821 126.474 112.758 126.097 113.7 125.516C114.641 124.934 115.405 124.3 115.995 123.609C116.585 122.918 117.05 122.257 117.388 121.628C117.796 120.915 118.104 120.206 118.321 119.498C118.199 119.611 118.091 119.716 118 119.813C117.904 119.909 117.813 120.005 117.718 120.101C117.622 120.198 117.523 120.281 117.41 120.346C116.581 120.858 115.718 121.007 114.824 120.792C113.93 120.578 113.231 120.049 112.719 119.213C112.211 118.378 112.064 117.508 112.277 116.607C112.489 115.706 113.014 115.002 113.843 114.486C114.672 113.974 115.535 113.825 116.429 114.04C117.323 114.258 118.022 114.783 118.534 115.618C118.855 116.148 119.015 116.847 119.007 117.713C119.002 118.579 118.811 119.506 118.434 120.486C118.061 121.466 117.501 122.446 116.763 123.421C116.021 124.396 115.084 125.236 113.951 125.936C112.593 126.775 111.222 127.322 109.838 127.58C108.454 127.838 107.135 127.847 105.881 127.606C104.627 127.361 103.485 126.898 102.457 126.207C101.429 125.52 100.6 124.659 99.9751 123.626C98.9077 121.868 98.3956 120.198 98.4434 118.614C98.4911 117.031 98.8209 115.492 99.437 114C100.053 112.509 100.826 111.052 101.754 109.635C102.683 108.218 103.494 106.823 104.184 105.459C104.874 104.09 105.312 102.725 105.494 101.365C105.677 100.005 105.343 98.6271 104.496 97.2319C104.054 96.5059 103.485 95.9111 102.783 95.4431C102.08 94.9751 101.29 94.6646 100.418 94.5159C99.5455 94.3628 98.6039 94.3978 97.5929 94.6165C96.5819 94.8352 95.5665 95.2638 94.5425 95.8936C93.8656 96.3091 93.2581 96.7639 92.7244 97.2538C94.9547 99.4755 96.8726 101.995 96.8726 105.319C96.8726 110.663 92.5899 117.027 92.5768 117.044L92.3642 117.363L92.1516 117.044C92.1386 117.027 87.8559 110.663 87.8559 105.319C87.8559 101.995 89.7694 99.4755 92.0041 97.2538C91.4877 96.7639 90.8802 96.3091 90.2033 95.8936ZM93.5184 98.9595C93.0151 98.5177 92.5899 98.2422 92.3903 98.1241C92.1907 98.2422 91.7654 98.5177 91.2621 98.9595C86.4587 103.862 88.5979 110.418 92.3903 116.423C95.6316 111.293 98.5388 103.915 93.5184 98.9595ZM88.8191 130.672C88.8191 134.687 91.5268 136.738 92.3903 137.289C93.2494 136.738 95.957 134.687 95.957 130.672C95.957 126.767 93.4403 122.214 92.3903 120.482C91.3359 122.214 88.8191 126.767 88.8191 130.672ZM92.1299 138.413L92.3903 138.553L92.6506 138.413C92.6636 138.405 97.0548 136.104 97.0548 130.672C97.0548 125.402 92.8546 119.165 92.8459 119.148L92.3946 118.47L91.939 119.148C91.926 119.165 87.73 125.402 87.73 130.672C87.7213 136.109 92.1169 138.409 92.1299 138.413ZM95.458 105.271C95.458 101.466 92.3859 99.856 92.3859 99.856C92.3859 99.856 89.3138 101.466 89.3138 105.271C89.3138 109.076 92.3859 113.633 92.3859 113.633C92.3859 113.633 95.458 109.076 95.458 105.271ZM90.7761 93.3438C90.7761 95.3381 92.3859 96.1822 92.3859 96.1822C92.3859 96.1822 93.9957 95.3381 93.9957 93.3438C93.9957 91.3494 92.3859 88.9615 92.3859 88.9615C92.3859 88.9615 90.7761 91.3494 90.7761 93.3438ZM69.779 70.9074C69.3668 71.5896 68.9155 72.2019 68.4295 72.7443C66.2252 70.4919 63.7259 68.5631 60.4281 68.5631C55.1257 68.5631 48.8122 72.8798 48.7949 72.893L48.4738 73.1116L48.7949 73.326C48.8122 73.3391 55.1257 77.6558 60.4281 77.6558C63.7259 77.6558 66.2209 75.7227 68.4295 73.4747C68.9155 74.017 69.3668 74.6293 69.779 75.3072C70.4082 76.3393 70.8291 77.3628 71.046 78.3818C71.263 79.3965 71.2977 80.3455 71.1458 81.229C70.9939 82.1081 70.6902 82.9041 70.2259 83.6126C69.7616 84.3211 69.1715 84.8984 68.4512 85.3445C67.067 86.2017 65.7002 86.5341 64.3507 86.3505C63.0012 86.1668 61.6474 85.725 60.2893 85.0296C58.9311 84.3342 57.5513 83.5164 56.1454 82.5804C54.7352 81.6445 53.2946 80.866 51.8106 80.2449C50.3309 79.6239 48.8036 79.2915 47.2328 79.2434C45.662 79.1953 44.0045 79.7114 42.2601 80.7873C41.2361 81.4171 40.3813 82.2524 39.7 83.2889C39.0144 84.3255 38.5545 85.4757 38.3115 86.7397C38.0685 88.0037 38.0772 89.3288 38.3332 90.7284C38.5892 92.1236 39.1359 93.5056 39.9691 94.8745C40.6633 96.0204 41.4964 96.9651 42.4641 97.713C43.4317 98.4609 44.3993 99.0207 45.3756 99.3968C46.3476 99.7773 47.2632 99.9698 48.1267 99.9741C48.9858 99.9785 49.6801 99.821 50.2051 99.493C51.0382 98.9813 51.5589 98.2728 51.7715 97.3718C51.9885 96.4709 51.8366 95.6049 51.3289 94.7652C50.8213 93.9255 50.1183 93.4006 49.2245 93.1863C48.3306 92.9677 47.4714 93.1164 46.6383 93.6324C45.8052 94.1442 45.2845 94.8527 45.0719 95.7536C44.8593 96.6546 45.0068 97.5206 45.5145 98.3603C45.5839 98.474 45.662 98.5746 45.7618 98.6708C45.8573 98.7626 45.9527 98.8589 46.0482 98.9551C46.1437 99.0513 46.2478 99.1563 46.3606 99.2787C45.6577 99.0601 44.9504 98.7451 44.2475 98.3384C43.6226 97.9973 42.9674 97.5293 42.2818 96.9345C41.5962 96.3397 40.9671 95.5699 40.39 94.6209C39.8128 93.6718 39.4397 92.7227 39.2618 91.7737C39.0839 90.829 39.0622 89.9411 39.188 89.1145C39.3138 88.2879 39.5872 87.5313 40.0124 86.849C40.4333 86.1668 40.9497 85.6375 41.5615 85.2614C42.9457 84.4042 44.3125 84.0718 45.662 84.2555C47.0115 84.4392 48.3653 84.8809 49.7191 85.5807C51.0773 86.2761 52.4571 87.094 53.8673 88.0299C55.2732 88.9658 56.7182 89.7443 58.1978 90.3654C59.6818 90.9864 61.2135 91.3145 62.7973 91.3538C64.3811 91.3932 66.0343 90.8815 67.7526 89.8231C68.8895 89.1233 69.8224 88.2311 70.5513 87.1421C71.2847 86.0574 71.7663 84.8678 72.005 83.5645C72.2436 82.2655 72.2219 80.8879 71.9442 79.4271C71.6665 77.9663 71.0851 76.5143 70.2042 75.0623C69.766 74.3362 69.2887 73.689 68.781 73.1204C69.2887 72.5518 69.766 71.9045 70.2042 71.1785C71.0851 69.7265 71.6665 68.2701 71.9442 66.8137C72.2219 65.3529 72.2436 63.9752 72.005 62.6763C71.7663 61.3773 71.2803 60.1877 70.5513 59.1031C69.8224 58.0184 68.8895 57.1262 67.7526 56.4221C66.0343 55.3637 64.3854 54.852 62.7973 54.8913C61.2135 54.9307 59.6774 55.2587 58.1978 55.8798C56.7182 56.5008 55.2732 57.2793 53.8673 58.2152C52.4615 59.1512 51.0773 59.9647 49.7191 60.6645C48.361 61.3642 47.0115 61.8016 45.662 61.9853C44.3125 62.169 42.9457 61.8322 41.5615 60.9794C40.954 60.6032 40.4377 60.074 40.0124 59.3917C39.5915 58.7095 39.3182 57.9528 39.188 57.1262C39.0622 56.2996 39.0882 55.4118 39.2618 54.4671C39.4397 53.5224 39.8128 52.5733 40.39 51.6243C40.9671 50.6752 41.5962 49.9011 42.2818 49.3107C42.9674 48.7158 43.6226 48.2479 44.2475 47.9067C44.9547 47.4956 45.6577 47.1851 46.3606 46.9664C46.2478 47.0889 46.1437 47.1982 46.0482 47.2901C45.9527 47.3863 45.8573 47.4781 45.7618 47.5743C45.6663 47.6706 45.5839 47.7712 45.5145 47.8849C45.0068 48.7246 44.8593 49.5906 45.0719 50.4915C45.2845 51.3925 45.8095 52.101 46.6383 52.6127C47.4714 53.1244 48.3306 53.2731 49.2245 53.0588C50.1183 52.8401 50.8169 52.3153 51.3289 51.4756C51.8366 50.6402 51.9885 49.7699 51.7715 48.8689C51.5589 47.968 51.0339 47.2638 50.2051 46.7477C49.6801 46.4241 48.9858 46.2623 48.1267 46.271C47.2675 46.2754 46.3476 46.4678 45.3756 46.8483C44.4037 47.2245 43.4317 47.7887 42.4641 48.5322C41.4964 49.2757 40.6633 50.2247 39.9691 51.3662C39.1359 52.7352 38.5935 54.1172 38.3332 55.5124C38.0772 56.9076 38.0685 58.2371 38.3115 59.5011C38.5545 60.765 39.0144 61.9153 39.7 62.9475C40.3813 63.984 41.2361 64.8194 42.2601 65.4535C44.0045 66.5294 45.662 67.0455 47.2328 66.9974C48.8036 66.9493 50.3309 66.6169 51.8106 65.9958C53.2902 65.3748 54.7352 64.5963 56.1454 63.6604C57.5513 62.7244 58.9355 61.9065 60.2893 61.2111C61.6474 60.5114 63.0012 60.074 64.3507 59.8903C65.7002 59.7066 67.067 60.0434 68.4512 60.8963C69.1715 61.3424 69.7616 61.9153 70.2259 62.6282C70.6902 63.3367 70.9983 64.1327 71.1458 65.0118C71.2977 65.8909 71.263 66.8399 71.046 67.859C70.8291 68.8474 70.4082 69.8708 69.779 70.9074ZM66.7329 74.2444C61.821 79.309 54.4965 76.3743 49.4067 73.1073C55.3643 69.2804 61.8687 67.1242 66.7329 71.9701C67.1712 72.4775 67.4445 72.9061 67.5617 73.1073C67.4445 73.3085 67.1755 73.7371 66.7329 74.2444ZM35.2741 69.5078C39.1533 69.5078 43.666 72.0445 45.3843 73.1073C43.666 74.1701 39.1533 76.7067 35.2741 76.7067C31.2908 76.7067 29.2557 73.9776 28.709 73.1073C29.2514 72.2369 31.2864 69.5078 35.2741 69.5078ZM27.5895 72.8449C27.5938 72.8317 29.8805 68.4057 35.2698 68.4057C40.4984 68.4057 46.6861 72.6393 46.7034 72.6524L47.376 73.1073L46.7034 73.5621C46.6861 73.5752 40.4984 77.8045 35.2698 77.8045C29.8762 77.8045 27.5938 73.3784 27.5895 73.3653L27.4506 73.1029L27.5895 72.8449ZM60.4759 76.1994C56.7008 76.1994 52.1751 73.1029 52.1751 73.1029C52.1751 73.1029 56.7008 70.0108 60.4759 70.0108C64.2509 70.0108 65.8434 73.1029 65.8434 73.1029C65.8434 73.1029 64.2509 76.1994 60.4759 76.1994ZM72.3087 71.4847C74.283 71.4847 76.6565 73.1073 76.6565 73.1073C76.6565 73.1073 74.2873 74.7299 72.3087 74.7299C70.33 74.7299 69.4926 73.1073 69.4926 73.1073C69.4926 73.1073 70.33 71.4847 72.3087 71.4847ZM114.993 75.3072C115.405 74.6249 115.856 74.0126 116.342 73.4703C118.547 75.7227 121.046 77.6514 124.344 77.6514C129.646 77.6514 135.96 73.3347 135.977 73.3216L136.294 73.1073L135.977 72.893C135.96 72.8798 129.646 68.5631 124.344 68.5631C121.046 68.5631 118.551 70.4962 116.342 72.7443C115.856 72.2019 115.405 71.5896 114.993 70.9117C114.364 69.8796 113.943 68.8518 113.726 67.8371C113.509 66.8224 113.474 65.8734 113.626 64.9943C113.778 64.1152 114.086 63.3192 114.546 62.6107C115.01 61.9022 115.6 61.3249 116.321 60.8831C117.705 60.0259 119.072 59.6935 120.421 59.8772C121.771 60.0609 123.124 60.5026 124.483 61.198C125.841 61.8978 127.221 62.7113 128.626 63.6472C130.032 64.5832 131.477 65.3617 132.961 65.9827C134.441 66.6038 135.968 66.9362 137.539 66.9843C139.11 67.0324 140.767 66.5163 142.512 65.4404C143.536 64.8062 144.391 63.9753 145.072 62.9387C145.757 61.9022 146.217 60.7519 146.46 59.488C146.703 58.224 146.695 56.8944 146.434 55.4993C146.178 54.1041 145.632 52.722 144.803 51.3531C144.109 50.2072 143.275 49.2625 142.308 48.519C141.34 47.7755 140.368 47.2113 139.396 46.8352C138.424 46.4591 137.509 46.2667 136.645 46.2579C135.786 46.2535 135.092 46.411 134.567 46.7346C133.738 47.2463 133.213 47.9549 133 48.8558C132.788 49.7568 132.935 50.6227 133.443 51.4625C133.951 52.2978 134.654 52.827 135.547 53.0413C136.441 53.2556 137.305 53.1069 138.134 52.5952C138.962 52.0835 139.487 51.375 139.7 50.474C139.913 49.5731 139.765 48.7071 139.257 47.8674C139.188 47.7537 139.11 47.6531 139.014 47.5569C138.919 47.4606 138.823 47.3688 138.728 47.2726C138.633 47.1764 138.528 47.0714 138.416 46.9489C139.119 47.1676 139.826 47.4781 140.529 47.8892C141.154 48.2304 141.813 48.6984 142.494 49.2932C143.18 49.888 143.809 50.6577 144.386 51.6068C144.963 52.5558 145.341 53.5049 145.514 54.4496C145.692 55.3987 145.714 56.2821 145.588 57.1087C145.462 57.9353 145.189 58.6876 144.764 59.3742C144.343 60.0565 143.826 60.5857 143.215 60.9619C141.83 61.8147 140.464 62.1515 139.114 61.9678C137.765 61.7841 136.411 61.3424 135.053 60.647C133.695 59.9516 132.315 59.1337 130.909 58.1978C129.503 57.2618 128.058 56.4833 126.574 55.8623C125.094 55.2412 123.558 54.9132 121.975 54.8738C120.391 54.8345 118.738 55.3462 117.024 56.409C115.887 57.1087 114.954 58.0009 114.225 59.0856C113.496 60.1702 113.01 61.3598 112.771 62.6588C112.533 63.9578 112.554 65.3354 112.832 66.7962C113.11 68.257 113.691 69.7134 114.572 71.1654C115.015 71.8914 115.488 72.5387 116 73.1073C115.492 73.6758 115.015 74.3231 114.572 75.0491C113.691 76.5012 113.11 77.9576 112.832 79.414C112.554 80.8747 112.533 82.2524 112.771 83.5514C113.01 84.8503 113.496 86.0399 114.225 87.1289C114.954 88.2136 115.887 89.1058 117.024 89.8056C118.742 90.864 120.391 91.3757 121.975 91.3363C123.558 91.297 125.094 90.9689 126.574 90.3479C128.058 89.7268 129.499 88.9483 130.909 88.0124C132.315 87.0765 133.699 86.2586 135.053 85.5632C136.411 84.8678 137.765 84.4261 139.114 84.2424C140.464 84.0587 141.83 84.3955 143.215 85.2483C143.822 85.6244 144.338 86.1536 144.764 86.8359C145.185 87.5182 145.462 88.2748 145.588 89.1014C145.714 89.928 145.688 90.8159 145.514 91.7606C145.337 92.7096 144.963 93.6543 144.386 94.6034C143.809 95.5524 143.18 96.3222 142.494 96.917C141.809 97.5118 141.154 97.9798 140.529 98.3209C139.821 98.7277 139.119 99.0426 138.416 99.2612C138.528 99.1388 138.633 99.0294 138.728 98.9376C138.823 98.8414 138.919 98.7495 139.014 98.6533C139.11 98.5571 139.192 98.4565 139.257 98.3428C139.765 97.5074 139.913 96.6371 139.7 95.7361C139.483 94.8352 138.962 94.131 138.134 93.6149C137.305 93.1032 136.441 92.9545 135.547 93.1688C134.654 93.3832 133.955 93.9123 133.443 94.7477C132.935 95.5831 132.788 96.4534 133 97.3543C133.213 98.2553 133.738 98.9595 134.567 99.4755C135.092 99.7992 135.786 99.961 136.645 99.9523C137.504 99.9479 138.424 99.7555 139.396 99.3749C140.368 98.9944 141.34 98.4346 142.308 97.6867C143.275 96.9389 144.109 95.9942 144.803 94.8527C145.636 93.4837 146.178 92.1017 146.434 90.7065C146.69 89.3114 146.699 87.9818 146.46 86.7178C146.217 85.4539 145.757 84.308 145.072 83.2715C144.391 82.2349 143.536 81.3996 142.512 80.7654C140.767 79.6895 139.11 79.1734 137.539 79.2215C135.968 79.2696 134.441 79.602 132.961 80.2231C131.482 80.8441 130.037 81.6226 128.626 82.5586C127.221 83.4945 125.836 84.3124 124.483 85.0078C123.124 85.7075 121.771 86.1449 120.421 86.3286C119.072 86.5123 117.705 86.1755 116.321 85.3227C115.6 84.8766 115.01 84.2992 114.546 83.5907C114.082 82.8822 113.774 82.0862 113.626 81.2071C113.474 80.328 113.509 79.379 113.726 78.3643C113.943 77.3628 114.368 76.3393 114.993 75.3072ZM118.039 71.9658C122.951 66.9012 130.275 69.8358 135.365 73.1029C129.408 76.9298 122.903 79.0816 118.039 74.24C117.601 73.7327 117.327 73.3041 117.21 73.1029C117.327 72.9061 117.601 72.4731 118.039 71.9658ZM149.502 76.7023C145.627 76.7023 141.11 74.1657 139.392 73.1073C141.11 72.0489 145.623 69.5122 149.502 69.5122C153.485 69.5122 155.52 72.2413 156.067 73.1073C155.52 73.9732 153.485 76.7023 149.502 76.7023ZM157.182 73.3653C157.174 73.3784 154.891 77.8045 149.502 77.8045C144.273 77.8045 138.086 73.5709 138.068 73.5621L137.396 73.1029L138.068 72.648C138.086 72.6349 144.273 68.4013 149.502 68.4013C154.896 68.4013 157.178 72.8274 157.182 72.8405L157.321 73.1029L157.182 73.3653ZM124.3 70.0108C128.075 70.0108 132.597 73.1073 132.597 73.1073C132.597 73.1073 128.071 76.2038 124.3 76.2038C120.525 76.2038 118.928 73.1073 118.928 73.1073C118.928 73.1073 120.525 70.0108 124.3 70.0108ZM112.467 74.7255C110.489 74.7255 108.12 73.1029 108.12 73.1029C108.12 73.1029 110.489 71.4803 112.467 71.4803C114.446 71.4803 115.284 73.1029 115.284 73.1029C115.284 73.1029 114.442 74.7255 112.467 74.7255ZM53.5202 106.119C57.1 103.009 61.1224 104.628 61.1224 104.628C61.1224 104.628 62.1204 108.879 58.5363 111.988C54.9565 115.098 48.1527 115.89 48.1527 115.89C48.1527 115.89 49.9404 109.229 53.5202 106.119ZM53.5202 40.1874C57.1 43.297 61.1224 41.6788 61.1224 41.6788C61.1224 41.6788 62.1204 37.4277 58.5363 34.318C54.9565 31.2084 48.1527 30.4168 48.1527 30.4168C48.1527 30.4168 49.9404 37.0778 53.5202 40.1874ZM131.252 106.119C127.672 103.009 123.649 104.628 123.649 104.628C123.649 104.628 122.651 108.879 126.236 111.988C129.815 115.098 136.619 115.89 136.619 115.89C136.619 115.89 134.836 109.229 131.252 106.119Z" fill="#242333"/>
<path fill-rule="evenodd" clip-rule="evenodd" d="M92.3859 0.632812C112.242 0.632812 130.215 8.74579 143.228 21.8578C156.236 34.9741 164.286 53.0894 164.286 73.1029C164.286 93.1164 156.236 111.232 143.228 124.348C130.215 137.46 112.242 145.573 92.3859 145.573C72.53 145.573 54.5572 137.46 41.5441 124.348C28.5354 111.236 20.4863 93.1164 20.4863 73.1029C20.4863 53.0894 28.5354 34.9741 41.5441 21.8578C54.5572 8.74579 72.5343 0.632812 92.3859 0.632812ZM141.331 23.769C128.804 11.1425 111.5 3.33131 92.3859 3.33131C73.272 3.33131 55.9675 11.1425 43.4403 23.769C30.9132 36.3955 23.1679 53.8373 23.1679 73.1029C23.1679 92.3685 30.9176 109.81 43.4403 122.437C55.9675 135.063 73.272 142.87 92.3859 142.87C111.5 142.87 128.804 135.059 141.331 122.437C153.859 109.81 161.608 92.3685 161.608 73.1029C161.608 53.8373 153.859 36.3955 141.331 23.769Z" fill="#242333"/>
<path d="M184.532 206.715H148.63V207.607H184.532V206.715Z" fill="#242333"/>
<path d="M36.1418 206.715H0.239746V207.607H36.1418V206.715Z" fill="#242333"/>
<path d="M46.8939 211.712C46.6075 212.228 46.178 212.634 45.6009 212.941C45.0238 213.247 44.4033 213.4 43.735 213.4C42.9713 213.4 42.3682 213.19 41.9256 212.77C41.483 212.35 41.2617 211.79 41.2617 211.09C41.2617 209.936 41.7564 209.031 42.7414 208.361C43.7264 207.697 45.0932 207.355 46.8375 207.338V204.915C46.8375 204.416 46.6943 204.053 46.4036 203.817C46.1129 203.581 45.6703 203.463 45.0672 203.463C44.5898 203.463 44.1689 203.559 43.8088 203.752C43.4443 203.944 43.2664 204.141 43.2664 204.346C43.2664 204.381 43.3705 204.513 43.5788 204.744C43.7871 204.976 43.8912 205.239 43.8912 205.532C43.8912 205.851 43.8088 206.113 43.6396 206.315C43.4703 206.516 43.2534 206.616 42.9887 206.616C42.6936 206.616 42.4637 206.507 42.2944 206.288C42.1252 206.07 42.0428 205.777 42.0428 205.405C42.0428 204.705 42.3725 204.128 43.0321 203.664C43.6916 203.201 44.5421 202.969 45.5835 202.969C46.6813 202.969 47.458 203.17 47.9049 203.568C48.3519 203.97 48.5775 204.683 48.5775 205.707V211.349C48.5775 211.742 48.6122 212.005 48.6773 212.123C48.7424 212.245 48.8596 212.306 49.0288 212.306C49.211 212.306 49.3759 212.219 49.5235 212.048C49.671 211.878 49.7708 211.659 49.8229 211.397H50.1873C50.144 211.987 49.953 212.459 49.6102 212.822C49.2674 213.185 48.8465 213.365 48.3389 213.365C47.9049 213.365 47.5708 213.225 47.3278 212.949C47.0848 212.674 46.9373 212.267 46.8939 211.712ZM46.8375 207.911C45.5835 207.911 44.6246 208.125 43.9607 208.563C43.2968 208.996 42.967 209.625 42.967 210.448C42.967 211.038 43.1189 211.51 43.427 211.86C43.735 212.215 44.1473 212.389 44.6593 212.389C45.2971 212.389 45.8178 212.201 46.2257 211.821C46.6336 211.44 46.8375 210.951 46.8375 210.343V207.911V207.911Z" fill="#242333"/>
<path d="M63.3305 209.984H63.8686C63.6343 211.069 63.183 211.908 62.5148 212.495C61.8465 213.085 61.0134 213.378 60.0197 213.378C58.7527 213.378 57.7113 212.901 56.8956 211.952C56.0798 211.003 55.6763 209.796 55.6763 208.331C55.6763 206.809 56.1145 205.541 56.9867 204.526C57.8589 203.511 58.961 203.004 60.2844 203.004C61.2607 203.004 62.0591 203.262 62.6883 203.782C63.3175 204.298 63.6299 204.946 63.6299 205.72C63.6299 206.105 63.5301 206.415 63.3262 206.647C63.1266 206.879 62.8532 206.997 62.5191 206.997C62.2414 206.997 62.0114 206.888 61.8248 206.669C61.6426 206.45 61.5515 206.179 61.5515 205.86C61.5515 205.554 61.6599 205.256 61.8812 204.963C62.1025 204.67 62.211 204.482 62.211 204.408C62.211 204.163 62.0288 203.953 61.66 203.769C61.2911 203.59 60.8442 203.498 60.3192 203.498C59.4166 203.498 58.7571 203.87 58.3448 204.609C57.9283 205.348 57.7243 206.538 57.7243 208.182C57.7243 209.831 57.9153 211.016 58.2971 211.729C58.679 212.446 59.2995 212.801 60.1543 212.801C60.931 212.801 61.5992 212.556 62.1633 212.062C62.723 211.567 63.1136 210.876 63.3305 209.984Z" fill="#242333"/>
<path d="M75.6581 211.712C75.3717 212.228 74.9421 212.634 74.365 212.941C73.7879 213.247 73.1674 213.4 72.4992 213.4C71.7355 213.4 71.1324 213.19 70.6898 212.77C70.2472 212.35 70.0259 211.79 70.0259 211.09C70.0259 209.936 70.5162 209.031 71.5055 208.361C72.4905 207.697 73.8573 207.355 75.6017 207.338V204.915C75.6017 204.416 75.4585 204.053 75.1678 203.817C74.877 203.581 74.4301 203.463 73.8313 203.463C73.354 203.463 72.9331 203.559 72.573 203.752C72.2085 203.944 72.0262 204.141 72.0262 204.346C72.0262 204.381 72.1304 204.513 72.3386 204.744C72.5469 204.976 72.6511 205.239 72.6511 205.532C72.6511 205.851 72.5686 206.113 72.3994 206.315C72.2302 206.516 72.0132 206.616 71.7529 206.616C71.4578 206.616 71.2278 206.507 71.0586 206.288C70.8894 206.07 70.8069 205.777 70.8069 205.405C70.8069 204.705 71.1367 204.128 71.7962 203.664C72.4558 203.201 73.3063 202.969 74.3477 202.969C75.4455 202.969 76.2222 203.17 76.6691 203.568C77.116 203.97 77.3417 204.683 77.3417 205.707V211.349C77.3417 211.742 77.3721 212.005 77.4415 212.123C77.5066 212.245 77.6237 212.306 77.793 212.306C77.9752 212.306 78.1401 212.219 78.2876 212.048C78.4352 211.878 78.5306 211.659 78.5827 211.397H78.9472C78.9038 211.987 78.7128 212.459 78.3701 212.822C78.0273 213.185 77.6064 213.365 77.0987 213.365C76.6648 213.365 76.3263 213.225 76.0877 212.949C75.8447 212.682 75.7015 212.267 75.6581 211.712ZM75.6017 207.911C74.3477 207.911 73.3887 208.125 72.7248 208.563C72.0609 208.996 71.7312 209.625 71.7312 210.448C71.7312 211.038 71.883 211.51 72.1911 211.86C72.4992 212.215 72.9114 212.389 73.4234 212.389C74.0613 212.389 74.582 212.201 74.9899 211.821C75.3977 211.44 75.6017 210.951 75.6017 210.343V207.911Z" fill="#242333"/>
<path d="M93.0188 195.844V212.494H94.2381V213.089C93.5612 213.089 92.9971 213.111 92.5372 213.15C92.0772 213.194 91.665 213.255 91.3005 213.338V211.506C91.0011 212.109 90.6019 212.577 90.1073 212.905C89.6126 213.233 89.0615 213.395 88.4627 213.395C87.3129 213.395 86.3409 212.892 85.5468 211.886C84.7528 210.88 84.3579 209.638 84.3579 208.168C84.3579 206.703 84.7528 205.474 85.5468 204.482C86.3409 203.489 87.3172 202.99 88.4844 202.99C89.1353 202.99 89.6951 203.152 90.168 203.476C90.641 203.799 91.0011 204.276 91.2571 204.91V196.605H89.7949V196.089H90.1593C90.628 196.089 91.1009 196.067 91.5739 196.027C92.0469 195.988 92.5285 195.927 93.0188 195.844ZM91.2788 210.058V206.598C91.2788 205.789 91.0185 205.085 90.4935 204.477C89.9684 203.874 89.3566 203.567 88.6493 203.567C87.8422 203.567 87.2695 203.913 86.9267 204.604C86.5839 205.295 86.4147 206.467 86.4147 208.125C86.4147 209.857 86.5926 211.077 86.944 211.781C87.2955 212.481 87.8856 212.835 88.7144 212.835C89.3653 212.835 89.9554 212.546 90.4848 211.969C91.0185 211.392 91.2788 210.758 91.2788 210.058Z" fill="#242333"/>
<path d="M102.188 207.369V208.125C102.188 209.831 102.379 211.025 102.765 211.703C103.151 212.381 103.815 212.717 104.761 212.717C105.559 212.717 106.24 212.473 106.8 211.978C107.36 211.488 107.742 210.793 107.95 209.901H108.445C108.223 211.056 107.781 211.921 107.117 212.503C106.453 213.085 105.577 213.374 104.483 213.374C103.242 213.374 102.201 212.897 101.359 211.939C100.517 210.986 100.096 209.813 100.096 208.423C100.096 206.901 100.526 205.61 101.389 204.552C102.253 203.498 103.303 202.969 104.553 202.969C105.72 202.969 106.64 203.345 107.312 204.097C107.985 204.849 108.38 205.938 108.488 207.36H102.188V207.369ZM102.253 206.651H106.466V206.398C106.466 205.352 106.314 204.6 106.01 204.137C105.707 203.673 105.212 203.441 104.531 203.441C103.828 203.441 103.285 203.708 102.908 204.241C102.53 204.779 102.309 205.58 102.253 206.651Z" fill="#242333"/>
<path d="M114.367 213.089V212.494H115.543V203.76H114.346V203.218C114.845 203.218 115.339 203.196 115.838 203.152C116.333 203.113 116.819 203.051 117.296 202.977L117.305 205.466C117.652 204.622 118.069 204 118.559 203.589C119.049 203.178 119.631 202.977 120.295 202.977C121.037 202.977 121.618 203.196 122.039 203.633C122.46 204.07 122.69 204.687 122.725 205.474C123.02 204.656 123.419 204.035 123.922 203.611C124.43 203.187 125.029 202.973 125.727 202.973C126.534 202.973 127.142 203.235 127.545 203.764C127.953 204.289 128.157 205.072 128.157 206.104V212.494H129.277V213.089H125.133V212.494H126.422V205.199C126.422 204.691 126.326 204.315 126.135 204.062C125.944 203.808 125.658 203.681 125.276 203.681C124.595 203.681 123.992 204.075 123.467 204.866C122.942 205.658 122.681 206.576 122.681 207.631V212.49H123.814V213.084H119.735V212.49H120.967V205.194C120.967 204.656 120.876 204.267 120.685 204.035C120.499 203.799 120.191 203.681 119.757 203.681C119.088 203.681 118.503 204.136 117.991 205.046C117.483 205.955 117.227 207.049 117.227 208.326V212.494H118.381V213.089H114.367V213.089Z" fill="#242333"/>
<path d="M138.945 213.034L135.634 203.753H134.58V203.211H138.88V203.753H137.461L139.847 210.344L142.056 203.753H140.607V203.211H143.761V203.753H142.637L138.602 215.947C138.281 216.931 137.942 217.644 137.591 218.085C137.239 218.527 136.832 218.746 136.372 218.746C136.029 218.746 135.738 218.632 135.508 218.4C135.278 218.169 135.161 217.884 135.161 217.548C135.161 217.25 135.243 217.005 135.408 216.808C135.573 216.612 135.786 216.511 136.042 216.511C136.35 216.511 136.593 216.668 136.771 216.979C136.949 217.289 137.075 217.447 137.14 217.447C137.248 217.447 137.378 217.311 137.526 217.045C137.673 216.773 137.838 216.367 138.021 215.82L138.945 213.034Z" fill="#242333"/>
</svg>
