<svg width="160" height="65" viewBox="0 0 160 65" fill="none" xmlns="http://www.w3.org/2000/svg">
<g clip-path="url(#clip0_785_10158)">
<path fill-rule="evenodd" clip-rule="evenodd" d="M50.1025 17.7408C48.4812 19.1369 46.6646 18.4073 46.6646 18.4073C46.6646 18.4073 46.2162 16.4999 47.8316 15.1096C49.4528 13.7135 52.5285 13.3573 52.5285 13.3573C52.5285 13.3573 51.7237 16.3448 50.1025 17.7408ZM29.2394 38.7621H28.906V34.5912H29.2394C29.6533 36.9065 30.8606 38.0612 32.8613 38.0612C33.5511 38.0612 34.126 37.8774 34.586 37.504C35.0459 37.1305 35.2758 36.6537 35.2758 36.0677C35.2758 35.407 34.9366 34.8268 34.264 34.3097C32.6658 33.379 31.355 32.5804 30.326 31.9082C29.2969 31.2361 28.791 30.3456 28.791 29.2425C28.791 28.329 29.1302 27.5649 29.82 26.9617C30.5042 26.347 31.3493 26.0425 32.3553 26.0425C33.0107 26.0425 33.6949 26.1976 34.4135 26.5136C34.7527 26.6687 34.9884 26.7434 35.1264 26.7434C35.4426 26.7434 35.6438 26.5078 35.7472 26.0425H36.0749V30.2536H35.7472C35.569 29.0127 35.1609 28.1165 34.5285 27.5764C33.8903 27.0307 33.1717 26.7664 32.3841 26.7664C31.792 26.7664 31.286 26.9502 30.8606 27.3122C30.4352 27.6684 30.2225 28.1107 30.2225 28.6278C30.2225 28.9667 30.3662 29.3229 30.6537 29.7021C30.9411 30.0813 31.8092 30.6616 33.2579 31.4371C34.1433 31.914 34.8159 32.3046 35.2758 32.6091C35.73 32.9136 36.1094 33.3158 36.4199 33.8041C36.7246 34.2925 36.8798 34.821 36.8798 35.3898C36.8798 36.3607 36.5119 37.165 35.776 37.8085C35.0401 38.4519 34.1318 38.7736 33.0567 38.7736C32.4703 38.7736 31.746 38.63 30.8836 38.3485C30.3547 38.1704 29.9868 38.0842 29.7856 38.0842C29.4866 38.0727 29.3084 38.2968 29.2394 38.7621ZM33.5109 22.2795C33.9766 22.561 34.4365 22.7563 34.8907 22.854C35.3448 22.9516 35.7702 22.9689 36.1669 22.8999C36.5636 22.831 36.92 22.6931 37.2362 22.4805C37.5524 22.2737 37.8111 22.0037 38.0123 21.6762C38.3975 21.05 38.547 20.4353 38.4665 19.8206C38.386 19.2116 38.1848 18.5969 37.8744 17.9879C37.5639 17.3732 37.196 16.7469 36.7763 16.115C36.3566 15.4773 36.006 14.8281 35.73 14.1559C35.454 13.4837 35.3046 12.7943 35.2816 12.0877C35.2586 11.3753 35.4943 10.6284 35.9772 9.84132C36.2589 9.37597 36.6326 8.99105 37.0983 8.68081C37.5639 8.37058 38.0813 8.16376 38.6447 8.0546C39.2139 7.94544 39.806 7.95118 40.4327 8.06609C41.0593 8.18099 41.6802 8.42803 42.2896 8.80721C42.8013 9.12319 43.2267 9.49661 43.5601 9.93324C43.8936 10.3699 44.1465 10.8065 44.319 11.2489C44.4915 11.6912 44.5777 12.1049 44.5777 12.4898C44.5777 12.8805 44.5087 13.1907 44.365 13.432C44.135 13.8054 43.8188 14.0467 43.4164 14.1387C43.014 14.2363 42.623 14.1674 42.2493 13.9376C41.8757 13.7078 41.6342 13.3918 41.5422 12.9896C41.4445 12.5875 41.5135 12.1968 41.7435 11.8234C41.9734 11.45 42.2896 11.2087 42.692 11.1167C43.0945 11.0191 43.4854 11.088 43.8591 11.3178C43.9108 11.3465 43.9568 11.3868 43.997 11.427C44.0373 11.4672 44.0833 11.5131 44.1235 11.5534C44.1638 11.5993 44.2155 11.6453 44.2672 11.697C44.1695 11.381 44.0315 11.0593 43.8476 10.7433C43.6923 10.4618 43.4854 10.1631 43.2152 9.85282C42.9507 9.54258 42.6 9.25532 42.1746 8.99679C41.7492 8.73826 41.3238 8.56592 40.8983 8.48548C40.4729 8.40505 40.0762 8.39356 39.7025 8.45101C39.3346 8.50847 38.9954 8.63485 38.685 8.82444C38.3803 9.01403 38.1388 9.24958 37.9721 9.52534C37.5869 10.1516 37.4375 10.7663 37.5179 11.381C37.5984 11.99 37.7996 12.6047 38.1101 13.2137C38.4205 13.8284 38.7885 14.4546 39.2081 15.0866C39.6278 15.7243 39.9785 16.3735 40.2544 17.0457C40.5304 17.7178 40.6799 18.4073 40.6971 19.1254C40.7144 19.8435 40.4844 20.5904 40.0072 21.366C39.6911 21.8773 39.2944 22.3024 38.8057 22.6299C38.317 22.9631 37.7824 23.1814 37.2017 23.2849C36.6211 23.394 36.0002 23.3825 35.3448 23.2561C34.6894 23.1297 34.0341 22.8712 33.3844 22.469C33.0567 22.268 32.7693 22.0554 32.5106 21.8256C32.2576 22.0554 31.9644 22.268 31.6367 22.469C30.9871 22.8655 30.3317 23.1297 29.6763 23.2561C29.0209 23.3825 28.4001 23.3883 27.8194 23.2849C27.2388 23.1757 26.7041 22.9574 26.2154 22.6299C25.7268 22.3024 25.3301 21.8773 25.0139 21.366C24.5367 20.5904 24.3068 19.8435 24.324 19.1254C24.3413 18.4073 24.4907 17.7178 24.7667 17.0457C25.0427 16.3792 25.3933 15.7243 25.813 15.0866C26.2327 14.4489 26.6006 13.8284 26.9111 13.2137C27.2215 12.599 27.4227 11.99 27.5032 11.381C27.5837 10.772 27.4342 10.1516 27.049 9.52534C26.8823 9.24958 26.6409 9.01403 26.3362 8.82444C26.0315 8.63485 25.6923 8.50847 25.3186 8.45101C24.9449 8.39356 24.5482 8.40505 24.1228 8.48548C23.6974 8.56592 23.2719 8.73251 22.8465 8.99679C22.4211 9.25532 22.0762 9.54258 21.806 9.85282C21.5415 10.1631 21.3288 10.456 21.1736 10.7433C20.9896 11.065 20.8516 11.381 20.7539 11.697C20.8114 11.6453 20.8574 11.5993 20.8976 11.5534C20.9379 11.5131 20.9839 11.4672 21.0241 11.427C21.0643 11.381 21.1103 11.3465 21.1621 11.3178C21.5358 11.088 21.9267 11.0191 22.3291 11.1167C22.7315 11.2144 23.0477 11.45 23.2777 11.8234C23.5077 12.1968 23.5766 12.5875 23.4789 12.9896C23.3812 13.3918 23.1455 13.7078 22.7718 13.9376C22.3981 14.1674 22.0072 14.2363 21.6048 14.1387C21.2023 14.041 20.8861 13.8054 20.6562 13.432C20.5124 13.1965 20.4377 12.8805 20.4435 12.4898C20.4492 12.0991 20.5354 11.6855 20.7022 11.2489C20.8689 10.8065 21.1218 10.3699 21.461 9.93324C21.7945 9.49661 22.2199 9.11744 22.7316 8.80721C23.3467 8.43378 23.9676 8.18673 24.5885 8.06609C25.2151 7.95118 25.813 7.94544 26.3764 8.0546C26.9456 8.16376 27.4572 8.37058 27.9229 8.68081C28.3886 8.99105 28.7622 9.37597 29.0439 9.84132C29.5268 10.6284 29.7568 11.381 29.7396 12.0877C29.7166 12.8 29.5671 13.4895 29.2911 14.1559C29.0152 14.8281 28.6645 15.4773 28.2448 16.115C27.8252 16.7527 27.4572 17.3732 27.1468 17.9879C26.8363 18.6026 26.6351 19.2116 26.5546 19.8206C26.4741 20.4295 26.6236 21.05 27.0088 21.6762C27.21 22.0037 27.4687 22.268 27.7849 22.4805C28.1011 22.6931 28.4575 22.831 28.8542 22.8999C29.2509 22.9689 29.6763 22.9516 30.1305 22.854C30.5847 22.7563 31.0446 22.5667 31.5102 22.2795C31.8149 22.0899 32.0909 21.8888 32.3323 21.6705C31.3263 20.6708 30.4582 19.5448 30.4582 18.0568C30.4582 15.6611 32.3956 12.8058 32.4014 12.8001L32.4991 12.6564L32.5968 12.8001C32.6026 12.8058 34.54 15.6611 34.54 18.0568C34.54 19.5448 33.6719 20.6766 32.6658 21.6705C32.9303 21.8888 33.2062 22.0956 33.5109 22.2795ZM32.0104 20.9064C32.2404 21.1075 32.4301 21.2281 32.5221 21.2798C32.6141 21.2281 32.8038 21.1017 33.0337 20.9064C35.2068 18.706 34.241 15.7703 32.5221 13.0758C31.0561 15.3738 29.7396 18.683 32.0104 20.9064ZM34.1375 6.68727C34.1375 4.88331 32.913 3.9641 32.5221 3.71706C32.1311 3.9641 30.9066 4.88331 30.9066 6.68727C30.9066 8.43952 32.0449 10.479 32.5221 11.2546C32.9992 10.479 34.1375 8.43952 34.1375 6.68727ZM32.6428 3.21149L32.5278 3.14828L32.4128 3.21149C32.4071 3.21724 30.4179 4.24559 30.4179 6.68152C30.4179 9.04275 32.3151 11.8406 32.3209 11.8464L32.5278 12.1509L32.7348 11.8464C32.7405 11.8406 34.6377 9.04275 34.6377 6.68152C34.6319 4.25134 32.6485 3.21724 32.6428 3.21149ZM31.1366 18.074C31.1366 19.7803 32.5278 20.4985 32.5278 20.4985C32.5278 20.4985 33.9191 19.7746 33.9191 18.074C33.9191 16.3678 32.5278 14.3225 32.5278 14.3225C32.5278 14.3225 31.1366 16.3678 31.1366 18.074ZM33.2522 23.4227C33.2522 22.5265 32.5221 22.1531 32.5221 22.1531C32.5221 22.1531 31.7919 22.5322 31.7919 23.4227C31.7919 24.3132 32.5221 25.3876 32.5221 25.3876C32.5221 25.3876 33.2522 24.319 33.2522 23.4227ZM31.5332 42.7205C31.0676 42.439 30.6077 42.2437 30.1535 42.146C29.6993 42.0483 29.2739 42.0311 28.8772 42.1C28.4805 42.169 28.1241 42.3069 27.8079 42.5194C27.4917 42.732 27.233 42.9963 27.0318 43.3237C26.6466 43.95 26.4971 44.5647 26.5776 45.1794C26.6581 45.7884 26.8593 46.4031 27.1698 47.0121C27.4802 47.6268 27.8482 48.2473 28.2678 48.885C28.6875 49.5227 29.0382 50.1719 29.3141 50.8441C29.5901 51.5163 29.7396 52.2057 29.7626 52.9123C29.7855 53.6247 29.5498 54.3716 29.0669 55.1586C28.7852 55.624 28.4058 56.0089 27.9459 56.3192C27.4802 56.6294 26.9628 56.8362 26.3994 56.9454C25.8303 57.0545 25.2381 57.0488 24.6115 56.9339C23.9848 56.819 23.3639 56.5719 22.7546 56.1985C22.2429 55.8825 21.8175 55.5091 21.484 55.0725C21.1506 54.6358 20.8976 54.1992 20.7251 53.7568C20.5527 53.3145 20.4665 52.9008 20.4665 52.5159C20.4665 52.1252 20.5354 51.815 20.6792 51.5737C20.9091 51.2003 21.2253 50.9647 21.6277 50.867C22.0302 50.7694 22.4211 50.8383 22.7948 51.0681C23.1685 51.2979 23.4099 51.6139 23.5019 52.0161C23.5996 52.4182 23.5307 52.8089 23.3007 53.1823C23.0707 53.5558 22.7545 53.7913 22.3521 53.889C21.9497 53.9866 21.5588 53.9177 21.1851 53.6879C21.1333 53.6592 21.0873 53.6189 21.0471 53.5787C21.0069 53.5385 20.9609 53.4926 20.9206 53.4466C20.8804 53.4006 20.8286 53.3547 20.7769 53.303C20.8746 53.619 21.0126 53.9407 21.1966 54.2567C21.3518 54.5382 21.5588 54.8369 21.829 55.1472C22.0934 55.4574 22.4441 55.7446 22.8695 56.0032C23.2949 56.2617 23.7204 56.4341 24.1458 56.5145C24.5712 56.5949 24.9679 56.6064 25.3416 56.549C25.7095 56.4915 26.0487 56.3709 26.3592 56.1755C26.6639 55.9859 26.9053 55.7504 27.072 55.4746C27.4572 54.8484 27.6067 54.2337 27.5262 53.619C27.4457 53.01 27.2445 52.3952 26.9341 51.7863C26.6236 51.1715 26.2557 50.5511 25.836 49.9134C25.4163 49.2757 25.0656 48.6265 24.7897 47.9543C24.5137 47.2821 24.3643 46.5927 24.347 45.8746C24.3298 45.1564 24.5597 44.4096 25.0369 43.634C25.3531 43.1227 25.7498 42.6975 26.2384 42.3701C26.7271 42.0368 27.2617 41.8185 27.8424 41.7151C28.423 41.606 29.0439 41.6174 29.6993 41.7438C30.3547 41.8702 31.0101 42.1288 31.6597 42.5309C31.9874 42.732 32.2749 42.9446 32.5336 43.1744C32.7865 42.9446 33.0797 42.732 33.4074 42.5309C34.0571 42.1345 34.7124 41.8702 35.3678 41.7438C36.0232 41.6174 36.6441 41.6117 37.2247 41.7151C37.8054 41.8243 38.34 42.0426 38.8287 42.3701C39.3174 42.7033 39.7141 43.1227 40.0302 43.634C40.5074 44.4096 40.7374 45.1564 40.7201 45.8746C40.7029 46.5927 40.5534 47.2821 40.2775 47.9543C40.0015 48.6265 39.6508 49.2757 39.2311 49.9134C38.8115 50.5511 38.4435 51.1715 38.1331 51.7863C37.8226 52.401 37.6214 53.01 37.5409 53.619C37.4604 54.2279 37.6099 54.8484 37.9951 55.4746C38.1618 55.7504 38.4033 55.9802 38.708 56.1755C39.0127 56.3651 39.3519 56.4915 39.7256 56.549C40.0992 56.6064 40.4959 56.5949 40.9213 56.5145C41.3468 56.4341 41.7722 56.2674 42.1976 56.0032C42.623 55.7446 42.968 55.4574 43.2382 55.1472C43.5026 54.8369 43.7153 54.5439 43.8706 54.2567C44.0545 53.9349 44.1925 53.619 44.2902 53.303C44.2328 53.3547 44.1868 53.4006 44.1465 53.4466C44.1063 53.4868 44.0603 53.5328 44.02 53.5787C43.9798 53.6247 43.9338 53.6592 43.8821 53.6879C43.5084 53.9177 43.1174 53.9866 42.715 53.889C42.3126 53.7913 41.9964 53.5558 41.7664 53.1823C41.5365 52.8089 41.4675 52.4182 41.5652 52.0161C41.6629 51.6139 41.8987 51.2979 42.2723 51.0681C42.646 50.8383 43.037 50.7694 43.4394 50.867C43.8418 50.9647 44.158 51.2003 44.388 51.5737C44.5317 51.8092 44.6064 52.1252 44.6007 52.5159C44.5949 52.9066 44.5145 53.3202 44.342 53.7568C44.1695 54.1935 43.9223 54.6358 43.5831 55.0725C43.2497 55.5091 42.8243 55.8883 42.3126 56.1985C41.6975 56.5719 41.0766 56.819 40.4557 56.9339C39.829 57.0488 39.2311 57.0545 38.6677 56.9454C38.0986 56.8362 37.5869 56.6294 37.1213 56.3192C36.6556 56.0089 36.2819 55.624 36.0002 55.1586C35.5173 54.3716 35.2873 53.6189 35.3046 52.9123C35.3276 52.1999 35.4771 51.5105 35.753 50.8441C36.029 50.1719 36.3796 49.5227 36.7993 48.885C37.219 48.2473 37.5869 47.6268 37.8974 47.0121C38.2078 46.3974 38.409 45.7884 38.4895 45.1794C38.57 44.5704 38.4205 43.95 38.0353 43.3237C37.8341 42.9963 37.5754 42.732 37.2592 42.5194C36.943 42.3126 36.5866 42.169 36.1899 42.1C35.7933 42.0311 35.3678 42.0483 34.9137 42.146C34.4595 42.2437 33.9996 42.4333 33.5339 42.7205C33.2292 42.9101 32.9532 43.1112 32.7118 43.3295C33.7236 44.3291 34.586 45.4552 34.586 46.9432C34.586 49.3389 32.6485 52.1942 32.6428 52.1999L32.5451 52.3435L32.4473 52.1999C32.4416 52.1942 30.5042 49.3389 30.5042 46.9432C30.5042 45.4552 31.3723 44.3234 32.3783 43.3295C32.1139 43.1112 31.8437 42.9044 31.5332 42.7205ZM33.0337 44.0936C32.8038 43.8925 32.6141 43.7719 32.5221 43.7201C32.4301 43.7719 32.2404 43.8983 32.0104 44.0936C29.8373 46.294 30.8031 49.2297 32.5221 51.9241C33.9881 49.6261 35.3046 46.3169 33.0337 44.0936ZM30.9066 58.3127C30.9066 60.1109 32.1311 61.0359 32.5221 61.2829C32.913 61.0359 34.1375 60.1167 34.1375 58.3127C34.1375 56.5605 32.9992 54.5209 32.5221 53.7453C32.0507 54.5209 30.9066 56.5605 30.9066 58.3127ZM32.4071 61.7885L32.5221 61.8517L32.637 61.7885C32.6428 61.7827 34.6319 60.7544 34.6319 58.3184C34.6319 55.9572 32.7348 53.1593 32.729 53.1536L32.5221 52.8491L32.3151 53.1536C32.3094 53.1593 30.4122 55.9572 30.4122 58.3184C30.4122 60.7486 32.4013 61.7827 32.4071 61.7885ZM33.9133 46.9259C33.9133 45.2196 32.5221 44.4957 32.5221 44.4957C32.5221 44.4957 31.1308 45.2196 31.1308 46.9259C31.1308 48.6322 32.5221 50.6775 32.5221 50.6775C32.5221 50.6775 33.9133 48.6265 33.9133 46.9259ZM31.7977 41.5772C31.7977 42.4735 32.5278 42.8469 32.5278 42.8469C32.5278 42.8469 33.2579 42.4677 33.2579 41.5772C33.2579 40.681 32.5278 39.6124 32.5278 39.6124C32.5278 39.6124 31.7977 40.681 31.7977 41.5772ZM22.3004 31.5118C22.1107 31.8163 21.9095 32.0921 21.691 32.3334C20.6964 31.3222 19.5639 30.4605 18.0749 30.4605C15.6775 30.4605 12.8203 32.3966 12.8146 32.4023L12.6708 32.5L12.8146 32.5977C12.8203 32.6034 15.6775 34.5395 18.0749 34.5395C19.5639 34.5395 20.6964 33.672 21.691 32.6666C21.9095 32.9079 22.1164 33.1836 22.3004 33.4881C22.5821 33.9535 22.7775 34.4131 22.8753 34.867C22.973 35.3208 22.9902 35.746 22.9213 36.1424C22.8523 36.5388 22.7143 36.895 22.5016 37.211C22.2946 37.5269 22.0244 37.7855 21.6967 37.9866C21.0701 38.3715 20.455 38.5208 19.8398 38.4404C19.2304 38.36 18.6153 38.1589 18.0059 37.8487C17.3907 37.5384 16.7641 37.1708 16.1317 36.7514C15.4936 36.332 14.8439 35.9815 14.1713 35.7057C13.4987 35.4242 12.8088 35.2749 12.1017 35.2576C11.3888 35.2347 10.6414 35.4702 9.85383 35.9528C9.38816 36.2343 9.00297 36.6077 8.69253 37.0731C8.38208 37.5384 8.17512 38.0555 8.06589 38.6185C7.95666 39.1873 7.9624 39.779 8.07738 40.4052C8.19236 41.0314 8.43957 41.6519 8.819 42.2609C9.1352 42.7722 9.50888 43.1973 9.9458 43.5306C10.3827 43.8638 10.8197 44.1166 11.2623 44.2889C11.705 44.4613 12.1189 44.5474 12.5041 44.5474C12.895 44.5474 13.2055 44.4785 13.4469 44.3349C13.8206 44.1051 14.0563 43.7891 14.1541 43.3869C14.2518 42.9848 14.1828 42.5941 13.9528 42.2207C13.7229 41.8473 13.4067 41.6117 13.0043 41.514C12.6018 41.4164 12.2109 41.4853 11.8372 41.7151C11.4635 41.9449 11.2221 42.2609 11.1301 42.6631C11.0324 43.0652 11.1013 43.4559 11.3313 43.8293C11.3601 43.881 11.4003 43.927 11.4405 43.9672C11.4808 44.0074 11.5268 44.0534 11.567 44.0936C11.613 44.1338 11.659 44.1855 11.7107 44.2372C11.3945 44.1396 11.0726 43.9959 10.7564 43.8178C10.4747 43.6627 10.1758 43.4559 9.86532 43.1859C9.55488 42.9216 9.26743 42.5711 9.00873 42.146C8.75003 41.7209 8.57755 41.2957 8.49706 40.8706C8.41658 40.4454 8.40508 40.049 8.46257 39.6756C8.52006 39.3022 8.64653 38.969 8.83625 38.6587C9.02597 38.3542 9.26168 38.1129 9.53763 37.9463C10.1643 37.5614 10.7794 37.412 11.3946 37.4925C12.0039 37.5729 12.6191 37.774 13.2285 38.0842C13.8436 38.3944 14.4703 38.7621 15.1026 39.1815C15.7408 39.6009 16.3904 39.9514 17.063 40.2271C17.7357 40.5029 18.4256 40.6523 19.1442 40.6695C19.8628 40.6867 20.6102 40.4569 21.3863 39.9801C21.898 39.6641 22.3234 39.2677 22.6511 38.7794C22.9845 38.291 23.203 37.7567 23.3065 37.1765C23.4157 36.5962 23.4042 35.9758 23.2777 35.3208C23.1512 34.6659 22.8925 34.0167 22.4901 33.3617C22.2889 33.0343 22.0762 32.747 21.8462 32.4885C22.0762 32.2357 22.2889 31.9427 22.4901 31.6152C22.8868 30.966 23.1512 30.3111 23.2777 29.6562C23.4042 29.0012 23.4099 28.3807 23.3065 27.8005C23.1972 27.2202 22.9788 26.6859 22.6511 26.1976C22.3234 25.7093 21.898 25.3129 21.3863 24.9969C20.6102 24.52 19.8628 24.2902 19.1442 24.3075C18.4256 24.3247 17.7357 24.4741 17.063 24.7498C16.3962 25.0314 15.7408 25.3761 15.1026 25.7955C14.4645 26.2149 13.8436 26.5825 13.2285 26.8928C12.6133 27.203 12.0039 27.4041 11.3946 27.4845C10.7852 27.565 10.1643 27.4156 9.53763 27.0307C9.26168 26.864 9.02597 26.6228 8.83625 26.3183C8.64653 26.0138 8.52006 25.6748 8.46257 25.3014C8.40508 24.9279 8.41658 24.5315 8.49706 24.1064C8.57755 23.6813 8.74428 23.2561 9.00873 22.831C9.26743 22.4059 9.55488 22.0611 9.86532 21.7911C10.1758 21.5269 10.469 21.3143 10.7564 21.1592C11.0784 20.9753 11.3945 20.8374 11.7107 20.7398C11.659 20.7972 11.613 20.8432 11.567 20.8834C11.5268 20.9236 11.4808 20.9696 11.4405 21.0098C11.3945 21.05 11.3601 21.096 11.3313 21.1477C11.1013 21.5211 11.0324 21.9118 11.1301 22.3139C11.2278 22.7161 11.4635 23.0321 11.8372 23.2619C12.2109 23.4917 12.6018 23.5606 13.0043 23.463C13.4067 23.3653 13.7229 23.1297 13.9528 22.7563C14.1828 22.3829 14.2518 21.9922 14.1541 21.59C14.0563 21.1879 13.8206 20.8719 13.4469 20.6421C13.2112 20.4985 12.895 20.4238 12.5041 20.4295C12.1132 20.4353 11.6992 20.5157 11.2623 20.6881C10.8197 20.8547 10.3827 21.1075 9.9458 21.4464C9.50888 21.7796 9.12945 22.2048 8.819 22.7161C8.44532 23.3308 8.19811 23.9513 8.07738 24.5718C7.9624 25.198 7.95666 25.7954 8.06589 26.3585C8.17512 26.9272 8.38208 27.4385 8.69253 27.9039C9.00297 28.3693 9.38816 28.7427 9.85383 29.0242C10.6414 29.5068 11.3945 29.7366 12.1017 29.7194C12.8145 29.6964 13.5044 29.547 14.1713 29.2712C14.8439 28.9955 15.4936 28.645 16.1317 28.2256C16.7699 27.8062 17.3907 27.4386 18.0059 27.1283C18.621 26.8123 19.2304 26.617 19.8398 26.5366C20.4492 26.4562 21.0701 26.6055 21.6967 26.9904C22.0244 27.1915 22.2889 27.45 22.5016 27.766C22.7143 28.082 22.8523 28.4382 22.9213 28.8346C22.9902 29.231 22.973 29.6562 22.8753 30.11C22.7718 30.5926 22.5821 31.0522 22.3004 31.5118ZM20.9206 33.0113C18.6958 35.2806 15.3844 33.965 13.0848 32.5C15.781 30.7822 18.7188 29.817 20.9206 31.9887C21.1218 32.2185 21.2426 32.4081 21.2943 32.5C21.2426 32.5919 21.1218 32.7815 20.9206 33.0113ZM6.69189 30.8856C8.44533 30.8856 10.4862 32.0231 11.2623 32.5C10.4862 32.9768 8.44533 34.1143 6.69189 34.1143C4.89246 34.1143 3.96686 32.8906 3.71966 32.5C3.96686 32.1093 4.88671 30.8856 6.69189 30.8856ZM3.2195 32.3851C3.2195 32.3793 4.25432 30.3915 6.69189 30.3915C9.05472 30.3915 11.8545 32.2874 11.8602 32.2932L12.1649 32.5L11.8602 32.7068C11.8545 32.7126 9.05472 34.6084 6.69189 34.6084C4.25432 34.6084 3.2195 32.6206 3.2195 32.6149L3.15625 32.5L3.2195 32.3851ZM18.0921 33.8903C16.3847 33.8903 14.338 32.5 14.338 32.5C14.338 32.5 16.3847 31.1154 18.0921 31.1154C19.7996 31.1154 20.5182 32.5 20.5182 32.5C20.5182 32.5 19.7996 33.8903 18.0921 33.8903ZM23.4444 31.7704C24.3355 31.7704 25.4106 32.5 25.4106 32.5C25.4106 32.5 24.3355 33.2296 23.4444 33.2296C22.5476 33.2296 22.1739 32.5 22.1739 32.5C22.1739 32.5 22.5476 31.7704 23.4444 31.7704ZM42.7495 33.4881C42.9392 33.1836 43.1405 32.9079 43.3589 32.6666C44.3535 33.6777 45.486 34.5395 46.975 34.5395C49.3723 34.5395 52.2296 32.6034 52.2353 32.5977L52.3791 32.5L52.2353 32.4023C52.2296 32.3966 49.3723 30.4605 46.975 30.4605C45.486 30.4605 44.3535 31.328 43.3589 32.3334C43.1405 32.0921 42.9335 31.8163 42.7495 31.5118C42.4678 31.0465 42.2724 30.5869 42.1746 30.133C42.0769 29.6791 42.0596 29.254 42.1286 28.8576C42.1976 28.4612 42.3356 28.105 42.5483 27.789C42.761 27.473 43.0255 27.2145 43.3532 27.0134C43.9798 26.6285 44.5949 26.4791 45.2101 26.5595C45.8195 26.64 46.4346 26.8411 47.044 27.1513C47.6592 27.4615 48.28 27.8292 48.9182 28.2486C49.5563 28.668 50.2059 29.0185 50.8786 29.2942C51.5512 29.57 52.2411 29.7194 52.9482 29.7423C53.6611 29.7653 54.4085 29.5298 55.1961 29.0472C55.6617 28.7657 56.0469 28.3922 56.3574 27.9269C56.6678 27.4615 56.8748 26.9445 56.984 26.3815C57.0932 25.8127 57.0875 25.221 56.9725 24.5947C56.8575 23.9685 56.6103 23.348 56.2309 22.7391C55.9147 22.2278 55.541 21.8026 55.1041 21.4694C54.6672 21.1362 54.2302 20.8834 53.7876 20.711C53.3449 20.5387 52.931 20.4525 52.5458 20.4525C52.1549 20.4525 51.8444 20.5215 51.603 20.6651C51.2293 20.8949 50.9936 21.2109 50.8958 21.613C50.7981 22.0152 50.8671 22.4059 51.097 22.7793C51.327 23.1527 51.6432 23.394 52.0456 23.4859C52.4481 23.5836 52.839 23.5147 53.2127 23.2849C53.5863 23.0551 53.8221 22.7391 53.9198 22.3369C54.0175 21.9347 53.9485 21.5441 53.7186 21.1706C53.6898 21.1189 53.6496 21.073 53.6093 21.0328C53.5634 20.9926 53.5231 20.9466 53.4771 20.9064C53.4311 20.8662 53.3851 20.8145 53.3334 20.7628C53.6496 20.8604 53.9715 20.9983 54.2877 21.1821C54.5694 21.3373 54.8684 21.5441 55.1788 21.8141C55.4893 22.0784 55.7767 22.4288 56.0354 22.854C56.2941 23.2791 56.4666 23.7042 56.5471 24.1294C56.6276 24.5545 56.6391 24.9509 56.5816 25.3244C56.5241 25.692 56.3976 26.031 56.2079 26.3412C56.0182 26.6457 55.7825 26.887 55.5065 27.0536C54.8799 27.4386 54.2647 27.5879 53.6496 27.5075C53.0402 27.4271 52.4251 27.226 51.8157 26.9157C51.2005 26.6055 50.5796 26.2378 49.9415 25.8184C49.3034 25.3991 48.6537 25.0486 47.9811 24.7728C47.3085 24.4971 46.6186 24.3477 45.9 24.3305C45.1813 24.3132 44.434 24.543 43.6579 25.0199C43.1462 25.3358 42.7208 25.7323 42.3931 26.2206C42.0596 26.7089 41.8412 27.2432 41.7377 27.8235C41.6285 28.4037 41.64 29.0242 41.7664 29.6791C41.8929 30.3341 42.1516 30.989 42.554 31.6382C42.7553 31.9657 42.968 32.2529 43.1979 32.5115C42.968 32.7643 42.7553 33.0573 42.554 33.3847C42.1574 34.0339 41.8929 34.6889 41.7664 35.3438C41.64 35.9987 41.6342 36.6192 41.7377 37.1995C41.8469 37.7797 42.0654 38.314 42.3931 38.8023C42.7208 39.2907 43.1462 39.6871 43.6579 40.0031C44.434 40.4799 45.1813 40.7097 45.9 40.6925C46.6186 40.6753 47.3085 40.5259 47.9811 40.2501C48.6537 39.9744 49.3034 39.6239 49.9415 39.2045C50.5796 38.7851 51.2005 38.4174 51.8157 38.1072C52.4308 37.797 53.0402 37.5959 53.6496 37.5154C54.259 37.435 54.8799 37.5844 55.5065 37.9693C55.7825 38.1359 56.0124 38.3772 56.2079 38.6817C56.3976 38.9862 56.5241 39.3251 56.5816 39.6986C56.6391 40.072 56.6276 40.4684 56.5471 40.8936C56.4666 41.3187 56.2999 41.7438 56.0354 42.169C55.7767 42.5941 55.4893 42.9388 55.1788 43.2088C54.8684 43.4731 54.5752 43.6857 54.2877 43.8408C53.9658 44.0247 53.6496 44.1625 53.3334 44.2602C53.3851 44.2027 53.4311 44.1568 53.4771 44.1166C53.5231 44.0763 53.5634 44.0304 53.6093 43.9902C53.6553 43.95 53.6898 43.904 53.7186 43.8523C53.9485 43.4789 54.0175 43.0882 53.9198 42.686C53.8221 42.2839 53.5863 41.9679 53.2127 41.7381C52.839 41.5083 52.4481 41.4394 52.0456 41.537C51.6432 41.6347 51.327 41.8702 51.097 42.2437C50.8671 42.6171 50.7981 43.0078 50.8958 43.4099C50.9936 43.8121 51.2293 44.1281 51.603 44.3579C51.8387 44.5015 52.1549 44.5762 52.5458 44.5704C52.9367 44.5704 53.3506 44.4842 53.7876 44.3119C54.2245 44.1395 54.6672 43.8925 55.1041 43.5536C55.541 43.2203 55.9204 42.7952 56.2309 42.2839C56.6046 41.6691 56.8518 41.0487 56.9725 40.4282C57.0875 39.802 57.0932 39.2045 56.984 38.6415C56.8748 38.0727 56.6678 37.5614 56.3574 37.0961C56.0469 36.6307 55.6617 36.2573 55.1961 35.9758C54.4085 35.4932 53.6553 35.2634 52.9482 35.2806C52.2353 35.3036 51.5455 35.453 50.8786 35.7287C50.2059 36.0045 49.5563 36.3549 48.9182 36.7743C48.28 37.1937 47.6592 37.5614 47.044 37.8716C46.4289 38.1819 45.8195 38.383 45.2101 38.4634C44.6007 38.5438 43.9798 38.3944 43.3532 38.0095C43.0255 37.8084 42.761 37.5499 42.5483 37.2339C42.3413 36.918 42.1976 36.5618 42.1286 36.1654C42.0596 35.7689 42.0769 35.3438 42.1746 34.8899C42.2724 34.4074 42.4621 33.9477 42.7495 33.4881ZM44.1235 31.9887C46.3426 29.7194 49.6598 31.035 51.9594 32.5C49.2631 34.2178 46.3254 35.1829 44.1235 33.0113C43.9223 32.7815 43.8016 32.5919 43.7498 32.5C43.8016 32.4081 43.9281 32.2185 44.1235 31.9887ZM58.3523 34.1143C56.5988 34.1143 54.5579 32.9768 53.7818 32.5C54.5579 32.0231 56.5988 30.8856 58.3523 30.8856C60.1517 30.8856 61.0773 32.1093 61.3245 32.5C61.0773 32.8906 60.1574 34.1143 58.3523 34.1143ZM61.8304 32.6149C61.8246 32.6206 60.7956 34.6084 58.358 34.6084C55.9952 34.6084 53.1954 32.7126 53.1897 32.7068L52.885 32.5L53.1897 32.2932C53.1954 32.2874 55.9952 30.3915 58.358 30.3915C60.7956 30.3915 61.8304 32.3793 61.8304 32.3851L61.8936 32.5L61.8304 32.6149ZM46.9578 31.1097C48.6652 31.1097 50.7119 32.5 50.7119 32.5C50.7119 32.5 48.6652 33.8903 46.9578 33.8903C45.2503 33.8903 44.5317 32.5 44.5317 32.5C44.5317 32.5 45.2503 31.1097 46.9578 31.1097ZM41.6055 33.2296C40.7086 33.2296 39.6393 32.5 39.6393 32.5C39.6393 32.5 40.7086 31.7704 41.6055 31.7704C42.5023 31.7704 42.876 32.5 42.876 32.5C42.876 32.5 42.4966 33.2296 41.6055 33.2296ZM14.9417 47.3051C16.5629 45.909 18.3796 46.6387 18.3796 46.6387C18.3796 46.6387 18.828 48.546 17.2125 49.9363C15.5913 51.3324 12.5156 51.6886 12.5156 51.6886C12.5156 51.6886 13.3262 48.7012 14.9417 47.3051ZM14.9474 17.7408C16.5686 19.1369 18.3853 18.4073 18.3853 18.4073C18.3853 18.4073 18.8337 16.4999 17.2183 15.1096C15.5971 13.7135 12.5214 13.3573 12.5214 13.3573C12.5214 13.3573 13.3262 16.3448 14.9474 17.7408ZM50.1025 47.3051C48.4812 45.909 46.6646 46.6387 46.6646 46.6387C46.6646 46.6387 46.2162 48.546 47.8316 49.9363C49.4528 51.3324 52.5285 51.6886 52.5285 51.6886C52.5285 51.6886 51.7237 48.7012 50.1025 47.3051Z" fill="#242333"/>
<path fill-rule="evenodd" clip-rule="evenodd" d="M32.522 0C41.5019 0 49.631 3.63663 55.518 9.51961C61.4049 15.4026 65.044 23.5262 65.044 32.5C65.044 41.4738 61.4049 49.5974 55.518 55.4804C49.631 61.3634 41.5019 65 32.522 65C23.5421 65 15.413 61.3634 9.52607 55.4804C3.63911 49.5974 0 41.4738 0 32.5C0 23.5262 3.63911 15.4026 9.52607 9.51961C15.413 3.64238 23.5421 0 32.522 0ZM54.6614 10.3756C48.9986 4.71672 41.1685 1.21221 32.522 1.21221C23.8755 1.21221 16.0512 4.71672 10.3827 10.3756C4.71992 16.0346 1.21304 23.8594 1.21304 32.5C1.21304 41.1406 4.71992 48.9597 10.3827 54.6244C16.0454 60.2833 23.8755 63.7878 32.522 63.7878C41.1685 63.7878 48.9929 60.2833 54.6614 54.6244C60.3241 48.9654 63.831 41.1406 63.831 32.5C63.831 23.8594 60.3241 16.0403 54.6614 10.3756Z" fill="#242333"/>
<path d="M159.943 40.2501H143.708V40.6523H159.943V40.2501Z" fill="#242333"/>
<path d="M92.8281 40.2501H76.593V40.6523H92.8281V40.2501Z" fill="#242333"/>
<path fill-rule="evenodd" clip-rule="evenodd" d="M100.969 38.0153C100.808 38.0153 100.665 38.0498 100.55 38.113C100.429 38.1819 100.331 38.2509 100.256 38.3313C100.164 38.4232 100.09 38.5266 100.026 38.6473V41.8128C100.101 41.9967 100.193 42.1518 100.302 42.2896C100.394 42.4103 100.504 42.5195 100.63 42.6171C100.757 42.7148 100.906 42.7665 101.084 42.7665C101.205 42.7665 101.326 42.7263 101.446 42.6516C101.567 42.5769 101.682 42.4448 101.786 42.2552C101.889 42.0713 101.97 41.8243 102.039 41.5198C102.108 41.2153 102.136 40.8419 102.136 40.3938C102.136 39.9457 102.102 39.5665 102.039 39.2677C101.97 38.9632 101.883 38.7219 101.774 38.5381C101.665 38.3543 101.544 38.2221 101.406 38.1417C101.257 38.0555 101.113 38.0153 100.969 38.0153ZM101.125 37.8027C101.377 37.8027 101.619 37.8602 101.855 37.9751C102.085 38.09 102.297 38.2623 102.476 38.4807C102.66 38.7047 102.803 38.9747 102.912 39.2907C103.022 39.6124 103.073 39.9744 103.073 40.3823C103.073 40.7902 103.016 41.1521 102.912 41.4739C102.803 41.7956 102.665 42.0656 102.493 42.2839C102.32 42.508 102.125 42.6746 101.901 42.7895C101.676 42.9044 101.458 42.9618 101.228 42.9618C101.015 42.9618 100.831 42.9216 100.676 42.8412C100.521 42.7608 100.394 42.6688 100.297 42.5712C100.176 42.4505 100.084 42.3184 100.009 42.169V42.801H98.5317V42.6976L99.1641 42.5367V35.6828L98.5317 35.5219V35.4185H100.009V38.3198C100.072 38.2221 100.159 38.1359 100.262 38.0555C100.354 37.9923 100.469 37.9349 100.607 37.8774C100.751 37.8315 100.923 37.8027 101.125 37.8027ZM107.224 40.388C107.224 40.8361 107.259 41.2153 107.322 41.5141C107.391 41.8186 107.477 42.0599 107.586 42.2494C107.696 42.4333 107.816 42.5654 107.954 42.6459C108.092 42.7205 108.236 42.7607 108.38 42.7607C108.564 42.7607 108.736 42.7263 108.897 42.6573C109.058 42.5884 109.202 42.4907 109.328 42.3701C109.455 42.2494 109.558 42.1058 109.639 41.9392C109.719 41.7726 109.777 41.5887 109.8 41.3934H109.961C109.932 41.6175 109.869 41.8301 109.777 42.0196C109.679 42.215 109.558 42.3816 109.415 42.5195C109.265 42.6573 109.098 42.7722 108.903 42.8527C108.707 42.9331 108.5 42.9733 108.276 42.9733C108.006 42.9733 107.753 42.9159 107.517 42.801C107.276 42.6861 107.063 42.5137 106.879 42.2954C106.695 42.0713 106.546 41.8013 106.437 41.4853C106.327 41.1636 106.276 40.8017 106.276 40.3938C106.276 39.9744 106.327 39.6009 106.437 39.2735C106.54 38.9517 106.684 38.6817 106.856 38.4692C107.029 38.2566 107.23 38.09 107.46 37.9808C107.69 37.8659 107.931 37.8142 108.184 37.8142C108.437 37.8142 108.679 37.8717 108.909 37.9808C109.139 38.0957 109.34 38.2566 109.512 38.4692C109.685 38.6817 109.823 38.9517 109.932 39.2735C110.035 39.5952 110.093 39.9686 110.093 40.3938H107.224V40.388ZM108.173 37.9636C108.069 37.9636 107.96 37.9981 107.857 38.0613C107.753 38.1302 107.655 38.2451 107.563 38.4175C107.471 38.5841 107.397 38.8139 107.339 39.0954C107.282 39.3826 107.241 39.7388 107.23 40.1755H109.133C109.121 39.7388 109.081 39.3769 109.024 39.0954C108.966 38.8081 108.886 38.5841 108.799 38.4175C108.707 38.2509 108.61 38.1302 108.506 38.0613C108.386 37.9981 108.276 37.9636 108.173 37.9636ZM115.905 40.2329C115.296 40.2329 114.842 40.3708 114.548 40.6408C114.255 40.9108 114.111 41.2843 114.111 41.7669C114.111 42.0828 114.186 42.3299 114.341 42.508C114.497 42.6861 114.663 42.7722 114.847 42.7722C115.014 42.7722 115.164 42.7205 115.296 42.6229C115.428 42.5252 115.537 42.416 115.629 42.2954C115.733 42.1633 115.825 42.0024 115.905 41.8186V40.2329ZM115.118 37.9636C114.905 37.9636 114.732 38.0383 114.589 38.1819C114.451 38.3255 114.376 38.5151 114.376 38.7564C114.376 38.8139 114.376 38.8598 114.382 38.9058C114.387 38.946 114.393 38.9862 114.399 39.0207C114.405 39.0552 114.416 39.0896 114.433 39.1241L113.588 39.3367C113.577 39.3137 113.565 39.285 113.56 39.2505C113.554 39.216 113.548 39.1758 113.542 39.1356C113.537 39.0954 113.537 39.0379 113.537 38.969C113.537 38.8196 113.571 38.6817 113.64 38.5439C113.709 38.406 113.813 38.2853 113.951 38.1762C114.088 38.067 114.255 37.9808 114.445 37.9119C114.64 37.8429 114.865 37.8142 115.118 37.8142C115.623 37.8142 116.026 37.9579 116.313 38.2451C116.607 38.5324 116.75 38.9173 116.75 39.3941V42.5597L117.383 42.7205V42.824H115.905V42.192C115.83 42.3414 115.727 42.4735 115.612 42.5942C115.514 42.6918 115.388 42.7837 115.238 42.8642C115.089 42.9446 114.905 42.9848 114.692 42.9848C114.186 42.9848 113.801 42.8642 113.548 42.6286C113.289 42.3873 113.163 42.0713 113.163 41.6692C113.163 41.4739 113.215 41.2728 113.324 41.0774C113.433 40.8821 113.6 40.704 113.818 40.5489C114.043 40.3938 114.324 40.2674 114.669 40.1755C115.014 40.0778 115.428 40.0318 115.905 40.0318V39.3999C115.905 38.8713 115.825 38.5036 115.669 38.2911C115.508 38.067 115.325 37.9636 115.118 37.9636ZM124.218 38.2279V42.5539L124.851 42.7148V42.8182H123.373V42.1862C123.298 42.3356 123.195 42.4678 123.08 42.5884C122.982 42.6861 122.856 42.778 122.706 42.8584C122.557 42.9389 122.373 42.9791 122.16 42.9791C121.947 42.9791 121.752 42.9388 121.574 42.8642C121.395 42.7895 121.24 42.6803 121.102 42.5424C120.97 42.4045 120.867 42.2379 120.792 42.0484C120.717 41.853 120.683 41.6405 120.683 41.3992V38.2336L120.05 38.0727V37.9693H122.108V38.0727L121.528 38.2336V41.3992C121.528 41.899 121.608 42.2494 121.763 42.462C121.924 42.6688 122.108 42.7722 122.315 42.7722C122.482 42.7722 122.632 42.7205 122.764 42.6229C122.896 42.5252 123.005 42.416 123.097 42.2954C123.201 42.1633 123.293 42.0024 123.373 41.8186V38.2336L122.792 38.0727V37.9693H124.851V38.0727L124.218 38.2279ZM130.531 37.9636V38.1762H129.318V41.5428C129.318 41.9737 129.392 42.2839 129.548 42.4792C129.703 42.6746 129.869 42.7665 130.053 42.7665C130.295 42.7665 130.496 42.6746 130.663 42.4965C130.83 42.3184 130.927 42.0541 130.95 41.7094H131.111C131.083 42.1116 130.962 42.4218 130.749 42.6401C130.536 42.8584 130.266 42.9733 129.95 42.9733C129.502 42.9733 129.139 42.8412 128.875 42.5769C128.605 42.3126 128.472 41.9679 128.472 41.5485V38.1704H127.576V37.9579H128.472V36.7456L129.318 36.1654V37.9579H130.531V37.9636ZM135.515 43.7087C135.4 44.0419 135.291 44.3177 135.187 44.536C135.084 44.76 134.969 44.9381 134.854 45.076C134.739 45.2139 134.618 45.3116 134.497 45.3633C134.377 45.4207 134.239 45.4494 134.089 45.4494C134.049 45.4494 134.009 45.4495 133.974 45.4437C133.94 45.438 133.905 45.4322 133.871 45.4265C133.836 45.4207 133.802 45.4092 133.773 45.3977L133.612 44.6049C133.641 44.6164 133.67 44.6279 133.71 44.6337C133.744 44.6394 133.779 44.6451 133.813 44.6509C133.848 44.6566 133.888 44.6566 133.928 44.6566C134.348 44.6566 134.658 44.5762 134.854 44.4211C135.049 44.2602 135.199 44.0247 135.302 43.7087L135.595 42.8125L133.767 38.2221L133.135 38.0613V37.9579H135.245V38.0613L134.664 38.2221L136.004 41.5888L137.09 38.3313L136.406 38.067V37.9636H137.987V38.067L137.303 38.3313L135.515 43.7087Z" fill="#242333"/>
<path fill-rule="evenodd" clip-rule="evenodd" d="M148.726 31.8681V30.765C148.945 30.7075 149.157 30.6329 149.364 30.5409C149.882 30.3054 150.347 29.9549 150.75 29.4896C151.147 29.03 151.446 28.4899 151.647 27.8752C151.842 27.272 151.94 26.5941 151.94 25.8529C151.94 25.1118 151.842 24.4339 151.647 23.8307C151.446 23.2217 151.147 22.6817 150.75 22.2163C150.347 21.7509 149.888 21.4005 149.364 21.1649C149.163 21.073 148.95 20.9983 148.726 20.9409V19.8378C150.278 19.9585 151.595 20.5387 152.676 21.5786C153.291 22.1646 153.751 22.8138 154.056 23.5262C154.36 24.2328 154.515 25.0027 154.515 25.8415C154.515 26.6917 154.36 27.4673 154.056 28.1854C153.751 28.8978 153.291 29.5528 152.676 30.1388C151.595 31.1614 150.278 31.7417 148.726 31.8681ZM160 31.8164V19.9068C160 19.8953 160 19.8838 159.994 19.8723C159.989 19.8608 159.983 19.8551 159.971 19.8436C159.96 19.8378 159.954 19.8263 159.943 19.8263C159.931 19.8206 159.914 19.8206 159.891 19.8206H157.166C157.31 20.0274 157.413 20.263 157.488 20.5215C157.562 20.803 157.603 21.1132 157.603 21.4522V31.8393C157.608 31.8451 157.614 31.8566 157.631 31.8738L157.666 31.9025H159.891C159.914 31.9025 159.931 31.9025 159.943 31.8968C159.954 31.891 159.966 31.8853 159.971 31.8795L160 31.8451V31.8164ZM148.726 19.8378V20.9409C148.381 20.8547 148.019 20.8087 147.64 20.8087H146.208C146.116 20.8087 146.024 20.826 145.938 20.8662C145.852 20.9007 145.777 20.9581 145.714 21.0328C145.651 21.1017 145.605 21.1822 145.57 21.2683C145.541 21.3545 145.524 21.4464 145.524 21.5384V30.1905C145.524 30.2881 145.541 30.3801 145.57 30.4605C145.605 30.5524 145.656 30.6329 145.72 30.6961C145.852 30.8282 146.019 30.8971 146.208 30.8971H147.64C148.025 30.8971 148.387 30.8512 148.726 30.765V31.8681C148.519 31.8853 148.307 31.891 148.094 31.891H143.201L143.167 31.8623L143.138 31.8278V21.4407C143.138 21.1017 143.098 20.7915 143.023 20.51C142.949 20.2457 142.845 20.0102 142.701 19.8091H148.094C148.307 19.8148 148.519 19.8206 148.726 19.8378ZM113.968 28.4095V27.4099H115.336C115.894 27.4099 116.078 27.1398 115.877 26.5998L114.434 22.5782C114.405 22.4806 114.353 22.4001 114.284 22.3369C114.204 22.2623 114.106 22.2278 113.991 22.2278H113.962V19.8148H115.497C115.578 19.8148 115.641 19.8321 115.681 19.8608C115.727 19.8895 115.762 19.947 115.79 20.0274L120.298 31.8968H117.952C117.883 31.8968 117.831 31.8853 117.791 31.8566C117.751 31.8278 117.722 31.7819 117.693 31.7129L116.681 28.8978C116.572 28.5761 116.325 28.4152 115.934 28.4152H113.968V28.4095ZM123.385 21.4464V31.8336L123.413 31.8681L123.448 31.8968H125.656C125.679 31.8968 125.696 31.8968 125.707 31.891C125.719 31.8853 125.73 31.8796 125.736 31.8738L125.765 31.8393V27.6914C125.765 27.542 125.788 27.4041 125.828 27.2777C125.874 27.1398 125.937 27.0249 126.029 26.9215L126.213 26.7205C126.495 26.393 126.771 26.4045 127.047 26.7607L130.68 31.6268C130.824 31.8106 131.06 31.9025 131.393 31.9025H133.647L128.478 25.1348C128.22 24.8131 128.225 24.5086 128.501 24.2386L132.646 19.8148H131.203C131.06 19.8148 130.927 19.8378 130.824 19.8838C130.72 19.9297 130.628 19.9987 130.548 20.0849C129.272 21.5728 127.829 22.9861 126.541 24.4741C126.478 24.5373 126.414 24.5833 126.345 24.612C126.242 24.658 126.133 24.6637 126.029 24.6235C125.926 24.5833 125.845 24.5086 125.799 24.3994C125.771 24.3305 125.759 24.2558 125.759 24.1696V19.9068C125.759 19.8953 125.759 19.8838 125.753 19.8723C125.748 19.8608 125.742 19.8551 125.73 19.8436C125.719 19.8378 125.713 19.8263 125.702 19.8263C125.69 19.8206 125.673 19.8206 125.65 19.8206H122.942C123.086 20.0274 123.189 20.263 123.264 20.5215C123.344 20.7973 123.385 21.1075 123.385 21.4464ZM138.976 31.8164V19.9068C138.976 19.8953 138.976 19.8838 138.97 19.8723C138.964 19.8608 138.959 19.8551 138.947 19.8436C138.936 19.8378 138.93 19.8263 138.918 19.8263C138.907 19.8206 138.89 19.8206 138.867 19.8206H136.142C136.285 20.0274 136.389 20.263 136.464 20.5215C136.538 20.803 136.579 21.1132 136.579 21.4522V31.8393C136.584 31.8451 136.59 31.8566 136.607 31.8738L136.642 31.9025H138.867C138.89 31.9025 138.907 31.9025 138.918 31.8968C138.93 31.891 138.941 31.8853 138.947 31.8795L138.976 31.8451V31.8164ZM77.3009 28.1223L76.5592 29.4838C76.5477 29.5068 76.542 29.5298 76.542 29.5528C76.542 29.593 76.5592 29.6447 76.588 29.6964L76.5937 29.7022C76.7605 30.0526 76.9847 30.3743 77.2549 30.6616C77.5308 30.9546 77.8643 31.2131 78.2552 31.4429C78.6461 31.6727 79.0658 31.8451 79.5257 31.96C79.9856 32.0749 80.48 32.1323 81.0147 32.1323C82.2795 32.1323 83.2798 31.7991 84.0099 31.1269C84.3721 30.7937 84.6481 30.4203 84.8263 30.0009C85.0045 29.5873 85.0965 29.1219 85.0965 28.6106C85.0965 28.0705 84.9988 27.5707 84.8148 27.1169C84.7228 26.8871 84.6078 26.6745 84.4698 26.4734C84.3376 26.2723 84.1881 26.0885 84.0157 25.9219C83.8317 25.738 83.6535 25.5772 83.4868 25.4335C83.3143 25.2842 83.1418 25.152 82.9694 25.0314C82.7911 24.9107 82.6072 24.7901 82.4117 24.6752C82.2162 24.5603 82.0093 24.4454 81.7908 24.3247L81.6758 24.2673L81.5206 24.1869C81.2734 24.0605 81.0607 23.9456 80.871 23.8479C80.6698 23.7387 80.503 23.6468 80.3823 23.5779C80.2386 23.4917 80.1006 23.3998 79.9741 23.2964C79.8419 23.193 79.7212 23.0781 79.6062 22.9517C79.4797 22.8138 79.382 22.6644 79.313 22.515C79.244 22.3542 79.2095 22.1876 79.2095 22.021C79.2095 21.7969 79.2498 21.5958 79.3302 21.412C79.4165 21.2281 79.5372 21.0673 79.7039 20.9294C79.8649 20.803 80.0489 20.7053 80.2673 20.6421C80.4743 20.5847 80.7043 20.5502 80.9515 20.5502C81.2332 20.5502 81.4976 20.5847 81.7506 20.6594C82.0035 20.7341 82.245 20.8375 82.4634 20.9811C82.6704 21.119 82.8601 21.2626 83.0211 21.4177C83.1878 21.5728 83.3315 21.7395 83.4523 21.9118C83.4695 21.9348 83.4868 21.952 83.504 21.9635L83.527 21.9692L84.1651 20.9122C84.1996 20.8375 84.2169 20.7743 84.2111 20.7341C84.2111 20.7111 84.1996 20.6938 84.1824 20.6766C83.7915 20.3032 83.3258 20.0217 82.7911 19.8378C82.245 19.6482 81.6126 19.5506 80.8997 19.5506C80.3651 19.5506 79.8764 19.6195 79.4337 19.7631C78.9911 19.901 78.5886 20.1078 78.2264 20.3893C77.8758 20.6594 77.6056 20.9696 77.4331 21.32C77.2549 21.6705 77.1629 22.0669 77.1571 22.5093C77.1571 22.7736 77.1801 23.0206 77.2204 23.2504C77.2606 23.4802 77.3296 23.6985 77.4158 23.9053C77.5021 24.1064 77.6056 24.3018 77.7378 24.4856C77.87 24.6694 78.0195 24.8361 78.1919 24.9912C78.5599 25.3244 78.9163 25.6002 79.267 25.8185C79.4452 25.9334 79.6464 26.0483 79.8649 26.1689C80.0891 26.2896 80.3363 26.4217 80.6008 26.5481C81.4344 26.956 82.0553 27.3352 82.4519 27.6799C82.6762 27.8752 82.8486 28.0993 82.9636 28.3578C83.0786 28.6163 83.1303 28.8978 83.1303 29.2023C83.1303 29.4896 83.0786 29.7539 82.9751 29.9894C82.8716 30.2307 82.7164 30.4375 82.5152 30.6214C82.314 30.7995 82.0725 30.9316 81.7908 31.0178C81.5206 31.104 81.2159 31.1442 80.8767 31.1442C80.0259 31.1442 79.2613 30.8454 78.5829 30.2422C78.2494 29.9492 77.9792 29.6217 77.7665 29.2655C77.5423 28.9151 77.3928 28.5359 77.3009 28.1223ZM113.968 19.8148V22.2278C113.87 22.2335 113.778 22.268 113.703 22.3254C113.623 22.3886 113.565 22.4748 113.537 22.5782L112.036 26.5998C111.996 26.709 111.979 26.8066 111.979 26.8928C111.979 27.002 112.007 27.0996 112.065 27.1801C112.122 27.2662 112.203 27.3294 112.312 27.3697C112.387 27.3984 112.473 27.4099 112.565 27.4099H113.974V28.4095H111.881C111.72 28.4095 111.582 28.4497 111.461 28.5359C111.346 28.6221 111.26 28.737 111.208 28.8921L110.197 31.7129C110.174 31.7819 110.139 31.8278 110.099 31.8566C110.064 31.8796 110.007 31.8968 109.938 31.8968H108.587L112.531 21.5556C112.674 21.1592 112.749 20.8145 112.749 20.5272C112.749 20.3951 112.738 20.2744 112.709 20.1538C112.686 20.0389 112.646 19.9297 112.594 19.8206V19.8148H113.968ZM98.7791 19.8148H96.6175C96.5945 19.8148 96.5772 19.8206 96.5657 19.8206C96.5542 19.8263 96.5427 19.8321 96.537 19.8378C96.5255 19.8493 96.5197 19.8608 96.514 19.8665L96.5082 19.901V24.5258C96.5082 24.7212 96.4392 24.8878 96.3013 25.0256C96.238 25.0888 96.1633 25.1406 96.0828 25.175C95.9966 25.2152 95.9103 25.2325 95.8183 25.2325H91.8286C91.6158 25.2325 91.4434 25.1693 91.3226 25.0371C91.2019 24.9107 91.1444 24.7384 91.1444 24.5258V19.901C91.1444 19.8895 91.1444 19.8723 91.1387 19.8665C91.1329 19.8608 91.1272 19.8493 91.1157 19.8378C91.1042 19.8263 91.0984 19.8206 91.0869 19.8206C91.0754 19.8148 91.0582 19.8148 91.0352 19.8148H88.3274C88.4711 20.0217 88.5746 20.2572 88.6493 20.5157C88.7298 20.7972 88.7643 21.1075 88.7643 21.4464V31.8336L88.7931 31.8681L88.8276 31.8968H91.0352C91.0582 31.8968 91.0754 31.8968 91.0869 31.891C91.0984 31.8853 91.1099 31.8796 91.1157 31.8738C91.1272 31.8623 91.1387 31.8508 91.1444 31.8393V26.933C91.1444 26.4619 91.3744 26.2264 91.8343 26.2264H95.8241C95.9161 26.2264 96.0023 26.2436 96.0885 26.2838C96.169 26.3183 96.2438 26.37 96.307 26.4332C96.376 26.5021 96.422 26.5768 96.4622 26.663C96.4967 26.7492 96.5197 26.8411 96.5197 26.933V31.8393L96.5485 31.8738C96.56 31.8853 96.5657 31.891 96.5772 31.891C96.5887 31.8968 96.6059 31.8968 96.6289 31.8968H98.7906C98.8136 31.8968 98.8308 31.8968 98.8423 31.891C98.8538 31.8853 98.8653 31.8796 98.8711 31.8738C98.8826 31.8623 98.8941 31.8508 98.8998 31.8393V19.9125C98.8998 19.901 98.8998 19.8838 98.894 19.878C98.8883 19.8723 98.8826 19.8608 98.8711 19.8493C98.8596 19.8378 98.8538 19.8321 98.8423 19.8321C98.8136 19.8148 98.7963 19.8148 98.7791 19.8148ZM105.5 31.8164V19.9068C105.5 19.8953 105.5 19.8838 105.494 19.8723C105.488 19.8608 105.482 19.8551 105.471 19.8436C105.459 19.8378 105.454 19.8263 105.442 19.8263C105.431 19.8206 105.413 19.8206 105.39 19.8206H102.665C102.809 20.0274 102.913 20.263 102.987 20.5215C103.068 20.803 103.102 21.1132 103.102 21.4522V31.8393C103.108 31.8451 103.114 31.8566 103.131 31.8738L103.166 31.9025H105.39C105.413 31.9025 105.431 31.9025 105.442 31.8968C105.454 31.891 105.465 31.8853 105.471 31.8795L105.494 31.8451L105.5 31.8164Z" fill="#242333"/>
</g>
<defs>
<clipPath id="clip0_785_10158">
<rect width="160" height="65" fill="white"/>
</clipPath>
</defs>
</svg>
