<svg width="57" height="60" viewBox="0 0 57 60" fill="none" xmlns="http://www.w3.org/2000/svg">
<g clip-path="url(#clip0_785_11748)">
<path d="M29.1805 30.6443C24.9803 30.6443 21.1776 28.9428 18.4249 26.192C15.6722 23.4413 13.9696 19.6411 13.9696 15.4438C13.9696 11.2465 15.6722 7.44641 18.4249 4.69564C21.1776 1.94481 24.9803 0.243408 29.1805 0.243408C33.3806 0.243408 37.1834 1.94481 39.9361 4.69564C42.6888 7.44641 44.3913 11.2465 44.3913 15.4438C44.3913 19.6411 42.6888 23.4413 39.9361 26.192C37.1834 28.9428 33.3806 30.6443 29.1805 30.6443ZM20.7289 23.8896C22.8917 26.051 25.8798 27.3879 29.1805 27.3879C32.4811 27.3879 35.4693 26.051 37.6321 23.8896C39.795 21.7283 41.1327 18.7422 41.1327 15.4438C41.1327 12.1454 39.795 9.15935 37.6321 6.99802C35.4693 4.83664 32.4811 3.49979 29.1805 3.49979C25.8798 3.49979 22.8917 4.83664 20.7289 6.99802C18.5661 9.15935 17.2282 12.1454 17.2282 15.4438C17.2282 18.7422 18.5661 21.7283 20.7289 23.8896Z" fill="#242333"/>
<path d="M28.0621 27.3801H29.7658C37.1862 27.3801 43.9385 30.2678 48.8395 34.92C53.7612 39.5917 56.8161 46.0406 56.8161 53.1387V59.7384H1.01172V53.1387C1.01172 46.0406 4.06661 39.5917 8.98831 34.92C13.8893 30.2678 20.6417 27.3801 28.0621 27.3801ZM29.7658 30.6365H28.0621C21.501 30.6365 15.5426 33.1783 11.2287 37.2733C6.93525 41.3486 4.27034 46.965 4.27034 53.1387V56.482H53.5575V53.1387C53.5575 46.965 50.8926 41.3486 46.5992 37.2733C42.2852 33.1783 36.3269 30.6365 29.7658 30.6365Z" fill="#242333"/>
</g>
<defs>
<clipPath id="clip0_785_11748">
<rect width="56" height="60" fill="white" transform="translate(0.884644)"/>
</clipPath>
</defs>
</svg>
