<svg width="84" height="52" viewBox="0 0 84 52" fill="none" xmlns="http://www.w3.org/2000/svg">
<path d="M21.866 1V0H21.0505L20.8865 0.798873L21.866 1ZM62.3198 1L63.2994 1.20113L63.546 0H62.3198V1ZM13.1193 43.6002L12.1397 43.399L11.8931 44.6002H13.1193V43.6002ZM74.3466 12.4L73.7561 13.2071V13.2071L74.3466 12.4ZM82 23.2001L82.9778 23.4097L83.0628 23.013L82.8475 22.6692L82 23.2001ZM77.6266 43.6002V44.6002H78.435L78.6044 43.8098L77.6266 43.6002ZM21.866 2H62.3198V0H21.866V2ZM61.3402 0.798874L59.264 10.9107L61.2232 11.313L63.2994 1.20113L61.3402 0.798874ZM59.264 10.9107L56.7821 22.999L58.7412 23.4012L61.2232 11.313L59.264 10.9107ZM56.7821 22.999L52.5935 43.399L54.5526 43.8013L58.7412 23.4012L56.7821 22.999ZM14.0988 43.8013L22.8456 1.20113L20.8865 0.798873L12.1397 43.399L14.0988 43.8013ZM19.1327 42.6002H13.1193V44.6002H19.1327V42.6002ZM60.2436 11.1118C60.2365 12.1118 60.2365 12.1118 60.2366 12.1118C60.2367 12.1118 60.2368 12.1118 60.2369 12.1118C60.2372 12.1118 60.2377 12.1118 60.2384 12.1118C60.2398 12.1118 60.2419 12.1119 60.2448 12.1119C60.2506 12.1119 60.2593 12.112 60.2708 12.1121C60.2939 12.1123 60.3285 12.1126 60.3737 12.1131C60.4643 12.114 60.5978 12.1155 60.7685 12.1179C61.11 12.1226 61.6003 12.1307 62.194 12.1441C63.3821 12.171 64.9809 12.2192 66.6283 12.3046C68.2797 12.3902 69.9628 12.5122 71.3256 12.6846C72.0084 12.771 72.5911 12.8677 73.0404 12.9735C73.2649 13.0264 73.4417 13.0782 73.5734 13.1266C73.7143 13.1783 73.761 13.2107 73.7561 13.2071L74.9371 11.593C74.5537 11.3125 74.0008 11.145 73.499 11.0268C72.9529 10.8981 72.2928 10.791 71.5766 10.7004C70.1414 10.5188 68.4013 10.3938 66.7318 10.3073C65.0586 10.2206 63.4391 10.1718 62.2392 10.1446C61.6388 10.131 61.1426 10.1229 60.7962 10.1181C60.6229 10.1157 60.487 10.1141 60.3942 10.1132C60.3478 10.1127 60.3122 10.1124 60.288 10.1122C60.2759 10.1121 60.2667 10.112 60.2605 10.1119C60.2574 10.1119 60.255 10.1119 60.2533 10.1119C60.2525 10.1119 60.2519 10.1119 60.2514 10.1119C60.2512 10.1119 60.251 10.1119 60.2509 10.1119C60.2508 10.1119 60.2507 10.1119 60.2436 11.1118ZM73.7561 13.2071C73.859 13.2824 74.0679 13.4847 74.385 13.857C74.6864 14.2109 75.0413 14.665 75.4317 15.1903C76.2119 16.2399 77.1069 17.537 77.9575 18.8066C78.8068 20.0744 79.6059 21.306 80.1931 22.2213C80.4865 22.6787 80.7267 23.0567 80.8934 23.3201C80.9768 23.4517 81.0417 23.5547 81.0858 23.6247C81.1078 23.6597 81.1246 23.6864 81.1358 23.7043C81.1414 23.7132 81.1456 23.7199 81.1484 23.7244C81.1498 23.7266 81.1509 23.7283 81.1516 23.7294C81.1519 23.7299 81.1522 23.7303 81.1523 23.7306C81.1524 23.7307 81.1525 23.7308 81.1525 23.7309C81.1525 23.7309 81.1525 23.7309 82 23.2001C82.8475 22.6692 82.8474 22.6692 82.8474 22.6691C82.8473 22.669 82.8472 22.6688 82.8471 22.6687C82.8469 22.6684 82.8466 22.6679 82.8462 22.6673C82.8455 22.666 82.8443 22.6642 82.8428 22.6618C82.8398 22.6571 82.8354 22.65 82.8296 22.6408C82.818 22.6222 82.8008 22.5949 82.7784 22.5593C82.7335 22.488 82.6677 22.3836 82.5834 22.2504C82.4148 21.9841 82.1724 21.6027 81.8765 21.1414C81.2849 20.2192 80.4781 18.9757 79.6191 17.6935C78.7613 16.4131 77.8455 15.0852 77.0369 13.9973C76.633 13.4539 76.249 12.961 75.9076 12.5602C75.5819 12.1778 75.2442 11.8177 74.9371 11.593L73.7561 13.2071ZM57.7616 24.2001H82V22.2001H57.7616V24.2001ZM81.0222 22.9905L76.6488 43.3905L78.6044 43.8098L82.9778 23.4097L81.0222 22.9905ZM59.0398 42.6002H53.573V44.6002H59.0398V42.6002ZM77.6266 42.6002H71.6132V44.6002H77.6266V42.6002ZM31.6023 44C31.6023 47.3252 28.9424 50 25.6867 50V52C30.0698 52 33.6023 48.4068 33.6023 44H31.6023ZM25.6867 50C22.431 50 19.771 47.3252 19.771 44H17.771C17.771 48.4068 21.3036 52 25.6867 52V50ZM19.771 44C19.771 40.6748 22.431 38 25.6867 38V36C21.3036 36 17.771 39.5932 17.771 44H19.771ZM25.6867 38C28.9424 38 31.6023 40.6748 31.6023 44H33.6023C33.6023 39.5932 30.0698 36 25.6867 36V38ZM71.1203 44C71.1203 47.3252 68.4604 50 65.2047 50V52C69.5878 52 73.1203 48.4068 73.1203 44H71.1203ZM65.2047 50C61.949 50 59.289 47.3252 59.289 44H57.289C57.289 48.4068 60.8216 52 65.2047 52V50ZM59.289 44C59.289 40.6748 61.949 38 65.2047 38V36C60.8216 36 57.289 39.5932 57.289 44H59.289ZM65.2047 38C68.4604 38 71.1203 40.6748 71.1203 44H73.1203C73.1203 39.5932 69.5878 36 65.2047 36V38ZM10.934 14.8003H26.2408V12.8003H10.934V14.8003ZM5.46653 23.1997H24.0534V21.1997H5.46653V23.1997ZM0 31.5996H21.8669V29.5996H0V31.5996ZM53.573 42.6002H32.2528V44.6002H53.573V42.6002Z" fill="#242333"/>
</svg>
