<svg width="62" height="61" viewBox="0 0 62 61" fill="none" xmlns="http://www.w3.org/2000/svg">
<path fill-rule="evenodd" clip-rule="evenodd" d="M14.5353 14.6667C14.5353 8.36414 19.6571 3.25 25.9812 3.25C32.3053 3.25 37.4271 8.36414 37.4271 14.6667C37.4271 20.9628 32.3157 26.073 26.0004 26.0834C25.994 26.0833 25.9876 26.0833 25.9812 26.0833C25.9748 26.0833 25.9684 26.0833 25.962 26.0834C19.6467 26.073 14.5353 20.9628 14.5353 14.6667ZM19.4137 26.9466C15.0234 24.6036 12.0353 19.9845 12.0353 14.6667C12.0353 6.978 18.2818 0.75 25.9812 0.75C33.6806 0.75 39.9271 6.978 39.9271 14.6667C39.9271 19.9845 36.939 24.6036 32.5487 26.9466C43.2991 29.8368 51.2123 39.6516 51.2123 51.3145V59.0001V60.2501H49.9623H2H0.75V59.0001V51.3145C0.75 39.6515 8.6633 29.8368 19.4137 26.9466ZM25.9611 28.5834C13.4162 28.5942 3.25 38.7671 3.25 51.3145V57.7501H48.7123V51.3145C48.7123 38.7672 38.5461 28.5942 26.0013 28.5834C25.9946 28.5834 25.9879 28.5834 25.9812 28.5834C25.9745 28.5834 25.9678 28.5834 25.9611 28.5834Z" fill="#242333"/>
<path d="M60.7499 22.6966C60.7499 27.6389 56.7334 31.6504 51.7727 31.6504C46.812 31.6504 42.7954 27.6389 42.7954 22.6966C42.7954 17.7544 46.812 13.7429 51.7727 13.7429C56.7334 13.7429 60.7499 17.7544 60.7499 22.6966Z" stroke="#242333" stroke-width="2.5"/>
<mask id="path-3-inside-1_785_11769" fill="white">
<path d="M57.8554 25.5006C57.2294 26.8523 56.169 27.9569 54.8424 28.639C53.5158 29.3212 51.9989 29.542 50.5323 29.2663C49.0656 28.9907 47.7332 28.2344 46.7462 27.1175C45.7593 26.0005 45.1744 24.5868 45.0843 23.1005C44.9941 21.6142 45.4039 20.1404 46.2486 18.9129C47.0933 17.6853 48.3246 16.7743 49.7473 16.3242C51.1699 15.8741 52.7024 15.9108 54.1018 16.4284C55.5012 16.9459 56.6873 17.9148 57.4721 19.1814L55.7986 20.2135C55.2443 19.3189 54.4064 18.6345 53.4179 18.2689C52.4294 17.9033 51.3469 17.8774 50.342 18.1953C49.3371 18.5132 48.4673 19.1568 47.8706 20.0239C47.2739 20.891 46.9844 21.932 47.0481 22.9819C47.1118 24.0318 47.525 25.0304 48.2221 25.8194C48.9193 26.6084 49.8605 27.1426 50.8965 27.3373C51.9325 27.532 53.004 27.3761 53.9411 26.8942C54.8782 26.4123 55.6272 25.6321 56.0694 24.6773L57.8554 25.5006Z"/>
</mask>
<path d="M57.8554 25.5006C57.2294 26.8523 56.169 27.9569 54.8424 28.639C53.5158 29.3212 51.9989 29.542 50.5323 29.2663C49.0656 28.9907 47.7332 28.2344 46.7462 27.1175C45.7593 26.0005 45.1744 24.5868 45.0843 23.1005C44.9941 21.6142 45.4039 20.1404 46.2486 18.9129C47.0933 17.6853 48.3246 16.7743 49.7473 16.3242C51.1699 15.8741 52.7024 15.9108 54.1018 16.4284C55.5012 16.9459 56.6873 17.9148 57.4721 19.1814L55.7986 20.2135C55.2443 19.3189 54.4064 18.6345 53.4179 18.2689C52.4294 17.9033 51.3469 17.8774 50.342 18.1953C49.3371 18.5132 48.4673 19.1568 47.8706 20.0239C47.2739 20.891 46.9844 21.932 47.0481 22.9819C47.1118 24.0318 47.525 25.0304 48.2221 25.8194C48.9193 26.6084 49.8605 27.1426 50.8965 27.3373C51.9325 27.532 53.004 27.3761 53.9411 26.8942C54.8782 26.4123 55.6272 25.6321 56.0694 24.6773L57.8554 25.5006Z" stroke="#242333" stroke-width="5" mask="url(#path-3-inside-1_785_11769)"/>
</svg>
