<svg width="48" height="60" viewBox="0 0 48 60" fill="none" xmlns="http://www.w3.org/2000/svg">
<path d="M3.53844 56.3821H44.347L41.1186 13.8352H6.76687L3.53844 56.3821ZM46.1055 59.6385H0.0214844L3.74409 10.5789H44.1413L47.8639 59.6385H46.1055Z" fill="#242333"/>
<path d="M23.9579 0.14209C27.3609 0.14209 30.4533 1.52971 32.6942 3.76517C34.9351 6.00069 36.3261 9.08573 36.3261 12.4805C36.3261 15.6931 36.3261 18.9058 36.3261 22.1184H33.0619V12.4805C33.0619 9.98463 32.0371 7.71438 30.3863 6.06755C28.7354 4.42072 26.4598 3.39847 23.9579 3.39847C21.4561 3.39847 19.1804 4.42072 17.5296 6.06755C15.8788 7.71438 14.8541 9.98463 14.8541 12.4805V22.1184H11.5898V12.4805C11.5898 9.08573 12.9808 6.00069 15.2217 3.76517C17.4626 1.52971 20.555 0.14209 23.9579 0.14209Z" fill="#242333"/>
</svg>
