<svg width="85" height="52" viewBox="0 0 85 52" fill="none" xmlns="http://www.w3.org/2000/svg">
<path d="M23.0494 1V0H22.2358L22.0703 0.796521L23.0494 1ZM63.9966 1L64.9756 1.20348L65.2257 0H63.9966V1ZM14.1959 43.6002L13.2168 43.3967L12.9667 44.6002H14.1959V43.6002ZM76.17 12.4L75.5842 13.2105V13.2105L76.17 12.4ZM83.9168 23.2001L84.8941 23.4121L84.9811 23.0111L84.7614 22.6646L83.9168 23.2001ZM79.4901 43.6002V44.6002H80.2964L80.4673 43.8122L79.4901 43.6002ZM23.0494 2H63.9966V0H23.0494V2ZM63.0175 0.796521L60.916 10.9084L62.8741 11.3153L64.9756 1.20348L63.0175 0.796521ZM60.916 10.9084L58.4037 22.9966L60.3619 23.4036L62.8741 11.3153L60.916 10.9084ZM58.4037 22.9966L54.164 43.3967L56.1222 43.8036L60.3619 23.4036L58.4037 22.9966ZM15.175 43.8036L24.0284 1.20348L22.0703 0.796521L13.2168 43.3967L15.175 43.8036ZM20.2827 42.6002H14.1959V44.6002H20.2827V42.6002ZM61.895 11.1118C61.8881 12.1118 61.8881 12.1118 61.8881 12.1118C61.8882 12.1118 61.8883 12.1118 61.8884 12.1118C61.8888 12.1118 61.8893 12.1118 61.89 12.1118C61.8914 12.1118 61.8935 12.1119 61.8965 12.1119C61.9023 12.1119 61.9111 12.112 61.9228 12.1121C61.9462 12.1123 61.9812 12.1126 62.027 12.1131C62.1187 12.114 62.2538 12.1155 62.4267 12.1179C62.7724 12.1226 63.2687 12.1307 63.8697 12.1441C65.0725 12.171 66.691 12.2193 68.3589 12.3046C70.0306 12.3902 71.7349 12.5122 73.1152 12.6848C73.8068 12.7712 74.3974 12.868 74.8534 12.9741C75.0812 13.0271 75.2609 13.0792 75.3953 13.1279C75.5389 13.18 75.5878 13.213 75.5842 13.2105L76.7559 11.5896C76.3705 11.311 75.814 11.1443 75.3067 11.0262C74.7551 10.8978 74.0878 10.7908 73.3633 10.7002C71.9114 10.5187 70.1507 10.3937 68.4612 10.3072C66.7678 10.2206 65.1289 10.1718 63.9144 10.1446C63.3068 10.131 62.8046 10.1229 62.454 10.1181C62.2786 10.1157 62.1411 10.1141 62.0472 10.1132C62.0003 10.1127 61.9642 10.1124 61.9398 10.1122C61.9276 10.1121 61.9183 10.112 61.9119 10.1119C61.9088 10.1119 61.9064 10.1119 61.9047 10.1119C61.9039 10.1119 61.9032 10.1119 61.9028 10.1119C61.9026 10.1119 61.9024 10.1119 61.9023 10.1119C61.9021 10.1119 61.902 10.1119 61.895 11.1118ZM75.5842 13.2105C75.6894 13.2865 75.9013 13.4895 76.2221 13.8616C76.5273 14.2156 76.8864 14.6696 77.2817 15.195C78.0714 16.2446 78.9773 17.5416 79.8383 18.8113C80.6979 20.079 81.5068 21.3106 82.1011 22.2259C82.3981 22.6834 82.6413 23.0613 82.81 23.3247C82.8944 23.4564 82.9601 23.5594 83.0047 23.6293C83.027 23.6643 83.0439 23.691 83.0553 23.7089C83.061 23.7178 83.0653 23.7246 83.0681 23.729C83.0695 23.7313 83.0706 23.7329 83.0713 23.734C83.0716 23.7346 83.0719 23.735 83.072 23.7352C83.0721 23.7354 83.0722 23.7354 83.0722 23.7355C83.0722 23.7355 83.0723 23.7356 83.9168 23.2001C84.7614 22.6646 84.7613 22.6645 84.7612 22.6644C84.7612 22.6644 84.7611 22.6642 84.761 22.6641C84.7608 22.6637 84.7605 22.6633 84.7601 22.6626C84.7593 22.6614 84.7582 22.6596 84.7567 22.6572C84.7536 22.6524 84.7491 22.6454 84.7433 22.6361C84.7315 22.6176 84.7141 22.5903 84.6914 22.5546C84.646 22.4834 84.5794 22.379 84.494 22.2458C84.3234 21.9795 84.0781 21.598 83.7785 21.1367C83.1797 20.2145 82.3631 18.9711 81.4936 17.6888C80.6254 16.4085 79.6984 15.0805 78.8799 13.9926C78.4711 13.4492 78.0824 12.9564 77.7369 12.5557C77.4071 12.1731 77.0657 11.8136 76.7559 11.5896L75.5842 13.2105ZM59.3828 24.2001H83.9168V22.2001H59.3828V24.2001ZM82.9395 22.988L78.5128 43.3881L80.4673 43.8122L84.8941 23.4121L82.9395 22.988ZM60.6765 42.6002H55.1431V44.6002H60.6765V42.6002ZM79.4901 42.6002H73.4033V44.6002H79.4901V42.6002ZM32.9166 44C32.9166 47.3137 30.2303 50 26.9166 50V52C31.3349 52 34.9166 48.4183 34.9166 44H32.9166ZM26.9166 50C23.6029 50 20.9166 47.3137 20.9166 44H18.9166C18.9166 48.4183 22.4983 52 26.9166 52V50ZM20.9166 44C20.9166 40.6863 23.6029 38 26.9166 38V36C22.4983 36 18.9166 39.5817 18.9166 44H20.9166ZM26.9166 38C30.2303 38 32.9166 40.6863 32.9166 44H34.9166C34.9166 39.5817 31.3349 36 26.9166 36V38ZM72.9166 44C72.9166 47.3137 70.2303 50 66.9166 50V52C71.3349 52 74.9166 48.4183 74.9166 44H72.9166ZM66.9166 50C63.6029 50 60.9166 47.3137 60.9166 44H58.9166C58.9166 48.4183 62.4983 52 66.9166 52V50ZM60.9166 44C60.9166 40.6863 63.6029 38 66.9166 38V36C62.4983 36 58.9166 39.5817 58.9166 44H60.9166ZM66.9166 38C70.2303 38 72.9166 40.6863 72.9166 44H74.9166C74.9166 39.5817 71.3349 36 66.9166 36V38ZM11.984 14.8003H27.4775V12.8003H11.984V14.8003ZM6.44983 23.1997H25.2634V21.1997H6.44983V23.1997ZM0.916626 31.5996H23.0502V29.5996H0.916626V31.5996ZM55.1431 42.6002H33.5628V44.6002H55.1431V42.6002Z" fill="#242333"/>
</svg>
