<svg width="56" height="57" viewBox="0 0 56 57" fill="none" xmlns="http://www.w3.org/2000/svg">
<path d="M47 32C47 40.8366 39.8366 48 31 48V50C40.9411 50 49 41.9411 49 32H47ZM31 48C22.1634 48 15 40.8366 15 32H13C13 41.9411 21.0589 50 31 50V48ZM15 32C15 23.1634 22.1634 16 31 16V14C21.0589 14 13 22.0589 13 32H15ZM31 16C39.8366 16 47 23.1634 47 32H49C49 22.0589 40.9411 14 31 14V16ZM54 32C54 44.7025 43.7025 55 31 55V57C44.8071 57 56 45.8071 56 32H54ZM31 55C18.2975 55 8 44.7025 8 32H6C6 45.8071 17.1929 57 31 57V55ZM8 32C8 19.2975 18.2975 9 31 9V7C17.1929 7 6 18.1929 6 32H8ZM31 9C43.7025 9 54 19.2975 54 32H56C56 18.1929 44.8071 7 31 7V9ZM34 32C34 33.6569 32.6569 35 31 35V37C33.7614 37 36 34.7614 36 32H34ZM31 35C29.3431 35 28 33.6569 28 32H26C26 34.7614 28.2386 37 31 37V35ZM28 32C28 30.3431 29.3431 29 31 29V27C28.2386 27 26 29.2386 26 32H28ZM31 29C32.6569 29 34 30.3431 34 32H36C36 29.2386 33.7614 27 31 27V29ZM24.1157 2H37.6167V0H24.1157V2ZM3 24H8.74455V22H3V24ZM0 33H7V31H0V33ZM3 43H9.17617V41H3V43ZM14 33H19.0905V31H14V33ZM43 33H48V31H43V33ZM35 33H40.0905V31H35V33ZM32 20V15H30V20H32ZM32 8V1H30V8H32ZM32 49V43.0003H30V49H32ZM32 28.0908V23.0003H30V28.0908H32ZM18.2929 21.7071C18.2956 21.7099 18.2984 21.7126 18.3011 21.7154C18.3039 21.7181 18.3066 21.7209 18.3094 21.7236C18.3122 21.7264 18.3149 21.7291 18.3177 21.7319C18.3204 21.7347 18.3232 21.7374 18.326 21.7402C18.3288 21.743 18.3315 21.7457 18.3343 21.7485C18.3371 21.7513 18.3399 21.7541 18.3426 21.7568C18.3454 21.7596 18.3482 21.7624 18.351 21.7652C18.3538 21.768 18.3566 21.7708 18.3594 21.7736C18.3621 21.7764 18.3649 21.7792 18.3677 21.7819C18.3705 21.7847 18.3733 21.7875 18.3761 21.7904C18.3789 21.7932 18.3817 21.796 18.3846 21.7988C18.3874 21.8016 18.3902 21.8044 18.393 21.8072C18.3958 21.81 18.3986 21.8128 18.4014 21.8157C18.4043 21.8185 18.4071 21.8213 18.4099 21.8241C18.4127 21.827 18.4156 21.8298 18.4184 21.8326C18.4212 21.8354 18.4241 21.8383 18.4269 21.8411C18.4297 21.8439 18.4326 21.8468 18.4354 21.8496C18.4383 21.8525 18.4411 21.8553 18.4439 21.8582C18.4468 21.861 18.4496 21.8639 18.4525 21.8667C18.4553 21.8696 18.4582 21.8724 18.4611 21.8753C18.4639 21.8781 18.4668 21.881 18.4696 21.8838C18.4725 21.8867 18.4754 21.8896 18.4782 21.8924C18.4811 21.8953 18.484 21.8982 18.4868 21.9011C18.4897 21.9039 18.4926 21.9068 18.4955 21.9097C18.4983 21.9125 18.5012 21.9154 18.5041 21.9183C18.507 21.9212 18.5099 21.9241 18.5128 21.927C18.5156 21.9299 18.5185 21.9327 18.5214 21.9356C18.5243 21.9385 18.5272 21.9414 18.5301 21.9443C18.533 21.9472 18.5359 21.9501 18.5388 21.953C18.5417 21.9559 18.5446 21.9588 18.5475 21.9617C18.5504 21.9646 18.5533 21.9675 18.5562 21.9704C18.5591 21.9734 18.5621 21.9763 18.565 21.9792C18.5679 21.9821 18.5708 21.985 18.5737 21.9879C18.5766 21.9909 18.5796 21.9938 18.5825 21.9967C18.5854 21.9996 18.5883 22.0026 18.5913 22.0055C18.5942 22.0084 18.5971 22.0113 18.6001 22.0143C18.603 22.0172 18.6059 22.0201 18.6089 22.0231C18.6118 22.026 18.6147 22.029 18.6177 22.0319C18.6206 22.0348 18.6236 22.0378 18.6265 22.0407C18.6295 22.0437 18.6324 22.0466 18.6354 22.0496C18.6383 22.0525 18.6413 22.0555 18.6442 22.0584C18.6472 22.0614 18.6501 22.0644 18.6531 22.0673C18.6561 22.0703 18.659 22.0732 18.662 22.0762C18.6649 22.0792 18.6679 22.0821 18.6709 22.0851C18.6738 22.0881 18.6768 22.091 18.6798 22.094C18.6828 22.097 18.6857 22.0999 18.6887 22.1029C18.6917 22.1059 18.6947 22.1089 18.6976 22.1118C18.7006 22.1148 18.7036 22.1178 18.7066 22.1208C18.7096 22.1238 18.7125 22.1268 18.7155 22.1297C18.7185 22.1327 18.7215 22.1357 18.7245 22.1387C18.7275 22.1417 18.7305 22.1447 18.7335 22.1477C18.7365 22.1507 18.7395 22.1537 18.7425 22.1567C18.7455 22.1597 18.7485 22.1627 18.7515 22.1657C18.7545 22.1687 18.7575 22.1717 18.7605 22.1747C18.7635 22.1777 18.7665 22.1807 18.7695 22.1837C18.7725 22.1867 18.7755 22.1897 18.7785 22.1927C18.7815 22.1958 18.7846 22.1988 18.7876 22.2018C18.7906 22.2048 18.7936 22.2078 18.7966 22.2108C18.7996 22.2139 18.8027 22.2169 18.8057 22.2199C18.8087 22.2229 18.8117 22.2259 18.8148 22.229C18.8178 22.232 18.8208 22.235 18.8238 22.2381C18.8269 22.2411 18.8299 22.2441 18.8329 22.2472C18.836 22.2502 18.839 22.2532 18.842 22.2563C18.8451 22.2593 18.8481 22.2623 18.8512 22.2654C18.8542 22.2684 18.8572 22.2715 18.8603 22.2745C18.8633 22.2775 18.8664 22.2806 18.8694 22.2836C18.8725 22.2867 18.8755 22.2897 18.8786 22.2928C18.8816 22.2958 18.8847 22.2989 18.8877 22.3019C18.8908 22.305 18.8938 22.308 18.8969 22.3111C18.8999 22.3141 18.903 22.3172 18.906 22.3202C18.9091 22.3233 18.9121 22.3264 18.9152 22.3294C18.9183 22.3325 18.9213 22.3355 18.9244 22.3386C18.9275 22.3417 18.9305 22.3447 18.9336 22.3478C18.9367 22.3509 18.9397 22.3539 18.9428 22.357C18.9459 22.3601 18.9489 22.3631 18.952 22.3662C18.9551 22.3693 18.9581 22.3724 18.9612 22.3754C18.9643 22.3785 18.9674 22.3816 18.9704 22.3847C18.9735 22.3877 18.9766 22.3908 18.9797 22.3939C18.9828 22.397 18.9858 22.4001 18.9889 22.4031C18.992 22.4062 18.9951 22.4093 18.9982 22.4124C19.0013 22.4155 19.0043 22.4186 19.0074 22.4216C19.0105 22.4247 19.0136 22.4278 19.0167 22.4309C19.0198 22.434 19.0229 22.4371 19.026 22.4402C19.0291 22.4433 19.0321 22.4464 19.0352 22.4495C19.0383 22.4525 19.0414 22.4556 19.0445 22.4587C19.0476 22.4618 19.0507 22.4649 19.0538 22.468C19.0569 22.4711 19.06 22.4742 19.0631 22.4773C19.0662 22.4804 19.0693 22.4835 19.0724 22.4866C19.0755 22.4897 19.0786 22.4928 19.0817 22.4959C19.0848 22.4991 19.0879 22.5022 19.091 22.5053C19.0942 22.5084 19.0973 22.5115 19.1004 22.5146C19.1035 22.5177 19.1066 22.5208 19.1097 22.5239C19.1128 22.527 19.1159 22.5301 19.119 22.5332C19.1221 22.5364 19.1253 22.5395 19.1284 22.5426C19.1315 22.5457 19.1346 22.5488 19.1377 22.5519C19.1408 22.5551 19.144 22.5582 19.1471 22.5613C19.1502 22.5644 19.1533 22.5675 19.1564 22.5706C19.1595 22.5738 19.1627 22.5769 19.1658 22.58C19.1689 22.5831 19.172 22.5863 19.1752 22.5894C19.1783 22.5925 19.1814 22.5956 19.1845 22.5987C19.1877 22.6019 19.1908 22.605 19.1939 22.6081C19.197 22.6112 19.2002 22.6144 19.2033 22.6175C19.2064 22.6206 19.2095 22.6238 19.2127 22.6269C19.2158 22.63 19.2189 22.6331 19.2221 22.6363C19.2252 22.6394 19.2283 22.6425 19.2315 22.6457C19.2346 22.6488 19.2377 22.6519 19.2409 22.6551C19.244 22.6582 19.2471 22.6613 19.2503 22.6645C19.2534 22.6676 19.2565 22.6707 19.2597 22.6739C19.2628 22.677 19.2659 22.6801 19.2691 22.6833C19.2722 22.6864 19.2753 22.6896 19.2785 22.6927C19.2816 22.6958 19.2848 22.699 19.2879 22.7021C19.291 22.7053 19.2942 22.7084 19.2973 22.7115C19.3005 22.7147 19.3036 22.7178 19.3067 22.721C19.3099 22.7241 19.313 22.7272 19.3162 22.7304C19.3193 22.7335 19.3225 22.7367 19.3256 22.7398C19.3287 22.743 19.3319 22.7461 19.335 22.7492C19.3382 22.7524 19.3413 22.7555 19.3445 22.7587C19.3476 22.7618 19.3507 22.765 19.3539 22.7681C19.357 22.7713 19.3602 22.7744 19.3633 22.7775C19.3665 22.7807 19.3696 22.7838 19.3728 22.787C19.3759 22.7901 19.3791 22.7933 19.3822 22.7964C19.3854 22.7996 19.3885 22.8027 19.3917 22.8059C19.3948 22.809 19.398 22.8122 19.4011 22.8153C19.4043 22.8185 19.4074 22.8216 19.4106 22.8248C19.4137 22.8279 19.4169 22.8311 19.42 22.8342C19.4232 22.8374 19.4263 22.8405 19.4295 22.8437C19.4326 22.8468 19.4358 22.85 19.4389 22.8531C19.4421 22.8563 19.4452 22.8594 19.4484 22.8626C19.4515 22.8657 19.4547 22.8689 19.4578 22.872C19.461 22.8752 19.4641 22.8783 19.4673 22.8815C19.4704 22.8846 19.4736 22.8878 19.4767 22.8909C19.4799 22.8941 19.483 22.8972 19.4862 22.9004C19.4893 22.9035 19.4925 22.9067 19.4956 22.9099C19.4988 22.913 19.5019 22.9162 19.5051 22.9193C19.5082 22.9225 19.5114 22.9256 19.5146 22.9288C19.5177 22.9319 19.5209 22.9351 19.524 22.9382C19.5272 22.9414 19.5303 22.9445 19.5335 22.9477C19.5366 22.9508 19.5398 22.954 19.5429 22.9571C19.5461 22.9603 19.5492 22.9634 19.5524 22.9666C19.5555 22.9697 19.5587 22.9729 19.5618 22.976C19.565 22.9792 19.5681 22.9824 19.5713 22.9855C19.5744 22.9887 19.5776 22.9918 19.5807 22.995C19.5839 22.9981 19.587 23.0013 19.5902 23.0044C19.5933 23.0076 19.5965 23.0107 19.5997 23.0139C19.6028 23.017 19.606 23.0202 19.6091 23.0233C19.6123 23.0265 19.6154 23.0296 19.6186 23.0328C19.6217 23.0359 19.6249 23.0391 19.628 23.0422C19.6312 23.0454 19.6343 23.0485 19.6374 23.0517C19.6406 23.0548 19.6437 23.058 19.6469 23.0611C19.65 23.0643 19.6532 23.0674 19.6563 23.0706C19.6595 23.0737 19.6626 23.0768 19.6658 23.08C19.6689 23.0831 19.6721 23.0863 19.6752 23.0894C19.6784 23.0926 19.6815 23.0957 19.6847 23.0989C19.6878 23.102 19.6909 23.1052 19.6941 23.1083C19.6972 23.1115 19.7004 23.1146 19.7035 23.1177C19.7067 23.1209 19.7098 23.124 19.713 23.1272C19.7161 23.1303 19.7192 23.1335 19.7224 23.1366C19.7255 23.1397 19.7287 23.1429 19.7318 23.146C19.7349 23.1492 19.7381 23.1523 19.7412 23.1554C19.7444 23.1586 19.7475 23.1617 19.7506 23.1649C19.7538 23.168 19.7569 23.1711 19.7601 23.1743C19.7632 23.1774 19.7663 23.1805 19.7695 23.1837C19.7726 23.1868 19.7757 23.19 19.7789 23.1931C19.782 23.1962 19.7851 23.1994 19.7883 23.2025C19.7914 23.2056 19.7946 23.2088 19.7977 23.2119C19.8008 23.215 19.8039 23.2182 19.8071 23.2213C19.8102 23.2244 19.8133 23.2276 19.8165 23.2307C19.8196 23.2338 19.8227 23.2369 19.8259 23.2401C19.829 23.2432 19.8321 23.2463 19.8352 23.2495C19.8384 23.2526 19.8415 23.2557 19.8446 23.2588C19.8477 23.262 19.8509 23.2651 19.854 23.2682C19.8571 23.2713 19.8602 23.2745 19.8634 23.2776C19.8665 23.2807 19.8696 23.2838 19.8727 23.2869C19.8759 23.2901 19.879 23.2932 19.8821 23.2963C19.8852 23.2994 19.8883 23.3025 19.8914 23.3057C19.8946 23.3088 19.8977 23.3119 19.9008 23.315C19.9039 23.3181 19.907 23.3212 19.9101 23.3244C19.9133 23.3275 19.9164 23.3306 19.9195 23.3337C19.9226 23.3368 19.9257 23.3399 19.9288 23.343C19.9319 23.3461 19.935 23.3492 19.9381 23.3524C19.9412 23.3555 19.9444 23.3586 19.9475 23.3617C19.9506 23.3648 19.9537 23.3679 19.9568 23.371C19.9599 23.3741 19.963 23.3772 19.9661 23.3803C19.9692 23.3834 19.9723 23.3865 19.9754 23.3896C19.9785 23.3927 19.9816 23.3958 19.9847 23.3989C19.9878 23.402 19.9909 23.4051 19.994 23.4082C19.9971 23.4113 20.0002 23.4144 20.0033 23.4175C20.0063 23.4206 20.0094 23.4237 20.0125 23.4267C20.0156 23.4298 20.0187 23.4329 20.0218 23.436C20.0249 23.4391 20.028 23.4422 20.0311 23.4453C20.0341 23.4484 20.0372 23.4514 20.0403 23.4545C20.0434 23.4576 20.0465 23.4607 20.0496 23.4638C20.0526 23.4669 20.0557 23.4699 20.0588 23.473C20.0619 23.4761 20.065 23.4792 20.068 23.4822C20.0711 23.4853 20.0742 23.4884 20.0773 23.4915C20.0803 23.4945 20.0834 23.4976 20.0865 23.5007C20.0895 23.5038 20.0926 23.5068 20.0957 23.5099C20.0987 23.513 20.1018 23.516 20.1049 23.5191C20.1079 23.5222 20.111 23.5252 20.1141 23.5283C20.1171 23.5313 20.1202 23.5344 20.1233 23.5375C20.1263 23.5405 20.1294 23.5436 20.1324 23.5466C20.1355 23.5497 20.1385 23.5528 20.1416 23.5558C20.1446 23.5589 20.1477 23.5619 20.1507 23.565C20.1538 23.568 20.1568 23.5711 20.1599 23.5741C20.1629 23.5772 20.166 23.5802 20.169 23.5832C20.1721 23.5863 20.1751 23.5893 20.1782 23.5924C20.1812 23.5954 20.1842 23.5985 20.1873 23.6015C20.1903 23.6045 20.1934 23.6076 20.1964 23.6106C20.1994 23.6136 20.2025 23.6167 20.2055 23.6197C20.2085 23.6227 20.2116 23.6258 20.2146 23.6288C20.2176 23.6318 20.2206 23.6349 20.2237 23.6379C20.2267 23.6409 20.2297 23.6439 20.2327 23.6469C20.2358 23.65 20.2388 23.653 20.2418 23.656C20.2448 23.659 20.2478 23.662 20.2508 23.6651C20.2539 23.6681 20.2569 23.6711 20.2599 23.6741C20.2629 23.6771 20.2659 23.6801 20.2689 23.6831C20.2719 23.6861 20.2749 23.6891 20.2779 23.6921C20.2809 23.6951 20.2839 23.6981 20.2869 23.7011C20.2899 23.7041 20.2929 23.7071 20.2959 23.7101C20.2989 23.7131 20.3019 23.7161 20.3049 23.7191C20.3079 23.7221 20.3109 23.7251 20.3139 23.7281C20.3169 23.7311 20.3199 23.7341 20.3229 23.7371C20.3258 23.7401 20.3288 23.743 20.3318 23.746C20.3348 23.749 20.3378 23.752 20.3407 23.755C20.3437 23.7579 20.3467 23.7609 20.3497 23.7639C20.3526 23.7669 20.3556 23.7698 20.3586 23.7728C20.3616 23.7758 20.3645 23.7787 20.3675 23.7817C20.3705 23.7847 20.3734 23.7876 20.3764 23.7906C20.3793 23.7936 20.3823 23.7965 20.3853 23.7995C20.3882 23.8024 20.3912 23.8054 20.3941 23.8083C20.3971 23.8113 20.4 23.8142 20.403 23.8172C20.4059 23.8201 20.4089 23.8231 20.4118 23.826C20.4148 23.829 20.4177 23.8319 20.4206 23.8349C20.4236 23.8378 20.4265 23.8407 20.4295 23.8437C20.4324 23.8466 20.4353 23.8495 20.4383 23.8525C20.4412 23.8554 20.4441 23.8583 20.447 23.8613C20.45 23.8642 20.4529 23.8671 20.4558 23.87C20.4587 23.873 20.4617 23.8759 20.4646 23.8788C20.4675 23.8817 20.4704 23.8846 20.4733 23.8875C20.4762 23.8905 20.4792 23.8934 20.4821 23.8963C20.485 23.8992 20.4879 23.9021 20.4908 23.905C20.4937 23.9079 20.4966 23.9108 20.4995 23.9137C20.5024 23.9166 20.5053 23.9195 20.5082 23.9224C20.5111 23.9253 20.514 23.9282 20.5169 23.9311C20.5197 23.934 20.5226 23.9368 20.5255 23.9397C20.5284 23.9426 20.5313 23.9455 20.5342 23.9484C20.537 23.9513 20.5399 23.9541 20.5428 23.957C20.5457 23.9599 20.5485 23.9628 20.5514 23.9656C20.5543 23.9685 20.5572 23.9714 20.56 23.9742C20.5629 23.9771 20.5658 23.98 20.5686 23.9828C20.5715 23.9857 20.5743 23.9885 20.5772 23.9914C20.58 23.9943 20.5829 23.9971 20.5857 24C20.5886 24.0028 20.5914 24.0057 20.5943 24.0085C20.5971 24.0113 20.6 24.0142 20.6028 24.017C20.6056 24.0199 20.6085 24.0227 20.6113 24.0255C20.6142 24.0284 20.617 24.0312 20.6198 24.034C20.6226 24.0369 20.6255 24.0397 20.6283 24.0425C20.6311 24.0453 20.6339 24.0482 20.6368 24.051C20.6396 24.0538 20.6424 24.0566 20.6452 24.0594C20.648 24.0622 20.6508 24.065 20.6536 24.0678C20.6564 24.0707 20.6592 24.0735 20.662 24.0763C20.6648 24.0791 20.6676 24.0819 20.6704 24.0847C20.6732 24.0874 20.676 24.0902 20.6788 24.093C20.6816 24.0958 20.6844 24.0986 20.6872 24.1014C20.69 24.1042 20.6927 24.107 20.6955 24.1097C20.6983 24.1125 20.7011 24.1153 20.7039 24.1181C20.7066 24.1208 20.7094 24.1236 20.7122 24.1264C20.7149 24.1291 20.7177 24.1319 20.7205 24.1347C20.7232 24.1374 20.726 24.1402 20.7287 24.1429C20.7315 24.1457 20.7342 24.1485 20.737 24.1512C20.7397 24.1539 20.7425 24.1567 20.7452 24.1594C20.748 24.1622 20.7507 24.1649 20.7534 24.1677C20.7562 24.1704 20.7589 24.1731 20.7617 24.1759C20.7644 24.1786 20.7671 24.1813 20.7698 24.184C20.7726 24.1868 20.7753 24.1895 20.778 24.1922C20.7807 24.1949 20.7834 24.1976 20.7861 24.2004C20.7889 24.2031 20.7916 24.2058 20.7943 24.2085C20.797 24.2112 20.7997 24.2139 20.8024 24.2166C20.8051 24.2193 20.8078 24.222 20.8105 24.2247C20.8132 24.2274 20.8159 24.2301 20.8186 24.2328C20.8212 24.2355 20.8239 24.2381 20.8266 24.2408C20.8293 24.2435 20.832 24.2462 20.8346 24.2488C20.8373 24.2515 20.84 24.2542 20.8426 24.2569C20.8453 24.2595 20.848 24.2622 20.8506 24.2649C20.8533 24.2675 20.856 24.2702 20.8586 24.2728C20.8613 24.2755 20.8639 24.2781 20.8666 24.2808C20.8692 24.2834 20.8719 24.2861 20.8745 24.2887C20.8771 24.2914 20.8798 24.294 20.8824 24.2966C20.885 24.2993 20.8877 24.3019 20.8903 24.3045C20.8929 24.3071 20.8956 24.3098 20.8982 24.3124C20.9008 24.315 20.9034 24.3176 20.906 24.3202C20.9086 24.3229 20.9113 24.3255 20.9139 24.3281C20.9165 24.3307 20.9191 24.3333 20.9217 24.3359C20.9243 24.3385 20.9269 24.3411 20.9295 24.3437C20.9321 24.3463 20.9346 24.3489 20.9372 24.3514C20.9398 24.354 20.9424 24.3566 20.945 24.3592C20.9476 24.3618 20.9501 24.3643 20.9527 24.3669C20.9553 24.3695 20.9578 24.3721 20.9604 24.3746C20.963 24.3772 20.9655 24.3797 20.9681 24.3823C20.9706 24.3849 20.9732 24.3874 20.9758 24.39C20.9783 24.3925 20.9808 24.3951 20.9834 24.3976C20.9859 24.4001 20.9885 24.4027 20.991 24.4052C20.9935 24.4078 20.9961 24.4103 20.9986 24.4128C21.0011 24.4153 21.0037 24.4179 21.0062 24.4204C21.0087 24.4229 21.0112 24.4254 21.0137 24.4279C21.0162 24.4305 21.0187 24.433 21.0212 24.4355C21.0238 24.438 21.0263 24.4405 21.0288 24.443C21.0313 24.4455 21.0337 24.448 21.0362 24.4504C21.0387 24.4529 21.0412 24.4554 21.0437 24.4579C21.0462 24.4604 21.0487 24.4629 21.0511 24.4653C21.0536 24.4678 21.0561 24.4703 21.0585 24.4728C21.061 24.4752 21.0635 24.4777 21.0659 24.4801C21.0684 24.4826 21.0708 24.4851 21.0733 24.4875C21.0757 24.49 21.0782 24.4924 21.0806 24.4948C21.0831 24.4973 21.0855 24.4997 21.088 24.5022C21.0904 24.5046 21.0928 24.507 21.0952 24.5095C21.0977 24.5119 21.1001 24.5143 21.1025 24.5167C21.1049 24.5191 21.1073 24.5216 21.1098 24.524C21.1122 24.5264 21.1146 24.5288 21.117 24.5312C21.1194 24.5336 21.1218 24.536 21.1242 24.5384C21.1266 24.5408 21.129 24.5432 21.1313 24.5456C21.1337 24.5479 21.1361 24.5503 21.1385 24.5527C21.1409 24.5551 21.1432 24.5575 21.1456 24.5598C21.148 24.5622 21.1504 24.5646 21.1527 24.5669C21.1551 24.5693 21.1574 24.5716 21.1598 24.574C21.1621 24.5764 21.1645 24.5787 21.1668 24.581C21.1692 24.5834 21.1715 24.5857 21.1739 24.5881C21.1762 24.5904 21.1785 24.5927 21.1808 24.5951C21.1832 24.5974 21.1855 24.5997 21.1878 24.602C21.1901 24.6043 21.1925 24.6067 21.1948 24.609C21.1971 24.6113 21.1994 24.6136 21.2017 24.6159C21.204 24.6182 21.2063 24.6205 21.2086 24.6228C21.2109 24.6251 21.2132 24.6274 21.2154 24.6297C21.2177 24.6319 21.22 24.6342 21.2223 24.6365C21.2246 24.6388 21.2268 24.641 21.2291 24.6433C21.2314 24.6456 21.2336 24.6478 21.2359 24.6501C21.2381 24.6523 21.2404 24.6546 21.2426 24.6568C21.2449 24.6591 21.2471 24.6613 21.2494 24.6636C21.2516 24.6658 21.2538 24.6681 21.2561 24.6703C21.2583 24.6725 21.2605 24.6747 21.2628 24.677C21.265 24.6792 21.2672 24.6814 21.2694 24.6836C21.2716 24.6858 21.2738 24.688 21.276 24.6902C21.2782 24.6924 21.2804 24.6946 21.2826 24.6968C21.2848 24.699 21.287 24.7012 21.2892 24.7034C21.2914 24.7056 21.2936 24.7078 21.2957 24.7099C21.2979 24.7121 21.3001 24.7143 21.3022 24.7165C21.3044 24.7186 21.3066 24.7208 21.3087 24.7229C21.3109 24.7251 21.313 24.7273 21.3152 24.7294C21.3173 24.7315 21.3195 24.7337 21.3216 24.7358C21.3238 24.738 21.3259 24.7401 21.328 24.7422C21.3301 24.7444 21.3323 24.7465 21.3344 24.7486C21.3365 24.7507 21.3386 24.7528 21.3407 24.7549C21.3428 24.757 21.3449 24.7592 21.347 24.7613C21.3491 24.7634 21.3512 24.7654 21.3533 24.7675C21.3554 24.7696 21.3575 24.7717 21.3596 24.7738C21.3617 24.7759 21.3637 24.7779 21.3658 24.78C21.3679 24.7821 21.3699 24.7842 21.372 24.7862C21.3741 24.7883 21.3761 24.7903 21.3782 24.7924C21.3802 24.7944 21.3823 24.7965 21.3843 24.7985C21.3863 24.8006 21.3884 24.8026 21.3904 24.8046C21.3924 24.8067 21.3945 24.8087 21.3965 24.8107C21.3985 24.8127 21.4005 24.8147 21.4025 24.8168C21.4045 24.8188 21.4066 24.8208 21.4086 24.8228C21.4106 24.8248 21.4126 24.8268 21.4145 24.8288C21.4165 24.8307 21.4185 24.8327 21.4205 24.8347C21.4225 24.8367 21.4245 24.8387 21.4264 24.8406C21.4284 24.8426 21.4304 24.8446 21.4323 24.8465C21.4343 24.8485 21.4362 24.8504 21.4382 24.8524C21.4401 24.8543 21.4421 24.8563 21.444 24.8582C21.446 24.8602 21.4479 24.8621 21.4498 24.864C21.4517 24.866 21.4537 24.8679 21.4556 24.8698C21.4575 24.8717 21.4594 24.8736 21.4613 24.8755C21.4632 24.8774 21.4651 24.8794 21.467 24.8812C21.4689 24.8831 21.4708 24.885 21.4727 24.8869C21.4746 24.8888 21.4765 24.8907 21.4784 24.8926C21.4802 24.8944 21.4821 24.8963 21.484 24.8982C21.4858 24.9 21.4877 24.9019 21.4895 24.9038C21.4914 24.9056 21.4933 24.9075 21.4951 24.9093C21.4969 24.9112 21.4988 24.913 21.5006 24.9148C21.5024 24.9167 21.5043 24.9185 21.5061 24.9203C21.5079 24.9221 21.5097 24.9239 21.5115 24.9258C21.5134 24.9276 21.5152 24.9294 21.517 24.9312C21.5188 24.933 21.5206 24.9348 21.5223 24.9366C21.5241 24.9384 21.5259 24.9401 21.5277 24.9419C21.5295 24.9437 21.5312 24.9455 21.533 24.9472C21.5348 24.949 21.5365 24.9508 21.5383 24.9525C21.5401 24.9543 21.5418 24.956 21.5436 24.9578C21.5453 24.9595 21.547 24.9613 21.5488 24.963C21.5505 24.9647 21.5522 24.9664 21.554 24.9682C21.5557 24.9699 21.5574 24.9716 21.5591 24.9733C21.5608 24.975 21.5625 24.9767 21.5642 24.9784C21.5659 24.9801 21.5676 24.9818 21.5693 24.9835C21.571 24.9852 21.5727 24.9869 21.5744 24.9886C21.576 24.9902 21.5777 24.9919 21.5794 24.9936C21.581 24.9953 21.5827 24.9969 21.5844 24.9986C21.586 25.0002 21.5877 25.0019 21.5893 25.0035C21.5909 25.0052 21.5926 25.0068 21.5942 25.0084C21.5958 25.0101 21.5975 25.0117 21.5991 25.0133C21.6007 25.0149 21.6023 25.0165 21.6039 25.0181C21.6055 25.0197 21.6071 25.0213 21.6087 25.0229C21.6103 25.0245 21.6119 25.0261 21.6135 25.0277C21.6151 25.0293 21.6167 25.0309 21.6182 25.0324C21.6198 25.034 21.6214 25.0356 21.6229 25.0371C21.6245 25.0387 21.626 25.0403 21.6276 25.0418C21.6291 25.0434 21.6307 25.0449 21.6322 25.0464C21.6338 25.048 21.6353 25.0495 21.6368 25.051C21.6383 25.0526 21.6399 25.0541 21.6414 25.0556C21.6429 25.0571 21.6444 25.0586 21.6459 25.0601C21.6474 25.0616 21.6489 25.0631 21.6504 25.0646C21.6519 25.0661 21.6533 25.0676 21.6548 25.069C21.6563 25.0705 21.6578 25.072 21.6592 25.0734C21.6607 25.0749 21.6622 25.0764 21.6636 25.0778C21.6651 25.0793 21.6665 25.0807 21.6679 25.0822C21.6694 25.0836 21.6708 25.085 21.6722 25.0865C21.6737 25.0879 21.6751 25.0893 21.6765 25.0907C21.6779 25.0921 21.6793 25.0935 21.6807 25.0949C21.6821 25.0963 21.6835 25.0977 21.6849 25.0991C21.6863 25.1005 21.6877 25.1019 21.6891 25.1033C21.6904 25.1047 21.6918 25.106 21.6932 25.1074C21.6945 25.1088 21.6959 25.1101 21.6973 25.1115C21.6986 25.1128 21.6999 25.1142 21.7013 25.1155C21.7026 25.1168 21.704 25.1182 21.7053 25.1195C21.7066 25.1208 21.7079 25.1221 21.7092 25.1235C21.7106 25.1248 21.7119 25.1261 21.7132 25.1274C21.7145 25.1287 21.7158 25.13 21.7171 25.1313C21.7183 25.1326 21.7196 25.1338 21.7209 25.1351C21.7222 25.1364 21.7234 25.1377 21.7247 25.1389C21.726 25.1402 21.7272 25.1414 21.7285 25.1427C21.7297 25.1439 21.731 25.1452 21.7322 25.1464C21.7334 25.1476 21.7347 25.1489 21.7359 25.1501C21.7371 25.1513 21.7383 25.1525 21.7395 25.1537C21.7407 25.155 21.7419 25.1562 21.7431 25.1574C21.7443 25.1586 21.7455 25.1597 21.7467 25.1609C21.7479 25.1621 21.7491 25.1633 21.7502 25.1645C21.7514 25.1656 21.7526 25.1668 21.7537 25.168C21.7549 25.1691 21.756 25.1703 21.7572 25.1714C21.7583 25.1725 21.7595 25.1737 21.7606 25.1748C21.7617 25.1759 21.7629 25.1771 21.764 25.1782C21.7651 25.1793 21.7662 25.1804 21.7673 25.1815C21.7684 25.1826 21.7695 25.1837 21.7706 25.1848C21.7717 25.1859 21.7728 25.187 21.7738 25.1881C21.7749 25.1891 21.776 25.1902 21.7771 25.1913C21.7781 25.1923 21.7792 25.1934 21.7802 25.1944C21.7813 25.1955 21.7823 25.1965 21.7833 25.1976C21.7844 25.1986 21.7854 25.1996 21.7864 25.2006C21.7875 25.2017 21.7885 25.2027 21.7895 25.2037C21.7905 25.2047 21.7915 25.2057 21.7925 25.2067C21.7935 25.2077 21.7945 25.2087 21.7954 25.2097C21.7964 25.2106 21.7974 25.2116 21.7984 25.2126C21.7993 25.2135 21.8003 25.2145 21.8012 25.2155C21.8022 25.2164 21.8031 25.2173 21.8041 25.2183C21.805 25.2192 21.8059 25.2202 21.8069 25.2211C21.8078 25.222 21.8087 25.2229 21.8096 25.2238C21.8105 25.2247 21.8114 25.2256 21.8123 25.2265C21.8132 25.2274 21.8141 25.2283 21.815 25.2292C21.8159 25.2301 21.8168 25.231 21.8176 25.2318C21.8185 25.2327 21.8193 25.2336 21.8202 25.2344C21.8211 25.2353 21.8219 25.2361 21.8227 25.237C21.8236 25.2378 21.8244 25.2386 21.8252 25.2394C21.8261 25.2403 21.8269 25.2411 21.8277 25.2419C21.8285 25.2427 21.8293 25.2435 21.8301 25.2443C21.8309 25.2451 21.8317 25.2459 21.8325 25.2467C21.8332 25.2475 21.834 25.2482 21.8348 25.249C21.8356 25.2498 21.8363 25.2505 21.8371 25.2513C21.8378 25.252 21.8386 25.2528 21.8393 25.2535C21.84 25.2542 21.8408 25.255 21.8415 25.2557C21.8422 25.2564 21.8429 25.2571 21.8436 25.2578C21.8443 25.2586 21.845 25.2593 21.8457 25.26C21.8464 25.2606 21.8471 25.2613 21.8478 25.262C21.8485 25.2627 21.8491 25.2634 21.8498 25.264C21.8505 25.2647 21.8511 25.2653 21.8518 25.266C21.8524 25.2666 21.8531 25.2673 21.8537 25.2679C21.8543 25.2686 21.855 25.2692 21.8556 25.2698C21.8562 25.2704 21.8568 25.271 21.8574 25.2716C21.858 25.2722 21.8586 25.2728 21.8592 25.2734C21.8598 25.274 21.8604 25.2746 21.861 25.2752C21.8615 25.2757 21.8621 25.2763 21.8626 25.2769C21.8632 25.2774 21.8638 25.278 21.8643 25.2785C21.8648 25.2791 21.8654 25.2796 21.8659 25.2801C21.8664 25.2807 21.867 25.2812 21.8675 25.2817C21.868 25.2822 21.8685 25.2827 21.869 25.2832C21.8695 25.2837 21.87 25.2842 21.8705 25.2847C21.8709 25.2852 21.8714 25.2856 21.8719 25.2861C21.8723 25.2866 21.8728 25.287 21.8733 25.2875C21.8737 25.2879 21.8741 25.2884 21.8746 25.2888C21.875 25.2892 21.8755 25.2897 21.8759 25.2901C21.8763 25.2905 21.8767 25.2909 21.8771 25.2913C21.8775 25.2917 21.8779 25.2921 21.8783 25.2925C21.8787 25.2929 21.8791 25.2933 21.8794 25.2937C21.8798 25.294 21.8802 25.2944 21.8805 25.2948C21.8809 25.2951 21.8812 25.2955 21.8816 25.2958C21.8819 25.2961 21.8823 25.2965 21.8826 25.2968C21.8829 25.2971 21.8832 25.2974 21.8835 25.2978C21.8839 25.2981 21.8842 25.2984 21.8844 25.2987C21.8847 25.299 21.885 25.2992 21.8853 25.2995C21.8856 25.2998 21.8859 25.3001 21.8861 25.3003C21.8864 25.3006 21.8866 25.3008 21.8869 25.3011C21.8871 25.3013 21.8874 25.3016 21.8876 25.3018C21.8878 25.302 21.888 25.3023 21.8883 25.3025C21.8885 25.3027 21.8887 25.3029 21.8889 25.3031C21.8891 25.3033 21.8893 25.3035 21.8894 25.3037C21.8896 25.3038 21.8898 25.304 21.89 25.3042C21.8901 25.3043 21.8903 25.3045 21.8904 25.3046C21.8906 25.3048 21.8907 25.3049 21.8909 25.3051C21.891 25.3052 21.8911 25.3053 21.8912 25.3054C21.8913 25.3056 21.8915 25.3057 21.8916 25.3058C21.8917 25.3059 21.8917 25.306 21.8918 25.306C21.8919 25.3061 21.892 25.3062 21.8921 25.3063C21.8921 25.3063 21.8922 25.3064 21.8922 25.3064C21.8923 25.3065 21.8923 25.3065 21.8924 25.3066C21.8924 25.3066 21.8924 25.3066 21.8924 25.3066C21.8924 25.3067 21.8925 25.3067 22.5996 24.5996C23.3067 23.8925 23.3067 23.8924 23.3066 23.8924C23.3066 23.8924 23.3066 23.8924 23.3066 23.8924C23.3065 23.8923 23.3065 23.8923 23.3064 23.8922C23.3064 23.8922 23.3063 23.8921 23.3063 23.8921C23.3062 23.892 23.3061 23.8919 23.306 23.8918C23.306 23.8917 23.3059 23.8917 23.3058 23.8916C23.3057 23.8915 23.3056 23.8913 23.3054 23.8912C23.3053 23.8911 23.3052 23.891 23.3051 23.8909C23.3049 23.8907 23.3048 23.8906 23.3046 23.8904C23.3045 23.8903 23.3043 23.8901 23.3042 23.89C23.304 23.8898 23.3038 23.8896 23.3037 23.8894C23.3035 23.8893 23.3033 23.8891 23.3031 23.8889C23.3029 23.8887 23.3027 23.8885 23.3025 23.8883C23.3023 23.888 23.302 23.8878 23.3018 23.8876C23.3016 23.8874 23.3013 23.8871 23.3011 23.8869C23.3008 23.8866 23.3006 23.8864 23.3003 23.8861C23.3001 23.8859 23.2998 23.8856 23.2995 23.8853C23.2992 23.885 23.299 23.8847 23.2987 23.8844C23.2984 23.8842 23.2981 23.8839 23.2978 23.8835C23.2974 23.8832 23.2971 23.8829 23.2968 23.8826C23.2965 23.8823 23.2961 23.8819 23.2958 23.8816C23.2955 23.8812 23.2951 23.8809 23.2948 23.8805C23.2944 23.8802 23.294 23.8798 23.2937 23.8794C23.2933 23.8791 23.2929 23.8787 23.2925 23.8783C23.2921 23.8779 23.2917 23.8775 23.2913 23.8771C23.2909 23.8767 23.2905 23.8763 23.2901 23.8759C23.2897 23.8755 23.2892 23.875 23.2888 23.8746C23.2884 23.8741 23.2879 23.8737 23.2875 23.8733C23.287 23.8728 23.2866 23.8723 23.2861 23.8719C23.2856 23.8714 23.2852 23.8709 23.2847 23.8705C23.2842 23.87 23.2837 23.8695 23.2832 23.869C23.2827 23.8685 23.2822 23.868 23.2817 23.8675C23.2812 23.867 23.2807 23.8664 23.2801 23.8659C23.2796 23.8654 23.2791 23.8648 23.2785 23.8643C23.278 23.8638 23.2774 23.8632 23.2769 23.8626C23.2763 23.8621 23.2757 23.8615 23.2752 23.861C23.2746 23.8604 23.274 23.8598 23.2734 23.8592C23.2728 23.8586 23.2722 23.858 23.2716 23.8574C23.271 23.8568 23.2704 23.8562 23.2698 23.8556C23.2692 23.855 23.2686 23.8543 23.2679 23.8537C23.2673 23.8531 23.2666 23.8524 23.266 23.8518C23.2653 23.8511 23.2647 23.8505 23.264 23.8498C23.2634 23.8491 23.2627 23.8485 23.262 23.8478C23.2613 23.8471 23.2606 23.8464 23.26 23.8457C23.2593 23.845 23.2586 23.8443 23.2578 23.8436C23.2571 23.8429 23.2564 23.8422 23.2557 23.8415C23.255 23.8408 23.2542 23.84 23.2535 23.8393C23.2528 23.8386 23.252 23.8378 23.2513 23.8371C23.2505 23.8363 23.2498 23.8356 23.249 23.8348C23.2482 23.834 23.2475 23.8332 23.2467 23.8325C23.2459 23.8317 23.2451 23.8309 23.2443 23.8301C23.2435 23.8293 23.2427 23.8285 23.2419 23.8277C23.2411 23.8269 23.2403 23.8261 23.2394 23.8252C23.2386 23.8244 23.2378 23.8236 23.237 23.8227C23.2361 23.8219 23.2353 23.8211 23.2344 23.8202C23.2336 23.8193 23.2327 23.8185 23.2318 23.8176C23.231 23.8168 23.2301 23.8159 23.2292 23.815C23.2283 23.8141 23.2274 23.8132 23.2265 23.8123C23.2256 23.8114 23.2247 23.8105 23.2238 23.8096C23.2229 23.8087 23.222 23.8078 23.2211 23.8069C23.2202 23.8059 23.2192 23.805 23.2183 23.8041C23.2173 23.8031 23.2164 23.8022 23.2155 23.8012C23.2145 23.8003 23.2135 23.7993 23.2126 23.7984C23.2116 23.7974 23.2106 23.7964 23.2097 23.7954C23.2087 23.7945 23.2077 23.7935 23.2067 23.7925C23.2057 23.7915 23.2047 23.7905 23.2037 23.7895C23.2027 23.7885 23.2017 23.7875 23.2006 23.7864C23.1996 23.7854 23.1986 23.7844 23.1976 23.7833C23.1965 23.7823 23.1955 23.7813 23.1944 23.7802C23.1934 23.7792 23.1923 23.7781 23.1913 23.7771C23.1902 23.776 23.1891 23.7749 23.1881 23.7738C23.187 23.7728 23.1859 23.7717 23.1848 23.7706C23.1837 23.7695 23.1826 23.7684 23.1815 23.7673C23.1804 23.7662 23.1793 23.7651 23.1782 23.764C23.1771 23.7629 23.1759 23.7617 23.1748 23.7606C23.1737 23.7595 23.1725 23.7583 23.1714 23.7572C23.1703 23.756 23.1691 23.7549 23.168 23.7537C23.1668 23.7526 23.1656 23.7514 23.1645 23.7502C23.1633 23.7491 23.1621 23.7479 23.1609 23.7467C23.1597 23.7455 23.1586 23.7443 23.1574 23.7431C23.1562 23.7419 23.155 23.7407 23.1537 23.7395C23.1525 23.7383 23.1513 23.7371 23.1501 23.7359C23.1489 23.7347 23.1476 23.7334 23.1464 23.7322C23.1452 23.731 23.1439 23.7297 23.1427 23.7285C23.1414 23.7272 23.1402 23.726 23.1389 23.7247C23.1377 23.7234 23.1364 23.7222 23.1351 23.7209C23.1338 23.7196 23.1326 23.7183 23.1313 23.7171C23.13 23.7158 23.1287 23.7145 23.1274 23.7132C23.1261 23.7119 23.1248 23.7106 23.1235 23.7092C23.1221 23.7079 23.1208 23.7066 23.1195 23.7053C23.1182 23.704 23.1168 23.7026 23.1155 23.7013C23.1142 23.6999 23.1128 23.6986 23.1115 23.6973C23.1101 23.6959 23.1088 23.6945 23.1074 23.6932C23.106 23.6918 23.1047 23.6904 23.1033 23.6891C23.1019 23.6877 23.1005 23.6863 23.0991 23.6849C23.0977 23.6835 23.0963 23.6821 23.0949 23.6807C23.0935 23.6793 23.0921 23.6779 23.0907 23.6765C23.0893 23.6751 23.0879 23.6737 23.0865 23.6722C23.085 23.6708 23.0836 23.6694 23.0822 23.6679C23.0807 23.6665 23.0793 23.6651 23.0778 23.6636C23.0764 23.6622 23.0749 23.6607 23.0734 23.6592C23.072 23.6578 23.0705 23.6563 23.069 23.6548C23.0676 23.6533 23.0661 23.6519 23.0646 23.6504C23.0631 23.6489 23.0616 23.6474 23.0601 23.6459C23.0586 23.6444 23.0571 23.6429 23.0556 23.6414C23.0541 23.6399 23.0526 23.6383 23.051 23.6368C23.0495 23.6353 23.048 23.6338 23.0464 23.6322C23.0449 23.6307 23.0434 23.6291 23.0418 23.6276C23.0403 23.626 23.0387 23.6245 23.0371 23.6229C23.0356 23.6214 23.034 23.6198 23.0324 23.6182C23.0309 23.6167 23.0293 23.6151 23.0277 23.6135C23.0261 23.6119 23.0245 23.6103 23.0229 23.6087C23.0213 23.6071 23.0197 23.6055 23.0181 23.6039C23.0165 23.6023 23.0149 23.6007 23.0133 23.5991C23.0117 23.5975 23.0101 23.5958 23.0084 23.5942C23.0068 23.5926 23.0052 23.5909 23.0035 23.5893C23.0019 23.5877 23.0002 23.586 22.9986 23.5844C22.9969 23.5827 22.9953 23.581 22.9936 23.5794C22.9919 23.5777 22.9902 23.576 22.9886 23.5744C22.9869 23.5727 22.9852 23.571 22.9835 23.5693C22.9818 23.5676 22.9801 23.5659 22.9784 23.5642C22.9767 23.5625 22.975 23.5608 22.9733 23.5591C22.9716 23.5574 22.9699 23.5557 22.9682 23.554C22.9664 23.5522 22.9647 23.5505 22.963 23.5488C22.9613 23.547 22.9595 23.5453 22.9578 23.5436C22.956 23.5418 22.9543 23.5401 22.9525 23.5383C22.9508 23.5365 22.949 23.5348 22.9472 23.533C22.9455 23.5312 22.9437 23.5295 22.9419 23.5277C22.9401 23.5259 22.9384 23.5241 22.9366 23.5223C22.9348 23.5206 22.933 23.5188 22.9312 23.517C22.9294 23.5152 22.9276 23.5134 22.9258 23.5115C22.9239 23.5097 22.9221 23.5079 22.9203 23.5061C22.9185 23.5043 22.9167 23.5024 22.9148 23.5006C22.913 23.4988 22.9112 23.4969 22.9093 23.4951C22.9075 23.4933 22.9056 23.4914 22.9038 23.4895C22.9019 23.4877 22.9 23.4858 22.8982 23.484C22.8963 23.4821 22.8944 23.4802 22.8926 23.4784C22.8907 23.4765 22.8888 23.4746 22.8869 23.4727C22.885 23.4708 22.8831 23.4689 22.8812 23.467C22.8794 23.4651 22.8774 23.4632 22.8755 23.4613C22.8736 23.4594 22.8717 23.4575 22.8698 23.4556C22.8679 23.4537 22.866 23.4517 22.864 23.4498C22.8621 23.4479 22.8602 23.446 22.8582 23.444C22.8563 23.4421 22.8543 23.4401 22.8524 23.4382C22.8504 23.4362 22.8485 23.4343 22.8465 23.4323C22.8446 23.4304 22.8426 23.4284 22.8406 23.4264C22.8387 23.4245 22.8367 23.4225 22.8347 23.4205C22.8327 23.4185 22.8307 23.4165 22.8288 23.4145C22.8268 23.4126 22.8248 23.4106 22.8228 23.4086C22.8208 23.4066 22.8188 23.4045 22.8168 23.4025C22.8147 23.4005 22.8127 23.3985 22.8107 23.3965C22.8087 23.3945 22.8067 23.3924 22.8046 23.3904C22.8026 23.3884 22.8006 23.3863 22.7985 23.3843C22.7965 23.3823 22.7944 23.3802 22.7924 23.3782C22.7903 23.3761 22.7883 23.3741 22.7862 23.372C22.7842 23.3699 22.7821 23.3679 22.78 23.3658C22.7779 23.3637 22.7759 23.3617 22.7738 23.3596C22.7717 23.3575 22.7696 23.3554 22.7675 23.3533C22.7654 23.3512 22.7634 23.3491 22.7613 23.347C22.7592 23.3449 22.757 23.3428 22.7549 23.3407C22.7528 23.3386 22.7507 23.3365 22.7486 23.3344C22.7465 23.3323 22.7444 23.3301 22.7422 23.328C22.7401 23.3259 22.738 23.3238 22.7358 23.3216C22.7337 23.3195 22.7315 23.3173 22.7294 23.3152C22.7273 23.313 22.7251 23.3109 22.7229 23.3087C22.7208 23.3066 22.7186 23.3044 22.7165 23.3022C22.7143 23.3001 22.7121 23.2979 22.7099 23.2957C22.7078 23.2936 22.7056 23.2914 22.7034 23.2892C22.7012 23.287 22.699 23.2848 22.6968 23.2826C22.6946 23.2804 22.6924 23.2782 22.6902 23.276C22.688 23.2738 22.6858 23.2716 22.6836 23.2694C22.6814 23.2672 22.6792 23.265 22.677 23.2628C22.6747 23.2605 22.6725 23.2583 22.6703 23.2561C22.6681 23.2538 22.6658 23.2516 22.6636 23.2494C22.6613 23.2471 22.6591 23.2449 22.6568 23.2426C22.6546 23.2404 22.6523 23.2381 22.6501 23.2359C22.6478 23.2336 22.6456 23.2314 22.6433 23.2291C22.641 23.2268 22.6388 23.2246 22.6365 23.2223C22.6342 23.22 22.6319 23.2177 22.6297 23.2154C22.6274 23.2132 22.6251 23.2109 22.6228 23.2086C22.6205 23.2063 22.6182 23.204 22.6159 23.2017C22.6136 23.1994 22.6113 23.1971 22.609 23.1948C22.6067 23.1925 22.6043 23.1901 22.602 23.1878C22.5997 23.1855 22.5974 23.1832 22.5951 23.1808C22.5927 23.1785 22.5904 23.1762 22.5881 23.1739C22.5857 23.1715 22.5834 23.1692 22.581 23.1668C22.5787 23.1645 22.5764 23.1621 22.574 23.1598C22.5716 23.1574 22.5693 23.1551 22.5669 23.1527C22.5646 23.1504 22.5622 23.148 22.5598 23.1456C22.5575 23.1432 22.5551 23.1409 22.5527 23.1385C22.5503 23.1361 22.5479 23.1337 22.5456 23.1313C22.5432 23.129 22.5408 23.1266 22.5384 23.1242C22.536 23.1218 22.5336 23.1194 22.5312 23.117C22.5288 23.1146 22.5264 23.1122 22.524 23.1098C22.5216 23.1073 22.5191 23.1049 22.5167 23.1025C22.5143 23.1001 22.5119 23.0977 22.5095 23.0952C22.507 23.0928 22.5046 23.0904 22.5022 23.088C22.4997 23.0855 22.4973 23.0831 22.4948 23.0806C22.4924 23.0782 22.49 23.0757 22.4875 23.0733C22.4851 23.0708 22.4826 23.0684 22.4801 23.0659C22.4777 23.0635 22.4752 23.061 22.4728 23.0585C22.4703 23.0561 22.4678 23.0536 22.4653 23.0511C22.4629 23.0487 22.4604 23.0462 22.4579 23.0437C22.4554 23.0412 22.4529 23.0387 22.4504 23.0362C22.448 23.0337 22.4455 23.0313 22.443 23.0288C22.4405 23.0263 22.438 23.0238 22.4355 23.0212C22.433 23.0187 22.4305 23.0162 22.4279 23.0137C22.4254 23.0112 22.4229 23.0087 22.4204 23.0062C22.4179 23.0037 22.4153 23.0011 22.4128 22.9986C22.4103 22.9961 22.4078 22.9935 22.4052 22.991C22.4027 22.9885 22.4001 22.9859 22.3976 22.9834C22.3951 22.9808 22.3925 22.9783 22.39 22.9758C22.3874 22.9732 22.3849 22.9706 22.3823 22.9681C22.3797 22.9655 22.3772 22.963 22.3746 22.9604C22.3721 22.9578 22.3695 22.9553 22.3669 22.9527C22.3643 22.9501 22.3618 22.9476 22.3592 22.945C22.3566 22.9424 22.354 22.9398 22.3514 22.9372C22.3489 22.9346 22.3463 22.9321 22.3437 22.9295C22.3411 22.9269 22.3385 22.9243 22.3359 22.9217C22.3333 22.9191 22.3307 22.9165 22.3281 22.9139C22.3255 22.9113 22.3229 22.9086 22.3202 22.906C22.3176 22.9034 22.315 22.9008 22.3124 22.8982C22.3098 22.8956 22.3071 22.8929 22.3045 22.8903C22.3019 22.8877 22.2993 22.885 22.2966 22.8824C22.294 22.8798 22.2914 22.8771 22.2887 22.8745C22.2861 22.8719 22.2834 22.8692 22.2808 22.8666C22.2781 22.8639 22.2755 22.8613 22.2728 22.8586C22.2702 22.856 22.2675 22.8533 22.2649 22.8506C22.2622 22.848 22.2595 22.8453 22.2569 22.8426C22.2542 22.84 22.2515 22.8373 22.2488 22.8346C22.2462 22.832 22.2435 22.8293 22.2408 22.8266C22.2381 22.8239 22.2355 22.8212 22.2328 22.8186C22.2301 22.8159 22.2274 22.8132 22.2247 22.8105C22.222 22.8078 22.2193 22.8051 22.2166 22.8024C22.2139 22.7997 22.2112 22.797 22.2085 22.7943C22.2058 22.7916 22.2031 22.7889 22.2004 22.7861C22.1976 22.7834 22.1949 22.7807 22.1922 22.778C22.1895 22.7753 22.1868 22.7726 22.184 22.7698C22.1813 22.7671 22.1786 22.7644 22.1759 22.7617C22.1731 22.7589 22.1704 22.7562 22.1677 22.7534C22.1649 22.7507 22.1622 22.748 22.1594 22.7452C22.1567 22.7425 22.1539 22.7397 22.1512 22.737C22.1485 22.7342 22.1457 22.7315 22.1429 22.7287C22.1402 22.726 22.1374 22.7232 22.1347 22.7205C22.1319 22.7177 22.1291 22.7149 22.1264 22.7122C22.1236 22.7094 22.1208 22.7066 22.1181 22.7039C22.1153 22.7011 22.1125 22.6983 22.1097 22.6955C22.107 22.6927 22.1042 22.69 22.1014 22.6872C22.0986 22.6844 22.0958 22.6816 22.093 22.6788C22.0902 22.676 22.0874 22.6732 22.0847 22.6704C22.0819 22.6676 22.0791 22.6648 22.0763 22.662C22.0735 22.6592 22.0707 22.6564 22.0678 22.6536C22.065 22.6508 22.0622 22.648 22.0594 22.6452C22.0566 22.6424 22.0538 22.6396 22.051 22.6368C22.0482 22.6339 22.0453 22.6311 22.0425 22.6283C22.0397 22.6255 22.0369 22.6226 22.034 22.6198C22.0312 22.617 22.0284 22.6142 22.0255 22.6113C22.0227 22.6085 22.0199 22.6056 22.017 22.6028C22.0142 22.6 22.0113 22.5971 22.0085 22.5943C22.0057 22.5914 22.0028 22.5886 22 22.5857C21.9971 22.5829 21.9943 22.58 21.9914 22.5772C21.9885 22.5743 21.9857 22.5715 21.9828 22.5686C21.98 22.5658 21.9771 22.5629 21.9742 22.56C21.9714 22.5572 21.9685 22.5543 21.9656 22.5514C21.9628 22.5485 21.9599 22.5457 21.957 22.5428C21.9541 22.5399 21.9513 22.537 21.9484 22.5342C21.9455 22.5313 21.9426 22.5284 21.9397 22.5255C21.9368 22.5226 21.934 22.5197 21.9311 22.5169C21.9282 22.514 21.9253 22.5111 21.9224 22.5082C21.9195 22.5053 21.9166 22.5024 21.9137 22.4995C21.9108 22.4966 21.9079 22.4937 21.905 22.4908C21.9021 22.4879 21.8992 22.485 21.8963 22.4821C21.8934 22.4792 21.8905 22.4762 21.8875 22.4733C21.8846 22.4704 21.8817 22.4675 21.8788 22.4646C21.8759 22.4617 21.873 22.4587 21.87 22.4558C21.8671 22.4529 21.8642 22.45 21.8613 22.447C21.8583 22.4441 21.8554 22.4412 21.8525 22.4383C21.8495 22.4353 21.8466 22.4324 21.8437 22.4295C21.8407 22.4265 21.8378 22.4236 21.8349 22.4206C21.8319 22.4177 21.829 22.4148 21.826 22.4118C21.8231 22.4089 21.8201 22.4059 21.8172 22.403C21.8142 22.4 21.8113 22.3971 21.8083 22.3941C21.8054 22.3912 21.8024 22.3882 21.7995 22.3853C21.7965 22.3823 21.7936 22.3793 21.7906 22.3764C21.7876 22.3734 21.7847 22.3705 21.7817 22.3675C21.7787 22.3645 21.7758 22.3616 21.7728 22.3586C21.7698 22.3556 21.7669 22.3526 21.7639 22.3497C21.7609 22.3467 21.7579 22.3437 21.755 22.3407C21.752 22.3378 21.749 22.3348 21.746 22.3318C21.743 22.3288 21.7401 22.3258 21.7371 22.3229C21.7341 22.3199 21.7311 22.3169 21.7281 22.3139C21.7251 22.3109 21.7221 22.3079 21.7191 22.3049C21.7161 22.3019 21.7131 22.2989 21.7101 22.2959C21.7071 22.2929 21.7041 22.2899 21.7011 22.2869C21.6981 22.2839 21.6951 22.2809 21.6921 22.2779C21.6891 22.2749 21.6861 22.2719 21.6831 22.2689C21.6801 22.2659 21.6771 22.2629 21.6741 22.2599C21.6711 22.2569 21.6681 22.2539 21.6651 22.2508C21.662 22.2478 21.659 22.2448 21.656 22.2418C21.653 22.2388 21.65 22.2358 21.6469 22.2327C21.6439 22.2297 21.6409 22.2267 21.6379 22.2237C21.6349 22.2206 21.6318 22.2176 21.6288 22.2146C21.6258 22.2116 21.6227 22.2085 21.6197 22.2055C21.6167 22.2025 21.6136 22.1994 21.6106 22.1964C21.6076 22.1934 21.6045 22.1903 21.6015 22.1873C21.5985 22.1842 21.5954 22.1812 21.5924 22.1782C21.5893 22.1751 21.5863 22.1721 21.5832 22.169C21.5802 22.166 21.5772 22.1629 21.5741 22.1599C21.5711 22.1568 21.568 22.1538 21.565 22.1507C21.5619 22.1477 21.5589 22.1446 21.5558 22.1416C21.5528 22.1385 21.5497 22.1355 21.5466 22.1324C21.5436 22.1294 21.5405 22.1263 21.5375 22.1233C21.5344 22.1202 21.5313 22.1171 21.5283 22.1141C21.5252 22.111 21.5222 22.1079 21.5191 22.1049C21.516 22.1018 21.513 22.0987 21.5099 22.0957C21.5068 22.0926 21.5038 22.0895 21.5007 22.0865C21.4976 22.0834 21.4945 22.0803 21.4915 22.0773C21.4884 22.0742 21.4853 22.0711 21.4822 22.068C21.4792 22.065 21.4761 22.0619 21.473 22.0588C21.4699 22.0557 21.4669 22.0526 21.4638 22.0496C21.4607 22.0465 21.4576 22.0434 21.4545 22.0403C21.4514 22.0372 21.4484 22.0341 21.4453 22.0311C21.4422 22.028 21.4391 22.0249 21.436 22.0218C21.4329 22.0187 21.4298 22.0156 21.4267 22.0125C21.4237 22.0094 21.4206 22.0063 21.4175 22.0033C21.4144 22.0002 21.4113 21.9971 21.4082 21.994C21.4051 21.9909 21.402 21.9878 21.3989 21.9847C21.3958 21.9816 21.3927 21.9785 21.3896 21.9754C21.3865 21.9723 21.3834 21.9692 21.3803 21.9661C21.3772 21.963 21.3741 21.9599 21.371 21.9568C21.3679 21.9537 21.3648 21.9506 21.3617 21.9475C21.3586 21.9444 21.3555 21.9412 21.3524 21.9381C21.3492 21.935 21.3461 21.9319 21.343 21.9288C21.3399 21.9257 21.3368 21.9226 21.3337 21.9195C21.3306 21.9164 21.3275 21.9133 21.3244 21.9101C21.3212 21.907 21.3181 21.9039 21.315 21.9008C21.3119 21.8977 21.3088 21.8946 21.3057 21.8914C21.3025 21.8883 21.2994 21.8852 21.2963 21.8821C21.2932 21.879 21.2901 21.8759 21.2869 21.8727C21.2838 21.8696 21.2807 21.8665 21.2776 21.8634C21.2745 21.8602 21.2713 21.8571 21.2682 21.854C21.2651 21.8509 21.262 21.8477 21.2588 21.8446C21.2557 21.8415 21.2526 21.8384 21.2495 21.8352C21.2463 21.8321 21.2432 21.829 21.2401 21.8259C21.2369 21.8227 21.2338 21.8196 21.2307 21.8165C21.2276 21.8133 21.2244 21.8102 21.2213 21.8071C21.2182 21.8039 21.215 21.8008 21.2119 21.7977C21.2088 21.7946 21.2056 21.7914 21.2025 21.7883C21.1994 21.7851 21.1962 21.782 21.1931 21.7789C21.19 21.7757 21.1868 21.7726 21.1837 21.7695C21.1805 21.7663 21.1774 21.7632 21.1743 21.7601C21.1711 21.7569 21.168 21.7538 21.1649 21.7506C21.1617 21.7475 21.1586 21.7444 21.1554 21.7412C21.1523 21.7381 21.1492 21.7349 21.146 21.7318C21.1429 21.7287 21.1397 21.7255 21.1366 21.7224C21.1335 21.7192 21.1303 21.7161 21.1272 21.713C21.124 21.7098 21.1209 21.7067 21.1177 21.7035C21.1146 21.7004 21.1115 21.6972 21.1083 21.6941C21.1052 21.6909 21.102 21.6878 21.0989 21.6847C21.0957 21.6815 21.0926 21.6784 21.0894 21.6752C21.0863 21.6721 21.0831 21.6689 21.08 21.6658C21.0768 21.6626 21.0737 21.6595 21.0706 21.6563C21.0674 21.6532 21.0643 21.65 21.0611 21.6469C21.058 21.6437 21.0548 21.6406 21.0517 21.6374C21.0485 21.6343 21.0454 21.6312 21.0422 21.628C21.0391 21.6249 21.0359 21.6217 21.0328 21.6186C21.0296 21.6154 21.0265 21.6123 21.0233 21.6091C21.0202 21.606 21.017 21.6028 21.0139 21.5997C21.0107 21.5965 21.0076 21.5933 21.0044 21.5902C21.0013 21.587 20.9981 21.5839 20.995 21.5807C20.9918 21.5776 20.9887 21.5744 20.9855 21.5713C20.9824 21.5681 20.9792 21.565 20.976 21.5618C20.9729 21.5587 20.9697 21.5555 20.9666 21.5524C20.9634 21.5492 20.9603 21.5461 20.9571 21.5429C20.954 21.5398 20.9508 21.5366 20.9477 21.5335C20.9445 21.5303 20.9414 21.5272 20.9382 21.524C20.9351 21.5209 20.9319 21.5177 20.9288 21.5146C20.9256 21.5114 20.9225 21.5082 20.9193 21.5051C20.9162 21.5019 20.913 21.4988 20.9099 21.4956C20.9067 21.4925 20.9035 21.4893 20.9004 21.4862C20.8972 21.483 20.8941 21.4799 20.8909 21.4767C20.8878 21.4736 20.8846 21.4704 20.8815 21.4673C20.8783 21.4641 20.8752 21.461 20.872 21.4578C20.8689 21.4547 20.8657 21.4515 20.8626 21.4484C20.8594 21.4452 20.8563 21.4421 20.8531 21.4389C20.85 21.4358 20.8468 21.4326 20.8437 21.4295C20.8405 21.4263 20.8374 21.4232 20.8342 21.42C20.8311 21.4169 20.8279 21.4137 20.8248 21.4106C20.8216 21.4074 20.8185 21.4043 20.8153 21.4011C20.8122 21.398 20.809 21.3948 20.8059 21.3917C20.8027 21.3885 20.7996 21.3854 20.7964 21.3822C20.7933 21.3791 20.7901 21.3759 20.787 21.3728C20.7838 21.3696 20.7807 21.3665 20.7775 21.3633C20.7744 21.3602 20.7713 21.357 20.7681 21.3539C20.765 21.3507 20.7618 21.3476 20.7587 21.3445C20.7555 21.3413 20.7524 21.3382 20.7492 21.335C20.7461 21.3319 20.743 21.3287 20.7398 21.3256C20.7367 21.3225 20.7335 21.3193 20.7304 21.3162C20.7272 21.313 20.7241 21.3099 20.721 21.3067C20.7178 21.3036 20.7147 21.3005 20.7115 21.2973C20.7084 21.2942 20.7053 21.291 20.7021 21.2879C20.699 21.2848 20.6958 21.2816 20.6927 21.2785C20.6896 21.2753 20.6864 21.2722 20.6833 21.2691C20.6801 21.2659 20.677 21.2628 20.6739 21.2597C20.6707 21.2565 20.6676 21.2534 20.6645 21.2503C20.6613 21.2471 20.6582 21.244 20.6551 21.2409C20.6519 21.2377 20.6488 21.2346 20.6457 21.2315C20.6425 21.2283 20.6394 21.2252 20.6363 21.2221C20.6331 21.2189 20.63 21.2158 20.6269 21.2127C20.6238 21.2095 20.6206 21.2064 20.6175 21.2033C20.6144 21.2002 20.6112 21.197 20.6081 21.1939C20.605 21.1908 20.6019 21.1877 20.5987 21.1845C20.5956 21.1814 20.5925 21.1783 20.5894 21.1752C20.5863 21.172 20.5831 21.1689 20.58 21.1658C20.5769 21.1627 20.5738 21.1595 20.5706 21.1564C20.5675 21.1533 20.5644 21.1502 20.5613 21.1471C20.5582 21.144 20.5551 21.1408 20.5519 21.1377C20.5488 21.1346 20.5457 21.1315 20.5426 21.1284C20.5395 21.1253 20.5364 21.1221 20.5332 21.119C20.5301 21.1159 20.527 21.1128 20.5239 21.1097C20.5208 21.1066 20.5177 21.1035 20.5146 21.1004C20.5115 21.0973 20.5084 21.0942 20.5053 21.091C20.5022 21.0879 20.4991 21.0848 20.4959 21.0817C20.4928 21.0786 20.4897 21.0755 20.4866 21.0724C20.4835 21.0693 20.4804 21.0662 20.4773 21.0631C20.4742 21.06 20.4711 21.0569 20.468 21.0538C20.4649 21.0507 20.4618 21.0476 20.4587 21.0445C20.4556 21.0414 20.4525 21.0383 20.4495 21.0352C20.4464 21.0321 20.4433 21.0291 20.4402 21.026C20.4371 21.0229 20.434 21.0198 20.4309 21.0167C20.4278 21.0136 20.4247 21.0105 20.4216 21.0074C20.4186 21.0043 20.4155 21.0013 20.4124 20.9982C20.4093 20.9951 20.4062 20.992 20.4031 20.9889C20.4001 20.9858 20.397 20.9828 20.3939 20.9797C20.3908 20.9766 20.3877 20.9735 20.3847 20.9704C20.3816 20.9674 20.3785 20.9643 20.3754 20.9612C20.3724 20.9581 20.3693 20.9551 20.3662 20.952C20.3631 20.9489 20.3601 20.9459 20.357 20.9428C20.3539 20.9397 20.3509 20.9367 20.3478 20.9336C20.3447 20.9305 20.3417 20.9275 20.3386 20.9244C20.3355 20.9213 20.3325 20.9183 20.3294 20.9152C20.3264 20.9121 20.3233 20.9091 20.3202 20.906C20.3172 20.903 20.3141 20.8999 20.3111 20.8969C20.308 20.8938 20.305 20.8908 20.3019 20.8877C20.2989 20.8847 20.2958 20.8816 20.2928 20.8786C20.2897 20.8755 20.2867 20.8725 20.2836 20.8694C20.2806 20.8664 20.2775 20.8633 20.2745 20.8603C20.2715 20.8572 20.2684 20.8542 20.2654 20.8512C20.2623 20.8481 20.2593 20.8451 20.2563 20.842C20.2532 20.839 20.2502 20.836 20.2472 20.8329C20.2441 20.8299 20.2411 20.8269 20.2381 20.8238C20.235 20.8208 20.232 20.8178 20.229 20.8148C20.2259 20.8117 20.2229 20.8087 20.2199 20.8057C20.2169 20.8027 20.2139 20.7996 20.2108 20.7966C20.2078 20.7936 20.2048 20.7906 20.2018 20.7876C20.1988 20.7846 20.1958 20.7815 20.1927 20.7785C20.1897 20.7755 20.1867 20.7725 20.1837 20.7695C20.1807 20.7665 20.1777 20.7635 20.1747 20.7605C20.1717 20.7575 20.1687 20.7545 20.1657 20.7515C20.1627 20.7485 20.1597 20.7455 20.1567 20.7425C20.1537 20.7395 20.1507 20.7365 20.1477 20.7335C20.1447 20.7305 20.1417 20.7275 20.1387 20.7245C20.1357 20.7215 20.1327 20.7185 20.1297 20.7155C20.1268 20.7125 20.1238 20.7096 20.1208 20.7066C20.1178 20.7036 20.1148 20.7006 20.1118 20.6976C20.1089 20.6947 20.1059 20.6917 20.1029 20.6887C20.0999 20.6857 20.097 20.6828 20.094 20.6798C20.091 20.6768 20.0881 20.6738 20.0851 20.6709C20.0821 20.6679 20.0792 20.6649 20.0762 20.662C20.0732 20.659 20.0703 20.6561 20.0673 20.6531C20.0644 20.6501 20.0614 20.6472 20.0584 20.6442C20.0555 20.6413 20.0525 20.6383 20.0496 20.6354C20.0466 20.6324 20.0437 20.6295 20.0407 20.6265C20.0378 20.6236 20.0348 20.6206 20.0319 20.6177C20.029 20.6147 20.026 20.6118 20.0231 20.6089C20.0201 20.6059 20.0172 20.603 20.0143 20.6001C20.0113 20.5971 20.0084 20.5942 20.0055 20.5913C20.0026 20.5883 19.9996 20.5854 19.9967 20.5825C19.9938 20.5796 19.9909 20.5766 19.9879 20.5737C19.985 20.5708 19.9821 20.5679 19.9792 20.565C19.9763 20.5621 19.9734 20.5591 19.9704 20.5562C19.9675 20.5533 19.9646 20.5504 19.9617 20.5475C19.9588 20.5446 19.9559 20.5417 19.953 20.5388C19.9501 20.5359 19.9472 20.533 19.9443 20.5301C19.9414 20.5272 19.9385 20.5243 19.9356 20.5214C19.9327 20.5185 19.9299 20.5156 19.927 20.5128C19.9241 20.5099 19.9212 20.507 19.9183 20.5041C19.9154 20.5012 19.9125 20.4983 19.9097 20.4955C19.9068 20.4926 19.9039 20.4897 19.9011 20.4868C19.8982 20.484 19.8953 20.4811 19.8924 20.4782C19.8896 20.4754 19.8867 20.4725 19.8838 20.4696C19.881 20.4668 19.8781 20.4639 19.8753 20.4611C19.8724 20.4582 19.8696 20.4553 19.8667 20.4525C19.8639 20.4496 19.861 20.4468 19.8582 20.4439C19.8553 20.4411 19.8525 20.4383 19.8496 20.4354C19.8468 20.4326 19.8439 20.4297 19.8411 20.4269C19.8383 20.4241 19.8354 20.4212 19.8326 20.4184C19.8298 20.4156 19.827 20.4127 19.8241 20.4099C19.8213 20.4071 19.8185 20.4043 19.8157 20.4014C19.8128 20.3986 19.81 20.3958 19.8072 20.393C19.8044 20.3902 19.8016 20.3874 19.7988 20.3846C19.796 20.3817 19.7932 20.3789 19.7904 20.3761C19.7875 20.3733 19.7847 20.3705 19.7819 20.3677C19.7792 20.3649 19.7764 20.3621 19.7736 20.3594C19.7708 20.3566 19.768 20.3538 19.7652 20.351C19.7624 20.3482 19.7596 20.3454 19.7568 20.3426C19.7541 20.3399 19.7513 20.3371 19.7485 20.3343C19.7457 20.3315 19.743 20.3288 19.7402 20.326C19.7374 20.3232 19.7347 20.3204 19.7319 20.3177C19.7291 20.3149 19.7264 20.3122 19.7236 20.3094C19.7209 20.3066 19.7181 20.3039 19.7154 20.3011C19.7126 20.2984 19.7099 20.2956 19.7071 20.2929L18.2929 21.7071ZM22.3067 39.7071C21.5996 39 21.5996 39 21.5996 39C21.5996 39 21.5995 39.0001 21.5995 39.0001C21.5994 39.0002 21.5993 39.0003 21.5992 39.0004C21.5989 39.0007 21.5984 39.0012 21.5979 39.0018C21.5967 39.0029 21.595 39.0046 21.5927 39.0069C21.5881 39.0115 21.5812 39.0184 21.5723 39.0274C21.5543 39.0453 21.5278 39.0718 21.4935 39.1061C21.425 39.1746 21.3256 39.274 21.2019 39.3977C20.9545 39.6451 20.6099 39.9897 20.2215 40.3781C19.4445 41.1551 18.4919 42.1077 17.789 42.8106L19.2033 44.2248C19.9061 43.5219 20.8588 42.5693 21.6357 41.7924C22.0241 41.4039 22.3687 41.0594 22.6161 40.8119C22.7398 40.6882 22.8392 40.5888 22.9077 40.5203C22.942 40.486 22.9685 40.4595 22.9865 40.4416C22.9955 40.4326 23.0023 40.4258 23.0069 40.4212C23.0092 40.4189 23.0109 40.4171 23.0121 40.416C23.0127 40.4154 23.0131 40.4149 23.0134 40.4147C23.0135 40.4145 23.0136 40.4144 23.0137 40.4143C23.0138 40.4143 23.0138 40.4143 23.0138 40.4142C23.0138 40.4142 23.0138 40.4142 22.3067 39.7071ZM39 40L43.0001 44.0001L44.4143 42.5859L40.4142 38.5858L39 40ZM42.81 19.7896L39 23.5996L40.4143 25.0138L44.2242 21.2038L42.81 19.7896Z" fill="#242333"/>
</svg>
