<svg width="60" height="41" viewBox="0 0 60 41" fill="none" xmlns="http://www.w3.org/2000/svg">
<path fill-rule="evenodd" clip-rule="evenodd" d="M30.5041 23.1856H28.4873C23.1965 23.1856 18.9075 27.4125 18.9075 32.6266V38.0925H40.084V32.6266C40.084 27.4125 35.7949 23.1856 30.5041 23.1856ZM28.4873 20.7012C21.8042 20.7012 16.3865 26.0404 16.3865 32.6266V40.5769H42.605V32.6266C42.605 26.0404 37.1872 20.7012 30.5041 20.7012H28.4873Z" fill="#242333"/>
<path fill-rule="evenodd" clip-rule="evenodd" d="M46.6386 22.9371C44.0107 22.9371 41.0391 23.6685 38.8922 25.5002L37.2422 23.6218C39.9846 21.2821 43.6149 20.4526 46.6386 20.4526C49.3431 20.4526 52.5166 21.1148 55.1155 22.9146C57.7633 24.7483 59.7218 27.7038 59.9975 32.0522L60 32.0909V40.5769H57.479V32.1693C57.242 28.5895 55.6749 26.3386 53.666 24.9474C51.601 23.5173 48.9762 22.9371 46.6386 22.9371Z" fill="#242333"/>
<path fill-rule="evenodd" clip-rule="evenodd" d="M29.748 18.7136C34.0642 18.7136 37.5631 15.2654 37.5631 11.0118C37.5631 6.75815 34.0642 3.30991 29.748 3.30991C25.4318 3.30991 21.9329 6.75815 21.9329 11.0118C21.9329 15.2654 25.4318 18.7136 29.748 18.7136ZM29.748 21.1981C35.4565 21.1981 40.0841 16.6375 40.0841 11.0118C40.0841 5.38602 35.4565 0.825439 29.748 0.825439C24.0395 0.825439 19.4119 5.38602 19.4119 11.0118C19.4119 16.6375 24.0395 21.1981 29.748 21.1981Z" fill="#242333"/>
<path fill-rule="evenodd" clip-rule="evenodd" d="M13.3404 3.06138C9.03858 3.06138 5.54628 6.5069 5.54628 10.7632C5.54628 15.0196 9.03858 18.4651 13.3404 18.4651C16.2223 18.4651 18.7417 16.92 20.0919 14.6143L22.2754 15.8562C20.4944 18.8974 17.1615 20.9496 13.3404 20.9496C7.64076 20.9496 3.02527 16.3863 3.02527 10.7632C3.02527 5.1402 7.64076 0.576904 13.3404 0.576904C17.371 0.576904 20.858 2.85981 22.5544 6.17967L20.3028 7.29712C19.017 4.78082 16.38 3.06138 13.3404 3.06138Z" fill="#242333"/>
<path fill-rule="evenodd" clip-rule="evenodd" d="M45.6513 3.06138C49.9531 3.06138 53.4454 6.5069 53.4454 10.7632C53.4454 15.0196 49.9531 18.4651 45.6513 18.4651C42.7694 18.4651 40.25 16.92 38.8998 14.6143L36.7163 15.8562C38.4973 18.8974 41.8302 20.9496 45.6513 20.9496C51.3509 20.9496 55.9664 16.3863 55.9664 10.7632C55.9664 5.1402 51.3509 0.576904 45.6513 0.576904C41.6207 0.576904 38.1337 2.85981 36.4373 6.17967L38.6889 7.29712C39.9747 4.78082 42.6117 3.06138 45.6513 3.06138Z" fill="#242333"/>
<path fill-rule="evenodd" clip-rule="evenodd" d="M2.52101 32.1693C2.75801 28.5895 4.32503 26.3386 6.33397 24.9474C8.399 23.5173 11.0238 22.9371 13.3613 22.9371C15.9893 22.9371 18.9608 23.6685 21.1078 25.5002L22.7578 23.6218C20.0154 21.2821 16.3851 20.4526 13.3613 20.4526C10.6569 20.4526 7.48335 21.1148 4.88451 22.9146C2.23666 24.7483 0.27823 27.7038 0.00245483 32.0522L0 32.0909V40.5769H2.52101V32.1693Z" fill="#242333"/>
<path fill-rule="evenodd" clip-rule="evenodd" d="M18.4034 40.577H1.2605V38.0925H18.4034V40.577Z" fill="#242333"/>
<path fill-rule="evenodd" clip-rule="evenodd" d="M59.7478 40.577H42.605V38.0925H59.7478V40.577Z" fill="#242333"/>
</svg>
