<svg width="60" height="61" viewBox="0 0 60 61" fill="none" xmlns="http://www.w3.org/2000/svg">
<path fill-rule="evenodd" clip-rule="evenodd" d="M30 58.0769C45.1878 58.0769 57.5 45.7647 57.5 30.5769C57.5 15.3891 45.1878 3.0769 30 3.0769C14.8122 3.0769 2.5 15.3891 2.5 30.5769C2.5 45.7647 14.8122 58.0769 30 58.0769ZM30 60.5769C46.5685 60.5769 60 47.1454 60 30.5769C60 14.0084 46.5685 0.576904 30 0.576904C13.4315 0.576904 0 14.0084 0 30.5769C0 47.1454 13.4315 60.5769 30 60.5769Z" fill="#242333"/>
<path fill-rule="evenodd" clip-rule="evenodd" d="M22.5 25.0769C24.1569 25.0769 25.5 23.7338 25.5 22.0769C25.5 20.4201 24.1569 19.0769 22.5 19.0769C20.8431 19.0769 19.5 20.4201 19.5 22.0769C19.5 23.7338 20.8431 25.0769 22.5 25.0769ZM22.5 27.5769C25.5376 27.5769 28 25.1145 28 22.0769C28 19.0393 25.5376 16.5769 22.5 16.5769C19.4624 16.5769 17 19.0393 17 22.0769C17 25.1145 19.4624 27.5769 22.5 27.5769Z" fill="#242333"/>
<path fill-rule="evenodd" clip-rule="evenodd" d="M37.5 42.0769C39.1569 42.0769 40.5 40.7338 40.5 39.0769C40.5 37.4201 39.1569 36.0769 37.5 36.0769C35.8431 36.0769 34.5 37.4201 34.5 39.0769C34.5 40.7338 35.8431 42.0769 37.5 42.0769ZM37.5 44.5769C40.5376 44.5769 43 42.1145 43 39.0769C43 36.0393 40.5376 33.5769 37.5 33.5769C34.4624 33.5769 32 36.0393 32 39.0769C32 42.1145 34.4624 44.5769 37.5 44.5769Z" fill="#242333"/>
<path fill-rule="evenodd" clip-rule="evenodd" d="M18.9497 45.8992L38.9497 14.8992L41.0504 16.2545L21.0504 47.2545L18.9497 45.8992Z" fill="#242333"/>
</svg>
