<svg width="62" height="70" viewBox="0 0 62 70" fill="none" xmlns="http://www.w3.org/2000/svg">
<path d="M32.8951 2L33.0797 1.01719L31.8951 0.794665V2H32.8951ZM60.9167 7.26373H61.9167V6.43409L61.1013 6.28092L60.9167 7.26373ZM60.9167 62.8619L61.1124 63.8425L61.9167 63.682V62.8619H60.9167ZM32.8951 68.4546H31.8951V69.6739L33.0908 69.4352L32.8951 68.4546ZM38.9863 8.04102L39.1892 7.0618L37.9863 6.81265V8.04102H38.9863ZM56.043 11.574H57.043V10.76L56.2458 10.5948L56.043 11.574ZM56.043 30.2027L56.228 31.1855L57.043 31.032V30.2027H56.043ZM38.9863 33.4146H37.9863V34.6205L39.1714 34.3973L38.9863 33.4146ZM1 35V34H0V35H1ZM28 35H29V34H28V35ZM1 61H0V62H1V61ZM23.1484 6.83301V5.83301H22.1484V6.83301H23.1484ZM10 35V34H9V35H10ZM19 35H20V34H19V35ZM19 44V45H20V44H19ZM10 44H9V45H10V44ZM15.8386 27.3733L16.5243 28.1012L17.3283 27.3437L16.4948 26.6188L15.8386 27.3733ZM32.7104 2.98281L60.732 8.24654L61.1013 6.28092L33.0797 1.01719L32.7104 2.98281ZM59.9167 7.26373V62.8619H61.9167V7.26373H59.9167ZM60.7209 61.8812L32.6993 67.4739L33.0908 69.4352L61.1124 63.8425L60.7209 61.8812ZM33.8951 68.4546V2H31.8951V68.4546H33.8951ZM38.7835 9.02023L55.8401 12.5533L56.2458 10.5948L39.1892 7.0618L38.7835 9.02023ZM55.043 11.574V30.2027H57.043V11.574H55.043ZM55.8579 29.22L38.8013 32.4319L39.1714 34.3973L56.228 31.1855L55.8579 29.22ZM39.9863 33.4146V8.04102H37.9863V33.4146H39.9863ZM1 36H28V34H1V36ZM27 35V61H29V35H27ZM28 60H1V62H28V60ZM2 61V35H0V61H2ZM24.1484 34.6231V6.83301H22.1484V34.6231H24.1484ZM23.1484 7.83301H32.8951V5.83301H23.1484V7.83301ZM28 62H32.8733V60H28V62ZM47.5146 9.24951V30.9983H49.5146V9.24951H47.5146ZM38.9863 21.3325H56.043V19.3325H38.9863V21.3325ZM10 36H19V34H10V36ZM18 35V44H20V35H18ZM19 43H10V45H19V43ZM11 44V35H9V44H11ZM14.6196 50.3306H20.7113V48.3306H14.6196V50.3306ZM14.6196 56.3716H24.3663V54.3716H14.6196V56.3716ZM44 42C44 43.1046 43.1046 44 42 44V46C44.2091 46 46 44.2091 46 42H44ZM42 44C40.8954 44 40 43.1046 40 42H38C38 44.2091 39.7909 46 42 46V44ZM40 42C40 40.8954 40.8954 40 42 40V38C39.7909 38 38 39.7909 38 42H40ZM42 40C43.1046 40 44 40.8954 44 42H46C46 39.7909 44.2091 38 42 38V40ZM3.65527 28.3733H15.8386V26.3733H3.65527V28.3733ZM11.0144 24.5031L15.1824 28.1279L16.4948 26.6188L12.3268 22.994L11.0144 24.5031ZM15.1528 26.6455L11.3055 30.2703L12.677 31.726L16.5243 28.1012L15.1528 26.6455Z" fill="#242333"/>
</svg>
