<svg width="63" height="45" viewBox="0 0 63 45" fill="none" xmlns="http://www.w3.org/2000/svg">
<path d="M2 22.6304L1.06433 21.781L0.29323 22.6304L1.06433 23.4798L2 22.6304ZM60.6364 22.6304L61.6179 23.4264L62.2634 22.6304L61.6179 21.8344L60.6364 22.6304ZM1.06433 23.4798C11.5489 35.0291 22.1049 40.7691 32.4718 40.6358C42.8498 40.5022 52.646 34.4891 61.6179 23.4264L59.6549 21.8344C50.9347 32.5867 41.7752 37.9884 32.4393 38.1085C23.0922 38.2288 13.176 33.0613 2.93567 21.781L1.06433 23.4798ZM2.93567 23.4798C13.176 12.1995 23.0922 7.03198 32.4393 7.15225C41.7752 7.27237 50.9347 12.674 59.6549 23.4264L61.6179 21.8344C52.646 10.7717 42.8498 4.75856 32.4718 4.62503C22.1049 4.49163 11.5489 10.2316 1.06433 21.781L2.93567 23.4798Z" fill="#BABABA"/>
<path d="M40.1643 22.6296C40.1643 27.5398 36.1995 31.5124 31.3183 31.5124C26.4371 31.5124 22.4723 27.5398 22.4723 22.6296C22.4723 17.7195 26.4371 13.7469 31.3183 13.7469C36.1995 13.7469 40.1643 17.7195 40.1643 22.6296Z" stroke="#BABABA" stroke-width="2.52743"/>
<line y1="-1.26068" x2="60.7011" y2="-1.26068" transform="matrix(-0.705823 0.708389 -0.705823 -0.708389 52.0901 0)" stroke="#BABABA" stroke-width="2.52136"/>
</svg>
