<svg width="58" height="61" viewBox="0 0 58 61" fill="none" xmlns="http://www.w3.org/2000/svg">
<path fill-rule="evenodd" clip-rule="evenodd" d="M19.1841 1.68107C21.6071 2.86298 23.8424 4.79579 24.8838 5.81183C25.9754 6.87676 27.4103 8.79555 28.5279 10.3704C29.0976 11.1733 29.6035 11.9136 29.9668 12.4529C30.1485 12.7227 30.2949 12.9428 30.3962 13.0957C30.4468 13.1722 30.4861 13.232 30.513 13.2729L30.5438 13.3198L30.5546 13.3364C30.5547 13.3365 30.5549 13.3368 29.5003 13.9916C29.4112 15.208 29.411 15.208 29.4108 15.2079L29.4087 15.2078L29.4037 15.2074L29.3862 15.2062L29.3218 15.2013C29.266 15.197 29.1851 15.1905 29.0813 15.1816C28.8738 15.1638 28.5747 15.1364 28.2025 15.0973C27.4589 15.0193 26.4206 14.8945 25.2376 14.7073C22.8962 14.3368 19.8929 13.7073 17.4925 12.6666C15.2575 11.6975 12.884 10.5076 11.4916 8.93481C10.7673 8.11655 10.2454 7.12578 10.2117 5.96191C10.1781 4.80171 10.6349 3.65379 11.5003 2.5281C12.5015 1.22571 13.8465 0.673547 15.2631 0.653181C16.6109 0.633802 17.976 1.09176 19.1841 1.68107ZM29.5003 13.9916L29.4108 15.2079L31.8881 15.3807L30.5546 13.3364L29.5003 13.9916ZM26.9904 12.4963C26.8259 12.2597 26.6524 12.0124 26.4724 11.7588C25.3398 10.1627 24.0246 8.42283 23.1161 7.53648C22.1574 6.60124 20.1429 4.87566 18.0661 3.86261C17.0243 3.35443 16.077 3.08077 15.2999 3.09194C14.5915 3.10213 13.9991 3.34269 13.5003 3.99152C12.8657 4.81705 12.6975 5.43739 12.7107 5.89298C12.7238 6.34491 12.9206 6.81748 13.3837 7.3406C14.3663 8.45056 16.2427 9.45563 18.5078 10.4377C20.6076 11.3482 23.3543 11.9384 25.6379 12.2998C26.1171 12.3756 26.5717 12.4407 26.9904 12.4963Z" fill="#242333"/>
<path fill-rule="evenodd" clip-rule="evenodd" d="M39.3164 1.60538C36.8934 2.7873 34.6581 4.72011 33.6167 5.73615C32.5251 6.80108 31.0902 8.71986 29.9726 10.2947C29.4028 11.0976 28.897 11.8379 28.5337 12.3772C28.352 12.647 28.2056 12.8671 28.1043 13.0201C28.0537 13.0966 28.0143 13.1563 27.9875 13.1972L27.9567 13.2441L27.9459 13.2607C27.9458 13.2608 27.9456 13.2611 29.0002 13.9159C29.0893 15.1323 29.0895 15.1323 29.0897 15.1323L29.0918 15.1321L29.0968 15.1318L29.1143 15.1305L29.1787 15.1256C29.2345 15.1213 29.3154 15.1148 29.4192 15.1059C29.6267 15.0881 29.9258 15.0607 30.298 15.0216C31.0416 14.9436 32.0799 14.8188 33.2628 14.6316C35.6043 14.2611 38.6076 13.6316 41.008 12.5909C43.243 11.6218 45.6165 10.4319 47.0088 8.85912C47.7332 8.04086 48.2551 7.0501 48.2888 5.88623C48.3224 4.72602 47.8656 3.5781 47.0002 2.45242C45.999 1.15003 44.654 0.597864 43.2374 0.577497C41.8896 0.558118 40.5245 1.01608 39.3164 1.60538ZM29.0002 13.9159L29.0897 15.1323L26.6124 15.305L27.9459 13.2607L29.0002 13.9159ZM31.51 12.4206C31.6745 12.1841 31.8481 11.9367 32.0281 11.6831C33.1607 10.0871 34.4759 8.34715 35.3844 7.4608C36.343 6.52556 38.3576 4.79997 40.4344 3.78693C41.4762 3.27875 42.4235 3.00508 43.2006 3.01626C43.909 3.02644 44.5014 3.267 45.0002 3.91583C45.6348 4.74137 45.803 5.3617 45.7898 5.8173C45.7767 6.26922 45.5799 6.74179 45.1168 7.26492C44.1342 8.37488 42.2578 9.37995 39.9927 10.3621C37.8929 11.2725 35.1462 11.8627 32.8626 12.2241C32.3834 12.2999 31.9288 12.365 31.51 12.4206Z" fill="#242333"/>
<path fill-rule="evenodd" clip-rule="evenodd" d="M55.5 15.9427H2.5V22.772H55.5V15.9427ZM0 13.5037V25.211H58V13.5037H0Z" fill="#242333"/>
<path fill-rule="evenodd" clip-rule="evenodd" d="M4.25 58.1378V23.2598H1.75V60.5768H56.25V23.2598H53.75V58.1378H4.25Z" fill="#242333"/>
<path fill-rule="evenodd" clip-rule="evenodd" d="M28 59.3573L28 14.4792H30.5L30.5 59.3573H28Z" fill="#242333"/>
</svg>
