<svg width="61" height="61" viewBox="0 0 61 61" fill="none" xmlns="http://www.w3.org/2000/svg">
<path fill-rule="evenodd" clip-rule="evenodd" d="M44.3334 3.0769H16.3334C8.87753 3.0769 2.83337 9.12106 2.83337 16.5769V44.5769C2.83337 52.0327 8.87753 58.0769 16.3334 58.0769H44.3334C51.7892 58.0769 57.8334 52.0327 57.8334 44.5769V16.5769C57.8334 9.12106 51.7892 3.0769 44.3334 3.0769ZM16.3334 0.576904C7.49682 0.576904 0.333374 7.74035 0.333374 16.5769V44.5769C0.333374 53.4135 7.49682 60.5769 16.3334 60.5769H44.3334C53.1699 60.5769 60.3334 53.4135 60.3334 44.5769V16.5769C60.3334 7.74035 53.1699 0.576904 44.3334 0.576904H16.3334Z" fill="#242333"/>
<path fill-rule="evenodd" clip-rule="evenodd" d="M30.3334 44.0769C37.7892 44.0769 43.8334 38.0327 43.8334 30.5769C43.8334 23.1211 37.7892 17.0769 30.3334 17.0769C22.8775 17.0769 16.8334 23.1211 16.8334 30.5769C16.8334 38.0327 22.8775 44.0769 30.3334 44.0769ZM30.3334 46.5769C39.1699 46.5769 46.3334 39.4135 46.3334 30.5769C46.3334 21.7403 39.1699 14.5769 30.3334 14.5769C21.4968 14.5769 14.3334 21.7403 14.3334 30.5769C14.3334 39.4135 21.4968 46.5769 30.3334 46.5769Z" fill="#242333"/>
<path fill-rule="evenodd" clip-rule="evenodd" d="M48.3334 15.0769C49.7141 15.0769 50.8334 13.9576 50.8334 12.5769C50.8334 11.1962 49.7141 10.0769 48.3334 10.0769C46.9527 10.0769 45.8334 11.1962 45.8334 12.5769C45.8334 13.9576 46.9527 15.0769 48.3334 15.0769ZM48.3334 17.5769C51.0948 17.5769 53.3334 15.3383 53.3334 12.5769C53.3334 9.81548 51.0948 7.5769 48.3334 7.5769C45.572 7.5769 43.3334 9.81548 43.3334 12.5769C43.3334 15.3383 45.572 17.5769 48.3334 17.5769Z" fill="#242333"/>
</svg>
