<svg width="60" height="60" viewBox="0 0 60 60" fill="none" xmlns="http://www.w3.org/2000/svg">
<path d="M47.6413 29.6755C47.6413 39.6598 39.5659 47.749 29.6102 47.749V50.249C40.9518 50.249 50.1413 41.0353 50.1413 29.6755H47.6413ZM29.6102 47.749C19.6545 47.749 11.5791 39.6598 11.5791 29.6755H9.0791C9.0791 41.0353 18.2686 50.249 29.6102 50.249V47.749ZM11.5791 29.6755C11.5791 19.6912 19.6545 11.6021 29.6102 11.6021V9.10205C18.2686 9.10205 9.0791 18.3157 9.0791 29.6755H11.5791ZM29.6102 11.6021C39.5659 11.6021 47.6413 19.6912 47.6413 29.6755H50.1413C50.1413 18.3157 40.9518 9.10205 29.6102 9.10205V11.6021ZM35.2463 29.6755C35.2463 34.9073 34.4886 39.5897 33.3019 42.9197C32.7067 44.5901 32.0269 45.8534 31.3346 46.6751C30.6373 47.5028 30.0492 47.749 29.6102 47.749V50.249C31.0727 50.249 32.2962 49.4138 33.2465 48.2859C34.2019 47.1519 35.006 45.5853 35.6569 43.7589C36.9625 40.0951 37.7463 35.1158 37.7463 29.6755H35.2463ZM29.6102 47.749C29.1712 47.749 28.5831 47.5028 27.8858 46.6751C27.1935 45.8534 26.5137 44.5901 25.9185 42.9197C24.7318 39.5897 23.9741 34.9073 23.9741 29.6755H21.4741C21.4741 35.1158 22.2579 40.0951 23.5635 43.7589C24.2144 45.5853 25.0185 47.1519 25.9739 48.2859C26.9242 49.4138 28.1476 50.249 29.6102 50.249V47.749ZM23.9741 29.6755C23.9741 24.4437 24.7318 19.7613 25.9185 16.4314C26.5137 14.7609 27.1935 13.4977 27.8858 12.676C28.5831 11.8483 29.1712 11.6021 29.6102 11.6021V9.10205C28.1476 9.10205 26.9242 9.93724 25.9739 11.0652C25.0185 12.1991 24.2144 13.7658 23.5635 15.5922C22.2579 19.2559 21.4741 24.2353 21.4741 29.6755H23.9741ZM29.6102 11.6021C30.0492 11.6021 30.6373 11.8483 31.3346 12.676C32.0269 13.4977 32.7067 14.7609 33.3019 16.4314C34.4886 19.7613 35.2463 24.4437 35.2463 29.6755H37.7463C37.7463 24.2353 36.9625 19.2559 35.6569 15.5922C35.006 13.7658 34.2019 12.1991 33.2465 11.0652C32.2962 9.93724 31.0727 9.10205 29.6102 9.10205V11.6021ZM11.7063 25.0595L47.5141 25.0595V22.5595L11.7063 22.5595L11.7063 25.0595ZM11.7063 36.1015H47.5141V33.6015H11.7063V36.1015Z" fill="#242333"/>
<mask id="path-2-inside-1_785_11764" fill="white">
<path d="M0 29.6753C0 46.0646 13.257 59.3507 29.6102 59.3507C35.6973 59.3507 40.7867 58.4075 45.4917 55.2511L60 60L55.4331 44.2074C57.8448 39.9123 59.2205 34.9548 59.2205 29.6753C59.2205 13.2861 45.9635 0 29.6102 0C13.257 0 0 13.2861 0 29.6753Z"/>
</mask>
<path d="M45.4917 55.2511L46.2694 52.8751L45.1111 52.496L44.099 53.175L45.4917 55.2511ZM55.4331 44.2074L53.2533 42.9834L52.7407 43.8962L53.0315 44.9019L55.4331 44.2074ZM60 60L59.2223 62.3759L63.7147 63.8464L62.4016 59.3055L60 60ZM29.6102 56.8507C14.6428 56.8507 2.5 44.689 2.5 29.6753H-2.5C-2.5 47.4401 11.8711 61.8507 29.6102 61.8507V56.8507ZM2.5 29.6753C2.5 14.6616 14.6428 2.5 29.6102 2.5V-2.5C11.8711 -2.5 -2.5 11.9106 -2.5 29.6753H2.5ZM29.6102 2.5C44.5777 2.5 56.7205 14.6616 56.7205 29.6753H61.7205C61.7205 11.9106 47.3494 -2.5 29.6102 -2.5V2.5ZM44.099 53.175C39.961 55.951 35.4286 56.8507 29.6102 56.8507V61.8507C35.966 61.8507 41.6123 60.864 46.8845 57.3272L44.099 53.175ZM56.7205 29.6753C56.7205 34.5154 55.4604 39.0526 53.2533 42.9834L57.613 45.4314C60.2292 40.772 61.7205 35.3943 61.7205 29.6753H56.7205ZM60.7777 57.624L46.2694 52.8751L44.714 57.627L59.2223 62.3759L60.7777 57.624ZM53.0315 44.9019L57.5984 60.6945L62.4016 59.3055L57.8347 43.5129L53.0315 44.9019Z" fill="#242333" mask="url(#path-2-inside-1_785_11764)"/>
</svg>
