<svg width="60" height="60" viewBox="0 0 60 60" fill="none" xmlns="http://www.w3.org/2000/svg">
<path d="M59.2495 50.6429L56.5581 53.3343C52.133 57.7593 46.3019 59.9719 40.4721 59.9719C34.6423 59.9719 28.8111 57.7593 24.386 53.3343L7.05299 36.0013C2.62793 31.5763 0.415283 25.7451 0.415283 19.9153C0.415283 14.0854 2.62793 8.25432 7.05299 3.82926L9.74428 1.13779C10.3925 0.489552 11.4436 0.489552 12.0918 1.13779L25.9037 14.9496C26.5519 15.5978 26.5519 16.6488 25.9037 17.2971L19.9158 23.2851C19.0507 24.1503 18.6181 25.2927 18.6181 26.4363C18.6181 27.5798 19.0507 28.7223 19.9157 29.5873L30.9063 40.5779C31.7714 41.443 32.9139 41.8756 34.0575 41.8756C35.2011 41.8756 36.3436 41.443 37.2087 40.5779L43.1965 34.59C43.8448 33.9418 44.8958 33.9418 45.544 34.59L59.2495 48.2954C59.8977 48.9436 59.8977 49.9947 59.2495 50.6429ZM54.2106 50.9867L55.7282 49.4691L44.3703 38.1113L39.5562 42.9254C38.0427 44.439 36.0494 45.1958 34.0575 45.1958C32.0656 45.1958 30.0724 44.439 28.5588 42.9254L17.5683 31.935C16.0547 30.4213 15.2979 28.4281 15.2979 26.4363C15.2979 24.4444 16.0547 22.4513 17.5681 20.9377L22.3824 16.1233L10.9181 4.65914L9.40052 6.17679C5.62387 9.95343 3.73552 14.9337 3.73552 19.9153C3.73552 24.8968 5.62387 29.8771 9.40052 33.6538L26.7335 50.9867C30.5102 54.7633 35.4906 56.6517 40.4721 56.6517C45.4536 56.6517 50.434 54.7633 54.2106 50.9867Z" fill="#242333"/>
</svg>
