<svg width="64" height="62" viewBox="0 0 64 62" fill="none" xmlns="http://www.w3.org/2000/svg">
<path d="M14.1348 19.3333V18.0833H12.8848V19.3333H14.1348ZM62 19.3333H63.25V18.0833H62V19.3333ZM62 60V61.25H63.25V60H62ZM14.1348 60H12.8848V61.25H14.1348V60ZM28.2921 4L29.2639 3.21382L28.8887 2.75H28.2921V4ZM31.325 7.74898L32.2968 6.9628V6.9628L31.325 7.74898ZM54.5843 45.3333H55.8343V44.7353L55.3687 44.3601L54.5843 45.3333ZM54.5843 52.6666V53.9166H55.8343V52.6666H54.5843ZM20.8764 52.6666H19.6264V53.9166H20.8764V52.6666ZM20.8764 45.3333L20.1814 44.2943L19.6264 44.6656V45.3333H20.8764ZM32.3371 37.6666L33.1681 36.7329L32.4458 36.09L31.6421 36.6277L32.3371 37.6666ZM39.0787 43.6666L38.2476 44.6004L38.9661 45.2398L39.7682 44.7092L39.0787 43.6666ZM14.1348 20.5833H62V18.0833H14.1348V20.5833ZM60.75 19.3333V60H63.25V19.3333H60.75ZM62 58.75H14.1348V61.25H62V58.75ZM15.3848 60V19.3333H12.8848V60H15.3848ZM3.25 41.3333V7.33333H0.75V41.3333H3.25ZM5.37079 5.25H28.2921V2.75H5.37079V5.25ZM27.3203 4.78618L30.3532 8.53516L32.2968 6.9628L29.2639 3.21382L27.3203 4.78618ZM33.9572 10.25H50.5393V7.75H33.9572V10.25ZM53.3343 13V19.3333H55.8343V13H53.3343ZM14.1348 43.4166H5.37079V45.9166H14.1348V43.4166ZM30.3532 8.53516C31.2321 9.62156 32.5588 10.25 33.9572 10.25V7.75C33.3075 7.75 32.6973 7.45783 32.2968 6.9628L30.3532 8.53516ZM0.75 41.3333C0.75 43.8778 2.832 45.9166 5.37079 45.9166V43.4166C4.1863 43.4166 3.25 42.4708 3.25 41.3333H0.75ZM50.5393 10.25C52.0961 10.25 53.3343 11.4943 53.3343 13H55.8343C55.8343 10.0874 53.4504 7.75 50.5393 7.75V10.25ZM3.25 7.33333C3.25 6.19587 4.1863 5.25 5.37079 5.25V2.75C2.832 2.75 0.75 4.7889 0.75 7.33333H3.25ZM29.7388 30.6667C29.7388 32.9087 27.897 34.75 25.5955 34.75V37.25C29.2513 37.25 32.2388 34.3157 32.2388 30.6667H29.7388ZM25.5955 34.75C23.294 34.75 21.4522 32.9087 21.4522 30.6667H18.9522C18.9522 34.3157 21.9397 37.25 25.5955 37.25V34.75ZM21.4522 30.6667C21.4522 28.4246 23.294 26.5833 25.5955 26.5833V24.0833C21.9397 24.0833 18.9522 27.0176 18.9522 30.6667H21.4522ZM25.5955 26.5833C27.897 26.5833 29.7388 28.4246 29.7388 30.6667H32.2388C32.2388 27.0176 29.2513 24.0833 25.5955 24.0833V26.5833ZM38.9803 9.33333V6.33333H36.4803V9.33333H38.9803ZM42.1124 3.25C43.8553 3.25 45.2444 4.64359 45.2444 6.33333H47.7444C47.7444 3.23661 45.2096 0.75 42.1124 0.75V3.25ZM42.1124 0.75C39.0151 0.75 36.4803 3.23661 36.4803 6.33333H38.9803C38.9803 4.64359 40.3694 3.25 42.1124 3.25V0.75ZM34.4579 15V22.6667H36.9579V15H34.4579ZM41.1011 29.25C44.7569 29.25 47.7444 26.3157 47.7444 22.6667H45.2444C45.2444 24.9087 43.4026 26.75 41.1011 26.75V29.25ZM41.1011 26.75C38.7997 26.75 36.9579 24.9087 36.9579 22.6667H34.4579C34.4579 26.3157 37.4454 29.25 41.1011 29.25V26.75ZM53.3343 45.3333V52.6666H55.8343V45.3333H53.3343ZM54.5843 51.4166H20.8764V53.9166H54.5843V51.4166ZM22.1264 52.6666V45.3333H19.6264V52.6666H22.1264ZM21.5714 46.3723L33.0321 38.7056L31.6421 36.6277L20.1814 44.2943L21.5714 46.3723ZM31.506 38.6004L38.2476 44.6004L39.9097 42.7329L33.1681 36.7329L31.506 38.6004ZM39.7682 44.7092C42.5139 42.8932 44.4713 42.1958 46.4017 42.3854C48.3799 42.5797 50.6011 43.7283 53.7998 46.3065L55.3687 44.3601C52.0944 41.721 49.3892 40.1668 46.6461 39.8974C43.8551 39.6233 41.2963 40.7012 38.3891 42.6241L39.7682 44.7092ZM45.2444 6.33333V22.6667H47.7444V6.33333H45.2444Z" fill="#242333"/>
</svg>
