<svg width="60" height="60" viewBox="0 0 60 60" fill="none" xmlns="http://www.w3.org/2000/svg">
<g clip-path="url(#clip0_785_11749)">
<path fill-rule="evenodd" clip-rule="evenodd" d="M25.4823 51.5414C11.4088 51.5414 0 40.1326 0 26.0592C0 11.9857 11.4088 0.576904 25.4823 0.576904C39.5557 0.576904 50.9645 11.9857 50.9645 26.0592C50.9645 40.1326 39.5557 51.5414 25.4823 51.5414ZM9.78833 41.7531C13.8045 45.7693 19.3533 48.2534 25.4823 48.2534C31.6113 48.2534 37.16 45.7693 41.1762 41.7531C45.1924 37.7369 47.6765 32.1882 47.6765 26.0592C47.6765 19.9302 45.1924 14.3814 41.1762 10.3652C37.16 6.34902 31.6113 3.8649 25.4823 3.8649C19.3533 3.8649 13.8045 6.34902 9.78833 10.3652C5.77212 14.3814 3.288 19.9301 3.288 26.0592C3.288 32.1882 5.77212 37.7369 9.78833 41.7531Z" fill="#242333"/>
<path d="M43.6211 42.0818L59.3967 57.8543L57.072 60.1791L41.2964 44.4065L43.6211 42.0818Z" fill="#242333"/>
</g>
<defs>
<clipPath id="clip0_785_11749">
<rect width="60" height="60" fill="white"/>
</clipPath>
</defs>
</svg>
