<svg width="60" height="57" viewBox="0 0 60 57" fill="none" xmlns="http://www.w3.org/2000/svg">
<path d="M31.3619 1.14683L37.7229 20.7183L58.4445 20.6787C59.2545 20.6787 59.9112 21.3309 59.9112 22.1354C59.9112 22.6205 59.6724 23.0502 59.3051 23.315L59.3073 23.3179L42.5217 35.3813L48.9624 54.9405C49.2133 55.7072 48.791 56.5308 48.0191 56.78C47.5156 56.9425 46.9879 56.8205 46.612 56.5034L29.9608 44.4394L13.2196 56.5686C12.5652 57.0418 11.6484 56.8986 11.172 56.2487C10.8847 55.8568 10.8231 55.3701 10.963 54.9418L10.9592 54.9405L17.3998 35.3813L0.614269 23.3179C-0.0432789 22.8447 -0.190044 21.9316 0.286408 21.2786C0.596269 20.8538 1.09354 20.6437 1.58423 20.6789L22.1987 20.7183L28.5631 1.13626C28.8109 0.369609 29.6375 -0.0523983 30.4094 0.193686C30.8817 0.344218 31.224 0.710003 31.3619 1.14683ZM35.2568 22.6226L29.9608 6.32787L24.6648 22.6226C24.4753 23.2092 23.9207 23.6337 23.2671 23.6337L6.02418 23.6008L19.9929 33.6398C20.4951 34.0016 20.73 34.656 20.5279 35.2736L15.1669 51.5541L29.074 41.4782C29.5759 41.0992 30.2877 41.0733 30.8235 41.4608L44.7547 51.5541L39.4111 35.3264C39.1892 34.7279 39.383 34.0325 39.9286 33.6398L53.8974 23.6008L36.7229 23.6336C36.0764 23.664 35.464 23.2639 35.2568 22.6226Z" fill="#242333"/>
</svg>
