<svg width="54" height="61" viewBox="0 0 54 61" fill="none" xmlns="http://www.w3.org/2000/svg">
<path fill-rule="evenodd" clip-rule="evenodd" d="M30.0834 0.326904H40.5834V1.5769C40.5834 7.22722 46.0695 11.0788 52.3334 11.0788H53.5834V23.8269H52.3334C48.7321 23.8269 45.8256 23.0362 43.8111 22.2393C43.356 22.0592 42.946 21.8787 42.5834 21.7067V39.5769C42.5834 51.313 33.0694 60.8269 21.3334 60.8269C9.59732 60.8269 0.083374 51.313 0.083374 39.5769C0.083374 27.8274 9.77761 18.3269 21.5001 18.3269H22.7501V30.8269H21.5001C16.6406 30.8269 12.5834 34.7711 12.5834 39.5769C12.5834 44.4094 16.5009 48.3269 21.3334 48.3269C26.1659 48.3269 30.0834 44.4094 30.0834 39.5769V0.326904ZM40.0834 17.1366L42.0606 18.5602L42.0614 18.5608C42.0616 18.5609 42.062 18.5612 42.0624 18.5615C42.0627 18.5617 42.062 18.5612 42.0624 18.5615C42.0626 18.5616 42.0631 18.562 42.0633 18.5622L42.0866 18.5782C42.1099 18.5941 42.1488 18.6203 42.2029 18.6551C42.3111 18.7249 42.4799 18.8295 42.7065 18.9576C43.1597 19.2138 43.8422 19.5631 44.7307 19.9146C46.2725 20.5245 48.4288 21.1391 51.0834 21.2912V13.5323C44.8965 13.0729 38.8503 9.2301 38.1507 2.8269H32.5834V39.5769C32.5834 45.7901 27.5466 50.8269 21.3334 50.8269C15.1202 50.8269 10.0834 45.7901 10.0834 39.5769C10.0834 33.7622 14.6253 29.0154 20.2501 28.3955V20.8678C10.4531 21.5109 2.58337 29.6537 2.58337 39.5769C2.58337 49.9322 10.978 58.3269 21.3334 58.3269C31.6887 58.3269 40.0834 49.9322 40.0834 39.5769V17.1366Z" fill="#242333"/>
</svg>
