<svg width="60" height="45" viewBox="0 0 60 45" fill="none" xmlns="http://www.w3.org/2000/svg">
<path fill-rule="evenodd" clip-rule="evenodd" d="M0 0.576904H38.5366V39.8537H18.2927V37.3679H36.0976V3.06278H2.43902V37.3679H6.58537V39.8537H0V0.576904Z" fill="#242333"/>
<path fill-rule="evenodd" clip-rule="evenodd" d="M37.3171 11.5147L37.3172 10.2717C37.3172 9.02881 37.3173 9.02881 37.3174 9.02881L37.3459 9.02884L37.4259 9.02906C37.4956 9.02931 37.5975 9.0298 37.7273 9.03079C37.987 9.03275 38.3587 9.03668 38.809 9.04453C39.7088 9.0602 40.9267 9.09159 42.1936 9.15458C43.4561 9.21734 44.7882 9.31246 45.9091 9.45831C46.4683 9.53107 46.9973 9.61925 47.4491 9.72853C47.863 9.82862 48.3501 9.97694 48.7253 10.2319C49.1426 10.5154 49.4394 10.9473 49.6465 11.3069C49.8705 11.6959 50.0741 12.1529 50.2579 12.6275C50.6264 13.5791 50.9607 14.7203 51.24 15.7955C51.5209 16.8772 51.754 17.9231 51.9166 18.6963C51.998 19.0837 52.0621 19.4043 52.106 19.6288C52.1279 19.7411 52.1448 19.8294 52.1563 19.8902L52.1695 19.9602L52.173 19.9789L52.1742 19.9854C52.1742 19.9856 52.1743 19.9862 50.9757 20.2153C49.7771 20.4443 49.7771 20.4444 49.7771 20.4444L49.7734 20.4246L49.7615 20.3611C49.7508 20.3049 49.7349 20.2214 49.7139 20.1142C49.672 19.8998 49.6104 19.5912 49.5317 19.2172C49.3742 18.4679 49.15 17.4629 48.8822 16.4316C48.6126 15.3938 48.3066 14.3598 47.9892 13.5403C47.8301 13.1293 47.6792 12.8017 47.5431 12.5653C47.4422 12.3901 47.3778 12.3155 47.3604 12.2951C47.3206 12.2773 47.1823 12.2189 46.886 12.1472C46.5509 12.0662 46.1157 11.9912 45.6002 11.9242C44.5717 11.7904 43.3124 11.699 42.0748 11.6375C40.8418 11.5762 39.6512 11.5454 38.7674 11.53C38.3259 11.5223 37.9621 11.5185 37.7092 11.5166C37.5828 11.5156 37.4841 11.5152 37.4173 11.5149L37.3417 11.5147L37.3171 11.5147Z" fill="#242333"/>
<path fill-rule="evenodd" clip-rule="evenodd" d="M50.5969 21.4583H36.3416V18.9724H51.3545L60.0001 25.0305V39.8538H53.4147V37.3679H57.5611V26.3381L50.5969 21.4583ZM36.3416 37.3679H42.1952V39.8538H36.3416V37.3679Z" fill="#242333"/>
<path fill-rule="evenodd" clip-rule="evenodd" d="M12.4391 42.0911C14.5944 42.0911 16.3416 40.3103 16.3416 38.1137C16.3416 35.917 14.5944 34.1363 12.4391 34.1363C10.2839 34.1363 8.53668 35.917 8.53668 38.1137C8.53668 40.3103 10.2839 42.0911 12.4391 42.0911ZM12.4391 44.5769C15.9414 44.5769 18.7806 41.6832 18.7806 38.1137C18.7806 34.5441 15.9414 31.6504 12.4391 31.6504C8.93683 31.6504 6.09766 34.5441 6.09766 38.1137C6.09766 41.6832 8.93683 44.5769 12.4391 44.5769Z" fill="#242333"/>
<path fill-rule="evenodd" clip-rule="evenodd" d="M47.5609 42.0911C49.7162 42.0911 51.4634 40.3103 51.4634 38.1137C51.4634 35.917 49.7162 34.1363 47.5609 34.1363C45.4057 34.1363 43.6585 35.917 43.6585 38.1137C43.6585 40.3103 45.4057 42.0911 47.5609 42.0911ZM47.5609 44.5769C51.0632 44.5769 53.9024 41.6832 53.9024 38.1137C53.9024 34.5441 51.0632 31.6504 47.5609 31.6504C44.0587 31.6504 41.2195 34.5441 41.2195 38.1137C41.2195 41.6832 44.0587 44.5769 47.5609 44.5769Z" fill="#242333"/>
</svg>
