<svg width="289" height="119" fill="none" xmlns="http://www.w3.org/2000/svg"><path fill-rule="evenodd" clip-rule="evenodd" d="M90.988 33.065c-2.916 2.525-6.192 1.207-6.192 1.207s-.812-3.451 2.107-5.976c2.915-2.525 8.453-3.168 8.453-3.168s-1.453 5.412-4.368 7.937zM53.415 71.129h-.601v-7.553h.6c.746 4.193 2.92 6.285 6.524 6.285 1.244 0 2.283-.337 3.11-1.008.827-.672 1.248-1.538 1.248-2.596 0-1.194-.612-2.252-1.824-3.186-2.877-1.69-5.234-3.135-7.093-4.353-1.848-1.218-2.767-2.83-2.767-4.833 0-1.655.612-3.033 1.849-4.134 1.23-1.108 2.75-1.662 4.566-1.662 1.18 0 2.406.285 3.703.856.612.277 1.036.412 1.28.412.569 0 .936-.43 1.12-1.268h.594v7.621h-.594c-.318-2.251-1.053-3.864-2.198-4.847-1.156-.984-2.442-1.47-3.863-1.47-1.064 0-1.983.326-2.742.983-.76.647-1.145 1.446-1.145 2.387 0 .614.258 1.26.777 1.942.52.689 2.082 1.74 4.69 3.143 1.597.866 2.81 1.573 3.636 2.127a7.138 7.138 0 012.057 2.159c.551.88.827 1.84.827 2.873 0 1.754-.661 3.21-1.99 4.378-1.322 1.168-2.961 1.747-4.901 1.747-1.053 0-2.358-.259-3.913-.774-.954-.32-1.615-.48-1.971-.48-.527 0-.856.413-.98 1.25zm7.693-29.84c.834.515 1.665.86 2.485 1.037.82.178 1.586.206 2.3.082a5.054 5.054 0 001.926-.753 4.606 4.606 0 001.4-1.453c.689-1.132.96-2.25.812-3.355-.148-1.105-.505-2.213-1.067-3.32a34.685 34.685 0 00-1.979-3.392 21.312 21.312 0 01-1.887-3.547 10.56 10.56 0 01-.81-3.747c-.038-1.285.379-2.642 1.248-4.07a6.69 6.69 0 012.025-2.098 7.547 7.547 0 012.785-1.136c1.021-.2 2.096-.192 3.223.018 1.127.213 2.244.657 3.35 1.338.926.568 1.69 1.25 2.29 2.042.605.792 1.057 1.584 1.36 2.383.308.795.464 1.545.467 2.251.004.703-.123 1.272-.385 1.701-.417.682-.986 1.108-1.714 1.282-.728.178-1.428.053-2.106-.362-.675-.416-1.103-.99-1.28-1.719-.173-.731-.052-1.434.361-2.116.413-.678.986-1.108 1.714-1.282.728-.174 1.428-.053 2.106.362.092.057.173.12.251.203l.23.234c.078.078.166.163.261.256a8.37 8.37 0 00-.76-1.73 9.286 9.286 0 00-1.134-1.608c-.48-.561-1.102-1.076-1.87-1.549-.766-.472-1.533-.777-2.296-.923a6.308 6.308 0 00-2.15-.06 4.746 4.746 0 00-1.83.674 3.855 3.855 0 00-1.282 1.268c-.69 1.133-.962 2.251-.813 3.356.148 1.104.505 2.212 1.067 3.32a35.16 35.16 0 001.979 3.395 21.282 21.282 0 011.887 3.544 10.44 10.44 0 01.799 3.764c.032 1.296-.382 2.65-1.237 4.055a7.322 7.322 0 01-2.166 2.29c-.877.6-1.838.995-2.888 1.19-1.05.196-2.162.178-3.343-.05-1.18-.227-2.357-.703-3.53-1.423a11 11 0 01-1.57-1.165c-.459.415-.982.806-1.569 1.165-1.173.72-2.35 1.196-3.526 1.424-1.18.227-2.297.245-3.344.05a7.56 7.56 0 01-2.89-1.19 7.402 7.402 0 01-2.167-2.29c-.855-1.407-1.268-2.756-1.237-4.056.032-1.296.297-2.553.799-3.764a21.29 21.29 0 011.887-3.544 34.712 34.712 0 001.98-3.395c.565-1.111.918-2.216 1.066-3.32.149-1.105-.123-2.223-.812-3.356-.304-.497-.732-.92-1.283-1.268a4.864 4.864 0 00-1.83-.674c-.669-.103-1.386-.082-2.15.06-.766.146-1.53.451-2.297.923-.766.473-1.392.988-1.869 1.549a9.291 9.291 0 00-1.134 1.608 8.654 8.654 0 00-.76 1.73 6.31 6.31 0 00.261-.256c.078-.078.152-.156.23-.235a1.41 1.41 0 01.25-.202c.68-.415 1.38-.536 2.107-.362.728.174 1.3.604 1.714 1.282.417.682.534 1.385.36 2.116-.173.732-.6 1.303-1.275 1.719-.675.415-1.378.54-2.106.362-.728-.174-1.297-.604-1.714-1.282-.262-.43-.393-.998-.39-1.7.004-.704.163-1.457.467-2.252.304-.796.76-1.591 1.36-2.383a8.32 8.32 0 012.294-2.042c1.103-.678 2.223-1.125 3.35-1.338 1.128-.21 2.202-.217 3.224-.018a7.54 7.54 0 012.788 1.136 6.605 6.605 0 012.021 2.099c.873 1.427 1.287 2.784 1.248 4.07a10.546 10.546 0 01-.81 3.746 21.455 21.455 0 01-1.886 3.547 35.12 35.12 0 00-1.98 3.391c-.565 1.112-.918 2.22-1.07 3.32-.149 1.105.123 2.224.813 3.357.36.589.823 1.072 1.399 1.452.572.38 1.216.632 1.926.753.71.124 1.477.096 2.3-.082.824-.178 1.651-.526 2.485-1.037a9.64 9.64 0 001.48-1.104c-1.816-1.808-3.378-3.85-3.378-6.548 0-4.34 3.488-9.507 3.499-9.52l.173-.264.177.263c.007.014 3.498 5.181 3.498 9.52 0 2.7-1.558 4.745-3.378 6.549.428.398.919.767 1.47 1.104zm-2.696-2.49c.41.363.756.583.919.68.162-.097.508-.32.918-.68 3.913-3.98 2.17-9.303-.919-14.179-2.64 4.166-5.01 10.156-.918 14.18zm3.827-25.748c0-3.26-2.205-4.925-2.905-5.373-.7.448-2.908 2.113-2.908 5.373 0 3.171 2.05 6.868 2.908 8.274.855-1.406 2.905-5.103 2.905-8.274zm-2.697-6.289l-.212-.114-.212.114c-.01.004-3.587 1.875-3.587 6.285 0 4.28 3.421 9.343 3.432 9.357l.367.55.368-.55c.01-.014 3.428-5.078 3.428-9.357.004-4.41-3.573-6.278-3.584-6.285zm-2.71 26.914c0 3.09 2.502 4.396 2.502 4.396s2.499-1.307 2.499-4.396c0-3.09-2.499-6.794-2.499-6.794s-2.502 3.704-2.502 6.794zm3.81 9.683c0-1.619-1.312-2.304-1.312-2.304s-1.31.685-1.31 2.304c0 1.616 1.31 3.559 1.31 3.559s1.312-1.94 1.312-3.559zm-3.09 34.936c-.833-.515-1.66-.86-2.483-1.037-.82-.178-1.587-.206-2.301-.082a5.055 5.055 0 00-1.926.753 4.607 4.607 0 00-1.4 1.452c-.692 1.133-.96 2.252-.812 3.356.148 1.105.505 2.213 1.067 3.324a35.428 35.428 0 001.979 3.391 21.288 21.288 0 011.887 3.544c.502 1.215.77 2.461.81 3.747.038 1.285-.379 2.642-1.248 4.069a6.675 6.675 0 01-2.025 2.095 7.554 7.554 0 01-2.785 1.137c-1.021.198-2.096.191-3.223-.022-1.127-.209-2.244-.657-3.35-1.335-.926-.568-1.69-1.25-2.29-2.042-.605-.792-1.057-1.587-1.364-2.382-.304-.796-.46-1.545-.467-2.252-.003-.703.124-1.271.385-1.7.414-.68.986-1.109 1.714-1.283.728-.174 1.428-.053 2.107.362.675.416 1.102.991 1.275 1.723.174.731.057 1.438-.36 2.116-.413.678-.986 1.108-1.714 1.282-.728.174-1.431.053-2.106-.362a1.344 1.344 0 01-.251-.199l-.23-.234c-.078-.078-.163-.164-.261-.256.176.575.427 1.154.76 1.73.275.51.653 1.05 1.134 1.608.48.561 1.102 1.076 1.87 1.548.766.472 1.533.781 2.296.923a6.296 6.296 0 002.149.061 4.767 4.767 0 001.83-.675 3.85 3.85 0 001.283-1.268c.693-1.132.962-2.251.813-3.355-.148-1.105-.505-2.213-1.067-3.324a34.683 34.683 0 00-1.979-3.391 21.187 21.187 0 01-1.887-3.548 10.427 10.427 0 01-.799-3.764c-.032-1.296.382-2.65 1.237-4.052a7.352 7.352 0 012.163-2.29 7.536 7.536 0 012.89-1.19c1.05-.195 2.163-.177 3.344.05 1.18.227 2.357.703 3.53 1.424.587.362 1.11.75 1.57 1.168a10.78 10.78 0 011.568-1.168c1.174-.721 2.35-1.197 3.527-1.424 1.18-.227 2.294-.245 3.343-.05a7.547 7.547 0 012.891 1.19 7.35 7.35 0 012.163 2.29c.855 1.406 1.269 2.756 1.24 4.052a10.427 10.427 0 01-.798 3.764 21.463 21.463 0 01-1.887 3.548 35.12 35.12 0 00-1.98 3.39c-.565 1.112-.918 2.22-1.067 3.325-.148 1.104.124 2.223.813 3.355.304.498.732.92 1.283 1.268a4.795 4.795 0 001.83.675c.669.103 1.386.082 2.15-.061.766-.145 1.53-.451 2.296-.923.767-.472 1.39-.987 1.87-1.548a9.286 9.286 0 001.134-1.609 8.453 8.453 0 00.76-1.73 6.374 6.374 0 00-.261.257l-.23.234a1.21 1.21 0 01-.251.199c-.675.415-1.378.536-2.106.362-.728-.174-1.297-.604-1.714-1.282-.414-.678-.534-1.385-.36-2.116.172-.732.6-1.304 1.275-1.723.675-.415 1.378-.536 2.106-.362.728.178 1.297.604 1.714 1.282.262.43.393.998.385 1.701-.003.703-.158 1.456-.466 2.252-.304.795-.76 1.59-1.36 2.382a8.35 8.35 0 01-2.29 2.042c-1.107.682-2.224 1.126-3.35 1.335-1.128.21-2.203.217-3.224.022a7.546 7.546 0 01-2.788-1.137 6.626 6.626 0 01-2.022-2.095c-.869-1.427-1.286-2.784-1.247-4.07.039-1.285.307-2.535.81-3.746a21.289 21.289 0 011.886-3.544 35.112 35.112 0 001.98-3.391c.561-1.112.918-2.22 1.067-3.324.148-1.104-.124-2.223-.813-3.356a4.596 4.596 0 00-1.396-1.452 4.944 4.944 0 00-1.926-.753c-.71-.124-1.477-.096-2.3.082-.824.178-1.651.526-2.485 1.037a9.653 9.653 0 00-1.48 1.104c1.816 1.804 3.378 3.85 3.378 6.548 0 4.34-3.488 9.507-3.499 9.52l-.173.26-.173-.26c-.01-.013-3.499-5.18-3.499-9.52 0-2.698 1.559-4.744 3.379-6.548a8.874 8.874 0 00-1.467-1.104zm2.7 2.49a6.384 6.384 0 00-.918-.68c-.163.097-.509.32-.919.68-3.912 3.98-2.17 9.303.919 14.178 2.64-4.165 5.008-10.155.919-14.179zm-3.826 25.748c0 3.26 2.205 4.925 2.908 5.373.7-.448 2.905-2.113 2.905-5.373 0-3.171-2.05-6.868-2.905-8.274-.859 1.406-2.908 5.103-2.908 8.274zm2.696 6.285l.212.114.212-.114c.01-.007 3.587-1.875 3.587-6.285 0-4.279-3.42-9.343-3.428-9.357l-.367-.55-.371.55c-.011.014-3.428 5.078-3.428 9.357-.008 4.414 3.572 6.282 3.583 6.285zm2.71-26.91c0-3.09-2.502-4.396-2.502-4.396s-2.502 1.307-2.502 4.396c0 3.09 2.502 6.79 2.502 6.79s2.503-3.7 2.503-6.79zm-3.813-9.683c0 1.619 1.312 2.304 1.312 2.304s1.31-.685 1.31-2.304c0-1.62-1.31-3.559-1.31-3.559s-1.312 1.94-1.312 3.559zm-17.1-18.217a9.899 9.899 0 01-1.1 1.491c-1.795-1.829-3.83-3.395-6.516-3.395-4.319 0-9.46 3.505-9.475 3.516l-.261.177.261.174c.014.011 5.156 3.516 9.475 3.516 2.686 0 4.718-1.57 6.516-3.395.396.44.764.938 1.1 1.488.512.838.855 1.669 1.031 2.496.177.824.205 1.595.082 2.312a5.051 5.051 0 01-.75 1.935 4.603 4.603 0 01-1.445 1.407c-1.127.696-2.24.965-3.34.816-1.099-.149-2.201-.507-3.307-1.072a34.455 34.455 0 01-3.375-1.989 21.137 21.137 0 00-3.53-1.896 10.409 10.409 0 00-3.73-.813c-1.279-.04-2.628.38-4.05 1.253a6.628 6.628 0 00-2.084 2.032 7.619 7.619 0 00-1.131 2.801c-.198 1.027-.19 2.103.018 3.239.208 1.133.653 2.255 1.332 3.366a8.334 8.334 0 002.032 2.305c.788.607 1.576 1.062 2.371 1.367.792.31 1.538.465 2.24.469.7.004 1.266-.124 1.694-.39.678-.416 1.102-.991 1.275-1.723.177-.732.053-1.435-.36-2.116-.414-.682-.986-1.108-1.714-1.282-.728-.178-1.428-.057-2.106.362-.679.415-1.103.99-1.276 1.722-.173.732-.053 1.435.36 2.117.057.092.12.174.202.252a14.033 14.033 0 01.488.493 8.487 8.487 0 01-1.722-.763 9.253 9.253 0 01-1.6-1.14c-.559-.483-1.071-1.108-1.541-1.879-.47-.77-.774-1.54-.92-2.311a6.395 6.395 0 01-.06-2.16 4.798 4.798 0 01.672-1.839 3.866 3.866 0 011.262-1.289c1.127-.696 2.24-.966 3.34-.817 1.099.15 2.201.508 3.304 1.076a34.913 34.913 0 013.378 1.989 21.122 21.122 0 003.527 1.896c1.209.505 2.456.77 3.746.803 1.29.032 2.637-.384 4.036-1.243a7.317 7.317 0 002.28-2.177 7.523 7.523 0 001.183-2.905c.195-1.054.177-2.173-.05-3.359-.225-1.186-.699-2.365-1.416-3.544a10.534 10.534 0 00-1.16-1.577c.414-.461.803-.987 1.16-1.576.717-1.18 1.19-2.362 1.417-3.544.226-1.186.244-2.305.05-3.36a7.597 7.597 0 00-1.184-2.9 7.398 7.398 0 00-2.28-2.178c-1.4-.859-2.742-1.274-4.036-1.242a10.29 10.29 0 00-3.746.802 21.107 21.107 0 00-3.527 1.896 35.198 35.198 0 01-3.378 1.989c-1.106.568-2.205.923-3.305 1.072-1.099.15-2.212-.124-3.34-.816-.494-.306-.914-.735-1.26-1.29a4.916 4.916 0 01-.672-1.839c-.103-.671-.082-1.392.06-2.159.145-.767.449-1.538.919-2.308.47-.77.982-1.4 1.54-1.879a9.247 9.247 0 011.601-1.14 8.382 8.382 0 011.722-.763c-.092.1-.177.188-.255.263l-.233.23a1.37 1.37 0 00-.202.253c-.413.681-.533 1.385-.36 2.116.173.732.6 1.307 1.276 1.722.678.416 1.378.537 2.106.363.728-.178 1.297-.604 1.714-1.286.413-.678.537-1.385.36-2.116-.173-.732-.6-1.303-1.275-1.723-.428-.262-.994-.394-1.693-.387-.7.004-1.45.16-2.24.47-.792.305-1.584.763-2.372 1.366-.788.604-1.467 1.375-2.032 2.301-.679 1.112-1.12 2.234-1.332 3.367-.209 1.133-.216 2.212-.018 3.238a7.577 7.577 0 001.13 2.799 6.678 6.678 0 002.086 2.034c1.42.874 2.77 1.293 4.05 1.254 1.28-.04 2.523-.309 3.728-.813a21.28 21.28 0 003.53-1.897 34.883 34.883 0 013.376-1.988c1.106-.568 2.208-.923 3.307-1.073 1.1-.149 2.213.125 3.34.817a4.565 4.565 0 011.445 1.406c.379.576.63 1.222.75 1.936.123.714.095 1.484-.082 2.312-.176.802-.52 1.633-1.032 2.475zm-2.481 2.709c-4 4.112-9.966 1.73-14.112-.923 4.852-3.107 10.15-4.858 14.111-.923.358.411.58.76.675.923a6.133 6.133 0 01-.675.923zm-25.622-3.846c3.16 0 6.835 2.06 8.234 2.923-1.4.863-5.075 2.922-8.234 2.922-3.244 0-4.902-2.216-5.347-2.922.442-.707 2.1-2.923 5.347-2.923zm-6.259 2.71c.004-.011 1.866-3.605 6.256-3.605 4.258 0 9.297 3.438 9.312 3.448l.547.37-.547.369c-.015.01-5.054 3.445-9.312 3.445-4.393 0-6.252-3.594-6.256-3.605l-.113-.213.113-.21zm26.785 2.723c-3.075 0-6.761-2.514-6.761-2.514s3.686-2.51 6.76-2.51c3.075 0 4.372 2.51 4.372 2.51s-1.297 2.514-4.371 2.514zm9.637-3.828c1.608 0 3.54 1.318 3.54 1.318s-1.929 1.317-3.54 1.317c-1.612 0-2.294-1.317-2.294-1.317s.682-1.318 2.294-1.318zm34.764 3.104a9.892 9.892 0 011.099-1.491c1.795 1.828 3.83 3.394 6.516 3.394 4.319 0 9.46-3.505 9.475-3.515l.258-.174-.258-.174c-.014-.01-5.156-3.516-9.475-3.516-2.686 0-4.718 1.57-6.516 3.395a10.06 10.06 0 01-1.1-1.488c-.512-.838-.855-1.672-1.031-2.496-.177-.824-.205-1.595-.082-2.309.124-.713.375-1.36.75-1.935a4.553 4.553 0 011.445-1.403c1.127-.696 2.24-.965 3.34-.816 1.099.149 2.201.508 3.307 1.072a35.169 35.169 0 013.375 1.989 21.016 21.016 0 003.53 1.896 10.41 10.41 0 003.73.813c1.279.04 2.629-.38 4.049-1.253a6.668 6.668 0 002.085-2.032 7.61 7.61 0 001.131-2.801c.198-1.026.191-2.106-.021-3.239-.209-1.133-.654-2.255-1.329-3.366-.565-.93-1.244-1.698-2.032-2.301-.788-.604-1.58-1.062-2.371-1.367-.792-.306-1.537-.462-2.24-.47-.7-.003-1.266.125-1.694.388-.675.415-1.102.99-1.275 1.722-.174.732-.053 1.435.36 2.116.414.679.986 1.108 1.714 1.282.728.174 1.431.054 2.106-.362.675-.415 1.103-.99 1.276-1.722.173-.732.053-1.435-.36-2.117a1.346 1.346 0 00-.198-.252l-.234-.23c-.077-.078-.162-.164-.254-.263.573.177 1.149.43 1.721.763a9.113 9.113 0 011.601 1.14c.558.483 1.071 1.108 1.541 1.879.47.77.777 1.54.919 2.308.145.77.162 1.488.06 2.159a4.817 4.817 0 01-.672 1.84c-.343.553-.763.983-1.261 1.288-1.128.693-2.24.966-3.34.817-1.099-.149-2.202-.508-3.308-1.072a34.426 34.426 0 01-3.375-1.989 21.013 21.013 0 00-3.53-1.896 10.29 10.29 0 00-3.746-.803c-1.29-.032-2.637.384-4.032 1.247a7.344 7.344 0 00-2.28 2.173 7.597 7.597 0 00-1.184 2.901c-.194 1.055-.177 2.173.05 3.36.226 1.186.7 2.368 1.417 3.547.36.59.745 1.115 1.162 1.577A10.81 10.81 0 0077.4 61.37c-.718 1.18-1.191 2.362-1.417 3.544-.227 1.186-.244 2.305-.05 3.36a7.635 7.635 0 001.184 2.904 7.345 7.345 0 002.28 2.174c1.399.86 2.742 1.275 4.032 1.243 1.29-.032 2.54-.299 3.746-.803a21.157 21.157 0 003.53-1.896 34.861 34.861 0 013.375-1.989c1.106-.564 2.209-.923 3.308-1.072 1.1-.15 2.212.124 3.34.817.494.305.915.735 1.261 1.288.343.555.569 1.169.672 1.84.102.671.081 1.392-.06 2.16-.145.77-.449 1.537-.919 2.307-.47.77-.983 1.396-1.541 1.879a9.253 9.253 0 01-1.6 1.14 8.572 8.572 0 01-1.722.763c.092-.1.177-.188.254-.263l.234-.23a1.22 1.22 0 00.198-.253c.413-.678.533-1.385.36-2.116-.177-.731-.6-1.303-1.276-1.722-.675-.416-1.378-.536-2.106-.362-.728.174-1.297.603-1.714 1.281-.413.679-.534 1.385-.36 2.117.173.731.6 1.303 1.275 1.722.428.263.993.394 1.693.387.7-.003 1.45-.16 2.24-.469.792-.308 1.584-.763 2.372-1.37a8.363 8.363 0 002.032-2.301c.679-1.112 1.12-2.234 1.329-3.367.208-1.132.215-2.212.021-3.238a7.593 7.593 0 00-1.131-2.799 6.68 6.68 0 00-2.085-2.034c-1.42-.874-2.77-1.293-4.05-1.254a10.41 10.41 0 00-3.728.813 21.29 21.29 0 00-3.53 1.897 34.862 34.862 0 01-3.376 1.988c-1.106.568-2.208.923-3.307 1.073-1.1.149-2.213-.125-3.34-.817a4.603 4.603 0 01-1.445-1.406 4.994 4.994 0 01-.75-1.936c-.123-.713-.095-1.484.082-2.308.176-.813.523-1.644 1.032-2.482zm2.48-2.713c4-4.112 9.966-1.73 14.112.923-4.852 3.107-10.15 4.854-14.112.924a6.433 6.433 0 01-.675-.924c.096-.16.319-.511.675-.923zm25.625 3.846c-3.155 0-6.834-2.06-8.234-2.92 1.4-.859 5.075-2.918 8.234-2.918 3.245 0 4.902 2.216 5.347 2.919-.445.703-2.102 2.919-5.347 2.919zm6.256-2.71c-.008.01-1.866 3.605-6.256 3.605-4.258 0-9.297-3.438-9.312-3.445l-.547-.373.547-.37c.014-.01 5.054-3.447 9.312-3.447 4.393 0 6.252 3.593 6.256 3.604l.113.213-.113.213zM85.323 57.28c3.075 0 6.757 2.514 6.757 2.514s-3.686 2.514-6.757 2.514c-3.075 0-4.375-2.514-4.375-2.514s1.3-2.514 4.375-2.514zm-9.637 3.828c-1.612 0-3.541-1.318-3.541-1.318s1.93-1.317 3.54-1.317c1.612 0 2.294 1.317 2.294 1.317s-.685 1.318-2.293 1.318zm-48.01 25.49c2.916-2.526 6.192-1.212 6.192-1.212s.813 3.452-2.106 5.977c-2.916 2.525-8.457 3.167-8.457 3.167s1.456-5.408 4.372-7.933zm0-53.533c2.916 2.525 6.192 1.21 6.192 1.21s.813-3.45-2.106-5.976c-2.916-2.524-8.457-3.167-8.457-3.167s1.456 5.408 4.372 7.933zm63.308 53.532c-2.915-2.525-6.191-1.21-6.191-1.21s-.813 3.45 2.106 5.976c2.916 2.525 8.457 3.167 8.457 3.167s-1.453-5.408-4.372-7.933z" fill="#242333"/><path fill-rule="evenodd" clip-rule="evenodd" d="M59.33.95c16.172 0 30.81 6.586 41.408 17.233 10.595 10.65 17.151 25.358 17.151 41.607 0 16.25-6.556 30.959-17.151 41.608-10.598 10.646-25.236 17.234-41.407 17.234-16.172 0-30.81-6.588-41.408-17.234C7.328 90.752.773 76.04.773 59.79c0-16.25 6.555-30.958 17.15-41.607C28.52 7.536 43.163.949 59.33.949zm39.864 18.784C88.991 9.482 74.898 3.14 59.331 3.14c-15.568 0-29.661 6.342-39.864 16.594C9.265 29.986 2.957 44.148 2.957 59.79c0 15.643 6.311 29.805 16.51 40.057 10.203 10.251 24.297 16.59 39.864 16.59 15.567 0 29.66-6.342 39.863-16.59 10.203-10.252 16.514-24.414 16.514-40.057 0-15.642-6.311-29.804-16.514-40.056zm169.321 39.552v-1.999a6.98 6.98 0 001.149-.401c.936-.423 1.767-1.058 2.491-1.903a8.422 8.422 0 001.615-2.923c.354-1.094.531-2.315.531-3.661s-.177-2.568-.531-3.665a8.39 8.39 0 00-1.615-2.919c-.724-.845-1.555-1.48-2.491-1.907a6.97 6.97 0 00-1.149-.4v-2c2.792.22 5.167 1.271 7.118 3.146 1.106 1.062 1.933 2.237 2.484 3.523.548 1.282.824 2.677.824 4.186 0 1.535-.276 2.948-.824 4.24-.551 1.293-1.378 2.472-2.484 3.537-1.954 1.875-4.326 2.926-7.118 3.146zm20.303-.088V37.625a.144.144 0 00-.01-.06.2.2 0 00-.039-.054c-.018-.014-.036-.028-.053-.035a.25.25 0 00-.096-.014h-4.908c.254.369.448.795.579 1.274.141.508.209 1.07.209 1.684l.003 18.803c.007.014.025.035.046.06l.057.046 4.011.004c.039 0 .07-.004.095-.014a.14.14 0 00.053-.036l.046-.06.007-.025zm-20.303-21.69v2a7.974 7.974 0 00-1.961-.235h-2.58a1.28 1.28 0 00-.488.1 1.235 1.235 0 00-.409.297 1.229 1.229 0 00-.258.426c-.057.153-.085.32-.085.49v15.66c0 .175.028.338.088.49.064.168.152.31.272.427.241.242.534.362.88.362h2.58c.689 0 1.343-.078 1.961-.234v2c-.374.028-.756.045-1.145.045l-8.813-.003-.057-.047-.046-.06-.003-18.803a6.41 6.41 0 00-.209-1.683 4.232 4.232 0 00-.58-1.275h9.712c.385-.003.767.014 1.141.043zm-62.59 15.518v-1.808h2.467c1.007 0 1.332-.49.975-1.47l-2.601-7.283a.865.865 0 00-.269-.437.767.767 0 00-.526-.195h-.05v-4.368h2.76c.145 0 .255.029.333.082a.615.615 0 01.194.298l8.118 21.488h-4.231a.502.502 0 01-.286-.071.557.557 0 01-.177-.26l-1.823-5.099c-.195-.582-.64-.873-1.343-.873h-3.541v-.004zm16.952-12.606l.004 18.803.049.06.057.046 3.979.004a.249.249 0 00.096-.014.18.18 0 00.053-.036l.046-.06.003-7.51c0-.274.035-.526.11-.754.077-.248.201-.461.36-.639l.329-.362c.509-.597 1.007-.575 1.502.067l6.541 8.807c.258.33.689.497 1.287.497h4.053l-9.287-12.23c-.467-.586-.453-1.129.039-1.626l7.467-8.011h-2.601c-.262 0-.491.042-.689.127a1.33 1.33 0 00-.491.37c-2.301 2.699-4.895 5.255-7.217 7.944a1.16 1.16 0 01-.346.248.716.716 0 01-.979-.383l-.004-.004a1.116 1.116 0 01-.077-.419v-7.716a.142.142 0 00-.011-.06.165.165 0 00-.039-.054c-.018-.014-.035-.029-.053-.036a.243.243 0 00-.095-.014h-4.877c.254.37.449.796.579 1.275.142.504.212 1.065.212 1.68zm28.081 18.778V37.625a.144.144 0 00-.01-.06.164.164 0 00-.039-.054c-.018-.014-.035-.028-.053-.035a.248.248 0 00-.095-.014h-4.909c.254.369.449.795.579 1.274.142.508.209 1.07.209 1.684l.003 18.803a.486.486 0 00.046.06l.057.046 4.011.004a.24.24 0 00.095-.014.133.133 0 00.053-.036l.046-.06.007-.025zM139.892 52.51l-1.339 2.468a.232.232 0 00-.032.124.639.639 0 00.081.263l.007.007c.304.64.704 1.218 1.195 1.74a8.356 8.356 0 001.806 1.42 8.573 8.573 0 002.283.938c.827.21 1.721.316 2.678.316 2.276 0 4.075-.607 5.393-1.822a5.996 5.996 0 001.47-2.034c.326-.753.488-1.591.488-2.514 0-.977-.169-1.883-.512-2.71a6.682 6.682 0 00-.615-1.165 6.453 6.453 0 00-.817-1.001c-.328-.33-.646-.625-.954-.888a12.595 12.595 0 00-.929-.724c-.318-.224-.654-.44-1-.65-.347-.21-.721-.42-1.121-.632l-.212-.1-.282-.149a69.241 69.241 0 01-1.17-.614 26.298 26.298 0 01-.88-.49 6.29 6.29 0 01-.739-.511 6.993 6.993 0 01-.664-.625 3.004 3.004 0 01-.53-.796 2.218 2.218 0 01-.191-.895c0-.405.074-.774.223-1.104.152-.337.374-.629.671-.87a2.854 2.854 0 011.011-.522 4.34 4.34 0 011.233-.163c.506 0 .986.063 1.442.195.46.131.887.327 1.279.586.375.245.711.511 1.008.792.296.28.558.582.774.898a.274.274 0 00.091.092l.039.015 1.149-1.915a.743.743 0 00.088-.326.167.167 0 00-.053-.107 6.797 6.797 0 00-2.505-1.52c-.99-.344-2.124-.518-3.407-.518a8.77 8.77 0 00-2.64.38 6.993 6.993 0 00-2.17 1.13c-.636.49-1.113 1.054-1.431 1.69-.318.635-.481 1.352-.491 2.151.003.476.042.924.12 1.34.077.418.194.816.346 1.189.152.37.343.717.576 1.047.233.33.509.64.82.92.661.6 1.304 1.101 1.933 1.502.322.203.679.416 1.071.632.406.224.852.455 1.325.686 1.502.742 2.615 1.424 3.336 2.045.407.352.714.76.919 1.225.201.465.304.973.304 1.53 0 .523-.092.999-.276 1.428a3.115 3.115 0 01-.83 1.14c-.364.32-.799.561-1.304.718a5.487 5.487 0 01-1.64.227c-1.534 0-2.908-.547-4.128-1.634a7.594 7.594 0 01-1.47-1.768 6.743 6.743 0 01-.827-2.067zm66.033-15.05v4.369a.82.82 0 00-.477.177.852.852 0 00-.297.458l-2.697 7.283-.003.004a1.573 1.573 0 00-.106.533c0 .195.049.369.152.522a.9.9 0 00.442.34c.134.05.289.075.459.075h2.53v1.807h-3.774c-.29 0-.541.079-.753.228a1.26 1.26 0 00-.456.646l-1.823 5.103a.529.529 0 01-.177.26.5.5 0 01-.286.07h-2.431l7.099-18.721c.262-.72.396-1.342.396-1.868 0-.234-.025-.462-.07-.675a3.032 3.032 0 00-.205-.6l-.004-.007h2.481v-.003zm-27.357 0h-3.887a.25.25 0 00-.096.015.14.14 0 00-.053.032.182.182 0 00-.042.057l-.007.06v8.373c0 .352-.124.654-.375.902a1.284 1.284 0 01-.388.27 1.114 1.114 0 01-.477.107h-7.189c-.385 0-.692-.117-.915-.355-.216-.228-.325-.536-.325-.924v-8.373a.143.143 0 00-.011-.06.305.305 0 00-.039-.054.124.124 0 00-.053-.035.242.242 0 00-.095-.014h-4.877c.255.369.449.795.58 1.274.141.508.208 1.07.208 1.684v18.803l.05.06.056.046 3.976.004a.24.24 0 00.095-.014.168.168 0 00.053-.036.189.189 0 00.046-.06l.004-8.889c0-.852.413-1.278 1.24-1.278h7.188c.163 0 .322.035.474.103.145.064.276.156.392.273a1.286 1.286 0 01.375.902v8.889l.049.06a.165.165 0 00.053.035.242.242 0 00.096.015h3.887a.249.249 0 00.096-.014.224.224 0 00.099-.096l.003-21.594a.128.128 0 00-.011-.06.35.35 0 00-.038-.054.163.163 0 00-.053-.036.186.186 0 00-.089-.017zm12.104 21.737V37.625a.144.144 0 00-.01-.06.2.2 0 00-.039-.054c-.018-.014-.036-.028-.053-.035a.25.25 0 00-.096-.014h-4.908c.254.369.448.795.579 1.274.141.508.209 1.07.209 1.684l.003 18.803c.007.014.025.035.046.06l.057.046 4.011.004c.039 0 .07-.004.095-.014a.14.14 0 00.053-.036l.046-.06.007-.025z" fill="#242333"/><path d="M288.716 74.465h-29.24v.724h29.24v-.724zm-120.856 0h-29.24v.724h29.24v-.724zm8.757 4.059c-.233.42-.583.75-1.053.998-.47.249-.975.373-1.519.373-.622 0-1.114-.17-1.474-.511-.36-.341-.541-.796-.541-1.364 0-.937.403-1.672 1.205-2.216.803-.54 1.916-.817 3.336-.83v-1.968c0-.405-.116-.7-.353-.891-.237-.192-.597-.288-1.088-.288a2.15 2.15 0 00-1.025.234c-.297.157-.442.316-.442.483 0 .029.085.135.254.324.17.188.255.4.255.639 0 .259-.067.472-.205.635a.663.663 0 01-.53.245.676.676 0 01-.566-.266c-.137-.177-.205-.415-.205-.717 0-.568.269-1.037.806-1.414.537-.376 1.23-.564 2.078-.564.894 0 1.527.163 1.891.486.364.327.548.906.548 1.737v4.58c0 .32.028.533.081.63.053.099.148.148.286.148.149 0 .283-.07.403-.21a1.13 1.13 0 00.244-.528h.297c-.036.48-.191.863-.47 1.157-.28.295-.622.44-1.036.44-.353 0-.625-.113-.823-.337-.198-.223-.318-.554-.354-1.005zm-.046-3.085c-1.021 0-1.802.174-2.343.529-.54.351-.809.862-.809 1.53 0 .48.124.863.375 1.147.251.288.586.43 1.003.43.52 0 .944-.153 1.276-.462.332-.309.498-.707.498-1.2v-1.974zm13.433 1.681h.439c-.191.881-.559 1.563-1.103 2.039-.544.48-1.223.717-2.032.717-1.032 0-1.88-.387-2.544-1.157-.665-.771-.993-1.751-.993-2.94 0-1.236.356-2.266 1.067-3.09.71-.824 1.608-1.236 2.686-1.236.795 0 1.445.21 1.957.632.513.42.767.945.767 1.573 0 .313-.081.565-.247.753a.83.83 0 01-.657.284.713.713 0 01-.566-.266.994.994 0 01-.222-.657c0-.249.088-.49.268-.728.18-.238.269-.39.269-.451 0-.199-.149-.37-.449-.518-.301-.146-.665-.22-1.092-.22-.735 0-1.272.301-1.608.901-.339.6-.505 1.566-.505 2.902 0 1.338.155 2.3.466 2.88.311.582.816.87 1.513.87.632 0 1.176-.2 1.636-.6.456-.402.774-.963.95-1.687zm10.04 1.404c-.233.42-.583.75-1.053.998-.47.249-.975.373-1.52.373-.622 0-1.113-.17-1.473-.511-.361-.341-.541-.796-.541-1.364 0-.937.399-1.672 1.205-2.216.802-.54 1.916-.817 3.336-.83v-1.968c0-.405-.116-.7-.353-.891-.237-.192-.601-.288-1.089-.288-.388 0-.731.078-1.025.234-.296.157-.445.316-.445.483 0 .029.085.135.255.324a.932.932 0 01.254.639c0 .259-.067.472-.205.635a.66.66 0 01-.526.245.676.676 0 01-.566-.266c-.138-.177-.205-.415-.205-.717 0-.568.269-1.037.806-1.414.537-.376 1.23-.564 2.078-.564.894 0 1.527.163 1.891.486.364.327.547.906.547 1.737v4.58c0 .32.025.533.082.63.053.099.148.148.286.148.148 0 .283-.07.403-.21.12-.138.198-.315.24-.528h.297c-.035.48-.191.863-.47 1.157-.279.295-.622.44-1.036.44-.353 0-.629-.113-.823-.337-.198-.216-.314-.554-.35-1.005zm-.046-3.085c-1.021 0-1.802.174-2.343.529-.541.351-.809.862-.809 1.53 0 .48.124.863.374 1.147.251.288.587.43 1.004.43.52 0 .944-.153 1.276-.462.332-.309.498-.707.498-1.2v-1.974zm14.186-9.799v13.52h.993v.483c-.552 0-1.011.017-1.386.05-.374.035-.71.084-1.007.152v-1.488c-.244.49-.569.87-.972 1.136a2.376 2.376 0 01-1.339.398c-.936 0-1.728-.408-2.375-1.225-.647-.817-.968-1.825-.968-3.019 0-1.19.321-2.187.968-2.993s1.442-1.21 2.393-1.21c.53 0 .986.13 1.371.393s.678.65.887 1.165v-6.743h-1.191v-.42h.297a13.987 13.987 0 002.329-.198zm-1.417 11.542v-2.81c0-.656-.212-1.228-.64-1.722-.428-.49-.926-.738-1.502-.738-.657 0-1.124.28-1.403.841-.279.561-.417 1.513-.417 2.859 0 1.406.145 2.397.431 2.969.286.568.767.855 1.442.855.53 0 1.011-.234 1.442-.703.435-.468.647-.983.647-1.551zm8.884-2.184v.614c0 1.385.155 2.355.47 2.905.314.55.855.824 1.625.824.651 0 1.205-.199 1.661-.6.456-.398.767-.962.937-1.687h.403c-.181.938-.541 1.64-1.082 2.113-.54.472-1.254.707-2.145.707-1.011 0-1.859-.387-2.544-1.165-.686-.774-1.029-1.726-1.029-2.855 0-1.236.35-2.283 1.053-3.143.704-.855 1.559-1.285 2.577-1.285.95 0 1.7.305 2.247.916.548.61.87 1.495.958 2.65h-5.131v.006zm.053-.582h3.431v-.206c0-.849-.124-1.46-.371-1.836-.247-.376-.65-.565-1.205-.565-.572 0-1.014.217-1.322.65-.307.437-.487 1.087-.533 1.957zm9.867 5.227v-.483h.958v-7.09h-.975v-.44a15.985 15.985 0 002.403-.195l.007 2.02c.283-.686.622-1.19 1.021-1.524.4-.333.873-.497 1.414-.497.604 0 1.078.178 1.42.533.343.355.531.856.559 1.495.24-.664.565-1.168.975-1.513a2.222 2.222 0 011.47-.518c.658 0 1.152.213 1.481.642.332.427.498 1.062.498 1.9v5.188h.912v.483h-3.375v-.483h1.05v-5.923c0-.412-.078-.717-.233-.923-.156-.206-.389-.309-.7-.309-.555 0-1.046.32-1.474.962-.427.643-.639 1.389-.639 2.245v3.945h.922v.483h-3.322v-.483h1.004v-5.923c0-.437-.075-.753-.23-.941-.152-.192-.403-.288-.756-.288-.545 0-1.022.37-1.439 1.108-.413.739-.622 1.626-.622 2.663v3.384h.94v.483h-3.269zm20.016-.043l-2.696-7.535h-.859v-.44h3.502v.44h-1.155l1.944 5.352 1.798-5.352h-1.18v-.44h2.569v.44h-.915l-3.287 9.9c-.261.8-.537 1.379-.823 1.737-.286.359-.619.536-.993.536a.953.953 0 01-.703-.28.943.943 0 01-.283-.693.9.9 0 01.201-.6.649.649 0 01.516-.241c.251 0 .449.128.594.38.145.252.247.38.3.38.089 0 .195-.11.315-.327.12-.22.254-.55.403-.994l.752-2.262z" fill="#242333"/></svg>