<svg width="160" height="65" fill="none" xmlns="http://www.w3.org/2000/svg"><g clip-path="url(#clip0_785_10158)" fill="#242333"><path fill-rule="evenodd" clip-rule="evenodd" d="M50.102 17.74c-1.62 1.397-3.437.667-3.437.667s-.449-1.907 1.167-3.297c1.62-1.396 4.697-1.753 4.697-1.753s-.805 2.988-2.427 4.384zM29.24 38.763h-.333v-4.17h.333c.414 2.315 1.622 3.47 3.622 3.47.69 0 1.265-.185 1.725-.558.46-.373.69-.85.69-1.436 0-.661-.34-1.241-1.012-1.758a92.796 92.796 0 01-3.938-2.402c-1.03-.672-1.535-1.562-1.535-2.666 0-.913.34-1.677 1.029-2.28.684-.615 1.53-.92 2.535-.92.656 0 1.34.156 2.059.472.339.155.574.23.712.23.317 0 .518-.236.621-.701h.328v4.21h-.328c-.178-1.24-.586-2.137-1.218-2.677-.639-.545-1.357-.81-2.145-.81-.592 0-1.098.184-1.523.546-.426.356-.639.799-.639 1.316 0 .339.144.695.432 1.074.287.38 1.155.96 2.604 1.735.885.477 1.558.868 2.018 1.172.454.305.833.707 1.144 1.195a2.94 2.94 0 01.46 1.586c0 .97-.368 1.775-1.104 2.419-.736.643-1.644.965-2.72.965-.586 0-1.31-.144-2.172-.425-.53-.179-.897-.265-1.098-.265-.3-.011-.478.213-.547.678zm4.272-16.483a4.53 4.53 0 001.38.575c.454.098.88.115 1.276.046a2.725 2.725 0 001.07-.42c.315-.206.574-.476.775-.804.386-.626.535-1.24.455-1.855a5.689 5.689 0 00-.593-1.833 18.381 18.381 0 00-1.098-1.873c-.42-.638-.77-1.287-1.046-1.96a5.912 5.912 0 01-.448-2.067c-.023-.713.212-1.46.695-2.247a3.66 3.66 0 011.121-1.16 4.2 4.2 0 011.547-.626 4.803 4.803 0 011.788.011 5.333 5.333 0 011.857.741c.511.316.937.69 1.27 1.126.334.437.587.873.759 1.316.172.442.259.856.259 1.24 0 .391-.07.702-.213.943-.23.373-.546.615-.949.707-.402.097-.793.028-1.167-.201-.373-.23-.615-.546-.707-.948-.098-.402-.029-.793.201-1.167.23-.373.547-.614.949-.706.402-.098.793-.029 1.167.2a.641.641 0 01.138.11l.127.126c.04.046.091.092.143.144a4.598 4.598 0 00-.42-.954 5.158 5.158 0 00-.632-.89 4.273 4.273 0 00-1.04-.856 3.837 3.837 0 00-1.277-.512 3.52 3.52 0 00-1.196-.034 2.749 2.749 0 00-1.017.373c-.305.19-.546.426-.713.701-.385.627-.535 1.241-.454 1.856.08.609.282 1.224.592 1.833.31.614.678 1.24 1.098 1.873.42.637.77 1.287 1.046 1.959.276.672.426 1.361.443 2.08.017.717-.213 1.464-.69 2.24a4.074 4.074 0 01-1.201 1.264 4.09 4.09 0 01-1.604.655 4.936 4.936 0 01-1.857-.029 5.806 5.806 0 01-1.96-.787 6.13 6.13 0 01-.874-.643c-.253.23-.547.442-.874.643-.65.396-1.305.66-1.96.787a5.067 5.067 0 01-1.858.029 4.27 4.27 0 01-1.604-.655 4.076 4.076 0 01-1.201-1.264c-.477-.776-.707-1.523-.69-2.24a5.788 5.788 0 01.443-2.08c.276-.667.626-1.322 1.046-1.96.42-.637.788-1.258 1.098-1.872.31-.615.512-1.224.592-1.833.08-.609-.069-1.23-.454-1.856a2.134 2.134 0 00-.713-.7 2.677 2.677 0 00-1.017-.374 3.52 3.52 0 00-1.196.034 3.72 3.72 0 00-1.277.512c-.425.258-.77.546-1.04.856-.265.31-.477.603-.632.89a4.73 4.73 0 00-.42.954 1.95 1.95 0 00.144-.144l.126-.126a.501.501 0 01.138-.11 1.5 1.5 0 012.116.506 1.498 1.498 0 01-.506 2.114 1.5 1.5 0 01-2.116-.506c-.144-.234-.218-.55-.212-.941a3.63 3.63 0 01.258-1.241 5.07 5.07 0 01.759-1.316 4.553 4.553 0 011.27-1.126 5.662 5.662 0 011.857-.74 4.803 4.803 0 011.788-.012c.57.109 1.081.316 1.547.626.466.31.84.695 1.12 1.16.484.787.714 1.54.697 2.247a5.857 5.857 0 01-.449 2.068 11.516 11.516 0 01-1.046 1.959 19.03 19.03 0 00-1.098 1.873c-.31.615-.512 1.224-.592 1.833-.08.608.069 1.229.454 1.855.201.328.46.592.776.805.316.212.672.35 1.07.419.396.069.821.052 1.276-.046a4.39 4.39 0 001.38-.575c.304-.19.58-.39.821-.608-1.006-1-1.874-2.126-1.874-3.614 0-2.396 1.938-5.251 1.943-5.257l.098-.144.098.144c.006.006 1.943 2.861 1.943 5.257 0 1.488-.868 2.62-1.874 3.614.264.218.54.425.845.608zm-1.5-1.373c.23.202.42.322.511.374.092-.052.282-.178.512-.374 2.173-2.2 1.207-5.136-.512-7.83-1.466 2.298-2.782 5.607-.512 7.83zm2.127-14.219c0-1.804-1.225-2.723-1.616-2.97-.39.247-1.615 1.166-1.615 2.97 0 1.753 1.138 3.792 1.615 4.568.477-.776 1.616-2.815 1.616-4.568zm-1.495-3.476l-.115-.063-.115.063c-.006.006-1.995 1.035-1.995 3.47 0 2.362 1.897 5.16 1.903 5.165l.207.305.207-.305c.005-.005 1.903-2.803 1.903-5.164-.006-2.43-1.99-3.465-1.995-3.47zm-1.506 14.863c0 1.706 1.39 2.424 1.39 2.424s1.392-.723 1.392-2.424c0-1.706-1.391-3.752-1.391-3.752s-1.391 2.046-1.391 3.752zm2.115 5.349c0-.896-.73-1.27-.73-1.27s-.73.38-.73 1.27.73 1.965.73 1.965.73-1.069.73-1.965zm-1.72 19.296a4.528 4.528 0 00-1.38-.575 3.333 3.333 0 00-1.276-.046 2.728 2.728 0 00-1.07.42 2.593 2.593 0 00-.775.804c-.385.626-.535 1.24-.454 1.855.08.61.281 1.224.592 1.833.31.615.678 1.235 1.098 1.873.42.638.77 1.287 1.046 1.96.276.671.426 1.36.449 2.067.022.713-.213 1.46-.696 2.247-.282.465-.661.85-1.121 1.16-.466.31-.983.517-1.547.626-.569.11-1.16.104-1.788-.011a5.43 5.43 0 01-1.856-.735 4.646 4.646 0 01-1.271-1.127 5.426 5.426 0 01-.759-1.315 3.43 3.43 0 01-.259-1.241c0-.39.07-.701.213-.942a1.5 1.5 0 012.116-.506c.373.23.615.546.707.948.098.402.029.793-.201 1.166a1.5 1.5 0 01-2.116.506.64.64 0 01-.138-.11c-.04-.04-.086-.085-.126-.131-.04-.046-.092-.092-.144-.144.098.316.236.638.42.954.155.281.362.58.632.89.264.31.615.598 1.04.856a3.82 3.82 0 001.277.511c.425.08.822.092 1.196.035a2.652 2.652 0 001.017-.373c.305-.19.546-.426.713-.701.385-.627.535-1.241.454-1.856a5.688 5.688 0 00-.592-1.833 19.02 19.02 0 00-1.098-1.873c-.42-.637-.77-1.286-1.046-1.959a5.788 5.788 0 01-.443-2.08c-.017-.718.213-1.464.69-2.24a4.075 4.075 0 011.201-1.264 4.087 4.087 0 011.604-.655 4.945 4.945 0 011.857.029 5.79 5.79 0 011.96.787c.328.201.616.414.875.643.252-.23.546-.442.873-.643.65-.396 1.305-.66 1.96-.787a5.067 5.067 0 011.858-.029c.58.11 1.115.328 1.604.655.488.333.885.753 1.201 1.264.477.776.707 1.522.69 2.24a5.788 5.788 0 01-.442 2.08 11.523 11.523 0 01-1.047 1.96c-.42.637-.788 1.258-1.098 1.872-.31.615-.512 1.224-.592 1.833-.08.609.069 1.23.454 1.856.167.275.408.505.713.7.305.19.644.317 1.018.374.373.057.77.046 1.195-.035a3.72 3.72 0 001.277-.51c.425-.26.77-.547 1.04-.857a5.264 5.264 0 001.053-1.844 1.703 1.703 0 00-.144.144c-.04.04-.087.086-.127.132a.502.502 0 01-.138.109 1.5 1.5 0 01-2.116-.506 1.498 1.498 0 01.506-2.114 1.5 1.5 0 012.116.506c.144.235.218.551.213.942-.006.39-.087.804-.259 1.24a5.3 5.3 0 01-.759 1.316 4.551 4.551 0 01-1.27 1.127c-.616.373-1.236.62-1.857.735a4.805 4.805 0 01-1.788.011 4.163 4.163 0 01-1.547-.626 3.66 3.66 0 01-1.12-1.16c-.484-.787-.714-1.54-.696-2.247a5.859 5.859 0 01.448-2.068c.276-.672.627-1.321 1.046-1.959.42-.638.788-1.258 1.098-1.873.31-.615.512-1.224.593-1.833.08-.609-.07-1.229-.455-1.855a2.593 2.593 0 00-.776-.805 2.818 2.818 0 00-1.07-.419 3.332 3.332 0 00-1.275.046 4.391 4.391 0 00-1.38.575c-.305.19-.58.39-.822.609 1.012 1 1.874 2.125 1.874 3.613 0 2.396-1.938 5.251-1.943 5.257l-.098.143-.098-.143c-.005-.006-1.943-2.861-1.943-5.257 0-1.488.868-2.62 1.874-3.613a6.602 6.602 0 00-.845-.61zm1.5 1.373a3.224 3.224 0 00-.51-.374 3.671 3.671 0 00-.513.374c-2.173 2.2-1.207 5.136.512 7.83 1.466-2.298 2.783-5.607.512-7.83zm-2.126 14.219c0 1.798 1.224 2.723 1.615 2.97.391-.247 1.616-1.166 1.616-2.97 0-1.753-1.139-3.792-1.616-4.568-.471.776-1.615 2.816-1.615 4.568zm1.5 3.475l.115.064.115-.063c.006-.006 1.995-1.035 1.995-3.47 0-2.362-1.897-5.16-1.903-5.165l-.207-.305-.207.305c-.006.005-1.903 2.803-1.903 5.164 0 2.43 1.99 3.465 1.995 3.47zm1.506-14.862c0-1.706-1.39-2.43-1.39-2.43s-1.392.724-1.392 2.43c0 1.706 1.391 3.752 1.391 3.752s1.391-2.051 1.391-3.752zm-2.115-5.349c0 .897.73 1.27.73 1.27s.73-.38.73-1.27c0-.896-.73-1.965-.73-1.965s-.73 1.069-.73 1.965zM22.3 31.512c-.19.304-.39.58-.609.821-.995-1.01-2.127-1.872-3.616-1.872-2.397 0-5.255 1.936-5.26 1.941l-.144.098.144.098c.005.005 2.863 1.941 5.26 1.941 1.489 0 2.621-.867 3.616-1.872.219.24.425.517.61.821.281.465.477.925.574 1.379.098.454.115.879.046 1.275a2.723 2.723 0 01-.42 1.069 2.534 2.534 0 01-.804.776c-.627.384-1.242.534-1.857.453a5.696 5.696 0 01-1.834-.591 18.403 18.403 0 01-1.874-1.098 11.52 11.52 0 00-1.96-1.045 5.679 5.679 0 00-2.07-.448c-.713-.023-1.46.212-2.248.695a3.66 3.66 0 00-1.161 1.12c-.31.465-.518.983-.627 1.545-.11.57-.104 1.161.011 1.787.115.626.363 1.247.742 1.856.316.511.69.936 1.127 1.27.437.333.874.586 1.316.758.443.172.857.258 1.242.258.391 0 .702-.069.943-.212a1.499 1.499 0 00.506-2.114 1.5 1.5 0 00-2.116-.506c-.373.23-.615.546-.707.948-.098.402-.029.793.201 1.166a.645.645 0 00.11.138l.126.127c.046.04.092.091.144.143a4.926 4.926 0 01-.955-.42 5.156 5.156 0 01-.89-.631 4.272 4.272 0 01-.857-1.04 3.832 3.832 0 01-.512-1.275 3.514 3.514 0 01-.034-1.195 2.71 2.71 0 01.373-1.017c.19-.305.426-.546.702-.713.626-.385 1.241-.534 1.857-.453.609.08 1.224.281 1.834.591.615.31 1.241.678 1.874 1.097.638.42 1.287.77 1.96 1.046a5.798 5.798 0 002.081.443c.719.017 1.466-.213 2.242-.69a4.076 4.076 0 001.265-1.2 4.085 4.085 0 00.655-1.604c.11-.58.098-1.2-.028-1.855-.127-.655-.386-1.304-.788-1.96a6.132 6.132 0 00-.644-.872 5.82 5.82 0 00.644-.874c.397-.649.661-1.304.788-1.959a5.058 5.058 0 00.029-1.855 4.263 4.263 0 00-.656-1.603 4.076 4.076 0 00-1.265-1.201c-.776-.477-1.523-.707-2.242-.69a5.8 5.8 0 00-2.081.443c-.667.281-1.322.626-1.96 1.046-.639.419-1.26.787-1.874 1.097-.616.31-1.225.511-1.834.591-.61.081-1.23-.068-1.857-.453a2.135 2.135 0 01-.702-.713 2.673 2.673 0 01-.373-1.017 3.513 3.513 0 01.034-1.195c.08-.425.247-.85.512-1.275.258-.425.546-.77.856-1.04a5.26 5.26 0 01.891-.632c.322-.184.639-.322.955-.42a1.686 1.686 0 01-.144.144l-.127.127a.504.504 0 00-.109.138 1.498 1.498 0 00.506 2.114 1.5 1.5 0 002.116-.506 1.499 1.499 0 00-.506-2.114c-.236-.143-.552-.218-.943-.212a3.51 3.51 0 00-1.242.258c-.442.167-.88.42-1.316.758a4.552 4.552 0 00-1.127 1.27 5.654 5.654 0 00-.742 1.856 4.793 4.793 0 00-.011 1.787c.11.568.316 1.08.627 1.545.31.465.695.839 1.16 1.12.788.483 1.542.713 2.249.695a5.869 5.869 0 002.07-.448 11.53 11.53 0 001.96-1.045c.638-.42 1.259-.787 1.874-1.098a5.6 5.6 0 011.834-.591c.61-.08 1.23.069 1.857.453.327.202.592.46.805.776.212.316.35.672.42 1.069a3.34 3.34 0 01-.047 1.275 4.438 4.438 0 01-.575 1.402zm-1.38 1.5c-2.224 2.269-5.536.953-7.835-.512 2.696-1.718 5.634-2.683 7.836-.511.2.23.322.42.373.511a3.218 3.218 0 01-.373.511zM6.693 30.885c1.753 0 3.794 1.137 4.57 1.614-.776.477-2.817 1.614-4.57 1.614-1.8 0-2.725-1.223-2.972-1.614.247-.39 1.167-1.614 2.972-1.614zm-3.473 1.5c0-.007 1.035-1.995 3.473-1.995 2.363 0 5.162 1.896 5.168 1.902l.305.207-.305.207c-.005.006-2.805 1.901-5.168 1.901-2.438 0-3.473-1.987-3.473-1.993l-.063-.115.063-.115zm14.873 1.504c-1.707 0-3.754-1.39-3.754-1.39s2.047-1.385 3.754-1.385c1.708 0 2.426 1.385 2.426 1.385s-.718 1.39-2.426 1.39zm5.352-2.12c.892 0 1.967.73 1.967.73s-1.076.73-1.967.73c-.896 0-1.27-.73-1.27-.73s.374-.73 1.27-.73zm19.305 1.718c.19-.304.392-.58.61-.821.994 1.01 2.127 1.872 3.616 1.872 2.397 0 5.255-1.936 5.26-1.941l.144-.098-.144-.098c-.005-.005-2.863-1.942-5.26-1.942-1.489 0-2.622.868-3.616 1.873a5.353 5.353 0 01-.61-.821 4.522 4.522 0 01-.574-1.379 3.326 3.326 0 01-.046-1.275c.069-.397.207-.753.42-1.069a2.59 2.59 0 01.804-.776c.627-.385 1.242-.534 1.857-.454a5.7 5.7 0 011.834.592c.615.31 1.236.678 1.874 1.098.638.419 1.288.77 1.96 1.045a5.921 5.921 0 002.07.448c.713.023 1.46-.212 2.248-.695.466-.281.85-.655 1.161-1.12.31-.465.518-.982.627-1.546.11-.568.103-1.16-.012-1.786a5.326 5.326 0 00-.741-1.856 4.644 4.644 0 00-1.127-1.27 5.431 5.431 0 00-1.316-.758c-.443-.172-.857-.258-1.242-.258-.391 0-.702.069-.943.212a1.499 1.499 0 00-.506 2.114c.23.374.546.615.949.707.402.098.793.029 1.167-.201a1.498 1.498 0 00.506-2.114.641.641 0 00-.11-.138c-.046-.04-.086-.086-.132-.127-.046-.04-.092-.091-.144-.143.317.097.639.235.955.42.281.154.58.361.89.631.311.264.599.615.857 1.04.26.425.432.85.512 1.275.08.425.092.822.035 1.195a2.746 2.746 0 01-.374 1.017c-.19.305-.425.546-.701.713-.627.385-1.242.534-1.857.454a5.694 5.694 0 01-1.834-.592 19.022 19.022 0 01-1.875-1.098 11.483 11.483 0 00-1.96-1.045 5.8 5.8 0 00-2.081-.442c-.719-.018-1.466.212-2.242.689a4.075 4.075 0 00-1.265 1.2 4.082 4.082 0 00-.655 1.604c-.11.58-.098 1.2.028 1.855.127.655.386 1.31.788 1.96.201.327.414.614.644.872-.23.253-.443.546-.644.874-.397.649-.661 1.304-.788 1.959a5.058 5.058 0 00-.028 1.855c.109.58.327 1.115.655 1.603a4.07 4.07 0 001.265 1.201c.776.477 1.523.707 2.242.69a5.797 5.797 0 002.081-.443 11.53 11.53 0 001.96-1.045 19.01 19.01 0 011.875-1.098 5.757 5.757 0 011.834-.592c.609-.08 1.23.07 1.857.454.276.167.505.408.7.713.19.304.317.643.375 1.017.057.373.046.77-.035 1.195-.08.425-.247.85-.512 1.275a4.38 4.38 0 01-.856 1.04 5.26 5.26 0 01-.891.632 4.738 4.738 0 01-.955.42c.052-.058.098-.104.144-.144.046-.04.086-.087.132-.127a.504.504 0 00.11-.138 1.498 1.498 0 00-.506-2.114 1.5 1.5 0 00-2.116.506 1.499 1.499 0 00.506 2.114c.236.144.552.218.943.212.39 0 .805-.086 1.242-.258a5.35 5.35 0 001.316-.758 4.554 4.554 0 001.127-1.27c.374-.615.62-1.235.741-1.856a4.795 4.795 0 00.012-1.786 4.155 4.155 0 00-.627-1.546 3.66 3.66 0 00-1.16-1.12c-.789-.483-1.542-.713-2.249-.695a5.87 5.87 0 00-2.07.448c-.672.276-1.322.626-1.96 1.045-.638.42-1.259.787-1.874 1.098-.615.31-1.224.511-1.834.591-.61.08-1.23-.069-1.857-.453a2.593 2.593 0 01-.805-.776 2.811 2.811 0 01-.42-1.069 3.327 3.327 0 01.047-1.275 4.16 4.16 0 01.575-1.402zm1.374-1.5c2.22-2.269 5.537-.953 7.836.512-2.696 1.718-5.634 2.683-7.836.511a3.225 3.225 0 01-.373-.511c.052-.092.178-.282.373-.511zm14.23 2.126c-1.754 0-3.795-1.137-4.571-1.614.776-.477 2.817-1.614 4.57-1.614 1.8 0 2.725 1.223 2.973 1.614-.248.39-1.168 1.614-2.973 1.614zm3.477-1.5c-.005.007-1.034 1.994-3.472 1.994-2.363 0-5.163-1.895-5.168-1.901l-.305-.207.305-.207c.005-.006 2.805-1.901 5.168-1.901 2.438 0 3.472 1.987 3.472 1.993l.064.115-.064.115zM46.958 31.11c1.707 0 3.754 1.39 3.754 1.39s-2.047 1.39-3.754 1.39c-1.708 0-2.426-1.39-2.426-1.39s.718-1.39 2.426-1.39zm-5.352 2.12c-.897 0-1.967-.73-1.967-.73s1.07-.73 1.966-.73c.897 0 1.271.73 1.271.73s-.38.73-1.27.73zM14.941 47.305c1.62-1.396 3.438-.666 3.438-.666s.448 1.907-1.168 3.297c-1.62 1.396-4.696 1.753-4.696 1.753s.81-2.988 2.426-4.384zm.005-29.564c1.622 1.396 3.438.666 3.438.666s.449-1.907-1.167-3.297c-1.62-1.396-4.697-1.753-4.697-1.753s.805 2.988 2.426 4.384zm35.155 29.564c-1.62-1.396-3.437-.666-3.437-.666s-.449 1.907 1.167 3.297c1.62 1.396 4.697 1.753 4.697 1.753s-.805-2.988-2.427-4.384z"/><path fill-rule="evenodd" clip-rule="evenodd" d="M32.522 0c8.98 0 17.109 3.637 22.996 9.52 5.887 5.883 9.526 14.006 9.526 22.98s-3.64 17.097-9.526 22.98C49.631 61.363 41.502 65 32.522 65c-8.98 0-17.109-3.637-22.996-9.52C3.64 49.597 0 41.474 0 32.5S3.64 15.403 9.526 9.52C15.413 3.642 23.542 0 32.522 0zm22.14 10.376a31.229 31.229 0 00-22.14-9.164c-8.646 0-16.47 3.505-22.14 9.164C4.72 16.035 1.214 23.859 1.214 32.5c0 8.64 3.507 16.46 9.17 22.124a31.228 31.228 0 0022.139 9.164c8.647 0 16.47-3.505 22.14-9.164 5.662-5.659 9.169-13.483 9.169-22.124 0-8.64-3.507-16.46-9.17-22.124z"/><path d="M159.943 40.25h-16.235v.402h16.235v-.402zm-67.115 0H76.593v.402h16.235v-.402z"/><path fill-rule="evenodd" clip-rule="evenodd" d="M100.969 38.015a.868.868 0 00-.419.098 1.222 1.222 0 00-.294.218 1.293 1.293 0 00-.23.316v3.166a1.934 1.934 0 00.604.804.72.72 0 00.454.15c.121 0 .242-.04.362-.115.121-.075.236-.207.34-.397.103-.184.184-.43.253-.735s.097-.678.097-1.126c0-.448-.034-.828-.097-1.126a2.54 2.54 0 00-.265-.73 1.076 1.076 0 00-.368-.396.86.86 0 00-.437-.127zm.156-.212c.252 0 .494.057.73.172.23.115.442.287.621.506.184.224.327.494.436.81.11.321.161.683.161 1.091 0 .408-.057.77-.161 1.092a2.692 2.692 0 01-.419.81 1.76 1.76 0 01-.592.505 1.45 1.45 0 01-.673.173 1.19 1.19 0 01-.552-.12 1.518 1.518 0 01-.379-.27 1.518 1.518 0 01-.288-.403v.632h-1.477v-.103l.632-.161v-6.854l-.632-.161v-.103h1.477v2.9c.063-.097.15-.183.253-.264.092-.063.207-.12.345-.178a1.7 1.7 0 01.518-.074zm6.099 2.585c0 .448.035.827.098 1.126.069.305.155.546.264.735.11.184.23.316.368.397a.895.895 0 00.426.115c.184 0 .356-.035.517-.104a1.479 1.479 0 00.742-.718c.08-.166.138-.35.161-.546h.161a2.035 2.035 0 01-.184.627 1.822 1.822 0 01-.362.5 1.629 1.629 0 01-1.139.454 1.71 1.71 0 01-.759-.173 1.918 1.918 0 01-.638-.506 2.601 2.601 0 01-.442-.81 3.358 3.358 0 01-.161-1.091c0-.42.051-.793.161-1.12.103-.322.247-.592.419-.805.173-.212.374-.379.604-.488.23-.115.471-.167.724-.167a1.676 1.676 0 011.328.655c.173.213.311.483.42.804.103.322.161.696.161 1.12h-2.869v-.005zm.949-2.424a.611.611 0 00-.316.097.948.948 0 00-.294.356 2.473 2.473 0 00-.224.678 6.41 6.41 0 00-.109 1.08h1.903a6.45 6.45 0 00-.109-1.08 2.575 2.575 0 00-.225-.678c-.092-.166-.189-.287-.293-.356a.725.725 0 00-.333-.097zm7.732 2.269c-.609 0-1.063.138-1.357.408-.293.27-.437.643-.437 1.126 0 .316.075.563.23.741.156.178.322.264.506.264a.74.74 0 00.449-.15c.132-.097.241-.206.333-.327.104-.132.196-.293.276-.476v-1.586zm-.787-2.27a.714.714 0 00-.529.219.795.795 0 00-.213.574c0 .058 0 .104.006.15l.017.115a.38.38 0 00.034.103l-.845.213a.296.296 0 01-.028-.087 5.104 5.104 0 01-.018-.114c-.005-.04-.005-.098-.005-.167 0-.15.034-.287.103-.425.069-.138.173-.259.311-.368.137-.109.304-.195.494-.264.195-.07.42-.098.673-.098.505 0 .908.144 1.195.431.294.287.437.672.437 1.15v3.165l.633.16v.104h-1.478v-.632a1.66 1.66 0 01-.293.402 1.58 1.58 0 01-.374.27c-.149.08-.333.12-.546.12-.506 0-.891-.12-1.144-.355-.259-.242-.385-.558-.385-.96 0-.195.052-.396.161-.592.109-.195.276-.373.494-.528.225-.155.506-.282.851-.373.345-.098.759-.144 1.236-.144V39.4c0-.529-.08-.896-.236-1.109-.161-.224-.344-.327-.551-.327zm9.1.265v4.326l.633.16v.104h-1.478v-.632a1.66 1.66 0 01-.293.402 1.6 1.6 0 01-.374.27c-.149.08-.333.121-.546.121a1.458 1.458 0 01-1.058-.437 1.511 1.511 0 01-.31-.494 1.784 1.784 0 01-.109-.649v-3.165l-.633-.161v-.104h2.058v.104l-.58.16V41.4c0 .5.08.85.235 1.063.161.207.345.31.552.31a.74.74 0 00.449-.15c.132-.097.241-.206.333-.327.104-.132.196-.293.276-.476v-3.585l-.581-.161v-.104h2.059v.104l-.633.155zm6.313-.264v.212h-1.213v3.367c0 .43.074.74.23.936.155.196.321.288.505.288a.804.804 0 00.61-.27c.167-.179.264-.443.287-.788h.161c-.028.403-.149.713-.362.931a1.081 1.081 0 01-.799.333c-.448 0-.811-.132-1.075-.396-.27-.264-.403-.61-.403-1.029V38.17h-.896v-.212h.896v-1.212l.846-.58v1.792h1.213v.006zm4.984 5.745a8.153 8.153 0 01-.328.827 2.417 2.417 0 01-.333.54.994.994 0 01-.357.287.94.94 0 01-.408.086c-.04 0-.08 0-.115-.005l-.103-.018a.487.487 0 01-.098-.028l-.161-.793a.406.406 0 00.098.029l.103.017a.744.744 0 00.115.006c.42 0 .73-.08.926-.236.195-.16.345-.396.448-.712l.293-.897-1.828-4.59-.632-.16v-.104h2.11v.103l-.581.161 1.34 3.367 1.086-3.258-.684-.264v-.103h1.581v.103l-.684.264-1.788 5.378zm13.211-11.841v-1.103a4.18 4.18 0 00.638-.224 4.04 4.04 0 001.386-1.051c.397-.46.696-1 .897-1.615a6.571 6.571 0 00.293-2.022 6.57 6.57 0 00-.293-2.022 4.76 4.76 0 00-.897-1.615 3.984 3.984 0 00-1.386-1.051 3.801 3.801 0 00-.638-.224v-1.103c1.552.12 2.869.7 3.95 1.74a5.883 5.883 0 011.38 1.948c.304.707.459 1.477.459 2.316 0 .85-.155 1.625-.459 2.343a5.905 5.905 0 01-1.38 1.954c-1.081 1.022-2.398 1.603-3.95 1.73zM160 31.816v-11.91c0-.01 0-.022-.006-.034a.081.081 0 00-.023-.028c-.011-.006-.017-.018-.028-.018-.012-.005-.029-.005-.052-.005h-2.725c.144.206.247.442.322.7.074.282.115.592.115.931V31.84c.005.006.011.018.028.035l.035.029h2.225c.023 0 .04 0 .052-.006.011-.006.023-.012.028-.017l.029-.035v-.029zm-11.274-11.978v1.103a4.465 4.465 0 00-1.086-.132h-1.432a.634.634 0 00-.27.057.573.573 0 00-.224.167.78.78 0 00-.144.235.852.852 0 00-.046.27v8.652a.8.8 0 00.046.27.672.672 0 00.638.437h1.432c.385 0 .747-.046 1.086-.132v1.103a7.662 7.662 0 01-.632.023h-4.893l-.034-.029-.029-.034V21.44c0-.34-.04-.65-.115-.931a2.219 2.219 0 00-.322-.7h5.393c.213.005.425.01.632.028zm-34.758 8.572v-1h1.368c.558 0 .742-.27.541-.81l-1.443-4.022a.526.526 0 00-.15-.241.412.412 0 00-.293-.11h-.029v-2.412h1.535a.32.32 0 01.184.046c.046.029.081.086.109.166l4.508 11.87h-2.346a.267.267 0 01-.161-.04.32.32 0 01-.098-.144l-1.012-2.815c-.109-.322-.356-.483-.747-.483h-1.966v-.005zm9.417-6.964v10.388l.028.034.035.029h2.208c.023 0 .04 0 .051-.006a.12.12 0 00.029-.017l.029-.035v-4.148c0-.149.023-.287.063-.413a.988.988 0 01.201-.356l.184-.201c.282-.328.558-.317.834.04l3.633 4.866c.144.184.38.276.713.276h2.254l-5.169-6.768c-.258-.322-.253-.626.023-.896l4.145-4.424h-1.443a.95.95 0 00-.379.069.841.841 0 00-.276.2c-1.276 1.489-2.719 2.902-4.007 4.39a.61.61 0 01-.196.138.403.403 0 01-.546-.213.598.598 0 01-.04-.23v-4.262c0-.012 0-.023-.006-.035a.081.081 0 00-.023-.028c-.011-.006-.017-.018-.028-.018-.012-.005-.029-.005-.052-.005h-2.708c.144.206.247.442.322.7.08.276.121.587.121.925zm15.591 10.37v-11.91c0-.01 0-.022-.006-.034a.097.097 0 00-.023-.028c-.011-.006-.017-.018-.029-.018-.011-.005-.028-.005-.051-.005h-2.725c.143.206.247.442.322.7.074.282.115.592.115.931V31.84c.005.006.011.018.028.035l.035.029h2.225c.023 0 .04 0 .051-.006a.123.123 0 00.029-.017l.029-.035v-.029zm-61.675-3.694l-.742 1.362a.153.153 0 00-.017.069c0 .04.017.092.046.143l.006.006c.166.35.39.672.66.96.277.293.61.551 1.001.78.391.23.81.403 1.27.518.46.115.955.172 1.49.172 1.264 0 2.265-.333 2.995-1.005.362-.333.638-.707.816-1.126.178-.414.27-.88.27-1.39 0-.54-.097-1.04-.281-1.494a3.295 3.295 0 00-.345-.644 3.222 3.222 0 00-.454-.551 9.693 9.693 0 00-.53-.489 6.335 6.335 0 00-.517-.402 10.32 10.32 0 00-.557-.356c-.196-.115-.403-.23-.621-.35l-.115-.058-.155-.08c-.248-.127-.46-.241-.65-.34a18.98 18.98 0 01-.489-.27 3.43 3.43 0 01-.776-.625 1.712 1.712 0 01-.293-.437 1.248 1.248 0 01-.103-.494c0-.224.04-.425.12-.609a1.37 1.37 0 01.374-.483c.16-.126.345-.224.563-.287a2.797 2.797 0 011.483.017c.254.075.495.178.713.322.207.138.397.282.558.437.167.155.31.322.431.494a.22.22 0 00.052.052l.023.005.638-1.057a.366.366 0 00.046-.178c0-.023-.011-.04-.029-.057a3.763 3.763 0 00-1.39-.84c-.547-.189-1.18-.286-1.892-.286-.535 0-1.024.069-1.466.212a3.78 3.78 0 00-1.208.626c-.35.27-.62.58-.793.931a2.67 2.67 0 00-.276 1.19c0 .264.023.51.063.74a3.083 3.083 0 00.972 1.741 7.6 7.6 0 001.075.828c.178.114.38.23.598.35.224.12.471.253.736.38.833.407 1.454.786 1.85 1.13.225.196.398.42.513.679.115.258.166.54.166.844a1.827 1.827 0 01-1.34 1.816c-.27.086-.574.126-.913.126-.851 0-1.616-.299-2.294-.902a4.078 4.078 0 01-.817-.977 3.497 3.497 0 01-.465-1.143zm36.667-8.307v2.413a.481.481 0 00-.265.097.477.477 0 00-.166.253l-1.501 4.022a.853.853 0 00-.057.293.48.48 0 00.086.287c.057.086.138.15.247.19a.71.71 0 00.253.04h1.409v1h-2.093a.699.699 0 00-.42.126.714.714 0 00-.253.356l-1.011 2.82a.279.279 0 01-.098.145.302.302 0 01-.161.04h-1.351l3.944-10.341c.143-.397.218-.742.218-1.029a1.57 1.57 0 00-.155-.706v-.006h1.374zm-15.189 0h-2.161c-.023 0-.04.006-.052.006a.124.124 0 00-.029.017c-.012.011-.017.023-.023.028l-.006.035v4.625a.68.68 0 01-.207.5.704.704 0 01-.483.207h-3.99c-.212 0-.385-.064-.505-.196-.121-.126-.179-.299-.179-.511V19.9c0-.011 0-.029-.005-.035-.006-.005-.012-.017-.023-.028-.012-.012-.018-.017-.03-.017-.01-.006-.028-.006-.05-.006h-2.709c.144.207.248.442.322.7.08.282.115.593.115.931v10.388l.03.034.034.029h2.207c.023 0 .04 0 .052-.006a.124.124 0 00.029-.017.15.15 0 00.028-.035v-4.906c0-.471.23-.707.69-.707h3.99a.704.704 0 01.483.207.734.734 0 01.213.5v4.906l.029.035c.011.011.017.017.028.017a.125.125 0 00.052.006h2.162c.023 0 .04 0 .051-.006a.124.124 0 00.03-.017.15.15 0 00.028-.035V19.913c0-.012 0-.03-.006-.035-.006-.006-.011-.017-.023-.029-.011-.011-.017-.017-.029-.017-.028-.017-.046-.017-.063-.017zm6.721 12.001v-11.91c0-.01 0-.022-.006-.034a.114.114 0 00-.023-.028c-.012-.006-.017-.018-.029-.018-.011-.005-.029-.005-.052-.005h-2.725c.144.206.248.442.322.7.081.282.115.592.115.931V31.84c.006.006.012.018.029.035l.035.029h2.224c.023 0 .041 0 .052-.006a.123.123 0 00.029-.017l.023-.035.006-.029z"/></g><defs><clipPath id="clip0_785_10158"><path fill="#fff" d="M0 0h160v65H0z"/></clipPath></defs></svg>