<svg width="104" height="120" fill="none" xmlns="http://www.w3.org/2000/svg"><g clip-path="url(#clip0_75_36)" fill="#242333"><path fill-rule="evenodd" clip-rule="evenodd" d="M73.35 21.959c-2.018 1.728-4.278.825-4.278.825s-.558-2.361 1.452-4.082c2.017-1.728 5.843-2.169 5.843-2.169s-1 3.698-3.018 5.426zm-25.955 26.02h-.415v-5.163h.415c.515 2.865 2.017 4.295 4.505 4.295.859 0 1.574-.228 2.146-.69.572-.462.858-1.052.858-1.778 0-.818-.422-1.536-1.258-2.176-1.989-1.152-3.62-2.14-4.9-2.972-1.28-.832-1.91-1.934-1.91-3.3 0-1.13.423-2.076 1.281-2.823.851-.76 1.903-1.138 3.154-1.138.816 0 1.666.192 2.56.584.422.192.716.284.887.284.394 0 .644-.292.773-.868h.407v5.213h-.407c-.222-1.536-.73-2.646-1.516-3.314-.794-.675-1.688-1.003-2.668-1.003-.737 0-1.366.228-1.895.676-.53.44-.794.988-.794 1.628 0 .42.179.86.536 1.33.358.47 1.438 1.188 3.24 2.148 1.101.59 1.938 1.074 2.51 1.45a4.952 4.952 0 011.424 1.48 3.63 3.63 0 01.572 1.962c0 1.202-.458 2.197-1.373 2.994-.916.796-2.046 1.195-3.383 1.195-.73 0-1.631-.178-2.704-.527-.658-.22-1.115-.327-1.366-.327-.372-.014-.593.263-.68.84zm5.314-20.402c.579.348 1.151.59 1.716.71.565.122 1.094.143 1.588.058a3.4 3.4 0 001.33-.52c.393-.255.715-.59.966-.995.479-.775.665-1.536.565-2.297-.1-.754-.35-1.515-.737-2.268a22.716 22.716 0 00-1.366-2.319 14.237 14.237 0 01-1.302-2.424 7.287 7.287 0 01-.558-2.56c-.028-.882.265-1.807.866-2.78a4.54 4.54 0 011.395-1.437 5.242 5.242 0 011.923-.775 6.005 6.005 0 012.225.014c.78.142 1.552.448 2.31.917a5.771 5.771 0 011.58 1.394c.415.54.73 1.08.944 1.628.215.548.322 1.06.322 1.536 0 .484-.086.868-.264 1.167-.287.462-.68.76-1.18.874-.501.121-.987.036-1.452-.249-.465-.284-.766-.675-.88-1.173-.122-.498-.036-.981.25-1.443.286-.463.68-.761 1.18-.875.501-.121.987-.036 1.452.249a.796.796 0 01.172.135l.157.156c.05.057.115.114.179.178a5.674 5.674 0 00-.522-1.18 6.376 6.376 0 00-.787-1.103c-.329-.383-.765-.74-1.294-1.06a4.789 4.789 0 00-1.588-.632 4.403 4.403 0 00-1.488-.043c-.457.071-.88.228-1.266.463a2.638 2.638 0 00-.886.867c-.48.775-.666 1.536-.565 2.297.1.754.35 1.515.736 2.268.386.761.844 1.536 1.366 2.319.522.789.959 1.593 1.302 2.425.343.831.53 1.685.55 2.574.022.889-.264 1.813-.858 2.773a5.055 5.055 0 01-1.494 1.564 5.1 5.1 0 01-1.996.811c-.722.135-1.494.121-2.31-.035-.815-.157-1.63-.477-2.439-.975a7.637 7.637 0 01-1.087-.796c-.314.284-.68.547-1.087.796-.808.491-1.623.818-2.439.975a6.335 6.335 0 01-2.31.035 5.326 5.326 0 01-1.995-.81 5.055 5.055 0 01-1.495-1.565c-.593-.96-.88-1.884-.858-2.773a7.136 7.136 0 01.55-2.574c.344-.825.78-1.636 1.302-2.425.522-.79.98-1.558 1.366-2.319.386-.76.637-1.514.737-2.268.1-.754-.086-1.522-.565-2.297a2.649 2.649 0 00-.887-.867 3.34 3.34 0 00-1.266-.463 4.403 4.403 0 00-1.488.043c-.529.1-1.058.306-1.587.633-.53.32-.959.676-1.295 1.06a6.492 6.492 0 00-.786 1.102c-.23.398-.4.789-.522 1.18.071-.064.128-.12.178-.178l.158-.156c.05-.057.107-.1.171-.135.465-.285.952-.37 1.452-.25.5.122.894.413 1.18.876.286.462.372.945.25 1.443-.121.498-.414.889-.88 1.173-.464.285-.95.37-1.451.25-.5-.122-.894-.413-1.18-.875-.179-.292-.272-.683-.265-1.167.007-.483.115-.995.322-1.536a6.269 6.269 0 01.944-1.628 5.67 5.67 0 011.58-1.394c.766-.462 1.538-.768 2.31-.917.78-.142 1.524-.15 2.225-.014a5.193 5.193 0 011.924.775 4.54 4.54 0 011.395 1.436c.6.974.886 1.906.865 2.78a7.22 7.22 0 01-.558 2.56c-.343.833-.78 1.636-1.302 2.425-.522.79-.98 1.558-1.366 2.319-.386.76-.636 1.514-.736 2.268-.1.754.086 1.522.565 2.297.25.405.572.733.965.996a3.42 3.42 0 001.33.519c.494.085 1.023.064 1.588-.057a5.475 5.475 0 001.717-.711 7.163 7.163 0 001.023-.754c-1.252-1.237-2.332-2.631-2.332-4.473 0-2.965 2.41-6.5 2.417-6.507l.122-.177.121.177c.008.008 2.418 3.542 2.418 6.507 0 1.842-1.08 3.243-2.332 4.473.33.27.673.526 1.052.754zm-1.867-1.7c.286.249.522.398.636.462a4.48 4.48 0 00.637-.462c2.703-2.723 1.502-6.357-.637-9.692-1.823 2.844-3.461 6.94-.636 9.692zm2.646-17.6c0-2.233-1.523-3.37-2.01-3.676-.486.306-2.01 1.443-2.01 3.676 0 2.17 1.417 4.694 2.01 5.654.594-.96 2.01-3.485 2.01-5.654zm-1.86-4.302l-.142-.078-.143.078c-.008.007-2.482 1.28-2.482 4.295 0 2.923 2.36 6.386 2.367 6.393l.258.377.257-.377c.007-.007 2.367-3.47 2.367-6.393-.007-3.008-2.474-4.288-2.481-4.295zm-1.873 18.396c0 2.112 1.73 3.001 1.73 3.001s1.732-.896 1.732-3c0-2.113-1.731-4.644-1.731-4.644s-1.731 2.531-1.731 4.643zm2.632 6.62c0-1.108-.909-1.57-.909-1.57s-.908.469-.908 1.57c0 1.103.908 2.433.908 2.433s.909-1.323.909-2.432zm-2.139 23.887c-.579-.349-1.151-.59-1.716-.711s-1.094-.142-1.588-.057a3.4 3.4 0 00-1.33.519 3.23 3.23 0 00-.966.995c-.479.776-.665 1.536-.565 2.297.1.754.35 1.515.737 2.269.386.76.844 1.529 1.366 2.318.522.79.958 1.593 1.302 2.425.343.832.529 1.685.558 2.56.028.882-.265 1.806-.866 2.78a4.618 4.618 0 01-1.394 1.437c-.58.384-1.223.64-1.924.775a6.016 6.016 0 01-2.225-.014c-.78-.143-1.551-.448-2.31-.91a5.766 5.766 0 01-1.58-1.394 6.702 6.702 0 01-.944-1.629c-.215-.547-.322-1.06-.322-1.536 0-.483.086-.867.264-1.166.287-.462.68-.754 1.18-.875.501-.12.988-.035 1.452.25.465.284.766.675.88 1.172.122.498.036.982-.25 1.444-.286.462-.68.754-1.18.875-.5.12-.987.035-1.452-.25a.802.802 0 01-.172-.134c-.05-.05-.107-.107-.157-.164-.05-.057-.115-.114-.179-.178.122.392.293.79.522 1.18.193.35.45.72.787 1.103.329.384.765.74 1.294 1.06.53.32 1.059.533 1.588.632a4.4 4.4 0 001.488.043 3.31 3.31 0 001.266-.462c.379-.235.68-.526.887-.868.479-.775.665-1.536.565-2.296-.1-.754-.351-1.515-.737-2.269a23.51 23.51 0 00-1.366-2.318 14.237 14.237 0 01-1.302-2.425 7.134 7.134 0 01-.55-2.574c-.022-.89.264-1.813.858-2.773a5.054 5.054 0 011.494-1.565 5.1 5.1 0 011.996-.81c.722-.136 1.495-.121 2.31.035s1.63.476 2.439.974c.407.25.765.512 1.087.797.314-.285.68-.548 1.087-.797.808-.49 1.623-.818 2.439-.974a6.333 6.333 0 012.31-.036 5.325 5.325 0 011.995.811 5.133 5.133 0 011.495 1.564c.594.96.88 1.885.858 2.774a7.134 7.134 0 01-.55 2.574c-.344.832-.78 1.636-1.302 2.425a23.51 23.51 0 00-1.366 2.318c-.386.761-.637 1.515-.737 2.269-.1.753.086 1.521.565 2.296.208.342.508.626.887.868.38.235.801.391 1.266.462a4.4 4.4 0 001.488-.043 4.64 4.64 0 001.587-.632c.53-.32.959-.676 1.295-1.06.329-.384.593-.747.787-1.102.228-.398.4-.79.522-1.18-.072.063-.13.12-.18.177a3.54 3.54 0 00-.156.164.629.629 0 01-.172.135c-.465.284-.951.37-1.452.249-.5-.121-.894-.413-1.18-.875-.286-.462-.372-.946-.25-1.444.121-.497.414-.888.88-1.173.464-.284.95-.37 1.451-.249.5.121.894.413 1.18.875.179.292.272.683.265 1.166a4.317 4.317 0 01-.322 1.536 6.605 6.605 0 01-.944 1.629 5.652 5.652 0 01-1.58 1.393c-.766.463-1.538.768-2.31.91-.78.143-1.524.15-2.225.015a5.192 5.192 0 01-1.924-.775 4.54 4.54 0 01-1.395-1.437c-.6-.974-.886-1.905-.865-2.78a7.22 7.22 0 01.558-2.56 14.24 14.24 0 011.302-2.425c.522-.79.98-1.557 1.366-2.318.386-.761.636-1.515.736-2.269.1-.753-.086-1.521-.565-2.297a3.217 3.217 0 00-.965-.995 3.514 3.514 0 00-1.33-.52 4.194 4.194 0 00-1.588.058 5.477 5.477 0 00-1.717.71 7.168 7.168 0 00-1.023.755c1.26 1.237 2.332 2.63 2.332 4.473 0 2.965-2.41 6.499-2.417 6.506l-.122.178-.121-.178c-.008-.007-2.418-3.541-2.418-6.507 0-1.841 1.08-3.242 2.332-4.472a8.213 8.213 0 00-1.052-.754zm1.867 1.7a4.002 4.002 0 00-.637-.463 4.55 4.55 0 00-.636.462c-2.703 2.724-1.502 6.358.636 9.693 1.824-2.845 3.462-6.94.637-9.693zm-2.646 17.6c0 2.225 1.523 3.37 2.01 3.676.486-.306 2.01-1.444 2.01-3.677 0-2.169-1.417-4.693-2.01-5.653-.587.96-2.01 3.484-2.01 5.653zm1.867 4.302l.142.078.144-.079c.007-.007 2.481-1.28 2.481-4.295 0-2.922-2.36-6.385-2.367-6.392l-.258-.377-.257.376c-.007.008-2.367 3.47-2.367 6.393 0 3.008 2.474 4.288 2.482 4.296zm1.873-18.397c0-2.112-1.73-3.008-1.73-3.008s-1.731.896-1.731 3.008 1.73 4.644 1.73 4.644 1.731-2.539 1.731-4.644zm-2.632-6.62c0 1.11.909 1.571.909 1.571s.908-.469.908-1.571c0-1.11-.908-2.432-.908-2.432s-.909 1.322-.909 2.432zM38.762 39.004a7.124 7.124 0 01-.758 1.017c-1.237-1.252-2.646-2.318-4.498-2.318-2.983 0-6.537 2.396-6.544 2.403l-.18.121.18.121c.007.007 3.561 2.404 6.544 2.404 1.852 0 3.261-1.074 4.498-2.319.272.3.53.64.758 1.017.35.576.594 1.145.715 1.707.122.562.144 1.088.058 1.579a3.36 3.36 0 01-.522 1.322 3.142 3.142 0 01-1.002.96c-.78.477-1.544.662-2.31.562a7.12 7.12 0 01-2.281-.732 22.92 22.92 0 01-2.332-1.358 14.385 14.385 0 00-2.439-1.295 7.094 7.094 0 00-2.574-.554c-.887-.029-1.817.263-2.797.86a4.538 4.538 0 00-1.444 1.387 5.179 5.179 0 00-.78 1.913 5.902 5.902 0 00.014 2.211c.143.775.45 1.543.923 2.297.393.633.858 1.16 1.402 1.572a6.76 6.76 0 001.638.938c.55.213 1.065.32 1.544.32.487 0 .873-.085 1.173-.263.465-.284.758-.675.88-1.173s.036-.982-.25-1.444c-.286-.462-.68-.754-1.18-.874-.501-.121-.987-.036-1.452.248-.465.285-.765.676-.88 1.174-.122.497-.036.981.25 1.443a.813.813 0 00.136.171l.158.156c.057.05.114.114.178.178a6.152 6.152 0 01-1.187-.519 6.407 6.407 0 01-1.108-.782c-.387-.327-.744-.761-1.066-1.287a4.747 4.747 0 01-.637-1.579 4.323 4.323 0 01-.042-1.479c.071-.462.228-.875.464-1.259.236-.377.53-.675.873-.881.78-.477 1.545-.662 2.31-.562.758.1 1.523.348 2.282.732.765.384 1.544.84 2.331 1.358.794.52 1.602.953 2.439 1.295a7.243 7.243 0 002.589.547c.894.022 1.824-.263 2.79-.853A5.06 5.06 0 0039.198 48a5.04 5.04 0 00.815-1.984c.136-.718.121-1.486-.036-2.297-.157-.81-.479-1.614-.98-2.425a7.602 7.602 0 00-.8-1.081c.285-.313.55-.675.8-1.08.494-.804.823-1.615.98-2.426a6.23 6.23 0 00.036-2.297 5.26 5.26 0 00-.815-1.984 5.06 5.06 0 00-1.574-1.486c-.965-.59-1.895-.874-2.79-.853a7.245 7.245 0 00-2.588.547c-.83.349-1.645.776-2.439 1.295-.794.519-1.566.974-2.331 1.358-.766.384-1.524.633-2.282.732-.758.1-1.53-.085-2.31-.561a2.647 2.647 0 01-.873-.882 3.298 3.298 0 01-.464-1.259 4.323 4.323 0 01.043-1.479c.1-.526.307-1.052.636-1.579a5.44 5.44 0 011.066-1.287 6.51 6.51 0 011.108-.782 5.95 5.95 0 011.187-.52 2.108 2.108 0 01-.178.179l-.158.156a.623.623 0 00-.136.17c-.286.463-.372.947-.25 1.444.122.498.415.89.88 1.174.465.284.951.37 1.452.249.5-.121.894-.413 1.18-.875.286-.462.372-.946.25-1.444-.122-.497-.415-.889-.88-1.173-.293-.178-.686-.27-1.173-.263a4.386 4.386 0 00-1.544.32 6.32 6.32 0 00-1.638.939 5.641 5.641 0 00-1.402 1.571c-.465.761-.772 1.529-.923 2.297-.143.775-.15 1.515-.014 2.212a5.13 5.13 0 00.78 1.912 4.544 4.544 0 001.444 1.387c.98.597 1.917.882 2.797.86a7.33 7.33 0 002.575-.554 14.377 14.377 0 002.438-1.294c.794-.52 1.567-.975 2.332-1.359a6.996 6.996 0 012.281-.732c.758-.1 1.53.085 2.31.562.408.249.737.569 1.002.96.264.39.436.832.522 1.322.086.491.064 1.017-.057 1.58a5.476 5.476 0 01-.716 1.734zm-1.716 1.856c-2.768 2.809-6.887 1.18-9.748-.633 3.354-2.126 7.009-3.32 9.748-.633.25.285.4.52.465.633a3.994 3.994 0 01-.465.633zm-17.701-2.63c2.181 0 4.72 1.407 5.686 1.997-.966.59-3.505 1.998-5.686 1.998-2.239 0-3.39-1.514-3.698-1.998.308-.483 1.452-1.998 3.698-1.998zm-4.32 1.855c0-.007 1.287-2.468 4.32-2.468 2.94 0 6.422 2.347 6.43 2.354l.378.256-.379.256c-.007.007-3.49 2.354-6.43 2.354-3.032 0-4.319-2.46-4.319-2.468l-.079-.142.079-.142zm18.502 1.863c-2.124 0-4.67-1.72-4.67-1.72s2.546-1.715 4.67-1.715 3.018 1.714 3.018 1.714-.894 1.721-3.018 1.721zm6.659-2.624c1.108 0 2.446.903 2.446.903s-1.338.903-2.446.903c-1.116 0-1.581-.903-1.581-.903s.465-.903 1.58-.903zm24.016 2.126c.236-.377.486-.718.758-1.017 1.237 1.252 2.646 2.319 4.499 2.319 2.982 0 6.537-2.397 6.544-2.404l.178-.12-.178-.122c-.007-.007-3.562-2.403-6.544-2.403-1.853 0-3.262 1.074-4.499 2.318a6.627 6.627 0 01-.758-1.017c-.35-.576-.594-1.145-.715-1.706-.122-.562-.143-1.089-.058-1.58.086-.49.258-.93.523-1.322a3.219 3.219 0 011-.96c.78-.476 1.546-.661 2.31-.562.759.1 1.524.349 2.282.733a23.67 23.67 0 012.332 1.358c.794.52 1.602.953 2.439 1.294a7.403 7.403 0 002.575.555c.886.028 1.816-.263 2.796-.86a4.542 4.542 0 001.445-1.387 5.177 5.177 0 00.78-1.913 5.902 5.902 0 00-.015-2.212c-.143-.775-.45-1.543-.923-2.296a5.758 5.758 0 00-1.401-1.572 6.762 6.762 0 00-1.638-.939c-.551-.213-1.066-.32-1.545-.32-.486 0-.873.086-1.173.263-.465.285-.758.676-.88 1.174-.121.498-.035.981.25 1.443.287.463.68.761 1.18.875.501.12.988.036 1.453-.249.464-.284.758-.675.88-1.173.12-.498.035-.982-.251-1.444a.792.792 0 00-.136-.17c-.057-.05-.107-.107-.165-.157-.057-.05-.114-.114-.178-.178a5.75 5.75 0 011.187.52c.35.191.722.447 1.108.782.387.327.744.76 1.066 1.287.322.526.536 1.052.637 1.578.1.527.114 1.017.042 1.48a3.387 3.387 0 01-.464 1.258 2.65 2.65 0 01-.873.882c-.78.476-1.545.661-2.31.562-.758-.1-1.523-.349-2.281-.733a23.729 23.729 0 01-2.332-1.358 14.377 14.377 0 00-2.439-1.294 7.247 7.247 0 00-2.589-.548c-.894-.021-1.824.263-2.79.854a5.058 5.058 0 00-1.573 1.486 5.04 5.04 0 00-.815 1.984c-.136.718-.121 1.486.036 2.297.157.81.48 1.621.98 2.425.25.405.515.76.8 1.08-.285.313-.55.676-.8 1.081-.494.804-.823 1.615-.98 2.425a6.227 6.227 0 00-.036 2.297 5.26 5.26 0 00.816 1.984 5.06 5.06 0 001.573 1.486c.965.59 1.895.875 2.79.854a7.245 7.245 0 002.588-.548 14.377 14.377 0 002.439-1.294c.794-.52 1.566-.974 2.332-1.358.765-.384 1.523-.633 2.281-.733.758-.1 1.53.086 2.31.562.343.206.63.505.873.882.236.377.393.796.465 1.258.071.463.057.953-.043 1.48a4.582 4.582 0 01-.637 1.578 5.44 5.44 0 01-1.066 1.287 6.51 6.51 0 01-1.108.782 5.91 5.91 0 01-1.187.52c.064-.072.121-.128.178-.178.058-.05.108-.107.165-.157.057-.05.1-.106.136-.17.286-.463.372-.946.25-1.444-.121-.498-.415-.889-.88-1.173-.464-.285-.95-.37-1.451-.249-.501.12-.894.412-1.18.875-.287.462-.372.945-.25 1.443.12.498.414.89.879 1.173.293.178.687.27 1.173.264.486 0 1.001-.107 1.545-.32a6.664 6.664 0 001.638-.939 5.644 5.644 0 001.401-1.572c.465-.76.773-1.529.923-2.297.143-.775.15-1.514.014-2.211a5.128 5.128 0 00-.78-1.913 4.542 4.542 0 00-1.444-1.386c-.98-.598-1.917-.882-2.797-.861a7.334 7.334 0 00-2.574.555c-.837.341-1.645.775-2.44 1.294-.793.519-1.565.974-2.33 1.358-.766.384-1.524.633-2.282.733-.758.1-1.53-.086-2.31-.562a3.219 3.219 0 01-1.001-.96 3.47 3.47 0 01-.523-1.323c-.085-.49-.064-1.017.058-1.579a5.165 5.165 0 01.715-1.735zm1.71-1.856c2.76-2.809 6.886-1.18 9.747.633-3.354 2.127-7.009 3.321-9.748.633a4.02 4.02 0 01-.465-.633 4.52 4.52 0 01.465-.633zm17.7 2.631c-2.181 0-4.72-1.407-5.685-1.998.965-.59 3.504-1.998 5.685-1.998 2.239 0 3.39 1.515 3.698 1.998-.308.484-1.452 1.998-3.698 1.998zm4.327-1.855c-.007.007-1.287 2.467-4.32 2.467-2.939 0-6.422-2.347-6.43-2.354l-.378-.256.379-.256c.007-.007 3.49-2.353 6.43-2.353 3.032 0 4.32 2.46 4.32 2.467l.078.142-.079.143zm-18.502-1.864c2.124 0 4.67 1.721 4.67 1.721s-2.546 1.721-4.67 1.721-3.018-1.72-3.018-1.72.894-1.722 3.018-1.722zM62.78 41.13c-1.116 0-2.446-.903-2.446-.903s1.33-.903 2.446-.903c1.115 0 1.58.903 1.58.903s-.472.903-1.58.903zM29.608 58.552c2.017-1.727 4.277-.824 4.277-.824s.558 2.36-1.452 4.081c-2.017 1.728-5.843 2.17-5.843 2.17s1.008-3.698 3.018-5.426zm.007-36.593c2.017 1.728 4.277.825 4.277.825s.558-2.361-1.452-4.082c-2.017-1.728-5.843-2.169-5.843-2.169s1.001 3.698 3.018 5.426zm43.734 36.594c-2.017-1.728-4.277-.825-4.277-.825s-.558 2.36 1.452 4.081c2.017 1.728 5.843 2.17 5.843 2.17s-1-3.698-3.018-5.426z"/><path fill-rule="evenodd" clip-rule="evenodd" d="M51.479 0a40.445 40.445 0 0128.607 11.783c7.324 7.282 11.851 17.337 11.851 28.444 0 11.108-4.527 21.163-11.85 28.444a40.445 40.445 0 01-28.608 11.783A40.445 40.445 0 0122.87 68.672c-7.323-7.282-11.85-17.338-11.85-28.446 0-11.107 4.527-21.162 11.85-28.444A40.474 40.474 0 0151.48 0zM79.02 12.843A38.949 38.949 0 0051.479 1.5a38.962 38.962 0 00-27.543 11.343c-7.044 7.004-11.407 16.69-11.407 27.384 0 10.695 4.363 20.373 11.407 27.385A38.949 38.949 0 0051.48 78.954a38.961 38.961 0 0027.54-11.342c7.044-7.004 11.407-16.69 11.407-27.385S86.065 19.854 79.02 12.843z"/><path d="M103.754 113.576H83.556v.497h20.198v-.497zm-83.492 0H.064v.497h20.198v-.497z"/><path fill-rule="evenodd" clip-rule="evenodd" d="M30.389 110.81c-.2 0-.38.042-.523.12a1.554 1.554 0 00-.65.662v3.918a2.39 2.39 0 00.75.995.897.897 0 00.566.185c.15 0 .3-.049.45-.142.15-.092.294-.256.422-.491.129-.227.23-.533.315-.91.086-.377.121-.839.121-1.394 0-.554-.042-1.024-.121-1.393-.086-.377-.193-.676-.33-.903-.135-.228-.285-.391-.457-.491a1.073 1.073 0 00-.543-.156zm.193-.264c.314 0 .615.072.908.214.286.142.55.355.773.626.228.277.407.611.543 1.002.136.398.2.846.2 1.351s-.071.953-.2 1.351a3.31 3.31 0 01-.522 1.003 2.18 2.18 0 01-.737.626c-.279.142-.55.213-.837.213-.264 0-.493-.05-.686-.149-.193-.1-.35-.214-.472-.334a1.884 1.884 0 01-.358-.498v.782h-1.838v-.128l.787-.199v-8.484l-.787-.199v-.128h1.838v3.591a1.38 1.38 0 01.315-.327c.114-.078.257-.149.43-.22.178-.057.392-.093.643-.093zm7.588 3.2c0 .555.043 1.024.122 1.394.085.377.193.676.328.91.136.228.287.391.458.491.172.092.35.142.53.142.228 0 .443-.042.643-.128a1.803 1.803 0 00.923-.889c.1-.206.172-.433.2-.675h.2c-.035.277-.114.54-.229.775a2.233 2.233 0 01-.45.619 2.02 2.02 0 01-1.416.561c-.336 0-.651-.071-.944-.213a2.378 2.378 0 01-.794-.626 3.214 3.214 0 01-.55-1.002 4.171 4.171 0 01-.201-1.352c0-.519.064-.981.2-1.386.129-.398.308-.733.522-.996.215-.263.465-.469.751-.604.286-.142.587-.206.901-.206.315 0 .615.071.902.206.286.142.536.341.75.604.215.263.387.598.523.996.128.398.2.86.2 1.386H38.17v-.007zm1.18-3.001a.77.77 0 00-.393.121c-.129.086-.25.228-.365.441-.114.206-.207.491-.279.839a7.909 7.909 0 00-.136 1.337h2.367a7.82 7.82 0 00-.136-1.337 3.194 3.194 0 00-.278-.839c-.115-.206-.236-.355-.365-.441a.912.912 0 00-.415-.121zm9.62 2.809c-.759 0-1.324.171-1.688.505-.365.334-.544.797-.544 1.394 0 .391.093.697.286.917.193.221.4.327.63.327a.927.927 0 00.557-.184c.165-.121.3-.256.415-.406a2.71 2.71 0 00.343-.59v-1.963zm-.98-2.809a.892.892 0 00-.658.271c-.172.177-.265.412-.265.711 0 .071 0 .128.007.185l.022.142a.453.453 0 00.043.128l-1.052.263a.366.366 0 01-.036-.107l-.021-.142c-.007-.05-.007-.121-.007-.206 0-.185.043-.356.129-.526a1.34 1.34 0 01.386-.455c.171-.135.379-.242.615-.328.243-.085.522-.12.837-.12.629 0 1.13.177 1.487.533.365.356.544.832.544 1.422v3.918l.786.199v.128H48.97v-.782a2.068 2.068 0 01-.364.498 1.975 1.975 0 01-.465.334c-.186.1-.415.15-.68.15-.629 0-1.108-.15-1.423-.441-.322-.299-.479-.69-.479-1.188 0-.242.064-.491.2-.732a2.04 2.04 0 01.615-.655c.28-.192.63-.348 1.059-.462.429-.121.944-.178 1.537-.178v-.782c0-.654-.1-1.109-.293-1.372-.2-.277-.429-.406-.686-.406zm11.321.328v5.354l.787.199v.128H58.26v-.782a2.073 2.073 0 01-.365.498 1.975 1.975 0 01-.465.334c-.186.1-.415.149-.68.149a1.81 1.81 0 01-1.316-.54 1.862 1.862 0 01-.385-.612 2.197 2.197 0 01-.136-.803v-3.918l-.787-.199v-.128h2.56v.128l-.722.199v3.918c0 .619.1 1.052.293 1.315.2.256.43.384.687.384a.927.927 0 00.558-.184c.164-.121.3-.256.415-.406.128-.163.243-.362.343-.59v-4.437l-.722-.199v-.128h2.56v.128l-.787.192zm7.853-.328v.264h-1.509v4.167c0 .533.093.917.286 1.159.193.242.4.355.63.355a1 1 0 00.758-.334c.207-.22.329-.547.357-.974h.2c-.035.498-.185.882-.45 1.152-.265.27-.6.412-.994.412-.558 0-1.009-.163-1.338-.49-.336-.327-.5-.754-.5-1.273v-4.181h-1.116v-.264h1.116v-1.5l1.051-.718v2.218h1.51v.007zm6.2 7.112a10.04 10.04 0 01-.407 1.024 3.022 3.022 0 01-.415.668 1.234 1.234 0 01-.443.356c-.15.071-.322.106-.508.106-.05 0-.1 0-.143-.007l-.129-.021a.612.612 0 01-.121-.036l-.2-.981a.485.485 0 00.121.035l.129.022c.043.007.093.007.143.007.522 0 .908-.1 1.151-.292.243-.199.43-.49.558-.881l.365-1.11-2.274-5.681-.787-.2v-.128h2.625v.128l-.723.2 1.667 4.167 1.352-4.032-.852-.327v-.129h1.967v.129l-.85.327-2.225 6.656zM89.8 103.201v-1.366c.272-.071.537-.163.794-.277a5.027 5.027 0 001.724-1.301 5.766 5.766 0 001.115-1.999c.243-.746.365-1.585.365-2.503 0-.917-.121-1.756-.365-2.503a5.894 5.894 0 00-1.115-1.998 4.955 4.955 0 00-1.724-1.301 4.751 4.751 0 00-.794-.278V88.31c1.931.15 3.569.868 4.913 2.155.766.725 1.338 1.529 1.717 2.41.379.875.572 1.828.572 2.866a7.297 7.297 0 01-.572 2.901 7.3 7.3 0 01-1.717 2.418c-1.344 1.266-2.982 1.984-4.913 2.141zm14.025-.064V88.395c0-.014 0-.028-.007-.042a.113.113 0 00-.029-.036c-.014-.007-.021-.021-.035-.021-.015-.007-.036-.007-.065-.007h-3.39c.179.256.308.547.401.867.093.349.143.733.143 1.152v12.857c.007.007.014.021.035.043l.043.035h2.768c.029 0 .05 0 .065-.007a.153.153 0 00.035-.021l.036-.043v-.035zM89.8 88.31v1.365a5.587 5.587 0 00-1.352-.163h-1.78a.793.793 0 00-.337.071.713.713 0 00-.279.206.944.944 0 00-.178.292c-.036.106-.058.22-.058.334v10.709c0 .121.022.235.058.334a.838.838 0 00.794.541h1.78c.48 0 .93-.057 1.352-.164v1.366a9.729 9.729 0 01-.787.028h-6.086l-.043-.035-.036-.043V90.294c0-.42-.05-.803-.143-1.152a2.765 2.765 0 00-.4-.867h6.708c.265.007.53.014.787.035zM46.56 98.92v-1.237h1.701c.694 0 .923-.335.673-1.003l-1.795-4.978a.647.647 0 00-.186-.299.516.516 0 00-.365-.135h-.036v-2.986h1.91c.1 0 .178.021.229.056.057.036.1.107.136.207l5.607 14.691h-2.918a.331.331 0 01-.2-.05.386.386 0 01-.122-.177l-1.259-3.485c-.136-.398-.443-.597-.93-.597H46.56v-.007zm11.713-8.62v12.857l.036.043.043.035h2.746c.029 0 .05 0 .065-.007a.153.153 0 00.035-.021l.036-.043V98.03c0-.185.029-.356.079-.512.057-.17.136-.313.25-.441l.229-.249c.35-.405.694-.391 1.037.05l4.52 6.023c.179.228.472.341.887.341h2.803l-6.43-8.376c-.321-.399-.314-.776.03-1.11l5.156-5.475H68a1.19 1.19 0 00-.472.085 1.06 1.06 0 00-.343.249c-1.588 1.842-3.383 3.591-4.985 5.433a.758.758 0 01-.243.17.504.504 0 01-.68-.263.72.72 0 01-.05-.284v-5.277c0-.014 0-.028-.007-.042a.115.115 0 00-.029-.036c-.014-.007-.021-.021-.035-.021-.015-.007-.036-.007-.065-.007h-3.368c.178.256.307.547.4.867.1.342.15.726.15 1.145zm19.396 12.836V88.395c0-.014 0-.028-.007-.042a.126.126 0 00-.028-.036c-.015-.007-.022-.021-.036-.021-.014-.007-.036-.007-.065-.007h-3.39c.18.256.308.547.4.867.094.349.144.733.144 1.152v12.857c.007.007.014.021.036.043l.043.035h2.767c.03 0 .05 0 .065-.007a.159.159 0 00.036-.021l.035-.043v-.035zM.944 98.564l-.923 1.686a.184.184 0 00-.021.085c0 .05.021.114.057.178l.007.007c.208.434.487.832.823 1.187.343.363.758.683 1.244.967a5.913 5.913 0 001.58.64 7.61 7.61 0 001.853.214c1.574 0 2.818-.413 3.726-1.245a4.04 4.04 0 001.016-1.393 4.3 4.3 0 00.336-1.721c0-.669-.121-1.287-.35-1.85a4.076 4.076 0 00-.43-.796 3.992 3.992 0 00-.564-.682 12.52 12.52 0 00-.658-.605 7.84 7.84 0 00-.644-.498c-.222-.149-.45-.298-.694-.44-.243-.143-.5-.285-.772-.434l-.143-.071-.193-.1c-.308-.156-.573-.299-.809-.42-.25-.135-.457-.248-.607-.334a4.274 4.274 0 01-.966-.775 2.12 2.12 0 01-.365-.54 1.54 1.54 0 01-.128-.612c0-.277.05-.526.15-.754.107-.227.257-.426.465-.597.2-.156.429-.277.7-.355a3.495 3.495 0 011.845.021c.315.092.616.22.888.398.257.17.493.349.693.54.208.193.386.399.537.612.021.029.043.05.064.064l.029.007.793-1.308a.452.452 0 00.058-.22c0-.029-.015-.05-.036-.072a4.686 4.686 0 00-1.73-1.038c-.68-.235-1.467-.356-2.354-.356a5.91 5.91 0 00-1.824.264 4.69 4.69 0 00-1.501.775c-.437.334-.773.718-.987 1.152a3.285 3.285 0 00-.344 1.472c0 .327.029.633.079.917a3.803 3.803 0 001.209 2.155 9.4 9.4 0 001.337 1.024c.222.142.472.284.744.434.279.149.586.312.915.469 1.037.505 1.81.974 2.303 1.4.28.242.494.52.637.84.143.32.207.668.207 1.045a2.264 2.264 0 01-.765 1.757c-.25.22-.55.384-.901.49a3.745 3.745 0 01-1.137.157c-1.059 0-2.01-.37-2.854-1.117a5.047 5.047 0 01-1.016-1.209 4.32 4.32 0 01-.579-1.415zM46.56 88.282v2.986a.599.599 0 00-.329.121.594.594 0 00-.207.313l-1.867 4.978c-.05.135-.071.256-.071.362 0 .136.035.257.107.356a.607.607 0 00.307.235c.093.035.2.05.315.05h1.752v1.237h-2.603c-.2 0-.372.05-.522.156a.88.88 0 00-.315.441l-1.258 3.492a.34.34 0 01-.122.177.37.37 0 01-.2.05h-1.68l4.905-12.8c.18-.49.272-.917.272-1.273 0-.163-.014-.313-.05-.462a1.763 1.763 0 00-.143-.412v-.007h1.71zm-18.895 0h-2.69c-.028 0-.05.007-.064.007a.153.153 0 00-.035.021c-.015.014-.022.028-.03.036l-.006.042v5.725a.84.84 0 01-.258.618.877.877 0 01-.6.256h-4.964c-.264 0-.48-.078-.63-.241-.15-.157-.221-.37-.221-.633v-5.725c0-.014 0-.035-.007-.042-.007-.008-.014-.022-.029-.036-.014-.014-.021-.021-.035-.021a.16.16 0 00-.065-.007h-3.369c.18.256.308.547.401.867.1.349.143.733.143 1.152v12.857l.036.043.043.035h2.746c.029 0 .05 0 .064-.007.015-.007.03-.014.036-.021a.192.192 0 00.036-.043v-6.073c0-.583.286-.874.858-.874h4.964a.878.878 0 01.6.256.905.905 0 01.265.619v6.072l.036.043c.014.014.021.021.036.021a.162.162 0 00.064.007h2.69c.028 0 .05 0 .064-.007a.153.153 0 00.035-.021.192.192 0 00.036-.043V88.402c0-.014 0-.035-.007-.042-.007-.007-.014-.022-.029-.036-.014-.014-.021-.021-.035-.021-.036-.021-.058-.021-.08-.021zm8.36 14.855V88.395c0-.014 0-.028-.007-.042a.125.125 0 00-.028-.036c-.015-.007-.022-.021-.036-.021-.014-.007-.036-.007-.064-.007H32.5c.178.256.307.547.4.867.1.349.143.733.143 1.152v12.857c.007.007.014.021.036.043l.043.035h2.768c.028 0 .05 0 .064-.007a.159.159 0 00.036-.021l.028-.043.008-.035z"/></g><defs><clipPath id="clip0_75_36"><path fill="#fff" d="M0 0h104v120H0z"/></clipPath></defs></svg>