<svg width="186" height="219" fill="none" xmlns="http://www.w3.org/2000/svg"><path fill-rule="evenodd" clip-rule="evenodd" d="M159.729 188.023v-2.463a8.444 8.444 0 001.411-.494c1.15-.52 2.169-1.303 3.059-2.344.881-1.032 1.54-2.231 1.983-3.599.434-1.348.651-2.852.651-4.51 0-1.657-.217-3.162-.651-4.513a10.34 10.34 0 00-1.983-3.595c-.89-1.041-1.909-1.824-3.059-2.349a8.628 8.628 0 00-1.411-.494V161.2c3.428.271 6.344 1.565 8.739 3.875 1.359 1.307 2.374 2.755 3.051 4.338.672 1.579 1.011 3.298 1.011 5.157 0 1.889-.339 3.63-1.011 5.222-.677 1.592-1.692 3.044-3.051 4.356-2.399 2.309-5.311 3.604-8.739 3.875zm24.929-.11v-26.569a.166.166 0 00-.013-.074.212.212 0 00-.048-.066c-.022-.017-.043-.035-.065-.044a.301.301 0 00-.117-.017h-6.027c.312.455.551.979.711 1.57.174.625.256 1.316.256 2.073l.005 23.158c.008.018.03.044.056.074l.07.057 4.925.005a.306.306 0 00.117-.018.174.174 0 00.065-.044l.056-.074.009-.031zM159.729 161.2v2.462a9.789 9.789 0 00-2.408-.289h-3.167c-.209 0-.408.044-.599.123a1.495 1.495 0 00-.503.367 1.532 1.532 0 00-.317.525c-.07.188-.104.394-.104.604v19.287c0 .214.034.415.108.604.078.205.187.38.334.524.295.298.655.446 1.081.446h3.167c.846 0 1.649-.096 2.408-.288v2.462c-.459.035-.928.057-1.405.057l-10.822-.004-.07-.057-.056-.075-.004-23.158c0-.756-.087-1.447-.256-2.073a5.247 5.247 0 00-.712-1.57h11.924c.473-.004.942.018 1.401.053zm-76.85 19.112v-2.226h3.029c1.236 0 1.635-.604 1.197-1.811l-3.193-8.97a1.07 1.07 0 00-.33-.538.941.941 0 00-.647-.24h-.06v-5.38h3.388c.178 0 .313.035.408.101.096.07.178.192.239.367l9.967 26.465h-5.194a.613.613 0 01-.352-.088c-.086-.061-.156-.166-.216-.319l-2.24-6.281c-.238-.717-.785-1.075-1.648-1.075h-4.348v-.005zm20.815-15.526l.004 23.158.061.074.069.057 4.886.005a.3.3 0 00.117-.018.202.202 0 00.065-.044l.057-.074.004-9.25c0-.337.044-.647.135-.927a2.12 2.12 0 01.442-.788l.404-.446c.625-.734 1.236-.708 1.844.083l8.032 10.847c.316.407.846.612 1.579.612h4.977l-11.403-15.062c-.573-.722-.556-1.391.048-2.003l9.168-9.867h-3.193a2.12 2.12 0 00-.847.157c-.23.101-.433.254-.603.455-2.824 3.324-6.009 6.473-8.86 9.784a1.46 1.46 0 01-.425.306.878.878 0 01-1.202-.472l-.005-.005a1.356 1.356 0 01-.095-.516v-9.504a.185.185 0 00-.013-.074.212.212 0 00-.048-.066c-.022-.017-.043-.035-.065-.043a.3.3 0 00-.117-.018h-5.988c.312.455.551.98.711 1.57.174.621.261 1.312.261 2.069zm34.479 23.127v-26.569a.182.182 0 00-.013-.074.212.212 0 00-.048-.066c-.022-.017-.044-.035-.065-.044a.308.308 0 00-.117-.017h-6.027c.312.455.551.979.711 1.57.174.625.256 1.316.256 2.073l.004 23.158a.462.462 0 00.057.074l.069.057 4.925.005a.3.3 0 00.117-.018.167.167 0 00.065-.044l.057-.074.009-.031zM1.802 179.678l-1.645 3.04a.277.277 0 00-.039.153.776.776 0 00.1.323l.009.009c.373.787.863 1.5 1.466 2.143a10.3 10.3 0 002.218 1.75 10.55 10.55 0 002.803 1.154 13.33 13.33 0 003.289.389c2.794 0 5.003-.747 6.621-2.243.803-.744 1.406-1.579 1.806-2.506.399-.927.598-1.96.598-3.097 0-1.202-.208-2.318-.629-3.337a8.195 8.195 0 00-1.757-2.668 20.25 20.25 0 00-1.172-1.093 15.401 15.401 0 00-1.141-.892c-.39-.276-.803-.543-1.228-.801a29.171 29.171 0 00-1.375-.778l-.26-.123-.348-.183a85.013 85.013 0 01-1.436-.757c-.447-.24-.807-.442-1.08-.603a7.73 7.73 0 01-.908-.63 8.408 8.408 0 01-.815-.77 3.71 3.71 0 01-.651-.98 2.732 2.732 0 01-.234-1.102c0-.498.09-.953.273-1.36a2.91 2.91 0 01.824-1.072 3.508 3.508 0 011.241-.642 5.298 5.298 0 011.515-.202c.62 0 1.21.079 1.77.241.564.162 1.09.402 1.57.722.46.301.873.629 1.238.975.364.345.685.717.95 1.106a.34.34 0 00.113.114l.047.018 1.41-2.358c.079-.166.113-.302.109-.402a.21.21 0 00-.065-.131 8.338 8.338 0 00-3.077-1.872c-1.215-.424-2.607-.639-4.182-.639-1.176 0-2.257.158-3.242.468a8.582 8.582 0 00-2.664 1.391c-.781.604-1.367 1.299-1.757 2.082-.39.783-.59 1.666-.604 2.65.005.586.053 1.137.148 1.649a7.52 7.52 0 00.425 1.465c.187.455.421.884.708 1.29.286.407.624.788 1.006 1.133a17.833 17.833 0 002.374 1.85c.395.249.833.512 1.314.779.5.275 1.046.559 1.628.844 1.844.914 3.21 1.754 4.096 2.519a4.25 4.25 0 011.128 1.509c.247.573.373 1.198.373 1.885 0 .643-.113 1.229-.338 1.758a3.838 3.838 0 01-1.02 1.404c-.447.394-.98.691-1.601.883-.599.188-1.272.28-2.014.28-1.883 0-3.57-.673-5.068-2.012a9.338 9.338 0 01-1.805-2.178 8.321 8.321 0 01-1.015-2.545zm81.077-18.535v5.379a1.002 1.002 0 00-.586.219c-.178.14-.3.328-.364.564l-3.311 8.97-.004.005c-.087.24-.13.459-.13.656 0 .24.06.455.186.643.13.192.312.332.542.42.165.061.356.091.564.091h3.107v2.227H78.25c-.356 0-.664.096-.924.279-.26.189-.447.455-.56.796l-2.239 6.285a.66.66 0 01-.217.32.62.62 0 01-.351.087h-2.986l8.718-23.057c.32-.888.486-1.654.486-2.301 0-.289-.03-.569-.087-.831a3.696 3.696 0 00-.252-.739l-.004-.009h3.046v-.004zm-33.59 0h-4.773a.304.304 0 00-.117.017.218.218 0 00-.117.11l-.009.074v10.313c0 .433-.151.805-.46 1.111-.138.14-.299.253-.477.332a1.356 1.356 0 01-.586.131h-8.825c-.473 0-.85-.144-1.124-.437-.265-.28-.4-.66-.4-1.137v-10.313a.172.172 0 00-.012-.074.374.374 0 00-.048-.066.158.158 0 00-.065-.044.304.304 0 00-.117-.017H26.17c.312.455.55.979.711 1.57.174.625.256 1.316.256 2.073v23.158l.06.074.07.057 4.882.005a.303.303 0 00.117-.018.21.21 0 00.065-.044.23.23 0 00.057-.074l.004-10.947c0-1.05.508-1.575 1.523-1.575h8.826c.2 0 .395.044.581.127.178.079.339.193.482.337a1.575 1.575 0 01.46 1.111v10.947l.06.074a.19.19 0 00.066.044c.03.013.07.018.117.018h4.773a.302.302 0 00.117-.018.17.17 0 00.065-.044.23.23 0 00.056-.074l.005-26.596a.174.174 0 00-.013-.074.418.418 0 00-.048-.066.188.188 0 00-.065-.043.226.226 0 00-.109-.022zm14.862 26.77v-26.569a.17.17 0 00-.06-.14c-.022-.017-.044-.035-.066-.044a.305.305 0 00-.117-.017h-6.027c.313.455.551.979.712 1.57.173.625.256 1.316.256 2.073l.004 23.158c.009.018.03.044.056.074l.07.057 4.925.005a.302.302 0 00.117-.018.168.168 0 00.065-.044l.056-.074.01-.031zm67.105-147.726c-3.58 3.11-7.602 1.487-7.602 1.487s-.998-4.25 2.586-7.36c3.58-3.11 10.379-3.901 10.379-3.901s-1.783 6.665-5.363 9.774zm-46.134 46.88h-.737v-9.302h.737c.916 5.165 3.584 7.741 8.01 7.741 1.528 0 2.803-.415 3.819-1.242 1.015-.826 1.531-1.893 1.531-3.197 0-1.47-.75-2.773-2.239-3.923-3.532-2.082-6.426-3.862-8.708-5.362-2.27-1.5-3.398-3.486-3.398-5.952 0-2.038.75-3.735 2.27-5.091 1.51-1.365 3.375-2.047 5.606-2.047 1.449 0 2.955.35 4.547 1.054.75.341 1.272.507 1.57.507.7 0 1.15-.529 1.377-1.561h.728v9.386h-.728c-.391-2.773-1.294-4.759-2.7-5.97-1.418-1.212-2.998-1.81-4.742-1.81-1.306 0-2.434.401-3.367 1.21-.933.796-1.406 1.78-1.406 2.94 0 .756.317 1.552.954 2.392.638.848 2.556 2.143 5.758 3.87 1.962 1.068 3.45 1.938 4.465 2.62 1.007.683 1.849 1.575 2.526 2.66a6.56 6.56 0 011.015 3.538c0 2.16-.811 3.953-2.443 5.392-1.623 1.44-3.636 2.152-6.018 2.152-1.293 0-2.894-.32-4.804-.953-1.171-.394-1.983-.59-2.42-.59-.647 0-1.05.507-1.203 1.539zm9.447-36.75c1.024.634 2.043 1.058 3.05 1.277 1.007.218 1.948.253 2.825.1a6.197 6.197 0 002.365-.927 5.678 5.678 0 001.718-1.789c.846-1.395 1.18-2.773.998-4.133-.182-1.36-.621-2.724-1.311-4.09a42.665 42.665 0 00-2.429-4.176 26.286 26.286 0 01-2.318-4.369 13.045 13.045 0 01-.993-4.614c-.048-1.583.464-3.254 1.531-5.012a8.237 8.237 0 012.487-2.585 9.247 9.247 0 013.419-1.4c1.254-.244 2.573-.236 3.957.022 1.385.263 2.756.81 4.114 1.65 1.137.699 2.074 1.539 2.812 2.514.742.975 1.297 1.95 1.67 2.935.378.98.569 1.902.573 2.773.004.865-.152 1.565-.473 2.094-.512.84-1.211 1.365-2.105 1.58-.893.218-1.753.065-2.586-.447-.828-.512-1.353-1.22-1.57-2.117-.213-.9-.065-1.767.442-2.606.508-.836 1.211-1.365 2.105-1.58.894-.214 1.753-.065 2.586.447.113.07.212.149.308.25.095.095.186.192.282.288.095.096.204.201.321.315a10.331 10.331 0 00-.933-2.13c-.338-.63-.803-1.29-1.393-1.981-.59-.691-1.354-1.326-2.295-1.907-.942-.582-1.883-.958-2.821-1.137-.941-.18-1.818-.202-2.638-.075a5.807 5.807 0 00-2.247.831c-.677.424-1.202.945-1.576 1.562-.846 1.395-1.18 2.773-.998 4.133.183 1.36.621 2.724 1.311 4.089a43.253 43.253 0 002.43 4.181 26.273 26.273 0 012.317 4.365c.616 1.496.941 3.04.98 4.636.04 1.596-.468 3.263-1.518 4.995a9.008 9.008 0 01-2.66 2.82 9.15 9.15 0 01-3.545 1.466c-1.289.24-2.656.218-4.105-.062-1.45-.28-2.894-.866-4.335-1.753a13.517 13.517 0 01-1.926-1.435c-.564.512-1.207.993-1.927 1.435-1.44.887-2.886 1.474-4.33 1.753-1.45.28-2.82.302-4.105.062a9.267 9.267 0 01-3.55-1.465 9.105 9.105 0 01-2.66-2.822c-1.05-1.731-1.557-3.393-1.518-4.994.039-1.596.364-3.145.98-4.636a26.237 26.237 0 012.318-4.365 42.811 42.811 0 002.43-4.181c.694-1.369 1.128-2.73 1.31-4.09.182-1.36-.152-2.737-.998-4.132-.373-.613-.898-1.133-1.575-1.562a5.96 5.96 0 00-2.248-.83c-.82-.128-1.7-.101-2.638.074-.942.179-1.879.555-2.82 1.137-.942.581-1.71 1.216-2.296 1.907-.59.69-1.055 1.351-1.393 1.98a10.68 10.68 0 00-.933 2.13c.122-.113.23-.218.321-.314.096-.096.187-.193.282-.289.096-.096.196-.18.308-.25.834-.51 1.693-.66 2.587-.445.893.214 1.596.743 2.104 1.579.512.84.655 1.705.443 2.606-.213.901-.738 1.605-1.567 2.117s-1.692.665-2.586.446c-.894-.214-1.592-.743-2.104-1.579-.322-.529-.482-1.229-.478-2.095.005-.866.2-1.793.573-2.772.373-.98.933-1.96 1.67-2.935.743-.975 1.68-1.815 2.817-2.515 1.353-.835 2.729-1.386 4.113-1.649 1.384-.258 2.704-.266 3.957-.022a9.244 9.244 0 013.424 1.4 8.124 8.124 0 012.482 2.585c1.072 1.758 1.58 3.429 1.532 5.012a13.02 13.02 0 01-.994 4.614 26.45 26.45 0 01-2.317 4.37 43.263 43.263 0 00-2.43 4.176c-.694 1.369-1.128 2.733-1.315 4.09-.182 1.36.152 2.737.998 4.132a5.617 5.617 0 001.719 1.79 6.058 6.058 0 002.365.926c.872.153 1.813.118 2.824-.1 1.011-.219 2.027-.648 3.05-1.277a11.85 11.85 0 001.819-1.36c-2.23-2.227-4.148-4.742-4.148-8.066 0-5.344 4.282-11.707 4.295-11.725l.213-.324.217.324c.009.017 4.296 6.381 4.296 11.726 0 3.323-1.914 5.843-4.149 8.064.525.49 1.129.945 1.805 1.36zm-3.311-3.066c.503.446.928.717 1.128.835.2-.118.625-.394 1.128-.835 4.803-4.903 2.664-11.46-1.128-17.464-3.241 5.13-6.153 12.508-1.128 17.464zm4.699-31.713c0-4.015-2.708-6.066-3.567-6.617-.859.55-3.57 2.602-3.57 6.617 0 3.905 2.516 8.458 3.57 10.19 1.05-1.732 3.567-6.285 3.567-10.19zm-3.31-7.746l-.261-.14-.26.14c-.013.005-4.405 2.31-4.405 7.742 0 5.27 4.2 11.506 4.214 11.524l.45.678.452-.678c.013-.018 4.21-6.254 4.21-11.524.004-5.432-4.388-7.733-4.4-7.742zm-3.33 33.148c0 3.805 3.072 5.414 3.072 5.414s3.068-1.61 3.068-5.414c0-3.805-3.068-8.367-3.068-8.367s-3.072 4.562-3.072 8.367zm4.678 11.926c0-1.994-1.61-2.838-1.61-2.838s-1.61.844-1.61 2.838c0 1.99 1.61 4.383 1.61 4.383s1.61-2.388 1.61-4.383zm-3.793 43.028c-1.024-.635-2.04-1.059-3.05-1.278-1.007-.218-1.948-.253-2.825-.1a6.195 6.195 0 00-2.365.927 5.664 5.664 0 00-1.718 1.789c-.85 1.395-1.18 2.773-.998 4.133.182 1.36.62 2.725 1.31 4.094a43.651 43.651 0 002.43 4.176A26.254 26.254 0 0185.304 114c.617 1.496.946 3.031.994 4.614.048 1.584-.464 3.254-1.532 5.012a8.215 8.215 0 01-2.486 2.581 9.254 9.254 0 01-3.42 1.399c-1.253.245-2.572.237-3.957-.026-1.384-.258-2.755-.809-4.113-1.644-1.137-.7-2.074-1.54-2.812-2.515-.742-.975-1.297-1.955-1.675-2.935-.373-.98-.564-1.902-.572-2.773-.005-.866.151-1.565.473-2.095.507-.835 1.21-1.364 2.104-1.578.894-.215 1.753-.066 2.586.446.829.511 1.354 1.22 1.567 2.121.212.901.069 1.771-.443 2.606-.508.836-1.21 1.365-2.105 1.579-.893.215-1.757.066-2.586-.446a1.619 1.619 0 01-.308-.245c-.095-.096-.186-.192-.282-.288a9.814 9.814 0 00-.32-.315c.216.708.524 1.421.932 2.13.338.629.803 1.294 1.393 1.981.59.691 1.354 1.325 2.295 1.907.942.581 1.883.962 2.82 1.137.938.179 1.819.201 2.639.074a5.838 5.838 0 002.248-.831c.677-.424 1.202-.944 1.575-1.561.85-1.395 1.18-2.773.998-4.133-.182-1.36-.62-2.725-1.31-4.094a42.849 42.849 0 00-2.43-4.177 26.1 26.1 0 01-2.318-4.369 12.87 12.87 0 01-.98-4.636c-.04-1.596.468-3.262 1.518-4.99a9.04 9.04 0 012.656-2.82 9.238 9.238 0 013.55-1.466c1.288-.24 2.655-.219 4.104.061 1.45.28 2.894.866 4.335 1.754.72.446 1.363.923 1.927 1.439a13.216 13.216 0 011.926-1.439c1.44-.888 2.886-1.474 4.33-1.754 1.45-.28 2.817-.302 4.105-.061a9.27 9.27 0 013.55 1.465 9.038 9.038 0 012.655 2.821c1.05 1.732 1.558 3.394 1.523 4.99a12.872 12.872 0 01-.98 4.636 26.445 26.445 0 01-2.317 4.369 43.387 43.387 0 00-2.43 4.177c-.694 1.369-1.128 2.734-1.311 4.094-.182 1.36.152 2.738.998 4.133.374.612.899 1.133 1.575 1.561a5.88 5.88 0 002.248.831c.82.127 1.701.101 2.638-.074.942-.179 1.879-.556 2.821-1.137.941-.582 1.705-1.216 2.295-1.907.59-.691 1.055-1.352 1.393-1.981.408-.713.716-1.422.933-2.13-.122.113-.23.218-.321.315-.096.096-.187.192-.282.288-.096.097-.195.18-.308.245-.829.512-1.692.661-2.586.446-.894-.214-1.593-.743-2.105-1.579-.508-.835-.655-1.705-.442-2.606.212-.901.737-1.605 1.566-2.121.829-.512 1.692-.661 2.586-.446.894.218 1.593.743 2.105 1.578.321.53.481 1.229.473 2.095-.005.866-.196 1.793-.573 2.773-.373.98-.933 1.96-1.671 2.935-.742.975-1.679 1.815-2.812 2.515-1.358.839-2.729 1.386-4.113 1.644-1.384.258-2.703.267-3.957.026a9.244 9.244 0 01-3.424-1.399 8.157 8.157 0 01-2.482-2.581c-1.067-1.758-1.58-3.428-1.532-5.012.048-1.583.378-3.122.994-4.614a26.29 26.29 0 012.317-4.365 43.255 43.255 0 002.43-4.176c.69-1.369 1.128-2.734 1.31-4.094.183-1.36-.151-2.738-.998-4.133a5.652 5.652 0 00-1.713-1.789 6.059 6.059 0 00-2.365-.927c-.873-.153-1.814-.118-2.825.1-1.011.22-2.026.648-3.05 1.278-.677.415-1.285.87-1.819 1.36 2.23 2.221 4.149 4.741 4.149 8.065 0 5.344-4.283 11.708-4.296 11.725l-.213.319-.212-.319c-.013-.017-4.296-6.381-4.296-11.725 0-3.324 1.913-5.844 4.148-8.065a10.896 10.896 0 00-1.8-1.36zm3.315 3.066a7.839 7.839 0 00-1.128-.836c-.2.118-.625.394-1.128.836-4.803 4.902-2.664 11.458 1.128 17.463 3.242-5.13 6.149-12.508 1.128-17.463zm-4.699 31.712c0 4.015 2.708 6.066 3.571 6.617.86-.551 3.567-2.602 3.567-6.617 0-3.905-2.517-8.458-3.567-10.19-1.054 1.732-3.57 6.285-3.57 10.19zm3.31 7.741l.261.14.26-.14c.014-.008 4.405-2.309 4.405-7.741 0-5.27-4.2-11.507-4.21-11.524l-.45-.678-.456.678c-.013.017-4.209 6.254-4.209 11.524-.009 5.437 4.387 7.737 4.4 7.741zm3.329-33.142c0-3.805-3.072-5.415-3.072-5.415s-3.072 1.61-3.072 5.415c0 3.805 3.072 8.362 3.072 8.362s3.072-4.557 3.072-8.362zm-4.682-11.927c0 1.994 1.61 2.838 1.61 2.838s1.61-.844 1.61-2.838c0-1.995-1.61-4.382-1.61-4.382s-1.61 2.387-1.61 4.382zM69.78 70.907a12.195 12.195 0 01-1.35 1.837c-2.204-2.252-4.703-4.18-8-4.18-5.303 0-11.617 4.316-11.634 4.329l-.321.219.32.214c.018.013 6.332 4.33 11.634 4.33 3.298 0 5.793-1.933 8.002-4.181.485.542.937 1.154 1.349 1.832.63 1.032 1.05 2.056 1.267 3.075.217 1.014.252 1.963.1 2.847a6.231 6.231 0 01-.92 2.384 5.66 5.66 0 01-1.775 1.731c-1.384.858-2.75 1.19-4.1 1.007-1.35-.184-2.704-.626-4.062-1.321a42.245 42.245 0 01-4.144-2.45 25.945 25.945 0 00-4.334-2.335 12.747 12.747 0 00-4.578-1.002c-1.571-.048-3.228.468-4.973 1.544a8.15 8.15 0 00-2.56 2.502 9.4 9.4 0 00-1.389 3.45c-.242 1.265-.234 2.59.022 3.99.256 1.395.803 2.777 1.636 4.145.694 1.146 1.527 2.091 2.495 2.839.968.748 1.935 1.308 2.912 1.684.972.38 1.887.573 2.75.577.86.004 1.554-.153 2.08-.481.832-.512 1.353-1.22 1.566-2.121.217-.901.065-1.767-.443-2.607-.508-.84-1.21-1.364-2.105-1.579-.893-.218-1.753-.07-2.586.446-.833.512-1.353 1.22-1.566 2.122-.213.9-.065 1.767.442 2.606.07.114.148.215.248.31.095.093.19.189.286.285.096.096.2.201.313.324a10.402 10.402 0 01-2.113-.94c-.625-.342-1.28-.81-1.966-1.404-.686-.595-1.315-1.365-1.892-2.314-.577-.95-.95-1.898-1.128-2.847-.178-.945-.2-1.833-.074-2.66a5.92 5.92 0 01.824-2.265c.421-.682.938-1.212 1.55-1.588 1.384-.857 2.75-1.19 4.1-1.005 1.35.183 2.703.625 4.057 1.325a42.823 42.823 0 014.148 2.449 25.912 25.912 0 004.33 2.335c1.485.621 3.017.95 4.6.989 1.584.04 3.237-.472 4.956-1.53a8.994 8.994 0 002.798-2.682 9.296 9.296 0 001.454-3.578c.239-1.298.217-2.676-.06-4.137-.278-1.46-.86-2.913-1.74-4.365a12.972 12.972 0 00-1.424-1.942c.508-.568.985-1.216 1.423-1.942.881-1.451 1.463-2.908 1.74-4.364.278-1.461.3-2.839.061-4.138a9.373 9.373 0 00-1.454-3.573 9.092 9.092 0 00-2.798-2.68c-1.719-1.06-3.368-1.571-4.956-1.532-1.583.04-3.12.368-4.6.989-1.479.62-2.924 1.4-4.33 2.335a43.176 43.176 0 01-4.148 2.45c-1.358.7-2.708 1.137-4.057 1.32-1.35.184-2.716-.153-4.1-1.006-.608-.376-1.124-.905-1.55-1.587a6.066 6.066 0 01-.824-2.266c-.126-.826-.1-1.714.074-2.659.178-.945.55-1.894 1.128-2.843.577-.949 1.206-1.723 1.892-2.313.685-.595 1.34-1.063 1.966-1.404a10.23 10.23 0 012.113-.94 7.641 7.641 0 01-.313.323c-.095.096-.19.188-.286.284a1.687 1.687 0 00-.248.31c-.507.84-.655 1.707-.442 2.608.212.9.737 1.609 1.566 2.12.833.512 1.693.661 2.587.447.893-.219 1.592-.744 2.104-1.583.508-.836.66-1.706.443-2.607-.213-.901-.738-1.605-1.567-2.121-.525-.324-1.22-.486-2.078-.477-.86.004-1.78.197-2.751.577-.972.377-1.944.94-2.912 1.684s-1.8 1.693-2.495 2.834c-.833 1.37-1.376 2.751-1.636 4.146-.256 1.396-.264 2.725-.021 3.99a9.35 9.35 0 001.388 3.445 8.212 8.212 0 002.56 2.507c1.745 1.075 3.402 1.592 4.973 1.543a12.75 12.75 0 004.578-1.001 26.11 26.11 0 004.334-2.336 42.768 42.768 0 014.144-2.449c1.358-.7 2.712-1.137 4.062-1.32 1.35-.184 2.716.152 4.1 1.005a5.613 5.613 0 011.775 1.732 6.18 6.18 0 01.92 2.384c.152.879.117 1.828-.1 2.847-.217.988-.638 2.012-1.267 3.048zm-3.046 3.337c-4.912 5.065-12.237 2.13-17.326-1.137 5.957-3.827 12.462-5.983 17.326-1.137.438.508.712.936.829 1.137-.117.201-.386.63-.83 1.137zm-31.459-4.736c3.88 0 8.392 2.537 10.11 3.6-1.718 1.062-6.23 3.599-10.11 3.599-3.983 0-6.018-2.73-6.565-3.6.542-.87 2.577-3.6 6.565-3.6zm-7.684 3.337c.004-.013 2.29-4.44 7.68-4.44 5.228 0 11.416 4.234 11.433 4.247l.673.455-.673.455c-.017.013-6.205 4.243-11.433 4.243-5.394 0-7.676-4.427-7.68-4.44l-.14-.262.14-.258zm32.886 3.354c-3.775 0-8.3-3.096-8.3-3.096s4.525-3.092 8.3-3.092c3.775 0 5.367 3.092 5.367 3.092s-1.592 3.096-5.367 3.096zm11.833-4.714c1.974 0 4.347 1.622 4.347 1.622s-2.369 1.623-4.347 1.623c-1.979 0-2.816-1.623-2.816-1.623s.837-1.622 2.816-1.622zm42.684 3.822a12.17 12.17 0 011.349-1.837c2.205 2.253 4.704 4.181 8.002 4.181 5.302 0 11.616-4.316 11.633-4.33l.317-.214-.317-.214c-.017-.013-6.331-4.33-11.633-4.33-3.298 0-5.793 1.933-8.002 4.181a12.357 12.357 0 01-1.349-1.832c-.629-1.032-1.05-2.06-1.267-3.075-.217-1.015-.252-1.964-.1-2.843s.46-1.675.92-2.383a5.591 5.591 0 011.775-1.728c1.384-.857 2.751-1.19 4.1-1.006 1.35.184 2.703.626 4.062 1.321a42.89 42.89 0 014.143 2.45 25.77 25.77 0 004.335 2.335c1.48.62 3.007.953 4.578 1.001 1.571.048 3.228-.468 4.973-1.544a8.194 8.194 0 002.56-2.501 9.41 9.41 0 001.388-3.451c.243-1.264.235-2.594-.026-3.989-.256-1.395-.802-2.777-1.631-4.146-.694-1.146-1.528-2.09-2.495-2.834-.968-.743-1.94-1.308-2.912-1.684-.972-.376-1.887-.568-2.751-.577-.859-.005-1.553.153-2.078.477-.829.511-1.354 1.22-1.567 2.12-.212.902-.065 1.768.443 2.608.508.835 1.211 1.364 2.104 1.578.894.215 1.758.066 2.587-.446.828-.511 1.353-1.22 1.566-2.121.213-.9.065-1.767-.443-2.607a1.623 1.623 0 00-.243-.31c-.095-.096-.191-.188-.286-.284-.095-.097-.2-.202-.312-.324.703.219 1.41.53 2.113.94.625.341 1.284.81 1.965 1.404.686.595 1.315 1.365 1.892 2.314.577.949.955 1.898 1.128 2.843.178.949.2 1.832.074 2.659a5.952 5.952 0 01-.824 2.265c-.421.682-.938 1.212-1.549 1.588-1.385.853-2.751 1.19-4.101 1.006-1.349-.184-2.703-.626-4.061-1.321a42.301 42.301 0 01-4.144-2.45 25.77 25.77 0 00-4.335-2.335 12.605 12.605 0 00-4.599-.988c-1.584-.04-3.237.472-4.951 1.535a9.029 9.029 0 00-2.799 2.677 9.378 9.378 0 00-1.454 3.573c-.238 1.299-.217 2.676.061 4.137.278 1.461.859 2.917 1.74 4.37.443.725.916 1.373 1.428 1.941a13.311 13.311 0 00-1.428 1.942c-.881 1.452-1.462 2.909-1.74 4.365-.278 1.46-.299 2.838-.061 4.137a9.427 9.427 0 001.454 3.578 9.03 9.03 0 002.799 2.677c1.718 1.058 3.367 1.57 4.951 1.53a12.605 12.605 0 004.599-.988 25.94 25.94 0 004.335-2.336 42.776 42.776 0 014.144-2.449c1.358-.695 2.712-1.137 4.061-1.32 1.35-.184 2.716.153 4.101 1.005.607.376 1.123.906 1.549 1.588.421.682.698 1.439.824 2.265.126.827.1 1.715-.074 2.66-.177.949-.551 1.893-1.128 2.842-.577.95-1.206 1.72-1.892 2.314-.685.595-1.34 1.063-1.965 1.404-.708.407-1.41.722-2.113.94a7.46 7.46 0 01.312-.323c.095-.097.191-.189.286-.285.096-.096.178-.197.243-.31.508-.836.656-1.706.443-2.607-.217-.9-.738-1.605-1.566-2.121-.829-.512-1.693-.66-2.587-.446-.893.214-1.592.743-2.104 1.579-.508.835-.655 1.705-.443 2.606.213.901.738 1.606 1.567 2.121.525.324 1.219.486 2.078.477.859-.004 1.779-.197 2.751-.577.972-.38 1.944-.94 2.912-1.688.967-.748 1.801-1.693 2.495-2.834.833-1.37 1.375-2.751 1.631-4.146.256-1.396.265-2.725.026-3.99a9.388 9.388 0 00-1.388-3.445 8.209 8.209 0 00-2.56-2.507c-1.745-1.076-3.402-1.592-4.973-1.543-1.571.048-3.098.38-4.578 1.001a26.161 26.161 0 00-4.335 2.336 42.765 42.765 0 01-4.143 2.449c-1.359.7-2.712 1.137-4.062 1.32-1.349.184-2.716-.153-4.1-1.005a5.65 5.65 0 01-1.775-1.732 6.174 6.174 0 01-.92-2.384c-.152-.879-.117-1.828.1-2.843.217-1.001.642-2.025 1.267-3.057zm3.046-3.341c4.912-5.065 12.236-2.13 17.326 1.137-5.957 3.827-12.462 5.979-17.326 1.137a7.914 7.914 0 01-.829-1.137c.117-.197.391-.63.829-1.137zm31.463 4.736c-3.875 0-8.392-2.536-10.11-3.595 1.718-1.058 6.231-3.595 10.11-3.595 3.983 0 6.018 2.73 6.565 3.595-.547.866-2.582 3.595-6.565 3.595zm7.68-3.337c-.008.013-2.291 4.44-7.68 4.44-5.229 0-11.416-4.234-11.434-4.243l-.672-.46.672-.454c.018-.013 6.205-4.247 11.434-4.247 5.394 0 7.676 4.426 7.68 4.44l.139.262-.139.262zM124.3 70.011c3.775 0 8.297 3.096 8.297 3.096s-4.526 3.097-8.297 3.097c-3.775 0-5.372-3.097-5.372-3.097s1.597-3.096 5.372-3.096zm-11.833 4.715c-1.978 0-4.347-1.623-4.347-1.623s2.369-1.623 4.347-1.623c1.979 0 2.817 1.623 2.817 1.623s-.842 1.623-2.817 1.623zM53.52 106.118c3.58-3.11 7.602-1.491 7.602-1.491s.998 4.251-2.586 7.36c-3.58 3.11-10.383 3.902-10.383 3.902s1.787-6.661 5.367-9.771zm0-65.932c3.58 3.11 7.602 1.492 7.602 1.492s.998-4.251-2.586-7.361c-3.58-3.11-10.383-3.901-10.383-3.901s1.787 6.66 5.367 9.77zm77.732 65.932c-3.58-3.11-7.603-1.491-7.603-1.491s-.998 4.251 2.587 7.36c3.579 3.11 10.383 3.902 10.383 3.902s-1.783-6.661-5.367-9.771z" fill="#242333"/><path fill-rule="evenodd" clip-rule="evenodd" d="M92.386.633c19.856 0 37.829 8.113 50.842 21.225 13.008 13.116 21.058 31.231 21.058 51.245 0 20.013-8.05 38.129-21.058 51.245-13.013 13.112-30.986 21.225-50.842 21.225-19.856 0-37.829-8.113-50.842-21.225-13.009-13.112-21.058-31.232-21.058-51.245 0-20.014 8.05-38.129 21.058-51.245C54.557 8.746 72.534.633 92.386.633zm48.945 23.136C128.804 11.143 111.5 3.331 92.386 3.331S55.968 11.143 43.44 23.77C30.913 36.396 23.168 53.837 23.168 73.103s7.75 36.707 20.272 49.334c12.528 12.626 29.832 20.433 48.946 20.433 19.114 0 36.418-7.811 48.945-20.433 12.528-12.627 20.277-30.069 20.277-49.334 0-19.266-7.749-36.707-20.277-49.334z" fill="#242333"/><path d="M184.532 206.715H148.63v.892h35.902v-.892zm-148.39 0H.24v.892h35.902v-.892zm10.752 4.997c-.286.516-.716.922-1.293 1.229a3.919 3.919 0 01-1.866.459c-.764 0-1.367-.21-1.81-.63-.442-.42-.663-.98-.663-1.68 0-1.154.494-2.059 1.48-2.729.984-.664 2.351-1.006 4.096-1.023v-2.423c0-.499-.144-.862-.434-1.098-.291-.236-.734-.354-1.337-.354-.477 0-.898.096-1.258.289-.365.192-.543.389-.543.594 0 .035.105.167.313.398.208.232.312.495.312.788 0 .319-.082.581-.251.783a.812.812 0 01-.651.301.828.828 0 01-.695-.328c-.169-.218-.251-.511-.251-.883 0-.7.33-1.277.99-1.741.659-.463 1.51-.695 2.55-.695 1.098 0 1.875.201 2.322.599.447.402.672 1.115.672 2.139v5.642c0 .393.035.656.1.774.065.122.183.183.352.183.182 0 .347-.087.494-.258.148-.17.248-.389.3-.651h.364c-.043.59-.234 1.062-.577 1.425a1.673 1.673 0 01-1.271.543c-.434 0-.768-.14-1.011-.416-.243-.275-.39-.682-.434-1.237zm-.056-3.801c-1.255 0-2.213.214-2.877.652-.664.433-.994 1.062-.994 1.885 0 .59.152 1.062.46 1.412.308.355.72.529 1.232.529.638 0 1.159-.188 1.567-.568.408-.381.611-.87.611-1.478v-2.432zm16.492 2.073h.539c-.235 1.085-.686 1.924-1.354 2.511-.669.59-1.502.883-2.495.883-1.267 0-2.309-.477-3.124-1.426-.816-.949-1.22-2.156-1.22-3.621 0-1.522.438-2.79 1.31-3.805.873-1.015 1.975-1.522 3.298-1.522.977 0 1.775.258 2.404.778.63.516.942 1.164.942 1.938 0 .385-.1.695-.304.927-.2.232-.473.35-.807.35a.874.874 0 01-.694-.328 1.225 1.225 0 01-.274-.809c0-.306.109-.604.33-.897.221-.293.33-.481.33-.555 0-.245-.182-.455-.551-.639-.369-.179-.816-.271-1.34-.271-.903 0-1.563.372-1.975 1.111-.417.739-.62 1.929-.62 3.573 0 1.649.19 2.834.572 3.547.382.717 1.003 1.072 1.857 1.072.777 0 1.445-.245 2.01-.739.559-.495.95-1.186 1.166-2.078zm12.328 1.728c-.286.516-.716.922-1.293 1.229a3.919 3.919 0 01-1.866.459c-.763 0-1.367-.21-1.81-.63-.442-.42-.663-.98-.663-1.68 0-1.154.49-2.059 1.48-2.729.984-.664 2.351-1.006 4.096-1.023v-2.423c0-.499-.144-.862-.434-1.098-.291-.236-.738-.354-1.337-.354-.477 0-.898.096-1.258.289-.364.192-.547.389-.547.594 0 .035.104.167.313.398.208.232.312.495.312.788 0 .319-.082.581-.252.783a.81.81 0 01-.646.301.828.828 0 01-.694-.328c-.17-.218-.252-.511-.252-.883 0-.7.33-1.277.99-1.741.659-.463 1.51-.695 2.55-.695 1.099 0 1.875.201 2.322.599.447.402.673 1.115.673 2.139v5.642c0 .393.03.656.1.774.065.122.182.183.351.183.182 0 .347-.087.495-.258.147-.17.243-.389.295-.651h.364c-.043.59-.234 1.062-.577 1.425a1.673 1.673 0 01-1.271.543c-.434 0-.773-.14-1.011-.416-.243-.267-.386-.682-.43-1.237zm-.056-3.801c-1.254 0-2.213.214-2.877.652-.664.433-.994 1.062-.994 1.885 0 .59.152 1.062.46 1.412.308.355.72.529 1.232.529.638 0 1.159-.188 1.567-.568.408-.381.612-.87.612-1.478v-2.432zm17.417-12.067v16.65h1.22v.595c-.678 0-1.242.022-1.702.061a9.84 9.84 0 00-1.237.188v-1.832c-.299.603-.698 1.071-1.193 1.399a2.917 2.917 0 01-1.644.49c-1.15 0-2.122-.503-2.916-1.509-.794-1.006-1.19-2.248-1.19-3.718 0-1.465.396-2.694 1.19-3.686.794-.993 1.77-1.492 2.937-1.492.651 0 1.211.162 1.684.486.473.323.833.8 1.09 1.434v-8.305h-1.463v-.516h.364c.469 0 .942-.022 1.415-.062.473-.039.954-.1 1.445-.183zm-1.74 14.214v-3.46c0-.809-.26-1.513-.785-2.121-.526-.603-1.137-.91-1.845-.91-.807 0-1.38.346-1.722 1.037-.343.691-.512 1.863-.512 3.521 0 1.732.178 2.952.529 3.656.352.7.942 1.054 1.77 1.054.651 0 1.241-.289 1.77-.866.535-.577.795-1.211.795-1.911zm10.909-2.689v.756c0 1.706.191 2.9.577 3.578.386.678 1.05 1.014 1.996 1.014.798 0 1.479-.244 2.039-.739.56-.49.942-1.185 1.15-2.077h.495c-.222 1.155-.664 2.02-1.328 2.602-.664.582-1.54.871-2.634.871-1.241 0-2.282-.477-3.124-1.435-.842-.953-1.263-2.126-1.263-3.516 0-1.522.43-2.813 1.293-3.871.864-1.054 1.914-1.583 3.164-1.583 1.167 0 2.087.376 2.759 1.128.673.752 1.068 1.841 1.176 3.263h-6.3v.009zm.065-.718h4.213v-.253c0-1.046-.152-1.798-.456-2.261-.303-.464-.798-.696-1.479-.696-.703 0-1.246.267-1.623.8-.378.538-.599 1.339-.655 2.41zm12.114 6.438v-.595h1.176v-8.734h-1.197v-.542c.499 0 .993-.022 1.492-.066.495-.039.981-.101 1.458-.175l.009 2.489c.347-.844.764-1.466 1.254-1.877.49-.411 1.072-.612 1.736-.612.742 0 1.323.219 1.744.656.421.437.651 1.054.686 1.841.295-.818.694-1.439 1.197-1.863.508-.424 1.107-.638 1.805-.638.807 0 1.415.262 1.818.791.408.525.612 1.308.612 2.34v6.39h1.12v.595h-4.144v-.595h1.289v-7.295c0-.508-.096-.884-.287-1.137-.191-.254-.477-.381-.859-.381-.681 0-1.284.394-1.809 1.185-.525.792-.786 1.71-.786 2.765v4.859h1.133v.594h-4.079v-.594h1.232v-7.296c0-.538-.091-.927-.282-1.159-.186-.236-.494-.354-.928-.354-.669 0-1.254.455-1.766 1.365-.508.909-.764 2.003-.764 3.28v4.168h1.154v.595h-4.014zm24.578-.055l-3.311-9.281h-1.054v-.542h4.3v.542h-1.419l2.386 6.591 2.209-6.591h-1.449v-.542h3.154v.542h-1.124l-4.035 12.194c-.321.984-.66 1.697-1.011 2.138-.352.442-.759.661-1.219.661a1.17 1.17 0 01-.864-.346 1.164 1.164 0 01-.347-.852c0-.298.082-.543.247-.74a.797.797 0 01.634-.297c.308 0 .551.157.729.468.178.31.304.468.369.468.108 0 .238-.136.386-.402.147-.272.312-.678.495-1.225l.924-2.786z" fill="#242333"/></svg>