<svg width="61" height="61" viewBox="0 0 61 61" fill="none" xmlns="http://www.w3.org/2000/svg">
<path fill-rule="evenodd" clip-rule="evenodd" d="M13.5353 14.7407C13.5353 8.39042 18.6639 3.25 24.9812 3.25C31.2985 3.25 36.4271 8.39042 36.4271 14.7407C36.4271 21.0846 31.3088 26.2211 25.0004 26.2315C24.994 26.2315 24.9876 26.2315 24.9812 26.2315C24.9748 26.2315 24.9684 26.2315 24.962 26.2315C18.6536 26.2211 13.5353 21.0846 13.5353 14.7407ZM18.4241 27.0919C14.0263 24.7371 11.0353 20.0876 11.0353 14.7407C11.0353 7.01802 17.2749 0.75 24.9812 0.75C32.6875 0.75 38.9271 7.01802 38.9271 14.7407C38.9271 20.0876 35.9361 24.7371 31.5382 27.0919C42.2939 29.9785 50.2124 39.7959 50.2124 51.4626V59.3333V60.5833H48.9624H1H-0.25V59.3333V51.4626C-0.25 39.7958 7.66845 29.9785 18.4241 27.0919ZM24.9611 28.7315C12.4162 28.7423 2.25 38.9152 2.25 51.4626V58.0833H47.7124V51.4626C47.7124 38.9152 37.5461 28.7423 25.0013 28.7315C24.9946 28.7315 24.9879 28.7315 24.9812 28.7315C24.9745 28.7315 24.9678 28.7315 24.9611 28.7315Z" fill="#EB5F43"/>
<path d="M59.7499 22.8181C59.7499 27.8002 55.7265 31.8314 50.7727 31.8314C45.8188 31.8314 41.7954 27.8002 41.7954 22.8181C41.7954 17.836 45.8188 13.8047 50.7727 13.8047C55.7265 13.8047 59.7499 17.836 59.7499 22.8181Z" stroke="#EB5F43" stroke-width="2.5"/>
<mask id="path-3-inside-1_1244_3435" fill="white">
<path d="M56.8556 25.6384C56.2297 26.998 55.1693 28.109 53.8427 28.7951C52.5161 29.4813 50.9992 29.7033 49.5325 29.4261C48.0659 29.1488 46.7334 28.3882 45.7465 27.2647C44.7596 26.1412 44.1747 24.7192 44.0845 23.2242C43.9944 21.7292 44.4041 20.2468 45.2489 19.0121C46.0936 17.7774 47.3249 16.861 48.7475 16.4083C50.1702 15.9556 51.7027 15.9925 53.1021 16.5131C54.5014 17.0337 55.6876 18.0082 56.4723 19.2822L54.7989 20.3204C54.2445 19.4205 53.4066 18.7321 52.4182 18.3644C51.4297 17.9966 50.3471 17.9706 49.3422 18.2903C48.3373 18.6101 47.4675 19.2574 46.8708 20.1296C46.2741 21.0018 45.9847 22.0489 46.0484 23.1049C46.112 24.161 46.5252 25.1654 47.2224 25.959C47.9195 26.7526 48.8607 27.29 49.8967 27.4858C50.9327 27.6817 52.0042 27.5248 52.9413 27.0401C53.8784 26.5554 54.6274 25.7707 55.0696 24.8103L56.8556 25.6384Z"/>
</mask>
<path d="M56.8556 25.6384C56.2297 26.998 55.1693 28.109 53.8427 28.7951C52.5161 29.4813 50.9992 29.7033 49.5325 29.4261C48.0659 29.1488 46.7334 28.3882 45.7465 27.2647C44.7596 26.1412 44.1747 24.7192 44.0845 23.2242C43.9944 21.7292 44.4041 20.2468 45.2489 19.0121C46.0936 17.7774 47.3249 16.861 48.7475 16.4083C50.1702 15.9556 51.7027 15.9925 53.1021 16.5131C54.5014 17.0337 55.6876 18.0082 56.4723 19.2822L54.7989 20.3204C54.2445 19.4205 53.4066 18.7321 52.4182 18.3644C51.4297 17.9966 50.3471 17.9706 49.3422 18.2903C48.3373 18.6101 47.4675 19.2574 46.8708 20.1296C46.2741 21.0018 45.9847 22.0489 46.0484 23.1049C46.112 24.161 46.5252 25.1654 47.2224 25.959C47.9195 26.7526 48.8607 27.29 49.8967 27.4858C50.9327 27.6817 52.0042 27.5248 52.9413 27.0401C53.8784 26.5554 54.6274 25.7707 55.0696 24.8103L56.8556 25.6384Z" stroke="#EB5F43" stroke-width="5" mask="url(#path-3-inside-1_1244_3435)"/>
</svg>
