<svg width="60" height="63" viewBox="0 0 60 63" fill="none" xmlns="http://www.w3.org/2000/svg">
<path fill-rule="evenodd" clip-rule="evenodd" d="M10.3442 20.717C11.3608 19.8018 12 18.4756 12 17C12 14.2386 9.76142 12 7 12C4.23858 12 2 14.2386 2 17C2 18.4756 2.63918 19.8018 3.65576 20.717C1.48663 21.8169 0 24.0682 0 26.6667V31.3333H14V26.6667C14 24.0682 12.5134 21.8169 10.3442 20.717ZM10 17C10 18.6569 8.65685 20 7 20C5.34315 20 4 18.6569 4 17C4 15.3431 5.34315 14 7 14C8.65685 14 10 15.3431 10 17ZM6.66667 22C4.08934 22 2 24.0893 2 26.6667V29.3333H12V26.6667C12 24.0893 9.91066 22 7.33333 22H6.66667Z" fill="#EB5F43"/>
<path fill-rule="evenodd" clip-rule="evenodd" d="M56.3442 20.717C57.3608 19.8018 58 18.4756 58 17C58 14.2386 55.7614 12 53 12C50.2386 12 48 14.2386 48 17C48 18.4756 48.6392 19.8018 49.6558 20.717C47.4866 21.8169 46 24.0682 46 26.6667V31.3333H60V26.6667C60 24.0682 58.5134 21.8169 56.3442 20.717ZM56 17C56 18.6569 54.6569 20 53 20C51.3431 20 50 18.6569 50 17C50 15.3431 51.3431 14 53 14C54.6569 14 56 15.3431 56 17ZM52.6667 22C50.0893 22 48 24.0893 48 26.6667V29.3333H58V26.6667C58 24.0893 55.9107 22 53.3333 22H52.6667Z" fill="#EB5F43"/>
<path d="M27.3979 50L26.4809 50.8494C26.8303 51.2267 27.3753 51.3515 27.8541 51.1638C28.3329 50.9761 28.6479 50.5143 28.6479 50H27.3979ZM21.9034 44.0676L22.8205 43.2182L22.8043 43.2007L22.7873 43.1837L21.9034 44.0676ZM26.7313 59H27.9813V58.4943L27.6296 58.1308L26.7313 59ZM17.0106 48.9531L17.9089 48.084L17.9018 48.0765L17.8945 48.0693L17.0106 48.9531ZM17.0143 44.0676L16.1304 43.1837H16.1304L17.0143 44.0676ZM50.7313 54.6667L51.9017 55.1056L51.9813 54.8933V54.6667H50.7313ZM26.7313 61.3333H25.4813V62.5833H26.7313V61.3333ZM49.7313 61.3333V62.5833H50.9813V61.3333H49.7313ZM49.7313 57.3333L48.5609 56.8944L48.4813 57.1067V57.3333H49.7313ZM34.7498 14C34.7498 16.6007 32.646 18.667 29.9998 18.667V21.167C33.9811 21.167 37.2498 18.0267 37.2498 14H34.7498ZM29.9998 18.667C27.3536 18.667 25.2498 16.6007 25.2498 14H22.7498C22.7498 18.0267 26.0186 21.167 29.9998 21.167V18.667ZM25.2498 14C25.2498 11.3766 27.3765 9.25 29.9998 9.25V6.75C25.9958 6.75 22.7498 9.99593 22.7498 14H25.2498ZM29.9998 9.25C32.6232 9.25 34.7498 11.3766 34.7498 14H37.2498C37.2498 9.99593 34.0039 6.75 29.9998 6.75V9.25ZM28.9998 21.167H30.9998V18.667H28.9998V21.167ZM30.9998 21.167C33.3285 21.167 35.1676 21.8664 36.413 23.0294C37.6481 24.1826 38.4165 25.8999 38.4165 28.1805H40.9165C40.9165 25.3065 39.9289 22.892 38.1193 21.2022C36.3201 19.5221 33.8258 18.667 30.9998 18.667V21.167ZM28.9998 18.667C26.1244 18.667 23.6057 19.6748 21.8027 21.4741C19.9996 23.2736 18.9876 25.7898 18.9876 28.6667H21.4876C21.4876 26.3889 22.2794 24.5303 23.5687 23.2436C24.8582 21.9568 26.7206 21.167 28.9998 21.167V18.667ZM15.9165 17C15.9165 9.40608 22.0726 3.25 29.6665 3.25V0.75C20.6919 0.75 13.4165 8.02537 13.4165 17H15.9165ZM29.6665 3.25C37.2604 3.25 43.4165 9.40608 43.4165 17H45.9165C45.9165 8.02537 38.6411 0.75 29.6665 0.75V3.25ZM26.9152 30.4749C20.6395 29.201 15.9165 23.6507 15.9165 17H13.4165C13.4165 24.8631 19 31.4192 26.4178 32.925L26.9152 30.4749ZM43.4165 17C43.4165 23.5422 38.8463 29.0199 32.7232 30.4093L33.2764 32.8473C40.5133 31.2052 45.9165 24.7351 45.9165 17H43.4165ZM31.4813 26V37.3333H33.9813V26H31.4813ZM31.4813 37.3333V44H33.9813V37.3333H31.4813ZM28.6479 50V25.9877H26.1479V50H28.6479ZM30.0646 24.5833C30.847 24.5833 31.4813 25.2176 31.4813 26H33.9813C33.9813 23.8369 32.2277 22.0833 30.0646 22.0833V24.5833ZM30.0646 22.0833C27.909 22.0833 26.1479 23.8171 26.1479 25.9877H28.6479C28.6479 25.2128 29.2747 24.5833 30.0646 24.5833V22.0833ZM20.9864 44.917L26.4809 50.8494L28.315 49.1506L22.8205 43.2182L20.9864 44.917ZM27.6296 58.1308L17.9089 48.084L16.1122 49.8223L25.8329 59.8692L27.6296 58.1308ZM17.8981 44.9515C18.7601 44.0895 20.1576 44.0895 21.0196 44.9515L22.7873 43.1837C20.9491 41.3455 17.9686 41.3455 16.1304 43.1837L17.8981 44.9515ZM16.1304 43.1837C14.2938 45.0203 14.2867 47.997 16.1267 49.837L17.8945 48.0693C17.0342 47.209 17.0345 45.8152 17.8981 44.9515L16.1304 43.1837ZM37.4813 37.3333V44H39.9813V37.3333H37.4813ZM35.7313 35.9167C36.1448 35.9167 36.6126 36.0919 36.9725 36.3988C37.3302 36.7039 37.4813 37.0463 37.4813 37.3333H39.9813C39.9813 36.1476 39.3687 35.1567 38.5946 34.4966C37.8227 33.8383 36.7905 33.4167 35.7313 33.4167V35.9167ZM35.7313 33.4167C34.6721 33.4167 33.6398 33.8383 32.8679 34.4966C32.0938 35.1567 31.4813 36.1476 31.4813 37.3333H33.9813C33.9813 37.0463 34.1323 36.7039 34.4901 36.3988C34.85 36.0919 35.3177 35.9167 35.7313 35.9167V33.4167ZM43.4813 37.3333V44H45.9813V37.3333H43.4813ZM41.7313 35.9167C42.1448 35.9167 42.6126 36.0919 42.9725 36.3988C43.3302 36.7039 43.4813 37.0463 43.4813 37.3333H45.9813C45.9813 36.1476 45.3687 35.1567 44.5946 34.4966C43.8227 33.8383 42.7905 33.4167 41.7313 33.4167V35.9167ZM41.7313 33.4167C40.6721 33.4167 39.6398 33.8383 38.8679 34.4966C38.0938 35.1567 37.4813 36.1476 37.4813 37.3333H39.9813C39.9813 37.0463 40.1323 36.7039 40.4901 36.3988C40.85 36.0919 41.3177 35.9167 41.7313 35.9167V33.4167ZM49.4813 37.3333V54.6667H51.9813V37.3333H49.4813ZM47.7313 35.9167C48.1448 35.9167 48.6126 36.0919 48.9725 36.3988C49.3302 36.7039 49.4813 37.0463 49.4813 37.3333H51.9813C51.9813 36.1476 51.3687 35.1567 50.5946 34.4966C49.8227 33.8383 48.7905 33.4167 47.7313 33.4167V35.9167ZM47.7313 33.4167C46.6721 33.4167 45.6398 33.8383 44.8679 34.4966C44.0938 35.1567 43.4813 36.1476 43.4813 37.3333H45.9813C45.9813 37.0463 46.1323 36.7039 46.4901 36.3988C46.85 36.0919 47.3177 35.9167 47.7313 35.9167V33.4167ZM25.4813 59V61.3333H27.9813V59H25.4813ZM26.7313 62.5833H49.7313V60.0833H26.7313V62.5833ZM50.9813 61.3333V57.3333H48.4813V61.3333H50.9813ZM50.9017 57.7722L51.9017 55.1056L49.5609 54.2278L48.5609 56.8944L50.9017 57.7722Z" fill="#EB5F43"/>
</svg>
