<svg width="60" height="60" viewBox="0 0 60 60" fill="none" xmlns="http://www.w3.org/2000/svg">
<path d="M47.6413 29.675C47.6413 39.6593 39.5659 47.7485 29.6102 47.7485V50.2485C40.9518 50.2485 50.1413 41.0349 50.1413 29.675H47.6413ZM29.6102 47.7485C19.6545 47.7485 11.5791 39.6593 11.5791 29.675H9.0791C9.0791 41.0349 18.2686 50.2485 29.6102 50.2485V47.7485ZM11.5791 29.675C11.5791 19.6907 19.6545 11.6016 29.6102 11.6016V9.10156C18.2686 9.10156 9.0791 18.3152 9.0791 29.675H11.5791ZM29.6102 11.6016C39.5659 11.6016 47.6413 19.6907 47.6413 29.675H50.1413C50.1413 18.3152 40.9518 9.10156 29.6102 9.10156V11.6016ZM35.2463 29.675C35.2463 34.9068 34.4886 39.5892 33.3019 42.9192C32.7067 44.5896 32.0269 45.8529 31.3346 46.6746C30.6373 47.5023 30.0492 47.7485 29.6102 47.7485V50.2485C31.0727 50.2485 32.2962 49.4133 33.2465 48.2854C34.2019 47.1514 35.006 45.5848 35.6569 43.7584C36.9625 40.0946 37.7463 35.1153 37.7463 29.675H35.2463ZM29.6102 47.7485C29.1712 47.7485 28.5831 47.5023 27.8858 46.6746C27.1935 45.8529 26.5137 44.5896 25.9185 42.9192C24.7318 39.5892 23.9741 34.9068 23.9741 29.675H21.4741C21.4741 35.1153 22.2579 40.0946 23.5635 43.7584C24.2144 45.5848 25.0185 47.1514 25.9739 48.2854C26.9242 49.4133 28.1476 50.2485 29.6102 50.2485V47.7485ZM23.9741 29.675C23.9741 24.4432 24.7318 19.7608 25.9185 16.4309C26.5137 14.7604 27.1935 13.4972 27.8858 12.6755C28.5831 11.8478 29.1712 11.6016 29.6102 11.6016V9.10156C28.1476 9.10156 26.9242 9.93675 25.9739 11.0647C25.0185 12.1986 24.2144 13.7653 23.5635 15.5917C22.2579 19.2554 21.4741 24.2348 21.4741 29.675H23.9741ZM29.6102 11.6016C30.0492 11.6016 30.6373 11.8478 31.3346 12.6755C32.0269 13.4972 32.7067 14.7604 33.3019 16.4309C34.4886 19.7608 35.2463 24.4432 35.2463 29.675H37.7463C37.7463 24.2348 36.9625 19.2554 35.6569 15.5917C35.006 13.7653 34.2019 12.1986 33.2465 11.0647C32.2962 9.93675 31.0727 9.10156 29.6102 9.10156V11.6016ZM11.7063 25.059L47.5141 25.059V22.559L11.7063 22.559L11.7063 25.059ZM11.7063 36.101H47.5141V33.601H11.7063V36.101Z" fill="#EB5F43"/>
<mask id="path-2-inside-1_1244_3349" fill="white">
<path d="M0 29.6753C0 46.0646 13.257 59.3507 29.6102 59.3507C35.6973 59.3507 40.7867 58.4075 45.4917 55.2511L60 60L55.4331 44.2074C57.8448 39.9123 59.2205 34.9548 59.2205 29.6753C59.2205 13.2861 45.9635 0 29.6102 0C13.257 0 0 13.2861 0 29.6753Z"/>
</mask>
<path d="M45.4917 55.2511L46.2694 52.8751L45.1111 52.496L44.099 53.175L45.4917 55.2511ZM55.4331 44.2074L53.2533 42.9834L52.7407 43.8962L53.0315 44.9019L55.4331 44.2074ZM60 60L59.2223 62.3759L63.7147 63.8464L62.4016 59.3055L60 60ZM29.6102 56.8507C14.6428 56.8507 2.5 44.689 2.5 29.6753H-2.5C-2.5 47.4401 11.8711 61.8507 29.6102 61.8507V56.8507ZM2.5 29.6753C2.5 14.6616 14.6428 2.5 29.6102 2.5V-2.5C11.8711 -2.5 -2.5 11.9106 -2.5 29.6753H2.5ZM29.6102 2.5C44.5777 2.5 56.7205 14.6616 56.7205 29.6753H61.7205C61.7205 11.9106 47.3494 -2.5 29.6102 -2.5V2.5ZM44.099 53.175C39.961 55.951 35.4286 56.8507 29.6102 56.8507V61.8507C35.966 61.8507 41.6123 60.864 46.8845 57.3272L44.099 53.175ZM56.7205 29.6753C56.7205 34.5154 55.4604 39.0526 53.2533 42.9834L57.613 45.4314C60.2292 40.772 61.7205 35.3943 61.7205 29.6753H56.7205ZM60.7777 57.624L46.2694 52.8751L44.714 57.627L59.2223 62.3759L60.7777 57.624ZM53.0315 44.9019L57.5984 60.6945L62.4016 59.3055L57.8347 43.5129L53.0315 44.9019Z" fill="#EB5F43" mask="url(#path-2-inside-1_1244_3349)"/>
</svg>
