<svg width="574" height="48" viewBox="0 0 574 48" fill="none" xmlns="http://www.w3.org/2000/svg">
<path d="M6.534 40.986C2.178 36.586 0 30.844 0 23.76C0 16.676 2.178 10.956 6.534 6.6C10.934 2.2 16.676 0 23.76 0C30.8 0 36.498 2.2 40.854 6.6C45.254 10.956 47.454 16.676 47.454 23.76C47.454 30.844 45.254 36.586 40.854 40.986C36.498 45.342 30.8 47.52 23.76 47.52C16.676 47.52 10.934 45.342 6.534 40.986ZM14.718 8.712C12.518 12.188 11.418 17.204 11.418 23.76C11.418 30.316 12.518 35.354 14.718 38.874C16.962 42.35 19.976 44.088 23.76 44.088C27.544 44.088 30.536 42.35 32.736 38.874C34.98 35.354 36.102 30.316 36.102 23.76C36.102 17.204 34.98 12.188 32.736 8.712C30.536 5.192 27.544 3.432 23.76 3.432C19.976 3.432 16.962 5.192 14.718 8.712Z" fill="white"/>
<path d="M55.5421 46.86V19.14C55.5421 15.62 55.3881 12.386 55.0801 9.438C54.8161 6.49 54.5301 4.422 54.2221 3.234L53.7601 1.452L54.5521 0.66H58.0501L88.7401 30.822V0.66H93.8221V46.86H90.7861L60.0961 16.632V46.86H55.5421Z" fill="white"/>
<path d="M103.946 46.86V0.66H114.176V42.768H122.096C124.296 42.768 126.298 42.592 128.102 42.24C129.95 41.888 131.226 41.536 131.93 41.184L132.986 40.722L133.778 41.514V46.86H103.946Z" fill="white"/>
<path d="M140.749 46.86V0.66H150.979V46.86H140.749Z" fill="white"/>
<path d="M161.052 46.86V19.14C161.052 15.62 160.898 12.386 160.59 9.438C160.326 6.49 160.04 4.422 159.732 3.234L159.27 1.452L160.062 0.66H163.56L194.25 30.822V0.66H199.332V46.86H196.296L165.606 16.632V46.86H161.052Z" fill="white"/>
<path d="M209.456 46.86V0.66H240.41V6.006L239.618 6.798C237.33 5.434 233.7 4.752 228.728 4.752H219.686V21.12H235.856L236.384 21.714V25.278H219.686V42.768H229.388C231.588 42.768 233.59 42.592 235.394 42.24C237.242 41.888 238.518 41.536 239.222 41.184L240.278 40.722L241.07 41.514V46.86H209.456Z" fill="white"/>
<path d="M286.348 3.432C282.52 3.432 279.462 5.126 277.174 8.514C274.886 11.902 273.742 16.632 273.742 22.704C273.742 35.288 278.802 41.58 288.922 41.58C291.474 41.58 293.916 41.206 296.248 40.458C298.58 39.666 300.296 38.874 301.396 38.082L302.98 36.894L304.63 38.544C304.498 38.808 304.278 39.138 303.97 39.534C303.706 39.93 303.046 40.656 301.99 41.712C300.934 42.724 299.746 43.626 298.426 44.418C297.15 45.21 295.39 45.936 293.146 46.596C290.946 47.212 288.57 47.52 286.018 47.52C278.934 47.52 273.214 45.32 268.858 40.92C264.502 36.52 262.324 30.778 262.324 23.694C262.324 16.61 264.502 10.89 268.858 6.534C273.258 2.178 279.132 0 286.48 0C292.068 0 296.49 1.232 299.746 3.696C303.046 6.16 304.696 9.372 304.696 13.332C304.696 14.168 304.608 14.938 304.432 15.642C304.256 16.302 304.08 16.764 303.904 17.028L303.706 17.424C301.462 17.952 298.448 18.216 294.664 18.216L293.872 17.424C294.4 16.456 294.664 14.85 294.664 12.606C294.664 9.614 293.916 7.348 292.42 5.808C290.968 4.224 288.944 3.432 286.348 3.432Z" fill="white"/>
<path d="M316.94 40.986C312.584 36.586 310.406 30.844 310.406 23.76C310.406 16.676 312.584 10.956 316.94 6.6C321.34 2.2 327.082 0 334.166 0C341.206 0 346.904 2.2 351.26 6.6C355.66 10.956 357.86 16.676 357.86 23.76C357.86 30.844 355.66 36.586 351.26 40.986C346.904 45.342 341.206 47.52 334.166 47.52C327.082 47.52 321.34 45.342 316.94 40.986ZM325.124 8.712C322.924 12.188 321.824 17.204 321.824 23.76C321.824 30.316 322.924 35.354 325.124 38.874C327.368 42.35 330.382 44.088 334.166 44.088C337.95 44.088 340.942 42.35 343.142 38.874C345.386 35.354 346.508 30.316 346.508 23.76C346.508 17.204 345.386 12.188 343.142 8.712C340.942 5.192 337.95 3.432 334.166 3.432C330.382 3.432 327.368 5.192 325.124 8.712Z" fill="white"/>
<path d="M399.278 30.162V0.66H403.898V30.03C403.898 35.31 402.204 39.556 398.816 42.768C395.428 45.936 390.742 47.52 384.758 47.52C378.818 47.52 374.154 45.936 370.766 42.768C367.422 39.556 365.75 35.31 365.75 30.03V0.66H375.98V31.614C375.98 35.134 377.014 37.95 379.082 40.062C381.194 42.174 383.944 43.23 387.332 43.23C390.94 43.23 393.822 42.064 395.978 39.732C398.178 37.356 399.278 34.166 399.278 30.162Z" fill="white"/>
<path d="M413.837 46.86V0.66H430.535C436.299 0.66 440.831 1.804 444.131 4.092C447.475 6.38 449.147 9.57 449.147 13.662C449.147 16.522 448.311 18.964 446.639 20.988C444.967 23.012 442.591 24.508 439.511 25.476L444.725 35.178C445.913 37.378 447.123 39.402 448.355 41.25C449.631 43.098 450.599 44.396 451.259 45.144L452.183 46.332L451.721 46.86H440.567L429.743 26.664H424.067V46.86H413.837ZM428.951 4.818H424.067V22.572H428.951C431.943 22.572 434.275 21.802 435.947 20.262C437.619 18.722 438.455 16.522 438.455 13.662C438.455 10.802 437.619 8.624 435.947 7.128C434.275 5.588 431.943 4.818 428.951 4.818Z" fill="white"/>
<path d="M472.627 3.432C470.603 3.432 469.063 3.894 468.007 4.818C466.951 5.742 466.423 7.018 466.423 8.646C466.423 10.274 467.083 11.704 468.403 12.936C469.767 14.168 472.913 16.434 477.841 19.734C480.437 21.494 482.307 22.792 483.451 23.628C484.639 24.464 485.915 25.454 487.279 26.598C488.643 27.698 489.567 28.644 490.051 29.436C490.535 30.184 490.953 31.064 491.305 32.076C491.657 33.044 491.833 34.122 491.833 35.31C491.833 43.45 486.003 47.52 474.343 47.52C471.923 47.52 469.657 47.344 467.545 46.992C465.477 46.64 463.783 46.222 462.463 45.738C461.187 45.21 460.087 44.704 459.163 44.22C458.239 43.692 457.579 43.252 457.183 42.9L456.589 42.372C456.589 41.184 456.765 40.04 457.117 38.94C457.469 37.796 457.887 36.85 458.371 36.102C458.855 35.31 459.339 34.606 459.823 33.99C460.307 33.374 460.725 32.912 461.077 32.604L461.605 32.208H462.661C462.793 32.516 462.969 32.956 463.189 33.528C463.453 34.056 464.003 35.002 464.839 36.366C465.675 37.73 466.555 38.94 467.479 39.996C468.403 41.008 469.591 41.954 471.043 42.834C472.539 43.67 474.035 44.088 475.531 44.088C477.643 44.088 479.359 43.56 480.679 42.504C481.999 41.448 482.659 40.106 482.659 38.478C482.659 36.718 481.823 35.134 480.151 33.726C478.479 32.318 475.575 30.382 471.439 27.918C471.043 27.698 470.735 27.522 470.515 27.39C467.259 25.498 464.795 23.914 463.123 22.638C461.495 21.362 460.153 19.866 459.097 18.15C458.085 16.434 457.579 14.454 457.579 12.21C457.579 8.25 458.987 5.236 461.803 3.168C464.663 1.056 468.887 0 474.475 0C477.687 0 480.569 0.352 483.121 1.056C485.717 1.716 487.499 2.376 488.467 3.036L489.919 4.092C489.919 5.984 489.501 7.788 488.665 9.504C487.829 11.22 486.993 12.452 486.157 13.2L484.903 14.388H483.913C483.825 14.08 483.671 13.684 483.451 13.2C483.275 12.716 482.835 11.858 482.131 10.626C481.427 9.35 480.679 8.228 479.887 7.26C479.095 6.292 478.039 5.412 476.719 4.62C475.399 3.828 474.035 3.432 472.627 3.432Z" fill="white"/>
<path d="M500.14 46.86V0.66H531.094V6.006L530.302 6.798C528.014 5.434 524.384 4.752 519.412 4.752H510.37V21.12H526.54L527.068 21.714V25.278H510.37V42.768H520.072C522.272 42.768 524.274 42.592 526.078 42.24C527.926 41.888 529.202 41.536 529.906 41.184L530.962 40.722L531.754 41.514V46.86H500.14Z" fill="white"/>
<path d="M554.096 3.432C552.072 3.432 550.532 3.894 549.476 4.818C548.42 5.742 547.892 7.018 547.892 8.646C547.892 10.274 548.552 11.704 549.872 12.936C551.236 14.168 554.382 16.434 559.31 19.734C561.906 21.494 563.776 22.792 564.92 23.628C566.108 24.464 567.384 25.454 568.748 26.598C570.112 27.698 571.036 28.644 571.52 29.436C572.004 30.184 572.422 31.064 572.774 32.076C573.126 33.044 573.302 34.122 573.302 35.31C573.302 43.45 567.472 47.52 555.812 47.52C553.392 47.52 551.126 47.344 549.014 46.992C546.946 46.64 545.252 46.222 543.932 45.738C542.656 45.21 541.556 44.704 540.632 44.22C539.708 43.692 539.048 43.252 538.652 42.9L538.058 42.372C538.058 41.184 538.234 40.04 538.586 38.94C538.938 37.796 539.356 36.85 539.84 36.102C540.324 35.31 540.808 34.606 541.292 33.99C541.776 33.374 542.194 32.912 542.546 32.604L543.074 32.208H544.13C544.262 32.516 544.438 32.956 544.658 33.528C544.922 34.056 545.472 35.002 546.308 36.366C547.144 37.73 548.024 38.94 548.948 39.996C549.872 41.008 551.06 41.954 552.512 42.834C554.008 43.67 555.504 44.088 557 44.088C559.112 44.088 560.828 43.56 562.148 42.504C563.468 41.448 564.128 40.106 564.128 38.478C564.128 36.718 563.292 35.134 561.62 33.726C559.948 32.318 557.044 30.382 552.908 27.918C552.512 27.698 552.204 27.522 551.984 27.39C548.728 25.498 546.264 23.914 544.592 22.638C542.964 21.362 541.622 19.866 540.566 18.15C539.554 16.434 539.048 14.454 539.048 12.21C539.048 8.25 540.456 5.236 543.272 3.168C546.132 1.056 550.356 0 555.944 0C559.156 0 562.038 0.352 564.59 1.056C567.186 1.716 568.968 2.376 569.936 3.036L571.388 4.092C571.388 5.984 570.97 7.788 570.134 9.504C569.298 11.22 568.462 12.452 567.626 13.2L566.372 14.388H565.382C565.294 14.08 565.14 13.684 564.92 13.2C564.744 12.716 564.304 11.858 563.6 10.626C562.896 9.35 562.148 8.228 561.356 7.26C560.564 6.292 559.508 5.412 558.188 4.62C556.868 3.828 555.504 3.432 554.096 3.432Z" fill="white"/>
</svg>
