<svg width="62" height="62" viewBox="0 0 62 62" fill="none" xmlns="http://www.w3.org/2000/svg">
<path d="M13 19.3333V18.0833H11.75V19.3333H13ZM60.3333 19.3333H61.5833V18.0833H60.3333V19.3333ZM60.3333 60V61.25H61.5833V60H60.3333ZM13 60H11.75V61.25H13V60ZM27 4L27.9761 3.21913L27.6008 2.75H27V4ZM29.9992 7.74898L30.9753 6.96811V6.96811L29.9992 7.74898ZM53 45.3333H54.25V44.7395L53.7897 44.3644L53 45.3333ZM53 52.6667V53.9167H54.25V52.6667H53ZM19.6667 52.6667H18.4167V53.9167H19.6667V52.6667ZM19.6667 45.3333L18.9663 44.298L18.4167 44.6698V45.3333H19.6667ZM31 37.6667L31.8362 36.7375L31.1095 36.0835L30.2996 36.6313L31 37.6667ZM37.6667 43.6667L36.8305 44.5958L37.5533 45.2463L38.3616 44.7057L37.6667 43.6667ZM13 20.5833H60.3333V18.0833H13V20.5833ZM59.0833 19.3333V60H61.5833V19.3333H59.0833ZM60.3333 58.75H13V61.25H60.3333V58.75ZM14.25 60V19.3333H11.75V60H14.25ZM2.25 41.3333V7.33333H-0.25V41.3333H2.25ZM4.33333 5.25H27V2.75H4.33333V5.25ZM26.0239 4.78087L29.0231 8.52985L30.9753 6.96811L27.9761 3.21913L26.0239 4.78087ZM32.6021 10.25H49V7.75H32.6021V10.25ZM51.75 13V19.3333H54.25V13H51.75ZM13 43.4167H4.33333V45.9167H13V43.4167ZM29.0231 8.52985C29.8929 9.61709 31.2097 10.25 32.6021 10.25V7.75C31.9692 7.75 31.3706 7.46231 30.9753 6.96811L29.0231 8.52985ZM-0.25 41.3333C-0.25 43.8646 1.80203 45.9167 4.33333 45.9167V43.4167C3.18274 43.4167 2.25 42.4839 2.25 41.3333H-0.25ZM49 10.25C50.5188 10.25 51.75 11.4812 51.75 13H54.25C54.25 10.1005 51.8995 7.75 49 7.75V10.25ZM2.25 7.33333C2.25 6.18274 3.18274 5.25 4.33333 5.25V2.75C1.80203 2.75 -0.25 4.80203 -0.25 7.33333H2.25ZM28.4167 30.6667C28.4167 32.9218 26.5885 34.75 24.3333 34.75V37.25C27.9692 37.25 30.9167 34.3025 30.9167 30.6667H28.4167ZM24.3333 34.75C22.0782 34.75 20.25 32.9218 20.25 30.6667H17.75C17.75 34.3025 20.6975 37.25 24.3333 37.25V34.75ZM20.25 30.6667C20.25 28.4115 22.0782 26.5833 24.3333 26.5833V24.0833C20.6975 24.0833 17.75 27.0308 17.75 30.6667H20.25ZM24.3333 26.5833C26.5885 26.5833 28.4167 28.4115 28.4167 30.6667H30.9167C30.9167 27.0308 27.9692 24.0833 24.3333 24.0833V26.5833ZM37.5833 9.33333V6.33333H35.0833V9.33333H37.5833ZM40.6667 3.25C42.3695 3.25 43.75 4.63046 43.75 6.33333H46.25C46.25 3.24974 43.7503 0.75 40.6667 0.75V3.25ZM40.6667 0.75C37.5831 0.75 35.0833 3.24974 35.0833 6.33333H37.5833C37.5833 4.63046 38.9638 3.25 40.6667 3.25V0.75ZM33.0833 15V22.6667H35.5833V15H33.0833ZM39.6667 29.25C43.3025 29.25 46.25 26.3025 46.25 22.6667H43.75C43.75 24.9218 41.9218 26.75 39.6667 26.75V29.25ZM39.6667 26.75C37.4115 26.75 35.5833 24.9218 35.5833 22.6667H33.0833C33.0833 26.3025 36.0308 29.25 39.6667 29.25V26.75ZM51.75 45.3333V52.6667H54.25V45.3333H51.75ZM53 51.4167H19.6667V53.9167H53V51.4167ZM20.9167 52.6667V45.3333H18.4167V52.6667H20.9167ZM20.3671 46.3687L31.7004 38.702L30.2996 36.6313L18.9663 44.298L20.3671 46.3687ZM30.1638 38.5958L36.8305 44.5958L38.5029 42.7375L31.8362 36.7375L30.1638 38.5958ZM38.3616 44.7057C41.0766 42.8897 43.0064 42.1966 44.9056 42.3853C46.8539 42.5788 49.0464 43.7235 52.2103 46.3023L53.7897 44.3644C50.5524 41.7258 47.8733 40.1677 45.1527 39.8975C42.3831 39.6224 39.8467 40.7047 36.9717 42.6277L38.3616 44.7057ZM43.75 6.33333V22.6667H46.25V6.33333H43.75Z" fill="#EB5F43"/>
</svg>
