<svg width="48" height="64" viewBox="0 0 48 64" fill="none" xmlns="http://www.w3.org/2000/svg">
<path d="M2.42967 53.5428L3.5071 54.1766L2.42967 53.5428ZM3.15844 54.587L3.38662 55.816H3.38662L3.15844 54.587ZM10.5087 53.2223L10.2805 51.9934H10.2805L10.5087 53.2223ZM11.2877 53.6595L12.4548 53.2118L11.2877 53.6595ZM14.0464 60.8508L12.8794 61.2985V61.2985L14.0464 60.8508ZM15.303 60.9498L14.22 60.3256L15.303 60.9498ZM45.5703 54.243L44.4929 54.8768L45.5703 54.243ZM44.8415 55.2873L44.6134 56.5163L44.8415 55.2873ZM37.4913 53.9226L37.7195 52.6936L37.4913 53.9226ZM36.7123 54.3597L35.5452 53.912L36.7123 54.3597ZM33.9535 61.5511L35.1206 61.9988L33.9535 61.5511ZM32.6969 61.65L33.78 61.0259L32.6969 61.65ZM23.6508 13.2036L24.8399 12.8182C24.6728 12.3027 24.1927 11.9536 23.6508 11.9536C23.1089 11.9536 22.6287 12.3027 22.4617 12.8182L23.6508 13.2036ZM26.1596 20.9451L24.9705 21.3305C25.1376 21.8459 25.6178 22.1951 26.1596 22.1951V20.9451ZM34.2785 20.9451L35.0144 21.9555C35.4519 21.6368 35.6346 21.0727 35.467 20.5581C35.2995 20.0434 34.8197 19.6951 34.2785 19.6951V20.9451ZM27.7102 25.7296L26.9742 24.7192C26.5372 25.0375 26.3544 25.6007 26.5211 26.115L27.7102 25.7296ZM30.219 33.4711L29.4831 34.4814C29.9209 34.8004 30.5143 34.801 30.9528 34.4831C31.3913 34.1652 31.5751 33.601 31.4082 33.0857L30.219 33.4711ZM23.6508 28.6866L24.3868 27.6762C23.9481 27.3567 23.3534 27.3567 22.9148 27.6762L23.6508 28.6866ZM17.0825 33.4711L15.8934 33.0857C15.7264 33.601 15.9103 34.1652 16.3488 34.4831C16.7873 34.801 17.3807 34.8004 17.8185 34.4814L17.0825 33.4711ZM19.5914 25.7296L20.7805 26.115C20.9472 25.6007 20.7643 25.0375 20.3274 24.7192L19.5914 25.7296ZM13.0231 20.9451V19.6951C12.4819 19.6951 12.0021 20.0434 11.8345 20.5581C11.667 21.0727 11.8496 21.6368 12.2871 21.9555L13.0231 20.9451ZM21.1419 20.9451V22.1951C21.6838 22.1951 22.164 21.8459 22.331 21.3305L21.1419 20.9451ZM39.8611 24.0571C39.8611 32.8445 32.7568 39.9626 24 39.9626V42.4626C34.1436 42.4626 42.3611 34.2191 42.3611 24.0571H39.8611ZM24 39.9626C15.2432 39.9626 8.13889 32.8445 8.13889 24.0571H5.63889C5.63889 34.2191 13.8564 42.4626 24 42.4626V39.9626ZM8.13889 24.0571C8.13889 15.2697 15.2432 8.15157 24 8.15157V5.65157C13.8564 5.65157 5.63889 13.8951 5.63889 24.0571H8.13889ZM24 8.15157C32.7568 8.15157 39.8611 15.2697 39.8611 24.0571H42.3611C42.3611 13.8951 34.1436 5.65157 24 5.65157V8.15157ZM44.75 24.0571C44.75 35.5516 35.4568 44.8641 24 44.8641V47.3641C36.8437 47.3641 47.25 36.9262 47.25 24.0571H44.75ZM24 44.8641C12.5431 44.8641 3.25 35.5516 3.25 24.0571H0.75C0.75 36.9262 11.1563 47.3641 24 47.3641V44.8641ZM3.25 24.0571C3.25 12.5626 12.5431 3.25 24 3.25V0.75C11.1563 0.75 0.75 11.188 0.75 24.0571H3.25ZM24 3.25C35.4568 3.25 44.75 12.5626 44.75 24.0571H47.25C47.25 11.188 36.8437 0.75 24 0.75V3.25ZM8.60511 40.5788L1.35225 52.909L3.5071 54.1766L10.76 41.8463L8.60511 40.5788ZM3.38662 55.816L10.7369 54.4513L10.2805 51.9934L2.93025 53.358L3.38662 55.816ZM10.1206 54.1072L12.8794 61.2985L15.2135 60.4031L12.4548 53.2118L10.1206 54.1072ZM16.3861 61.5739L24.7338 47.0884L22.5678 45.8401L14.22 60.3256L16.3861 61.5739ZM12.8794 61.2985C13.4666 62.8292 15.5663 62.9964 16.3861 61.5739L14.22 60.3256C14.4522 59.9227 15.0479 59.9715 15.2135 60.4031L12.8794 61.2985ZM10.7369 54.4513C10.4731 54.5003 10.2151 54.3533 10.1206 54.1072L12.4548 53.2118C12.1188 52.336 11.2058 51.8216 10.2805 51.9934L10.7369 54.4513ZM1.35225 52.909C0.508582 54.3433 1.73572 56.1225 3.38662 55.816L2.93026 53.358C3.40298 53.2703 3.7421 53.7771 3.5071 54.1766L1.35225 52.909ZM37.24 42.5466L44.4929 54.8768L46.6477 53.6093L39.3949 41.279L37.24 42.5466ZM45.0697 54.0583L37.7195 52.6936L37.2631 55.1516L44.6134 56.5163L45.0697 54.0583ZM35.5452 53.912L32.7865 61.1033L35.1206 61.9988L37.8793 54.8074L35.5452 53.912ZM33.78 61.0259L25.4322 46.5403L23.2662 47.7886L31.6139 62.2741L33.78 61.0259ZM32.7865 61.1033C32.9521 60.6717 33.5478 60.6229 33.78 61.0259L31.6139 62.2741C32.4337 63.6967 34.5334 63.5295 35.1206 61.9988L32.7865 61.1033ZM37.7195 52.6936C36.7942 52.5218 35.8812 53.0362 35.5452 53.912L37.8793 54.8074C37.7849 55.0536 37.5269 55.2005 37.2631 55.1516L37.7195 52.6936ZM44.4929 54.8768C44.2579 54.4773 44.597 53.9705 45.0697 54.0583L44.6134 56.5163C46.2643 56.8228 47.4914 55.0436 46.6477 53.6093L44.4929 54.8768ZM22.4617 13.589L24.9705 21.3305L27.3488 20.5597L24.8399 12.8182L22.4617 13.589ZM26.1596 22.1951H34.2785V19.6951H26.1596V22.1951ZM33.5425 19.9347L26.9742 24.7192L28.4462 26.74L35.0144 21.9555L33.5425 19.9347ZM26.5211 26.115L29.0299 33.8564L31.4082 33.0857L28.8993 25.3442L26.5211 26.115ZM30.955 32.4607L24.3868 27.6762L22.9148 29.6969L29.4831 34.4814L30.955 32.4607ZM22.9148 27.6762L16.3465 32.4607L17.8185 34.4814L24.3868 29.6969L22.9148 27.6762ZM18.2716 33.8564L20.7805 26.115L18.4023 25.3442L15.8934 33.0857L18.2716 33.8564ZM20.3274 24.7192L13.7591 19.9347L12.2871 21.9555L18.8554 26.74L20.3274 24.7192ZM13.0231 22.1951H21.1419V19.6951H13.0231V22.1951ZM22.331 21.3305L24.8399 13.589L22.4617 12.8182L19.9528 20.5597L22.331 21.3305Z" fill="#EB5F43"/>
</svg>
