<svg width="803" height="53" viewBox="0 0 803 53" fill="none" xmlns="http://www.w3.org/2000/svg">
<path d="M0.544006 52V1.6H34.312V7.43201L33.448 8.296C30.952 6.80801 26.992 6.06401 21.568 6.06401H11.704V23.92H29.344L29.92 24.568V28.456H11.704V47.536H22.288C24.688 47.536 26.872 47.344 28.84 46.96C30.856 46.576 32.248 46.192 33.016 45.808L34.168 45.304L35.032 46.168V52H0.544006Z" fill="white"/>
<path d="M86.3331 1.6L69.1251 28.744V52H57.9651V29.464L50.0451 16.864C48.3651 14.224 46.6371 11.728 44.8611 9.37601C43.1331 6.97601 41.8131 5.24801 40.9011 4.19201L39.5331 2.53601V1.6H53.2851L66.8211 22.48L80.2131 1.6H86.3331Z" fill="white"/>
<path d="M93.0753 52V1.6H126.843V7.43201L125.979 8.296C123.483 6.80801 119.523 6.06401 114.099 6.06401H104.235V23.92H121.875L122.451 24.568V28.456H104.235V47.536H114.819C117.219 47.536 119.403 47.344 121.371 46.96C123.387 46.576 124.779 46.192 125.547 45.808L126.699 45.304L127.563 46.168V52H93.0753Z" fill="white"/>
<path d="M136.528 52V1.6H147.688V47.536H156.328C158.728 47.536 160.912 47.344 162.88 46.96C164.896 46.576 166.288 46.192 167.056 45.808L168.208 45.304L169.072 46.168V52H136.528Z" fill="white"/>
<path d="M183.301 38.608L178.117 52H172.501L191.005 5.272L189.349 2.46401V1.6H201.517L221.893 52H210.373L204.973 38.608H183.301ZM195.253 14.344L193.957 11.32L185.029 34.144H203.173L195.253 14.344Z" fill="white"/>
<path d="M244.186 4.624C241.978 4.624 240.298 5.128 239.146 6.13601C237.994 7.144 237.418 8.536 237.418 10.312C237.418 12.088 238.138 13.648 239.578 14.992C241.066 16.336 244.498 18.808 249.874 22.408C252.706 24.328 254.746 25.744 255.994 26.656C257.29 27.568 258.682 28.648 260.17 29.896C261.658 31.096 262.666 32.128 263.194 32.992C263.722 33.808 264.178 34.768 264.562 35.872C264.946 36.928 265.138 38.104 265.138 39.4C265.138 48.28 258.778 52.72 246.058 52.72C243.418 52.72 240.946 52.528 238.642 52.144C236.386 51.76 234.538 51.304 233.098 50.776C231.706 50.2 230.506 49.648 229.498 49.12C228.49 48.544 227.77 48.064 227.338 47.68L226.69 47.104C226.69 45.808 226.882 44.56 227.266 43.36C227.65 42.112 228.106 41.08 228.634 40.264C229.162 39.4 229.69 38.632 230.218 37.96C230.746 37.288 231.202 36.784 231.586 36.448L232.162 36.016H233.314C233.458 36.352 233.65 36.832 233.89 37.456C234.178 38.032 234.778 39.064 235.69 40.552C236.602 42.04 237.562 43.36 238.57 44.512C239.578 45.616 240.874 46.648 242.458 47.608C244.09 48.52 245.722 48.976 247.354 48.976C249.658 48.976 251.53 48.4 252.97 47.248C254.41 46.096 255.13 44.632 255.13 42.856C255.13 40.936 254.218 39.208 252.394 37.672C250.57 36.136 247.402 34.024 242.89 31.336C242.458 31.096 242.122 30.904 241.882 30.76C238.33 28.696 235.642 26.968 233.818 25.576C232.042 24.184 230.578 22.552 229.426 20.68C228.322 18.808 227.77 16.648 227.77 14.2C227.77 9.88001 229.306 6.59201 232.378 4.336C235.498 2.032 240.106 0.880005 246.202 0.880005C249.706 0.880005 252.85 1.26401 255.634 2.03201C258.466 2.75201 260.41 3.47201 261.466 4.19201L263.05 5.34401C263.05 7.40801 262.594 9.37601 261.682 11.248C260.77 13.12 259.858 14.464 258.946 15.28L257.578 16.576H256.498C256.402 16.24 256.234 15.808 255.994 15.28C255.802 14.752 255.322 13.816 254.554 12.472C253.786 11.08 252.97 9.85601 252.106 8.80001C251.242 7.74401 250.09 6.784 248.65 5.92C247.21 5.056 245.722 4.624 244.186 4.624Z" fill="white"/>
<path d="M308.256 52V28.456H285.36V52H274.2V1.6H285.36V23.92H308.256V1.6H319.416V52H308.256Z" fill="white"/>
<path d="M346.974 52V1.6H380.742V7.43201L379.878 8.296C377.382 6.80801 373.422 6.06401 367.998 6.06401H358.134V23.92H375.774L376.35 24.568V28.456H358.134V47.536H368.718C371.118 47.536 373.302 47.344 375.27 46.96C377.286 46.576 378.678 46.192 379.446 45.808L380.598 45.304L381.462 46.168V52H346.974Z" fill="white"/>
<path d="M399.931 1.6L412.531 20.32L425.851 1.6H432.475L415.411 24.64L424.195 37.6C425.827 40.048 427.483 42.4 429.163 44.656C430.891 46.912 432.211 48.544 433.123 49.552L434.419 51.136V52H421.099L407.203 31.768L392.515 52H386.467L404.323 27.448L386.683 1.6H399.931Z" fill="white"/>
<path d="M466.171 6.06401V52H455.011V6.06401H450.547C448.147 6.06401 445.939 6.25601 443.923 6.64C441.955 7.024 440.587 7.408 439.819 7.79201L438.667 8.296L437.803 7.43201V1.6H483.379V7.43201L482.515 8.296C480.019 6.80801 476.059 6.06401 470.635 6.06401H466.171Z" fill="white"/>
<path d="M490.833 52V1.6H524.601V7.43201L523.737 8.296C521.241 6.80801 517.281 6.06401 511.857 6.06401H501.993V23.92H519.633L520.209 24.568V28.456H501.993V47.536H512.577C514.977 47.536 517.161 47.344 519.129 46.96C521.145 46.576 522.537 46.192 523.305 45.808L524.457 45.304L525.321 46.168V52H490.833Z" fill="white"/>
<path d="M534.286 52V21.76C534.286 17.92 534.118 14.392 533.782 11.176C533.494 7.96001 533.182 5.70401 532.846 4.40801L532.342 2.46401L533.206 1.6H537.022L570.502 34.504V1.6H576.046V52H572.734L539.254 19.024V52H534.286Z" fill="white"/>
<path d="M602.499 4.624C600.291 4.624 598.611 5.128 597.459 6.13601C596.307 7.144 595.731 8.536 595.731 10.312C595.731 12.088 596.451 13.648 597.891 14.992C599.379 16.336 602.811 18.808 608.187 22.408C611.019 24.328 613.059 25.744 614.307 26.656C615.603 27.568 616.995 28.648 618.483 29.896C619.971 31.096 620.979 32.128 621.507 32.992C622.035 33.808 622.491 34.768 622.875 35.872C623.259 36.928 623.451 38.104 623.451 39.4C623.451 48.28 617.091 52.72 604.371 52.72C601.731 52.72 599.259 52.528 596.955 52.144C594.699 51.76 592.851 51.304 591.411 50.776C590.019 50.2 588.819 49.648 587.811 49.12C586.803 48.544 586.083 48.064 585.651 47.68L585.003 47.104C585.003 45.808 585.195 44.56 585.579 43.36C585.963 42.112 586.419 41.08 586.947 40.264C587.475 39.4 588.003 38.632 588.531 37.96C589.059 37.288 589.515 36.784 589.899 36.448L590.475 36.016H591.627C591.771 36.352 591.963 36.832 592.203 37.456C592.491 38.032 593.091 39.064 594.003 40.552C594.915 42.04 595.875 43.36 596.883 44.512C597.891 45.616 599.187 46.648 600.771 47.608C602.403 48.52 604.035 48.976 605.667 48.976C607.971 48.976 609.843 48.4 611.283 47.248C612.723 46.096 613.443 44.632 613.443 42.856C613.443 40.936 612.531 39.208 610.707 37.672C608.883 36.136 605.715 34.024 601.203 31.336C600.771 31.096 600.435 30.904 600.195 30.76C596.643 28.696 593.955 26.968 592.131 25.576C590.355 24.184 588.891 22.552 587.739 20.68C586.635 18.808 586.083 16.648 586.083 14.2C586.083 9.88001 587.619 6.59201 590.691 4.336C593.811 2.032 598.419 0.880005 604.515 0.880005C608.019 0.880005 611.163 1.26401 613.947 2.03201C616.779 2.75201 618.723 3.47201 619.779 4.19201L621.363 5.34401C621.363 7.40801 620.907 9.37601 619.995 11.248C619.083 13.12 618.171 14.464 617.259 15.28L615.891 16.576H614.811C614.715 16.24 614.547 15.808 614.307 15.28C614.115 14.752 613.635 13.816 612.867 12.472C612.099 11.08 611.283 9.85601 610.419 8.80001C609.555 7.74401 608.403 6.784 606.963 5.92C605.523 5.056 604.035 4.624 602.499 4.624Z" fill="white"/>
<path d="M632.513 52V1.6H643.673V52H632.513Z" fill="white"/>
<path d="M659.557 45.592C654.805 40.792 652.429 34.528 652.429 26.8C652.429 19.072 654.805 12.832 659.557 8.08001C664.357 3.28001 670.621 0.880005 678.349 0.880005C686.029 0.880005 692.245 3.28001 696.997 8.08001C701.797 12.832 704.197 19.072 704.197 26.8C704.197 34.528 701.797 40.792 696.997 45.592C692.245 50.344 686.029 52.72 678.349 52.72C670.621 52.72 664.357 50.344 659.557 45.592ZM668.485 10.384C666.085 14.176 664.885 19.648 664.885 26.8C664.885 33.952 666.085 39.448 668.485 43.288C670.933 47.08 674.221 48.976 678.349 48.976C682.477 48.976 685.741 47.08 688.141 43.288C690.589 39.448 691.813 33.952 691.813 26.8C691.813 19.648 690.589 14.176 688.141 10.384C685.741 6.544 682.477 4.624 678.349 4.624C674.221 4.624 670.933 6.544 668.485 10.384Z" fill="white"/>
<path d="M713.021 52V21.76C713.021 17.92 712.853 14.392 712.517 11.176C712.229 7.96001 711.917 5.70401 711.581 4.40801L711.077 2.46401L711.941 1.6H715.757L749.237 34.504V1.6H754.781V52H751.469L717.989 19.024V52H713.021Z" fill="white"/>
<path d="M781.233 4.624C779.025 4.624 777.345 5.128 776.193 6.13601C775.041 7.144 774.465 8.536 774.465 10.312C774.465 12.088 775.185 13.648 776.625 14.992C778.113 16.336 781.545 18.808 786.921 22.408C789.753 24.328 791.793 25.744 793.041 26.656C794.337 27.568 795.729 28.648 797.217 29.896C798.705 31.096 799.713 32.128 800.241 32.992C800.769 33.808 801.225 34.768 801.609 35.872C801.993 36.928 802.185 38.104 802.185 39.4C802.185 48.28 795.825 52.72 783.105 52.72C780.465 52.72 777.993 52.528 775.689 52.144C773.433 51.76 771.585 51.304 770.145 50.776C768.753 50.2 767.553 49.648 766.545 49.12C765.537 48.544 764.817 48.064 764.385 47.68L763.737 47.104C763.737 45.808 763.929 44.56 764.313 43.36C764.697 42.112 765.153 41.08 765.681 40.264C766.209 39.4 766.737 38.632 767.265 37.96C767.793 37.288 768.249 36.784 768.633 36.448L769.209 36.016H770.361C770.505 36.352 770.697 36.832 770.937 37.456C771.225 38.032 771.825 39.064 772.737 40.552C773.649 42.04 774.609 43.36 775.617 44.512C776.625 45.616 777.921 46.648 779.505 47.608C781.137 48.52 782.769 48.976 784.401 48.976C786.705 48.976 788.577 48.4 790.017 47.248C791.457 46.096 792.177 44.632 792.177 42.856C792.177 40.936 791.265 39.208 789.441 37.672C787.617 36.136 784.449 34.024 779.937 31.336C779.505 31.096 779.169 30.904 778.929 30.76C775.377 28.696 772.689 26.968 770.865 25.576C769.089 24.184 767.625 22.552 766.473 20.68C765.369 18.808 764.817 16.648 764.817 14.2C764.817 9.88001 766.353 6.59201 769.425 4.336C772.545 2.032 777.153 0.880005 783.249 0.880005C786.753 0.880005 789.897 1.26401 792.681 2.03201C795.513 2.75201 797.457 3.47201 798.513 4.19201L800.097 5.34401C800.097 7.40801 799.641 9.37601 798.729 11.248C797.817 13.12 796.905 14.464 795.993 15.28L794.625 16.576H793.545C793.449 16.24 793.281 15.808 793.041 15.28C792.849 14.752 792.369 13.816 791.601 12.472C790.833 11.08 790.017 9.85601 789.153 8.80001C788.289 7.74401 787.137 6.784 785.697 5.92C784.257 5.056 782.769 4.624 781.233 4.624Z" fill="white"/>
</svg>
