<svg width="77" height="478" viewBox="0 0 77 478" fill="none" xmlns="http://www.w3.org/2000/svg">
<path fill-rule="evenodd" clip-rule="evenodd" d="M74.4268 64.55H67.7616C67.4145 63.2992 66.9633 62.0812 66.4078 60.8962C64.9846 57.9337 62.8669 55.2674 60.0551 52.9632C57.278 50.692 54.0149 48.9803 50.3005 47.8282C46.6555 46.709 42.5593 46.1494 38.0812 46.1494C33.6031 46.1494 29.5069 46.709 25.8619 47.8282C22.1823 48.9803 18.9192 50.692 16.1073 52.9632C13.2955 55.2674 11.1779 57.9008 9.75462 60.8962C9.19919 62.0483 8.74797 63.2663 8.40083 64.55H1.7357C2.46469 55.6625 5.9708 48.1244 12.254 41.9361C15.7948 38.414 19.7176 35.7806 24.0221 34.0361C28.2919 32.2915 32.9436 31.4027 38.0118 31.4027C43.1495 31.4027 47.8358 32.2915 52.1751 34.0361C56.4796 35.7806 60.437 38.414 63.9778 41.9361C70.1569 48.1244 73.663 55.6625 74.4268 64.55ZM74.1143 9.15527e-05H2.15225C2.08282 9.15527e-05 2.0134 0.00012207 1.94397 0.03302C1.87455 0.0659485 1.83987 0.0987854 1.77045 0.164612C1.73573 0.230469 1.66631 0.263428 1.66631 0.329254C1.63159 0.395111 1.63156 0.493835 1.63156 0.625519L1.63156 16.2281C2.88126 15.4051 4.30454 14.8126 5.86667 14.3847C7.56765 13.9568 9.44219 13.7264 11.4903 13.7264H74.2532C74.2879 13.6935 74.3574 13.6606 74.4615 13.5618L74.635 13.3643V0.625519C74.635 0.493835 74.635 0.395111 74.6003 0.329254C74.5656 0.263428 74.5309 0.19754 74.4961 0.164612L74.2879 9.15527e-05H74.1143ZM1.7357 64.55H8.40083C7.88012 66.525 7.60237 68.5987 7.60237 70.7712V78.9675C7.60237 79.4942 7.70653 80.0208 7.94953 80.5146C8.15781 81.0083 8.50487 81.4363 8.95616 81.7984C9.37272 82.1605 9.85873 82.4238 10.3794 82.6213C10.9002 82.7859 11.4556 82.8846 12.011 82.8846H64.2902C64.8804 82.8846 65.4358 82.7859 65.9218 82.6213C66.4772 82.4238 66.9632 82.1275 67.3451 81.7654C68.1435 81.0084 68.5601 80.0537 68.5601 78.9675V70.7712C68.5601 68.5658 68.2823 66.4921 67.7616 64.55H74.4268C74.5309 65.735 74.5656 66.9529 74.5656 68.1708V96.183L74.392 96.3805L74.1837 96.5451H11.4209C9.3728 96.5451 7.49826 96.7755 5.79728 97.2034C4.20044 97.6313 2.77716 98.2238 1.56217 99.0468L1.56217 68.1708C1.59688 66.9529 1.63156 65.735 1.7357 64.55ZM53.529 263.565H47.4887V255.731C47.4887 252.538 45.8571 251.485 42.594 252.637L18.2942 260.899C17.7041 261.063 17.2181 261.36 16.8363 261.755C16.385 262.215 16.1767 262.775 16.1767 263.433V263.598H1.59681L1.59681 254.809C1.59681 254.348 1.70101 253.986 1.87458 253.756C2.04815 253.492 2.39522 253.295 2.88121 253.13L74.6003 227.324V240.754C74.6003 241.149 74.5309 241.445 74.3574 241.675C74.1838 241.906 73.9061 242.07 73.4895 242.235L56.4796 248.028C54.5356 248.654 53.5636 250.069 53.5636 252.307V263.565H53.529ZM11.4556 209.647H74.2185L74.4268 209.483L74.6003 209.285V196.645C74.6003 196.513 74.6003 196.415 74.5656 196.349C74.5309 196.283 74.4962 196.217 74.4615 196.184L74.2532 196.02H49.1897C48.2872 196.02 47.454 195.888 46.6903 195.658C45.8572 195.394 45.1628 195.032 44.538 194.506L43.3231 193.452C41.3444 191.839 41.4137 190.259 43.566 188.679L72.9687 167.876C74.0796 167.053 74.635 165.703 74.635 163.794V150.891L33.742 180.483C31.798 181.964 29.9582 181.931 28.3266 180.351L1.59681 156.618L1.59681 164.88C1.59681 165.703 1.73565 166.46 2.01336 167.053C2.29107 167.645 2.70766 168.172 3.22837 168.633C12.2193 175.941 20.759 184.203 29.7499 191.576C30.1317 191.938 30.4094 192.3 30.583 192.695C30.8607 193.288 30.8954 193.913 30.6524 194.506C30.4094 195.098 29.9582 195.559 29.2986 195.822C28.882 195.987 28.4308 196.053 27.9101 196.053H2.15225C2.08282 196.053 2.0134 196.053 1.94397 196.086C1.87455 196.118 1.83987 196.151 1.77045 196.217C1.73573 196.283 1.66631 196.316 1.66631 196.382C1.63159 196.448 1.63156 196.546 1.63156 196.678L1.63156 212.182C2.88126 211.359 4.30454 210.766 5.86667 210.339C7.53294 209.878 9.40744 209.647 11.4556 209.647ZM74.1143 120.377H2.15225C2.08282 120.377 2.0134 120.377 1.94397 120.41C1.87455 120.443 1.83987 120.476 1.77045 120.541C1.73573 120.607 1.66631 120.64 1.66631 120.706C1.63159 120.772 1.63156 120.871 1.63156 121.002L1.63156 136.605C2.88126 135.782 4.30454 135.189 5.86667 134.762C7.56765 134.334 9.44219 134.103 11.4903 134.103H74.2532C74.2879 134.07 74.3574 134.037 74.4615 133.939L74.635 133.741V121.002C74.635 120.871 74.635 120.772 74.6003 120.706C74.5656 120.64 74.5309 120.574 74.4961 120.541L74.2879 120.377H74.1143ZM51.7933 473.509L60.0205 477.755C60.1593 477.821 60.2982 477.854 60.437 477.854C60.68 477.854 60.9924 477.755 61.3049 477.59L61.3396 477.557C63.4572 476.603 65.4011 475.319 67.1368 473.772C68.9072 472.192 70.4694 470.283 71.8579 468.044C73.2465 465.806 74.2879 463.403 74.9822 460.77C75.6765 458.136 76.0236 455.306 76.0236 452.244C76.0236 445.003 74.0101 439.275 69.9486 435.095C67.9352 433.021 65.6788 431.441 63.1447 430.42C60.6453 429.4 57.8334 428.873 54.7439 428.873C51.4808 428.873 48.4607 429.433 45.7183 430.486C44.3298 431.013 43.0453 431.671 41.8303 432.461C40.6153 433.218 39.5045 434.074 38.4978 435.062C37.3869 436.115 36.4149 437.135 35.5471 438.09C34.6445 439.077 33.8461 440.065 33.1172 441.053C32.3882 442.073 31.6592 443.126 30.9649 444.245C30.2706 445.365 29.5763 446.55 28.8473 447.8L28.5001 448.459L28.0142 449.348C27.2505 450.763 26.5562 451.981 25.9661 453.067C25.3065 454.219 24.7511 455.174 24.3345 455.865C23.8138 456.688 23.2583 457.478 22.6335 458.202C22.0086 458.959 21.3144 459.651 20.5507 460.309C19.7176 461.033 18.815 461.593 17.9124 461.988C16.9404 462.383 15.9337 462.58 14.927 462.58C13.5731 462.58 12.3581 462.35 11.2473 461.889C10.1364 461.395 9.16446 460.704 8.33133 459.749C7.56762 458.828 6.97749 457.774 6.59563 456.523C6.24849 455.338 6.0402 454.022 6.0402 452.606C6.0402 450.993 6.24849 449.479 6.69977 448.031C7.15105 446.583 7.77589 445.2 8.64374 443.949C9.47688 442.764 10.3448 441.678 11.282 440.756C12.2193 439.802 13.2261 438.979 14.2675 438.287C14.4064 438.189 14.5105 438.09 14.5799 437.991L14.6145 437.86L8.22719 434.206C7.77591 434.008 7.39407 433.91 7.15107 433.942C7.01221 433.942 6.90805 434.008 6.80391 434.107C4.5475 436.345 2.84654 439.012 1.7357 442.073C0.590137 445.2 0 448.821 0 452.903C0 455.964 0.416551 458.762 1.2844 461.296C2.11753 463.831 3.36722 466.135 5.06821 468.209C6.69977 470.217 8.5743 471.764 10.6919 472.751C12.8094 473.772 15.2047 474.299 17.8777 474.331C19.4745 474.331 20.9672 474.2 22.3558 473.969C23.7444 473.739 25.0634 473.344 26.3131 472.85C27.5281 472.356 28.7084 471.764 29.8193 471.007C30.9301 470.25 31.9369 469.394 32.8741 468.406C34.8875 466.3 36.5538 464.259 37.8729 462.251C38.5672 461.231 39.2615 460.078 39.9904 458.828C40.7194 457.544 41.5179 456.128 42.2816 454.614C44.7463 449.841 47.0374 446.286 49.1202 444.015C50.3005 442.731 51.6543 441.744 53.2165 441.085C54.7786 440.427 56.4796 440.131 58.3194 440.131C60.0551 440.131 61.652 440.427 63.0753 441.02C64.5333 441.612 65.7829 442.501 66.8938 443.653C67.9699 444.805 68.7683 446.188 69.289 447.8C69.8098 449.348 70.0528 451.092 70.0528 453.034C70.0528 457.906 68.2477 462.284 64.6027 466.168C62.8323 468.077 60.8536 469.624 58.7013 470.842C56.5838 472.126 54.2927 472.982 51.7933 473.509ZM1.59681 263.565H16.1767C16.2114 264.125 16.4197 264.651 16.7668 265.079C17.1487 265.54 17.6694 265.869 18.2942 266.034L42.594 274.625C43.2536 274.855 43.8437 274.954 44.3644 274.954C45.024 274.954 45.6141 274.79 46.1001 274.461C46.6208 274.131 47.0028 273.671 47.2458 273.045C47.4193 272.617 47.4887 272.123 47.4887 271.597V263.532H53.529V275.514C53.529 276.436 53.772 277.225 54.2927 277.917C54.8134 278.575 55.5077 279.069 56.4449 279.365L73.4895 285.158C73.9061 285.29 74.1838 285.488 74.3574 285.718C74.4962 285.916 74.6003 286.245 74.6003 286.64V294.375L12.1151 271.794C9.71988 270.971 7.63711 270.543 5.90142 270.543C5.10299 270.543 4.37392 270.609 3.64492 270.774C2.95064 270.906 2.29113 271.136 1.63156 271.432H1.59681L1.59681 263.565ZM1.59681 350.531L1.59681 362.908C1.59681 363.04 1.63156 363.138 1.63156 363.204C1.66627 363.27 1.70098 363.336 1.7357 363.369C1.80513 363.435 1.87451 363.468 1.90923 363.5L2.11761 363.533H30.0623C31.2426 363.533 32.2493 363.928 33.0824 364.718C33.4643 365.08 33.7767 365.508 33.985 365.969C34.228 366.463 34.3322 366.957 34.3322 367.483V390.328C34.3322 391.546 33.9502 392.533 33.1518 393.224C32.3881 393.916 31.3467 394.245 30.0623 394.245H2.11761C2.04818 394.245 1.94394 394.245 1.90923 394.278C1.87451 394.311 1.80513 394.344 1.7357 394.409C1.66627 394.475 1.63156 394.508 1.63156 394.574C1.59685 394.64 1.59681 394.739 1.59681 394.87L1.59681 410.374C2.84652 409.551 4.26979 408.959 5.83192 408.531C7.53291 408.07 9.40744 407.872 11.4556 407.872H74.2185L74.4268 407.708L74.6003 407.51V394.87C74.6003 394.739 74.6003 394.64 74.5656 394.574C74.5309 394.508 74.4962 394.442 74.4615 394.409C74.3921 394.344 74.3226 394.278 74.2532 394.245H44.6075C41.7609 394.245 40.3376 392.928 40.3376 390.295V367.451C40.3376 366.924 40.4418 366.43 40.6848 365.936C40.8931 365.476 41.2055 365.048 41.5874 364.686C42.0039 364.291 42.4552 364.027 42.9759 363.797C43.4966 363.599 44.052 363.468 44.6075 363.468H74.2532L74.4615 363.303C74.5309 363.237 74.5656 363.204 74.5656 363.138C74.6003 363.073 74.6003 362.974 74.6003 362.842V350.465C74.6003 350.334 74.6003 350.235 74.5656 350.169C74.5309 350.103 74.4962 350.037 74.4615 350.005C74.3921 349.939 74.3226 349.873 74.2532 349.84H2.187C2.11757 349.84 2.01344 349.84 1.97872 349.873C1.94401 349.906 1.87452 349.939 1.80509 350.005C1.73566 350.07 1.70095 350.103 1.70095 350.169C1.59681 350.334 1.59681 350.432 1.59681 350.531ZM74.1143 312.051H2.15225C2.08282 312.051 2.0134 312.051 1.94397 312.084C1.87455 312.117 1.83987 312.15 1.77045 312.216C1.73573 312.282 1.66631 312.315 1.66631 312.381C1.63159 312.446 1.63156 312.545 1.63156 312.677L1.63156 328.28C2.88126 327.457 4.30454 326.864 5.86667 326.436C7.56765 325.975 9.44219 325.778 11.4903 325.778H74.2532C74.2879 325.745 74.3574 325.712 74.4615 325.613L74.635 325.416V312.677C74.635 312.545 74.635 312.446 74.6003 312.381C74.5656 312.315 74.5309 312.249 74.4961 312.216L74.2879 312.084L74.1143 312.051Z" fill="white"/>
</svg>
