<svg width="188" height="167" viewBox="0 0 188 167" fill="none" xmlns="http://www.w3.org/2000/svg">
<path fill-rule="evenodd" clip-rule="evenodd" d="M119.842 73.678C117.475 71.669 114.815 72.716 114.815 72.716C114.815 72.716 114.157 75.4612 116.523 77.4701C118.89 79.4794 123.386 79.9913 123.386 79.9913C123.386 79.9913 122.208 75.6872 119.842 73.678ZM68.4605 31.089C70.8267 33.0981 73.4864 32.0512 73.4864 32.0512C73.4864 32.0512 74.1452 29.306 71.7784 27.2971C69.4119 25.2879 64.9164 24.7759 64.9164 24.7759C64.9164 24.7759 66.094 29.08 68.4605 31.089ZM68.4602 73.678C70.8264 71.669 73.4861 72.716 73.4861 72.716C73.4861 72.716 74.1446 75.4612 71.7781 77.4701C69.4115 79.4794 64.9158 79.9913 64.9158 79.9913C64.9158 79.9913 66.0937 75.6872 68.4602 73.678ZM104.549 52.3523C104.549 52.3523 106.116 51.305 107.423 51.305C108.73 51.305 109.283 52.3523 109.283 52.3523C109.283 52.3523 108.73 53.3998 107.423 53.3998C106.116 53.3998 104.549 52.3523 104.549 52.3523ZM115.244 50.3535C117.739 50.3535 120.729 52.3523 120.729 52.3523C120.729 52.3523 117.739 54.3514 115.244 54.3514C112.749 54.3514 111.695 52.3523 111.695 52.3523C111.695 52.3523 112.749 50.3535 115.244 50.3535ZM136.981 52.5209C136.976 52.5289 135.467 55.3888 131.903 55.3888C128.447 55.3888 124.357 52.6551 124.346 52.6475L123.902 52.352L124.346 52.0571C124.357 52.0492 128.447 49.315 131.903 49.315C135.467 49.315 136.976 52.1754 136.981 52.1834L137.072 52.352L136.981 52.5209ZM131.903 54.6757C129.341 54.6757 126.357 53.0368 125.221 52.352C126.357 51.6675 129.341 50.0286 131.903 50.0286C134.537 50.0286 135.882 51.7921 136.243 52.352C135.882 52.9122 134.537 54.6757 131.903 54.6757ZM111.107 51.6169C114.354 48.346 119.194 50.2405 122.558 52.3528C118.621 54.8237 114.322 56.2156 111.107 53.0882C110.816 52.7605 110.636 52.4825 110.558 52.3528C110.636 52.2232 110.816 51.9446 111.107 51.6169ZM109.094 53.7733C109.367 53.3338 109.665 52.9385 109.987 52.5884C111.444 54.042 113.097 55.2887 115.276 55.2887C118.781 55.2887 122.953 52.4998 122.965 52.4924L123.176 52.3528L122.965 52.2132C122.953 52.2051 118.781 49.4167 115.276 49.4167C113.096 49.4167 111.446 50.6643 109.987 52.1169C109.665 51.7669 109.367 51.372 109.094 50.9321C108.679 50.2648 108.399 49.6026 108.255 48.9455C108.111 48.2889 108.088 47.6761 108.188 47.108C108.288 46.5396 108.491 46.0262 108.797 45.568C109.105 45.1103 109.496 44.738 109.972 44.4509C110.887 43.8984 111.79 43.6814 112.683 43.8004C113.574 43.9193 114.469 44.204 115.366 44.6544C116.263 45.1053 117.176 45.6327 118.106 46.237C119.036 46.8413 119.991 47.3439 120.97 47.7448C121.949 48.1457 122.958 48.3612 123.996 48.3915C125.035 48.422 126.131 48.0892 127.284 47.3933C127.961 46.9848 128.526 46.4458 128.978 45.7762C129.43 45.1067 129.736 44.3642 129.896 43.5483C130.056 42.7327 130.05 41.8741 129.88 40.9726C129.71 40.0717 129.35 39.1793 128.8 38.2956C128.34 37.5565 127.79 36.946 127.151 36.4638C126.511 35.9821 125.87 35.6191 125.228 35.3746C124.584 35.1306 123.979 35.0063 123.41 35.002C122.841 34.9983 122.382 35.1015 122.035 35.3114C121.486 35.6428 121.14 36.0991 120.998 36.6801C120.857 37.2619 120.954 37.8229 121.291 38.3642C121.627 38.9049 122.09 39.2457 122.68 39.3853C123.271 39.5248 123.841 39.4287 124.39 39.0976C124.939 38.7662 125.284 38.31 125.426 37.7283C125.568 37.1469 125.471 36.5855 125.134 36.0445C125.089 35.9725 125.035 35.9058 124.972 35.8448C124.909 35.7838 124.846 35.7228 124.783 35.6614C124.719 35.6004 124.651 35.5303 124.577 35.4515C125.041 35.5919 125.507 35.7945 125.974 36.0586C126.388 36.2798 126.821 36.5821 127.275 36.9658C127.727 37.35 128.144 37.8481 128.525 38.4611C128.907 39.0744 129.156 39.6867 129.272 40.2986C129.388 40.9103 129.405 41.4832 129.321 42.0174C129.237 42.5507 129.056 43.0384 128.777 43.4797C128.498 43.921 128.157 44.2634 127.754 44.506C126.839 45.0584 125.935 45.2751 125.043 45.1564C124.151 45.0375 123.256 44.7533 122.36 44.3024C121.463 43.8518 120.549 43.3243 119.62 42.72C118.69 42.1163 117.735 41.6134 116.756 41.2119C115.776 40.8116 114.763 40.5989 113.715 40.5734C112.668 40.5486 111.576 40.8789 110.441 41.5637C109.691 42.0165 109.075 42.5929 108.592 43.2941C108.108 43.9944 107.788 44.7643 107.63 45.6033C107.472 46.4424 107.485 47.3337 107.669 48.2767C107.853 49.2195 108.236 50.1597 108.819 51.0976C109.111 51.5666 109.425 51.9847 109.761 52.3523C109.425 52.7201 109.111 53.1382 108.819 53.6078C108.236 54.5452 107.853 55.4853 107.669 56.4286C107.485 57.372 107.472 58.2627 107.63 59.1018C107.788 59.9409 108.108 60.7107 108.592 61.4114C109.075 62.112 109.691 62.6888 110.441 63.1417C111.576 63.8266 112.668 64.1568 113.715 64.1317C114.763 64.1068 115.776 63.8941 116.756 63.4932C117.735 63.092 118.69 62.5894 119.62 61.9851C120.549 61.3808 121.463 60.8531 122.36 60.4028C123.256 59.9524 124.151 59.6676 125.043 59.549C125.935 59.4298 126.839 59.6467 127.754 60.1991C128.157 60.4418 128.498 60.7845 128.777 61.2255C129.056 61.6667 129.237 62.1546 129.321 62.6883C129.405 63.2225 129.388 63.7949 129.272 64.4065C129.156 65.0185 128.907 65.631 128.525 66.2437C128.144 66.8567 127.727 67.3553 127.275 67.739C126.821 68.1229 126.388 68.4255 125.974 68.6467C125.507 68.9103 125.041 69.1129 124.577 69.2538C124.651 69.175 124.719 69.1049 124.783 69.0436C124.846 68.9826 124.909 68.9216 124.972 68.8603C125.035 68.7995 125.089 68.7329 125.134 68.6606C125.471 68.1198 125.568 67.5585 125.426 66.9771C125.284 66.3957 124.939 65.9392 124.39 65.6077C123.841 65.2761 123.271 65.1806 122.68 65.3202C122.09 65.46 121.627 65.8004 121.291 66.3412C120.954 66.8819 120.857 67.4432 120.998 68.0246C121.14 68.6063 121.486 69.0628 122.035 69.3942C122.382 69.6039 122.841 69.7067 123.41 69.703C123.979 69.6988 124.584 69.5748 125.228 69.3307C125.87 69.086 126.511 68.7233 127.151 68.2413C127.79 67.7596 128.34 67.1488 128.8 66.4095C129.35 65.5261 129.71 64.6337 129.88 63.7322C130.05 62.8306 130.056 61.9724 129.896 61.1568C129.736 60.3412 129.43 59.5988 128.978 58.9292C128.526 58.2599 127.961 57.7203 127.284 57.3118C126.131 56.6159 125.035 56.2832 123.996 56.3139C122.958 56.3442 121.949 56.5595 120.97 56.9609C119.991 57.3618 119.036 57.8641 118.106 58.4684C117.176 59.0727 116.263 59.5999 115.366 60.0507C114.469 60.5014 113.574 60.7861 112.683 60.9048C111.79 61.0234 110.887 60.8067 109.972 60.2545C109.496 59.9674 109.105 59.5945 108.797 59.1368C108.491 58.6789 108.288 58.1661 108.188 57.5971C108.088 57.0287 108.111 56.4162 108.255 55.7597C108.399 55.1029 108.679 54.4406 109.094 53.7733ZM80.8787 51.305C82.1852 51.305 83.7526 52.3523 83.7526 52.3523C83.7526 52.3523 82.1852 53.4004 80.8787 53.4004C79.5708 53.4004 79.0182 52.3523 79.0182 52.3523C79.0182 52.3523 79.5708 51.305 80.8787 51.305ZM73.0576 54.3516C70.5623 54.3516 67.5723 52.3523 67.5723 52.3523C67.5723 52.3523 70.5623 50.3538 73.0576 50.3538C75.552 50.3538 76.6069 52.3523 76.6069 52.3523C76.6069 52.3523 75.552 54.3516 73.0576 54.3516ZM51.3209 52.1839C51.3249 52.1762 52.835 49.3159 56.3985 49.3159C59.8547 49.3159 63.944 52.05 63.9558 52.0576L64.3992 52.3528L63.9558 52.6478C63.944 52.6563 59.8547 55.3896 56.3985 55.3896C52.8343 55.3896 51.3249 52.53 51.3209 52.5218L51.2287 52.3528L51.3209 52.1839ZM56.3985 50.0289C58.9613 50.0289 61.9452 51.6677 63.0802 52.3528C61.9452 53.0383 58.9613 54.6771 56.3985 54.6771C53.7646 54.6771 52.4192 52.9128 52.0582 52.3528C52.4192 51.7923 53.7646 50.0289 56.3985 50.0289ZM77.1949 53.0873C73.9473 56.3592 69.1076 54.4638 65.7432 52.3528C69.6803 49.8817 73.9796 48.4889 77.1949 51.6169C77.4859 51.9446 77.6655 52.2223 77.7433 52.3528C77.6655 52.4822 77.4859 52.7605 77.1949 53.0873ZM79.2074 50.9312C78.9341 51.3717 78.6358 51.7664 78.3146 52.1169C76.8576 50.6632 75.2044 49.4167 73.0257 49.4167C69.5202 49.4167 65.3474 52.2054 65.3365 52.2124L65.1252 52.3528L65.3365 52.4919C65.3474 52.5 69.5202 55.2884 73.0257 55.2884C75.2058 55.2884 76.8555 54.0406 78.3146 52.5884C78.6358 52.9377 78.9341 53.3329 79.2074 53.773C79.6222 54.4406 79.9021 55.1023 80.0461 55.7597C80.1906 56.4156 80.2133 57.0287 80.1129 57.5974C80.0139 58.1655 79.8104 58.6789 79.5037 59.1365C79.1971 59.5951 78.8059 59.9674 78.3298 60.2542C77.4149 60.8067 76.5117 61.0234 75.6189 60.9048C74.7271 60.7853 73.8322 60.501 72.9357 60.0505C72.0388 59.5999 71.125 59.0727 70.1957 58.4684C69.2647 57.8639 68.311 57.3613 67.3319 56.9609C66.3524 56.5595 65.3437 56.3439 64.3051 56.3137C63.2663 56.2829 62.171 56.6157 61.0172 57.3121C60.3404 57.72 59.7749 58.2593 59.3235 58.9289C58.8708 59.5988 58.5655 60.3406 58.4058 61.1568C58.2456 61.9721 58.2513 62.8304 58.4212 63.7322C58.5917 64.6331 58.952 65.5264 59.5014 66.4093C59.9612 67.1488 60.511 67.759 61.1504 68.2413C61.7902 68.7233 62.4311 69.0863 63.0738 69.3301C63.7168 69.5748 64.3224 69.6988 64.8917 69.7033C65.4607 69.7064 65.9187 69.6039 66.2664 69.3934C66.8159 69.0628 67.161 68.606 67.3027 68.0246C67.4452 67.4432 67.3471 66.8819 67.0104 66.3412C66.6745 65.8002 66.2107 65.46 65.6208 65.3202C65.0305 65.18 64.4612 65.2756 63.9116 65.6077C63.3621 65.9389 63.0168 66.396 62.875 66.9771C62.7334 67.5585 62.8309 68.1195 63.1677 68.6606C63.2127 68.7329 63.2657 68.7987 63.3299 68.8605C63.3919 68.921 63.4559 68.982 63.5187 69.0436C63.5821 69.1044 63.6506 69.1744 63.7249 69.2538C63.2603 69.1129 62.7939 68.9097 62.327 68.6461C61.9134 68.4249 61.4796 68.1229 61.0272 67.739C60.5744 67.3559 60.1572 66.8564 59.7757 66.2437C59.3948 65.631 59.1462 65.0182 59.0296 64.4063C58.9136 63.7952 58.8974 63.2225 58.9804 62.6883C59.0645 62.154 59.2454 61.6664 59.5245 61.2255C59.804 60.7839 60.145 60.442 60.5478 60.1991C61.4621 59.6462 62.366 59.4298 63.2589 59.5481C64.1508 59.6674 65.0448 59.9518 65.9411 60.4028C66.8388 60.8531 67.7521 61.3803 68.6816 61.9846C69.612 62.5886 70.5666 63.0923 71.5449 63.4932C72.5249 63.8941 73.5383 64.1071 74.586 64.1311C75.6337 64.1562 76.725 63.8262 77.8603 63.1417C78.6106 62.6888 79.2275 62.1125 79.7096 61.411C80.1935 60.7101 80.5136 59.9409 80.6714 59.1012C80.8291 58.2627 80.8159 57.372 80.6321 56.4278C80.4487 55.4853 80.065 54.5452 79.4819 53.6078C79.1911 53.1382 78.8756 52.7201 78.54 52.3528C78.8756 51.9847 79.1902 51.5666 79.4819 51.0971C80.065 50.1597 80.4487 49.2195 80.6321 48.2765C80.8159 47.3332 80.8291 46.4421 80.6714 45.6031C80.5136 44.7643 80.1935 43.9944 79.7096 43.2941C79.2275 42.5926 78.6106 42.0163 77.8603 41.5634C76.725 40.8783 75.6337 40.5486 74.586 40.5741C73.5383 40.5989 72.5249 40.811 71.5449 41.2119C70.5666 41.6134 69.612 42.1154 68.6816 42.7203C67.7521 43.3246 66.8388 43.8518 65.9411 44.3024C65.0448 44.7533 64.1508 45.0375 63.2589 45.1561C62.366 45.2745 61.4621 45.058 60.5478 44.506C60.145 44.2628 59.804 43.9213 59.5245 43.4797C59.2454 43.0384 59.0645 42.5507 58.9804 42.0168C58.8974 41.4826 58.9136 40.9105 59.0296 40.298C59.1462 39.6869 59.3948 39.0744 59.7757 38.4611C60.1572 37.8486 60.5744 37.3492 61.0272 36.9658C61.4796 36.5821 61.9134 36.2798 62.327 36.0584C62.7939 35.7942 63.2603 35.5913 63.7249 35.451C63.6506 35.5298 63.5821 35.5998 63.5187 35.6614C63.4559 35.7228 63.3919 35.7831 63.3299 35.8445C63.2657 35.9055 63.2127 35.9722 63.1677 36.0442C62.8309 36.5855 62.7334 37.1463 62.875 37.7277C63.0168 38.31 63.3621 38.7662 63.9116 39.0974C64.4612 39.4284 65.0305 39.5242 65.6208 39.3855C66.2107 39.2451 66.6745 38.9044 67.0104 38.3636C67.3471 37.8229 67.4452 37.2615 67.3027 36.6801C67.161 36.0991 66.8159 35.6431 66.2664 35.3111C65.9187 35.102 65.4607 34.9983 64.8917 35.0018C64.3224 35.006 63.7168 35.13 63.0738 35.3746C62.4311 35.6185 61.7902 35.9821 61.1504 36.4638C60.511 36.9451 59.9612 37.5562 59.5014 38.295C58.952 39.1793 58.5917 40.0717 58.4212 40.9721C58.2513 41.8739 58.2456 42.7327 58.4058 43.5483C58.5655 44.3634 58.8708 45.1067 59.3235 45.7753C59.7749 46.4458 60.3404 46.9843 61.0172 47.3931C62.171 48.0892 63.2663 48.4222 64.3051 48.3915C65.3437 48.361 66.3524 48.1457 67.3319 47.7445C68.311 47.3436 69.2647 46.8413 70.1957 46.2367C71.125 45.6324 72.0388 45.1044 72.9357 44.6544C73.8322 44.2032 74.7271 43.9193 75.6189 43.8004C76.5117 43.6814 77.4149 43.8989 78.3298 44.4501C78.8059 44.7377 79.1971 45.1098 79.5037 45.5678C79.8104 46.0262 80.0139 46.5396 80.1129 47.1074C80.2133 47.6761 80.1906 48.2894 80.0461 48.9455C79.9021 49.602 79.6222 50.2642 79.2074 50.9312ZM93.0875 65.4256C93.0875 66.7134 94.151 67.2576 94.151 67.2576C94.151 67.2576 95.2142 66.7134 95.2142 65.4256C95.2142 64.1376 94.151 62.5945 94.151 62.5945C94.151 62.5945 93.0875 64.1376 93.0875 65.4256ZM96.1801 73.1296C96.1801 70.6718 94.151 69.6329 94.151 69.6329C94.151 69.6329 92.1216 70.6718 92.1216 73.1296C92.1216 75.5869 94.151 78.5324 94.151 78.5324C94.151 78.5324 96.1801 75.5869 96.1801 73.1296ZM93.9801 94.5398L94.1513 94.6302L94.3226 94.5398C94.3306 94.5356 97.2346 93.049 97.2346 89.5385C97.2346 86.1345 94.4588 82.1056 94.451 82.0943L94.1513 81.6567L93.8513 82.0943C93.8436 82.1056 91.0681 86.1345 91.0681 89.5385C91.0681 93.049 93.9718 94.5356 93.9801 94.5398ZM91.7923 89.5385C91.7923 92.1326 93.5826 93.4575 94.1513 93.8132C94.7201 93.4575 96.5103 92.1326 96.5103 89.5385C96.5103 87.0143 94.8465 84.0753 94.1513 82.9568C93.4561 84.0753 91.7923 87.0143 91.7923 89.5385ZM94.8976 69.0538C94.5652 68.7673 94.2824 68.5905 94.1508 68.5142C94.0188 68.5905 93.7366 68.7673 93.4042 69.0538C90.2286 72.2213 91.6423 76.4556 94.1508 80.3337C96.2952 77.0198 98.2185 72.2524 94.8976 69.0538ZM92.7081 67.0714C92.0312 66.6629 91.3589 66.3873 90.692 66.2454C90.0255 66.1031 89.4037 66.0809 88.8263 66.1793C88.249 66.2773 87.7281 66.4776 87.2635 66.7793C86.7986 67.0818 86.4203 67.4669 86.1288 67.9359C85.5678 68.8374 85.3481 69.7273 85.4683 70.6059C85.5888 71.4848 85.8782 72.3657 86.3353 73.2494C86.7931 74.1328 87.3283 75.0329 87.9418 75.9485C88.5553 76.8641 89.0655 77.8046 89.4725 78.7691C89.8798 79.7339 90.0984 80.7278 90.129 81.7505C90.1603 82.7735 89.8224 83.8529 89.1163 84.989C88.7013 85.656 88.1538 86.2125 87.474 86.6572C86.7939 87.1024 86.0402 87.4036 85.2128 87.5615C84.3845 87.7189 83.5131 87.7134 82.5979 87.5457C81.6829 87.3781 80.7766 87.0236 79.8797 86.4823C79.1295 86.0294 78.5094 85.4876 78.0203 84.8579C77.531 84.2275 77.1624 83.5962 76.9144 82.9633C76.6666 82.3297 76.5403 81.733 76.5363 81.1725C76.5324 80.612 76.637 80.1608 76.8498 79.8181C77.1863 79.2776 77.6498 78.9372 78.2403 78.7971C78.8303 78.6576 79.4004 78.7533 79.9494 79.085C80.4984 79.4161 80.844 79.8729 80.9857 80.4543C81.1277 81.0357 81.0305 81.5971 80.6937 82.1378C80.3573 82.6788 79.8941 83.0189 79.3038 83.1588C78.7135 83.2983 78.1437 83.2023 77.5944 82.8709C77.521 82.8266 77.4533 82.7737 77.3919 82.7116C77.3294 82.6494 77.2674 82.587 77.2055 82.5248C77.1435 82.463 77.0721 82.3949 76.9924 82.3217C77.1355 82.78 77.3406 83.2388 77.6085 83.6984C77.8334 84.1064 78.1402 84.5332 78.5297 84.979C78.9195 85.4249 79.4257 85.8362 80.0481 86.2117C80.6705 86.5871 81.292 86.8321 81.9136 86.9465C82.5342 87.0609 83.1156 87.0775 83.658 86.995C84.1994 86.9129 84.6948 86.7346 85.1431 86.4594C85.5908 86.184 85.9384 85.8483 86.1847 85.4514C86.7458 84.5499 86.9658 83.6602 86.845 82.7814C86.7243 81.9031 86.4355 81.0216 85.9782 80.1379C85.5208 79.2545 84.9853 78.3547 84.3718 77.4394C83.7583 76.5229 83.248 75.583 82.8408 74.6185C82.4338 73.6537 82.2179 72.6552 82.1926 71.6232C82.1671 70.5915 82.5023 69.5166 83.1973 68.3984C83.6574 67.6596 84.2428 67.0522 84.9541 66.5763C85.6656 66.1002 86.4472 65.7846 87.2991 65.6295C88.1506 65.4742 89.0552 65.4871 90.0129 65.6682C90.97 65.8488 91.9251 66.2262 92.8768 66.8005C93.3529 67.0886 93.7776 67.398 94.151 67.7288C94.5239 67.3974 94.9487 67.0881 95.425 66.8005C96.377 66.2262 97.3315 65.8488 98.2885 65.6682C99.2462 65.4871 100.151 65.4742 101.003 65.6295C101.855 65.7846 102.636 66.1002 103.348 66.5763C104.059 67.0522 104.644 67.6596 105.104 68.3984C105.799 69.5166 106.134 70.5915 106.109 71.6232C106.084 72.6552 105.868 73.6537 105.461 74.6185C105.054 75.583 104.543 76.5229 103.93 77.4394C103.316 78.3547 102.781 79.2545 102.323 80.1379C101.866 81.0216 101.577 81.9031 101.456 82.7814C101.336 83.6602 101.556 84.5499 102.117 85.4514C102.363 85.8483 102.711 86.184 103.159 86.4594C103.607 86.7346 104.102 86.9129 104.643 86.995C105.186 87.0775 105.767 87.0609 106.388 86.9465C107.01 86.8321 107.631 86.5871 108.254 86.2117C108.876 85.8362 109.382 85.4249 109.772 84.979C110.162 84.5332 110.468 84.1064 110.693 83.6984C110.961 83.2388 111.166 82.78 111.309 82.3217C111.229 82.3949 111.158 82.463 111.096 82.5248C111.034 82.587 110.972 82.6494 110.91 82.7116C110.848 82.7737 110.78 82.8266 110.707 82.8709C110.158 83.2023 109.588 83.2983 108.998 83.1588C108.407 83.0189 107.944 82.6788 107.607 82.1378C107.271 81.5971 107.174 81.0357 107.316 80.4543C107.457 79.8729 107.803 79.4161 108.352 79.085C108.902 78.7533 109.471 78.6576 110.061 78.7971C110.652 78.9372 111.115 79.2776 111.452 79.8181C111.664 80.1608 111.769 80.612 111.765 81.1725C111.761 81.733 111.635 82.3297 111.387 82.9633C111.139 83.5962 110.77 84.2275 110.281 84.8579C109.792 85.4876 109.172 86.0294 108.422 86.4823C107.525 87.0236 106.619 87.3781 105.704 87.5457C104.789 87.7134 103.917 87.7189 103.089 87.5615C102.261 87.4036 101.507 87.1024 100.827 86.6572C100.148 86.2125 99.6004 85.656 99.1855 84.989C98.479 83.8529 98.1414 82.7735 98.1721 81.7505C98.2028 80.7278 98.422 79.7339 98.8292 78.7691C99.2359 77.8046 99.7459 76.8641 100.359 75.9485C100.973 75.0329 101.509 74.1328 101.966 73.2494C102.424 72.3657 102.713 71.4848 102.834 70.6059C102.954 69.7273 102.733 68.8374 102.173 67.9359C101.881 67.4669 101.503 67.0818 101.038 66.7793C100.574 66.4776 100.052 66.2773 99.4754 66.1793C98.8983 66.0809 98.2762 66.1031 97.6097 66.2454C96.9428 66.3873 96.2706 66.6629 95.5931 67.0714C95.1466 67.3409 94.7457 67.6341 94.3903 67.9514C95.8649 69.3877 97.1313 71.0133 97.1313 73.1604C97.1313 76.6139 94.3008 80.723 94.2925 80.7351L94.1508 80.9425L94.0091 80.7351C94.0019 80.723 91.1699 76.6139 91.1699 73.1604C91.1699 71.0147 92.4362 69.386 93.9116 67.9514C93.5562 67.6341 93.1552 67.3409 92.7081 67.0714ZM95.2142 39.2793C95.2142 37.9913 94.151 37.4466 94.151 37.4466C94.151 37.4466 93.0873 37.9913 93.0873 39.2793C93.0873 40.5661 94.151 42.1104 94.151 42.1104C94.151 42.1104 95.2142 40.5661 95.2142 39.2793ZM92.1212 31.5755C92.1212 34.0325 94.151 35.0715 94.151 35.0715C94.151 35.0715 96.1799 34.0325 96.1799 31.5755C96.1799 29.1179 94.151 26.1724 94.151 26.1724C94.151 26.1724 92.1212 29.1179 92.1212 31.5755ZM94.3223 10.1646L94.1508 10.0742L93.9795 10.1646C93.9706 10.1689 91.0675 11.6554 91.0675 15.1663C91.0675 18.5706 93.8427 22.5989 93.851 22.6102L94.1508 23.0472L94.4505 22.6102C94.4585 22.5989 97.2337 18.5706 97.2337 15.1663C97.2337 11.6563 94.3297 10.1689 94.3223 10.1646ZM96.5097 15.1663C96.5097 12.5717 94.7195 11.2466 94.1508 10.8913C93.582 11.2466 91.7908 12.5717 91.7908 15.1663C91.7908 17.6905 93.4547 20.6298 94.1508 21.7477C94.846 20.6298 96.5097 17.6905 96.5097 15.1663ZM93.4047 35.6507C93.7366 35.9377 94.0194 36.1146 94.1508 36.1908C94.2833 36.1146 94.5652 35.9377 94.8976 35.6507C98.0732 32.4838 96.6592 28.2492 94.1508 24.3708C92.0074 27.685 90.0832 32.452 93.4047 35.6507ZM95.594 37.6334C96.2706 38.0419 96.9436 38.3176 97.6097 38.4589C98.2759 38.6016 98.8983 38.6236 99.4757 38.5252C100.052 38.4275 100.574 38.2272 101.039 37.9249C101.503 37.6232 101.882 37.2375 102.173 36.7686C102.733 35.8676 102.954 34.9778 102.834 34.0985C102.713 33.2199 102.424 32.3385 101.966 31.4557C101.509 30.5719 100.973 29.6719 100.36 28.7568C99.7459 27.8398 99.2362 26.9002 98.8292 25.9357C98.422 24.9708 98.2033 23.977 98.1721 22.9546C98.1408 21.9313 98.479 20.8523 99.186 19.7158C99.6004 19.0488 100.148 18.4922 100.828 18.0476C101.507 17.6018 102.262 17.3009 103.089 17.1436C103.917 16.9859 104.789 16.9916 105.704 17.1585C106.619 17.3269 107.525 17.6815 108.422 18.2224C109.172 18.6756 109.793 19.2172 110.281 19.8469C110.771 20.4769 111.14 21.108 111.387 21.7417C111.636 22.3751 111.762 22.9715 111.766 23.532C111.769 24.0922 111.664 24.544 111.452 24.8861C111.115 25.4274 110.652 25.7676 110.061 25.9071C109.471 26.0475 108.902 25.9509 108.353 25.6187C107.804 25.2881 107.458 24.8313 107.315 24.2502C107.174 23.669 107.272 23.1079 107.608 22.5663C107.944 22.0256 108.407 21.6852 108.999 21.5457C109.589 21.4061 110.158 21.5021 110.708 21.8341C110.781 21.8784 110.848 21.9304 110.91 21.9938C110.972 22.0548 111.034 22.118 111.096 22.1796C111.159 22.2421 111.23 22.3098 111.309 22.3827C111.167 21.9248 110.961 21.4657 110.693 21.0061C110.468 20.5984 110.162 20.1715 109.772 19.7254C109.383 19.2794 108.876 18.8685 108.254 18.4928C107.631 18.1177 107.009 17.873 106.389 17.758C105.767 17.6433 105.186 17.6275 104.644 17.7094C104.102 17.7922 103.607 17.9705 103.159 18.2453C102.71 18.5208 102.364 18.8567 102.117 19.2537C101.557 20.154 101.337 21.0442 101.457 21.9237C101.578 22.802 101.866 23.6829 102.323 24.566C102.781 25.45 103.316 26.3498 103.93 27.2654C104.544 28.1813 105.054 29.1221 105.461 30.0858C105.868 31.0511 106.084 32.0489 106.109 33.0809C106.134 34.1133 105.8 35.1882 105.104 36.3064C104.644 37.0455 104.059 37.6528 103.348 38.128C102.636 38.6044 101.855 38.9199 101.003 39.0753C100.151 39.2307 99.2465 39.2177 98.2891 39.036C97.3315 38.8558 96.377 38.4781 95.4253 37.9037C94.9487 37.6161 94.5239 37.3062 94.1508 36.976C93.7776 37.3062 93.3529 37.6167 92.8768 37.9037C91.9251 38.4781 90.97 38.8558 90.0135 39.036C89.0552 39.2177 88.1506 39.2307 87.2993 39.0753C86.4472 38.9199 85.666 38.6044 84.9543 38.128C84.2424 37.6528 83.6574 37.0455 83.1973 36.3064C82.5023 35.1882 82.1674 34.1133 82.1929 33.0809C82.2173 32.0489 82.4338 31.0511 82.8408 30.0858C83.2475 29.1221 83.7589 28.1813 84.3721 27.2654C84.9856 26.3498 85.5208 25.45 85.9782 24.566C86.4357 23.6829 86.7248 22.802 86.8456 21.9237C86.9661 21.0442 86.7461 20.154 86.1847 19.2537C85.9382 18.8567 85.5913 18.5208 85.1431 18.2453C84.6951 17.9705 84.2003 17.7922 83.658 17.7094C83.1156 17.6275 82.5342 17.6433 81.9138 17.758C81.2926 17.873 80.6705 18.1177 80.0481 18.4928C79.426 18.8685 78.9192 19.2794 78.5297 19.7254C78.1402 20.1715 77.8336 20.5984 77.6093 21.0061C77.3414 21.4657 77.1355 21.9248 76.9924 22.3827C77.0724 22.3098 77.1438 22.2421 77.2058 22.1796C77.268 22.118 77.3303 22.0548 77.3916 21.9938C77.4542 21.9304 77.521 21.8784 77.5944 21.8341C78.1437 21.5021 78.7135 21.4061 79.3035 21.5457C79.8935 21.6852 80.3576 22.0256 80.6937 22.5663C81.031 23.1079 81.1283 23.669 80.9857 24.2502C80.844 24.8313 80.4987 25.2881 79.9494 25.6187C79.4004 25.9509 78.8303 26.0475 78.2403 25.9071C77.65 25.7676 77.1863 25.4274 76.8504 24.8861C76.637 24.544 76.5329 24.0922 76.536 23.532C76.5403 22.9715 76.6668 22.3751 76.9146 21.7417C77.1624 21.108 77.531 20.4769 78.0203 19.8469C78.5096 19.2172 79.1295 18.6756 79.8803 18.2224C80.7763 17.6815 81.6832 17.3269 82.5982 17.1585C83.5134 16.9916 84.3847 16.9859 85.2128 17.1436C86.0411 17.3009 86.7945 17.6018 87.4743 18.0476C88.154 18.4922 88.7018 19.0488 89.1158 19.7158C89.8228 20.8523 90.1609 21.9313 90.1296 22.9546C90.0989 23.977 89.8798 24.9708 89.4725 25.9357C89.0661 26.9002 88.5559 27.8398 87.9418 28.7568C87.3283 29.6719 86.7931 30.5719 86.336 31.4557C85.8782 32.3385 85.5902 33.2199 85.4683 34.0985C85.3481 34.9778 85.5678 35.8676 86.1291 36.7686C86.4203 37.2375 86.7982 37.6232 87.2638 37.9249C87.7281 38.2272 88.2492 38.4275 88.8261 38.5252C89.4037 38.6236 90.0258 38.6016 90.692 38.4589C91.3592 38.3176 92.0312 38.0419 92.7086 37.6334C93.1558 37.3638 93.557 37.0701 93.9116 36.7539C92.4376 35.3165 91.1705 33.6917 91.1705 31.5441C91.1705 28.0912 94.0013 23.9812 94.0094 23.9705L94.1508 23.7623L94.293 23.9705C94.3002 23.9812 97.1313 28.0912 97.1313 31.5441C97.1313 33.6903 95.8658 35.3184 94.3903 36.7539C94.7462 37.0701 95.1469 37.3638 95.594 37.6334ZM119.842 31.089C117.475 33.0973 114.816 32.0506 114.816 32.0506C114.816 32.0506 114.157 29.306 116.524 27.2965C118.89 25.2879 123.386 24.7762 123.386 24.7762C123.386 24.7762 122.208 29.08 119.842 31.089Z" fill="#2B2A29"/>
<path fill-rule="evenodd" clip-rule="evenodd" d="M126.504 20.4869C118.224 12.331 106.786 7.28649 94.1512 7.28649C81.5168 7.28649 70.078 12.331 61.7983 20.4869C53.5183 28.6422 48.397 39.9094 48.397 52.3544C48.397 64.7993 53.5183 76.0668 61.7983 84.222C70.078 92.3773 81.5168 97.4222 94.1512 97.4222C106.786 97.4222 118.224 92.3773 126.504 84.222C134.784 76.0668 139.906 64.7993 139.906 52.3544C139.906 39.9094 134.784 28.6422 126.504 20.4869ZM95.031 5.55078H93.2715C80.4973 5.77926 68.953 10.9715 60.5459 19.2529C51.9457 27.7241 46.6259 39.4277 46.6259 52.3544C46.6259 65.281 51.9457 76.9849 60.5459 85.4558C69.1459 93.9267 81.0278 99.1669 94.1512 99.1669C107.275 99.1669 119.156 93.9267 127.757 85.4558C136.357 76.9846 141.676 65.281 141.676 52.3544C141.676 39.4277 136.357 27.7243 127.757 19.2529C119.349 10.9715 107.805 5.77926 95.031 5.55078Z" fill="#2B2A29"/>
<path d="M94.1508 0C108.828 0 122.116 5.86003 131.734 15.3343C141.353 24.8085 147.302 37.8971 147.302 52.3541C147.302 66.811 141.353 79.8997 131.734 89.3739C122.116 98.8482 108.828 104.708 94.1508 104.708C79.4737 104.708 66.1857 98.8482 56.5673 89.3739C46.9489 79.8997 40.9995 66.811 40.9995 52.3541C40.9995 37.8971 46.9489 24.8085 56.5673 15.3343C66.1857 5.86003 79.4737 0 94.1508 0ZM128.86 18.1653C119.977 9.41585 107.706 4.00412 94.1508 4.00412C80.5959 4.00412 68.3241 9.41585 59.4414 18.1653C50.5588 26.9148 45.0646 39.0024 45.0646 52.3541C45.0646 65.7057 50.5588 77.7934 59.4414 86.5429C68.3241 95.2924 80.5959 100.704 94.1508 100.704C107.706 100.704 119.977 95.2924 128.86 86.5429C137.743 77.7935 143.237 65.7057 143.237 52.3541C143.237 39.0024 137.743 26.9148 128.86 18.1653Z" fill="#2B2A29"/>
<path fill-rule="evenodd" clip-rule="evenodd" d="M89.3484 61.3727H88.8594V55.3631H89.3484C89.9524 58.6984 91.7166 60.3633 94.6419 60.3633C95.653 60.3633 96.4942 60.0957 97.1663 59.5607C97.8386 59.0264 98.1776 58.3377 98.1776 57.4955C98.1776 56.5462 97.6822 55.7041 96.6982 54.9616C94.3633 53.6183 92.4497 52.4685 90.9434 51.4992C89.4433 50.5301 88.6964 49.2464 88.6964 47.6553C88.6964 46.3385 89.192 45.2423 90.1968 44.3666C91.1943 43.484 92.4293 43.043 93.9019 43.043C94.8589 43.043 95.8564 43.2702 96.9081 43.7249C97.4038 43.9453 97.7499 44.0527 97.947 44.0527C98.4082 44.0527 98.7068 43.7111 98.8559 43.043H99.338V49.106H98.8559C98.5981 47.3146 98.0009 46.0312 97.0716 45.2492C96.1349 44.4666 95.0898 44.079 93.936 44.079C93.0738 44.079 92.3275 44.3397 91.71 44.8612C91.0925 45.376 90.7802 46.0108 90.7802 46.7597C90.7802 47.2479 90.9907 47.7624 91.4112 48.3042C91.8322 48.852 93.1014 49.6877 95.2182 50.8039C96.5149 51.4927 97.499 52.054 98.1707 52.495C98.8358 52.9366 99.3922 53.5115 99.8402 54.2133C100.288 54.915 100.512 55.6769 100.512 56.4996C100.512 57.8966 99.9759 59.0527 98.8966 59.9819C97.8248 60.9113 96.4942 61.3727 94.92 61.3727C94.0648 61.3727 93.0061 61.1656 91.7441 60.7577C90.9703 60.5034 90.4339 60.3766 90.1423 60.3766C89.7146 60.3766 89.4502 60.7043 89.3484 61.3727Z" fill="#2B2A29"/>
<path fill-rule="evenodd" clip-rule="evenodd" d="M75.3257 150.967V133.806C75.3257 133.785 75.3228 133.769 75.3176 133.756C75.3119 133.743 75.3011 133.728 75.2859 133.713C75.2724 133.701 75.2577 133.691 75.2428 133.686C75.2233 133.678 75.1972 133.674 75.1659 133.674H71.1824C71.3895 133.969 71.5472 134.307 71.6539 134.687C71.7675 135.09 71.8243 135.537 71.8243 136.026L71.8263 150.985C71.832 150.996 71.8449 151.013 71.8648 151.032L71.9115 151.069L75.1659 151.072C75.1978 151.072 75.2236 151.068 75.2431 151.061C75.2589 151.054 75.2738 151.045 75.2853 151.033L75.3228 150.986L75.3257 150.967ZM65.5037 133.674H62.3482C62.3167 133.674 62.2911 133.678 62.2716 133.686C62.2555 133.692 62.2409 133.701 62.2289 133.712C62.2129 133.728 62.2014 133.743 62.1954 133.756L62.1885 133.806V140.466C62.1885 140.745 62.0867 140.985 61.8841 141.185C61.7915 141.276 61.6857 141.348 61.5673 141.401C61.4444 141.456 61.3151 141.484 61.1812 141.484H55.3469C55.0343 141.484 54.786 141.39 54.6041 141.202C54.4287 141.021 54.3399 140.775 54.3399 140.466V133.806C54.3399 133.785 54.3372 133.768 54.3324 133.756C54.3278 133.745 54.3164 133.73 54.2995 133.714C54.2866 133.701 54.272 133.691 54.2568 133.686C54.2373 133.678 54.2116 133.674 54.1802 133.674H50.223C50.4304 133.969 50.588 134.307 50.6948 134.687C50.8083 135.09 50.8651 135.537 50.8651 136.026L50.8666 150.985L50.9056 151.032L50.9524 151.069L54.1802 151.072C54.2122 151.072 54.238 151.068 54.2573 151.061C54.273 151.054 54.2881 151.045 54.2995 151.033C54.3186 151.014 54.3314 150.998 54.3376 150.984L54.3399 143.914C54.3399 143.235 54.6754 142.896 55.3469 142.896H61.1812C61.3131 142.896 61.442 142.924 61.5662 142.978C61.6833 143.03 61.7903 143.103 61.8841 143.195C61.9811 143.291 62.0559 143.401 62.1081 143.524C62.1612 143.649 62.1885 143.779 62.1885 143.914L62.1899 150.985L62.2289 151.032C62.2418 151.045 62.2568 151.055 62.2716 151.061C62.2902 151.068 62.3163 151.072 62.3482 151.072H65.5037C65.5356 151.072 65.5614 151.068 65.5806 151.061C65.5966 151.054 65.6116 151.045 65.6231 151.033C65.642 151.014 65.6546 150.998 65.6612 150.984L65.6635 133.806C65.6635 133.785 65.6604 133.768 65.6555 133.756C65.6512 133.745 65.6397 133.73 65.6231 133.714C65.6099 133.701 65.5953 133.691 65.5803 133.686C65.5609 133.678 65.5347 133.674 65.5037 133.674ZM87.7049 133.674V137.15C87.5583 137.158 87.4292 137.204 87.3166 137.29C87.2001 137.38 87.1183 137.502 87.0745 137.653L84.8856 143.447L84.8835 143.45C84.8259 143.606 84.7969 143.748 84.7969 143.874C84.7969 144.029 84.8382 144.169 84.9202 144.289C85.0057 144.415 85.1253 144.505 85.2779 144.559C85.3883 144.599 85.5128 144.619 85.6502 144.619H87.7049V146.056H84.6426C84.4071 146.056 84.2023 146.117 84.0311 146.238C83.859 146.358 83.7351 146.531 83.6602 146.751L82.1806 150.811C82.1427 150.909 82.0951 150.977 82.0371 151.016C81.9836 151.053 81.9058 151.072 81.8051 151.072H79.8324L85.5951 136.178C85.8082 135.606 85.9152 135.11 85.9152 134.693C85.9152 134.506 85.8956 134.326 85.8578 134.156C85.8211 133.991 85.7646 133.832 85.6904 133.679L85.6883 133.674H87.7049ZM34.1133 145.647L33.0266 147.612C33.0094 147.641 33.0005 147.672 32.9999 147.703V147.708L33 147.712C33.0025 147.771 33.0242 147.841 33.0654 147.922L33.0707 147.929C33.3162 148.437 33.6402 148.899 34.0405 149.313C34.4464 149.734 34.9348 150.11 35.5052 150.442C36.073 150.773 36.6911 151.021 37.3578 151.187C38.0295 151.354 38.7549 151.438 39.5328 151.438C41.3801 151.438 42.8396 150.954 43.9106 149.988C44.442 149.509 44.8408 148.968 45.1045 148.369C45.368 147.771 45.5 147.104 45.5 146.369C45.5 145.591 45.3612 144.873 45.0841 144.214C44.9464 143.885 44.7792 143.576 44.5843 143.287C44.3916 143.001 44.1705 142.734 43.9222 142.49C43.6548 142.228 43.3964 141.992 43.1472 141.784C42.894 141.572 42.6419 141.379 42.3917 141.209C42.1329 141.031 41.8618 140.859 41.5794 140.692C41.2976 140.525 40.9944 140.357 40.6707 140.189L40.4994 140.11L40.2692 139.991C39.9106 139.81 39.5935 139.646 39.3196 139.502C39.0245 139.345 38.7849 139.216 38.6047 139.112C38.3946 138.992 38.194 138.856 38.0042 138.705C37.8138 138.553 37.6331 138.387 37.4652 138.206C37.2775 138.005 37.1341 137.794 37.0361 137.574C36.9332 137.342 36.8813 137.104 36.8813 136.862C36.8813 136.54 36.9416 136.247 37.061 135.983C37.1834 135.714 37.3656 135.483 37.6055 135.291C37.839 135.105 38.113 134.966 38.4249 134.876C38.7266 134.79 39.0602 134.746 39.4266 134.746C39.8367 134.746 40.2274 134.798 40.5955 134.901C40.9686 135.005 41.3154 135.161 41.6351 135.368C41.938 135.563 42.211 135.774 42.4525 135.997C42.6945 136.222 42.9047 136.46 43.0819 136.712C43.1079 136.747 43.1326 136.772 43.1557 136.786L43.1863 136.797L44.118 135.273C44.1691 135.165 44.1927 135.077 44.1892 135.013C44.1874 134.983 44.1725 134.954 44.1468 134.929C43.5772 134.392 42.8979 133.989 42.1119 133.72C41.3094 133.445 40.3877 133.309 39.3471 133.309C38.5696 133.309 37.8547 133.409 37.2033 133.611C36.5583 133.811 35.9706 134.111 35.4431 134.51C34.9272 134.899 34.5396 135.348 34.2819 135.854C34.0242 136.36 33.8906 136.932 33.8818 137.567C33.8836 137.945 33.9149 138.3 33.978 138.633C34.0403 138.965 34.1344 139.282 34.2595 139.58C34.383 139.874 34.5393 140.152 34.7277 140.413C34.9176 140.675 35.1394 140.92 35.3916 141.144C35.9269 141.622 36.4502 142.02 36.9609 142.339C37.2207 142.501 37.5114 142.668 37.8312 142.84C38.162 143.018 38.5214 143.201 38.9076 143.387C40.127 143.977 41.0294 144.52 41.6149 145.015C41.9451 145.294 42.194 145.619 42.3606 145.989C42.5248 146.358 42.6083 146.764 42.6083 147.205C42.6083 147.622 42.534 148 42.3855 148.342C42.2355 148.688 42.0099 148.991 41.7109 149.249C41.4155 149.503 41.0619 149.694 40.6527 149.819C40.2582 149.939 39.8136 149.999 39.3206 149.999C38.0753 149.999 36.9587 149.566 35.9718 148.698C35.4884 148.274 35.0903 147.804 34.7786 147.292C34.4704 146.785 34.2482 146.236 34.1133 145.647ZM124.254 150.967V133.806C124.254 133.785 124.251 133.769 124.246 133.756C124.24 133.743 124.23 133.728 124.214 133.713C124.201 133.701 124.186 133.691 124.171 133.686C124.151 133.678 124.126 133.674 124.094 133.674H120.111C120.318 133.969 120.475 134.307 120.582 134.687C120.696 135.09 120.752 135.537 120.752 136.026L120.754 150.985C120.76 150.996 120.773 151.013 120.793 151.032L120.84 151.069L124.094 151.072C124.126 151.072 124.152 151.068 124.171 151.061C124.187 151.054 124.202 151.045 124.213 151.033L124.251 150.986L124.254 150.967ZM101.464 136.026L101.466 150.985L101.505 151.032L101.551 151.069L104.779 151.072C104.811 151.072 104.837 151.068 104.856 151.061C104.872 151.054 104.887 151.045 104.898 151.033L104.936 150.986L104.939 145.011C104.939 144.794 104.969 144.594 105.028 144.412C105.092 144.216 105.191 144.046 105.322 143.903L105.587 143.616C105.999 143.141 106.406 143.159 106.805 143.67L112.114 150.676C112.324 150.939 112.673 151.072 113.159 151.072H116.449L108.91 141.342C108.531 140.875 108.542 140.443 108.943 140.048L115.004 133.674H112.894C112.68 133.674 112.494 133.708 112.335 133.774C112.182 133.84 112.049 133.937 111.936 134.067C110.068 136.213 107.964 138.249 106.079 140.388C105.989 140.477 105.895 140.543 105.798 140.586C105.642 140.654 105.489 140.661 105.339 140.606C105.184 140.549 105.07 140.44 105.002 140.282L105.001 140.278C104.96 140.182 104.939 140.07 104.939 139.944V133.806C104.939 133.785 104.936 133.769 104.931 133.756C104.925 133.743 104.915 133.728 104.899 133.713C104.886 133.701 104.871 133.691 104.856 133.686C104.837 133.678 104.811 133.674 104.779 133.674H100.822C101.03 133.969 101.187 134.307 101.294 134.687C101.407 135.09 101.464 135.537 101.464 136.026ZM87.7049 146.056V144.619H89.7075C90.5237 144.619 90.7879 144.229 90.5002 143.45L88.3898 137.655C88.3482 137.512 88.2762 137.394 88.1733 137.306C88.0525 137.202 87.9097 137.149 87.7451 137.149L87.7049 137.15V133.674H89.9461C90.0628 133.674 90.1532 133.696 90.2146 133.739C90.2788 133.785 90.3316 133.865 90.3711 133.977L96.958 151.072H93.5261C93.4257 151.072 93.348 151.053 93.2926 151.016C93.2364 150.978 93.1891 150.908 93.1498 150.809L91.6712 146.751C91.5141 146.289 91.1516 146.056 90.5825 146.056H87.7049ZM138.503 133.71V135.3C138.002 135.175 137.471 135.112 136.912 135.112H134.817C134.679 135.112 134.547 135.139 134.42 135.191C134.296 135.244 134.185 135.323 134.089 135.427C133.996 135.527 133.925 135.641 133.878 135.765C133.833 135.888 133.81 136.019 133.81 136.156V148.616C133.81 148.755 133.833 148.886 133.881 149.007C133.931 149.138 134.005 149.253 134.102 149.347C134.296 149.538 134.535 149.634 134.817 149.634H136.912C137.471 149.634 138.002 149.571 138.503 149.446V151.036C138.2 151.06 137.89 151.072 137.575 151.072L130.422 151.069L130.376 151.032L130.337 150.985L130.335 136.026C130.335 135.537 130.278 135.09 130.165 134.687C130.058 134.307 129.9 133.969 129.693 133.674H137.575C137.89 133.674 138.2 133.686 138.503 133.71ZM154.981 150.967V133.806V133.802C154.981 133.783 154.978 133.768 154.973 133.756C154.967 133.743 154.957 133.728 154.942 133.713C154.928 133.701 154.913 133.691 154.898 133.686C154.878 133.678 154.853 133.674 154.822 133.674H150.838C151.045 133.969 151.203 134.307 151.309 134.687C151.423 135.09 151.479 135.537 151.479 136.026L151.482 150.985C151.487 150.996 151.501 151.013 151.52 151.032L151.567 151.069L154.822 151.072C154.853 151.072 154.879 151.068 154.898 151.061C154.914 151.054 154.929 151.045 154.941 151.033L154.979 150.986L154.981 150.967ZM138.503 151.036V149.446C138.826 149.365 139.136 149.259 139.434 149.127C140.194 148.789 140.869 148.284 141.456 147.612C142.038 146.946 142.475 146.171 142.766 145.287C143.053 144.416 143.196 143.444 143.196 142.373C143.196 141.302 143.053 140.33 142.766 139.458C142.475 138.577 142.039 137.802 141.456 137.136C140.869 136.463 140.194 135.957 139.434 135.619C139.136 135.487 138.826 135.381 138.503 135.3V133.71C140.77 133.886 142.695 134.721 144.278 136.214C145.174 137.059 145.847 137.994 146.294 139.015C146.74 140.034 146.963 141.145 146.963 142.347C146.963 143.568 146.74 144.692 146.294 145.72C145.848 146.748 145.175 147.686 144.278 148.532C142.695 150.025 140.77 150.86 138.503 151.036Z" fill="#2B2A29"/>
<path fill-rule="evenodd" clip-rule="evenodd" d="M33.0827 163.687H60.3378V163.109H33.0827V163.687Z" fill="#2B2A29"/>
<path d="M66.6106 161.001L68.3295 160.899C68.4228 161.332 68.4836 161.744 68.5118 162.136C68.833 161.682 69.1542 161.362 69.4754 161.177C69.7967 160.992 70.1504 160.899 70.5346 160.899C70.9448 160.899 71.2833 161.005 71.5503 161.215C71.8172 161.425 72.0212 161.767 72.1667 162.242C72.4489 161.792 72.7635 161.455 73.1108 161.232C73.458 161.009 73.8378 160.899 74.2481 160.899C74.7884 160.899 75.1943 161.056 75.4656 161.372C75.8129 161.786 75.9865 162.321 75.9865 162.974V165.864C75.9865 166.038 76.0321 166.155 76.121 166.219C76.2404 166.314 76.4162 166.361 76.6506 166.361H76.9501V166.832H73.9421V166.361H74.2415C74.4976 166.361 74.6757 166.318 74.7776 166.236C74.8796 166.153 74.9317 166.03 74.9317 165.862V162.968C74.9317 162.537 74.8231 162.204 74.6083 161.966C74.3935 161.731 74.1113 161.612 73.7619 161.612C73.495 161.612 73.2562 161.682 73.0413 161.82C72.8243 161.96 72.6572 162.157 72.5334 162.416C72.3534 162.785 72.2621 163.097 72.2621 163.356V165.862C72.2621 166.034 72.3078 166.159 72.4011 166.24C72.4944 166.32 72.6377 166.361 72.833 166.361H73.2388V166.832H70.1917V166.361H70.5368C70.7538 166.361 70.9144 166.318 71.0207 166.236C71.1271 166.153 71.1813 166.049 71.1813 165.919V163.235C71.1813 162.666 71.0794 162.255 70.8753 161.998C70.6714 161.741 70.3957 161.612 70.0528 161.612C69.6057 161.612 69.2628 161.761 69.024 162.06C68.6832 162.482 68.5118 162.974 68.5118 163.539V165.864C68.5118 166.042 68.553 166.163 68.6334 166.229C68.7484 166.316 68.9263 166.361 69.1694 166.361H69.4754V166.832H66.4543V166.361H66.9035C67.0728 166.361 67.2031 166.318 67.2943 166.236C67.3854 166.153 67.4309 166.049 67.4309 165.919V162.104C67.4309 161.894 67.3767 161.735 67.266 161.633C67.1575 161.529 66.9383 161.463 66.6106 161.434V161.001ZM86.8399 166.182L87.0677 166.53C86.7552 166.842 86.4101 166.997 86.0303 166.997C85.7395 166.997 85.4964 166.921 85.2967 166.768C85.0992 166.613 84.9256 166.346 84.7758 165.96C84.3743 166.373 84.0227 166.649 83.7189 166.789C83.4149 166.927 83.0504 166.997 82.625 166.997C82.0173 166.997 81.555 166.868 81.2403 166.611C80.9235 166.354 80.765 166.025 80.765 165.624C80.765 165.02 81.1275 164.517 81.8502 164.116C82.5729 163.717 83.5344 163.449 84.7368 163.318V162.442C84.7368 162.13 84.6087 161.862 84.3504 161.64C84.0921 161.417 83.7644 161.306 83.3673 161.306C83.0005 161.306 82.6836 161.381 82.4166 161.531C82.2278 161.642 82.1323 161.752 82.1323 161.86C82.1323 161.922 82.1844 162.019 82.2865 162.153C82.4101 162.319 82.4709 162.465 82.4709 162.594C82.4709 162.781 82.4101 162.934 82.2865 163.051C82.1649 163.169 82.0043 163.229 81.8068 163.229C81.594 163.229 81.4183 163.159 81.2772 163.017C81.1361 162.877 81.0645 162.694 81.0645 162.476C81.0645 162.064 81.301 161.686 81.7742 161.347C82.2474 161.005 82.868 160.835 83.6342 160.835C84.344 160.835 84.8843 160.984 85.2576 161.283C85.631 161.584 85.8177 161.951 85.8177 162.382V165.561C85.8177 165.841 85.8632 166.049 85.9564 166.18C86.0499 166.318 86.1713 166.386 86.319 166.386C86.4839 166.386 86.6575 166.318 86.8399 166.182ZM84.7368 163.725C83.6667 163.87 82.9093 164.107 82.4622 164.434C82.1302 164.684 81.9631 165.037 81.9631 165.493C81.9631 165.813 82.0498 166.062 82.2214 166.242C82.3949 166.422 82.6207 166.513 82.8984 166.513C83.3955 166.513 83.8252 166.327 84.1898 165.955C84.5545 165.584 84.7368 165.119 84.7368 164.559V163.725ZM91.2602 164.642C91.5228 165.353 91.8224 165.843 92.1631 166.117C92.5038 166.39 92.9227 166.526 93.4219 166.526C93.882 166.526 94.2358 166.429 94.4832 166.231C94.7306 166.036 94.8543 165.786 94.8543 165.484C94.8543 165.31 94.8087 165.16 94.7176 165.03C94.6265 164.899 94.5005 164.801 94.34 164.737C94.1772 164.674 93.7604 164.58 93.0877 164.455C92.443 164.332 91.9938 164.203 91.7399 164.065C91.4859 163.929 91.2884 163.742 91.1474 163.503C91.0063 163.263 90.9346 163.002 90.9346 162.722C90.9346 162.295 91.0801 161.909 91.3731 161.561C91.7507 161.12 92.2803 160.899 92.9596 160.899C93.4761 160.899 93.9558 161.056 94.3986 161.372L94.8196 160.937H95.08L95.245 163.012H94.8152C94.6287 162.425 94.3769 162.002 94.0578 161.746C93.7387 161.487 93.346 161.357 92.8793 161.357C92.4756 161.357 92.1587 161.453 91.9287 161.646C91.7008 161.837 91.5858 162.07 91.5858 162.348C91.5858 162.59 91.6922 162.794 91.9048 162.953C92.111 163.118 92.519 163.248 93.1267 163.341C93.8299 163.456 94.2879 163.553 94.5005 163.63C94.8478 163.755 95.1191 163.946 95.31 164.207C95.5011 164.466 95.5966 164.782 95.5966 165.155C95.5966 165.669 95.3904 166.106 94.9759 166.463C94.5635 166.819 94.0383 166.997 93.4023 166.997C92.8121 166.997 92.2651 166.811 91.7594 166.437L91.295 166.959H90.9585L90.8306 164.642H91.2602ZM100.892 158.633H101.321V161.001H103.249V161.574H101.321V165.319C101.321 165.643 101.399 165.892 101.554 166.064C101.708 166.236 101.905 166.322 102.144 166.322C102.428 166.322 102.671 166.191 102.871 165.928C103.073 165.667 103.19 165.234 103.223 164.629H103.652C103.626 165.406 103.446 165.981 103.112 166.356C102.778 166.732 102.344 166.921 101.81 166.921C101.319 166.921 100.935 166.789 100.657 166.526C100.379 166.263 100.241 165.917 100.241 165.489V161.574H99.1987V161.139C99.6763 161.06 100.041 160.867 100.29 160.562C100.662 160.103 100.861 159.46 100.892 158.633ZM112.702 163.954H108.444C108.466 164.841 108.635 165.47 108.952 165.834C109.316 166.244 109.779 166.45 110.343 166.45C111.172 166.45 111.838 165.987 112.342 165.062L112.754 165.236C112.136 166.409 111.241 166.997 110.074 166.997C109.277 166.997 108.607 166.715 108.062 166.153C107.517 165.59 107.246 164.871 107.246 163.995C107.246 163.051 107.513 162.289 108.049 161.707C108.585 161.126 109.245 160.835 110.028 160.835C110.603 160.835 111.1 160.98 111.521 161.27C111.94 161.559 112.255 161.975 112.468 162.516C112.615 162.896 112.693 163.375 112.702 163.954ZM108.444 163.509H111.022C111.174 163.509 111.293 163.458 111.378 163.356C111.463 163.256 111.504 163.085 111.504 162.841C111.504 162.386 111.359 162 111.07 161.682C110.779 161.364 110.438 161.205 110.043 161.205C109.603 161.205 109.229 161.395 108.923 161.78C108.617 162.164 108.457 162.741 108.444 163.509ZM116.28 161.001L118.429 160.899V163.25C118.659 162.476 118.935 161.892 119.256 161.495C119.579 161.098 119.977 160.899 120.452 160.899C120.775 160.899 121.034 160.995 121.227 161.188C121.42 161.379 121.515 161.637 121.515 161.958C121.515 162.219 121.45 162.422 121.322 162.567C121.192 162.711 121.031 162.783 120.836 162.783C120.645 162.783 120.491 162.722 120.374 162.596C120.259 162.473 120.2 162.306 120.2 162.094C120.2 161.958 120.233 161.831 120.3 161.71C120.363 161.601 120.395 161.538 120.395 161.517C120.395 161.455 120.354 161.423 120.274 161.423C120.1 161.423 119.905 161.523 119.683 161.722C119.38 162 119.145 162.382 118.98 162.866C118.726 163.621 118.598 164.224 118.598 164.676V165.926C118.598 166.066 118.648 166.174 118.75 166.248C118.852 166.322 119.028 166.361 119.273 166.361H120.031V166.832H116.319V166.361H116.912C117.112 166.361 117.264 166.322 117.366 166.246C117.468 166.17 117.517 166.076 117.517 165.968V162.261C117.517 161.979 117.457 161.773 117.333 161.642C117.209 161.512 117.034 161.446 116.803 161.446H116.28V161.001Z" fill="#2B2A29"/>
<path fill-rule="evenodd" clip-rule="evenodd" d="M127.642 163.718H154.897V163.141H127.642V163.718Z" fill="#2B2A29"/>
<path fill-rule="evenodd" clip-rule="evenodd" d="M101.897 112.715L103.526 117.687L108.83 117.677L104.533 120.74L106.182 125.706L101.897 122.627L97.6113 125.706L99.2602 120.74L94.9629 117.677L100.267 117.687L101.897 112.715Z" fill="#DEC579"/>
<path fill-rule="evenodd" clip-rule="evenodd" d="M85.9967 112.715L87.6261 117.687L92.9304 117.677L88.6332 120.74L90.282 125.706L85.9967 122.627L81.7114 125.706L83.3602 120.74L79.063 117.677L84.3672 117.687L85.9967 112.715Z" fill="#DEC579"/>
</svg>
