<svg width="186" height="156" viewBox="0 0 186 156" fill="none" xmlns="http://www.w3.org/2000/svg">
<path fill-rule="evenodd" clip-rule="evenodd" d="M118.027 68.0429C115.699 66.0365 113.082 67.0822 113.082 67.0822C113.082 67.0822 112.434 69.8239 114.762 71.8303C117.09 73.837 121.513 74.3483 121.513 74.3483C121.513 74.3483 120.355 70.0497 118.027 68.0429ZM67.4802 25.5077C69.808 27.5144 72.4245 26.4688 72.4245 26.4688C72.4245 26.4688 73.0725 23.727 70.7442 21.7206C68.4161 19.714 63.9936 19.2026 63.9936 19.2026C63.9936 19.2026 65.1522 23.5013 67.4802 25.5077ZM67.4799 68.0429C69.8077 66.0365 72.4241 67.0822 72.4241 67.0822C72.4241 67.0822 73.072 69.8239 70.7439 71.8303C68.4158 73.837 63.9931 74.3483 63.9931 74.3483C63.9931 74.3483 65.1518 70.0497 67.4799 68.0429ZM102.982 46.7442C102.982 46.7442 104.524 45.6983 105.81 45.6983C107.096 45.6983 107.64 46.7442 107.64 46.7442C107.64 46.7442 107.096 47.7904 105.81 47.7904C104.524 47.7904 102.982 46.7442 102.982 46.7442ZM113.504 44.7479C115.958 44.7479 118.9 46.7442 118.9 46.7442C118.9 46.7442 115.958 48.7408 113.504 48.7408C111.05 48.7408 110.012 46.7442 110.012 46.7442C110.012 46.7442 111.05 44.7479 113.504 44.7479ZM134.887 46.9126C134.883 46.9205 133.399 49.7768 129.892 49.7768C126.492 49.7768 122.469 47.0467 122.458 47.0391L122.021 46.7439L122.458 46.4494C122.469 46.4415 126.492 43.7107 129.892 43.7107C133.399 43.7107 134.883 46.5676 134.887 46.5755L134.978 46.7439L134.887 46.9126ZM129.892 49.0647C127.371 49.0647 124.436 47.4279 123.319 46.7439C124.436 46.0603 127.371 44.4234 129.892 44.4234C132.483 44.4234 133.806 46.1847 134.162 46.7439C133.806 47.3034 132.483 49.0647 129.892 49.0647ZM109.434 46.0097C112.628 42.743 117.39 44.6351 120.699 46.7447C116.826 49.2125 112.597 50.6026 109.434 47.4792C109.148 47.1519 108.971 46.8742 108.894 46.7447C108.971 46.6153 109.148 46.3371 109.434 46.0097ZM107.454 48.1635C107.723 47.7244 108.015 47.3297 108.332 46.9801C109.765 48.4318 111.392 49.6769 113.535 49.6769C116.984 49.6769 121.088 46.8915 121.1 46.8842L121.307 46.7447L121.1 46.6053C121.088 46.5972 116.984 43.8123 113.535 43.8123C111.391 43.8123 109.767 45.0583 108.332 46.5091C108.015 46.1596 107.723 45.7651 107.454 45.3258C107.045 44.6593 106.77 43.9979 106.628 43.3417C106.486 42.6859 106.464 42.0739 106.563 41.5065C106.66 40.9388 106.861 40.4261 107.162 39.9685C107.464 39.5114 107.849 39.1395 108.317 38.8528C109.218 38.301 110.106 38.0843 110.984 38.2031C111.861 38.3218 112.741 38.6063 113.624 39.056C114.507 39.5064 115.405 40.0331 116.319 40.6367C117.234 41.2402 118.173 41.7422 119.137 42.1425C120.1 42.5429 121.093 42.7582 122.114 42.7884C123.136 42.8189 124.214 42.4865 125.349 41.7915C126.015 41.3835 126.57 40.8452 127.014 40.1764C127.46 39.5077 127.761 38.7662 127.918 37.9514C128.075 37.1368 128.07 36.2793 127.902 35.3789C127.735 34.4791 127.38 33.5878 126.84 32.7052C126.388 31.9671 125.846 31.3574 125.217 30.8757C124.588 30.3947 123.957 30.0321 123.325 29.788C122.692 29.5442 122.096 29.4201 121.537 29.4159C120.977 29.4122 120.526 29.5152 120.184 29.7248C119.645 30.0558 119.304 30.5115 119.165 31.0919C119.025 31.6728 119.121 32.2332 119.452 32.7738C119.783 33.3138 120.239 33.6541 120.819 33.7935C121.4 33.9329 121.961 33.837 122.501 33.5063C123.041 33.1753 123.381 32.7196 123.521 32.1386C123.66 31.558 123.565 30.9973 123.234 30.457C123.189 30.3851 123.136 30.3185 123.074 30.2576C123.012 30.1966 122.95 30.1357 122.888 30.0744C122.825 30.0135 122.758 29.9435 122.685 29.8648C123.142 30.005 123.6 30.2073 124.059 30.4711C124.467 30.692 124.893 30.994 125.339 31.3771C125.784 31.7609 126.195 32.2583 126.57 32.8706C126.945 33.4831 127.189 34.0946 127.304 34.7057C127.418 35.3166 127.434 35.8888 127.352 36.4224C127.27 36.955 127.092 37.442 126.817 37.8828C126.542 38.3235 126.207 38.6655 125.81 38.9079C124.91 39.4595 124.022 39.6759 123.144 39.5574C122.266 39.4386 121.386 39.1548 120.504 38.7045C119.622 38.2544 118.723 37.7276 117.808 37.1241C116.894 36.5211 115.955 36.0189 114.991 35.6179C114.028 35.2181 113.031 35.0057 112 34.9802C110.969 34.9554 109.896 35.2853 108.779 35.9692C108.041 36.4215 107.435 36.9971 106.959 37.6974C106.484 38.3969 106.169 39.1658 106.013 40.0038C105.858 40.8418 105.871 41.732 106.052 42.6738C106.233 43.6154 106.61 44.5544 107.183 45.4911C107.47 45.9595 107.779 46.3771 108.11 46.7442C107.78 47.1115 107.471 47.5291 107.183 47.9981C106.61 48.9343 106.233 49.8733 106.052 50.8154C105.871 51.7576 105.858 52.6472 106.013 53.4852C106.169 54.3232 106.484 55.0921 106.959 55.7918C107.435 56.4916 108.041 57.0677 108.779 57.52C109.896 58.204 110.969 58.5338 112 58.5087C113.031 58.4838 114.028 58.2714 114.991 57.871C115.955 57.4704 116.894 56.9684 117.808 56.3649C118.723 55.7613 119.622 55.2343 120.504 54.7845C121.386 54.3347 122.266 54.0503 123.144 53.9319C124.022 53.8128 124.91 54.0294 125.81 54.5811C126.207 54.8235 126.542 55.1657 126.817 55.6062C127.092 56.0469 127.27 56.5341 127.352 57.0671C127.434 57.6007 127.418 58.1724 127.304 58.7832C127.189 59.3944 126.945 60.0061 126.57 60.618C126.195 61.2303 125.784 61.7283 125.339 62.1115C124.893 62.4949 124.467 62.7971 124.059 63.0181C123.6 63.2813 123.142 63.4836 122.685 63.6244C122.758 63.5457 122.825 63.4757 122.888 63.4144C122.95 63.3535 123.012 63.2925 123.074 63.2314C123.136 63.1707 123.189 63.1041 123.234 63.0319C123.565 62.4918 123.66 61.9312 123.521 61.3505C123.381 60.7699 123.041 60.314 122.501 59.9829C121.961 59.6517 121.4 59.5563 120.819 59.6957C120.239 59.8354 119.783 60.1754 119.452 60.7155C119.121 61.2554 119.025 61.816 119.165 62.3968C119.304 62.9777 119.645 63.4336 120.184 63.7646C120.526 63.974 120.977 64.0767 121.537 64.073C122.096 64.0688 122.692 63.9449 123.325 63.7012C123.957 63.4567 124.588 63.0945 125.217 62.6131C125.846 62.1321 126.388 61.522 126.84 60.7837C127.38 59.9014 127.735 59.0101 127.902 58.1098C128.07 57.2093 128.075 56.3522 127.918 55.5376C127.761 54.723 127.46 53.9815 127.014 53.3128C126.57 52.6443 126.015 52.1054 125.349 51.6974C124.214 51.0025 123.136 50.6701 122.114 50.7009C121.093 50.7311 120.1 50.9461 119.137 51.347C118.173 51.7474 117.234 52.2491 116.319 52.8526C115.405 53.4561 114.507 53.9826 113.624 54.4329C112.741 54.883 111.861 55.1674 110.984 55.2859C110.106 55.4044 109.218 55.188 108.317 54.6364C107.849 54.3497 107.464 53.9773 107.162 53.5202C106.861 53.0628 106.66 52.5507 106.563 51.9824C106.464 51.4147 106.486 50.803 106.628 50.1473C106.77 49.4913 107.045 48.8299 107.454 48.1635ZM79.6968 45.6983C80.982 45.6983 82.5239 46.7442 82.5239 46.7442C82.5239 46.7442 80.982 47.791 79.6968 47.791C78.4101 47.791 77.8664 46.7442 77.8664 46.7442C77.8664 46.7442 78.4101 45.6983 79.6968 45.6983ZM72.0026 48.741C69.5479 48.741 66.6064 46.7442 66.6064 46.7442C66.6064 46.7442 69.5479 44.7483 72.0026 44.7483C74.4565 44.7483 75.4943 46.7442 75.4943 46.7442C75.4943 46.7442 74.4565 48.741 72.0026 48.741ZM50.6189 46.5761C50.6229 46.5684 52.1085 43.7116 55.6141 43.7116C59.0142 43.7116 63.0371 46.4423 63.0487 46.4499L63.4849 46.7447L63.0487 47.0393C63.0371 47.0478 59.0142 49.7776 55.6141 49.7776C52.1078 49.7776 50.6229 46.9217 50.6189 46.9135L50.5283 46.7447L50.6189 46.5761ZM55.6141 44.4238C58.1353 44.4238 61.0707 46.0605 62.1873 46.7447C61.0707 47.4293 58.1353 49.066 55.6141 49.066C53.023 49.066 51.6994 47.304 51.3443 46.7447C51.6994 46.185 53.023 44.4238 55.6141 44.4238ZM76.0727 47.4783C72.8779 50.746 68.1168 48.8531 64.807 46.7447C68.6802 44.2768 72.9097 42.8857 76.0727 46.0097C76.3591 46.3371 76.5357 46.6144 76.6122 46.7447C76.5357 46.874 76.3591 47.1519 76.0727 47.4783ZM78.0526 45.3249C77.7837 45.7648 77.4902 46.159 77.1742 46.5091C75.7409 45.0572 74.1145 43.8123 71.9713 43.8123C68.5227 43.8123 64.4177 46.5975 64.407 46.6045L64.199 46.7447L64.407 46.8836C64.4177 46.8918 68.5227 49.6766 71.9713 49.6766C74.116 49.6766 75.7389 48.4304 77.1742 46.9801C77.4902 47.3288 77.7837 47.7236 78.0526 48.1631C78.4606 48.8299 78.7359 49.4907 78.8776 50.1473C79.0198 50.8024 79.0421 51.4147 78.9433 51.9827C78.846 52.5501 78.6457 53.0628 78.344 53.5199C78.0424 53.9778 77.6576 54.3497 77.1892 54.6361C76.2892 55.188 75.4006 55.4044 74.5223 55.2859C73.6451 55.1665 72.7647 54.8827 71.8827 54.4327C71.0004 53.9826 70.1014 53.4561 69.1872 52.8526C68.2714 52.2488 67.3332 51.7469 66.37 51.347C65.4063 50.9461 64.414 50.7308 63.3923 50.7006C62.3703 50.6698 61.2928 51.0022 60.1578 51.6977C59.492 52.1052 58.9357 52.6438 58.4917 53.3125C58.0462 53.9815 57.7459 54.7225 57.5888 55.5376C57.4313 56.3519 57.4368 57.2091 57.6039 58.1098C57.7717 59.0095 58.1261 59.9017 58.6666 60.7835C59.1189 61.522 59.6599 62.1315 60.2888 62.6131C60.9182 63.0945 61.5487 63.4571 62.181 63.7005C62.8136 63.945 63.4093 64.0688 63.9693 64.0733C64.5291 64.0764 64.9797 63.974 65.3217 63.7638C65.8623 63.4336 66.2018 62.9774 66.3412 62.3968C66.4814 61.816 66.3848 61.2554 66.0536 60.7155C65.7232 60.1751 65.2669 59.8354 64.6866 59.6957C64.1059 59.5557 63.5458 59.6512 63.0052 59.9829C62.4646 60.3136 62.1249 60.7702 61.9855 61.3505C61.8461 61.9312 61.942 62.4915 62.2733 63.0319C62.3176 63.1041 62.3698 63.1698 62.433 63.2316C62.4939 63.292 62.5569 63.3529 62.6187 63.4144C62.681 63.4751 62.7484 63.5451 62.8215 63.6244C62.3644 63.4836 61.9057 63.2807 61.4463 63.0175C61.0395 62.7965 60.6127 62.4949 60.1677 62.1115C59.7222 61.7288 59.3118 61.23 58.9365 60.618C58.5618 60.0061 58.3172 59.3941 58.2025 58.783C58.0884 58.1726 58.0724 57.6007 58.1541 57.0671C58.2368 56.5336 58.4148 56.0466 58.6894 55.6062C58.9643 55.1652 59.2998 54.8237 59.696 54.5811C60.5955 54.0289 61.4847 53.8128 62.3631 53.931C63.2405 54.0501 64.12 54.3342 65.0017 54.7845C65.8849 55.2343 66.7833 55.7608 67.6977 56.3643C68.613 56.9675 69.5521 57.4706 70.5145 57.871C71.4786 58.2714 72.4755 58.4841 73.5062 58.5081C74.5369 58.5333 75.6105 58.2037 76.7273 57.52C77.4654 57.0677 78.0723 56.4921 78.5466 55.7915C79.0227 55.0915 79.3376 54.3232 79.4927 53.4846C79.6479 52.6472 79.6349 51.7576 79.4541 50.8146C79.2737 49.8733 78.8962 48.9343 78.3226 47.9981C78.0365 47.5291 77.7262 47.1115 77.396 46.7447C77.7262 46.3771 78.0356 45.9595 78.3226 45.4906C78.8962 44.5544 79.2737 43.6154 79.4541 42.6735C79.6349 41.7314 79.6479 40.8415 79.4927 40.0035C79.3376 39.1658 79.0227 38.3969 78.5466 37.6974C78.0723 36.9969 77.4654 36.4212 76.7273 35.969C75.6105 35.2847 74.5369 34.9554 73.5062 34.9809C72.4755 35.0057 71.4786 35.2175 70.5145 35.6179C69.5521 36.0189 68.613 36.5203 67.6977 37.1244C66.7833 37.7279 65.8849 38.2544 65.0017 38.7045C64.12 39.1548 63.2405 39.4386 62.3631 39.5572C61.4847 39.6754 60.5955 39.4592 59.696 38.9079C59.2998 38.665 58.9643 38.3238 58.6894 37.8828C58.4148 37.442 58.2368 36.955 58.1541 36.4218C58.0724 35.8883 58.0884 35.3169 58.2025 34.7052C58.3172 34.0948 58.5618 33.4831 58.9365 32.8706C59.3118 32.2589 59.7222 31.76 60.1677 31.3771C60.6127 30.994 61.0395 30.692 61.4463 30.4709C61.9057 30.207 62.3644 30.0044 62.8215 29.8642C62.7484 29.9429 62.681 30.0129 62.6187 30.0744C62.5569 30.1357 62.4939 30.196 62.433 30.2573C62.3698 30.3182 62.3176 30.3848 62.2733 30.4567C61.942 30.9973 61.8461 31.5574 61.9855 32.1381C62.1249 32.7196 62.4646 33.1753 63.0052 33.506C63.5458 33.8367 64.1059 33.9323 64.6866 33.7938C65.2669 33.6536 65.7232 33.3133 66.0536 32.7732C66.3848 32.2332 66.4814 31.6725 66.3412 31.0919C66.2018 30.5115 65.8623 30.0561 65.3217 29.7246C64.9797 29.5157 64.5291 29.4122 63.9693 29.4156C63.4093 29.4198 62.8136 29.5437 62.181 29.788C61.5487 30.0315 60.9182 30.3947 60.2888 30.8757C59.6599 31.3565 59.1189 31.9669 58.6666 32.7047C58.1261 33.5878 57.7717 34.4791 57.6039 35.3784C57.4368 36.279 57.4313 37.1368 57.5888 37.9514C57.7459 38.7654 58.0462 39.5077 58.4917 40.1756C58.9357 40.8452 59.492 41.383 60.1578 41.7913C61.2928 42.4865 62.3703 42.8191 63.3923 42.7884C64.414 42.7579 65.4063 42.5429 66.37 42.1422C67.3332 41.7418 68.2714 41.2402 69.1872 40.6363C70.1014 40.0328 71.0004 39.5055 71.8827 39.056C72.7647 38.6054 73.6451 38.3218 74.5223 38.2031C75.4006 38.0843 76.2892 38.3015 77.1892 38.852C77.6576 39.1392 78.0424 39.5108 78.344 39.9683C78.6457 40.4261 78.846 40.9388 78.9433 41.506C79.0421 42.0739 79.0198 42.6865 78.8776 43.3417C78.7359 43.9974 78.4606 44.6588 78.0526 45.3249ZM91.7072 59.801C91.7072 61.0872 92.7534 61.6307 92.7534 61.6307C92.7534 61.6307 93.7994 61.0872 93.7994 59.801C93.7994 58.5146 92.7534 56.9735 92.7534 56.9735C92.7534 56.9735 91.7072 58.5146 91.7072 59.801ZM94.7496 67.4953C94.7496 65.0405 92.7534 64.003 92.7534 64.003C92.7534 64.003 90.757 65.0405 90.757 67.4953C90.757 69.9495 92.7534 72.8913 92.7534 72.8913C92.7534 72.8913 94.7496 69.9495 94.7496 67.4953ZM92.5853 88.8785L92.7538 88.9688L92.9222 88.8785C92.9301 88.8742 95.7869 87.3895 95.7869 83.8835C95.7869 80.4838 93.0563 76.4599 93.0486 76.4487L92.7538 76.0116L92.4586 76.4487C92.451 76.4599 89.7206 80.4838 89.7206 83.8835C89.7206 87.3895 92.5772 88.8742 92.5853 88.8785ZM90.433 83.8835C90.433 86.4742 92.1942 87.7975 92.7538 88.1528C93.3133 87.7975 95.0744 86.4742 95.0744 83.8835C95.0744 81.3624 93.4377 78.4272 92.7538 77.3101C92.0699 78.4272 90.433 81.3624 90.433 83.8835ZM93.4879 63.4246C93.161 63.1385 92.8827 62.9619 92.7532 62.8857C92.6234 62.9619 92.3458 63.1385 92.0187 63.4246C88.8948 66.5882 90.2855 70.8171 92.7532 74.6903C94.8628 71.3806 96.7549 66.6192 93.4879 63.4246ZM91.3339 61.4447C90.6681 61.0368 90.0067 60.7615 89.3507 60.6198C88.695 60.4776 88.0833 60.4555 87.5152 60.5537C86.9473 60.6516 86.4349 60.8517 85.9778 61.153C85.5204 61.4551 85.1483 61.8398 84.8615 62.3081C84.3097 63.2085 84.0936 64.0973 84.2118 64.9748C84.3303 65.8526 84.615 66.7323 85.0647 67.6149C85.5151 68.4972 86.0416 69.3962 86.6451 70.3107C87.2486 71.2251 87.7505 72.1644 88.1509 73.1277C88.5516 74.0912 88.7666 75.0839 88.7968 76.1053C88.8276 77.127 88.4952 78.205 87.8005 79.3397C87.3922 80.0058 86.8536 80.5616 86.1849 81.0057C85.5159 81.4504 84.7744 81.7513 83.9604 81.909C83.1455 82.0661 82.2883 82.0607 81.388 81.8931C80.4878 81.7258 79.5963 81.3717 78.7139 80.8311C77.9759 80.3788 77.3659 79.8376 76.8848 79.2087C76.4034 78.5792 76.0408 77.9486 75.7968 77.3165C75.553 76.6837 75.4288 76.0878 75.4249 75.528C75.421 74.9682 75.5239 74.5176 75.7333 74.1753C76.0642 73.6356 76.5202 73.2956 77.1011 73.1556C77.6815 73.0163 78.2425 73.1118 78.7825 73.4431C79.3226 73.7738 79.6626 74.2301 79.8019 74.8107C79.9417 75.3914 79.846 75.952 79.5147 76.4921C79.1838 77.0324 78.7281 77.3721 78.1474 77.5118C77.5667 77.6512 77.0061 77.5553 76.4658 77.2243C76.3935 77.18 76.3269 77.1272 76.2665 77.0652C76.205 77.0031 76.1441 76.9407 76.0831 76.8786C76.0222 76.8169 75.952 76.7489 75.8735 76.6758C76.0143 77.1335 76.2161 77.5917 76.4796 78.0508C76.7008 78.4582 77.0027 78.8845 77.3859 79.3297C77.7693 79.775 78.2673 80.1858 78.8796 80.5608C79.4918 80.9358 80.1033 81.1804 80.7148 81.2947C81.3253 81.4089 81.8973 81.4256 82.4308 81.3432C82.9635 81.2611 83.4508 81.0831 83.8918 80.8083C84.3322 80.5331 84.6742 80.1979 84.9166 79.8016C85.4685 78.9011 85.6849 78.0126 85.5661 77.1349C85.4473 76.2577 85.1632 75.3773 84.7134 74.4947C84.2634 73.6124 83.7366 72.7138 83.1331 71.7996C82.5295 70.8843 82.0276 69.9455 81.6269 68.9822C81.2266 68.0187 81.0141 67.0215 80.9893 65.9908C80.9641 64.9604 81.294 63.8868 81.9777 62.77C82.4303 62.0322 83.0061 61.4255 83.7059 60.9502C84.4059 60.4747 85.1748 60.1596 86.0128 60.0047C86.8505 59.8495 87.7404 59.8625 88.6826 60.0433C89.6241 60.2237 90.5636 60.6006 91.4999 61.1742C91.9683 61.4619 92.3861 61.7709 92.7534 62.1013C93.1203 61.7703 93.5381 61.4614 94.0068 61.1742C94.9433 60.6006 95.8822 60.2237 96.8238 60.0433C97.7659 59.8625 98.6558 59.8495 99.4939 60.0047C100.332 60.1596 101.101 60.4747 101.801 60.9502C102.501 61.4255 103.076 62.0322 103.528 62.77C104.213 63.8868 104.542 64.9604 104.518 65.9908C104.493 67.0215 104.28 68.0187 103.88 68.9822C103.479 69.9455 102.977 70.8843 102.374 71.7996C101.77 72.7138 101.243 73.6124 100.793 74.4947C100.343 75.3773 100.059 76.2577 99.9402 77.1349C99.822 78.0126 100.038 78.9011 100.59 79.8016C100.832 80.1979 101.174 80.5331 101.615 80.8083C102.056 81.0831 102.543 81.2611 103.076 81.3432C103.609 81.4256 104.181 81.4089 104.792 81.2947C105.403 81.1804 106.015 80.9358 106.627 80.5608C107.239 80.1858 107.737 79.775 108.12 79.3297C108.504 78.8845 108.806 78.4582 109.027 78.0508C109.291 77.5917 109.492 77.1335 109.633 76.6758C109.554 76.7489 109.484 76.8169 109.423 76.8786C109.362 76.9407 109.301 77.0031 109.24 77.0652C109.179 77.1272 109.113 77.18 109.041 77.2243C108.501 77.5553 107.94 77.6512 107.359 77.5118C106.778 77.3721 106.322 77.0324 105.991 76.4921C105.661 75.952 105.565 75.3914 105.704 74.8107C105.844 74.2301 106.184 73.7738 106.724 73.4431C107.264 73.1118 107.825 73.0163 108.405 73.1556C108.986 73.2956 109.442 73.6356 109.773 74.1753C109.982 74.5176 110.085 74.9682 110.081 75.528C110.077 76.0878 109.954 76.6837 109.71 77.3165C109.466 77.9486 109.103 78.5792 108.622 79.2087C108.14 79.8376 107.531 80.3788 106.793 80.8311C105.91 81.3717 105.019 81.7258 104.119 81.8931C103.218 82.0607 102.361 82.0661 101.546 81.909C100.732 81.7513 99.9902 81.4504 99.3214 81.0057C98.6527 80.5616 98.1143 80.0058 97.7061 79.3397C97.0112 78.205 96.679 77.127 96.7092 76.1053C96.7394 75.0839 96.955 74.0912 97.3557 73.1277C97.7557 72.1644 98.2574 71.2251 98.861 70.3107C99.4645 69.3962 99.9916 68.4972 100.442 67.6149C100.892 66.7323 101.176 65.8526 101.295 64.9748C101.413 64.0973 101.196 63.2085 100.645 62.3081C100.358 61.8398 99.9865 61.4551 99.5291 61.153C99.0717 60.8517 98.5587 60.6516 97.9913 60.5537C97.4236 60.4555 96.8116 60.4776 96.1559 60.6198C95.4999 60.7615 94.8386 61.0368 94.1721 61.4447C93.7328 61.7139 93.3384 62.0068 92.9888 62.3237C94.4395 63.7581 95.6853 65.3817 95.6853 67.526C95.6853 70.9751 92.9008 75.0791 92.8926 75.0912L92.7532 75.2983L92.6138 75.0912C92.6068 75.0791 89.8208 70.9751 89.8208 67.526C89.8208 65.3831 91.0665 63.7564 92.5179 62.3237C92.1683 62.0068 91.7738 61.7139 91.3339 61.4447ZM93.7994 33.6877C93.7994 32.4014 92.7534 31.8574 92.7534 31.8574C92.7534 31.8574 91.707 32.4014 91.707 33.6877C91.707 34.9729 92.7534 36.5152 92.7534 36.5152C92.7534 36.5152 93.7994 34.9729 93.7994 33.6877ZM90.7566 25.9936C90.7566 28.4475 92.7534 29.4853 92.7534 29.4853C92.7534 29.4853 94.7494 28.4475 94.7494 25.9936C94.7494 23.5392 92.7534 20.5974 92.7534 20.5974C92.7534 20.5974 90.7566 23.5392 90.7566 25.9936ZM92.922 4.60983L92.7532 4.51953L92.5848 4.60983C92.576 4.61407 89.72 6.09876 89.72 9.60514C89.72 13.0051 92.4502 17.0284 92.4583 17.0396L92.7532 17.4762L93.048 17.0396C93.0559 17.0284 95.786 13.0051 95.786 9.60514C95.786 6.09964 92.9292 4.61407 92.922 4.60983ZM95.0739 9.60514C95.0739 7.01383 93.3127 5.69046 92.7532 5.33558C92.1937 5.69046 90.4316 7.01383 90.4316 9.60514C90.4316 12.1262 92.0684 15.0618 92.7532 16.1782C93.4371 15.0618 95.0739 12.1262 95.0739 9.60514ZM92.0193 30.0637C92.3458 30.3504 92.624 30.527 92.7532 30.6032C92.8836 30.527 93.161 30.3504 93.4879 30.0637C96.6119 26.9008 95.2209 22.6715 92.7532 18.798C90.6447 22.108 88.7517 26.8691 92.0193 30.0637ZM94.173 32.0439C94.8386 32.4519 95.5007 32.7272 96.1559 32.8683C96.8114 33.0108 97.4236 33.0328 97.9917 32.9346C98.5587 32.837 99.0717 32.6369 99.5294 32.3351C99.9865 32.0337 100.358 31.6485 100.646 31.1802C101.196 30.2804 101.413 29.3916 101.295 28.5135C101.176 27.636 100.893 26.7557 100.442 25.874C99.9924 24.9914 99.4651 24.0925 98.8615 23.1785C98.2574 22.2626 97.756 21.3242 97.3557 20.3609C96.955 19.3973 96.74 18.4048 96.7092 17.3836C96.6784 16.3616 97.0112 15.284 97.7067 14.149C98.1144 13.4828 98.6527 12.9269 99.3223 12.4829C99.9902 12.0376 100.732 11.7371 101.546 11.58C102.361 11.4225 103.219 11.4282 104.119 11.5949C105.019 11.763 105.91 12.1172 106.793 12.6575C107.531 13.1101 108.141 13.651 108.622 14.2799C109.104 14.9091 109.466 15.5394 109.71 16.1723C109.954 16.8049 110.078 17.4005 110.082 17.9603C110.086 18.5198 109.982 18.971 109.774 19.3127C109.442 19.8533 108.986 20.1931 108.405 20.3324C107.825 20.4727 107.264 20.3761 106.724 20.0444C106.185 19.7142 105.844 19.258 105.704 18.6776C105.565 18.0971 105.661 17.5368 105.992 16.9959C106.322 16.4559 106.778 16.1159 107.36 15.9765C107.94 15.8371 108.501 15.933 109.041 16.2645C109.113 16.3088 109.18 16.3608 109.241 16.424C109.302 16.485 109.362 16.5481 109.423 16.6097C109.485 16.672 109.555 16.7397 109.633 16.8125C109.493 16.3552 109.291 15.8966 109.027 15.4376C108.806 15.0304 108.504 14.604 108.12 14.1586C107.738 13.7131 107.239 13.3028 106.627 12.9275C106.015 12.5528 105.403 12.3084 104.793 12.1937C104.181 12.079 103.609 12.0633 103.076 12.1451C102.543 12.2278 102.056 12.4058 101.615 12.6803C101.174 12.9555 100.833 13.2909 100.59 13.6874C100.039 14.5866 99.8223 15.4757 99.9408 16.354C100.06 17.2313 100.343 18.111 100.793 18.993C101.243 19.8758 101.77 20.7745 102.373 21.689C102.978 22.6038 103.479 23.5434 103.88 24.5058C104.28 25.4699 104.493 26.4665 104.517 27.4972C104.542 28.5282 104.213 29.6018 103.529 30.7186C103.076 31.4567 102.501 32.0633 101.801 32.5379C101.101 33.0136 100.332 33.3288 99.4944 33.484C98.6561 33.6392 97.7662 33.6262 96.8243 33.4447C95.8822 33.2648 94.9433 32.8875 94.007 32.3139C93.5381 32.0267 93.1203 31.7171 92.7532 31.3873C92.3861 31.7171 91.9683 32.0272 91.4999 32.3139C90.5636 32.8875 89.6241 33.2648 88.6831 33.4447C87.7404 33.6262 86.8505 33.6392 86.013 33.484C85.1747 33.3288 84.4062 33.0136 83.7061 32.5379C83.0058 32.0633 82.4303 31.4567 81.9777 30.7186C81.294 29.6018 80.9645 28.5282 80.9896 27.4972C81.0136 26.4665 81.2266 25.4699 81.6269 24.5058C82.027 23.5434 82.5301 22.6038 83.1334 21.689C83.7369 20.7745 84.2634 19.8758 84.7134 18.993C85.1635 18.111 85.4479 17.2313 85.5667 16.354C85.6852 15.4757 85.4688 14.5866 84.9166 13.6874C84.674 13.2909 84.3328 12.9555 83.8918 12.6803C83.4511 12.4058 82.9644 12.2278 82.4308 12.1451C81.8973 12.0633 81.3253 12.079 80.715 12.1937C80.1039 12.3084 79.4918 12.5528 78.8796 12.9275C78.2676 13.3028 77.769 13.7131 77.3859 14.1586C77.0027 14.604 76.7011 15.0304 76.4804 15.4376C76.2169 15.8966 76.0143 16.3552 75.8735 16.8125C75.9522 16.7397 76.0225 16.672 76.0834 16.6097C76.1446 16.5481 76.2059 16.485 76.2663 16.424C76.3278 16.3608 76.3935 16.3088 76.4658 16.2645C77.0061 15.933 77.5667 15.8371 78.1471 15.9765C78.7275 16.1159 79.1841 16.4559 79.5147 16.9959C79.8466 17.5368 79.9422 18.0971 79.8019 18.6776C79.6626 19.258 79.3228 19.7142 78.7825 20.0444C78.2425 20.3761 77.6815 20.4727 77.1011 20.3324C76.5205 20.1931 76.0642 19.8533 75.7338 19.3127C75.5239 18.971 75.4215 18.5198 75.4246 17.9603C75.4288 17.4005 75.5532 16.8049 75.797 16.1723C76.0408 15.5394 76.4034 14.9091 76.8848 14.2799C77.3661 13.651 77.9759 13.1101 78.7145 12.6575C79.596 12.1172 80.4882 11.763 81.3883 11.5949C82.2886 11.4282 83.1458 11.4225 83.9604 11.58C84.7752 11.7371 85.5164 12.0376 86.1852 12.4829C86.8539 12.9269 87.3928 13.4828 87.8 14.149C88.4955 15.284 88.8281 16.3616 88.7973 17.3836C88.7672 18.4048 88.5516 19.3973 88.1509 20.3609C87.7511 21.3242 87.2492 22.2626 86.6451 23.1785C86.0416 24.0925 85.5151 24.9914 85.0653 25.874C84.615 26.7557 84.3317 27.636 84.2118 28.5135C84.0936 29.3916 84.3097 30.2804 84.8619 31.1802C85.1483 31.6485 85.5201 32.0337 85.9781 32.3351C86.4349 32.6369 86.9475 32.837 87.515 32.9346C88.0833 33.0328 88.6952 33.0108 89.3507 32.8683C90.007 32.7272 90.6681 32.4519 91.3345 32.0439C91.7744 31.7747 92.1691 31.4813 92.5179 31.1655C91.0678 29.7299 89.8213 28.1072 89.8213 25.9623C89.8213 22.5138 92.6062 18.409 92.6141 18.3983L92.7532 18.1903L92.8932 18.3983C92.9002 18.409 95.6853 22.5138 95.6853 25.9623C95.6853 28.1058 94.4404 29.7319 92.9888 31.1655C93.339 31.4813 93.7331 31.7747 94.173 32.0439ZM118.027 25.5077C115.699 27.5136 113.083 26.4681 113.083 26.4681C113.083 26.4681 112.435 23.727 114.763 21.7201C117.091 19.714 121.513 19.203 121.513 19.203C121.513 19.203 120.355 23.5013 118.027 25.5077Z" fill="#2B2A29"/>
<path fill-rule="evenodd" clip-rule="evenodd" d="M124.581 14.9173C116.436 6.77169 105.183 1.73351 92.7534 1.73351C80.3242 1.73351 69.0712 6.77169 60.9259 14.9173C52.7805 23.0623 47.7423 34.3152 47.7423 46.7445C47.7423 59.1737 52.7805 70.4269 60.9259 78.5719C69.0712 86.7169 80.3242 91.7554 92.7534 91.7554C105.183 91.7554 116.436 86.7169 124.581 78.5719C132.726 70.4269 137.765 59.1737 137.765 46.7445C137.765 34.3152 132.726 23.0623 124.581 14.9173ZM93.6189 0H91.888C79.3213 0.228186 67.9644 5.41385 59.6939 13.6848C51.2334 22.1453 46 33.8341 46 46.7445C46 59.6548 51.2334 71.3439 59.6939 79.8041C68.1542 88.2643 79.8431 93.4979 92.7534 93.4979C105.664 93.4979 117.352 88.2643 125.813 79.8041C134.273 71.3436 139.507 59.6548 139.507 46.7445C139.507 33.8341 134.273 22.1455 125.813 13.6848C117.542 5.41385 106.185 0.228186 93.6189 0Z" fill="#2B2A29"/>
<path fill-rule="evenodd" clip-rule="evenodd" d="M88.0291 55.7558H87.548V49.7538H88.0291C88.6232 53.0849 90.3588 54.7476 93.2366 54.7476C94.2313 54.7476 95.0589 54.4804 95.72 53.9461C96.3813 53.4125 96.7149 52.7246 96.7149 51.8835C96.7149 50.9354 96.2275 50.0943 95.2595 49.3528C92.9625 48.0112 91.08 46.8629 89.5981 45.8948C88.1225 44.9269 87.3877 43.6448 87.3877 42.0557C87.3877 40.7406 87.8753 39.6458 88.8637 38.7711C89.845 37.8897 91.06 37.4492 92.5086 37.4492C93.4501 37.4492 94.4314 37.6761 95.466 38.1303C95.9536 38.3504 96.2942 38.4577 96.488 38.4577C96.9417 38.4577 97.2355 38.1165 97.3822 37.4492H97.8564V43.5046H97.3822C97.1285 41.7154 96.5411 40.4336 95.6269 39.6526C94.7053 38.871 93.6773 38.4839 92.5422 38.4839C91.694 38.4839 90.9598 38.7444 90.3524 39.2652C89.7448 39.7793 89.4376 40.4133 89.4376 41.1613C89.4376 41.6489 89.6447 42.1627 90.0584 42.7038C90.4725 43.2509 91.7211 44.0856 93.8036 45.2004C95.0792 45.8883 96.0473 46.4489 96.7081 46.8893C97.3624 47.3303 97.9098 47.9045 98.3505 48.6054C98.7913 49.3063 99.0114 50.0672 99.0114 50.8889C99.0114 52.2841 98.484 53.4387 97.4222 54.3668C96.3678 55.295 95.0589 55.7558 93.5102 55.7558C92.6689 55.7558 91.6274 55.549 90.3859 55.1415C89.6246 54.8876 89.097 54.7609 88.8101 54.7609C88.3894 54.7609 88.1292 55.0882 88.0291 55.7558Z" fill="#2B2A29"/>
<path fill-rule="evenodd" clip-rule="evenodd" d="M74.6383 139.698V122.559C74.6383 122.538 74.6355 122.522 74.6304 122.51C74.6248 122.496 74.6141 122.482 74.5991 122.467C74.5858 122.455 74.5714 122.445 74.5568 122.439C74.5376 122.432 74.5119 122.428 74.4811 122.428H70.5623C70.766 122.722 70.9212 123.06 71.0262 123.439C71.6737 125.772 71.1954 136.544 71.1958 139.716C71.2014 139.728 71.2141 139.744 71.2336 139.763L71.2796 139.801L74.4811 139.803C74.5125 139.803 74.5379 139.8 74.5571 139.793C74.5726 139.786 74.5873 139.776 74.5986 139.765L74.6355 139.718L74.6383 139.698ZM64.9759 122.428H61.8716C61.8406 122.428 61.8155 122.432 61.7963 122.439C61.7804 122.445 61.7661 122.454 61.7542 122.466C61.7385 122.482 61.7272 122.496 61.7213 122.509L61.7145 122.559V129.211C61.7145 129.49 61.6143 129.73 61.4151 129.929C61.3239 130.02 61.2199 130.092 61.1034 130.144C60.9825 130.2 60.8553 130.228 60.7236 130.228H54.984C54.6765 130.228 54.4323 130.134 54.2533 129.946C54.0807 129.765 53.9934 129.52 53.9934 129.211V122.559C53.9934 122.538 53.9907 122.521 53.986 122.51C53.9815 122.498 53.9703 122.484 53.9536 122.468C53.9409 122.455 53.9265 122.445 53.9116 122.439C53.8925 122.432 53.8672 122.428 53.8363 122.428H49.9434C50.1474 122.722 50.3024 123.06 50.4074 123.439C50.5191 123.842 50.575 124.288 50.575 124.776L50.5764 139.716L50.6149 139.763L50.6609 139.801L53.8363 139.803C53.8677 139.803 53.8931 139.8 53.9121 139.793C53.9276 139.786 53.9424 139.776 53.9536 139.765C53.9724 139.746 53.985 139.73 53.9911 139.716L53.9934 132.655C53.9934 131.977 54.3235 131.638 54.984 131.638H60.7236C60.8533 131.638 60.9801 131.665 61.1023 131.72C61.2175 131.771 61.3228 131.845 61.4151 131.937C61.5104 132.032 61.5841 132.142 61.6354 132.265C61.6877 132.39 61.7145 132.52 61.7145 132.655L61.7159 139.716L61.7542 139.763C61.7669 139.776 61.7816 139.786 61.7963 139.792C61.8146 139.8 61.8403 139.803 61.8716 139.803H64.9759C65.0072 139.803 65.0326 139.8 65.0515 139.793C65.0673 139.786 65.082 139.776 65.0933 139.765C65.1119 139.746 65.1243 139.73 65.1308 139.716L65.133 122.559C65.133 122.538 65.13 122.521 65.1252 122.51C65.1209 122.498 65.1097 122.484 65.0933 122.468C65.0803 122.455 65.0659 122.445 65.0512 122.439C65.0321 122.432 65.0063 122.428 64.9759 122.428ZM86.8165 122.428V125.899C86.6723 125.907 86.5453 125.953 86.4344 126.039C86.3199 126.128 86.2394 126.251 86.1963 126.402L84.0429 132.188L84.0409 132.191C83.9842 132.347 83.9557 132.488 83.9557 132.615C83.9557 132.77 83.9964 132.909 84.077 133.029C84.1611 133.154 84.2788 133.244 84.4289 133.299C84.5375 133.338 84.66 133.359 84.7951 133.359H86.8165V134.794H83.8039C83.5722 134.794 83.3707 134.855 83.2023 134.975C83.0331 135.096 82.9112 135.268 82.8375 135.488L81.3818 139.543C81.3446 139.64 81.2978 139.709 81.2408 139.748C81.1881 139.784 81.1116 139.803 81.0125 139.803H79.0718L84.7409 124.929C84.9505 124.357 85.0558 123.862 85.0558 123.446C85.0558 123.258 85.0366 123.079 84.9994 122.908C84.9632 122.744 84.9077 122.585 84.8346 122.432L84.8326 122.428H86.8165ZM34.0953 134.385L33.0262 136.348C33.0094 136.376 33.0006 136.407 33 136.439V136.444L33.0001 136.447C33.0026 136.507 33.0239 136.577 33.0645 136.658L33.0697 136.664C33.3111 137.171 33.6299 137.633 34.0237 138.047C34.423 138.467 34.9035 138.843 35.4645 139.174C36.0232 139.505 36.6312 139.753 37.2871 139.918C37.9479 140.085 38.6616 140.169 39.4267 140.169C41.2441 140.169 42.6799 139.686 43.7335 138.721C44.2562 138.242 44.6486 137.702 44.908 137.104C45.1672 136.506 45.297 135.84 45.297 135.107C45.297 134.33 45.1605 133.612 44.8879 132.955C44.7524 132.625 44.5879 132.317 44.3962 132.028C44.2067 131.743 43.9892 131.476 43.7448 131.232C43.4818 130.971 43.2276 130.735 42.9825 130.527C42.7334 130.315 42.4854 130.123 42.2393 129.952C41.9846 129.776 41.718 129.603 41.4401 129.437C41.1629 129.27 40.8646 129.102 40.5462 128.934L40.3776 128.855L40.1512 128.736C39.7984 128.555 39.4865 128.392 39.217 128.248C38.9267 128.092 38.6911 127.962 38.5137 127.859C38.3071 127.738 38.1097 127.602 37.923 127.452C37.7357 127.3 37.5579 127.134 37.3927 126.954C37.2081 126.753 37.067 126.543 36.9707 126.322C36.8694 126.091 36.8184 125.854 36.8184 125.611C36.8184 125.29 36.8776 124.997 36.9951 124.733C37.1155 124.465 37.2948 124.234 37.5308 124.043C37.7605 123.856 38.03 123.718 38.3368 123.628C38.6336 123.542 38.9619 123.498 39.3223 123.498C39.7257 123.498 40.1101 123.55 40.4722 123.653C40.8393 123.757 41.1804 123.913 41.495 124.119C41.7929 124.314 42.0615 124.525 42.299 124.748C42.5371 124.972 42.744 125.21 42.9182 125.461C42.9438 125.497 42.9681 125.522 42.9909 125.536L43.0209 125.547L43.9375 124.024C43.9877 123.916 44.011 123.829 44.0075 123.765C44.0057 123.735 43.9911 123.706 43.9658 123.681C43.4055 123.145 42.7372 122.742 41.964 122.473C41.1746 122.199 40.2678 122.062 39.2441 122.062C38.4792 122.062 37.7759 122.163 37.1351 122.365C36.5005 122.564 35.9224 122.864 35.4035 123.262C34.896 123.651 34.5147 124.099 34.2611 124.605C34.0076 125.11 33.8762 125.681 33.8676 126.316C33.8693 126.693 33.9001 127.048 33.9622 127.38C34.0234 127.712 34.1161 128.028 34.2392 128.326C34.3606 128.619 34.5144 128.897 34.6997 129.158C34.8865 129.42 35.1047 129.664 35.3528 129.888C35.8794 130.365 36.3942 130.763 36.8967 131.081C37.1522 131.243 37.4382 131.41 37.7528 131.582C38.0782 131.76 38.4318 131.942 38.8118 132.128C40.0113 132.718 40.899 133.26 41.475 133.754C41.7999 134.032 42.0448 134.357 42.2086 134.727C42.3702 135.095 42.4523 135.501 42.4523 135.942C42.4523 136.357 42.3792 136.736 42.2331 137.077C42.0855 137.423 41.8637 137.726 41.5695 137.983C41.2789 138.237 40.931 138.427 40.5285 138.552C40.1404 138.672 39.703 138.732 39.218 138.732C37.9929 138.732 36.8945 138.299 35.9236 137.433C35.4481 137.009 35.0564 136.54 34.7498 136.028C34.4466 135.522 34.228 134.973 34.0953 134.385ZM122.772 139.698V122.559C122.772 122.538 122.769 122.522 122.764 122.51C122.758 122.496 122.748 122.482 122.733 122.467C122.719 122.455 122.705 122.445 122.69 122.439C122.671 122.432 122.646 122.428 122.615 122.428H118.696C118.9 122.722 119.055 123.06 119.16 123.439C119.271 123.842 119.327 124.288 119.327 124.776L119.329 139.716C119.335 139.728 119.348 139.744 119.367 139.763L119.413 139.801L122.615 139.803C122.646 139.803 122.671 139.8 122.69 139.793C122.706 139.786 122.721 139.776 122.732 139.765L122.769 139.718L122.772 139.698ZM100.352 124.776L100.354 139.716L100.392 139.763L100.438 139.801L103.614 139.803C103.645 139.803 103.67 139.8 103.689 139.793C103.705 139.786 103.719 139.776 103.731 139.765L103.768 139.718L103.771 133.75C103.771 133.533 103.8 133.333 103.859 133.152C103.922 132.956 104.019 132.786 104.147 132.644L104.409 132.357C104.813 131.882 105.214 131.9 105.607 132.411L110.83 139.408C111.036 139.671 111.379 139.803 111.857 139.803H115.093L107.677 130.086C107.304 129.62 107.315 129.188 107.709 128.793L113.672 122.428H111.596C111.386 122.428 111.203 122.461 111.047 122.528C110.896 122.593 110.765 122.691 110.654 122.82C108.816 124.963 106.746 126.996 104.892 129.133C104.804 129.221 104.711 129.287 104.615 129.33C104.462 129.399 104.312 129.405 104.164 129.351C104.011 129.294 103.9 129.185 103.833 129.027L103.832 129.023C103.792 128.927 103.771 128.816 103.771 128.689V122.559C103.771 122.538 103.768 122.522 103.763 122.51C103.757 122.496 103.747 122.482 103.732 122.467C103.718 122.455 103.704 122.445 103.689 122.439C103.67 122.432 103.644 122.428 103.614 122.428H99.7208C99.9248 122.722 100.08 123.06 100.184 123.439C100.296 123.842 100.352 124.288 100.352 124.776ZM86.8165 134.794V133.359H88.7865C89.5895 133.359 89.8494 132.969 89.5663 132.191L87.4902 126.403C87.4493 126.26 87.3785 126.143 87.2773 126.055C87.1584 125.951 87.0179 125.898 86.856 125.898L86.8165 125.899V122.428H89.0213C89.1361 122.428 89.225 122.449 89.2853 122.493C89.3485 122.538 89.4005 122.618 89.4394 122.73L95.9193 139.803H92.5431C92.4444 139.803 92.3679 139.784 92.3134 139.748C92.2581 139.709 92.2115 139.64 92.1729 139.541L90.7184 135.488C90.5638 135.026 90.2071 134.794 89.6474 134.794H86.8165ZM136.79 122.463V124.051C136.297 123.926 135.775 123.864 135.224 123.864H133.163C133.028 123.864 132.898 123.891 132.773 123.943C132.651 123.995 132.541 124.074 132.447 124.179C132.355 124.278 132.286 124.391 132.24 124.516C132.195 124.639 132.173 124.769 132.173 124.907V137.351C132.173 137.489 132.196 137.62 132.242 137.741C132.292 137.872 132.364 137.987 132.46 138.08C132.651 138.272 132.886 138.367 133.163 138.367H135.224C135.775 138.367 136.297 138.304 136.79 138.18V139.768C136.491 139.791 136.187 139.803 135.877 139.803L128.84 139.801L128.794 139.763L128.756 139.716L128.754 124.776C128.754 124.288 128.698 123.842 128.586 123.439C128.482 123.06 128.327 122.722 128.123 122.428H135.877C136.187 122.428 136.491 122.439 136.79 122.463ZM153 139.698V122.559V122.555C153 122.536 152.997 122.521 152.992 122.51C152.986 122.496 152.976 122.482 152.961 122.467C152.948 122.455 152.933 122.445 152.918 122.439C152.899 122.432 152.874 122.428 152.843 122.428H148.924C149.128 122.722 149.283 123.06 149.388 123.439C149.499 123.842 149.555 124.288 149.555 124.776L149.557 139.716C149.563 139.728 149.576 139.744 149.595 139.763L149.641 139.801L152.843 139.803C152.874 139.803 152.9 139.8 152.919 139.793C152.934 139.786 152.949 139.776 152.96 139.765L152.998 139.718L153 139.698ZM136.79 139.768V138.18C137.107 138.099 137.412 137.993 137.705 137.861C138.453 137.524 139.117 137.019 139.695 136.348C140.267 135.683 140.697 134.909 140.983 134.025C141.265 133.156 141.406 132.185 141.406 131.115C141.406 130.046 141.265 129.075 140.983 128.204C140.697 127.324 140.268 126.55 139.695 125.885C139.117 125.212 138.453 124.708 137.705 124.37C137.412 124.238 137.107 124.132 136.79 124.051V122.463C139.02 122.639 140.914 123.473 142.471 124.964C143.353 125.808 144.014 126.742 144.454 127.762C144.892 128.779 145.112 129.889 145.112 131.089C145.112 132.309 144.892 133.432 144.454 134.458C144.015 135.485 143.353 136.421 142.471 137.267C140.914 138.758 139.02 139.592 136.79 139.768Z" fill="#2B2A29"/>
<path fill-rule="evenodd" clip-rule="evenodd" d="M92.9403 101.496L94.5432 106.462L99.7614 106.452L95.5339 109.511L97.156 114.471L92.9403 111.395L88.7245 114.471L90.3466 109.511L86.1191 106.452L91.3373 106.462L92.9403 101.496Z" fill="#DEC579"/>
<path fill-rule="evenodd" clip-rule="evenodd" d="M33.082 152.405H64.0285V151.828H33.082V152.405Z" fill="#2B2A29"/>
<path d="M76.381 154.896L76.6062 155.244C76.2974 155.555 75.9563 155.71 75.5811 155.71C75.2937 155.71 75.0534 155.634 74.8561 155.481C74.6609 155.326 74.4894 155.059 74.3413 154.674C73.9446 155.087 73.5971 155.362 73.2969 155.502C72.9966 155.64 72.6363 155.71 72.2159 155.71C71.6154 155.71 71.1586 155.581 70.8475 155.324C70.5345 155.068 70.378 154.739 70.378 154.339C70.378 153.735 70.7361 153.233 71.4503 152.832C72.1645 152.434 73.1146 152.167 74.3028 152.035V151.16C74.3028 150.849 74.1762 150.582 73.921 150.359C73.6657 150.137 73.3419 150.026 72.9495 150.026C72.587 150.026 72.2738 150.101 72.0101 150.251C71.8235 150.361 71.7291 150.471 71.7291 150.579C71.7291 150.641 71.7805 150.738 71.8814 150.872C72.0037 151.037 72.0637 151.183 72.0637 151.313C72.0637 151.499 72.0037 151.652 71.8814 151.768C71.7613 151.887 71.6026 151.946 71.4074 151.946C71.1972 151.946 71.0235 151.876 70.8841 151.734C70.7447 151.594 70.6739 151.412 70.6739 151.194C70.6739 150.783 70.9076 150.406 71.3752 150.067C71.8428 149.725 72.4561 149.556 73.2133 149.556C73.9146 149.556 74.4486 149.704 74.8176 150.003C75.1864 150.304 75.3709 150.671 75.3709 151.101V154.275C75.3709 154.555 75.4159 154.763 75.5081 154.894C75.6003 155.032 75.7204 155.1 75.8663 155.1C76.0293 155.1 76.2008 155.032 76.381 154.896ZM74.3028 152.442C73.2454 152.586 72.4969 152.824 72.0551 153.15C71.7269 153.4 71.5618 153.752 71.5618 154.207C71.5618 154.527 71.6476 154.775 71.8171 154.956C71.9885 155.136 72.2117 155.227 72.4862 155.227C72.9774 155.227 73.402 155.04 73.7624 154.669C74.1226 154.299 74.3028 153.835 74.3028 153.275V152.442ZM79.9385 149.721L82.0618 149.619V151.968C82.2892 151.194 82.5615 150.611 82.879 150.215C83.1985 149.819 83.591 149.619 84.0608 149.619C84.3803 149.619 84.6355 149.715 84.8264 149.908C85.0172 150.098 85.1116 150.357 85.1116 150.677C85.1116 150.938 85.0473 151.141 84.9208 151.285C84.7921 151.429 84.6333 151.501 84.4403 151.501C84.2516 151.501 84.0993 151.44 83.9835 151.315C83.8698 151.192 83.8119 151.024 83.8119 150.813C83.8119 150.677 83.8441 150.55 83.9105 150.429C83.9728 150.321 84.0049 150.257 84.0049 150.236C84.0049 150.175 83.9641 150.143 83.8848 150.143C83.7132 150.143 83.5202 150.242 83.3015 150.442C83.0012 150.719 82.7695 151.101 82.6065 151.584C82.3556 152.338 82.2291 152.94 82.2291 153.392V154.64C82.2291 154.78 82.2785 154.888 82.3792 154.962C82.48 155.036 82.6537 155.074 82.8961 155.074H83.6446V155.545H79.9771V155.074H80.5627C80.7599 155.074 80.9101 155.036 81.0108 154.96C81.1117 154.883 81.161 154.79 81.161 154.682V150.98C81.161 150.698 81.101 150.493 80.9788 150.361C80.8565 150.232 80.6828 150.166 80.4554 150.166H79.9385V149.721ZM90.0225 147.356H90.4472V149.721H92.3517V150.293H90.4472V154.034C90.4472 154.358 90.5244 154.606 90.6766 154.778C90.8289 154.949 91.0241 155.036 91.2599 155.036C91.5409 155.036 91.7812 154.905 91.9785 154.642C92.178 154.381 92.2938 153.949 92.3259 153.345H92.7505C92.7248 154.121 92.5468 154.695 92.2166 155.07C91.8862 155.445 91.4573 155.634 90.9297 155.634C90.445 155.634 90.0653 155.502 89.7908 155.24C89.5163 154.977 89.3791 154.631 89.3791 154.203V150.293H88.3496V149.859C88.8215 149.781 89.1818 149.588 89.4284 149.282C89.7952 148.825 89.9924 148.183 90.0225 147.356ZM97.7279 146.25C97.9166 146.25 98.0818 146.32 98.2233 146.462C98.3671 146.602 98.4378 146.767 98.4378 146.958C98.4378 147.144 98.3691 147.307 98.2297 147.443C98.0925 147.581 97.9252 147.649 97.7343 147.649C97.5413 147.649 97.374 147.579 97.2325 147.441C97.0931 147.301 97.0223 147.138 97.0223 146.951C97.0223 146.765 97.093 146.602 97.2367 146.462C97.3783 146.32 97.5434 146.25 97.7279 146.25ZM96.0828 149.721L98.4378 149.658V154.659C98.4378 154.794 98.4721 154.892 98.5385 154.949C98.6352 155.032 98.7574 155.074 98.9033 155.074H99.5702V155.545H96.2116V155.074H96.8357C97.0201 155.074 97.1552 155.03 97.241 154.941C97.3268 154.852 97.3697 154.722 97.3697 154.553V150.893C97.3697 150.662 97.3032 150.486 97.1681 150.368C97.033 150.251 96.8335 150.192 96.5697 150.192H96.0828V149.721ZM103.66 153.358C103.919 154.068 104.215 154.557 104.552 154.831C104.888 155.104 105.302 155.24 105.796 155.24C106.25 155.24 106.6 155.142 106.845 154.945C107.089 154.75 107.211 154.5 107.211 154.199C107.211 154.025 107.166 153.875 107.076 153.746C106.986 153.614 106.862 153.517 106.703 153.453C106.542 153.39 106.13 153.296 105.465 153.171C104.828 153.048 104.385 152.919 104.134 152.781C103.883 152.646 103.687 152.459 103.548 152.22C103.409 151.98 103.338 151.72 103.338 151.44C103.338 151.014 103.482 150.628 103.771 150.281C104.144 149.84 104.668 149.619 105.339 149.619C105.849 149.619 106.323 149.776 106.761 150.092L107.177 149.658H107.434L107.597 151.73H107.173C106.988 151.143 106.739 150.721 106.424 150.465C106.109 150.207 105.721 150.077 105.26 150.077C104.861 150.077 104.547 150.173 104.32 150.365C104.095 150.556 103.981 150.789 103.981 151.067C103.981 151.308 104.086 151.512 104.297 151.671C104.5 151.836 104.904 151.965 105.504 152.059C106.199 152.173 106.652 152.271 106.862 152.347C107.205 152.472 107.473 152.663 107.662 152.923C107.85 153.182 107.945 153.498 107.945 153.871C107.945 154.383 107.741 154.82 107.331 155.176C106.924 155.532 106.405 155.71 105.776 155.71C105.193 155.71 104.653 155.523 104.153 155.151L103.694 155.672H103.362L103.235 153.358H103.66ZM113.177 147.356H113.602V149.721H115.506V150.293H113.602V154.034C113.602 154.358 113.679 154.606 113.831 154.778C113.984 154.949 114.179 155.036 114.415 155.036C114.696 155.036 114.936 154.905 115.133 154.642C115.333 154.381 115.449 153.949 115.481 153.345H115.905C115.88 154.121 115.702 154.695 115.371 155.07C115.041 155.445 114.612 155.634 114.085 155.634C113.6 155.634 113.22 155.502 112.946 155.24C112.671 154.977 112.534 154.631 112.534 154.203V150.293H111.504V149.859C111.976 149.781 112.337 149.588 112.583 149.282C112.95 148.825 113.147 148.183 113.177 147.356Z" fill="#2B2A29"/>
<path fill-rule="evenodd" clip-rule="evenodd" d="M121.972 152.436H152.918V151.859H121.972V152.436Z" fill="#2B2A29"/>
</svg>
