<svg width="186" height="167" viewBox="0 0 186 167" fill="none" xmlns="http://www.w3.org/2000/svg">
<path fill-rule="evenodd" clip-rule="evenodd" d="M93.354 0C107.811 0 120.9 5.86002 130.374 15.3342C139.848 24.8085 145.708 37.897 145.708 52.354C145.708 66.811 139.848 79.8996 130.374 89.3739C120.9 98.8481 107.811 104.708 93.354 104.708C78.8971 104.708 65.8085 98.8481 56.3342 89.3739C46.8601 79.8996 41 66.811 41 52.354C41 37.897 46.8601 24.8085 56.3342 15.3342C65.8085 5.86002 78.8971 0 93.354 0ZM92.9484 6.3595C118.369 6.3595 138.977 26.9672 138.977 52.3881C138.977 77.8089 118.369 98.4167 92.9484 98.4167C67.5276 98.4167 46.9198 77.8089 46.9198 52.3881C46.9198 26.9672 67.5276 6.3595 92.9484 6.3595ZM127.543 18.1653C118.793 9.41584 106.706 4.00412 93.354 4.00412C80.0025 4.00412 67.9148 9.41584 59.1653 18.1653C50.4159 26.9148 45.0041 39.0024 45.0041 52.354C45.0041 65.7056 50.4159 77.7933 59.1653 86.5428C67.9148 95.2923 80.0025 100.704 93.354 100.704C106.706 100.704 118.793 95.2923 127.543 86.5428C136.292 77.7934 141.704 65.7057 141.704 52.354C141.704 39.0024 136.292 26.9148 127.543 18.1653Z" fill="url(#paint0_linear_2_2806)"/>
<path fill-rule="evenodd" clip-rule="evenodd" d="M88.6246 61.3723H88.1429V55.3627H88.6246C89.2195 58.698 90.9573 60.3629 93.8387 60.3629C94.8347 60.3629 95.6633 60.0953 96.3252 59.5603C96.9874 59.026 97.3214 58.3373 97.3214 57.4951C97.3214 56.5458 96.8335 55.7037 95.8642 54.9612C93.5643 53.6179 91.6794 52.4681 90.1957 51.4988C88.7181 50.5297 87.9824 49.246 87.9824 47.6549C87.9824 46.3381 88.4706 45.242 89.4603 44.3662C90.4429 43.4836 91.6593 43.0426 93.1098 43.0426C94.0525 43.0426 95.035 43.2698 96.071 43.7246C96.5592 43.9449 96.9002 44.0523 97.0943 44.0523C97.5485 44.0523 97.8426 43.7107 97.9895 43.0426H98.4644V49.1056H97.9895C97.7356 47.3142 97.1474 46.0308 96.232 45.2488C95.3093 44.4662 94.2799 44.0786 93.1434 44.0786C92.2941 44.0786 91.5591 44.3394 90.9508 44.8609C90.3425 45.3756 90.0349 46.0104 90.0349 46.7594C90.0349 47.2475 90.2423 47.762 90.6565 48.3038C91.0711 48.8516 92.3213 49.6873 94.4064 50.8035C95.6836 51.4923 96.6529 52.0536 97.3146 52.4946C97.9697 52.9362 98.5178 53.5111 98.9591 54.2129C99.4004 54.9146 99.6208 55.6765 99.6208 56.4992C99.6208 57.8962 99.0927 59.0523 98.0296 59.9815C96.9739 60.9109 95.6633 61.3723 94.1127 61.3723C93.2703 61.3723 92.2275 61.1652 90.9844 60.7573C90.2222 60.503 89.6939 60.3762 89.4066 60.3762C88.9854 60.3762 88.7249 60.7039 88.6246 61.3723ZM118.66 73.6779C116.329 71.669 113.709 72.716 113.709 72.716C113.709 72.716 113.06 75.4611 115.391 77.47C117.722 79.4793 122.151 79.9912 122.151 79.9912C122.151 79.9912 120.991 75.6872 118.66 73.6779ZM68.0495 31.0889C70.3802 33.0981 73 32.0512 73 32.0512C73 32.0512 73.6489 29.306 71.3176 27.297C68.9866 25.2879 64.5585 24.7759 64.5585 24.7759C64.5585 24.7759 65.7185 29.08 68.0495 31.0889ZM68.0492 73.6779C70.3799 71.669 72.9997 72.716 72.9997 72.716C72.9997 72.716 73.6483 75.4611 71.3173 77.47C68.9863 79.4793 64.558 79.9912 64.558 79.9912C64.558 79.9912 65.7182 75.6872 68.0492 73.6779ZM106.428 53.3998C105.14 53.3998 103.597 52.3522 103.597 52.3522C103.597 52.3522 105.14 51.305 106.428 51.305C107.715 51.305 108.26 52.3522 108.26 52.3522C108.26 52.3522 107.715 53.3998 106.428 53.3998ZM114.131 50.3535C116.589 50.3535 119.534 52.3522 119.534 52.3522C119.534 52.3522 116.589 54.3513 114.131 54.3513C111.674 54.3513 110.635 52.3522 110.635 52.3522C110.635 52.3522 111.674 50.3535 114.131 50.3535ZM135.542 52.5209C135.538 52.5288 134.051 55.3887 130.54 55.3887C127.136 55.3887 123.108 52.6551 123.096 52.6475L122.659 52.352L123.096 52.057C123.108 52.0491 127.136 49.3149 130.54 49.3149C134.051 49.3149 135.538 52.1754 135.542 52.1833L135.632 52.352L135.542 52.5209ZM130.54 54.6757C128.016 54.6757 125.077 53.0368 123.959 52.352C125.077 51.6674 128.016 50.0286 130.54 50.0286C133.135 50.0286 134.459 51.7921 134.815 52.352C134.459 52.9122 133.135 54.6757 130.54 54.6757ZM110.056 51.6168C113.255 48.346 118.022 50.2405 121.336 52.3528C117.458 54.8236 113.223 56.2156 110.056 53.0882C109.77 52.7605 109.593 52.4824 109.516 52.3528C109.593 52.2231 109.77 51.9446 110.056 51.6168ZM108.074 53.7733C108.343 53.3337 108.636 52.9384 108.953 52.5884C110.388 54.042 112.017 55.2887 114.163 55.2887C117.616 55.2887 121.725 52.4997 121.737 52.4924L121.945 52.3528L121.737 52.2132C121.725 52.205 117.616 49.4167 114.163 49.4167C112.015 49.4167 110.39 50.6643 108.953 52.1169C108.636 51.7669 108.343 51.3719 108.074 50.932C107.665 50.2647 107.389 49.6025 107.247 48.9454C107.105 48.2889 107.083 47.6761 107.181 47.108C107.279 46.5395 107.48 46.0262 107.781 45.568C108.084 45.1103 108.469 44.7379 108.938 44.4509C109.84 43.8983 110.729 43.6814 111.608 43.8003C112.487 43.9192 113.368 44.204 114.252 44.6543C115.135 45.1053 116.035 45.6327 116.95 46.237C117.866 46.8413 118.807 47.3439 119.771 47.7448C120.736 48.1457 121.73 48.3612 122.752 48.3914C123.775 48.422 124.855 48.0891 125.991 47.3933C126.658 46.9848 127.214 46.4458 127.659 45.7762C128.105 45.1066 128.406 44.3642 128.563 43.5483C128.721 42.7327 128.716 41.8741 128.548 40.9726C128.38 40.0717 128.025 39.1793 127.484 38.2955C127.031 37.5565 126.489 36.946 125.86 36.4637C125.229 35.982 124.598 35.619 123.965 35.3746C123.331 35.1305 122.735 35.0062 122.175 35.002C121.614 34.9983 121.163 35.1015 120.82 35.3114C120.28 35.6427 119.939 36.099 119.799 36.6801C119.66 37.2618 119.755 37.8229 120.087 38.3642C120.418 38.9049 120.875 39.2456 121.456 39.3852C122.038 39.5247 122.599 39.4287 123.14 39.0976C123.681 38.7662 124.021 38.31 124.161 37.7282C124.3 37.1468 124.205 36.5855 123.873 36.0445C123.829 35.9724 123.776 35.9058 123.714 35.8448C123.651 35.7838 123.589 35.7227 123.527 35.6614C123.465 35.6004 123.397 35.5303 123.324 35.4515C123.782 35.5919 124.241 35.7945 124.7 36.0586C125.109 36.2798 125.535 36.5821 125.981 36.9658C126.427 37.35 126.838 37.848 127.213 38.4611C127.589 39.0744 127.834 39.6867 127.949 40.2986C128.063 40.9102 128.079 41.4831 127.997 42.0174C127.915 42.5507 127.736 43.0383 127.461 43.4797C127.186 43.9209 126.85 44.2634 126.453 44.506C125.552 45.0583 124.662 45.275 123.783 45.1564C122.905 45.0374 122.023 44.7532 121.14 44.3024C120.257 43.8517 119.357 43.3242 118.441 42.72C117.525 42.1163 116.585 41.6134 115.62 41.2119C114.656 40.8116 113.657 40.5989 112.625 40.5734C111.594 40.5486 110.519 40.8788 109.401 41.5636C108.662 42.0165 108.054 42.5928 107.579 43.294C107.102 43.9944 106.787 44.7643 106.631 45.6033C106.476 46.4424 106.489 47.3337 106.67 48.2767C106.851 49.2195 107.229 50.1597 107.803 51.0976C108.09 51.5665 108.4 51.9846 108.731 52.3522C108.4 52.72 108.09 53.1382 107.803 53.6078C107.229 54.5451 106.851 55.4853 106.67 56.4286C106.489 57.3719 106.476 58.2627 106.631 59.1017C106.787 59.9408 107.102 60.7107 107.579 61.4113C108.054 62.1119 108.662 62.6888 109.401 63.1416C110.519 63.8265 111.594 64.1568 112.625 64.1316C113.657 64.1067 114.656 63.894 115.62 63.4931C116.585 63.092 117.525 62.5894 118.441 61.9851C119.357 61.3808 120.257 60.853 121.14 60.4027C122.023 59.9524 122.905 59.6676 123.783 59.549C124.662 59.4297 125.552 59.6467 126.453 60.199C126.85 60.4417 127.186 60.7844 127.461 61.2254C127.736 61.6667 127.915 62.1545 127.997 62.6882C128.079 63.2224 128.063 63.7949 127.949 64.4065C127.834 65.0184 127.589 65.6309 127.213 66.2436C126.838 66.8567 126.427 67.3553 125.981 67.7389C125.535 68.1228 125.109 68.4255 124.7 68.6467C124.241 68.9102 123.782 69.1128 123.324 69.2538C123.397 69.175 123.465 69.1049 123.527 69.0435C123.589 68.9825 123.651 68.9215 123.714 68.8602C123.776 68.7994 123.829 68.7328 123.873 68.6605C124.205 68.1197 124.3 67.5584 124.161 66.977C124.021 66.3956 123.681 65.9392 123.14 65.6077C122.599 65.2761 122.038 65.1805 121.456 65.3201C120.875 65.4599 120.418 65.8004 120.087 66.3412C119.755 66.8818 119.66 67.4431 119.799 68.0246C119.939 68.6062 120.28 69.0628 120.82 69.3941C121.163 69.6038 121.614 69.7066 122.175 69.7029C122.735 69.6987 123.331 69.5747 123.965 69.3306C124.598 69.0859 125.229 68.7232 125.86 68.2412C126.489 67.7596 127.031 67.1487 127.484 66.4095C128.025 65.5261 128.38 64.6336 128.548 63.7322C128.716 62.8306 128.721 61.9724 128.563 61.1567C128.406 60.3412 128.105 59.5987 127.659 58.9291C127.214 58.2598 126.658 57.7202 125.991 57.3117C124.855 56.6159 123.775 56.2831 122.752 56.3139C121.73 56.3442 120.736 56.5594 119.771 56.9609C118.807 57.3618 117.866 57.8641 116.95 58.4684C116.035 59.0727 115.135 59.5998 114.252 60.0507C113.368 60.5013 112.487 60.7861 111.608 60.9048C110.729 61.0234 109.84 60.8067 108.938 60.2544C108.469 59.9673 108.084 59.5945 107.781 59.1368C107.48 58.6788 107.279 58.166 107.181 57.5971C107.083 57.0286 107.105 56.4162 107.247 55.7597C107.389 55.1028 107.665 54.4405 108.074 53.7733ZM80.2815 51.305C81.5683 51.305 83.1122 52.3522 83.1122 52.3522C83.1122 52.3522 81.5683 53.4003 80.2815 53.4003C78.9932 53.4003 78.4488 52.3522 78.4488 52.3522C78.4488 52.3522 78.9932 51.305 80.2815 51.305ZM72.5776 54.3516C70.1197 54.3516 67.1746 52.3522 67.1746 52.3522C67.1746 52.3522 70.1197 50.3538 72.5776 50.3538C75.0346 50.3538 76.0737 52.3522 76.0737 52.3522C76.0737 52.3522 75.0346 54.3516 72.5776 54.3516ZM51.1669 52.1839C51.1709 52.1762 52.6584 49.3158 56.1684 49.3158C59.5727 49.3158 63.6007 52.0499 63.6123 52.0576L64.0491 52.3528L63.6123 52.6477C63.6007 52.6562 59.5727 55.3895 56.1684 55.3895C52.6576 55.3895 51.1709 52.5299 51.1669 52.5218L51.0762 52.3528L51.1669 52.1839ZM56.1684 50.0289C58.6928 50.0289 61.6319 51.6677 62.7499 52.3528C61.6319 53.0382 58.6928 54.677 56.1684 54.677C53.574 54.677 52.2487 52.9127 51.8932 52.3528C52.2487 51.7923 53.574 50.0289 56.1684 50.0289ZM76.6529 53.0873C73.454 56.3591 68.6868 54.4638 65.3729 52.3528C69.251 49.8817 73.4858 48.4889 76.6529 51.6168C76.9396 51.9446 77.1165 52.2223 77.193 52.3528C77.1165 52.4822 76.9396 52.7605 76.6529 53.0873ZM78.6352 50.9312C78.366 51.3716 78.0722 51.7663 77.7558 52.1169C76.3206 50.6631 74.6922 49.4167 72.5462 49.4167C69.0933 49.4167 64.9831 52.2054 64.9724 52.2124L64.7642 52.3528L64.9724 52.4918C64.9831 52.5 69.0933 55.2884 72.5462 55.2884C74.6936 55.2884 76.3186 54.0405 77.7558 52.5884C78.0722 52.9376 78.366 53.3328 78.6352 53.773C79.0437 54.4405 79.3194 55.1023 79.4613 55.7597C79.6037 56.4156 79.626 57.0286 79.5271 57.5974C79.4296 58.1655 79.2291 58.6788 78.927 59.1365C78.6251 59.595 78.2397 59.9673 77.7707 60.2541C76.8696 60.8067 75.9799 61.0234 75.1005 60.9048C74.2221 60.7852 73.3407 60.501 72.4575 60.0505C71.5741 59.5998 70.674 59.0727 69.7587 58.4684C68.8416 57.8638 67.9023 57.3612 66.9378 56.9609C65.973 56.5594 64.9794 56.3438 63.9565 56.3137C62.9332 56.2828 61.8543 56.6157 60.7178 57.312C60.0512 57.72 59.4942 58.2593 59.0496 58.9288C58.6036 59.5987 58.3029 60.3406 58.1456 61.1567C57.9878 61.972 57.9934 62.8304 58.1607 63.7322C58.3287 64.6331 58.6836 65.5263 59.2248 66.4092C59.6777 67.1487 60.2193 67.7589 60.849 68.2412C61.4792 68.7232 62.1105 69.0862 62.7436 69.33C63.377 69.5747 63.9734 69.6987 64.5342 69.7033C65.0947 69.7063 65.5458 69.6038 65.8883 69.3933C66.4296 69.0628 66.7694 68.606 66.909 68.0246C67.0494 67.4431 66.9527 66.8818 66.6211 66.3412C66.2903 65.8001 65.8334 65.4599 65.2523 65.3201C64.6709 65.18 64.1101 65.2755 63.5689 65.6077C63.0276 65.9388 62.6874 66.3959 62.5478 66.977C62.4083 67.5584 62.5043 68.1195 62.836 68.6605C62.8804 68.7328 62.9326 68.7987 62.9959 68.8605C63.0569 68.9209 63.1199 68.982 63.1818 69.0435C63.2442 69.1043 63.3117 69.1744 63.3849 69.2538C62.9272 69.1128 62.4679 68.9096 62.008 68.6461C61.6006 68.4248 61.1733 68.1228 60.7277 67.7389C60.2816 67.3558 59.8707 66.8563 59.495 66.2436C59.1198 65.6309 58.8749 65.0181 58.7601 64.4062C58.6458 63.7951 58.6298 63.2224 58.7115 62.6882C58.7944 62.154 58.9726 61.6664 59.2475 61.2254C59.5228 60.7839 59.8587 60.442 60.2554 60.199C61.1561 59.6461 62.0464 59.4297 62.9259 59.5481C63.8045 59.6673 64.685 59.9518 65.5679 60.4027C66.4521 60.853 67.3517 61.3802 68.2673 61.9845C69.1837 62.5885 70.124 63.0922 71.0876 63.4931C72.0529 63.894 73.0511 64.107 74.0831 64.1311C75.1151 64.1562 76.1901 63.8262 77.3083 63.1416C78.0473 62.6888 78.655 62.1125 79.1299 61.411C79.6065 60.7101 79.9218 59.9408 80.0772 59.1012C80.2325 58.2627 80.2196 57.3719 80.0385 56.4278C79.8579 55.4853 79.4799 54.5451 78.9056 53.6078C78.6191 53.1382 78.3084 52.72 77.9778 52.3528C78.3084 51.9846 78.6182 51.5665 78.9056 51.097C79.4799 50.1597 79.8579 49.2195 80.0385 48.2764C80.2196 47.3331 80.2325 46.4421 80.0772 45.6031C79.9218 44.7643 79.6065 43.9944 79.1299 43.294C78.655 42.5926 78.0473 42.0162 77.3083 41.5634C76.1901 40.8783 75.1151 40.5486 74.0831 40.574C73.0511 40.5989 72.0529 40.811 71.0876 41.2119C70.124 41.6134 69.1837 42.1154 68.2673 42.7203C67.3517 43.3246 66.4521 43.8517 65.5679 44.3024C64.685 44.7532 63.8045 45.0374 62.9259 45.1561C62.0464 45.2745 61.1561 45.058 60.2554 44.506C59.8587 44.2628 59.5228 43.9212 59.2475 43.4797C58.9726 43.0383 58.7944 42.5507 58.7115 42.0168C58.6298 41.4826 58.6458 40.9105 58.7601 40.298C58.8749 39.6869 59.1198 39.0744 59.495 38.4611C59.8707 37.8486 60.2816 37.3491 60.7277 36.9658C61.1733 36.5821 61.6006 36.2798 62.008 36.0584C62.4679 35.7942 62.9272 35.5913 63.3849 35.4509C63.3117 35.5297 63.2442 35.5998 63.1818 35.6614C63.1199 35.7227 63.0569 35.7831 62.9959 35.8445C62.9326 35.9055 62.8804 35.9722 62.836 36.0442C62.5043 36.5855 62.4083 37.1463 62.5478 37.7277C62.6874 38.31 63.0276 38.7662 63.5689 39.0973C64.1101 39.4284 64.6709 39.5242 65.2523 39.3855C65.8334 39.2451 66.2903 38.9043 66.6211 38.3636C66.9527 37.8229 67.0494 37.2615 66.909 36.6801C66.7694 36.099 66.4296 35.6431 65.8883 35.3111C65.5458 35.102 65.0947 34.9983 64.5342 35.0018C63.9734 35.006 63.377 35.13 62.7436 35.3746C62.1105 35.6185 61.4792 35.982 60.849 36.4637C60.2193 36.9451 59.6777 37.5562 59.2248 38.295C58.6836 39.1792 58.3287 40.0717 58.1607 40.9721C57.9934 41.8739 57.9878 42.7327 58.1456 43.5483C58.3029 44.3634 58.6036 45.1066 59.0496 45.7753C59.4942 46.4458 60.0512 46.9842 60.7178 47.3931C61.8543 48.0891 62.9332 48.4222 63.9565 48.3914C64.9794 48.3609 65.973 48.1457 66.9378 47.7445C67.9023 47.3436 68.8416 46.8413 69.7587 46.2367C70.674 45.6324 71.5741 45.1044 72.4575 44.6543C73.3407 44.2031 74.2221 43.9192 75.1005 43.8003C75.9799 43.6814 76.8696 43.8989 77.7707 44.4501C78.2397 44.7377 78.6251 45.1097 78.927 45.5677C79.2291 46.0262 79.4296 46.5395 79.5271 47.1074C79.626 47.6761 79.6037 48.2894 79.4613 48.9454C79.3194 49.602 79.0437 50.2642 78.6352 50.9312ZM92.3071 65.4255C92.3071 66.7134 93.3547 67.2575 93.3547 67.2575C93.3547 67.2575 94.4019 66.7134 94.4019 65.4255C94.4019 64.1375 93.3547 62.5944 93.3547 62.5944C93.3547 62.5944 92.3071 64.1375 92.3071 65.4255ZM95.3534 73.1296C95.3534 70.6717 93.3547 69.6329 93.3547 69.6329C93.3547 69.6329 91.3557 70.6717 91.3557 73.1296C91.3557 75.5868 93.3547 78.5323 93.3547 78.5323C93.3547 78.5323 95.3534 75.5868 95.3534 73.1296ZM93.1863 94.5397L93.355 94.6302L93.5237 94.5397C93.5316 94.5355 96.392 93.0489 96.392 89.5385C96.392 86.1345 93.6579 82.1055 93.6502 82.0942L93.355 81.6566L93.0595 82.0942C93.0519 82.1055 90.318 86.1345 90.318 89.5385C90.318 93.0489 93.1782 94.5355 93.1863 94.5397ZM91.0313 89.5385C91.0313 92.1325 92.7947 93.4574 93.355 93.8132C93.9152 93.4574 95.6786 92.1325 95.6786 89.5385C95.6786 87.0142 94.0398 84.0752 93.355 82.9567C92.6702 84.0752 91.0313 87.0142 91.0313 89.5385ZM94.0901 69.0537C93.7627 68.7673 93.4841 68.5904 93.3544 68.5141C93.2245 68.5904 92.9465 68.7673 92.619 69.0537C89.4911 72.2213 90.8836 76.4556 93.3544 80.3336C95.4667 77.0197 97.3612 72.2524 94.0901 69.0537ZM91.9334 67.0714C91.2667 66.6629 90.6045 66.3872 89.9476 66.2454C89.2911 66.103 88.6786 66.0809 88.1098 66.1792C87.5412 66.2773 87.0281 66.4775 86.5704 66.7792C86.1125 67.0818 85.7399 67.4669 85.4528 67.9358C84.9002 68.8373 84.6838 69.7273 84.8022 70.6059C84.9209 71.4848 85.2059 72.3656 85.6562 73.2493C86.1071 74.1328 86.6343 75.0328 87.2386 75.9485C87.8428 76.8641 88.3454 77.8046 88.7463 78.7691C89.1475 79.7338 89.3628 80.7277 89.393 81.7505C89.4238 82.7734 89.091 83.8528 88.3955 84.9889C87.9867 85.6559 87.4474 86.2124 86.7778 86.6571C86.1079 87.1023 85.3655 87.4035 84.5505 87.5615C83.7346 87.7188 82.8763 87.7134 81.9748 87.5456C81.0736 87.3781 80.1809 87.0236 79.2974 86.4822C78.5584 86.0293 77.9476 85.4875 77.4659 84.8578C76.9839 84.2275 76.6209 83.5961 76.3766 82.9632C76.1325 82.3296 76.0081 81.7329 76.0042 81.1724C76.0003 80.6119 76.1033 80.1607 76.313 79.8181C76.6444 79.2776 77.1009 78.9372 77.6826 78.797C78.2637 78.6575 78.8253 78.7532 79.3661 79.0849C79.9068 79.4161 80.2473 79.8728 80.3868 80.4542C80.5267 81.0356 80.4309 81.597 80.0992 82.1377C79.7678 82.6788 79.3116 83.0189 78.7301 83.1588C78.1487 83.2983 77.5874 83.2023 77.0464 82.8709C76.9741 82.8265 76.9074 82.7737 76.8469 82.7115C76.7853 82.6494 76.7243 82.5869 76.6633 82.5248C76.6023 82.4629 76.5319 82.3949 76.4534 82.3217C76.5943 82.7799 76.7964 83.2387 77.0602 83.6984C77.2818 84.1063 77.584 84.5331 77.9677 84.979C78.3516 85.4248 78.8502 85.8361 79.4633 86.2116C80.0763 86.587 80.6885 86.832 81.3008 86.9464C81.9121 87.0608 82.4848 87.0774 83.019 86.995C83.5524 86.9128 84.0403 86.7345 84.4819 86.4594C84.9228 86.1839 85.2652 85.8483 85.5079 85.4514C86.0605 84.5498 86.2772 83.6602 86.1582 82.7813C86.0393 81.903 85.7549 81.0215 85.3045 80.1378C84.8539 79.2544 84.3264 78.3546 83.7221 77.4393C83.1178 76.5228 82.6152 75.5829 82.2141 74.6184C81.8132 73.6536 81.6005 72.6552 81.5756 71.6231C81.5505 70.5914 81.8807 69.5165 82.5653 68.3983C83.0184 67.6596 83.595 67.0521 84.2957 66.5762C84.9966 66.1001 85.7664 65.7846 86.6055 65.6295C87.4443 65.4741 88.3353 65.4871 89.2786 65.6682C90.2214 65.8487 91.1621 66.2262 92.0995 66.8004C92.5685 67.0886 92.9869 67.3979 93.3547 67.7288C93.722 67.3974 94.1404 67.088 94.6096 66.8004C95.5472 66.2262 96.4874 65.8487 97.4301 65.6682C98.3734 65.4871 99.2645 65.4741 100.104 65.6295C100.943 65.7846 101.712 66.1001 102.413 66.5762C103.114 67.0521 103.69 67.6596 104.143 68.3983C104.828 69.5165 105.158 70.5914 105.134 71.6231C105.109 72.6552 104.896 73.6536 104.495 74.6184C104.094 75.5829 103.591 76.5228 102.987 77.4393C102.383 78.3546 101.855 79.2544 101.405 80.1378C100.954 81.0215 100.67 81.903 100.55 82.7813C100.432 83.6602 100.649 84.5498 101.201 85.4514C101.444 85.8483 101.786 86.1839 102.227 86.4594C102.669 86.7345 103.156 86.9128 103.69 86.995C104.224 87.0774 104.797 87.0608 105.408 86.9464C106.02 86.832 106.633 86.587 107.246 86.2116C107.859 85.8361 108.357 85.4248 108.741 84.979C109.125 84.5331 109.427 84.1063 109.649 83.6984C109.913 83.2387 110.115 82.7799 110.256 82.3217C110.177 82.3949 110.107 82.4629 110.045 82.5248C109.984 82.5869 109.923 82.6494 109.862 82.7115C109.801 82.7737 109.735 82.8265 109.662 82.8709C109.122 83.2023 108.56 83.2983 107.979 83.1588C107.397 83.0189 106.941 82.6788 106.609 82.1377C106.278 81.597 106.182 81.0356 106.322 80.4542C106.462 79.8728 106.802 79.4161 107.343 79.0849C107.884 78.7532 108.445 78.6575 109.026 78.797C109.608 78.9372 110.064 79.2776 110.396 79.8181C110.605 80.1607 110.708 80.6119 110.705 81.1724C110.701 81.7329 110.577 82.3296 110.332 82.9632C110.088 83.5961 109.725 84.2275 109.243 84.8578C108.761 85.4875 108.151 86.0293 107.412 86.4822C106.528 87.0236 105.635 87.3781 104.735 87.5456C103.833 87.7134 102.974 87.7188 102.159 87.5615C101.343 87.4035 100.601 87.1023 99.931 86.6571C99.2614 86.2124 98.7224 85.6559 98.3136 84.9889C97.6178 83.8528 97.2852 82.7734 97.3155 81.7505C97.3457 80.7277 97.5616 79.7338 97.9627 78.7691C98.3633 77.8046 98.8656 76.8641 99.4699 75.9485C100.074 75.0328 100.602 74.1328 101.053 73.2493C101.503 72.3656 101.788 71.4848 101.907 70.6059C102.026 69.7273 101.808 68.8373 101.256 67.9358C100.969 67.4669 100.597 67.0818 100.139 66.7792C99.6809 66.4775 99.1673 66.2773 98.5992 66.1792C98.0308 66.0809 97.418 66.103 96.7615 66.2454C96.1046 66.3872 95.4424 66.6629 94.7751 67.0714C94.3353 67.3408 93.9404 67.6341 93.5904 67.9514C95.0429 69.3877 96.2903 71.0132 96.2903 73.1603C96.2903 76.6138 93.5022 80.7229 93.494 80.7351L93.3544 80.9424L93.2148 80.7351C93.2078 80.7229 90.4183 76.6138 90.4183 73.1603C90.4183 71.0147 91.6656 69.386 93.1188 67.9514C92.7688 67.6341 92.3738 67.3408 91.9334 67.0714ZM94.4019 39.2793C94.4019 37.9913 93.3547 37.4466 93.3547 37.4466C93.3547 37.4466 92.3069 37.9913 92.3069 39.2793C92.3069 40.5661 93.3547 42.1103 93.3547 42.1103C93.3547 42.1103 94.4019 40.5661 94.4019 39.2793ZM91.3553 31.5754C91.3553 34.0324 93.3547 35.0715 93.3547 35.0715C93.3547 35.0715 95.3531 34.0324 95.3531 31.5754C95.3531 29.1179 93.3547 26.1724 93.3547 26.1724C93.3547 26.1724 91.3553 29.1179 91.3553 31.5754ZM93.5234 10.1646L93.3544 10.0742L93.1858 10.1646C93.177 10.1689 90.3174 11.6554 90.3174 15.1663C90.3174 18.5706 93.051 22.5989 93.0592 22.6101L93.3544 23.0472L93.6496 22.6101C93.6575 22.5989 96.3911 18.5706 96.3911 15.1663C96.3911 11.6563 93.5307 10.1689 93.5234 10.1646ZM95.678 15.1663C95.678 12.5717 93.9146 11.2466 93.3544 10.8913C92.7942 11.2466 91.0299 12.5717 91.0299 15.1663C91.0299 17.6905 92.6688 20.6298 93.3544 21.7477C94.0392 20.6298 95.678 17.6905 95.678 15.1663ZM92.6196 35.6507C92.9465 35.9377 93.225 36.1146 93.3544 36.1908C93.485 36.1146 93.7627 35.9377 94.0901 35.6507C97.218 32.4837 95.8252 28.2491 93.3544 24.3708C91.2432 27.685 89.3478 32.452 92.6196 35.6507ZM94.776 37.6333C95.4424 38.0418 96.1054 38.3176 96.7615 38.4588C97.4177 38.6015 98.0308 38.6236 98.5995 38.5252C99.1673 38.4274 99.6809 38.2272 100.139 37.9249C100.597 37.6232 100.969 37.2375 101.257 36.7685C101.808 35.8676 102.026 34.9777 101.907 34.0985C101.788 33.2199 101.504 32.3385 101.053 31.4556C100.603 30.5719 100.075 29.6719 99.4705 28.7568C98.8656 27.8398 98.3636 26.9002 97.9627 25.9356C97.5616 24.9708 97.3462 23.977 97.3155 22.9546C97.2846 21.9313 97.6178 20.8523 98.3142 19.7158C98.7223 19.0488 99.2614 18.4922 99.9318 18.0476C100.601 17.6018 101.344 17.3009 102.159 17.1436C102.974 16.9859 103.833 16.9916 104.735 17.1585C105.635 17.3269 106.528 17.6815 107.412 18.2224C108.151 18.6756 108.762 19.2172 109.243 19.8469C109.725 20.4769 110.088 21.108 110.332 21.7417C110.577 22.3751 110.701 22.9715 110.705 23.532C110.709 24.0922 110.605 24.544 110.396 24.8861C110.064 25.4274 109.608 25.7675 109.026 25.9071C108.445 26.0475 107.884 25.9509 107.343 25.6187C106.803 25.2881 106.462 24.8313 106.322 24.2501C106.183 23.669 106.278 23.1079 106.61 22.5663C106.941 22.0256 107.397 21.6852 107.979 21.5457C108.561 21.4061 109.122 21.5021 109.663 21.8341C109.735 21.8784 109.802 21.9304 109.863 21.9937C109.924 22.0548 109.984 22.118 110.045 22.1796C110.107 22.2421 110.177 22.3098 110.256 22.3827C110.116 21.9248 109.913 21.4657 109.649 21.0061C109.427 20.5984 109.125 20.1715 108.741 19.7254C108.358 19.2794 107.859 18.8685 107.246 18.4928C106.633 18.1177 106.02 17.873 105.409 17.758C104.796 17.6433 104.224 17.6275 103.69 17.7094C103.156 17.7922 102.668 17.9705 102.227 18.2453C101.786 18.5208 101.444 18.8567 101.201 19.2537C100.649 20.154 100.432 21.0442 100.551 21.9237C100.67 22.802 100.954 23.6828 101.405 24.566C101.855 25.4499 102.382 26.3497 102.987 27.2654C103.592 28.1813 104.094 29.1221 104.495 30.0857C104.896 31.0511 105.109 32.0489 105.133 33.0809C105.158 34.1132 104.829 35.1882 104.144 36.3064C103.691 37.0455 103.114 37.6528 102.413 38.128C101.713 38.6043 100.943 38.9199 100.104 39.0753C99.2648 39.2307 98.3738 39.2177 97.4307 39.036C96.4874 38.8558 95.5472 38.4781 94.6098 37.9037C94.1404 37.6161 93.722 37.3062 93.3544 36.9759C92.9869 37.3062 92.5685 37.6167 92.0995 37.9037C91.1621 38.4781 90.2214 38.8558 89.2792 39.036C88.3353 39.2177 87.4443 39.2307 86.6057 39.0753C85.7664 38.9199 84.9969 38.6043 84.2959 38.128C83.5947 37.6528 83.0184 37.0455 82.5653 36.3064C81.8807 35.1882 81.5508 34.1132 81.5759 33.0809C81.6 32.0489 81.8132 31.0511 82.2141 30.0857C82.6147 29.1221 83.1184 28.1813 83.7225 27.2654C84.3268 26.3497 84.8539 25.4499 85.3045 24.566C85.7551 23.6828 86.0399 22.802 86.1588 21.9237C86.2775 21.0442 86.0608 20.154 85.5079 19.2537C85.265 18.8567 84.9234 18.5208 84.4819 18.2453C84.0405 17.9705 83.5532 17.7922 83.019 17.7094C82.4848 17.6275 81.9121 17.6433 81.301 17.758C80.6891 17.873 80.0763 18.1177 79.4633 18.4928C78.8505 18.8685 78.3513 19.2794 77.9677 19.7254C77.584 20.1715 77.282 20.5984 77.061 21.0061C76.7972 21.4657 76.5943 21.9248 76.4534 22.3827C76.5322 22.3098 76.6026 22.2421 76.6636 22.1796C76.7249 22.118 76.7862 22.0548 76.8467 21.9937C76.9082 21.9304 76.9741 21.8784 77.0464 21.8341C77.5874 21.5021 78.1487 21.4061 78.7299 21.5457C79.311 21.6852 79.7681 22.0256 80.0992 22.5663C80.4315 23.1079 80.5272 23.669 80.3868 24.2501C80.2473 24.8313 79.9071 25.2881 79.3661 25.6187C78.8253 25.9509 78.2637 26.0475 77.6826 25.9071C77.1012 25.7675 76.6444 25.4274 76.3136 24.8861C76.1033 24.544 76.0008 24.0922 76.0039 23.532C76.0081 22.9715 76.1327 22.3751 76.3768 21.7417C76.6209 21.108 76.9839 20.4769 77.4659 19.8469C77.9479 19.2172 78.5584 18.6756 79.298 18.2224C80.1806 17.6815 81.0739 17.3269 81.9751 17.1585C82.8766 16.9916 83.7349 16.9859 84.5505 17.1436C85.3664 17.3009 86.1085 17.6018 86.7781 18.0476C87.4476 18.4922 87.9872 19.0488 88.3949 19.7158C89.0913 20.8523 89.4244 21.9313 89.3936 22.9546C89.3634 23.977 89.1475 24.9708 88.7463 25.9356C88.346 26.9002 87.8435 27.8398 87.2386 28.7568C86.6343 29.6719 86.1071 30.5719 85.6568 31.4556C85.2059 32.3385 84.9222 33.2199 84.8022 34.0985C84.6838 34.9777 84.9002 35.8676 85.4531 36.7685C85.7399 37.2375 86.1122 37.6232 86.5707 37.9249C87.0281 38.2272 87.5414 38.4274 88.1096 38.5252C88.6786 38.6236 89.2913 38.6015 89.9476 38.4588C90.6047 38.3176 91.2667 38.0418 91.9339 37.6333C92.3744 37.3638 92.7696 37.07 93.1188 36.7539C91.6669 35.3165 90.4189 33.6917 90.4189 31.544C90.4189 28.0912 93.2072 23.9812 93.2152 23.9705L93.3544 23.7623L93.4946 23.9705C93.5016 23.9812 96.2903 28.0912 96.2903 31.544C96.2903 33.6903 95.0438 35.3184 93.5904 36.7539C93.941 37.07 94.3356 37.3638 94.776 37.6333ZM118.66 31.0889C116.329 33.0973 113.71 32.0506 113.71 32.0506C113.71 32.0506 113.061 29.306 115.392 27.2965C117.723 25.2879 122.151 24.7762 122.151 24.7762C122.151 24.7762 120.991 29.08 118.66 31.0889Z" fill="#FEFEFE"/>
<path fill-rule="evenodd" clip-rule="evenodd" d="M124.339 112.715L125.944 117.687L131.169 117.677L126.936 120.74L128.56 125.706L124.339 122.627L120.118 125.706L121.742 120.74L117.509 117.677L122.734 117.687L124.339 112.715ZM61.693 112.715L63.298 117.687L68.5228 117.677L64.2899 120.74L65.9141 125.706L61.693 122.627L57.472 125.706L59.0961 120.74L54.8633 117.677L60.088 117.687L61.693 112.715ZM108.678 112.715L110.283 117.687L115.507 117.677L111.275 120.74L112.899 125.706L108.678 122.627L104.457 125.706L106.081 120.74L101.848 117.677L107.073 117.687L108.678 112.715ZM77.3546 112.715L78.9596 117.687L84.1843 117.677L79.9515 120.74L81.5756 125.706L77.3546 122.627L73.1335 125.706L74.7577 120.74L70.5248 117.677L75.7495 117.687L77.3546 112.715ZM93.0161 112.715L94.6211 117.687L99.8458 117.677L95.613 120.74L97.2372 125.706L93.0161 122.627L88.7951 125.706L90.4192 120.74L86.1864 117.677L91.4111 117.687L93.0161 112.715Z" fill="url(#paint1_linear_2_2806)"/>
<path fill-rule="evenodd" clip-rule="evenodd" d="M33.082 163.687H58.3192V163.109H33.082V163.687Z" fill="#2B2A29"/>
<path d="M66.1665 158.635H66.5898V161.003H68.4882V161.576H66.5898V165.321C66.5898 165.646 66.6668 165.894 66.8186 166.066C66.9704 166.238 67.1649 166.325 67.4 166.325C67.6801 166.325 67.9195 166.193 68.1163 165.93C68.315 165.669 68.4305 165.236 68.4625 164.631H68.8858C68.8602 165.408 68.6827 165.983 68.3535 166.358C68.0243 166.734 67.5967 166.923 67.0708 166.923C66.5877 166.923 66.2093 166.791 65.9356 166.528C65.662 166.265 65.5252 165.919 65.5252 165.491V161.576H64.499V161.141C64.9693 161.062 65.3285 160.869 65.5744 160.564C65.94 160.105 66.1366 159.462 66.1665 158.635ZM72.2073 161.003L74.3238 160.901V163.252C74.5504 162.478 74.8219 161.894 75.1382 161.497C75.4568 161.101 75.848 160.901 76.3162 160.901C76.6348 160.901 76.8891 160.997 77.0794 161.19C77.2697 161.381 77.3638 161.639 77.3638 161.96C77.3638 162.221 77.2996 162.425 77.1735 162.569C77.0452 162.713 76.887 162.785 76.6946 162.785C76.5065 162.785 76.3547 162.724 76.2393 162.599C76.1259 162.475 76.0682 162.308 76.0682 162.096C76.0682 161.96 76.1003 161.833 76.1665 161.712C76.2285 161.603 76.2606 161.54 76.2606 161.519C76.2606 161.457 76.22 161.425 76.1409 161.425C75.9699 161.425 75.7775 161.525 75.5594 161.724C75.2602 162.002 75.0292 162.384 74.8667 162.868C74.6166 163.623 74.4905 164.226 74.4905 164.678V165.928C74.4905 166.068 74.5397 166.176 74.6402 166.25C74.7406 166.325 74.9137 166.363 75.1553 166.363H75.9014V166.834H72.2458V166.363H72.8294C73.0261 166.363 73.1758 166.325 73.2762 166.248C73.3767 166.172 73.4259 166.078 73.4259 165.97V162.263C73.4259 161.981 73.366 161.775 73.2442 161.644C73.1224 161.514 72.9492 161.448 72.7225 161.448H72.2073V161.003ZM86.8956 166.184L87.12 166.533C86.8122 166.844 86.4723 166.999 86.0982 166.999C85.8117 166.999 85.5723 166.923 85.3756 166.77C85.1811 166.615 85.0101 166.348 84.8625 165.962C84.4671 166.375 84.1207 166.651 83.8215 166.791C83.5221 166.929 83.163 166.999 82.744 166.999C82.1454 166.999 81.69 166.87 81.3801 166.613C81.068 166.356 80.9119 166.028 80.9119 165.626C80.9119 165.022 81.2689 164.519 81.9808 164.118C82.6927 163.719 83.6398 163.452 84.8241 163.32V162.444C84.8241 162.132 84.698 161.864 84.4435 161.642C84.1891 161.419 83.8663 161.308 83.4752 161.308C83.1138 161.308 82.8017 161.383 82.5387 161.533C82.3527 161.644 82.2586 161.754 82.2586 161.862C82.2586 161.924 82.31 162.021 82.4106 162.155C82.5324 162.321 82.5922 162.467 82.5922 162.596C82.5922 162.783 82.5324 162.936 82.4106 163.053C82.2908 163.171 82.1326 163.231 81.9381 163.231C81.7285 163.231 81.5554 163.161 81.4164 163.019C81.2775 162.879 81.2068 162.696 81.2068 162.478C81.2068 162.066 81.4399 161.688 81.906 161.349C82.372 161.007 82.9834 160.837 83.7381 160.837C84.4371 160.837 84.9694 160.986 85.3372 161.285C85.7048 161.586 85.8887 161.953 85.8887 162.384V165.563C85.8887 165.843 85.9336 166.051 86.0255 166.182C86.1175 166.32 86.2371 166.388 86.3825 166.388C86.5451 166.388 86.716 166.32 86.8956 166.184ZM84.8241 163.727C83.7701 163.872 83.0241 164.109 82.5837 164.436C82.2566 164.686 82.092 165.039 82.092 165.495C82.092 165.815 82.1774 166.064 82.3464 166.244C82.5173 166.424 82.7397 166.516 83.0133 166.516C83.5029 166.516 83.9262 166.329 84.2854 165.957C84.6445 165.586 84.8241 165.121 84.8241 164.561V163.727ZM92.0813 157.527C92.2694 157.527 92.4341 157.597 92.5751 157.739C92.7184 157.88 92.7889 158.045 92.7889 158.236C92.7889 158.423 92.7205 158.586 92.5816 158.722C92.4447 158.86 92.2779 158.928 92.0877 158.928C91.8954 158.928 91.7285 158.858 91.5874 158.72C91.4485 158.58 91.378 158.416 91.378 158.23C91.378 158.043 91.4485 157.88 91.5917 157.739C91.7329 157.597 91.8974 157.527 92.0813 157.527ZM90.4415 161.003L92.7889 160.939V165.947C92.7889 166.083 92.8231 166.18 92.8893 166.238C92.9856 166.32 93.1075 166.363 93.2528 166.363H93.9177V166.834H90.5698V166.363H91.1919C91.3758 166.363 91.5105 166.318 91.596 166.229C91.6815 166.14 91.7243 166.011 91.7243 165.841V162.176C91.7243 161.945 91.6581 161.769 91.5233 161.65C91.3887 161.533 91.1898 161.474 90.9269 161.474H90.4415V161.003ZM97.2883 160.99L99.238 160.888C99.3192 161.253 99.3791 161.682 99.4176 162.172C99.6806 161.748 99.9906 161.432 100.348 161.219C100.705 161.007 101.109 160.901 101.56 160.901C101.947 160.901 102.274 160.977 102.537 161.128C102.8 161.279 103.009 161.519 103.169 161.845C103.328 162.172 103.407 162.539 103.407 162.944V165.779C103.407 165.989 103.454 166.14 103.55 166.229C103.646 166.318 103.807 166.363 104.033 166.363H104.446V166.834H101.355V166.363H101.647C101.921 166.363 102.111 166.32 102.218 166.233C102.327 166.146 102.381 166.015 102.381 165.841V163.352C102.381 162.809 102.297 162.408 102.131 162.147C101.897 161.775 101.543 161.589 101.068 161.589C100.598 161.589 100.204 161.777 99.89 162.153C99.5758 162.531 99.4176 163.021 99.4176 163.626V165.779C99.4176 165.989 99.4668 166.14 99.5651 166.229C99.6634 166.318 99.8238 166.363 100.05 166.363H100.457V166.834H97.3525V166.363H97.7566C97.9596 166.363 98.1136 166.32 98.2204 166.238C98.3252 166.155 98.3786 166.051 98.3786 165.926V162.157C98.3786 161.909 98.3102 161.72 98.1756 161.591C98.0387 161.461 97.8442 161.398 97.5898 161.398H97.2883V160.99ZM113.317 163.957H109.123C109.144 164.843 109.311 165.472 109.623 165.837C109.982 166.246 110.437 166.452 110.993 166.452C111.81 166.452 112.466 165.989 112.962 165.064L113.368 165.238C112.759 166.412 111.878 166.999 110.728 166.999C109.944 166.999 109.283 166.717 108.746 166.155C108.21 165.593 107.943 164.873 107.943 163.997C107.943 163.053 108.206 162.291 108.734 161.709C109.262 161.128 109.911 160.837 110.683 160.837C111.25 160.837 111.739 160.982 112.154 161.272C112.567 161.561 112.877 161.977 113.086 162.518C113.232 162.898 113.308 163.377 113.317 163.957ZM109.123 163.511H111.662C111.812 163.511 111.93 163.46 112.013 163.358C112.096 163.258 112.137 163.087 112.137 162.843C112.137 162.388 111.994 162.002 111.709 161.684C111.423 161.366 111.087 161.207 110.698 161.207C110.264 161.207 109.897 161.398 109.595 161.782C109.294 162.166 109.135 162.743 109.123 163.511ZM116.842 161.003L118.958 160.901V163.252C119.185 162.478 119.456 161.894 119.773 161.497C120.091 161.101 120.482 160.901 120.951 160.901C121.269 160.901 121.523 160.997 121.714 161.19C121.904 161.381 121.998 161.639 121.998 161.96C121.998 162.221 121.934 162.425 121.808 162.569C121.679 162.713 121.521 162.785 121.329 162.785C121.141 162.785 120.989 162.724 120.874 162.599C120.76 162.475 120.702 162.308 120.702 162.096C120.702 161.96 120.735 161.833 120.801 161.712C120.863 161.603 120.895 161.54 120.895 161.519C120.895 161.457 120.854 161.425 120.775 161.425C120.604 161.425 120.412 161.525 120.194 161.724C119.894 162.002 119.663 162.384 119.501 162.868C119.251 163.623 119.125 164.226 119.125 164.678V165.928C119.125 166.068 119.174 166.176 119.274 166.25C119.375 166.325 119.548 166.363 119.79 166.363H120.536V166.834H116.88V166.363H117.464C117.66 166.363 117.81 166.325 117.91 166.248C118.011 166.172 118.06 166.078 118.06 165.97V162.263C118.06 161.981 118 161.775 117.878 161.644C117.757 161.514 117.584 161.448 117.357 161.448H116.842V161.003Z" fill="#2B2A29"/>
<path fill-rule="evenodd" clip-rule="evenodd" d="M127.833 163.718H153.07V163.141H127.833V163.718Z" fill="#2B2A29"/>
<path fill-rule="evenodd" clip-rule="evenodd" d="M74.6909 150.971V133.809C74.6909 133.789 74.6881 133.773 74.683 133.76C74.6774 133.747 74.6667 133.732 74.6517 133.717C74.6384 133.705 74.624 133.695 74.6093 133.69C74.5901 133.682 74.5644 133.678 74.5336 133.678H70.6098C70.8138 133.973 70.9691 134.311 71.0743 134.691C71.1861 135.094 71.242 135.541 71.242 136.029L71.244 150.989C71.2496 151 71.2624 151.017 71.2819 151.036L71.328 151.073L74.5336 151.076C74.565 151.076 74.5903 151.072 74.6096 151.065C74.6251 151.058 74.6398 151.049 74.6511 151.037L74.6881 150.99L74.6909 150.971ZM65.0163 133.678H61.9081C61.877 133.678 61.8519 133.682 61.8327 133.69C61.8168 133.696 61.8024 133.705 61.7905 133.716C61.7748 133.732 61.7635 133.747 61.7576 133.76L61.7508 133.809V140.47C61.7508 140.749 61.6505 140.989 61.451 141.189C61.3597 141.28 61.2555 141.352 61.1389 141.404C61.0178 141.46 60.8905 141.488 60.7586 141.488H55.0118C54.7039 141.488 54.4593 141.394 54.2801 141.206C54.1074 141.025 54.0199 140.779 54.0199 140.47V133.809C54.0199 133.789 54.0172 133.772 54.0126 133.76C54.008 133.749 53.9968 133.734 53.9801 133.718C53.9674 133.705 53.953 133.695 53.9381 133.69C53.9189 133.682 53.8936 133.678 53.8626 133.678H49.9648C50.1691 133.973 50.3243 134.311 50.4294 134.691C50.5412 135.094 50.5972 135.541 50.5972 136.029L50.5987 150.989L50.6372 151.036L50.6832 151.073L53.8626 151.076C53.8941 151.076 53.9195 151.072 53.9386 151.065C53.954 151.058 53.9688 151.049 53.9801 151.037C53.9989 151.018 54.0115 151.002 54.0176 150.988L54.0199 143.918C54.0199 143.239 54.3504 142.9 55.0118 142.9H60.7586C60.8885 142.9 61.0154 142.927 61.1378 142.982C61.2532 143.033 61.3586 143.107 61.451 143.199C61.5465 143.295 61.6202 143.405 61.6716 143.528C61.7239 143.653 61.7508 143.783 61.7508 143.918L61.7522 150.989L61.7905 151.036C61.8033 151.049 61.818 151.059 61.8327 151.064C61.851 151.072 61.8767 151.076 61.9081 151.076H65.0163C65.0477 151.076 65.0731 151.072 65.092 151.065C65.1078 151.058 65.1225 151.049 65.1338 151.037C65.1525 151.018 65.1649 151.002 65.1714 150.988L65.1736 133.809C65.1736 133.789 65.1706 133.772 65.1658 133.76C65.1615 133.749 65.1502 133.734 65.1338 133.718C65.1209 133.705 65.1064 133.695 65.0917 133.69C65.0726 133.682 65.0468 133.678 65.0163 133.678ZM86.8845 133.678V137.154C86.7401 137.161 86.6129 137.208 86.5019 137.294C86.3873 137.384 86.3067 137.506 86.2635 137.657L84.1074 143.451L84.1054 143.454C84.0486 143.61 84.0201 143.752 84.0201 143.878C84.0201 144.033 84.0608 144.173 84.1415 144.293C84.2258 144.418 84.3436 144.508 84.4939 144.563C84.6026 144.603 84.7252 144.623 84.8606 144.623H86.8845V146.06H83.8681C83.6361 146.06 83.4344 146.121 83.2657 146.242C83.0963 146.362 82.9743 146.535 82.9005 146.755L81.443 150.815C81.4057 150.912 81.3588 150.981 81.3017 151.02C81.249 151.057 81.1724 151.076 81.0732 151.076H79.1301L84.8063 136.182C85.0162 135.61 85.1216 135.114 85.1216 134.697C85.1216 134.51 85.1023 134.33 85.0651 134.16C85.0289 133.994 84.9733 133.835 84.9001 133.683L84.8981 133.678H86.8845ZM34.0967 145.651L33.0263 147.616C33.0094 147.644 33.0006 147.675 33 147.707V147.712L33.0001 147.716C33.0026 147.775 33.0239 147.845 33.0645 147.926L33.0698 147.932C33.3115 148.44 33.6306 148.903 34.025 149.317C34.4248 149.737 34.9059 150.114 35.4677 150.446C36.027 150.777 36.6358 151.025 37.2925 151.191C37.9541 151.358 38.6687 151.442 39.4348 151.442C41.2545 151.442 42.6921 150.958 43.747 149.992C44.2705 149.513 44.6633 148.972 44.9231 148.373C45.1826 147.774 45.3126 147.107 45.3126 146.373C45.3126 145.595 45.1759 144.877 44.903 144.218C44.7673 143.889 44.6026 143.58 44.4106 143.291C44.2208 143.005 44.0031 142.738 43.7584 142.494C43.495 142.232 43.2405 141.996 42.9951 141.788C42.7457 141.576 42.4974 141.383 42.2509 141.212C41.996 141.035 41.729 140.863 41.4508 140.696C41.1732 140.529 40.8746 140.361 40.5558 140.193L40.387 140.114L40.1602 139.994C39.807 139.813 39.4947 139.65 39.2249 139.506C38.9342 139.349 38.6983 139.22 38.5207 139.116C38.3138 138.996 38.1161 138.859 37.9292 138.709C37.7417 138.557 37.5636 138.39 37.3983 138.21C37.2134 138.009 37.0722 137.798 36.9757 137.578C36.8743 137.346 36.8232 137.108 36.8232 136.865C36.8232 136.544 36.8825 136.251 37.0002 135.987C37.1207 135.718 37.3002 135.486 37.5365 135.295C37.7665 135.109 38.0364 134.97 38.3436 134.88C38.6408 134.794 38.9694 134.75 39.3303 134.75C39.7342 134.75 40.1191 134.802 40.4816 134.905C40.8492 135.009 41.1907 135.165 41.5057 135.371C41.804 135.567 42.0729 135.778 42.3108 136.001C42.5492 136.225 42.7563 136.464 42.9308 136.716C42.9564 136.751 42.9807 136.776 43.0035 136.79L43.0336 136.801L43.9513 135.277C44.0016 135.169 44.0249 135.081 44.0214 135.017C44.0196 134.987 44.005 134.958 43.9797 134.933C43.4186 134.396 42.7495 133.993 41.9753 133.724C41.1849 133.449 40.277 133.312 39.2519 133.312C38.4861 133.312 37.782 133.413 37.1403 133.615C36.505 133.815 35.9261 134.115 35.4066 134.513C34.8983 134.903 34.5166 135.352 34.2627 135.858C34.0089 136.364 33.8773 136.936 33.8687 137.571C33.8704 137.949 33.9012 138.304 33.9634 138.637C34.0247 138.969 34.1175 139.286 34.2407 139.584C34.3624 139.878 34.5163 140.156 34.7018 140.417C34.8889 140.679 35.1074 140.924 35.3558 141.148C35.883 141.625 36.3985 142.024 36.9016 142.342C37.1575 142.505 37.4438 142.672 37.7588 142.844C38.0847 143.022 38.4386 143.205 38.8191 143.391C40.0202 143.981 40.909 144.524 41.4858 145.018C41.8111 145.298 42.0562 145.622 42.2203 145.993C42.382 146.362 42.4643 146.768 42.4643 147.209C42.4643 147.625 42.3911 148.004 42.2448 148.346C42.097 148.692 41.8749 148.995 41.5803 149.253C41.2894 149.507 40.941 149.698 40.538 149.823C40.1494 149.943 39.7115 150.003 39.2258 150.003C37.9992 150.003 36.8994 149.569 35.9273 148.702C35.4512 148.277 35.059 147.808 34.752 147.296C34.4484 146.789 34.2296 146.24 34.0967 145.651ZM122.885 150.971V133.809C122.885 133.789 122.882 133.773 122.877 133.76C122.872 133.747 122.861 133.732 122.846 133.717C122.833 133.705 122.818 133.695 122.804 133.69C122.784 133.682 122.759 133.678 122.728 133.678H118.804C119.008 133.973 119.163 134.311 119.269 134.691C119.38 135.094 119.436 135.541 119.436 136.029L119.438 150.989C119.444 151 119.457 151.017 119.476 151.036L119.522 151.073L122.728 151.076C122.76 151.076 122.785 151.072 122.804 151.065C122.819 151.058 122.834 151.049 122.845 151.037L122.883 150.99L122.885 150.971ZM100.437 136.029L100.439 150.989L100.477 151.036L100.523 151.073L103.703 151.076C103.734 151.076 103.76 151.072 103.779 151.065C103.794 151.058 103.809 151.049 103.82 151.037L103.857 150.99L103.86 145.015C103.86 144.797 103.89 144.598 103.948 144.416C104.011 144.22 104.108 144.05 104.237 143.907L104.499 143.62C104.904 143.144 105.305 143.163 105.698 143.674L110.928 150.68C111.134 150.943 111.478 151.076 111.957 151.076H115.197L107.771 141.346C107.398 140.879 107.409 140.447 107.804 140.052L113.774 133.678H111.696C111.485 133.678 111.302 133.712 111.145 133.778C110.995 133.844 110.863 133.941 110.752 134.071C108.912 136.217 106.84 138.253 104.983 140.392C104.895 140.48 104.802 140.547 104.706 140.589C104.553 140.658 104.402 140.665 104.254 140.61C104.101 140.553 103.989 140.444 103.922 140.286L103.921 140.282C103.881 140.186 103.86 140.074 103.86 139.948V133.809C103.86 133.789 103.857 133.773 103.852 133.76C103.846 133.747 103.836 133.732 103.821 133.717C103.808 133.705 103.793 133.695 103.778 133.69C103.759 133.682 103.734 133.678 103.703 133.678H99.8052C100.009 133.973 100.164 134.311 100.269 134.691C100.381 135.094 100.437 135.541 100.437 136.029ZM86.8845 146.06V144.623H88.857C89.661 144.623 89.9212 144.233 89.6378 143.454L87.5591 137.658C87.5181 137.515 87.4472 137.398 87.3459 137.31C87.2269 137.206 87.0862 137.153 86.9241 137.153L86.8845 137.154V133.678H89.092C89.207 133.678 89.296 133.7 89.3565 133.743C89.4198 133.789 89.4717 133.869 89.5107 133.981L95.9988 151.076H92.6183C92.5195 151.076 92.4429 151.057 92.3884 151.02C92.333 150.981 92.2864 150.912 92.2477 150.813L90.7913 146.755C90.6365 146.293 90.2794 146.06 89.7189 146.06H86.8845ZM136.921 133.714V135.304C136.427 135.179 135.905 135.116 135.353 135.116H133.29C133.154 135.116 133.024 135.143 132.899 135.195C132.777 135.248 132.667 135.327 132.573 135.431C132.481 135.531 132.412 135.644 132.365 135.769C132.321 135.892 132.298 136.022 132.298 136.16V148.62C132.298 148.759 132.321 148.889 132.367 149.01C132.417 149.142 132.49 149.257 132.586 149.35C132.777 149.542 133.012 149.638 133.29 149.638H135.353C135.905 149.638 136.427 149.575 136.921 149.45V151.04C136.622 151.064 136.317 151.076 136.007 151.076L128.961 151.073L128.915 151.036L128.877 150.989L128.875 136.029C128.875 135.541 128.819 135.094 128.707 134.691C128.602 134.311 128.447 133.973 128.243 133.678H136.007C136.317 133.678 136.622 133.69 136.921 133.714ZM153.152 150.971V133.809V133.806C153.151 133.787 153.149 133.772 153.143 133.76C153.138 133.747 153.128 133.732 153.113 133.717C153.099 133.705 153.084 133.695 153.07 133.69C153.051 133.682 153.025 133.678 152.995 133.678H149.07C149.275 133.973 149.43 134.311 149.535 134.691C149.647 135.094 149.703 135.541 149.703 136.029L149.705 150.989C149.71 151 149.723 151.017 149.742 151.036L149.788 151.073L152.995 151.076C153.026 151.076 153.051 151.072 153.07 151.065C153.086 151.058 153.101 151.049 153.112 151.037L153.149 150.99L153.152 150.971ZM136.921 151.04V149.45C137.239 149.369 137.544 149.263 137.838 149.131C138.586 148.793 139.251 148.288 139.829 147.616C140.403 146.95 140.833 146.175 141.12 145.29C141.402 144.42 141.543 143.448 141.543 142.377C141.543 141.306 141.402 140.334 141.12 139.462C140.834 138.581 140.404 137.806 139.829 137.139C139.251 136.466 138.587 135.961 137.838 135.623C137.544 135.49 137.239 135.384 136.921 135.304V133.714C139.154 133.89 141.05 134.725 142.609 136.218C143.492 137.063 144.154 137.998 144.595 139.019C145.034 140.038 145.254 141.149 145.254 142.351C145.254 143.572 145.034 144.696 144.595 145.724C144.155 146.752 143.492 147.69 142.609 148.536C141.05 150.029 139.154 150.864 136.921 151.04Z" fill="#2B2A29"/>
<defs>
<linearGradient id="paint0_linear_2_2806" x1="123.784" y1="94.9563" x2="62.9239" y2="9.75181" gradientUnits="userSpaceOnUse">
<stop stop-color="#DBC175"/>
<stop offset="0.227451" stop-color="#C9A550"/>
<stop offset="0.458824" stop-color="#EDDA8D"/>
<stop offset="1" stop-color="#B7892B"/>
</linearGradient>
<linearGradient id="paint1_linear_2_2806" x1="128.136" y1="182.015" x2="92.7674" y2="104.177" gradientUnits="userSpaceOnUse">
<stop stop-color="#DBC175"/>
<stop offset="0.227451" stop-color="#C9A550"/>
<stop offset="0.458824" stop-color="#EDDA8D"/>
<stop offset="1" stop-color="#B7892B"/>
</linearGradient>
</defs>
</svg>
