<svg width="152" height="62" fill="none" xmlns="http://www.w3.org/2000/svg"><g clip-path="url(#clip0_785_7891)" fill="#fff"><path fill-rule="evenodd" clip-rule="evenodd" d="M47.597 16.921c-1.54 1.332-3.266.636-3.266.636s-.426-1.82 1.11-3.146c1.54-1.331 4.461-1.671 4.461-1.671s-.764 2.85-2.305 4.181zm-19.82 20.051h-.316v-3.978h.317c.393 2.208 1.54 3.31 3.44 3.31.656 0 1.202-.176 1.639-.532.437-.356.655-.811.655-1.37 0-.63-.322-1.184-.961-1.677a88.053 88.053 0 01-3.741-2.29c-.978-.642-1.458-1.491-1.458-2.543 0-.872.322-1.6.977-2.176.65-.586 1.453-.877 2.409-.877.622 0 1.272.149 1.955.45.322.148.546.22.677.22.3 0 .492-.226.59-.67h.311v4.017h-.311c-.17-1.183-.557-2.038-1.158-2.553-.606-.52-1.289-.773-2.037-.773-.563 0-1.043.175-1.447.52-.405.34-.607.762-.607 1.255 0 .324.137.663.41 1.025.273.362 1.098.915 2.474 1.655.841.455 1.48.828 1.917 1.118a3.8 3.8 0 011.087 1.14c.29.466.437.97.437 1.512 0 .926-.35 1.694-1.049 2.307-.699.614-1.562.921-2.583.921-.557 0-1.245-.137-2.064-.405-.503-.17-.852-.253-1.044-.253-.284-.01-.453.203-.518.647zm4.058-15.722c.443.269.88.455 1.311.548.432.093.836.11 1.213.044a2.584 2.584 0 001.015-.4c.3-.197.547-.455.738-.767.366-.598.508-1.184.431-1.77a5.443 5.443 0 00-.562-1.748 17.567 17.567 0 00-1.043-1.787 11.007 11.007 0 01-.994-1.868 5.657 5.657 0 01-.426-1.973c-.022-.68.202-1.392.66-2.143a3.485 3.485 0 011.065-1.107 3.983 3.983 0 011.47-.597 4.545 4.545 0 011.698.01c.596.11 1.185.346 1.764.708.486.301.89.657 1.207 1.074.317.416.557.833.721 1.255.164.422.246.816.246 1.183 0 .373-.066.669-.202.899-.219.356-.519.586-.901.674-.383.093-.754.027-1.109-.192s-.584-.52-.672-.904a1.422 1.422 0 01.191-1.112c.219-.356.52-.587.901-.674.383-.094.754-.028 1.11.191a.61.61 0 01.13.104l.12.121c.039.044.088.088.137.137a4.395 4.395 0 00-.399-.91 4.916 4.916 0 00-.6-.849 4.062 4.062 0 00-.989-.816 3.637 3.637 0 00-1.213-.488 3.331 3.331 0 00-1.136-.033 2.606 2.606 0 00-.966.356c-.29.181-.519.406-.677.669-.366.597-.508 1.183-.432 1.77a5.46 5.46 0 00.563 1.748 17.45 17.45 0 001.043 1.786 11 11 0 01.994 1.869 5.54 5.54 0 01.42 1.984c.017.685-.202 1.397-.655 2.137a3.86 3.86 0 01-1.142 1.205 3.873 3.873 0 01-1.523.625 4.676 4.676 0 01-1.764-.027 5.502 5.502 0 01-1.863-.751 5.835 5.835 0 01-.83-.614c-.24.22-.519.422-.83.614-.617.378-1.24.63-1.862.75a4.792 4.792 0 01-1.765.028 4.044 4.044 0 01-1.523-.625 3.878 3.878 0 01-1.142-1.205c-.453-.74-.672-1.452-.655-2.137a5.54 5.54 0 01.42-1.984c.263-.636.596-1.26.994-1.869.4-.608.749-1.2 1.044-1.786a5.482 5.482 0 00.562-1.748c.077-.581-.065-1.173-.431-1.77a2.031 2.031 0 00-.678-.669 2.536 2.536 0 00-.966-.356 3.331 3.331 0 00-1.136.033 3.524 3.524 0 00-1.213.488c-.404.246-.732.52-.988.816a5.004 5.004 0 00-.601.85 4.527 4.527 0 00-.399.91c.055-.05.099-.094.137-.138l.12-.12a.478.478 0 01.131-.105 1.425 1.425 0 012.01.482c.218.357.284.73.191 1.113a1.429 1.429 0 01-.672.904c-.355.22-.726.285-1.108.192a1.425 1.425 0 01-.901-.674c-.137-.225-.208-.526-.203-.899.006-.372.088-.767.246-1.183.159-.422.399-.839.721-1.255A4.33 4.33 0 0121.595 8.4a5.367 5.367 0 011.764-.707 4.545 4.545 0 011.699-.011 3.95 3.95 0 011.469.597c.442.296.797.663 1.065 1.107.459.75.677 1.469.66 2.143a5.61 5.61 0 01-.425 1.973c-.263.64-.596 1.26-.994 1.868-.399.608-.748 1.2-1.043 1.787a5.486 5.486 0 00-.563 1.748c-.076.58.066 1.172.431 1.77.192.312.437.564.738.767.3.203.639.334 1.016.4s.78.05 1.212-.044a4.159 4.159 0 001.31-.548c.29-.18.552-.372.782-.58-.956-.954-1.78-2.028-1.78-3.448 0-2.285 1.84-5.008 1.845-5.014l.093-.137.093.137c.006.006 1.846 2.73 1.846 5.014 0 1.42-.825 2.5-1.78 3.447.25.209.513.406.802.581zm-1.425-1.31c.218.192.399.307.486.357.087-.05.268-.17.486-.357 2.065-2.098 1.147-4.899-.486-7.469-1.393 2.192-2.643 5.349-.486 7.47zm2.02-13.562a3.337 3.337 0 00-1.534-2.834 3.337 3.337 0 00-1.535 2.834c0 1.671 1.082 3.616 1.535 4.356.453-.74 1.535-2.685 1.535-4.356zm-1.42-3.316l-.109-.06-.109.06c-.005.006-1.895.987-1.895 3.31 0 2.252 1.802 4.921 1.808 4.927l.197.29.196-.29c.006-.006 1.808-2.675 1.808-4.927-.006-2.318-1.89-3.304-1.895-3.31zM29.58 17.24c0 1.627 1.322 2.312 1.322 2.312s1.321-.69 1.321-2.312c0-1.628-1.322-3.579-1.322-3.579s-1.321 1.951-1.321 3.579zm2.01 5.102c0-.855-.694-1.211-.694-1.211s-.694.361-.694 1.21c0 .85.694 1.875.694 1.875s.694-1.02.694-1.874zm-1.633 18.407a4.289 4.289 0 00-1.311-.548 3.154 3.154 0 00-1.213-.044 2.584 2.584 0 00-1.015.4 2.48 2.48 0 00-.738.767c-.366.597-.508 1.184-.431 1.77a5.45 5.45 0 00.562 1.748c.295.587.645 1.178 1.044 1.787.398.608.731 1.227.994 1.868.262.642.404 1.3.425 1.973.022.68-.202 1.392-.66 2.143a3.544 3.544 0 01-1.065 1.107 3.982 3.982 0 01-1.47.597 4.545 4.545 0 01-1.698-.01 5.147 5.147 0 01-1.764-.702 4.418 4.418 0 01-1.207-1.074 5.173 5.173 0 01-.721-1.255 3.28 3.28 0 01-.246-1.184c0-.373.066-.669.202-.899.219-.356.52-.58.902-.674.382-.093.753-.027 1.108.192.355.22.584.52.672.904.093.384.027.757-.191 1.113-.219.356-.52.58-.901.674-.383.093-.754.027-1.11-.192a.613.613 0 01-.13-.104c-.038-.038-.082-.082-.12-.126-.038-.044-.088-.088-.137-.137.093.301.224.608.399.91.147.268.344.553.6.849.252.296.585.57.99.816.403.247.808.411 1.212.488.404.077.78.088 1.136.033.35-.055.671-.17.966-.356.29-.181.52-.406.677-.669.366-.597.509-1.183.432-1.77a5.442 5.442 0 00-.563-1.748 18.186 18.186 0 00-1.043-1.786 11 11 0 01-.994-1.869 5.538 5.538 0 01-.42-1.984c-.017-.685.202-1.397.655-2.137.3-.488.677-.893 1.142-1.206a3.876 3.876 0 011.523-.624 4.678 4.678 0 011.765.027 5.5 5.5 0 011.862.75c.311.193.584.395.83.615.24-.22.519-.422.83-.614.617-.378 1.24-.63 1.863-.75a4.792 4.792 0 011.764-.028 4.04 4.04 0 011.523.624c.465.318.841.718 1.142 1.206.453.74.672 1.452.655 2.137a5.542 5.542 0 01-.42 1.984c-.263.641-.596 1.26-.994 1.869-.399.608-.748 1.2-1.044 1.786a5.482 5.482 0 00-.562 1.748c-.077.581.066 1.173.431 1.77.159.263.388.483.678.669.29.18.611.301.966.356.355.055.732.044 1.136-.033a3.524 3.524 0 001.213-.488c.404-.246.732-.52.988-.816.252-.296.454-.575.601-.85.175-.306.306-.608.399-.91-.055.05-.099.094-.137.138-.038.038-.082.082-.12.126a.478.478 0 01-.13.104 1.425 1.425 0 01-2.01-.482 1.421 1.421 0 01-.192-1.113 1.43 1.43 0 01.672-.904c.355-.22.726-.285 1.108-.192.383.093.683.318.902.674.136.225.207.526.202.899a3.355 3.355 0 01-.246 1.184 5.102 5.102 0 01-.72 1.255 4.332 4.332 0 01-1.208 1.074 5.235 5.235 0 01-1.764.701 4.545 4.545 0 01-1.699.011 3.945 3.945 0 01-1.469-.597 3.484 3.484 0 01-1.065-1.107c-.459-.75-.677-1.469-.66-2.143a5.61 5.61 0 01.425-1.973c.263-.64.596-1.26.994-1.868.4-.608.749-1.2 1.044-1.787a5.483 5.483 0 00.562-1.748c.077-.58-.065-1.173-.431-1.77a2.468 2.468 0 00-.738-.767 2.67 2.67 0 00-1.016-.4 3.154 3.154 0 00-1.212.044 4.159 4.159 0 00-1.31.548c-.29.18-.552.372-.782.58.962.954 1.78 2.028 1.78 3.447 0 2.286-1.84 5.01-1.845 5.015l-.093.137-.093-.137c-.005-.006-1.846-2.73-1.846-5.014 0-1.42.825-2.5 1.78-3.447a6.27 6.27 0 00-.802-.581zm1.425 1.31a3.055 3.055 0 00-.486-.357 3.47 3.47 0 00-.486.356c-2.064 2.1-1.147 4.9.486 7.47 1.393-2.192 2.643-5.349.486-7.47zm-2.02 13.562c0 1.716 1.163 2.598 1.534 2.833a3.337 3.337 0 001.535-2.833c0-1.671-1.082-3.616-1.535-4.356-.448.74-1.535 2.685-1.535 4.356zm1.425 3.316l.11.06.108-.06c.006-.006 1.895-.987 1.895-3.31 0-2.252-1.802-4.921-1.807-4.927l-.197-.29-.197.29c-.005.006-1.807 2.675-1.807 4.927 0 2.318 1.89 3.304 1.895 3.31zm1.43-14.177c0-1.627-1.32-2.318-1.32-2.318s-1.323.69-1.323 2.318c0 1.628 1.322 3.578 1.322 3.578s1.322-1.956 1.322-3.578zm-2.01-5.102c0 .855.694 1.211.694 1.211s.694-.361.694-1.21c0-.856-.694-1.875-.694-1.875s-.693 1.02-.693 1.874zm-9.021-9.6c-.18.29-.372.553-.58.783-.944-.964-2.02-1.786-3.435-1.786-2.277 0-4.992 1.846-4.997 1.852l-.137.093.137.093c.005.006 2.72 1.852 4.997 1.852 1.415 0 2.49-.827 3.436-1.786.207.23.404.493.579.784.267.443.453.882.546 1.315.093.433.109.838.043 1.216a2.602 2.602 0 01-.398 1.02 2.41 2.41 0 01-.765.74c-.595.367-1.18.509-1.764.432a5.396 5.396 0 01-1.742-.564 17.448 17.448 0 01-1.78-1.047c-.607-.4-1.224-.734-1.863-.997a5.374 5.374 0 00-1.966-.428c-.678-.022-1.387.203-2.136.663a3.483 3.483 0 00-1.103 1.069 4.011 4.011 0 00-.595 1.474 4.59 4.59 0 00.01 1.704c.11.598.345 1.19.705 1.77.3.488.656.894 1.07 1.211.416.318.83.56 1.251.724.42.164.814.246 1.18.246.371 0 .666-.065.896-.202a1.429 1.429 0 00.48-2.017 1.424 1.424 0 00-.9-.674c-.383-.093-.755-.027-1.11.192-.354.219-.584.52-.671.904a1.42 1.42 0 00.19 1.112c.028.05.066.094.105.132l.12.12c.043.039.087.088.136.137-.3-.093-.606-.23-.906-.4a4.891 4.891 0 01-.847-.602 4.068 4.068 0 01-.814-.992 3.664 3.664 0 01-.486-1.217 3.364 3.364 0 01-.032-1.14 2.59 2.59 0 01.355-.97c.18-.29.404-.52.666-.68.595-.366 1.18-.509 1.764-.432a5.395 5.395 0 011.742.564c.585.296 1.18.647 1.78 1.047.607.4 1.224.734 1.863.998a5.49 5.49 0 001.977.421c.683.017 1.393-.202 2.13-.657.486-.302.89-.68 1.202-1.145.316-.466.524-.976.622-1.53a4.724 4.724 0 00-.027-1.77 5.588 5.588 0 00-.748-1.868 5.853 5.853 0 00-.612-.833c.218-.241.42-.52.612-.833.377-.62.628-1.244.748-1.869.12-.624.125-1.216.027-1.77a4.073 4.073 0 00-.622-1.528 3.878 3.878 0 00-1.202-1.146c-.737-.455-1.447-.674-2.13-.657a5.49 5.49 0 00-1.977.422c-.634.268-1.256.597-1.862.997-.607.4-1.197.75-1.78 1.047a5.437 5.437 0 01-1.743.564c-.579.077-1.169-.066-1.764-.433a2.032 2.032 0 01-.666-.68c-.18-.29-.3-.613-.355-.97a3.364 3.364 0 01.032-1.14 3.55 3.55 0 01.486-1.216c.246-.405.52-.734.814-.992.295-.252.574-.454.847-.602.306-.176.606-.307.906-.4a1.766 1.766 0 01-.136.137l-.12.12a.479.479 0 00-.104.132 1.428 1.428 0 00.48 2.017 1.424 1.424 0 002.01-.482c.219-.357.284-.73.191-1.113a1.429 1.429 0 00-.671-.905c-.224-.137-.525-.208-.896-.202a3.323 3.323 0 00-1.18.246c-.42.16-.835.4-1.25.724a4.335 4.335 0 00-1.07 1.21 5.407 5.407 0 00-.705 1.77 4.59 4.59 0 00-.011 1.705c.103.542.3 1.03.595 1.474.295.444.66.8 1.103 1.069.748.46 1.464.68 2.136.663a5.556 5.556 0 001.966-.428 10.942 10.942 0 001.862-.997c.607-.4 1.196-.75 1.78-1.047a5.307 5.307 0 011.743-.564c.579-.077 1.169.066 1.764.433.311.192.563.438.765.74.202.3.333.64.398 1.019.066.378.05.783-.043 1.216-.099.46-.279.899-.546 1.337zm-1.311 1.43c-2.114 2.164-5.26.91-7.444-.488 2.561-1.639 5.352-2.56 7.444-.488.19.22.305.4.355.488a3.08 3.08 0 01-.355.488zM6.357 29.459c1.666 0 3.605 1.085 4.342 1.54-.737.455-2.676 1.54-4.342 1.54-1.71 0-2.588-1.167-2.823-1.54.235-.373 1.108-1.54 2.823-1.54zM3.06 30.89c0-.005.983-1.901 3.298-1.901 2.245 0 4.905 1.808 4.91 1.814l.29.197-.29.197c-.005.006-2.665 1.814-4.91 1.814-2.315 0-3.298-1.896-3.298-1.901L3 31l.06-.11zm14.129 1.436C15.566 32.325 13.62 31 13.62 31s1.944-1.32 3.567-1.32c1.622 0 2.304 1.32 2.304 1.32s-.682 1.326-2.304 1.326zm5.084-2.022c.847 0 1.868.696 1.868.696s-1.021.696-1.868.696c-.852 0-1.207-.696-1.207-.696s.355-.696 1.207-.696zm18.34 1.639c.18-.29.371-.554.58-.784.944.964 2.02 1.786 3.434 1.786 2.278 0 4.992-1.846 4.998-1.852L49.76 31l-.136-.093c-.006-.006-2.72-1.852-4.998-1.852-1.414 0-2.49.827-3.435 1.786a5.095 5.095 0 01-.579-.784 4.322 4.322 0 01-.546-1.315 3.183 3.183 0 01-.044-1.216 2.62 2.62 0 01.399-1.02c.202-.301.453-.548.765-.74.595-.367 1.18-.509 1.764-.432a5.396 5.396 0 011.742.564c.584.296 1.174.647 1.78 1.047.607.4 1.224.734 1.863.997a5.609 5.609 0 001.966.428c.677.021 1.387-.203 2.135-.663a3.483 3.483 0 001.104-1.07 4.01 4.01 0 00.595-1.473 4.59 4.59 0 00-.011-1.704 5.093 5.093 0 00-.705-1.77 4.422 4.422 0 00-1.07-1.212 5.15 5.15 0 00-1.25-.723 3.252 3.252 0 00-1.18-.247c-.372 0-.667.066-.896.203a1.429 1.429 0 00-.48 2.017c.218.356.518.586.9.674.383.093.754.027 1.11-.192a1.428 1.428 0 00.48-2.017.614.614 0 00-.104-.131c-.044-.038-.082-.082-.126-.12-.043-.039-.087-.088-.136-.138.3.094.606.225.906.4.268.148.552.346.847.603.295.252.568.587.814.992.245.406.41.811.486 1.217.076.405.087.783.033 1.14-.055.35-.175.673-.355.97-.18.29-.405.52-.667.679-.595.367-1.18.51-1.764.433a5.396 5.396 0 01-1.742-.564 18.091 18.091 0 01-1.78-1.047 10.95 10.95 0 00-1.863-.998 5.49 5.49 0 00-1.977-.422c-.683-.016-1.393.203-2.13.658-.486.302-.89.68-1.202 1.145a3.902 3.902 0 00-.622 1.53 4.726 4.726 0 00.027 1.77c.12.624.366 1.249.748 1.868.192.312.394.586.612.833-.218.241-.42.52-.612.833-.376.62-.628 1.244-.748 1.869a4.844 4.844 0 00-.027 1.77c.104.553.311 1.063.622 1.528.312.466.716.844 1.202 1.146.737.455 1.447.674 2.13.657a5.49 5.49 0 001.977-.422 10.936 10.936 0 001.862-.997c.607-.4 1.197-.75 1.781-1.047a5.442 5.442 0 011.742-.564c.58-.077 1.169.066 1.764.433.262.159.48.389.667.68.18.29.3.613.355.97.054.355.043.734-.033 1.14a3.548 3.548 0 01-.486 1.216 4.176 4.176 0 01-.814.992 4.993 4.993 0 01-.847.602 4.498 4.498 0 01-.906.4c.049-.054.093-.098.136-.137.044-.038.082-.082.126-.12a.478.478 0 00.104-.132c.218-.356.284-.728.19-1.112a1.428 1.428 0 00-.67-.904 1.424 1.424 0 00-2.01.482 1.428 1.428 0 00.48 2.017c.224.136.524.208.896.202a3.22 3.22 0 001.18-.246 5.09 5.09 0 001.25-.724 4.336 4.336 0 001.07-1.21c.355-.587.59-1.179.705-1.77a4.59 4.59 0 00.01-1.705 3.974 3.974 0 00-.594-1.474 3.485 3.485 0 00-1.104-1.069c-.748-.46-1.463-.68-2.135-.663a5.56 5.56 0 00-1.966.428c-.64.263-1.256.597-1.863.997-.606.4-1.196.75-1.78 1.047a5.439 5.439 0 01-1.742.564c-.58.077-1.17-.066-1.764-.433a2.468 2.468 0 01-.765-.74 2.688 2.688 0 01-.399-1.019 3.183 3.183 0 01.044-1.216c.093-.46.273-.9.546-1.338zm1.305-1.43c2.109-2.165 5.26-.91 7.444.487-2.56 1.639-5.352 2.56-7.444.488a3.08 3.08 0 01-.355-.488c.05-.088.17-.269.355-.488zm13.518 2.027c-1.666 0-3.605-1.085-4.342-1.54.737-.455 2.676-1.54 4.342-1.54 1.71 0 2.588 1.167 2.823 1.54-.235.373-1.108 1.54-2.823 1.54zm3.304-1.43c-.005.005-.983 1.901-3.299 1.901-2.244 0-4.904-1.808-4.91-1.814L50.24 31l.29-.197c.006-.006 2.666-1.814 4.91-1.814 2.316 0 3.299 1.896 3.299 1.901l.06.11-.06.11zm-14.13-1.437c1.622 0 3.566 1.326 3.566 1.326s-1.944 1.326-3.566 1.326c-1.622 0-2.305-1.326-2.305-1.326s.683-1.326 2.305-1.326zm-5.085 2.022c-.852 0-1.867-.696-1.867-.696s1.015-.696 1.867-.696c.852 0 1.207.696 1.207.696s-.36.696-1.207.696zM14.195 45.12c1.54-1.332 3.266-.636 3.266-.636s.426 1.82-1.109 3.146c-1.54 1.331-4.462 1.671-4.462 1.671s.77-2.85 2.305-4.181zm.005-28.2c1.54 1.332 3.266.636 3.266.636s.426-1.82-1.108-3.146c-1.54-1.331-4.463-1.671-4.463-1.671s.765 2.85 2.305 4.181zm33.397 28.2c-1.54-1.332-3.266-.636-3.266-.636s-.426 1.82 1.11 3.146c1.54 1.331 4.461 1.671 4.461 1.671s-.764-2.85-2.305-4.181z"/><path fill-rule="evenodd" clip-rule="evenodd" d="M30.896 0c8.53 0 16.253 3.469 21.846 9.08A30.952 30.952 0 0161.792 31c0 8.56-3.457 16.308-9.05 21.92C47.15 58.53 39.427 62 30.896 62S14.642 58.531 9.05 52.92A30.952 30.952 0 010 31c0-8.56 3.457-16.308 9.05-21.92C14.642 3.474 22.365 0 30.896 0zm21.032 9.897c-5.38-5.398-12.818-8.74-21.032-8.74S15.249 4.498 9.864 9.896A29.807 29.807 0 001.152 31c0 8.242 3.332 15.7 8.712 21.103 5.38 5.398 12.818 8.74 21.032 8.74s15.647-3.342 21.032-8.74A29.807 29.807 0 0060.64 31c0-8.242-3.331-15.7-8.71-21.103z"/><path d="M151.945 38.393h-15.423v.383h15.423v-.383zm-63.758 0H72.764v.383h15.423v-.383z"/><path fill-rule="evenodd" clip-rule="evenodd" d="M95.92 36.26a.825.825 0 00-.398.093 1.217 1.217 0 00-.497.51v3.02a1.834 1.834 0 00.574.767c.12.093.262.142.431.142.115 0 .23-.038.344-.11.115-.07.224-.197.323-.378.098-.175.174-.41.24-.701.065-.29.093-.647.093-1.074 0-.428-.033-.79-.093-1.074a2.425 2.425 0 00-.251-.696 1.025 1.025 0 00-.35-.378.817.817 0 00-.415-.12zm.148-.203c.24 0 .47.055.694.165.219.11.42.274.59.482.175.214.311.471.415.773.104.307.153.652.153 1.04 0 .39-.055.735-.153 1.042a2.564 2.564 0 01-.399.773c-.164.213-.35.372-.562.482a1.37 1.37 0 01-.64.164c-.201 0-.376-.038-.524-.115a1.452 1.452 0 01-.36-.257 1.443 1.443 0 01-.273-.384v.603h-1.404v-.099l.601-.153v-6.538l-.6-.153v-.099h1.403v2.768a1.04 1.04 0 01.24-.253 1.81 1.81 0 01.328-.17c.136-.043.3-.07.491-.07zm5.795 2.466c0 .428.033.79.093 1.074.065.29.147.521.251.702.104.175.219.301.35.378.131.071.267.11.404.11.175 0 .338-.033.491-.1.153-.065.29-.158.41-.273a1.42 1.42 0 00.295-.411c.076-.159.131-.334.153-.52h.153a1.973 1.973 0 01-.175.597 1.732 1.732 0 01-.344.476 1.535 1.535 0 01-1.081.433c-.257 0-.497-.055-.721-.164a1.818 1.818 0 01-.607-.482 2.51 2.51 0 01-.42-.773 3.229 3.229 0 01-.153-1.041c0-.4.049-.756.153-1.069.098-.307.235-.564.399-.767a1.65 1.65 0 01.573-.466 1.51 1.51 0 01.688-.159c.24 0 .47.055.688.16.219.109.41.262.574.465.164.203.295.46.398.767.099.307.153.663.153 1.069h-2.725v-.006zm.901-2.312a.581.581 0 00-.3.093.916.916 0 00-.279.34 2.375 2.375 0 00-.213.646 6.115 6.115 0 00-.103 1.03h1.807a6.157 6.157 0 00-.103-1.03 2.526 2.526 0 00-.213-.646.964.964 0 00-.279-.34.689.689 0 00-.317-.093zm7.346 2.164c-.579 0-1.01.132-1.289.39-.278.257-.415.613-.415 1.074 0 .3.071.537.218.706.148.17.306.252.481.252.158 0 .3-.049.426-.142.126-.093.229-.197.317-.312.098-.126.186-.28.262-.455v-1.513zm-.748-2.164a.68.68 0 00-.503.208.76.76 0 00-.202.548c0 .055 0 .099.006.142l.016.11a.348.348 0 00.033.099l-.803.203a.273.273 0 01-.027-.083l-.017-.11c-.005-.038-.005-.092-.005-.158 0-.143.033-.274.098-.406a1.05 1.05 0 01.295-.35c.131-.105.29-.187.47-.253.185-.065.398-.093.639-.093.48 0 .863.137 1.136.411.278.274.415.642.415 1.096v3.02l.601.153v.099h-1.404v-.603a1.585 1.585 0 01-.279.384c-.092.093-.213.18-.355.257a1.08 1.08 0 01-.518.115c-.481 0-.847-.115-1.087-.34-.246-.23-.366-.531-.366-.915 0-.186.049-.378.153-.564.104-.186.262-.356.469-.504.213-.148.481-.269.809-.356.327-.094.721-.137 1.174-.137v-.603c0-.504-.076-.855-.224-1.058-.153-.214-.328-.312-.524-.312zm8.645.252v4.126l.601.154v.098h-1.403v-.602c-.071.142-.17.268-.279.383a1.541 1.541 0 01-.355.258 1.085 1.085 0 01-.519.115c-.202 0-.388-.039-.557-.11a1.393 1.393 0 01-.448-.307 1.445 1.445 0 01-.295-.47 1.713 1.713 0 01-.103-.62v-3.02l-.601-.153v-.099h1.955v.099l-.552.153v3.02c0 .477.077.81.224 1.014.153.197.328.295.525.295.158 0 .3-.049.426-.142a1.56 1.56 0 00.316-.312 2.11 2.11 0 00.263-.455v-3.42l-.552-.153v-.099h1.955v.099l-.601.148zm5.997-.252v.203h-1.152v3.21c0 .412.071.708.218.894.148.186.306.274.481.274.229 0 .42-.088.579-.258.158-.17.251-.422.273-.75h.153c-.028.383-.142.68-.344.888a1.025 1.025 0 01-.759.317c-.426 0-.771-.126-1.022-.378-.256-.252-.382-.58-.382-.98v-3.223h-.852v-.203h.852V35.05l.803-.553v1.71h1.152v.005zm4.735 5.48c-.109.318-.213.58-.311.789a2.32 2.32 0 01-.317.515.948.948 0 01-.338.274.896.896 0 01-.388.082c-.038 0-.077 0-.109-.005l-.099-.017a.49.49 0 01-.093-.027l-.152-.756a.365.365 0 00.092.027l.099.017c.032.005.071.005.109.005.399 0 .694-.077.879-.225.186-.153.328-.378.426-.68l.279-.854-1.737-4.379-.601-.153v-.099h2.005v.099l-.552.153 1.273 3.212 1.032-3.107-.65-.252v-.1h1.502v.1l-.65.252-1.699 5.129zm12.551-11.294v-1.052a3.96 3.96 0 00.606-.213 3.83 3.83 0 001.316-1.003c.377-.439.661-.954.852-1.54a6.269 6.269 0 00.279-1.93c0-.706-.093-1.353-.279-1.928a4.55 4.55 0 00-.852-1.54 3.785 3.785 0 00-1.316-1.003 3.596 3.596 0 00-.606-.213v-1.053c1.474.116 2.725.669 3.752 1.66a5.618 5.618 0 011.311 1.859 5.54 5.54 0 01.437 2.208 5.68 5.68 0 01-.437 2.236 5.64 5.64 0 01-1.311 1.863c-1.027.975-2.278 1.529-3.752 1.65zm10.71-.049v-11.36c0-.01 0-.022-.006-.033a.085.085 0 00-.021-.027c-.011-.006-.017-.017-.028-.017-.011-.005-.027-.005-.049-.005h-2.589c.137.197.235.422.306.669.071.268.109.564.109.887v9.908c.006.005.011.017.028.033l.033.027h2.113c.022 0 .038 0 .049-.005.011-.006.022-.011.028-.017l.027-.033v-.027zm-10.71-11.426v1.053a4.23 4.23 0 00-1.032-.127h-1.36a.602.602 0 00-.257.055.544.544 0 00-.213.16.713.713 0 00-.18.482v8.252c0 .093.016.181.044.258a.637.637 0 00.606.416h1.36c.366 0 .71-.044 1.032-.126v1.052a7.235 7.235 0 01-.601.022h-4.648l-.032-.027-.028-.033v-9.908c0-.323-.038-.619-.109-.887a2.132 2.132 0 00-.306-.669h5.123c.202.006.404.011.601.027zM108.269 27.1v-.954h1.3c.53 0 .705-.258.514-.773l-1.371-3.836a.5.5 0 00-.142-.23.392.392 0 00-.279-.104h-.027V18.9h1.458c.077 0 .137.017.175.044.044.028.076.082.104.16l4.282 11.32h-2.229a.256.256 0 01-.153-.037.3.3 0 01-.092-.137l-.962-2.686c-.103-.307-.338-.46-.71-.46h-1.868v-.005zm8.946-6.642v9.907l.028.033.033.028h2.097c.022 0 .038 0 .049-.006a.103.103 0 00.027-.016l.028-.033v-3.957c0-.142.021-.273.06-.394a.925.925 0 01.191-.34l.175-.192c.267-.312.529-.301.791.039l3.452 4.641c.137.176.361.263.677.263h2.141l-4.91-6.455c-.245-.307-.24-.597.022-.855l3.938-4.22h-1.371a.899.899 0 00-.36.066.797.797 0 00-.262.192c-1.213 1.42-2.584 2.767-3.807 4.187a.575.575 0 01-.186.131.381.381 0 01-.3.011.38.38 0 01-.219-.213.566.566 0 01-.038-.22v-4.066c0-.01 0-.022-.005-.033a.108.108 0 00-.022-.027c-.011-.006-.017-.017-.028-.017-.01-.005-.027-.005-.049-.005h-2.572c.136.197.235.422.306.669.076.263.114.559.114.882zm14.812 9.891v-11.36c0-.01 0-.022-.005-.033a.108.108 0 00-.022-.027c-.011-.006-.017-.017-.028-.017-.01-.005-.027-.005-.049-.005h-2.588c.136.197.234.422.305.669.071.268.11.564.11.887v9.908c.005.005.011.017.027.033l.033.027h2.113c.022 0 .039 0 .049-.005.011-.006.022-.011.028-.017l.027-.033v-.027zm-58.591-3.523l-.705 1.298a.146.146 0 00-.016.066c0 .038.016.088.043.137l.006.005c.158.335.371.642.628.916.262.28.579.526.95.745.372.22.77.383 1.207.493.437.11.907.165 1.415.165 1.201 0 2.152-.318 2.845-.96.344-.317.607-.674.776-1.074.17-.394.257-.838.257-1.326a3.78 3.78 0 00-.268-1.424 3.145 3.145 0 00-.328-.614 3.067 3.067 0 00-.431-.526 9.15 9.15 0 00-.503-.466 6.001 6.001 0 00-.491-.384 9.791 9.791 0 00-.53-.34 27.264 27.264 0 00-.59-.334l-.109-.055-.147-.076c-.235-.12-.437-.23-.618-.324-.19-.104-.35-.191-.464-.257a3.253 3.253 0 01-.737-.597 1.635 1.635 0 01-.279-.417 1.197 1.197 0 01-.098-.471c0-.214.038-.406.115-.581.082-.175.196-.329.355-.46a1.55 1.55 0 01.535-.274 2.645 2.645 0 012.086.323c.197.131.377.268.53.416.158.148.295.307.41.472a.208.208 0 00.049.049l.022.006.606-1.009a.35.35 0 00.044-.17c0-.022-.011-.038-.028-.055a3.572 3.572 0 00-1.322-.8c-.518-.18-1.12-.274-1.796-.274-.508 0-.973.066-1.393.203a3.59 3.59 0 00-1.147.598 2.56 2.56 0 00-.754.887 2.55 2.55 0 00-.262 1.135c0 .252.022.487.06.706a2.95 2.95 0 00.923 1.66c.35.319.689.582 1.022.79.169.11.36.22.568.334.213.115.448.241.699.362.792.39 1.382.75 1.758 1.08.213.186.377.4.486.646.11.247.159.515.159.806 0 .274-.05.526-.148.75a1.743 1.743 0 01-1.125.981c-.256.083-.546.12-.868.12-.808 0-1.535-.284-2.18-.86a3.888 3.888 0 01-.775-.931 3.343 3.343 0 01-.442-1.09zm34.833-7.924v2.301a.456.456 0 00-.251.093.458.458 0 00-.158.241l-1.426 3.836a.816.816 0 00-.054.28c0 .104.027.197.082.274a.46.46 0 00.235.18.667.667 0 00.24.039h1.338v.954h-1.988a.662.662 0 00-.399.12.679.679 0 00-.24.34l-.961 2.69a.267.267 0 01-.093.138.287.287 0 01-.153.038h-1.284l3.747-9.864c.137-.378.208-.707.208-.981a1.48 1.48 0 00-.039-.356 1.336 1.336 0 00-.109-.318v-.005h1.305zm-14.429 0h-2.053c-.022 0-.039.005-.05.005-.01.006-.021.011-.027.016-.01.011-.016.022-.022.028l-.005.033v4.411a.65.65 0 01-.197.477.667.667 0 01-.459.197h-3.79c-.202 0-.366-.06-.48-.186-.115-.12-.17-.285-.17-.488v-4.411c0-.011 0-.028-.005-.033-.006-.006-.011-.017-.022-.028-.011-.01-.017-.016-.028-.016-.01-.005-.027-.005-.049-.005h-2.572c.136.197.235.422.306.668.076.269.11.565.11.888v9.907l.026.033.033.028h2.097c.022 0 .039 0 .05-.006a.113.113 0 00.027-.016.143.143 0 00.027-.033v-4.68c0-.45.219-.674.656-.674h3.79a.67.67 0 01.459.197.704.704 0 01.202.477v4.68l.027.033c.01.01.016.016.027.016.011.006.028.006.05.006h2.053c.022 0 .038 0 .05-.006a.116.116 0 00.026-.016.145.145 0 00.028-.033V18.994c0-.011 0-.028-.006-.033-.005-.006-.01-.017-.022-.028-.01-.01-.016-.016-.027-.016-.027-.017-.044-.017-.06-.017zm6.385 11.447v-11.36c0-.01 0-.022-.006-.033-.005-.01-.011-.016-.022-.027-.011-.006-.016-.017-.027-.017-.011-.005-.027-.005-.049-.005h-2.589c.137.197.235.422.306.669.076.268.11.564.11.887v9.908c.005.005.01.017.026.033l.033.027h2.114c.022 0 .038 0 .049-.005.011-.006.022-.011.027-.017l.022-.033.006-.027z"/></g><defs><clipPath id="clip0_785_7891"><path fill="#fff" d="M0 0h152v62H0z"/></clipPath></defs></svg>