<svg width="957" height="70" fill="none" xmlns="http://www.w3.org/2000/svg"><path d="M.392 69V1.8h14.88v61.248h11.52c3.2 0 6.112-.256 8.736-.768 2.688-.512 4.544-1.024 5.568-1.536l1.536-.672 1.152 1.152V69H.392zm101.243-17.856L94.723 69h-7.488l24.672-62.304-2.208-3.744V1.8h16.224L153.091 69h-15.36l-7.2-17.856h-28.896zm15.936-32.352l-1.728-4.032-11.904 30.432h24.192l-10.56-26.4zM264.992 69l-6.432-54.816-.384-.384-16.992 53.28h-9.888l-2.016-2.016-17.472-51.168-.48.384L206.144 69h-7.2l5.088-50.208c.256-3.264.352-6.048.288-8.352 0-2.368-.064-4.224-.192-5.568l-.288-1.92 1.152-1.152h18.144l16.32 47.424L254.624 1.8h17.76l7.968 67.2h-15.36zm66.634 0V1.8h14.88V69h-14.88zm68.411 0V28.68c0-5.12-.224-9.824-.672-14.112-.384-4.288-.8-7.296-1.248-9.024l-.672-2.592 1.152-1.152h5.088l44.64 43.872V1.8h7.392V69h-4.416l-44.64-43.968V69h-6.624zm118.118-17.856L511.243 69h-7.488l24.672-62.304-2.208-3.744V1.8h16.224L569.611 69h-15.36l-7.2-17.856h-28.896zm15.936-32.352l-1.728-4.032-11.904 30.432h24.192l-10.56-26.4zm110.136-11.04V69h-14.88V7.752h-5.952c-3.2 0-6.144.256-8.832.768-2.624.512-4.448 1.024-5.472 1.536l-1.536.672-1.152-1.152V1.8h60.768v7.776l-1.152 1.152c-3.328-1.984-8.608-2.976-15.84-2.976h-5.952zM715.99 69V1.8h14.88V69h-14.88zm74.939-8.544c-6.336-6.4-9.504-14.752-9.504-25.056s3.168-18.624 9.504-24.96c6.4-6.4 14.752-9.6 25.056-9.6 10.24 0 18.528 3.2 24.864 9.6 6.4 6.336 9.6 14.656 9.6 24.96s-3.2 18.656-9.6 25.056c-6.336 6.336-14.624 9.504-24.864 9.504-10.304 0-18.656-3.168-25.056-9.504zm11.904-46.944c-3.2 5.056-4.8 12.352-4.8 21.888 0 9.536 1.6 16.864 4.8 21.984 3.264 5.056 7.648 7.584 13.152 7.584s9.856-2.528 13.056-7.584c3.264-5.12 4.896-12.448 4.896-21.984 0-9.536-1.632-16.832-4.896-21.888-3.2-5.12-7.552-7.68-13.056-7.68s-9.888 2.56-13.152 7.68zM901.093 69V28.68c0-5.12-.224-9.824-.672-14.112-.384-4.288-.8-7.296-1.248-9.024l-.672-2.592 1.152-1.152h5.088l44.64 43.872V1.8h7.392V69h-4.416l-44.64-43.968V69h-6.624z" fill="#fff"/></svg>