<svg width="186" height="156" fill="none" xmlns="http://www.w3.org/2000/svg"><path fill-rule="evenodd" clip-rule="evenodd" d="M118.027 68.043c-2.328-2.007-4.945-.96-4.945-.96s-.648 2.74 1.68 4.747c2.328 2.007 6.751 2.518 6.751 2.518s-1.158-4.298-3.486-6.305zM67.48 25.508c2.328 2.006 4.944.96 4.944.96s.648-2.741-1.68-4.747c-2.328-2.007-6.75-2.518-6.75-2.518s1.158 4.298 3.486 6.305zm0 42.535c2.328-2.007 4.944-.96 4.944-.96s.648 2.74-1.68 4.747c-2.328 2.007-6.75 2.518-6.75 2.518s1.158-4.298 3.486-6.305zm35.502-21.299s1.542-1.046 2.828-1.046c1.286 0 1.83 1.046 1.83 1.046s-.544 1.046-1.83 1.046-2.828-1.046-2.828-1.046zm10.522-1.996c2.454 0 5.396 1.996 5.396 1.996s-2.942 1.997-5.396 1.997c-2.454 0-3.492-1.997-3.492-1.997s1.038-1.996 3.492-1.996zm21.383 2.165c-.004.008-1.488 2.864-4.995 2.864-3.4 0-7.423-2.73-7.434-2.738l-.437-.295.437-.295c.011-.008 4.034-2.738 7.434-2.738 3.507 0 4.991 2.857 4.995 2.864l.091.169-.091.169zm-4.995 2.152c-2.521 0-5.456-1.637-6.573-2.321 1.117-.684 4.052-2.32 6.573-2.32 2.591 0 3.914 1.76 4.27 2.32-.356.56-1.679 2.32-4.27 2.32zm-20.458-3.055c3.194-3.267 7.956-1.375 11.265.735-3.873 2.468-8.102 3.858-11.265.734a5.125 5.125 0 01-.54-.734c.077-.13.254-.408.54-.735zm-1.98 2.154c.269-.44.561-.834.878-1.184 1.433 1.452 3.06 2.697 5.203 2.697 3.449 0 7.553-2.785 7.565-2.793l.207-.14-.207-.139c-.012-.008-4.116-2.793-7.565-2.793-2.144 0-3.768 1.246-5.203 2.697a7.875 7.875 0 01-.878-1.183c-.409-.667-.684-1.328-.826-1.984-.142-.656-.164-1.268-.065-1.835a3.99 3.99 0 01.599-1.538 3.658 3.658 0 011.155-1.116c.901-.552 1.789-.769 2.667-.65.877.119 1.757.403 2.64.853.883.45 1.781.977 2.695 1.58a16.855 16.855 0 002.818 1.506c.963.4 1.956.616 2.977.646 1.022.03 2.1-.301 3.235-.996a5.312 5.312 0 001.665-1.616c.446-.668.747-1.41.904-2.225a6.855 6.855 0 00-.016-2.572c-.167-.9-.522-1.791-1.062-2.674a6.643 6.643 0 00-1.623-1.83 7.701 7.701 0 00-1.892-1.087c-.633-.244-1.229-.368-1.788-.372-.56-.004-1.011.1-1.353.309-.539.33-.88.787-1.019 1.367-.14.58-.044 1.141.287 1.682.331.54.787.88 1.367 1.02.581.139 1.142.043 1.682-.288.54-.33.88-.786 1.02-1.367.139-.581.044-1.142-.287-1.682a1.085 1.085 0 00-.16-.2l-.186-.183c-.063-.06-.13-.13-.203-.21a6.75 6.75 0 011.374.607c.408.221.834.523 1.28.906.445.384.856.881 1.231 1.494.375.612.619 1.224.734 1.835a5.1 5.1 0 01.048 1.716 3.829 3.829 0 01-.535 1.46c-.275.442-.61.784-1.007 1.026-.9.551-1.788.768-2.666.65a8.255 8.255 0 01-2.64-.853 28.152 28.152 0 01-2.696-1.58 16.898 16.898 0 00-2.817-1.507A8.27 8.27 0 00112 34.98c-1.031-.025-2.104.305-3.221.99a5.896 5.896 0 00-1.82 1.727c-.475.7-.79 1.469-.946 2.307-.155.838-.142 1.728.039 2.67.181.941.558 1.88 1.131 2.817.287.468.596.886.927 1.253-.33.367-.639.785-.927 1.254-.573.936-.95 1.875-1.131 2.817-.181.943-.194 1.832-.039 2.67.156.838.471 1.607.946 2.307a5.902 5.902 0 001.82 1.728c1.117.684 2.19 1.014 3.221.989a8.245 8.245 0 002.991-.638c.964-.4 1.903-.903 2.817-1.506a28.068 28.068 0 012.696-1.58c.882-.45 1.762-.735 2.64-.853.878-.12 1.766.097 2.666.65.397.242.732.584 1.007 1.024.275.44.453.928.535 1.461a5.1 5.1 0 01-.048 1.716c-.115.611-.359 1.223-.734 1.835-.375.612-.786 1.11-1.231 1.493a7.412 7.412 0 01-1.28.907 6.779 6.779 0 01-1.374.606 7.22 7.22 0 01.203-.21l.186-.183a1.07 1.07 0 00.16-.2c.331-.54.426-1.1.287-1.68-.14-.581-.48-1.037-1.02-1.368-.54-.331-1.101-.427-1.682-.287-.58.14-1.036.48-1.367 1.02-.331.54-.427 1.1-.287 1.68.139.582.48 1.038 1.019 1.369.342.209.793.312 1.353.308.559-.004 1.155-.128 1.788-.372a7.703 7.703 0 001.892-1.088 6.63 6.63 0 001.623-1.83c.54-.882.895-1.773 1.062-2.673.168-.9.173-1.758.016-2.572a6.018 6.018 0 00-.904-2.225 5.316 5.316 0 00-1.665-1.616c-1.135-.695-2.213-1.027-3.235-.996a8.328 8.328 0 00-2.977.646c-.964.4-1.903.902-2.818 1.506a27.937 27.937 0 01-2.695 1.58c-.883.45-1.763.734-2.64.853-.878.118-1.766-.098-2.667-.65a3.66 3.66 0 01-1.155-1.116 3.984 3.984 0 01-.599-1.538c-.099-.567-.077-1.179.065-1.835.142-.656.417-1.317.826-1.983zm-27.757-2.466c1.285 0 2.827 1.046 2.827 1.046s-1.542 1.047-2.827 1.047c-1.287 0-1.83-1.047-1.83-1.047s.543-1.046 1.83-1.046zm-7.694 3.043c-2.455 0-5.397-1.997-5.397-1.997s2.942-1.996 5.397-1.996c2.454 0 3.491 1.996 3.491 1.996s-1.037 1.997-3.491 1.997zm-21.384-2.165c.004-.008 1.49-2.864 4.995-2.864 3.4 0 7.423 2.73 7.435 2.738l.436.295-.436.294c-.012.009-4.035 2.739-7.435 2.739-3.506 0-4.991-2.856-4.995-2.864l-.09-.17.09-.168zm4.995-2.152c2.521 0 5.457 1.636 6.573 2.32-1.116.685-4.052 2.322-6.573 2.322-2.591 0-3.915-1.762-4.27-2.321.355-.56 1.679-2.321 4.27-2.321zm20.459 3.054c-3.195 3.268-7.956 1.375-11.266-.733 3.873-2.468 8.103-3.86 11.266-.735.286.327.463.604.54.735a5.093 5.093 0 01-.54.733zm1.98-2.153c-.27.44-.563.834-.879 1.184-1.433-1.452-3.06-2.697-5.203-2.697-3.448 0-7.553 2.785-7.564 2.793l-.208.14.208.139c.01.008 4.116 2.793 7.564 2.793 2.145 0 3.768-1.247 5.203-2.697.316.349.61.744.879 1.183.408.667.683 1.328.825 1.984.142.655.164 1.268.065 1.836a3.98 3.98 0 01-.599 1.537c-.302.458-.686.83-1.155 1.116-.9.552-1.788.768-2.667.65-.877-.12-1.757-.403-2.64-.853a28.007 28.007 0 01-2.695-1.58 16.858 16.858 0 00-2.817-1.506 8.332 8.332 0 00-2.978-.646c-1.022-.031-2.1.301-3.234.997a5.312 5.312 0 00-1.666 1.614 6.026 6.026 0 00-.903 2.226c-.158.814-.152 1.671.015 2.572.168.9.522 1.792 1.063 2.673a6.64 6.64 0 001.622 1.83c.63.481 1.26.844 1.892 1.087.633.245 1.228.369 1.788.373.56.003 1.01-.099 1.353-.31.54-.33.88-.786 1.02-1.366.14-.581.043-1.142-.288-1.681-.33-.54-.787-.88-1.367-1.02-.581-.14-1.141-.045-1.682.287-.54.33-.88.787-1.02 1.367-.139.581-.043 1.142.288 1.682.045.072.097.138.16.2l.186.182c.062.061.13.131.203.21a6.799 6.799 0 01-1.376-.607 7.407 7.407 0 01-1.278-.906c-.446-.382-.856-.881-1.231-1.493-.375-.612-.62-1.224-.734-1.835a5.104 5.104 0 01-.049-1.716c.083-.533.26-1.02.535-1.46a3.09 3.09 0 011.007-1.026c.9-.552 1.789-.768 2.667-.65.877.12 1.757.403 2.639.854a27.9 27.9 0 012.696 1.58 16.954 16.954 0 002.817 1.506c.964.4 1.96.613 2.991.637 1.03.025 2.105-.304 3.221-.988a5.871 5.871 0 001.82-1.729c.476-.7.79-1.468.946-2.306.155-.838.142-1.727-.039-2.67-.18-.942-.558-1.88-1.131-2.817a8.43 8.43 0 00-.927-1.253c.33-.368.64-.785.927-1.254.573-.937.95-1.876 1.131-2.818.18-.942.194-1.831.039-2.67a5.992 5.992 0 00-.946-2.306 5.87 5.87 0 00-1.82-1.728c-1.117-.684-2.19-1.014-3.22-.988a8.252 8.252 0 00-2.993.637c-.962.4-1.901.902-2.816 1.506a27.928 27.928 0 01-2.696 1.58c-.882.45-1.761.735-2.639.853-.878.118-1.767-.098-2.667-.65a3.093 3.093 0 01-1.007-1.024 3.847 3.847 0 01-.535-1.461 5.11 5.11 0 01.048-1.717c.115-.61.36-1.222.735-1.834.375-.612.785-1.111 1.23-1.494a7.431 7.431 0 011.28-.906 6.695 6.695 0 011.374-.607c-.073.079-.14.149-.202.21l-.186.183a1.01 1.01 0 00-.16.2c-.331.54-.427 1.1-.288 1.681.14.582.48 1.037 1.02 1.368.54.33 1.1.426 1.682.288.58-.14 1.036-.48 1.367-1.02.33-.54.427-1.102.287-1.682-.14-.58-.479-1.036-1.02-1.367-.341-.21-.792-.313-1.352-.31-.56.005-1.155.129-1.788.373a7.7 7.7 0 00-1.892 1.088 6.636 6.636 0 00-1.622 1.829c-.54.883-.895 1.774-1.063 2.673-.167.901-.173 1.759-.015 2.573.157.814.457 1.557.903 2.225.444.67 1 1.207 1.666 1.615 1.135.696 2.212 1.028 3.234.997a8.343 8.343 0 002.978-.646 16.89 16.89 0 002.817-1.506 27.886 27.886 0 012.696-1.58c.882-.45 1.762-.734 2.64-.853.878-.119 1.766.098 2.666.649.469.287.853.659 1.155 1.116.302.458.502.97.6 1.538.098.568.076 1.18-.066 1.836-.142.655-.417 1.317-.825 1.983zM91.707 59.8c0 1.286 1.046 1.83 1.046 1.83s1.046-.544 1.046-1.83-1.046-2.828-1.046-2.828-1.046 1.542-1.046 2.828zm3.043 7.694c0-2.455-1.997-3.492-1.997-3.492s-1.996 1.037-1.996 3.492c0 2.454 1.996 5.396 1.996 5.396s1.997-2.942 1.997-5.396zm-2.165 21.383l.169.09.168-.09c.008-.004 2.865-1.489 2.865-4.995 0-3.4-2.73-7.423-2.738-7.434l-.295-.437-.295.437c-.008.01-2.738 4.035-2.738 7.434 0 3.507 2.856 4.991 2.864 4.996zm-2.152-4.995c0 2.591 1.761 3.915 2.32 4.27.56-.356 2.321-1.679 2.321-4.27 0-2.52-1.636-5.456-2.32-6.573-.684 1.117-2.321 4.052-2.321 6.573zm3.055-20.458a4.995 4.995 0 00-.735-.54c-.13.077-.407.254-.734.54-3.124 3.163-1.734 7.392.734 11.265 2.11-3.31 4.002-8.07.735-11.265zm-2.154-1.98c-.666-.408-1.327-.684-1.983-.825-.656-.142-1.268-.164-1.836-.066a3.993 3.993 0 00-1.537.599c-.458.302-.83.687-1.116 1.155-.552.9-.768 1.79-.65 2.667.118.878.403 1.757.853 2.64.45.882.977 1.781 1.58 2.696a16.858 16.858 0 011.506 2.817c.4.963.616 1.956.646 2.977.03 1.022-.302 2.1-.996 3.235a5.32 5.32 0 01-1.616 1.666 6.055 6.055 0 01-2.225.903 6.853 6.853 0 01-2.572-.016c-.9-.167-1.792-.521-2.674-1.062a6.638 6.638 0 01-1.83-1.622 7.695 7.695 0 01-1.087-1.892c-.244-.633-.368-1.23-.372-1.789-.004-.56.099-1.01.308-1.353.331-.54.787-.88 1.368-1.02.58-.139 1.142-.043 1.681.288.54.33.88.787 1.02 1.368.14.58.044 1.141-.287 1.681-.331.54-.787.88-1.368 1.02-.58.14-1.14.043-1.681-.288a1.024 1.024 0 01-.2-.159l-.183-.186a6.99 6.99 0 00-.21-.203c.141.457.343.916.607 1.375.22.407.523.834.906 1.279.383.445.881.856 1.494 1.23.612.376 1.223.62 1.835.735.61.114 1.182.13 1.716.048a3.837 3.837 0 001.46-.535c.441-.275.783-.61 1.026-1.006.552-.9.768-1.79.65-2.667-.12-.877-.404-1.758-.854-2.64a27.768 27.768 0 00-1.58-2.695 16.914 16.914 0 01-1.506-2.818 8.25 8.25 0 01-.638-2.991c-.025-1.03.305-2.104.989-3.221a5.899 5.899 0 011.728-1.82c.7-.475 1.469-.79 2.307-.945.837-.156 1.727-.143 2.67.038.941.18 1.88.558 2.817 1.131a8.59 8.59 0 011.253.927c.367-.33.785-.64 1.254-.927.936-.573 1.875-.95 2.817-1.13.942-.181 1.832-.194 2.67-.04.838.156 1.607.47 2.307.946a5.886 5.886 0 011.727 1.82c.685 1.117 1.014 2.19.99 3.22a8.261 8.261 0 01-.638 2.992 16.98 16.98 0 01-1.506 2.818 27.893 27.893 0 00-1.581 2.695c-.45.882-.734 1.763-.853 2.64-.118.878.098 1.766.65 2.667.242.396.584.731 1.025 1.006a3.83 3.83 0 001.461.535 5.085 5.085 0 001.716-.048c.611-.115 1.223-.36 1.835-.734.612-.375 1.11-.786 1.493-1.231a7.37 7.37 0 00.907-1.28c.264-.458.465-.916.606-1.374a6.583 6.583 0 00-.21.203l-.183.186a1.05 1.05 0 01-.199.16c-.54.33-1.101.426-1.682.287-.581-.14-1.037-.48-1.368-1.02-.33-.54-.426-1.1-.287-1.681.14-.58.48-1.037 1.02-1.368.54-.331 1.101-.427 1.681-.287.581.14 1.037.48 1.368 1.02.209.342.312.792.308 1.352-.004.56-.127 1.156-.371 1.788a7.708 7.708 0 01-1.088 1.893 6.651 6.651 0 01-1.829 1.622c-.883.54-1.774.895-2.674 1.062-.901.168-1.758.173-2.573.016a6.055 6.055 0 01-2.225-.903 5.319 5.319 0 01-1.615-1.666c-.695-1.135-1.027-2.213-.997-3.235a8.337 8.337 0 01.647-2.977c.4-.964.901-1.903 1.505-2.817a28.124 28.124 0 001.581-2.696c.45-.883.734-1.762.853-2.64.118-.878-.099-1.766-.65-2.667a3.657 3.657 0 00-1.116-1.155 4 4 0 00-1.538-.6c-.567-.097-1.18-.075-1.835.067-.656.142-1.317.417-1.984.825-.44.269-.834.562-1.183.879 1.45 1.434 2.696 3.058 2.696 5.202 0 3.45-2.784 7.553-2.792 7.565l-.14.207-.14-.207c-.006-.012-2.792-4.116-2.792-7.565 0-2.143 1.246-3.77 2.697-5.202a7.881 7.881 0 00-1.184-.88zm2.465-27.757c0-1.287-1.046-1.83-1.046-1.83s-1.046.543-1.046 1.83c0 1.285 1.046 2.827 1.046 2.827s1.046-1.542 1.046-2.827zm-3.042-7.694c0 2.454 1.996 3.491 1.996 3.491s1.996-1.037 1.996-3.491c0-2.455-1.996-5.397-1.996-5.397s-1.996 2.942-1.996 5.397zM92.922 4.61l-.169-.09-.168.09c-.009.004-2.865 1.489-2.865 4.995 0 3.4 2.73 7.423 2.738 7.435l.295.436.295-.436c.008-.012 2.738-4.035 2.738-7.435 0-3.505-2.857-4.99-2.864-4.995zm2.152 4.995c0-2.591-1.761-3.915-2.32-4.27-.56.355-2.322 1.679-2.322 4.27 0 2.521 1.636 5.457 2.321 6.573.684-1.116 2.32-4.052 2.32-6.573zm-3.055 20.459c.327.286.605.463.734.54a4.92 4.92 0 00.735-.54c3.124-3.163 1.733-7.392-.735-11.266-2.108 3.31-4.001 8.071-.734 11.266zm2.154 1.98c.666.408 1.328.683 1.983.824.655.143 1.268.165 1.836.067a3.991 3.991 0 001.537-.6 3.665 3.665 0 001.117-1.155c.55-.9.767-1.788.649-2.666-.119-.878-.402-1.758-.853-2.64a27.83 27.83 0 00-1.58-2.695 16.87 16.87 0 01-1.506-2.818 8.35 8.35 0 01-.647-2.977c-.03-1.022.302-2.1.998-3.235a5.303 5.303 0 011.615-1.666 6.023 6.023 0 012.224-.903c.815-.158 1.673-.152 2.573.015.9.168 1.791.522 2.674 1.063a6.641 6.641 0 011.829 1.622c.482.63.844 1.26 1.088 1.892.244.633.368 1.229.372 1.788.004.56-.1 1.011-.308 1.353-.332.54-.788.88-1.369 1.02-.58.14-1.141.043-1.681-.289-.539-.33-.88-.786-1.02-1.366-.139-.58-.043-1.141.288-1.682.33-.54.786-.88 1.368-1.02.58-.139 1.141-.043 1.681.289.072.044.139.096.2.159l.182.186c.062.062.132.13.21.203a6.69 6.69 0 00-.606-1.375 7.386 7.386 0 00-.907-1.28c-.382-.445-.881-.855-1.493-1.23-.612-.375-1.224-.62-1.834-.734a5.094 5.094 0 00-1.717-.049 3.85 3.85 0 00-1.461.535c-.441.276-.782.61-1.025 1.007-.551.9-.768 1.789-.65 2.667.12.877.403 1.757.853 2.639.45.883.977 1.782 1.58 2.696a16.848 16.848 0 011.507 2.817c.4.964.613 1.96.637 2.991.025 1.031-.304 2.105-.988 3.222a5.888 5.888 0 01-1.728 1.819c-.7.476-1.469.79-2.307.946-.838.155-1.728.142-2.67-.04-.942-.18-1.88-.556-2.817-1.13a8.561 8.561 0 01-1.254-.927c-.367.33-.785.64-1.253.927-.936.574-1.876.95-2.817 1.13-.943.182-1.833.195-2.67.04a6.004 6.004 0 01-2.307-.946 5.881 5.881 0 01-1.728-1.82c-.684-1.116-1.013-2.19-.988-3.22a8.236 8.236 0 01.637-2.992c.4-.963.903-1.902 1.506-2.817a27.966 27.966 0 001.58-2.696c.45-.882.735-1.762.854-2.639.118-.878-.098-1.767-.65-2.667a3.09 3.09 0 00-1.025-1.007 3.845 3.845 0 00-1.461-.535 5.086 5.086 0 00-1.716.049c-.611.114-1.223.359-1.835.733-.612.376-1.111.786-1.494 1.232a7.399 7.399 0 00-.906 1.279 6.765 6.765 0 00-.606 1.374 5.88 5.88 0 00.21-.202l.182-.186c.062-.063.127-.115.2-.16.54-.331 1.1-.427 1.681-.287.58.139 1.037.479 1.368 1.019.332.54.427 1.101.287 1.682-.14.58-.48 1.036-1.02 1.366-.54.332-1.1.429-1.68.288-.582-.139-1.038-.479-1.368-1.02-.21-.341-.313-.792-.31-1.352.005-.56.13-1.155.373-1.788a7.669 7.669 0 011.088-1.892 6.64 6.64 0 011.83-1.622c.881-.54 1.773-.895 2.673-1.063.9-.167 1.758-.173 2.572-.015a6.029 6.029 0 012.225.903c.669.444 1.208 1 1.615 1.666.696 1.135 1.028 2.213.997 3.235a8.334 8.334 0 01-.646 2.977c-.4.963-.902 1.902-1.506 2.817a27.88 27.88 0 00-1.58 2.696 8.245 8.245 0 00-.853 2.64c-.118.878.098 1.766.65 2.666.286.468.658.854 1.116 1.155.457.302.97.502 1.537.6.568.098 1.18.076 1.836-.067.656-.14 1.317-.416 1.984-.824.44-.27.834-.563 1.183-.878-1.45-1.436-2.697-3.059-2.697-5.204 0-3.448 2.785-7.553 2.793-7.564l.14-.208.14.208c.006.011 2.791 4.116 2.791 7.564 0 2.144-1.245 3.77-2.696 5.204.35.315.744.609 1.184.878zm23.854-6.536c-2.328 2.006-4.944.96-4.944.96s-.648-2.741 1.68-4.748c2.328-2.006 6.75-2.517 6.75-2.517s-1.158 4.298-3.486 6.305z" fill="#2B2A29"/><path fill-rule="evenodd" clip-rule="evenodd" d="M124.581 14.917c-8.145-8.145-19.398-13.183-31.828-13.183-12.429 0-23.682 5.038-31.827 13.183-8.145 8.145-13.184 19.398-13.184 31.828 0 12.429 5.039 23.682 13.184 31.827 8.145 8.145 19.398 13.183 31.827 13.183 12.43 0 23.683-5.038 31.828-13.183s13.184-19.398 13.184-31.828c0-12.429-5.039-23.682-13.184-31.827zM93.619 0h-1.731C79.321.228 67.964 5.414 59.694 13.685 51.234 22.145 46 33.835 46 46.745c0 12.91 5.233 24.599 13.694 33.06 8.46 8.46 20.15 13.693 33.06 13.693 12.91 0 24.598-5.234 33.059-13.694 8.46-8.46 13.694-20.15 13.694-33.06 0-12.91-5.234-24.599-13.694-33.06C117.542 5.415 106.185.229 93.619 0z" fill="#2B2A29"/><path fill-rule="evenodd" clip-rule="evenodd" d="M88.03 55.756h-.482v-6.002h.481c.594 3.33 2.33 4.994 5.208 4.994.994 0 1.822-.268 2.483-.802.661-.533.995-1.221.995-2.063 0-.948-.487-1.789-1.456-2.53-2.296-1.342-4.179-2.49-5.66-3.458-1.477-.968-2.211-2.25-2.211-3.84 0-1.314.487-2.41 1.476-3.284.981-.881 2.196-1.322 3.645-1.322.941 0 1.922.227 2.957.681.488.22.828.328 1.022.328.454 0 .748-.341.894-1.009h.474v6.056h-.474c-.254-1.79-.84-3.071-1.755-3.852-.922-.782-1.95-1.17-3.085-1.17-.848 0-1.582.261-2.19.782-.607.514-.914 1.148-.914 1.896 0 .488.207 1.002.62 1.543.414.547 1.663 1.382 3.746 2.496 1.275.688 2.243 1.249 2.904 1.69a5.693 5.693 0 011.642 1.715c.441.701.661 1.462.661 2.284 0 1.395-.527 2.55-1.589 3.478-1.054.928-2.363 1.389-3.912 1.389-.841 0-1.883-.207-3.124-.614-.761-.254-1.289-.381-1.576-.381-.42 0-.68.327-.78.995zm-13.392 83.942v-17.139a.126.126 0 00-.008-.049.15.15 0 00-.074-.071.226.226 0 00-.075-.011h-3.919c.204.294.36.632.464 1.011.648 2.333.17 13.105.17 16.277a.184.184 0 00.038.047l.046.038 3.201.002a.228.228 0 00.076-.01.148.148 0 00.042-.028l.036-.047.003-.02zm-9.662-17.27h-3.104a.223.223 0 00-.076.011.117.117 0 00-.042.027.163.163 0 00-.033.043l-.006.05v6.652a.98.98 0 01-.3.718 1.037 1.037 0 01-.312.215.895.895 0 01-.38.084h-5.739c-.308 0-.552-.094-.73-.282-.173-.181-.26-.426-.26-.735v-6.652a.132.132 0 00-.008-.049.128.128 0 00-.032-.042.125.125 0 00-.042-.029.223.223 0 00-.076-.011h-3.893c.204.294.36.632.464 1.011a5 5 0 01.168 1.337l.001 14.94.039.047.046.038 3.175.002a.226.226 0 00.076-.01.178.178 0 00.079-.077l.002-7.061c0-.678.33-1.017.991-1.017h5.74a.91.91 0 01.378.082 1.042 1.042 0 01.613.935v7.061l.04.047a.127.127 0 00.041.029.196.196 0 00.076.011h3.104a.225.225 0 00.076-.01.146.146 0 00.041-.028.19.19 0 00.038-.049l.002-17.157a.129.129 0 00-.008-.049.127.127 0 00-.032-.042.13.13 0 00-.042-.029.225.225 0 00-.075-.011zm21.84 0v3.471a.668.668 0 00-.62.503l-2.153 5.786-.002.003a1.254 1.254 0 00-.085.424.703.703 0 00.473.684c.108.039.231.06.366.06h2.022v1.435h-3.013c-.232 0-.433.061-.602.181-.169.121-.29.293-.364.513l-1.456 4.055a.424.424 0 01-.141.205.404.404 0 01-.228.055h-1.941l5.669-14.874c.21-.572.315-1.067.315-1.483 0-.188-.02-.367-.057-.538a2.206 2.206 0 00-.164-.476l-.002-.004h1.984zm-52.72 11.957l-1.07 1.963a.182.182 0 00-.026.091v.008c.003.06.024.13.065.211l.005.006c.241.507.56.969.954 1.383.399.42.88.796 1.44 1.127a6.819 6.819 0 001.823.744c.66.167 1.375.251 2.14.251 1.817 0 3.253-.483 4.306-1.448a4.756 4.756 0 001.175-1.617c.26-.598.389-1.264.389-1.997 0-.777-.136-1.495-.41-2.152a5.164 5.164 0 00-1.143-1.723 13.42 13.42 0 00-.761-.705 9.622 9.622 0 00-.744-.575 14.37 14.37 0 00-.799-.515 18.13 18.13 0 00-.894-.503l-.168-.079-.227-.119a63.87 63.87 0 01-.934-.488 25.7 25.7 0 01-.703-.389 4.883 4.883 0 01-1.121-.905 2.29 2.29 0 01-.422-.632 1.754 1.754 0 01-.153-.711c0-.321.06-.614.177-.878.12-.268.3-.499.536-.69.23-.187.499-.325.806-.415.297-.086.625-.13.985-.13.404 0 .788.052 1.15.155.367.104.708.26 1.023.466.298.195.567.406.804.629.238.224.445.462.62.713.025.036.05.061.072.075l.03.011.916-1.523a.588.588 0 00.07-.259.13.13 0 00-.041-.084 5.444 5.444 0 00-2.002-1.208c-.79-.274-1.696-.411-2.72-.411-.765 0-1.468.101-2.109.303a5.557 5.557 0 00-1.731.897c-.508.389-.89.837-1.143 1.343a3.882 3.882 0 00-.393 1.711c.001.377.032.732.094 1.064.061.332.154.648.277.946a4.28 4.28 0 001.114 1.562 11.354 11.354 0 002.4 1.694c.325.178.679.36 1.059.546 1.2.59 2.087 1.132 2.663 1.626.325.278.57.603.734.973.161.368.243.774.243 1.215 0 .415-.073.794-.219 1.135-.147.346-.37.649-.663.906a2.849 2.849 0 01-1.041.569 4.44 4.44 0 01-1.311.18c-1.225 0-2.324-.433-3.294-1.299a6.039 6.039 0 01-1.174-1.405 5.56 5.56 0 01-.655-1.643zm88.676 5.313v-17.139a.128.128 0 00-.008-.049.14.14 0 00-.074-.071.22.22 0 00-.075-.011h-3.919c.204.294.359.632.464 1.011.111.403.167.849.167 1.337l.002 14.94a.208.208 0 00.038.047l.046.038 3.202.002a.223.223 0 00.075-.01.14.14 0 00.042-.028l.037-.047.003-.02zm-22.42-14.922l.002 14.94.038.047.046.038 3.176.002a.223.223 0 00.075-.01.154.154 0 00.042-.028l.037-.047.003-5.968c0-.217.029-.417.088-.598.063-.196.16-.366.288-.508l.262-.287c.404-.475.805-.457 1.198.054l5.223 6.997c.206.263.549.395 1.027.395h3.236l-7.416-9.717c-.373-.466-.362-.898.032-1.293l5.963-6.365h-2.076c-.21 0-.393.033-.549.1a1.076 1.076 0 00-.393.292c-1.838 2.143-3.908 4.176-5.762 6.313a.938.938 0 01-.277.197.577.577 0 01-.451.021.565.565 0 01-.331-.324l-.001-.004a.862.862 0 01-.061-.334v-6.13a.128.128 0 00-.008-.049.14.14 0 00-.074-.071.224.224 0 00-.075-.011h-3.893c.204.294.359.632.463 1.011.112.403.168.849.168 1.337zm-13.535 10.018v-1.435h1.97c.802 0 1.062-.39.78-1.168l-2.077-5.788a.707.707 0 00-.213-.348.62.62 0 00-.421-.157l-.04.001v-3.471h2.205c.115 0 .204.021.264.065a.473.473 0 01.154.237l6.48 17.073h-3.376a.414.414 0 01-.23-.055.442.442 0 01-.14-.207l-1.455-4.053c-.154-.462-.51-.694-1.07-.694h-2.831zm49.973-12.331v1.588a6.351 6.351 0 00-1.566-.187h-2.061c-.135 0-.265.027-.39.079a.92.92 0 00-.326.236.997.997 0 00-.207.337 1.127 1.127 0 00-.067.391v12.444c0 .138.023.269.069.39.05.131.122.246.218.339a.953.953 0 00.703.287h2.061a6.4 6.4 0 001.566-.187v1.588c-.299.023-.603.035-.913.035l-7.037-.002-.046-.038-.038-.047-.002-14.94c0-.488-.056-.934-.168-1.337a3.285 3.285 0 00-.463-1.011h7.754c.31 0 .614.011.913.035zM153 139.698v-17.143a.11.11 0 00-.008-.045.14.14 0 00-.074-.071.22.22 0 00-.075-.011h-3.919c.204.294.359.632.464 1.011.111.403.167.849.167 1.337l.002 14.94a.208.208 0 00.038.047l.046.038 3.202.002a.23.23 0 00.076-.01.149.149 0 00.041-.028l.038-.047.002-.02zm-16.21.07v-1.588c.317-.081.622-.187.915-.319a5.716 5.716 0 001.99-1.513 6.665 6.665 0 001.288-2.323c.282-.869.423-1.84.423-2.91 0-1.069-.141-2.04-.423-2.911a6.667 6.667 0 00-1.288-2.319 5.71 5.71 0 00-1.99-1.515 5.594 5.594 0 00-.915-.319v-1.588c2.23.176 4.124 1.01 5.681 2.501.882.844 1.543 1.778 1.983 2.798.438 1.017.658 2.127.658 3.327 0 1.22-.22 2.343-.658 3.369-.439 1.027-1.101 1.963-1.983 2.809-1.557 1.491-3.451 2.325-5.681 2.501z" fill="#2B2A29"/><path fill-rule="evenodd" clip-rule="evenodd" d="M92.94 101.496l1.603 4.966 5.218-.01-4.227 3.059 1.622 4.96-4.216-3.076-4.215 3.076 1.622-4.96-4.228-3.059 5.218.01 1.603-4.966z" fill="#DEC579"/><path fill-rule="evenodd" clip-rule="evenodd" d="M33.082 152.405h30.946v-.577H33.082v.577z" fill="#2B2A29"/><path d="M76.381 154.896l.225.348c-.309.311-.65.466-1.025.466-.287 0-.528-.076-.725-.229-.195-.155-.367-.422-.515-.807-.396.413-.744.688-1.044.828-.3.138-.66.208-1.081.208-.6 0-1.057-.129-1.368-.386a1.217 1.217 0 01-.47-.985c0-.604.358-1.106 1.072-1.507.715-.398 1.665-.665 2.853-.797v-.875c0-.311-.127-.578-.382-.801-.255-.222-.58-.333-.972-.333a1.87 1.87 0 00-.939.225c-.187.11-.28.22-.28.328 0 .062.05.159.151.293.123.165.183.311.183.441a.6.6 0 01-.183.455.645.645 0 01-.474.178.701.701 0 01-.523-.212.737.737 0 01-.21-.54c0-.411.234-.788.701-1.127.468-.342 1.081-.511 1.838-.511.702 0 1.236.148 1.605.447.368.301.553.668.553 1.098v3.174c0 .28.045.488.137.619.092.138.212.206.358.206.163 0 .335-.068.515-.204zm-2.078-2.454c-1.058.144-1.806.382-2.248.708-.328.25-.493.602-.493 1.057 0 .32.086.568.255.749.172.18.395.271.67.271.49 0 .915-.187 1.275-.558.36-.37.54-.834.54-1.394v-.833zm5.636-2.721l2.123-.102v2.349c.227-.774.5-1.357.817-1.753.32-.396.712-.596 1.182-.596.32 0 .574.096.765.289.191.19.286.449.286.769 0 .261-.065.464-.191.608a.616.616 0 01-.48.216.592.592 0 01-.457-.186c-.114-.123-.172-.291-.172-.502 0-.136.032-.263.099-.384a.754.754 0 00.094-.193c0-.061-.04-.093-.12-.093-.172 0-.365.099-.584.299-.3.277-.532.659-.695 1.142-.25.754-.377 1.356-.377 1.808v1.248c0 .14.05.248.15.322.101.074.275.112.517.112h.749v.471h-3.668v-.471h.586c.197 0 .347-.038.448-.114a.34.34 0 00.15-.278v-3.702c0-.282-.06-.487-.182-.619-.123-.129-.296-.195-.524-.195h-.516v-.445zm10.084-2.365h.424v2.365h1.905v.572h-1.905v3.741c0 .324.077.572.23.744a.749.749 0 00.583.258c.28 0 .521-.131.718-.394.2-.261.316-.693.348-1.297h.425c-.026.776-.204 1.35-.534 1.725-.33.375-.76.564-1.287.564-.485 0-.865-.132-1.14-.394-.274-.263-.41-.609-.41-1.037v-3.91h-1.03v-.434c.472-.078.832-.271 1.078-.577.367-.457.564-1.099.594-1.926zm7.705-1.106c.189 0 .354.07.495.212.144.14.215.305.215.496a.656.656 0 01-.208.485.676.676 0 01-.496.206.696.696 0 01-.501-.208.674.674 0 01.004-.979.675.675 0 01.49-.212zm-1.645 3.471l2.355-.063v5.001c0 .135.034.233.1.29a.542.542 0 00.365.125h.667v.471h-3.358v-.471h.624c.184 0 .32-.044.405-.133.086-.089.129-.219.129-.388v-3.66c0-.231-.067-.407-.202-.525-.135-.117-.335-.176-.598-.176h-.487v-.471zm7.577 3.637c.259.71.555 1.199.892 1.473.336.273.75.409 1.244.409.454 0 .804-.098 1.049-.295a.916.916 0 00.366-.746.77.77 0 00-.135-.453.798.798 0 00-.373-.293c-.161-.063-.573-.157-1.238-.282-.637-.123-1.08-.252-1.331-.39a1.466 1.466 0 01-.586-.561c-.139-.24-.21-.5-.21-.78 0-.426.144-.812.433-1.159.373-.441.897-.662 1.568-.662.51 0 .984.157 1.422.473l.416-.434h.257l.163 2.072h-.424c-.185-.587-.434-1.009-.749-1.265-.315-.258-.703-.388-1.164-.388-.399 0-.713.096-.94.288a.887.887 0 00-.339.702.73.73 0 00.316.604c.203.165.607.294 1.207.388.695.114 1.148.212 1.358.288.343.125.611.316.8.576.188.259.283.575.283.948 0 .512-.204.949-.614 1.305-.407.356-.926.534-1.555.534-.583 0-1.123-.187-1.623-.559l-.459.521h-.332l-.127-2.314h.425zm9.517-6.002h.425v2.365h1.904v.572h-1.904v3.741c0 .324.077.572.229.744a.75.75 0 00.584.258c.281 0 .521-.131.718-.394.2-.261.316-.693.348-1.297h.424c-.025.776-.203 1.35-.534 1.725-.33.375-.759.564-1.286.564-.485 0-.865-.132-1.139-.394-.275-.263-.412-.609-.412-1.037v-3.91h-1.03v-.434c.472-.078.833-.271 1.079-.577.367-.457.564-1.099.594-1.926z" fill="#2B2A29"/><path fill-rule="evenodd" clip-rule="evenodd" d="M121.972 152.436h30.946v-.577h-30.946v.577z" fill="#2B2A29"/></svg>