<svg width="186" height="169" fill="none" xmlns="http://www.w3.org/2000/svg"><path fill-rule="evenodd" clip-rule="evenodd" d="M118.555 73.58c-2.328-2.006-4.944-.96-4.944-.96s-.648 2.741 1.68 4.748c2.328 2.006 6.75 2.517 6.75 2.517s-1.158-4.298-3.486-6.304zM68.013 31.05c2.327 2.006 4.944.96 4.944.96s.648-2.74-1.68-4.747c-2.328-2.006-6.75-2.518-6.75-2.518s1.158 4.299 3.486 6.305zm0 42.532c2.327-2.007 4.943-.961 4.943-.961s.648 2.741-1.68 4.748c-2.328 2.006-6.75 2.517-6.75 2.517s1.159-4.298 3.487-6.304zm38.326-20.251c-1.286 0-2.827-1.046-2.827-1.046s1.541-1.046 2.827-1.046 1.83 1.046 1.83 1.046-.544 1.046-1.83 1.046zm7.694-3.042c2.454 0 5.395 1.996 5.395 1.996s-2.941 1.996-5.395 1.996c-2.454 0-3.492-1.996-3.492-1.996s1.038-1.996 3.492-1.996zm21.382 2.164c-.005.008-1.489 2.864-4.996 2.864-3.399 0-7.422-2.73-7.433-2.738l-.437-.295.437-.294c.011-.008 4.034-2.739 7.433-2.739 3.507 0 4.991 2.857 4.996 2.865l.09.168-.09.169zm-4.996 2.152c-2.52 0-5.455-1.637-6.572-2.32 1.117-.684 4.052-2.32 6.572-2.32 2.592 0 3.914 1.76 4.27 2.32-.356.559-1.678 2.32-4.27 2.32zm-20.456-3.055c3.194-3.266 7.955-1.374 11.265.735-3.873 2.468-8.102 3.858-11.265.735a5.015 5.015 0 01-.539-.735 5.01 5.01 0 01.539-.735zm-1.98 2.154c.269-.44.562-.834.879-1.184 1.433 1.452 3.059 2.697 5.202 2.697 3.448 0 7.552-2.785 7.564-2.792l.207-.14-.207-.14c-.012-.007-4.116-2.792-7.564-2.792-2.144 0-3.768 1.246-5.202 2.697a7.883 7.883 0 01-.879-1.184c-.408-.666-.684-1.327-.825-1.984-.142-.655-.164-1.267-.066-1.835.098-.567.298-1.08.599-1.538a3.658 3.658 0 011.155-1.115c.901-.552 1.789-.769 2.667-.65.877.119 1.757.403 2.64.853.882.45 1.781.977 2.695 1.58a16.893 16.893 0 002.817 1.506c.964.4 1.956.616 2.977.646 1.022.03 2.1-.302 3.234-.997a5.305 5.305 0 001.666-1.615c.445-.668.746-1.41.903-2.224.158-.815.152-1.672-.015-2.573-.168-.9-.522-1.79-1.062-2.673a6.658 6.658 0 00-1.623-1.83 7.697 7.697 0 00-1.892-1.087c-.633-.244-1.228-.368-1.788-.372-.559-.004-1.01.1-1.352.309-.54.33-.88.786-1.02 1.367-.139.58-.044 1.14.287 1.681.331.54.787.88 1.368 1.02.581.14 1.141.043 1.682-.287.54-.331.879-.787 1.019-1.368.139-.58.044-1.14-.287-1.681a1.085 1.085 0 00-.16-.2l-.186-.183c-.063-.06-.13-.13-.203-.21.457.14.915.343 1.374.607.408.22.834.523 1.28.906.445.384.856.881 1.23 1.493.376.613.62 1.224.734 1.835a5.08 5.08 0 01.049 1.717 3.844 3.844 0 01-.535 1.46c-.275.44-.61.783-1.007 1.025-.9.551-1.788.768-2.666.65a8.255 8.255 0 01-2.64-.853 28.015 28.015 0 01-2.695-1.58 16.969 16.969 0 00-2.817-1.507 8.279 8.279 0 00-2.991-.637c-1.031-.025-2.104.305-3.22.989a5.875 5.875 0 00-1.82 1.728 5.99 5.99 0 00-.946 2.306c-.155.838-.142 1.728.038 2.67.181.941.558 1.88 1.132 2.817.286.468.596.886.926 1.253-.33.367-.639.785-.926 1.254-.574.936-.951 1.875-1.132 2.817-.18.942-.193 1.831-.038 2.669.155.838.47 1.607.946 2.306a5.879 5.879 0 001.82 1.729c1.116.684 2.189 1.013 3.22.988a8.254 8.254 0 002.991-.637 16.976 16.976 0 002.817-1.506 27.932 27.932 0 012.695-1.58c.882-.45 1.762-.735 2.64-.853.878-.12 1.766.097 2.666.649.397.242.732.585 1.007 1.025.274.44.453.928.535 1.46a5.074 5.074 0 01-.049 1.717c-.114.61-.358 1.222-.734 1.834-.374.612-.785 1.11-1.23 1.494a7.406 7.406 0 01-1.28.906 6.779 6.779 0 01-1.374.606 7.22 7.22 0 01.203-.21l.186-.183a1.05 1.05 0 00.16-.199c.331-.54.426-1.1.287-1.681-.14-.58-.479-1.037-1.019-1.368-.541-.33-1.101-.426-1.682-.287-.581.14-1.037.48-1.368 1.02-.331.54-.426 1.1-.287 1.68.14.582.48 1.038 1.02 1.369.342.209.793.312 1.352.308.56-.004 1.155-.128 1.788-.372a7.7 7.7 0 001.892-1.088 6.645 6.645 0 001.623-1.83c.54-.881.894-1.772 1.062-2.673.167-.9.173-1.757.015-2.572a6.033 6.033 0 00-.903-2.224 5.31 5.31 0 00-1.666-1.616c-1.134-.694-2.212-1.027-3.234-.996a8.333 8.333 0 00-2.977.646c-.963.4-1.902.902-2.817 1.505a28.036 28.036 0 01-2.695 1.58c-.883.45-1.763.735-2.64.854-.878.118-1.766-.098-2.667-.65a3.66 3.66 0 01-1.155-1.116 4 4 0 01-.599-1.538c-.098-.567-.076-1.179.066-1.834.141-.656.417-1.318.825-1.984zm-27.755-2.465c1.285 0 2.827 1.046 2.827 1.046s-1.542 1.046-2.827 1.046c-1.286 0-1.83-1.046-1.83-1.046s.544-1.046 1.83-1.046zm-7.693 3.042c-2.455 0-5.396-1.996-5.396-1.996s2.941-1.996 5.396-1.996c2.454 0 3.491 1.996 3.491 1.996s-1.037 1.996-3.491 1.996zm-21.382-2.165c.004-.007 1.49-2.864 4.995-2.864 3.4 0 7.422 2.73 7.434 2.738l.436.295-.436.295c-.012.008-4.035 2.738-7.434 2.738-3.506 0-4.991-2.856-4.995-2.864l-.09-.169.09-.169zm4.995-2.152c2.52 0 5.456 1.637 6.572 2.321-1.116.685-4.051 2.321-6.572 2.321-2.591 0-3.915-1.762-4.27-2.32.355-.56 1.679-2.322 4.27-2.322zm20.457 3.055c-3.195 3.267-7.956 1.374-11.265-.734 3.873-2.468 8.102-3.858 11.265-.735.286.328.463.605.54.735a5.01 5.01 0 01-.54.734zm1.98-2.154c-.27.44-.563.835-.879 1.185-1.433-1.452-3.06-2.697-5.202-2.697-3.449 0-7.553 2.785-7.564 2.792l-.208.14.208.139c.01.008 4.115 2.793 7.564 2.793 2.144 0 3.767-1.246 5.202-2.697.316.35.61.744.878 1.183.408.667.684 1.328.825 1.985.142.655.165 1.267.066 1.835a3.977 3.977 0 01-.6 1.537c-.3.458-.686.83-1.154 1.116-.9.552-1.788.768-2.667.65-.877-.12-1.757-.404-2.639-.854a27.981 27.981 0 01-2.695-1.58 16.856 16.856 0 00-2.817-1.505 8.33 8.33 0 00-2.978-.646c-1.022-.031-2.099.301-3.234.997a5.309 5.309 0 00-1.666 1.614 6.027 6.027 0 00-.903 2.225c-.157.815-.152 1.672.015 2.572.168.9.523 1.792 1.063 2.674a6.637 6.637 0 001.622 1.83c.63.48 1.26.843 1.892 1.087.633.244 1.228.368 1.788.372.56.003 1.01-.099 1.353-.31.54-.33.88-.785 1.019-1.366.14-.58.044-1.141-.288-1.681-.33-.54-.786-.88-1.367-1.02-.58-.14-1.14-.044-1.68.287-.541.33-.881.787-1.02 1.368-.14.58-.044 1.14.287 1.681.045.072.097.138.16.2l.186.183c.062.06.13.13.203.21a6.795 6.795 0 01-1.375-.607 7.407 7.407 0 01-1.28-.906c-.445-.383-.855-.882-1.23-1.494s-.62-1.224-.734-1.835a5.1 5.1 0 01-.048-1.715c.082-.534.26-1.02.535-1.461a3.09 3.09 0 011.006-1.025c.9-.552 1.789-.768 2.667-.65.878.119 1.757.403 2.639.853.883.45 1.781.977 2.695 1.58a16.95 16.95 0 002.817 1.507c.964.4 1.96.613 2.991.637 1.031.025 2.105-.305 3.221-.988a5.869 5.869 0 001.82-1.729c.475-.7.79-1.468.945-2.306.156-.838.143-1.727-.038-2.67-.18-.941-.558-1.88-1.132-2.816a8.43 8.43 0 00-.926-1.254c.33-.367.64-.785.926-1.254.574-.936.951-1.875 1.132-2.817.18-.942.194-1.832.038-2.67a5.994 5.994 0 00-.946-2.305 5.87 5.87 0 00-1.819-1.729c-1.117-.684-2.19-1.013-3.22-.988a8.25 8.25 0 00-2.992.637c-.962.401-1.901.903-2.817 1.507a27.916 27.916 0 01-2.695 1.58c-.882.45-1.761.734-2.639.852-.878.118-1.767-.098-2.667-.649a3.091 3.091 0 01-1.006-1.025 3.847 3.847 0 01-.535-1.46 5.106 5.106 0 01.048-1.717c.115-.61.36-1.222.734-1.835.375-.611.785-1.11 1.23-1.493a7.426 7.426 0 011.28-.906 6.702 6.702 0 011.375-.607c-.073.079-.14.149-.203.21l-.186.183a1.01 1.01 0 00-.16.2c-.33.54-.427 1.1-.287 1.68.139.582.479 1.038 1.02 1.369.54.33 1.1.426 1.68.287.58-.14 1.037-.48 1.367-1.02.332-.54.428-1.1.288-1.681-.14-.58-.479-1.036-1.02-1.368-.341-.208-.792-.312-1.352-.309-.56.005-1.155.128-1.788.373a7.683 7.683 0 00-1.892 1.087 6.631 6.631 0 00-1.622 1.83c-.54.882-.895 1.774-1.063 2.673a6.878 6.878 0 00-.015 2.573c.157.814.458 1.556.903 2.224.444.67 1 1.207 1.666 1.615 1.135.695 2.212 1.028 3.234.997a8.34 8.34 0 002.978-.646c.963-.4 1.901-.902 2.817-1.506a27.86 27.86 0 012.695-1.58c.882-.45 1.762-.734 2.64-.853.878-.119 1.766.099 2.666.65a3.65 3.65 0 011.155 1.115c.301.458.502.97.599 1.538.099.568.077 1.18-.066 1.835-.141.656-.417 1.317-.825 1.983zM92.237 65.34c0 1.287 1.046 1.83 1.046 1.83s1.046-.543 1.046-1.83c0-1.286-1.046-2.827-1.046-2.827s-1.046 1.541-1.046 2.827zm3.042 7.694c0-2.455-1.996-3.492-1.996-3.492s-1.996 1.037-1.996 3.492c0 2.454 1.996 5.395 1.996 5.395s1.996-2.941 1.996-5.395zm-2.164 21.381l.168.09.169-.09c.008-.004 2.864-1.488 2.864-4.994 0-3.4-2.73-7.423-2.738-7.434l-.295-.438-.295.438c-.007.01-2.738 4.034-2.738 7.434 0 3.506 2.857 4.99 2.865 4.994zm-2.152-4.994c0 2.59 1.76 3.913 2.32 4.269.56-.355 2.32-1.679 2.32-4.27 0-2.52-1.636-5.455-2.32-6.572-.684 1.117-2.32 4.052-2.32 6.573zm3.054-20.457a5.001 5.001 0 00-.734-.54c-.13.077-.408.254-.735.54-3.123 3.163-1.733 7.392.735 11.264 2.11-3.31 4.001-8.07.734-11.264zm-2.153-1.98c-.666-.408-1.328-.683-1.983-.825-.656-.142-1.268-.164-1.836-.066a3.991 3.991 0 00-1.537.6c-.457.301-.83.686-1.116 1.154-.552.9-.768 1.79-.65 2.667.119.877.403 1.757.853 2.64.45.882.977 1.78 1.58 2.695a16.867 16.867 0 011.506 2.817c.4.963.615 1.956.646 2.977.03 1.022-.302 2.1-.996 3.234a5.32 5.32 0 01-1.616 1.666 6.055 6.055 0 01-2.224.903c-.815.158-1.672.152-2.573-.015-.9-.168-1.791-.522-2.673-1.062a6.636 6.636 0 01-1.83-1.623 7.691 7.691 0 01-1.087-1.892c-.244-.632-.368-1.228-.372-1.788-.004-.56.099-1.01.308-1.352.331-.54.787-.88 1.368-1.02.58-.14 1.141-.044 1.681.287.54.331.88.787 1.02 1.368.14.58.044 1.141-.288 1.681-.33.54-.786.88-1.367 1.02-.58.139-1.141.043-1.681-.288a1.023 1.023 0 01-.2-.159l-.183-.186a7.103 7.103 0 00-.21-.203c.141.457.343.916.606 1.375.222.407.523.833.907 1.279.383.445.881.855 1.493 1.23.612.375 1.224.62 1.835.734a5.1 5.1 0 001.716.049 3.835 3.835 0 001.461-.535c.44-.275.782-.61 1.025-1.007.552-.9.768-1.789.65-2.666-.12-.877-.404-1.758-.853-2.64a28.095 28.095 0 00-1.58-2.695 16.91 16.91 0 01-1.507-2.817 8.251 8.251 0 01-.637-2.991c-.025-1.03.305-2.104.988-3.22a5.899 5.899 0 011.728-1.82 5.997 5.997 0 012.307-.946c.838-.155 1.727-.142 2.67.039.94.18 1.88.557 2.817 1.13.468.288.886.597 1.253.927.367-.33.785-.64 1.253-.927.937-.573 1.875-.95 2.817-1.13.942-.181 1.832-.194 2.67-.039.838.155 1.607.47 2.307.945a5.897 5.897 0 011.727 1.82c.684 1.117 1.014 2.19.989 3.22a8.26 8.26 0 01-.638 2.992 16.83 16.83 0 01-1.506 2.817 28.082 28.082 0 00-1.58 2.695c-.45.882-.734 1.763-.853 2.64-.118.877.098 1.766.65 2.666.242.397.584.732 1.025 1.007.441.275.928.453 1.46.535a5.084 5.084 0 001.716-.049c.612-.114 1.223-.359 1.835-.734.613-.375 1.11-.785 1.494-1.23a7.42 7.42 0 00.906-1.28c.264-.459.465-.917.606-1.374a6.47 6.47 0 00-.21.203l-.183.186a1.05 1.05 0 01-.199.16c-.54.33-1.101.426-1.681.287-.581-.14-1.037-.48-1.368-1.02-.331-.54-.426-1.1-.287-1.681.139-.58.479-1.037 1.019-1.368.541-.33 1.101-.427 1.682-.287.58.14 1.036.48 1.368 1.02.209.342.311.792.308 1.352-.004.56-.128 1.156-.372 1.788a7.705 7.705 0 01-1.088 1.892 6.636 6.636 0 01-1.829 1.623c-.883.54-1.774.894-2.673 1.062-.901.167-1.758.173-2.573.015a6.053 6.053 0 01-2.225-.903 5.319 5.319 0 01-1.615-1.666c-.695-1.134-1.027-2.212-.996-3.234a8.335 8.335 0 01.646-2.977c.4-.963.901-1.903 1.505-2.817a28.025 28.025 0 001.581-2.695c.45-.883.734-1.763.853-2.64.118-.878-.099-1.767-.65-2.667a3.66 3.66 0 00-1.116-1.155 3.997 3.997 0 00-1.537-.599c-.568-.098-1.18-.076-1.836.066-.656.142-1.317.417-1.984.825-.439.27-.833.562-1.183.879 1.451 1.434 2.697 3.058 2.697 5.202 0 3.449-2.785 7.552-2.793 7.564l-.14.207-.139-.207c-.007-.012-2.792-4.115-2.792-7.564 0-2.143 1.245-3.77 2.697-5.202a7.88 7.88 0 00-1.184-.88zm2.465-27.755c0-1.286-1.046-1.83-1.046-1.83s-1.046.544-1.046 1.83c0 1.285 1.046 2.828 1.046 2.828s1.046-1.543 1.046-2.828zm-3.043-7.693c0 2.454 1.997 3.491 1.997 3.491s1.996-1.038 1.996-3.491c0-2.454-1.996-5.396-1.996-5.396s-1.997 2.942-1.997 5.396zm2.165-21.382l-.168-.09-.169.09c-.008.004-2.864 1.489-2.864 4.995 0 3.4 2.73 7.422 2.738 7.434l.295.436.295-.436c.008-.012 2.737-4.035 2.737-7.434 0-3.505-2.856-4.991-2.864-4.995zm2.152 4.995c0-2.591-1.76-3.915-2.32-4.27-.56.355-2.322 1.679-2.322 4.27 0 2.52 1.637 5.456 2.322 6.572.684-1.116 2.32-4.051 2.32-6.572zM92.55 35.605c.326.286.605.463.734.539.13-.076.407-.253.734-.54 3.124-3.162 1.733-7.391-.734-11.264-2.109 3.31-4.001 8.07-.734 11.265zm2.153 1.98c.666.407 1.328.683 1.983.824.656.142 1.268.164 1.836.066a3.986 3.986 0 001.537-.6 3.666 3.666 0 001.117-1.154c.55-.9.767-1.788.649-2.666-.119-.878-.403-1.758-.853-2.64a27.927 27.927 0 00-1.58-2.695 16.875 16.875 0 01-1.506-2.817 8.349 8.349 0 01-.646-2.977c-.031-1.022.301-2.1.997-3.235a5.304 5.304 0 011.615-1.666 6.023 6.023 0 012.224-.903c.814-.157 1.672-.151 2.573.015.899.168 1.79.523 2.673 1.063a6.643 6.643 0 011.829 1.622c.482.63.844 1.26 1.088 1.892.244.633.368 1.228.372 1.788.004.56-.1 1.01-.308 1.352-.332.541-.788.88-1.368 1.02-.581.14-1.141.044-1.681-.288-.54-.33-.88-.786-1.02-1.367-.139-.58-.044-1.14.287-1.681.331-.54.787-.88 1.368-1.02.581-.139 1.141-.043 1.681.288.072.045.139.097.2.16.061.06.121.124.182.186.062.062.132.13.21.202a6.685 6.685 0 00-.606-1.374 7.435 7.435 0 00-.906-1.28c-.383-.445-.882-.855-1.494-1.23s-1.224-.62-1.834-.734a5.091 5.091 0 00-1.716-.049 3.844 3.844 0 00-1.461.536c-.441.275-.782.61-1.025 1.007-.551.899-.768 1.788-.649 2.666.119.877.402 1.757.852 2.639.45.883.977 1.781 1.58 2.696a16.836 16.836 0 011.506 2.816 8.24 8.24 0 01.638 2.991c.025 1.031-.304 2.105-.988 3.221a5.887 5.887 0 01-1.728 1.82c-.7.475-1.469.79-2.307.946-.838.155-1.728.142-2.67-.04-.942-.18-1.88-.557-2.817-1.13a8.56 8.56 0 01-1.253-.927c-.367.33-.785.64-1.253.927-.937.573-1.876.95-2.817 1.13-.943.182-1.832.195-2.67.04a6.004 6.004 0 01-2.306-.947 5.88 5.88 0 01-1.729-1.819c-.683-1.116-1.013-2.19-.988-3.22a8.235 8.235 0 01.637-2.992c.4-.962.903-1.902 1.507-2.816a27.995 27.995 0 001.58-2.696c.45-.882.734-1.762.853-2.639.118-.878-.098-1.767-.65-2.666a3.09 3.09 0 00-1.025-1.007 3.846 3.846 0 00-1.46-.536 5.088 5.088 0 00-1.716.049c-.612.115-1.224.36-1.836.734-.612.375-1.11.785-1.493 1.23a7.402 7.402 0 00-.906 1.28 6.755 6.755 0 00-.606 1.374 7.27 7.27 0 00.21-.202l.182-.186c.062-.063.127-.115.2-.16.54-.331 1.1-.427 1.68-.288.581.14 1.038.48 1.368 1.02.332.54.428 1.101.288 1.681-.14.58-.48 1.037-1.02 1.367-.54.332-1.1.428-1.681.288-.58-.14-1.037-.479-1.367-1.02-.21-.341-.313-.792-.31-1.352.005-.56.13-1.155.373-1.788a7.67 7.67 0 011.088-1.892 6.642 6.642 0 011.83-1.622c.88-.54 1.773-.895 2.673-1.063.9-.166 1.757-.172 2.572-.015a6.029 6.029 0 012.224.903c.669.444 1.208 1 1.615 1.666.695 1.135 1.028 2.213.997 3.235a8.334 8.334 0 01-.646 2.977 16.83 16.83 0 01-1.506 2.817 27.854 27.854 0 00-1.58 2.695 8.243 8.243 0 00-.853 2.64c-.118.877.098 1.766.65 2.666.287.468.658.853 1.116 1.155.457.302.97.502 1.537.6.568.097 1.18.075 1.835-.067.657-.141 1.318-.416 1.984-.825a7.89 7.89 0 001.184-.878c-1.45-1.435-2.697-3.058-2.697-5.203 0-3.448 2.785-7.552 2.793-7.563l.139-.208.14.208c.007.01 2.792 4.115 2.792 7.563 0 2.144-1.245 3.77-2.697 5.203.35.316.745.61 1.184.878zm23.852-6.536c-2.328 2.006-4.943.96-4.943.96s-.648-2.74 1.68-4.747c2.327-2.006 6.749-2.517 6.749-2.517s-1.158 4.298-3.486 6.304z" fill="#2B2A29"/><path fill-rule="evenodd" clip-rule="evenodd" d="M125.108 20.459c-8.144-8.145-19.396-13.183-31.824-13.183s-23.68 5.038-31.825 13.183c-8.145 8.144-13.183 19.396-13.183 31.824 0 12.429 5.038 23.681 13.183 31.825 8.144 8.145 19.397 13.183 31.825 13.183s23.68-5.038 31.824-13.183c8.145-8.144 13.183-19.396 13.183-31.825 0-12.428-5.038-23.68-13.183-31.824zM94.149 5.543h-1.73c-12.566.228-23.922 5.413-32.192 13.684-8.46 8.46-13.693 20.147-13.693 33.056 0 12.91 5.233 24.598 13.693 33.057 8.46 8.46 20.148 13.693 33.057 13.693 12.909 0 24.597-5.233 33.057-13.693 8.459-8.46 13.692-20.147 13.692-33.057 0-12.909-5.233-24.596-13.692-33.056-8.27-8.27-19.626-13.456-32.192-13.684z" fill="#2B2A29"/><path d="M93.284 0c14.437 0 27.508 5.852 36.97 15.314 9.461 9.461 15.313 22.532 15.313 36.97 0 14.437-5.852 27.508-15.313 36.97-9.462 9.461-22.533 15.313-36.97 15.313-14.438 0-27.509-5.852-36.97-15.313C46.852 79.792 41 66.72 41 52.284c0-14.438 5.852-27.509 15.314-36.97C65.775 5.852 78.846 0 93.284 0zm34.142 18.14C118.689 9.404 106.617 4 93.284 4 79.95 4 67.879 9.404 59.141 18.142S44.999 38.95 44.999 52.284c0 13.333 5.404 25.405 14.142 34.142 8.738 8.738 20.809 14.142 34.143 14.142 13.333 0 25.405-5.404 34.142-14.142 8.738-8.737 14.142-20.809 14.142-34.142 0-13.334-5.404-25.405-14.142-34.143z" fill="#F8C9C1"/><path fill-rule="evenodd" clip-rule="evenodd" d="M88.56 61.29h-.48v-6.002h.48c.594 3.33 2.33 4.993 5.207 4.993.995 0 1.823-.267 2.484-.801.66-.534.994-1.221.994-2.063 0-.948-.487-1.789-1.455-2.53-2.297-1.342-4.179-2.49-5.66-3.458-1.476-.968-2.211-2.25-2.211-3.839 0-1.315.487-2.41 1.476-3.284.981-.881 2.196-1.322 3.644-1.322.942 0 1.923.227 2.958.681.487.22.828.328 1.022.328.453 0 .747-.341.894-1.009h.474v6.055h-.474c-.254-1.789-.841-3.07-1.756-3.851-.921-.782-1.949-1.169-3.084-1.169-.848 0-1.582.26-2.19.781-.607.514-.914 1.148-.914 1.896 0 .488.207 1.001.62 1.543.415.547 1.663 1.381 3.745 2.496 1.276.688 2.244 1.248 2.904 1.689a5.692 5.692 0 011.643 1.716c.44.7.66 1.461.66 2.283 0 1.395-.527 2.55-1.588 3.477-1.055.929-2.364 1.39-3.912 1.39-.841 0-1.883-.207-3.124-.615-.761-.254-1.289-.38-1.576-.38-.42 0-.68.327-.78.994zm-13.925 89.481v-17.138a.126.126 0 00-.008-.049.148.148 0 00-.074-.071.226.226 0 00-.075-.011h-3.919c.204.294.359.632.464 1.011a5 5 0 01.168 1.337l.002 14.939a.202.202 0 00.037.047l.046.038 3.202.002a.225.225 0 00.076-.011.146.146 0 00.041-.027l.037-.048.003-.019zm-9.662-17.269H61.87a.223.223 0 00-.075.011.131.131 0 00-.042.027.165.165 0 00-.033.044l-.007.049v6.652a.98.98 0 01-.3.717 1.041 1.041 0 01-.31.216.91.91 0 01-.38.083h-5.74c-.307 0-.551-.094-.73-.282-.173-.181-.26-.426-.26-.734v-6.652a.134.134 0 00-.008-.049.131.131 0 00-.032-.042.125.125 0 00-.042-.029.224.224 0 00-.075-.011h-3.893c.204.294.359.632.464 1.011.112.403.168.849.168 1.337l.001 14.939.038.047.046.038 3.176.002a.224.224 0 00.075-.011.147.147 0 00.042-.027.177.177 0 00.037-.049l.003-7.061c0-.678.33-1.017.99-1.017h5.74a.93.93 0 01.378.082 1.06 1.06 0 01.533.545c.052.125.08.255.08.39v7.061l.039.047a.127.127 0 00.042.029.218.218 0 00.075.011h3.104a.222.222 0 00.076-.011.143.143 0 00.042-.027.19.19 0 00.037-.049l.002-17.156a.129.129 0 00-.007-.049.126.126 0 00-.032-.042.13.13 0 00-.042-.029.224.224 0 00-.076-.011zm21.839 0v3.471a.667.667 0 00-.62.503l-2.153 5.785-.002.003a1.262 1.262 0 00-.086.424.73.73 0 00.122.415.696.696 0 00.352.269c.108.04.23.06.366.06h2.021v1.435H83.8c-.232 0-.433.061-.602.182a.995.995 0 00-.365.512l-1.455 4.054a.427.427 0 01-.141.206.404.404 0 01-.228.055h-1.941l5.669-14.873c.21-.572.314-1.067.314-1.483a2.52 2.52 0 00-.056-.537 2.174 2.174 0 00-.165-.476l-.002-.005h1.984zm-52.717 11.956l-1.069 1.963a.182.182 0 00-.026.091v.008c.003.06.024.13.065.211l.005.006c.241.507.56.969.954 1.383.399.42.88.795 1.44 1.127a6.852 6.852 0 001.823.744 8.71 8.71 0 002.14.25c1.816 0 3.252-.483 4.306-1.447a4.756 4.756 0 001.174-1.617c.26-.598.389-1.264.389-1.997 0-.777-.136-1.495-.41-2.152a5.218 5.218 0 00-1.143-1.723 13.762 13.762 0 00-.761-.705 9.836 9.836 0 00-.743-.574 14.374 14.374 0 00-.8-.516 18.995 18.995 0 00-.893-.502l-.169-.079-.226-.119a54.38 54.38 0 01-.934-.489c-.29-.156-.526-.285-.704-.388a4.772 4.772 0 01-1.12-.905 2.308 2.308 0 01-.423-.632 1.76 1.76 0 01-.152-.711c0-.321.06-.614.177-.878.12-.268.3-.499.535-.69.23-.186.5-.325.806-.415.297-.086.625-.129.986-.129.403 0 .787.051 1.15.154.367.104.708.26 1.022.466.298.195.567.406.804.629.238.224.445.462.62.713.025.036.05.061.072.075l.03.011.917-1.523a.588.588 0 00.07-.259.13.13 0 00-.042-.084 5.428 5.428 0 00-2.002-1.207c-.79-.275-1.696-.411-2.72-.411-.764 0-1.468.1-2.108.302a5.556 5.556 0 00-1.732.897c-.507.389-.888.837-1.142 1.343a3.882 3.882 0 00-.394 1.71c.002.378.033.733.095 1.065.061.332.154.648.277.946.122.293.275.571.46.831.187.262.406.507.654.731.526.476 1.041.874 1.543 1.193.256.162.542.329.856.501.326.177.68.36 1.06.545 1.199.59 2.086 1.132 2.662 1.626.325.279.57.603.734.973.161.368.244.774.244 1.215 0 .415-.073.794-.22 1.135-.147.346-.37.648-.663.905-.29.255-.639.445-1.041.57a4.43 4.43 0 01-1.31.18c-1.226 0-2.324-.433-3.295-1.299a6.036 6.036 0 01-1.173-1.405 5.546 5.546 0 01-.655-1.643zm88.669 5.313v-17.138a.128.128 0 00-.008-.049.125.125 0 00-.031-.043.154.154 0 00-.042-.028.23.23 0 00-.076-.011h-3.918c.204.294.358.632.463 1.011.112.403.168.849.168 1.337l.002 14.939a.202.202 0 00.038.047l.046.038 3.201.002a.222.222 0 00.076-.011.133.133 0 00.041-.027l.038-.048.002-.019zm-22.418-14.921l.002 14.939.038.047.046.038 3.176.002a.22.22 0 00.075-.011.138.138 0 00.042-.027l.037-.048.003-5.967c0-.217.03-.416.088-.597.063-.197.16-.366.288-.509l.262-.287c.404-.475.805-.456 1.198.054l5.222 6.997c.206.263.549.395 1.028.395h3.236l-7.416-9.716c-.373-.467-.362-.899.032-1.293l5.962-6.365h-2.075c-.21 0-.394.033-.55.1-.15.065-.282.163-.392.292-1.838 2.143-3.908 4.176-5.762 6.313a.938.938 0 01-.277.197.577.577 0 01-.782-.304l-.001-.003a.865.865 0 01-.061-.334v-6.13a.128.128 0 00-.008-.049.14.14 0 00-.074-.071.22.22 0 00-.075-.011h-3.893c.204.294.359.632.464 1.011.112.403.167.849.167 1.337zm-13.534 10.017v-1.435h1.97c.803 0 1.063-.39.78-1.168l-2.076-5.787a.706.706 0 00-.213-.348.62.62 0 00-.421-.157l-.04.001v-3.471h2.205c.114 0 .203.022.264.065a.474.474 0 01.154.237l6.48 17.072h-3.377a.414.414 0 01-.23-.055.442.442 0 01-.14-.207l-1.455-4.053c-.154-.462-.51-.694-1.07-.694h-2.831zm49.969-12.33v1.588a6.397 6.397 0 00-1.565-.187h-2.061a1 1 0 00-.39.079.92.92 0 00-.326.236.997.997 0 00-.207.337 1.128 1.128 0 00-.068.391v12.443c0 .138.023.269.07.389a.916.916 0 00.218.34.957.957 0 00.703.287h2.061c.55 0 1.072-.063 1.565-.188v1.589c-.298.023-.603.035-.913.035l-7.036-.002-.046-.038-.038-.047-.002-14.939c0-.488-.056-.934-.168-1.337a3.285 3.285 0 00-.463-1.011h7.753c.31 0 .615.012.913.035zm16.209 17.234v-17.142a.113.113 0 00-.008-.045.14.14 0 00-.074-.071.22.22 0 00-.075-.011h-3.919c.204.294.359.632.464 1.011.112.403.167.849.167 1.337l.003 14.939a.191.191 0 00.037.047l.046.038 3.202.002a.216.216 0 00.075-.011.138.138 0 00.042-.027l.037-.048.003-.019zm-16.209.07v-1.589c.317-.08.623-.186.915-.318a5.716 5.716 0 001.99-1.513 6.654 6.654 0 001.288-2.322c.282-.87.423-1.84.423-2.91s-.141-2.04-.423-2.911a6.667 6.667 0 00-1.288-2.319 5.7 5.7 0 00-1.99-1.515 5.561 5.561 0 00-.915-.319v-1.588c2.23.176 4.124 1.01 5.681 2.501.881.844 1.543 1.778 1.983 2.798.438 1.017.658 2.126.658 3.327 0 1.219-.22 2.342-.658 3.368-.439 1.027-1.101 1.963-1.983 2.809-1.557 1.491-3.451 2.325-5.681 2.501zM33.083 163.467h11.034v-.576H33.083v.576z" fill="#2B2A29"/><path d="M52.196 160.685c.094.428.147.841.164 1.238.286-.45.587-.768.903-.956.316-.189.66-.282 1.034-.282.399 0 .781.123 1.144.367.363.243.657.601.884 1.072.226.47.34 1.002.34 1.593 0 .948-.278 1.719-.835 2.314-.462.496-1.012.744-1.657.744-.365 0-.694-.093-.989-.278-.296-.186-.557-.461-.785-.83v2.354c0 .182.042.309.13.386.11.099.267.148.465.148h.43V169h-3.126v-.445h.429c.199 0 .348-.04.446-.119.1-.078.15-.182.15-.309v-6.12c0-.286-.069-.487-.205-.606-.137-.116-.41-.182-.82-.195v-.419l1.898-.102zm1.81.547c-.452 0-.834.218-1.148.654-.314.437-.472 1.066-.472 1.895 0 .835.151 1.451.455 1.85.303.398.691.597 1.161.597.44 0 .78-.169 1.016-.51.303-.45.455-1.106.455-1.969 0-.907-.137-1.551-.412-1.939-.273-.385-.626-.578-1.055-.578zm6.283-.445l2.113-.102v2.348c.227-.774.498-1.356.814-1.753.318-.396.709-.595 1.176-.595.318 0 .572.095.762.288.19.191.284.449.284.769 0 .261-.064.464-.19.609a.612.612 0 01-.478.216.59.59 0 01-.455-.187c-.113-.123-.17-.29-.17-.502 0-.136.032-.263.098-.384a.763.763 0 00.094-.192c0-.062-.041-.094-.12-.094-.17 0-.363.1-.58.299-.3.278-.53.659-.693 1.142-.25.755-.375 1.356-.375 1.808v1.248c0 .14.049.248.15.322.1.074.273.112.514.112h.745v.471h-3.65v-.471h.582c.196 0 .346-.038.446-.114a.34.34 0 00.15-.278v-3.702c0-.281-.06-.487-.182-.618-.121-.13-.294-.195-.52-.195h-.515v-.445zm11.254-.166c.79 0 1.452.282 1.988.846.536.564.805 1.307.805 2.227 0 .638-.12 1.18-.36 1.627-.24.45-.582.803-1.026 1.064-.446.261-.924.39-1.436.39-.76 0-1.405-.286-1.932-.856-.528-.57-.793-1.31-.793-2.219 0-.911.265-1.652.795-2.222a2.574 2.574 0 011.96-.857zm0 .445c-.467 0-.85.21-1.15.628-.301.419-.45 1.08-.45 1.983 0 .92.149 1.591.448 2.015.296.426.68.638 1.152.638.49 0 .884-.212 1.188-.638.3-.424.452-1.119.452-2.083 0-.896-.15-1.542-.448-1.943a1.41 1.41 0 00-1.192-.6zm10.269-.279l1.69-.102c.093.432.152.843.18 1.235.316-.453.632-.773.948-.957a2.027 2.027 0 011.042-.278c.403 0 .736.106.999.316.263.21.463.551.606 1.025.278-.449.588-.786.929-1.008a2.006 2.006 0 011.119-.333c.531 0 .93.157 1.197.473.342.413.513.947.513 1.599v2.886c0 .174.045.291.132.354.118.096.29.142.521.142h.295v.471h-2.96v-.471h.295c.252 0 .427-.042.528-.125.1-.082.151-.205.151-.373v-2.89c0-.43-.106-.763-.318-1-.211-.235-.489-.354-.832-.354-.263 0-.498.07-.71.208a1.397 1.397 0 00-.499.595c-.177.369-.267.68-.267.939v2.502c0 .172.045.297.137.378.092.08.233.12.425.12h.399v.471h-2.997v-.471h.339c.213 0 .371-.042.476-.125a.383.383 0 00.158-.315v-2.681c0-.568-.1-.979-.301-1.235a.976.976 0 00-.81-.386c-.439 0-.776.148-1.011.447a2.303 2.303 0 00-.504 1.477v2.322c0 .178.04.299.12.365.113.087.288.131.527.131h.301v.471h-2.972v-.471h.442c.167 0 .295-.042.384-.125a.406.406 0 00.135-.315v-3.81c0-.21-.053-.369-.162-.471-.107-.104-.323-.169-.645-.199v-.432zm19.899 5.174l.224.348c-.307.311-.647.466-1.02.466-.286 0-.526-.076-.722-.229-.194-.155-.365-.422-.513-.807-.394.413-.74.688-1.04.828-.298.138-.657.208-1.075.208-.598 0-1.053-.129-1.362-.386a1.217 1.217 0 01-.468-.985c0-.604.357-1.106 1.068-1.507.71-.398 1.657-.665 2.84-.796v-.875c0-.312-.127-.579-.38-.801-.255-.223-.577-.333-.968-.333-.36 0-.672.074-.935.224-.186.111-.28.221-.28.329 0 .061.052.159.152.292.121.166.181.312.181.441 0 .187-.06.339-.181.456a.645.645 0 01-.472.178.696.696 0 01-.52-.212.74.74 0 01-.21-.541c0-.411.233-.788.698-1.127.466-.341 1.076-.511 1.83-.511.698 0 1.23.149 1.597.448.367.3.55.667.55 1.097v3.174c0 .28.045.488.137.619.092.138.211.206.357.206.162 0 .333-.068.512-.204zm-2.069-2.453c-1.052.144-1.797.381-2.237.707-.327.25-.491.602-.491 1.058 0 .32.085.568.254.748.17.18.393.271.666.271.489 0 .912-.187 1.27-.557.359-.371.538-.835.538-1.395v-.832zm6.417.915c.258.71.553 1.199.888 1.473.335.273.748.409 1.239.409.452 0 .8-.098 1.044-.295a.918.918 0 00.365-.746.77.77 0 00-.135-.453.798.798 0 00-.371-.293c-.16-.063-.57-.156-1.232-.282-.634-.122-1.076-.252-1.326-.389a1.474 1.474 0 01-.583-.562 1.527 1.527 0 01-.209-.78c0-.426.143-.811.431-1.159.372-.441.893-.661 1.561-.661.508 0 .98.157 1.415.473l.414-.435h.257l.162 2.073h-.423c-.183-.587-.431-1.009-.745-1.266-.314-.258-.7-.387-1.159-.387-.397 0-.709.095-.935.288a.889.889 0 00-.338.701c0 .242.105.445.314.604.203.165.604.295 1.202.388.692.114 1.142.212 1.352.288.341.125.608.316.796.577.188.258.282.574.282.947 0 .513-.203.949-.611 1.305-.405.356-.922.534-1.548.534-.58 0-1.118-.186-1.616-.559l-.457.521h-.331l-.126-2.314h.423zm9.474-6.001h.423v2.365h1.896v.572h-1.896v3.74c0 .324.077.572.228.744a.745.745 0 00.581.258c.28 0 .519-.131.715-.394.199-.261.314-.693.346-1.297h.423c-.026.776-.203 1.35-.532 1.725-.328.375-.755.564-1.281.564-.482 0-.86-.132-1.133-.394-.273-.263-.41-.609-.41-1.037v-3.909h-1.025v-.435c.47-.078.828-.271 1.074-.576.365-.458.561-1.1.591-1.926zm11.618 5.314h-4.189c.022.886.188 1.513.5 1.878.358.409.813.614 1.368.614.816 0 1.471-.462 1.967-1.386l.405.174c-.608 1.172-1.488 1.759-2.636 1.759a2.632 2.632 0 01-1.98-.843c-.535-.562-.802-1.28-.802-2.155 0-.943.262-1.704.79-2.285.527-.58 1.176-.871 1.947-.871.565 0 1.054.145 1.469.435.412.288.721.703.93 1.244.146.379.222.858.231 1.436zm-4.189-.445h2.537a.431.431 0 00.35-.152c.083-.1.123-.271.123-.515 0-.454-.142-.839-.426-1.157-.287-.318-.622-.477-1.01-.477-.434 0-.801.191-1.102.574-.301.384-.459.96-.472 1.727zm7.709-2.504l2.113-.102v2.348c.227-.774.498-1.356.814-1.753.318-.396.709-.595 1.176-.595.318 0 .572.095.762.288.19.191.284.449.284.769 0 .261-.064.464-.19.609a.612.612 0 01-.478.216.59.59 0 01-.455-.187c-.113-.123-.17-.29-.17-.502 0-.136.032-.263.098-.384a.759.759 0 00.094-.192c0-.062-.041-.094-.12-.094-.171 0-.363.1-.581.299-.298.278-.529.659-.691 1.142-.25.755-.376 1.356-.376 1.808v1.248c0 .14.049.248.149.322.101.074.274.112.515.112h.745v.471h-3.651v-.471h.583c.197 0 .346-.038.446-.114a.338.338 0 00.15-.278v-3.702c0-.281-.06-.487-.182-.618-.121-.13-.294-.195-.521-.195h-.514v-.445z" fill="#2B2A29"/><path fill-rule="evenodd" clip-rule="evenodd" d="M141.955 163.498h10.955v-.576h-10.955v.576z" fill="#2B2A29"/><path fill-rule="evenodd" clip-rule="evenodd" d="M92.935 112.566l1.603 4.966 5.217-.01-4.227 3.059 1.622 4.959-4.215-3.075-4.216 3.075 1.622-4.959-4.227-3.059 5.218.01 1.603-4.966zm-15.641 0l1.603 4.966 5.218-.01-4.227 3.059 1.622 4.959-4.216-3.075-4.215 3.075 1.622-4.959-4.227-3.059 5.217.01 1.603-4.966zm31.28 0l1.603 4.966 5.218-.01-4.227 3.059 1.622 4.959-4.216-3.075-4.215 3.075 1.622-4.959-4.227-3.059 5.218.01 1.602-4.966z" fill="#DEC579"/></svg>