<svg width="188" height="167" fill="none" xmlns="http://www.w3.org/2000/svg"><path fill-rule="evenodd" clip-rule="evenodd" d="M119.842 73.678c-2.367-2.009-5.027-.962-5.027-.962s-.658 2.745 1.708 4.754c2.367 2.01 6.863 2.521 6.863 2.521s-1.178-4.304-3.544-6.313zM68.46 31.089c2.367 2.01 5.026.962 5.026.962s.66-2.745-1.708-4.754c-2.366-2.01-6.862-2.521-6.862-2.521s1.178 4.304 3.544 6.313zm0 42.589c2.366-2.009 5.026-.962 5.026-.962s.659 2.745-1.708 4.754c-2.367 2.01-6.862 2.521-6.862 2.521s1.178-4.304 3.544-6.313zm36.089-21.326s1.567-1.047 2.874-1.047c1.307 0 1.86 1.047 1.86 1.047s-.553 1.048-1.86 1.048-2.874-1.048-2.874-1.048zm10.695-1.998c2.495 0 5.485 1.998 5.485 1.998s-2.99 2-5.485 2-3.549-2-3.549-2 1.054-1.998 3.549-1.998zm21.737 2.167c-.005.008-1.514 2.868-5.078 2.868-3.456 0-7.546-2.734-7.557-2.742l-.444-.295.444-.295c.011-.008 4.101-2.742 7.557-2.742 3.564 0 5.073 2.86 5.078 2.868l.091.169-.091.169zm-5.078 2.155c-2.562 0-5.546-1.64-6.682-2.324 1.136-.684 4.12-2.323 6.682-2.323 2.634 0 3.979 1.763 4.34 2.323-.361.56-1.706 2.324-4.34 2.324zm-20.796-3.06c3.247-3.27 8.087-1.376 11.451.737-3.937 2.47-8.236 3.863-11.451.735a5.092 5.092 0 01-.549-.735c.078-.13.258-.408.549-.736zm-2.013 2.157a7.91 7.91 0 01.893-1.185c1.457 1.454 3.11 2.7 5.289 2.7 3.505 0 7.677-2.788 7.689-2.796l.211-.14-.211-.139c-.012-.008-4.184-2.796-7.689-2.796-2.18 0-3.83 1.247-5.289 2.7a7.883 7.883 0 01-.893-1.185c-.415-.667-.695-1.33-.839-1.986-.144-.657-.167-1.27-.067-1.838.1-.568.303-1.082.609-1.54a3.7 3.7 0 011.175-1.117c.915-.553 1.818-.77 2.711-.65.891.118 1.786.403 2.683.853.897.451 1.81.979 2.74 1.583.93.604 1.885 1.107 2.864 1.508.979.4 1.988.616 3.026.647 1.039.03 2.135-.303 3.288-.999a5.375 5.375 0 001.694-1.617c.452-.67.758-1.412.918-2.228.16-.815.154-1.674-.016-2.575-.17-.901-.53-1.794-1.08-2.677a6.695 6.695 0 00-1.649-1.832 7.878 7.878 0 00-1.923-1.09c-.644-.243-1.249-.368-1.818-.372-.569-.004-1.028.1-1.375.31-.549.33-.895.787-1.037 1.368-.141.582-.044 1.143.293 1.684.336.54.799.882 1.389 1.021.591.14 1.161.044 1.71-.287.549-.332.894-.788 1.036-1.37.142-.581.045-1.142-.292-1.684a1.058 1.058 0 00-.162-.2l-.189-.183a5.396 5.396 0 01-.206-.21c.464.14.93.343 1.397.608.414.22.847.523 1.301.907.452.384.869.882 1.25 1.495.382.613.631 1.226.747 1.838a5.01 5.01 0 01.049 1.718 3.817 3.817 0 01-.544 1.463 3.11 3.11 0 01-1.023 1.026c-.915.552-1.819.77-2.711.65-.892-.118-1.787-.403-2.683-.854a28.504 28.504 0 01-2.74-1.582 17.346 17.346 0 00-2.864-1.508 8.524 8.524 0 00-3.041-.639c-1.047-.024-2.139.306-3.274.99a5.944 5.944 0 00-1.849 1.731 5.95 5.95 0 00-.962 2.31c-.158.838-.145 1.73.039 2.673.184.942.567 1.883 1.15 2.82.292.47.606.888.942 1.255a8.54 8.54 0 00-.942 1.256c-.583.937-.966 1.877-1.15 2.82-.184.944-.197 1.835-.039 2.674s.478 1.609.962 2.31a5.952 5.952 0 001.849 1.73c1.135.685 2.227 1.015 3.274.99a8.498 8.498 0 003.041-.639 17.278 17.278 0 002.864-1.508 28.44 28.44 0 012.74-1.582c.896-.45 1.791-.735 2.683-.854.892-.12 1.796.098 2.711.65.403.243.744.586 1.023 1.026.279.442.46.93.544 1.463a5.012 5.012 0 01-.049 1.718c-.116.612-.365 1.225-.747 1.838-.381.613-.798 1.111-1.25 1.495a7.582 7.582 0 01-1.301.908 6.963 6.963 0 01-1.397.607 5.64 5.64 0 01.206-.21l.189-.184a1 1 0 00.162-.2c.337-.54.434-1.102.292-1.683-.142-.581-.487-1.038-1.036-1.37-.549-.33-1.119-.426-1.71-.287-.59.14-1.053.48-1.389 1.021-.337.54-.434 1.102-.293 1.684.142.581.488 1.038 1.037 1.37.347.209.806.312 1.375.308.569-.004 1.174-.128 1.818-.372a7.876 7.876 0 001.923-1.09 6.685 6.685 0 001.649-1.832c.55-.883.91-1.775 1.08-2.677.17-.901.176-1.76.016-2.575a6.003 6.003 0 00-.918-2.228 5.38 5.38 0 00-1.694-1.617c-1.153-.696-2.249-1.029-3.288-.998a8.576 8.576 0 00-3.026.647c-.979.4-1.934.903-2.864 1.507a28.667 28.667 0 01-2.74 1.583c-.897.45-1.792.735-2.683.854-.893.118-1.796-.098-2.711-.65a3.707 3.707 0 01-1.175-1.118 3.975 3.975 0 01-.609-1.54c-.1-.568-.077-1.18.067-1.837.144-.657.424-1.32.839-1.987zm-28.215-2.468c1.306 0 2.874 1.047 2.874 1.047S82.185 53.4 80.879 53.4c-1.308 0-1.86-1.048-1.86-1.048s.552-1.047 1.86-1.047zm-7.821 3.047c-2.496 0-5.486-2-5.486-2s2.99-1.998 5.486-1.998c2.494 0 3.549 1.998 3.549 1.998s-1.055 2-3.55 2zM51.32 52.184c.004-.008 1.514-2.868 5.078-2.868 3.456 0 7.545 2.734 7.557 2.742l.443.295-.443.295c-.012.008-4.101 2.742-7.558 2.742-3.564 0-5.073-2.86-5.077-2.868l-.092-.17.092-.168zm5.078-2.155c2.562 0 5.546 1.639 6.681 2.324-1.135.685-4.119 2.324-6.681 2.324-2.634 0-3.98-1.764-4.34-2.324.36-.56 1.706-2.324 4.34-2.324zm20.796 3.058c-3.248 3.272-8.087 1.377-11.452-.734 3.937-2.471 8.237-3.864 11.452-.736.29.328.47.605.548.736-.078.13-.257.407-.548.734zm2.012-2.156a7.96 7.96 0 01-.892 1.186c-1.457-1.454-3.11-2.7-5.29-2.7-3.505 0-7.678 2.788-7.689 2.795l-.21.14.21.14c.011.008 4.184 2.796 7.69 2.796 2.18 0 3.83-1.247 5.289-2.7.32.35.62.745.892 1.185.415.668.695 1.33.84 1.987.144.656.166 1.269.066 1.837a3.95 3.95 0 01-.61 1.54c-.306.458-.697.83-1.173 1.117-.915.553-1.818.77-2.711.65-.892-.119-1.787-.403-2.683-.854a28.227 28.227 0 01-2.74-1.582 17.233 17.233 0 00-2.864-1.507 8.578 8.578 0 00-3.027-.647c-1.039-.031-2.134.302-3.288.998a5.363 5.363 0 00-1.694 1.617 5.986 5.986 0 00-.917 2.228c-.16.815-.155 1.673.015 2.575.17.901.531 1.794 1.08 2.677.46.74 1.01 1.35 1.65 1.832a7.87 7.87 0 001.923 1.09c.643.244 1.248.368 1.818.372.569.003 1.027-.1 1.374-.31.55-.33.895-.787 1.037-1.368.142-.582.044-1.143-.293-1.684-.336-.54-.8-.881-1.39-1.02-.59-.141-1.159-.045-1.708.287-.55.33-.895.788-1.037 1.37-.142.58-.044 1.142.293 1.683.045.072.098.138.162.2l.189.183c.063.06.132.13.206.21a6.956 6.956 0 01-1.398-.608 7.524 7.524 0 01-1.3-.907c-.453-.383-.87-.883-1.251-1.495-.381-.613-.63-1.226-.746-1.838a5.036 5.036 0 01-.05-1.718 3.81 3.81 0 01.545-1.463c.279-.441.62-.783 1.023-1.026.914-.553 1.818-.77 2.71-.65.893.118 1.787.403 2.683.854.898.45 1.811.977 2.74 1.582a17.364 17.364 0 002.864 1.508c.98.401 1.993.614 3.041.638 1.048.025 2.139-.305 3.274-.99a5.93 5.93 0 001.85-1.73c.484-.7.804-1.47.961-2.31.158-.838.145-1.729-.039-2.673-.183-.943-.567-1.883-1.15-2.82a8.453 8.453 0 00-.942-1.255 8.57 8.57 0 00.942-1.256c.583-.937.967-1.878 1.15-2.82.184-.944.197-1.835.04-2.674a5.953 5.953 0 00-.962-2.309 5.93 5.93 0 00-1.85-1.73c-1.135-.686-2.226-1.015-3.274-.99a8.497 8.497 0 00-3.041.638 17.24 17.24 0 00-2.863 1.508 28.481 28.481 0 01-2.74 1.582c-.897.451-1.791.736-2.683.854-.893.119-1.797-.098-2.711-.65a3.12 3.12 0 01-1.023-1.026 3.816 3.816 0 01-.545-1.463 5.041 5.041 0 01.05-1.719c.116-.611.365-1.224.746-1.837.381-.612.798-1.112 1.251-1.495a7.55 7.55 0 011.3-.908 6.886 6.886 0 011.398-.607 6.783 6.783 0 01-.206.21l-.19.183a1.014 1.014 0 00-.161.2c-.337.542-.435 1.102-.293 1.684.142.582.487 1.038 1.037 1.37.55.33 1.119.426 1.709.288.59-.14 1.053-.482 1.39-1.022.336-.541.434-1.102.292-1.684-.142-.58-.487-1.037-1.037-1.369-.347-.209-.805-.313-1.374-.31-.57.005-1.175.129-1.818.374a7.844 7.844 0 00-1.924 1.089 6.674 6.674 0 00-1.649 1.831c-.549.884-.91 1.777-1.08 2.677-.17.902-.175 1.76-.015 2.576a5.98 5.98 0 00.918 2.227 5.366 5.366 0 001.693 1.618c1.154.696 2.25 1.03 3.288.998a8.589 8.589 0 003.027-.646 17.325 17.325 0 002.864-1.508 28.425 28.425 0 012.74-1.583c.896-.45 1.791-.735 2.683-.854.893-.119 1.796.099 2.71.65.477.288.868.66 1.175 1.118.306.458.51.972.609 1.54.1.568.078 1.181-.067 1.838-.144.656-.424 1.318-.839 1.985zm13.88 14.495c0 1.287 1.064 1.832 1.064 1.832s1.063-.545 1.063-1.832c0-1.288-1.063-2.832-1.063-2.832s-1.063 1.544-1.063 2.832zm3.093 7.704c0-2.458-2.029-3.497-2.029-3.497s-2.03 1.039-2.03 3.497c0 2.457 2.03 5.402 2.03 5.402s2.03-2.945 2.03-5.402zm-2.2 21.41l.171.09.172-.09c.008-.004 2.912-1.491 2.912-5.002 0-3.403-2.776-7.432-2.784-7.444l-.3-.437-.3.437c-.007.012-2.783 4.04-2.783 7.445 0 3.51 2.904 4.997 2.912 5zm-2.188-5.002c0 2.595 1.79 3.92 2.36 4.275.568-.356 2.358-1.68 2.358-4.275 0-2.524-1.663-5.463-2.359-6.581-.695 1.118-2.359 4.057-2.359 6.582zm3.106-20.484a5.082 5.082 0 00-.747-.54 5.062 5.062 0 00-.747.54c-3.175 3.167-1.762 7.402.747 11.28 2.144-3.314 4.068-8.082.747-11.28zm-2.19-1.983c-.677-.408-1.35-.684-2.016-.826-.666-.142-1.288-.164-1.866-.066a4.094 4.094 0 00-1.563.6 3.685 3.685 0 00-1.134 1.157c-.561.901-.78 1.791-.66 2.67s.41 1.76.866 2.643c.458.884.993 1.784 1.607 2.7a16.796 16.796 0 011.53 2.82c.408.965.626 1.959.657 2.981.031 1.023-.307 2.103-1.013 3.239a5.364 5.364 0 01-1.642 1.668 6.21 6.21 0 01-2.261.904c-.828.158-1.7.152-2.615-.015-.915-.168-1.821-.522-2.718-1.064a6.717 6.717 0 01-1.86-1.624c-.489-.63-.858-1.262-1.106-1.895-.247-.633-.374-1.23-.378-1.79-.004-.561.101-1.012.314-1.355.336-.54.8-.88 1.39-1.02.59-.14 1.16-.045 1.71.287.548.331.894.788 1.036 1.37.142.58.044 1.142-.292 1.683-.337.54-.8.88-1.39 1.02-.59.14-1.16.044-1.71-.287a1.038 1.038 0 01-.202-.16l-.186-.186a7.277 7.277 0 00-.214-.203c.143.458.349.917.617 1.376.224.408.531.835.92 1.281.39.446.897.857 1.52 1.233.621.375 1.243.62 1.865.734.62.115 1.202.132 1.744.049a3.936 3.936 0 001.485-.536 3.12 3.12 0 001.042-1.008c.56-.901.78-1.79.66-2.67-.12-.878-.41-1.76-.867-2.643a27.908 27.908 0 00-1.606-2.699 16.85 16.85 0 01-1.531-2.82 8.156 8.156 0 01-.648-2.996c-.026-1.032.31-2.106 1.004-3.225a5.946 5.946 0 011.757-1.822 6.153 6.153 0 012.345-.947c.852-.155 1.756-.142 2.714.04.957.18 1.912.557 2.864 1.132.476.288.9.597 1.274.928.373-.332.798-.64 1.274-.928.952-.575 1.907-.952 2.864-1.133.957-.18 1.862-.194 2.714-.039a6.172 6.172 0 012.345.947 5.946 5.946 0 011.756 1.822c.695 1.119 1.03 2.194 1.005 3.225a8.15 8.15 0 01-.648 2.995 16.872 16.872 0 01-1.531 2.821 27.938 27.938 0 00-1.607 2.699c-.457.884-.746 1.765-.867 2.643-.12.88.1 1.769.661 2.67a3.11 3.11 0 001.042 1.008c.448.276.943.454 1.484.536a5.248 5.248 0 001.745-.049c.622-.114 1.243-.359 1.866-.734.622-.376 1.128-.787 1.518-1.233a7.45 7.45 0 00.921-1.28c.268-.46.473-.919.616-1.377a6.46 6.46 0 00-.213.203l-.186.187c-.062.062-.13.115-.203.159-.549.331-1.119.427-1.709.288-.591-.14-1.054-.48-1.391-1.021-.336-.54-.433-1.102-.291-1.684.141-.581.487-1.038 1.036-1.369.55-.332 1.119-.427 1.709-.288.591.14 1.054.48 1.391 1.021.212.343.317.794.313 1.355-.004.56-.13 1.157-.378 1.79s-.617 1.265-1.106 1.895a6.717 6.717 0 01-1.859 1.624c-.897.542-1.803.896-2.718 1.064-.915.167-1.787.173-2.615.015a6.209 6.209 0 01-2.262-.904 5.37 5.37 0 01-1.641-1.668c-.707-1.136-1.045-2.216-1.014-3.239.03-1.022.25-2.016.657-2.98.407-.965.917-1.906 1.53-2.822a27.778 27.778 0 001.607-2.699c.458-.883.747-1.764.868-2.643.12-.879-.101-1.769-.661-2.67a3.69 3.69 0 00-1.135-1.157 4.094 4.094 0 00-1.563-.6c-.577-.098-1.199-.076-1.865.066-.667.142-1.34.418-2.017.826-.446.27-.847.563-1.203.88 1.475 1.437 2.741 3.062 2.741 5.21 0 3.453-2.83 7.562-2.838 7.574l-.142.207-.142-.207c-.007-.012-2.84-4.121-2.84-7.575 0-2.145 1.267-3.774 2.743-5.209a8.005 8.005 0 00-1.204-.88zm2.506-27.792c0-1.288-1.063-1.832-1.063-1.832s-1.064.544-1.064 1.832c0 1.287 1.064 2.831 1.064 2.831s1.063-1.544 1.063-2.83zm-3.093-7.704c0 2.457 2.03 3.497 2.03 3.497s2.029-1.04 2.029-3.497-2.029-5.403-2.029-5.403-2.03 2.946-2.03 5.404zm2.201-21.41l-.171-.09-.171.09c-.01.004-2.913 1.49-2.913 5.001 0 3.405 2.776 7.433 2.784 7.444l.3.437.3-.437c.008-.011 2.783-4.04 2.783-7.444 0-3.51-2.904-4.997-2.912-5.001zm2.188 5.001c0-2.594-1.79-3.92-2.36-4.275-.568.356-2.36 1.68-2.36 4.275 0 2.524 1.665 5.464 2.36 6.582.696-1.118 2.36-4.058 2.36-6.582zm-3.105 20.485c.332.287.614.464.746.54.132-.076.414-.253.747-.54 3.175-3.167 1.761-7.402-.747-11.28-2.144 3.314-4.068 8.081-.746 11.28zm2.189 1.982c.677.409 1.35.685 2.016.826.666.143 1.288.165 1.866.066a4.09 4.09 0 001.563-.6 3.68 3.68 0 001.134-1.156c.56-.901.781-1.791.661-2.67-.121-.88-.41-1.76-.868-2.643a27.854 27.854 0 00-1.606-2.7 16.813 16.813 0 01-1.53-2.82 8.255 8.255 0 01-.658-2.981c-.031-1.024.307-2.103 1.014-3.24a5.354 5.354 0 011.642-1.667 6.182 6.182 0 012.261-.904c.828-.158 1.7-.152 2.615.015.915.168 1.821.523 2.718 1.063.75.454 1.371.995 1.859 1.625.49.63.859 1.261 1.106 1.895.249.633.375 1.23.379 1.79.003.56-.102 1.012-.314 1.354-.337.541-.8.882-1.391 1.021-.59.14-1.159.044-1.708-.288-.549-.33-.895-.788-1.038-1.369-.141-.581-.043-1.142.293-1.684.336-.54.799-.88 1.391-1.02.59-.14 1.159-.044 1.709.288.073.044.14.096.202.16.062.06.124.124.186.186.063.062.134.13.213.203a6.649 6.649 0 00-.616-1.377 7.43 7.43 0 00-.921-1.28c-.389-.447-.896-.857-1.518-1.233-.623-.375-1.245-.62-1.865-.735a5.258 5.258 0 00-1.745-.049 3.949 3.949 0 00-1.485.536 3.117 3.117 0 00-1.042 1.009c-.56.9-.78 1.79-.66 2.67.121.878.409 1.759.866 2.642.458.884.993 1.784 1.607 2.7a16.803 16.803 0 011.531 2.82 8.15 8.15 0 01.648 2.995c.025 1.032-.309 2.107-1.005 3.225a5.933 5.933 0 01-1.756 1.822 6.156 6.156 0 01-2.345.947c-.852.156-1.757.143-2.714-.039-.957-.18-1.912-.558-2.864-1.132a8.698 8.698 0 01-1.274-.928c-.373.33-.798.64-1.274.928-.952.574-1.907.952-2.864 1.132-.958.182-1.862.195-2.714.04a6.154 6.154 0 01-2.345-.948 5.927 5.927 0 01-1.757-1.822c-.695-1.118-1.03-2.193-1.004-3.225a8.11 8.11 0 01.648-2.995c.407-.964.918-1.905 1.531-2.82a27.877 27.877 0 001.606-2.7c.458-.883.747-1.764.868-2.642.12-.88-.1-1.77-.661-2.67a3.118 3.118 0 00-1.042-1.009 3.948 3.948 0 00-1.485-.536 5.252 5.252 0 00-1.744.049c-.621.115-1.243.36-1.866.735-.622.376-1.129.786-1.518 1.232-.39.447-.696.873-.92 1.281a6.67 6.67 0 00-.618 1.377c.08-.073.152-.14.214-.203l.186-.186a.988.988 0 01.202-.16c.55-.332 1.12-.428 1.71-.288.59.14 1.054.48 1.39 1.02.337.542.434 1.103.292 1.684-.142.581-.487 1.038-1.037 1.369-.549.332-1.119.428-1.709.288-.59-.14-1.054-.48-1.39-1.02-.213-.343-.317-.795-.314-1.355.004-.56.13-1.157.379-1.79.247-.634.616-1.265 1.105-1.895a6.72 6.72 0 011.86-1.625c.896-.54 1.803-.895 2.718-1.064.915-.166 1.787-.172 2.615-.014a6.181 6.181 0 012.261.904 5.35 5.35 0 011.642 1.668c.707 1.136 1.045 2.215 1.014 3.239a8.242 8.242 0 01-.657 2.98 16.769 16.769 0 01-1.531 2.822 27.77 27.77 0 00-1.606 2.699c-.458.883-.746 1.764-.868 2.643-.12.879.1 1.769.661 2.67.291.468.67.854 1.135 1.156.464.302.985.503 1.562.6.578.099 1.2.077 1.866-.066.667-.141 1.34-.417 2.017-.826a8.04 8.04 0 001.203-.88c-1.474-1.437-2.742-3.061-2.742-5.209 0-3.453 2.831-7.563 2.84-7.573l.14-.209.143.209c.007.01 2.838 4.12 2.838 7.573 0 2.146-1.265 3.774-2.74 5.21.355.316.756.61 1.203.88zm24.248-6.544c-2.367 2.008-5.026.962-5.026.962s-.659-2.745 1.708-4.755c2.366-2.008 6.862-2.52 6.862-2.52s-1.178 4.304-3.544 6.313z" fill="#2B2A29"/><path fill-rule="evenodd" clip-rule="evenodd" d="M126.504 20.487c-8.28-8.156-19.718-13.2-32.353-13.2-12.634 0-24.073 5.044-32.353 13.2-8.28 8.155-13.401 19.422-13.401 31.867s5.121 23.713 13.401 31.868c8.28 8.155 19.719 13.2 32.353 13.2 12.635 0 24.073-5.045 32.353-13.2 8.28-8.155 13.402-19.423 13.402-31.868s-5.122-23.712-13.402-31.867zM95.031 5.55h-1.76c-12.774.228-24.318 5.42-32.725 13.702-8.6 8.471-13.92 20.175-13.92 33.101 0 12.927 5.32 24.63 13.92 33.102 8.6 8.47 20.482 13.71 33.605 13.71 13.124 0 25.005-5.24 33.606-13.71 8.6-8.471 13.919-20.175 13.919-33.102 0-12.926-5.319-24.63-13.919-33.101-8.408-8.281-19.952-13.474-32.726-13.702z" fill="#2B2A29"/><path d="M94.15 0c14.678 0 27.966 5.86 37.584 15.334 9.619 9.474 15.568 22.563 15.568 37.02 0 14.457-5.949 27.546-15.568 37.02-9.618 9.474-22.906 15.334-37.583 15.334s-27.965-5.86-37.584-15.334C46.95 79.9 41 66.81 41 52.354c0-14.457 5.95-27.546 15.568-37.02C66.186 5.86 79.474 0 94.151 0zm34.71 18.165c-8.883-8.75-21.154-14.16-34.71-14.16-13.554 0-25.826 5.41-34.709 14.16-8.882 8.75-14.376 20.837-14.376 34.19 0 13.35 5.494 25.438 14.376 34.188 8.883 8.75 21.155 14.161 34.71 14.161s25.826-5.412 34.709-14.161c8.883-8.75 14.377-20.837 14.377-34.189s-5.494-25.44-14.377-34.189z" fill="#2B2A29"/><path fill-rule="evenodd" clip-rule="evenodd" d="M89.348 61.373h-.489v-6.01h.49c.603 3.335 2.368 5 5.293 5 1.011 0 1.852-.267 2.524-.802.673-.535 1.012-1.223 1.012-2.066 0-.949-.496-1.79-1.48-2.533-2.335-1.344-4.248-2.494-5.755-3.463-1.5-.969-2.247-2.253-2.247-3.844 0-1.316.496-2.413 1.5-3.288.998-.883 2.233-1.324 3.706-1.324.957 0 1.954.227 3.006.682.496.22.842.328 1.039.328.461 0 .76-.342.909-1.01h.482v6.063h-.482c-.258-1.791-.855-3.075-1.784-3.857-.937-.782-1.982-1.17-3.136-1.17-.862 0-1.609.26-2.226.782-.617.515-.93 1.15-.93 1.899 0 .488.21 1.002.631 1.544.421.548 1.69 1.384 3.807 2.5 1.297.689 2.281 1.25 2.953 1.691a5.74 5.74 0 011.67 1.718c.447.702.671 1.464.671 2.287 0 1.397-.536 2.553-1.615 3.482-1.072.93-2.403 1.39-3.977 1.39-.855 0-1.914-.206-3.176-.614-.774-.255-1.31-.381-1.602-.381-.427 0-.692.327-.794.996zm-14.022 89.594v-17.161a.133.133 0 00-.008-.05.147.147 0 00-.032-.043.13.13 0 00-.043-.027.207.207 0 00-.077-.012h-3.984c.207.295.365.633.472 1.013.114.403.17.85.17 1.339l.002 14.959a.202.202 0 00.039.047l.047.037 3.254.003a.232.232 0 00.077-.011.132.132 0 00.042-.028l.038-.047.003-.019zm-9.822-17.293h-3.156a.205.205 0 00-.076.012.131.131 0 00-.043.026.165.165 0 00-.034.044l-.007.05v6.66a.976.976 0 01-.304.719 1.076 1.076 0 01-.317.216.937.937 0 01-.386.083h-5.834c-.313 0-.561-.094-.743-.282-.175-.181-.264-.427-.264-.736v-6.66a.14.14 0 00-.008-.05.141.141 0 00-.032-.042.11.11 0 00-.043-.028.205.205 0 00-.077-.012h-3.957c.207.295.365.633.472 1.013.113.403.17.85.17 1.339l.002 14.959.039.047.046.037 3.228.003a.23.23 0 00.077-.011.178.178 0 00.08-.077l.003-7.07c0-.679.335-1.018 1.007-1.018h5.834a.96.96 0 01.385.082c.117.052.224.125.318.217a1.02 1.02 0 01.304.719l.002 7.071.039.047a.13.13 0 00.043.029.225.225 0 00.076.011h3.156a.23.23 0 00.077-.011.131.131 0 00.042-.028.19.19 0 00.038-.049l.002-17.178a.136.136 0 00-.007-.05.138.138 0 00-.033-.042.115.115 0 00-.043-.028.206.206 0 00-.076-.012zm22.2 0v3.476a.685.685 0 00-.387.14.69.69 0 00-.242.363l-2.19 5.794-.002.003a1.241 1.241 0 00-.086.424.702.702 0 00.481.685c.11.04.235.06.372.06h2.055v1.437h-3.062c-.236 0-.44.061-.612.182a.997.997 0 00-.37.513l-1.48 4.06a.42.42 0 01-.144.205.407.407 0 01-.232.056h-1.973l5.763-14.894c.213-.572.32-1.068.32-1.485 0-.187-.02-.367-.057-.537a2.172 2.172 0 00-.168-.477l-.002-.005h2.017zm-53.59 11.973l-1.087 1.965a.185.185 0 00-.027.091v.009a.53.53 0 00.065.21l.006.007c.245.508.57.97.97 1.384a6.68 6.68 0 001.464 1.129 7.03 7.03 0 001.853.745 8.999 8.999 0 002.175.251c1.847 0 3.307-.484 4.378-1.45.531-.479.93-1.02 1.194-1.619.263-.598.395-1.265.395-2 0-.778-.139-1.496-.416-2.155a5.345 5.345 0 00-.5-.927 5.154 5.154 0 00-.662-.797 13.232 13.232 0 00-.775-.706 9.508 9.508 0 00-.755-.575 14.08 14.08 0 00-.813-.517 18.51 18.51 0 00-.908-.503l-.172-.079-.23-.119a64.378 64.378 0 01-.95-.489 25.66 25.66 0 01-.714-.39 4.741 4.741 0 01-1.14-.906 2.305 2.305 0 01-.429-.632 1.743 1.743 0 01-.155-.712c0-.322.06-.615.18-.879.122-.269.305-.5.544-.692a2.35 2.35 0 01.82-.415c.302-.086.635-.13 1.002-.13.41 0 .8.052 1.169.155.373.104.72.26 1.04.467.302.195.575.406.816.629.242.225.453.463.63.715a.27.27 0 00.074.074l.03.011.932-1.524a.584.584 0 00.071-.26.13.13 0 00-.042-.084 5.54 5.54 0 00-2.035-1.209c-.803-.275-1.724-.411-2.765-.411-.777 0-1.492.1-2.144.302-.645.2-1.232.5-1.76.899-.516.389-.903.838-1.161 1.344a3.844 3.844 0 00-.4 1.713c.002.378.033.733.096 1.066.062.332.156.649.282.947.123.294.28.572.468.833.19.262.411.507.664.731a11.62 11.62 0 001.569 1.195c.26.162.55.329.87.501.331.178.69.361 1.077.547 1.219.59 2.121 1.133 2.707 1.628.33.279.579.604.746.974.164.369.247.775.247 1.216 0 .417-.074.795-.222 1.137-.15.346-.376.649-.675.907a2.904 2.904 0 01-1.058.57c-.395.12-.84.18-1.332.18-1.246 0-2.362-.433-3.35-1.301a6.067 6.067 0 01-1.192-1.406 5.52 5.52 0 01-.666-1.645zm90.14 5.32v-17.161a.137.137 0 00-.008-.05.14.14 0 00-.075-.07.207.207 0 00-.077-.012h-3.983c.207.295.364.633.471 1.013.114.403.17.85.17 1.339l.002 14.959a.213.213 0 00.039.047l.047.037 3.254.003a.229.229 0 00.077-.011.124.124 0 00.042-.028l.038-.047.003-.019zm-22.79-14.941l.002 14.959.039.047.046.037 3.228.003a.229.229 0 00.077-.011.124.124 0 00.042-.028l.038-.047.003-5.975c0-.217.03-.417.089-.599.064-.196.163-.366.294-.509l.265-.287c.412-.475.819-.457 1.218.054l5.309 7.006c.21.263.559.396 1.045.396h3.29l-7.539-9.73c-.379-.467-.368-.899.033-1.294l6.061-6.374h-2.11c-.214 0-.4.034-.559.1a1.1 1.1 0 00-.399.293c-1.868 2.146-3.972 4.182-5.857 6.321a.952.952 0 01-.281.198.597.597 0 01-.459.02.572.572 0 01-.337-.324l-.001-.004a.847.847 0 01-.062-.334v-6.138a.137.137 0 00-.008-.05.14.14 0 00-.075-.07.204.204 0 00-.077-.012h-3.957c.208.295.365.633.472 1.013.113.403.17.85.17 1.339zm-13.76 10.03v-1.437h2.004c.816 0 1.08-.39.792-1.169l-2.11-5.795a.708.708 0 00-.217-.349.636.636 0 00-.428-.157l-.04.001v-3.476h2.241a.47.47 0 01.269.065.48.48 0 01.156.238l6.587 17.095h-3.432a.417.417 0 01-.233-.056.437.437 0 01-.143-.207l-1.479-4.058c-.157-.462-.52-.695-1.089-.695h-2.877zm50.799-12.346v1.59a6.556 6.556 0 00-1.591-.188h-2.095a.964.964 0 00-.728.315 1.033 1.033 0 00-.279.729v12.46c0 .139.023.27.071.391a.981.981 0 00.936.627h2.095c.559 0 1.09-.063 1.591-.188v1.59c-.303.024-.613.036-.928.036l-7.153-.003-.046-.037-.039-.047-.002-14.959c0-.489-.057-.936-.17-1.339a3.312 3.312 0 00-.472-1.013h7.882c.315 0 .625.012.928.036zm16.478 17.257v-17.165a.119.119 0 00-.008-.046.152.152 0 00-.031-.043.138.138 0 00-.044-.027.205.205 0 00-.076-.012h-3.984c.207.295.365.633.471 1.013.114.403.17.85.17 1.339l.003 14.959a.202.202 0 00.038.047l.047.037 3.255.003a.226.226 0 00.076-.011.139.139 0 00.043-.028l.038-.047.002-.019zm-16.478.069v-1.59a5.74 5.74 0 00.931-.319 5.803 5.803 0 002.022-1.515 6.65 6.65 0 001.31-2.325c.287-.871.43-1.843.43-2.914 0-1.071-.143-2.043-.43-2.915a6.648 6.648 0 00-1.31-2.322 5.797 5.797 0 00-2.022-1.517 5.74 5.74 0 00-.931-.319v-1.59c2.267.176 4.192 1.011 5.775 2.504.896.845 1.569 1.78 2.016 2.801.446 1.019.669 2.13.669 3.332 0 1.221-.223 2.345-.669 3.373-.446 1.028-1.119 1.966-2.016 2.812-1.583 1.493-3.508 2.328-5.775 2.504zm-105.42 12.651h27.255v-.578H33.083v.578z" fill="#2B2A29"/><path d="M66.61 161.001l1.72-.102c.093.433.154.845.182 1.237.321-.454.642-.774.963-.959a2.087 2.087 0 011.06-.278c.41 0 .748.106 1.015.316.267.21.471.552.617 1.027.282-.45.596-.787.944-1.01a2.063 2.063 0 011.137-.333c.54 0 .946.157 1.218.473.347.414.52.949.52 1.602v2.89c0 .174.046.291.135.355.12.095.295.142.53.142h.3v.471h-3.009v-.471h.3c.256 0 .434-.043.536-.125.102-.083.154-.206.154-.374v-2.894c0-.431-.109-.764-.324-1.002-.215-.235-.497-.354-.846-.354-.267 0-.506.07-.72.208-.218.14-.385.337-.509.596-.18.369-.27.681-.27.94v2.506c0 .172.045.297.138.378.093.08.237.121.432.121h.406v.471h-3.047v-.471h.345c.217 0 .377-.043.484-.125a.384.384 0 00.16-.317v-2.684c0-.569-.102-.98-.306-1.237a.998.998 0 00-.822-.386c-.447 0-.79.149-1.029.448-.34.422-.512.914-.512 1.479v2.325c0 .178.041.299.121.365.115.087.293.132.536.132h.306v.471h-3.02v-.471h.448c.17 0 .3-.043.391-.125a.407.407 0 00.137-.317v-3.815c0-.21-.054-.369-.165-.471-.109-.104-.328-.17-.655-.199v-.433zm20.23 5.181l.228.348c-.313.312-.658.467-1.038.467-.29 0-.534-.076-.733-.229-.198-.155-.371-.422-.521-.808-.402.413-.753.689-1.057.829-.304.138-.669.208-1.094.208-.608 0-1.07-.129-1.385-.386a1.215 1.215 0 01-.475-.987c0-.604.362-1.107 1.085-1.508.723-.399 1.684-.667 2.887-.798v-.876c0-.312-.128-.58-.387-.802-.258-.223-.586-.334-.983-.334a1.91 1.91 0 00-.95.225c-.19.111-.285.221-.285.329 0 .062.052.159.154.293.124.166.185.312.185.441a.6.6 0 01-.184.457.661.661 0 01-.48.178.714.714 0 01-.53-.212.734.734 0 01-.213-.541c0-.412.237-.79.71-1.129.473-.342 1.094-.512 1.86-.512.71 0 1.25.149 1.624.448.373.301.56.668.56 1.099v3.179c0 .28.045.488.138.619a.422.422 0 00.363.206c.165 0 .338-.068.52-.204zm-2.103-2.457c-1.07.145-1.828.382-2.275.709-.332.25-.499.603-.499 1.059 0 .32.087.569.258.749a.9.9 0 00.677.271c.498 0 .927-.186 1.292-.558.365-.371.547-.836.547-1.396v-.834zm6.523.917c.263.711.562 1.201.903 1.475.34.273.76.409 1.259.409.46 0 .814-.097 1.061-.295a.912.912 0 00.371-.747.768.768 0 00-.136-.454.815.815 0 00-.378-.293c-.163-.063-.58-.157-1.252-.282-.645-.123-1.094-.252-1.348-.39a1.517 1.517 0 01-.805-1.343c0-.427.145-.813.438-1.161.378-.441.907-.662 1.587-.662.516 0 .996.157 1.439.473l.42-.435h.261l.165 2.075h-.43c-.186-.587-.438-1.01-.757-1.266-.32-.259-.712-.389-1.179-.389-.403 0-.72.096-.95.289a.883.883 0 00-.343.702.73.73 0 00.319.605c.206.165.614.295 1.222.388.703.115 1.16.212 1.374.289.347.125.618.316.809.577.191.259.287.575.287.948 0 .514-.207.951-.621 1.308-.412.356-.938.534-1.574.534-.59 0-1.137-.186-1.643-.56l-.464.522h-.337l-.127-2.317h.43zm9.632-6.009h.429v2.368h1.928v.573h-1.928v3.745c0 .324.078.573.233.745a.757.757 0 00.59.258c.284 0 .527-.131.727-.394.202-.261.319-.694.352-1.299h.429c-.026.777-.206 1.352-.54 1.727-.334.376-.768.565-1.302.565-.491 0-.875-.132-1.153-.395s-.416-.609-.416-1.037v-3.915h-1.042v-.435c.477-.079.842-.272 1.091-.577.372-.459.571-1.102.602-1.929zm11.81 5.321h-4.258c.022.887.191 1.516.508 1.88.364.41.827.616 1.391.616.829 0 1.495-.463 1.999-1.388l.412.174c-.618 1.173-1.513 1.761-2.68 1.761-.797 0-1.467-.282-2.012-.844-.545-.563-.816-1.282-.816-2.158 0-.944.267-1.706.803-2.288.536-.581 1.196-.872 1.979-.872.575 0 1.072.145 1.493.435.419.289.734.705.947 1.246.147.38.225.859.234 1.438zm-4.258-.445h2.578a.438.438 0 00.356-.153c.085-.1.126-.271.126-.515 0-.455-.145-.841-.434-1.159-.291-.318-.632-.477-1.027-.477-.44 0-.814.19-1.12.575-.306.384-.466.961-.479 1.729zm7.836-2.508l2.149-.102v2.351c.23-.774.506-1.358.827-1.755.323-.397.721-.596 1.196-.596.323 0 .582.096.775.289.193.191.288.449.288.77 0 .261-.065.464-.193.609a.626.626 0 01-.486.216.6.6 0 01-.462-.187c-.115-.123-.174-.29-.174-.502 0-.136.033-.263.1-.384a.757.757 0 00.095-.193c0-.062-.041-.094-.121-.094-.174 0-.369.1-.591.299-.303.278-.538.66-.703 1.144-.254.755-.382 1.358-.382 1.81v1.25c0 .14.05.248.152.322.102.074.278.113.523.113h.758v.471h-3.712v-.471h.593c.2 0 .352-.039.454-.115a.337.337 0 00.151-.278v-3.707c0-.282-.06-.488-.184-.619-.124-.13-.299-.196-.53-.196h-.523v-.445z" fill="#2B2A29"/><path fill-rule="evenodd" clip-rule="evenodd" d="M127.642 163.718h27.255v-.577h-27.255v.577z" fill="#2B2A29"/><path fill-rule="evenodd" clip-rule="evenodd" d="M101.897 112.715l1.629 4.972 5.304-.01-4.297 3.063 1.649 4.966-4.285-3.079-4.286 3.079 1.65-4.966-4.298-3.063 5.304.01 1.63-4.972zm-15.9 0l1.63 4.972 5.303-.01-4.297 3.063 1.649 4.966-4.285-3.079-4.286 3.079 1.65-4.966-4.298-3.063 5.304.01 1.63-4.972z" fill="#DEC579"/></svg>