<svg width="186" height="167" fill="none" xmlns="http://www.w3.org/2000/svg"><path fill-rule="evenodd" clip-rule="evenodd" d="M93.354 0c14.457 0 27.546 5.86 37.02 15.334 9.474 9.474 15.334 22.563 15.334 37.02 0 14.457-5.86 27.546-15.334 37.02-9.474 9.474-22.563 15.334-37.02 15.334-14.457 0-27.546-5.86-37.02-15.334C46.86 79.9 41 66.81 41 52.354c0-14.457 5.86-27.546 15.334-37.02C65.808 5.86 78.897 0 93.354 0zm-.406 6.36c25.421 0 46.029 20.607 46.029 46.028 0 25.42-20.608 46.029-46.029 46.029-25.42 0-46.028-20.608-46.028-46.029 0-25.42 20.608-46.029 46.028-46.029zm34.595 11.805c-8.75-8.75-20.837-14.16-34.189-14.16s-25.44 5.41-34.189 14.16c-8.75 8.75-14.16 20.837-14.16 34.189s5.41 25.44 14.16 34.189c8.75 8.75 20.837 14.161 34.189 14.161s25.439-5.412 34.189-14.161c8.749-8.75 14.161-20.837 14.161-34.189s-5.412-25.44-14.161-34.189z" fill="url(#paint0_linear_2_2806)"/><path fill-rule="evenodd" clip-rule="evenodd" d="M88.625 61.372h-.482v-6.01h.482c.594 3.336 2.332 5 5.214 5 .996 0 1.824-.267 2.486-.802.662-.534.996-1.223.996-2.065 0-.95-.487-1.791-1.457-2.534-2.3-1.343-4.185-2.493-5.668-3.462-1.478-.97-2.214-2.253-2.214-3.844 0-1.317.489-2.413 1.478-3.289.983-.882 2.2-1.323 3.65-1.323.942 0 1.925.227 2.961.682.488.22.83.327 1.023.327.455 0 .749-.341.896-1.01h.474v6.064h-.474c-.254-1.792-.843-3.075-1.758-3.857-.923-.783-1.952-1.17-3.089-1.17-.849 0-1.584.26-2.192.782-.608.515-.916 1.15-.916 1.898 0 .489.207 1.003.621 1.545.415.548 1.665 1.383 3.75 2.5 1.278.688 2.247 1.25 2.909 1.69a5.701 5.701 0 011.644 1.719c.441.702.662 1.463.662 2.286 0 1.397-.528 2.553-1.591 3.482-1.056.93-2.367 1.391-3.917 1.391-.843 0-1.885-.207-3.129-.615-.762-.254-1.29-.38-1.577-.38-.422 0-.682.327-.782.995zm30.035 12.306c-2.331-2.009-4.951-.962-4.951-.962s-.649 2.745 1.682 4.754c2.331 2.01 6.76 2.521 6.76 2.521s-1.16-4.304-3.491-6.313zm-50.61-42.59c2.33 2.01 4.95.963 4.95.963s.649-2.745-1.682-4.754c-2.331-2.01-6.76-2.521-6.76-2.521s1.16 4.304 3.491 6.313zm0 42.59c2.33-2.009 4.95-.962 4.95-.962s.648 2.745-1.683 4.754c-2.33 2.01-6.759 2.521-6.759 2.521s1.16-4.304 3.491-6.313zM106.427 53.4c-1.288 0-2.831-1.048-2.831-1.048s1.543-1.047 2.831-1.047c1.287 0 1.832 1.047 1.832 1.047s-.545 1.048-1.832 1.048zm7.703-3.047c2.458 0 5.403 2 5.403 2s-2.945 1.998-5.403 1.998c-2.457 0-3.496-1.999-3.496-1.999s1.039-1.998 3.496-1.998zm21.411 2.168c-.004.008-1.491 2.868-5.002 2.868-3.404 0-7.432-2.734-7.444-2.742l-.437-.295.437-.295c.012-.008 4.04-2.742 7.444-2.742 3.511 0 4.998 2.86 5.002 2.868l.09.169-.09.169zm-5.002 2.155c-2.524 0-5.463-1.64-6.581-2.324 1.118-.685 4.057-2.323 6.581-2.323 2.595 0 3.919 1.763 4.275 2.323-.356.56-1.68 2.324-4.275 2.324zm-20.484-3.06c3.199-3.27 7.966-1.376 11.28.737-3.878 2.47-8.113 3.863-11.28.735a5.135 5.135 0 01-.54-.735 5.13 5.13 0 01.54-.736zm-1.982 2.157c.269-.44.562-.835.879-1.185 1.435 1.454 3.064 2.7 5.21 2.7 3.453 0 7.562-2.788 7.574-2.796l.208-.14-.208-.139c-.012-.008-4.121-2.796-7.574-2.796-2.148 0-3.773 1.247-5.21 2.7a7.89 7.89 0 01-.879-1.185c-.409-.667-.685-1.33-.827-1.987-.142-.656-.164-1.269-.066-1.837a4.015 4.015 0 01.6-1.54c.303-.458.688-.83 1.157-1.117.902-.553 1.791-.77 2.67-.65.879.118 1.76.403 2.644.853a28.11 28.11 0 012.698 1.583 16.918 16.918 0 002.821 1.508c.965.4 1.959.616 2.981.646 1.023.031 2.103-.302 3.239-.998a5.324 5.324 0 001.668-1.617 6.03 6.03 0 00.904-2.228c.158-.815.153-1.674-.015-2.575-.168-.901-.523-1.794-1.064-2.678a6.668 6.668 0 00-1.624-1.831 7.729 7.729 0 00-1.895-1.09c-.634-.244-1.23-.368-1.79-.372-.561-.004-1.012.1-1.355.31-.54.33-.881.787-1.021 1.368-.139.582-.044 1.143.288 1.684.331.54.788.882 1.369 1.021.582.14 1.143.044 1.684-.287.541-.332.881-.788 1.021-1.37.139-.581.044-1.142-.288-1.684a1.038 1.038 0 00-.159-.2 25.01 25.01 0 01-.187-.183 6.345 6.345 0 01-.203-.21c.458.14.917.343 1.376.608a7.38 7.38 0 011.281.907c.446.384.857.882 1.232 1.495.376.613.621 1.226.736 1.838.114.611.13 1.184.048 1.718a3.838 3.838 0 01-.536 1.463 3.09 3.09 0 01-1.008 1.026c-.901.552-1.791.769-2.67.65-.878-.119-1.76-.403-2.643-.854a28.198 28.198 0 01-2.699-1.582 16.97 16.97 0 00-2.821-1.508 8.281 8.281 0 00-2.995-.639c-1.031-.024-2.106.306-3.224.99a5.884 5.884 0 00-1.822 1.731c-.477.7-.792 1.47-.948 2.31-.155.838-.142 1.73.039 2.673.181.942.559 1.883 1.133 2.82.287.47.597.888.928 1.255a8.486 8.486 0 00-.928 1.256c-.574.937-.952 1.877-1.133 2.82-.181.944-.194 1.835-.039 2.674a6.01 6.01 0 00.948 2.31 5.89 5.89 0 001.822 1.73c1.118.684 2.193 1.015 3.224.99a8.256 8.256 0 002.995-.639 16.895 16.895 0 002.821-1.508 28.093 28.093 0 012.699-1.582c.883-.45 1.765-.735 2.643-.854.879-.12 1.769.098 2.67.65.397.243.733.585 1.008 1.026.275.442.454.93.536 1.463a5.113 5.113 0 01-.048 1.718c-.115.612-.36 1.225-.736 1.838-.375.613-.786 1.111-1.232 1.495a7.374 7.374 0 01-1.281.908 6.768 6.768 0 01-1.376.607c.073-.079.141-.15.203-.21l.187-.184a.985.985 0 00.159-.2c.332-.54.427-1.102.288-1.683-.14-.581-.48-1.038-1.021-1.37-.541-.33-1.102-.427-1.684-.287-.581.14-1.038.48-1.369 1.021-.332.54-.427 1.102-.288 1.684.14.581.481 1.038 1.021 1.37.343.209.794.312 1.355.308.56-.004 1.156-.128 1.79-.372a7.73 7.73 0 001.895-1.09 6.655 6.655 0 001.624-1.832c.541-.883.896-1.775 1.064-2.677.168-.901.173-1.76.015-2.575a6.03 6.03 0 00-.904-2.228 5.329 5.329 0 00-1.668-1.617c-1.136-.696-2.216-1.029-3.239-.998a8.345 8.345 0 00-2.981.647c-.964.4-1.905.903-2.821 1.507a28.083 28.083 0 01-2.698 1.583c-.884.45-1.765.735-2.644.854-.879.118-1.768-.098-2.67-.65a3.668 3.668 0 01-1.157-1.118 4.01 4.01 0 01-.6-1.54c-.098-.568-.076-1.18.066-1.837.142-.657.418-1.32.827-1.987zM80.28 51.305c1.287 0 2.831 1.047 2.831 1.047s-1.544 1.048-2.83 1.048c-1.289 0-1.833-1.048-1.833-1.048s.544-1.047 1.832-1.047zm-7.703 3.047c-2.458 0-5.403-2-5.403-2s2.945-1.998 5.403-1.998c2.457 0 3.496 1.998 3.496 1.998s-1.04 2-3.496 2zm-21.411-2.168c.004-.008 1.491-2.868 5.001-2.868 3.405 0 7.433 2.734 7.444 2.742l.437.295-.437.295c-.011.008-4.04 2.741-7.444 2.741-3.51 0-4.997-2.86-5.001-2.867l-.09-.17.09-.168zm5.001-2.155c2.525 0 5.464 1.639 6.582 2.324-1.118.685-4.057 2.324-6.582 2.324-2.594 0-3.92-1.764-4.275-2.324.356-.56 1.681-2.324 4.275-2.324zm20.485 3.058c-3.199 3.272-7.966 1.377-11.28-.734 3.878-2.471 8.113-3.864 11.28-.736.287.328.463.605.54.736a5.01 5.01 0 01-.54.734zm1.982-2.156a7.96 7.96 0 01-.88 1.186c-1.434-1.454-3.063-2.7-5.209-2.7-3.453 0-7.563 2.788-7.574 2.795l-.208.14.208.14c.011.008 4.121 2.796 7.574 2.796 2.148 0 3.773-1.247 5.21-2.7.316.35.61.745.88 1.185.408.667.683 1.33.825 1.987.143.656.165 1.269.066 1.837a3.985 3.985 0 01-.6 1.54c-.302.458-.687.83-1.156 1.117-.901.553-1.791.77-2.67.65-.879-.119-1.76-.403-2.644-.854a28.035 28.035 0 01-2.698-1.582 16.873 16.873 0 00-2.821-1.507 8.337 8.337 0 00-2.982-.647c-1.023-.031-2.102.302-3.238.998a5.32 5.32 0 00-1.668 1.617 6.035 6.035 0 00-.904 2.228c-.158.815-.153 1.673.015 2.575.168.901.523 1.794 1.064 2.677a6.65 6.65 0 001.624 1.832 7.68 7.68 0 001.895 1.089c.633.245 1.23.369 1.79.373.56.003 1.012-.1 1.354-.31.542-.33.881-.787 1.021-1.368.14-.582.044-1.143-.288-1.684-.33-.54-.788-.881-1.369-1.02-.581-.141-1.142-.046-1.683.287-.541.33-.882.788-1.021 1.369-.14.581-.044 1.142.288 1.683a.983.983 0 00.16.2l.186.183c.062.061.13.131.203.21a6.808 6.808 0 01-1.377-.607 7.416 7.416 0 01-1.28-.907c-.446-.383-.857-.883-1.233-1.495-.375-.613-.62-1.226-.735-1.838a5.112 5.112 0 01-.048-1.718 3.85 3.85 0 01.535-1.463 3.096 3.096 0 011.008-1.026c.901-.553 1.791-.77 2.67-.65.88.118 1.76.403 2.643.854.884.45 1.784.977 2.7 1.581a16.97 16.97 0 002.82 1.51c.965.4 1.963.613 2.995.637 1.032.025 2.107-.305 3.225-.99a5.878 5.878 0 001.822-1.73c.477-.7.792-1.47.947-2.31.156-.838.143-1.73-.038-2.673-.181-.943-.56-1.883-1.133-2.82a8.44 8.44 0 00-.928-1.255c.33-.368.64-.787.928-1.256.574-.937.952-1.878 1.132-2.82.182-.944.195-1.835.04-2.674a6.003 6.003 0 00-.948-2.309 5.879 5.879 0 00-1.822-1.73c-1.118-.686-2.193-1.015-3.225-.99a8.264 8.264 0 00-2.995.638c-.964.401-1.904.903-2.82 1.508a27.982 27.982 0 01-2.7 1.582c-.883.451-1.764.735-2.642.854-.88.119-1.77-.098-2.67-.65a3.098 3.098 0 01-1.008-1.026 3.854 3.854 0 01-.536-1.463 5.117 5.117 0 01.048-1.719c.115-.611.36-1.224.735-1.837.376-.612.787-1.112 1.233-1.495a7.434 7.434 0 011.28-.908 6.74 6.74 0 011.377-.607c-.073.079-.14.149-.203.21l-.186.183a1.013 1.013 0 00-.16.2c-.332.542-.428 1.102-.288 1.684.14.582.48 1.038 1.02 1.37.542.33 1.103.426 1.684.288.581-.14 1.038-.482 1.37-1.022.33-.541.427-1.102.287-1.684-.14-.581-.48-1.037-1.02-1.369-.343-.209-.794-.313-1.355-.31-.56.005-1.157.129-1.79.374a7.695 7.695 0 00-1.895 1.089 6.643 6.643 0 00-1.624 1.831c-.541.884-.896 1.777-1.064 2.677-.168.902-.173 1.76-.015 2.576a6.03 6.03 0 00.904 2.227 5.322 5.322 0 001.668 1.618c1.136.696 2.215 1.03 3.238.998a8.352 8.352 0 002.982-.646 16.94 16.94 0 002.82-1.508 27.916 27.916 0 012.7-1.583c.883-.45 1.764-.735 2.642-.854.88-.119 1.77.099 2.67.65.47.288.855.66 1.157 1.118.302.458.503.971.6 1.54.099.568.077 1.181-.066 1.837-.142.657-.417 1.32-.826 1.986zm13.672 14.495c0 1.287 1.048 1.831 1.048 1.831s1.047-.544 1.047-1.832c0-1.287-1.047-2.83-1.047-2.83s-1.048 1.543-1.048 2.83zm3.046 7.704c0-2.458-1.998-3.497-1.998-3.497s-2 1.039-2 3.497c0 2.457 2 5.402 2 5.402s1.998-2.945 1.998-5.402zm-2.167 21.41l.169.09.169-.09c.008-.005 2.868-1.491 2.868-5.002 0-3.403-2.734-7.432-2.742-7.444l-.295-.437-.296.437c-.007.012-2.741 4.04-2.741 7.445 0 3.51 2.86 4.996 2.868 5zm-2.155-5.002c0 2.594 1.764 3.92 2.324 4.275.56-.356 2.324-1.68 2.324-4.275 0-2.524-1.64-5.463-2.324-6.581-.685 1.118-2.324 4.057-2.324 6.582zm3.06-20.484a5.01 5.01 0 00-.737-.54c-.13.076-.407.253-.735.54-3.128 3.167-1.735 7.402.735 11.28 2.113-3.314 4.007-8.082.736-11.28zm-2.158-1.983c-.666-.408-1.329-.684-1.985-.826-.657-.142-1.27-.164-1.838-.066a3.999 3.999 0 00-1.54.6c-.457.303-.83.688-1.117 1.157-.553.901-.77 1.791-.65 2.67.118.879.403 1.76.853 2.643.451.884.978 1.784 1.583 2.7a16.886 16.886 0 011.507 2.82c.401.965.617 1.959.647 2.981.03 1.023-.302 2.103-.998 3.239a5.327 5.327 0 01-1.617 1.668 6.066 6.066 0 01-2.228.904c-.815.158-1.674.152-2.575-.015-.901-.168-1.794-.522-2.678-1.064a6.646 6.646 0 01-1.831-1.624 7.704 7.704 0 01-1.09-1.895c-.244-.633-.368-1.23-.372-1.79-.004-.561.1-1.012.309-1.355.331-.54.788-.88 1.37-1.021.58-.14 1.142-.044 1.683.288.54.331.881.788 1.02 1.37.14.58.045 1.142-.287 1.683-.331.54-.787.88-1.369 1.02-.581.14-1.143.044-1.684-.287a1.026 1.026 0 01-.2-.16l-.183-.186a7.006 7.006 0 00-.21-.203c.141.458.343.917.607 1.376.222.408.524.835.908 1.281.384.446.882.857 1.495 1.233.613.375 1.226.62 1.838.734a5.092 5.092 0 001.718.049 3.843 3.843 0 001.463-.536c.44-.275.783-.61 1.026-1.008.553-.901.77-1.79.65-2.67-.119-.878-.403-1.76-.853-2.643a28.016 28.016 0 00-1.583-2.699 16.933 16.933 0 01-1.508-2.82 8.261 8.261 0 01-.638-2.996c-.025-1.032.305-2.107.99-3.225a5.906 5.906 0 011.73-1.822 6.01 6.01 0 012.31-.947c.838-.155 1.73-.142 2.673.04.942.18 1.883.557 2.82 1.131.47.289.888.598 1.256.929a8.42 8.42 0 011.255-.929c.937-.574 1.877-.951 2.82-1.132.943-.18 1.834-.194 2.674-.039a6.024 6.024 0 012.309.947 5.9 5.9 0 011.73 1.822c.685 1.118 1.015 2.193.991 3.225a8.262 8.262 0 01-.639 2.995 16.948 16.948 0 01-1.508 2.821 27.947 27.947 0 00-1.582 2.699c-.451.883-.735 1.765-.855 2.643-.118.88.099 1.769.651 2.67a3.1 3.1 0 001.026 1.008c.442.275.929.454 1.463.536a5.091 5.091 0 001.718-.049c.612-.114 1.225-.359 1.838-.734.613-.376 1.111-.787 1.495-1.233a7.45 7.45 0 00.908-1.28c.264-.46.466-.92.607-1.377a7.817 7.817 0 00-.211.203l-.183.186a1.023 1.023 0 01-.2.16c-.54.331-1.102.427-1.683.288-.582-.14-1.038-.48-1.37-1.021-.331-.541-.427-1.102-.287-1.684.14-.581.48-1.038 1.021-1.37.541-.33 1.102-.427 1.683-.287.582.14 1.038.48 1.37 1.021.209.343.312.794.309 1.354-.004.56-.128 1.158-.373 1.791a7.693 7.693 0 01-1.089 1.895 6.648 6.648 0 01-1.831 1.624c-.884.542-1.777.896-2.677 1.064-.902.167-1.761.173-2.576.015a6.063 6.063 0 01-2.228-.904 5.326 5.326 0 01-1.617-1.668c-.696-1.136-1.029-2.216-.998-3.239a8.348 8.348 0 01.647-2.98c.4-.965.903-1.906 1.507-2.822a28.197 28.197 0 001.583-2.699c.45-.883.735-1.764.854-2.643.119-.879-.099-1.769-.651-2.67a3.658 3.658 0 00-1.117-1.157 4.006 4.006 0 00-1.54-.6c-.568-.098-1.181-.076-1.838.066-.656.142-1.319.418-1.986.826a7.96 7.96 0 00-1.185.88c1.453 1.437 2.7 3.062 2.7 5.21 0 3.453-2.788 7.562-2.796 7.574l-.14.207-.14-.207c-.006-.012-2.796-4.121-2.796-7.575 0-2.145 1.248-3.774 2.7-5.209a7.88 7.88 0 00-1.185-.88zm2.469-27.792c0-1.288-1.047-1.832-1.047-1.832s-1.048.544-1.048 1.832c0 1.287 1.048 2.831 1.048 2.831s1.047-1.544 1.047-2.83zm-3.047-7.704c0 2.457 2 3.497 2 3.497s1.998-1.04 1.998-3.497-1.998-5.403-1.998-5.403-2 2.946-2 5.403zm2.168-21.41l-.169-.09-.168.09c-.009.004-2.869 1.49-2.869 5.001 0 3.405 2.734 7.433 2.742 7.444l.295.437.296-.437c.007-.011 2.741-4.04 2.741-7.444 0-3.51-2.86-4.997-2.868-5.001zm2.155 5.001c0-2.594-1.763-3.92-2.324-4.275-.56.356-2.324 1.68-2.324 4.275 0 2.524 1.639 5.464 2.324 6.582.685-1.118 2.324-4.058 2.324-6.582zM92.62 35.651c.326.287.605.464.734.54.131-.076.409-.253.736-.54 3.128-3.167 1.735-7.402-.736-11.28-2.11 3.314-4.006 8.081-.734 11.28zm2.156 1.982c.666.409 1.33.685 1.986.826.656.142 1.269.165 1.838.066a3.993 3.993 0 001.539-.6 3.66 3.66 0 001.118-1.156c.551-.901.769-1.791.65-2.67-.119-.88-.403-1.76-.854-2.643a27.796 27.796 0 00-1.582-2.7 16.891 16.891 0 01-1.508-2.82 8.36 8.36 0 01-.647-2.981c-.031-1.024.302-2.103.998-3.24a5.31 5.31 0 011.618-1.667 6.038 6.038 0 012.227-.904c.815-.158 1.674-.152 2.576.015.9.168 1.793.523 2.677 1.063a6.64 6.64 0 011.831 1.625 7.67 7.67 0 011.089 1.895c.245.633.369 1.23.373 1.79.004.56-.1 1.012-.309 1.354-.332.541-.788.881-1.37 1.021-.581.14-1.142.044-1.683-.288-.54-.33-.881-.788-1.021-1.369-.139-.581-.044-1.142.288-1.684.331-.54.787-.88 1.369-1.02s1.143-.044 1.684.288a.976.976 0 01.2.16c.061.06.121.124.182.186.062.062.132.13.211.203a6.707 6.707 0 00-.607-1.377 7.466 7.466 0 00-.908-1.28c-.383-.447-.882-.857-1.495-1.233-.613-.375-1.226-.62-1.837-.735a5.103 5.103 0 00-1.719-.049 3.851 3.851 0 00-1.463.536 3.1 3.1 0 00-1.026 1.009c-.552.9-.769 1.79-.65 2.67.119.878.403 1.759.854 2.642.45.884.977 1.784 1.582 2.7a16.88 16.88 0 011.508 2.82 8.24 8.24 0 01.638 2.995c.025 1.032-.304 2.107-.989 3.225a5.89 5.89 0 01-1.731 1.822c-.7.476-1.47.792-2.309.947-.84.156-1.73.143-2.673-.039-.944-.18-1.884-.558-2.821-1.132a8.576 8.576 0 01-1.256-.928c-.367.33-.785.64-1.254.928-.938.574-1.879.952-2.82 1.132-.945.182-1.836.195-2.674.04a6.012 6.012 0 01-2.31-.948 5.887 5.887 0 01-1.73-1.822c-.685-1.118-1.015-2.193-.99-3.225a8.247 8.247 0 01.638-2.995c.4-.964.904-1.905 1.508-2.82a28.008 28.008 0 001.583-2.7c.45-.883.735-1.764.854-2.642.118-.88-.098-1.77-.651-2.67a3.094 3.094 0 00-1.026-1.009 3.852 3.852 0 00-1.463-.536 5.096 5.096 0 00-1.718.049c-.612.115-1.225.36-1.838.735-.612.376-1.112.786-1.495 1.232a7.415 7.415 0 00-.907 1.281 6.77 6.77 0 00-.608 1.377c.08-.073.15-.14.21-.203l.184-.186a.95.95 0 01.2-.16c.54-.332 1.102-.428 1.683-.288s1.038.48 1.37 1.02c.332.542.427 1.103.287 1.684s-.48 1.038-1.02 1.369c-.542.332-1.103.428-1.684.288-.582-.14-1.039-.48-1.37-1.02-.21-.343-.312-.795-.31-1.355.005-.56.13-1.157.374-1.79a7.678 7.678 0 011.089-1.895 6.65 6.65 0 011.832-1.625c.883-.54 1.776-.895 2.677-1.064.902-.166 1.76-.172 2.576-.014a6.037 6.037 0 012.227.904 5.312 5.312 0 011.617 1.668c.696 1.136 1.03 2.215.999 3.239a8.346 8.346 0 01-.648 2.98c-.4.965-.902 1.905-1.507 2.822a27.888 27.888 0 00-1.582 2.699c-.451.883-.735 1.764-.855 2.643-.118.879.098 1.769.651 2.67.287.468.66.854 1.118 1.156.457.302.97.502 1.539.6.569.099 1.181.077 1.838-.066.657-.141 1.319-.417 1.986-.826.44-.27.836-.563 1.185-.88-1.452-1.437-2.7-3.061-2.7-5.209 0-3.453 2.788-7.563 2.796-7.573l.14-.209.14.209c.007.01 2.795 4.12 2.795 7.573 0 2.146-1.246 3.774-2.7 5.21.351.316.746.61 1.186.88zm23.884-6.544c-2.331 2.008-4.95.962-4.95.962s-.649-2.745 1.682-4.755c2.331-2.008 6.759-2.52 6.759-2.52s-1.16 4.304-3.491 6.313z" fill="#FEFEFE"/><path fill-rule="evenodd" clip-rule="evenodd" d="M124.339 112.715l1.605 4.972 5.225-.01-4.233 3.063 1.624 4.966-4.221-3.079-4.221 3.079 1.624-4.966-4.233-3.063 5.225.01 1.605-4.972zm-62.646 0l1.605 4.972 5.225-.01-4.233 3.063 1.624 4.966-4.221-3.079-4.221 3.079 1.624-4.966-4.233-3.063 5.225.01 1.605-4.972zm46.985 0l1.605 4.972 5.224-.01-4.232 3.063 1.624 4.966-4.221-3.079-4.221 3.079 1.624-4.966-4.233-3.063 5.225.01 1.605-4.972zm-31.323 0l1.605 4.972 5.224-.01-4.233 3.063 1.625 4.966-4.221-3.079-4.222 3.079 1.625-4.966-4.233-3.063 5.224.01 1.606-4.972zm15.661 0l1.605 4.972 5.225-.01-4.233 3.063 1.624 4.966-4.22-3.079-4.222 3.079 1.624-4.966-4.233-3.063 5.225.01 1.605-4.972z" fill="url(#paint1_linear_2_2806)"/><path fill-rule="evenodd" clip-rule="evenodd" d="M33.082 163.687h25.237v-.578H33.082v.578z" fill="#2B2A29"/><path d="M66.166 158.635h.424v2.368h1.898v.573H66.59v3.745c0 .325.077.573.229.745a.743.743 0 00.581.259c.28 0 .52-.132.716-.395.199-.261.314-.694.347-1.299h.423c-.026.777-.203 1.352-.532 1.727-.33.376-.757.565-1.283.565-.483 0-.862-.132-1.135-.395-.274-.263-.41-.609-.41-1.037v-3.915h-1.027v-.435c.47-.079.83-.272 1.075-.577.366-.459.563-1.102.593-1.929zm6.041 2.368l2.117-.102v2.351c.226-.774.498-1.358.814-1.755.319-.396.71-.596 1.178-.596.319 0 .573.096.763.289.19.191.285.449.285.77 0 .261-.064.465-.19.609a.613.613 0 01-.48.216.59.59 0 01-.455-.186c-.113-.124-.17-.291-.17-.503 0-.136.031-.263.097-.384a.776.776 0 00.095-.193c0-.062-.041-.094-.12-.094-.171 0-.364.1-.582.299-.299.278-.53.66-.692 1.144-.25.755-.377 1.358-.377 1.81v1.25c0 .14.05.248.15.322.1.075.274.113.515.113h.746v.471h-3.655v-.471h.583c.197 0 .347-.038.447-.115a.34.34 0 00.15-.278v-3.707c0-.282-.06-.488-.182-.619-.122-.13-.295-.196-.522-.196h-.515v-.445zm14.689 5.181l.224.349c-.308.311-.648.466-1.022.466-.286 0-.526-.076-.722-.229-.195-.155-.366-.422-.514-.808-.395.413-.741.689-1.04.829-.3.138-.659.208-1.078.208-.599 0-1.054-.129-1.364-.386a1.22 1.22 0 01-.468-.987c0-.604.357-1.107 1.069-1.508.712-.399 1.659-.666 2.843-.798v-.876c0-.312-.126-.58-.38-.802-.255-.223-.578-.334-.969-.334a1.86 1.86 0 00-.936.225c-.186.111-.28.221-.28.329 0 .062.051.159.152.293.121.166.181.312.181.441 0 .187-.06.34-.181.457a.646.646 0 01-.473.178.698.698 0 01-.522-.212.74.74 0 01-.21-.541c0-.412.234-.79.7-1.129.466-.342 1.077-.512 1.832-.512.7 0 1.231.149 1.6.448.367.301.55.668.55 1.099v3.179c0 .28.046.488.137.619.093.138.212.206.357.206.163 0 .334-.068.514-.204zm-2.072-2.457c-1.054.145-1.8.382-2.24.709-.327.25-.492.603-.492 1.059 0 .32.085.569.254.749a.88.88 0 00.667.272c.49 0 .913-.187 1.272-.559.36-.371.54-.836.54-1.396v-.834zm7.257-6.2c.188 0 .353.07.494.212a.673.673 0 01.214.497.66.66 0 01-.207.486.673.673 0 01-.494.206.693.693 0 01-.5-.208.676.676 0 01.004-.981.672.672 0 01.49-.212zm-1.64 3.476l2.348-.064v5.008c0 .136.034.233.1.291a.544.544 0 00.364.125h.665v.471H90.57v-.471h.622c.184 0 .319-.045.404-.134.085-.089.128-.218.128-.388v-3.665c0-.231-.066-.407-.2-.526-.135-.117-.334-.176-.597-.176h-.486v-.471zm6.847-.013l1.95-.102c.081.365.141.794.18 1.284.263-.424.573-.74.93-.953a2.328 2.328 0 011.212-.318c.387 0 .714.076.977.227.263.151.472.391.632.717.159.327.238.694.238 1.099v2.835c0 .21.047.361.143.45.096.089.257.134.483.134h.413v.471h-3.091v-.471h.292c.274 0 .464-.043.571-.13.109-.087.163-.218.163-.392v-2.489c0-.543-.084-.944-.25-1.205-.234-.372-.588-.558-1.063-.558-.47 0-.864.188-1.178.564-.314.378-.472.868-.472 1.473v2.153c0 .21.049.361.147.45.098.089.259.134.485.134h.407v.471h-3.104v-.471h.404c.203 0 .357-.043.463-.125a.384.384 0 00.159-.312v-3.769c0-.248-.069-.437-.203-.566-.137-.13-.332-.193-.586-.193h-.302v-.408zm16.029 2.967h-4.194c.021.886.188 1.515.5 1.88.359.409.814.615 1.37.615.817 0 1.473-.463 1.969-1.388l.406.174c-.609 1.174-1.49 1.761-2.64 1.761a2.635 2.635 0 01-1.982-.844c-.536-.562-.803-1.282-.803-2.158 0-.944.263-1.706.791-2.288.528-.581 1.177-.872 1.949-.872.567 0 1.056.145 1.471.435.413.289.723.705.932 1.246.146.38.222.859.231 1.439zm-4.194-.446h2.539c.15 0 .268-.051.351-.153.083-.1.124-.271.124-.515 0-.455-.143-.841-.428-1.159-.286-.318-.622-.477-1.011-.477-.434 0-.801.191-1.103.575-.301.384-.46.961-.472 1.729zm7.719-2.508l2.116-.102v2.351c.227-.774.498-1.358.815-1.755.318-.396.709-.596 1.178-.596.318 0 .572.096.763.289.19.191.284.449.284.77 0 .261-.064.465-.19.609a.615.615 0 01-.479.216.588.588 0 01-.455-.186c-.114-.124-.172-.291-.172-.503 0-.136.033-.263.099-.384a.774.774 0 00.094-.193c0-.062-.041-.094-.12-.094-.171 0-.363.1-.581.299-.3.278-.531.66-.693 1.144-.25.755-.376 1.358-.376 1.81v1.25c0 .14.049.248.149.322.101.075.274.113.516.113h.746v.471h-3.656v-.471h.584c.196 0 .346-.038.446-.115a.338.338 0 00.15-.278v-3.707c0-.282-.06-.488-.182-.619-.121-.13-.294-.196-.521-.196h-.515v-.445z" fill="#2B2A29"/><path fill-rule="evenodd" clip-rule="evenodd" d="M127.833 163.718h25.237v-.577h-25.237v.577zM74.69 150.971v-17.162a.134.134 0 00-.007-.049.147.147 0 00-.031-.043.128.128 0 00-.043-.027.201.201 0 00-.075-.012H70.61c.204.295.36.633.464 1.013.112.403.168.85.168 1.338l.002 14.96a.203.203 0 00.038.047l.046.037 3.206.003a.226.226 0 00.076-.011.13.13 0 00.041-.028l.037-.047.003-.019zm-9.674-17.293h-3.108a.199.199 0 00-.075.012.13.13 0 00-.042.026.165.165 0 00-.033.044l-.007.049v6.661c0 .279-.1.519-.3.719a1.039 1.039 0 01-.312.215.898.898 0 01-.38.084h-5.747c-.308 0-.553-.094-.732-.282-.173-.181-.26-.427-.26-.736v-6.661a.142.142 0 00-.007-.049.142.142 0 00-.033-.042.11.11 0 00-.042-.028.2.2 0 00-.075-.012h-3.898c.204.295.36.633.464 1.013.112.403.168.85.168 1.338l.002 14.96.038.047.046.037 3.18.003a.225.225 0 00.076-.011.178.178 0 00.079-.077l.002-7.07c0-.679.33-1.018.992-1.018h5.747c.13 0 .256.027.379.082a1.043 1.043 0 01.613.936l.001 7.071.038.047a.112.112 0 00.043.028.194.194 0 00.075.012h3.108a.222.222 0 00.076-.011.128.128 0 00.042-.028.19.19 0 00.037-.049l.003-17.179a.136.136 0 00-.008-.049.139.139 0 00-.032-.042.113.113 0 00-.042-.028.2.2 0 00-.076-.012zm21.868 0v3.476a.662.662 0 00-.382.14.692.692 0 00-.239.363l-2.156 5.794-.002.003a1.256 1.256 0 00-.085.424.704.704 0 00.474.685c.109.04.231.06.367.06h2.023v1.437h-3.016c-.232 0-.434.061-.602.182a.997.997 0 00-.366.513l-1.457 4.06a.424.424 0 01-.141.205.396.396 0 01-.229.056H79.13l5.676-14.894c.21-.572.316-1.068.316-1.485 0-.187-.02-.367-.057-.537a2.155 2.155 0 00-.165-.477l-.002-.005h1.987zm-52.787 11.973l-1.07 1.965a.181.181 0 00-.027.091v.009a.536.536 0 00.065.21l.005.006c.242.508.56.971.955 1.385.4.42.88.797 1.443 1.129a6.866 6.866 0 001.824.745 8.737 8.737 0 002.143.251c1.82 0 3.257-.484 4.312-1.45a4.753 4.753 0 001.176-1.619c.26-.599.39-1.266.39-2 0-.778-.137-1.496-.41-2.155a5.375 5.375 0 00-.492-.927 5.13 5.13 0 00-.653-.797 13.13 13.13 0 00-.763-.706 9.633 9.633 0 00-.744-.576 14.368 14.368 0 00-.8-.516 18.182 18.182 0 00-.895-.503l-.169-.079-.227-.12a63.963 63.963 0 01-.935-.488c-.29-.157-.527-.286-.704-.39a4.773 4.773 0 01-1.123-.906 2.306 2.306 0 01-.422-.632 1.765 1.765 0 01-.153-.713c0-.321.06-.614.177-.878.12-.269.3-.501.536-.692.23-.186.5-.325.808-.415a3.54 3.54 0 01.986-.13 4.2 4.2 0 011.152.155c.367.104.709.26 1.024.466.298.196.567.407.805.63.238.224.445.463.62.715a.28.28 0 00.073.074l.03.011.917-1.524a.59.59 0 00.07-.26.13.13 0 00-.041-.084 5.442 5.442 0 00-2.005-1.209c-.79-.275-1.698-.412-2.723-.412-.766 0-1.47.101-2.112.303-.635.2-1.214.5-1.733.898-.509.39-.89.839-1.144 1.345a3.891 3.891 0 00-.394 1.713c.001.378.032.733.094 1.066.062.332.154.649.278.947.121.294.275.572.46.833.188.262.406.507.655.731a11.445 11.445 0 002.403 1.696c.326.178.68.361 1.06.547 1.201.59 2.09 1.133 2.667 1.627.325.28.57.604.734.975a3 3 0 01.244 1.216c0 .416-.073.795-.22 1.137a2.5 2.5 0 01-.664.907c-.29.254-.639.445-1.042.57-.389.12-.826.18-1.312.18-1.227 0-2.327-.434-3.299-1.301a6.066 6.066 0 01-1.175-1.406 5.567 5.567 0 01-.655-1.645zm88.788 5.32v-17.162a.136.136 0 00-.008-.049.135.135 0 00-.073-.07.205.205 0 00-.076-.012h-3.924c.204.295.359.633.465 1.013.111.403.167.85.167 1.338l.002 14.96a.233.233 0 00.038.047l.046.037 3.206.003a.222.222 0 00.076-.011.13.13 0 00.041-.028l.038-.047.002-.019zm-22.448-14.942l.002 14.96.038.047.046.037 3.18.003a.226.226 0 00.076-.011.13.13 0 00.041-.028l.037-.047.003-5.975c0-.218.03-.417.088-.599.063-.196.16-.366.289-.509l.262-.287c.405-.476.806-.457 1.199.054l5.23 7.006c.206.263.55.396 1.029.396h3.24l-7.426-9.73c-.373-.467-.362-.899.033-1.294l5.97-6.374h-2.078c-.211 0-.394.034-.551.1-.15.066-.282.163-.393.293-1.84 2.146-3.912 4.182-5.769 6.321a.92.92 0 01-.277.197.575.575 0 01-.784-.303l-.001-.004a.865.865 0 01-.061-.334v-6.139a.136.136 0 00-.008-.049.152.152 0 00-.031-.043.124.124 0 00-.043-.027.196.196 0 00-.075-.012h-3.898c.204.295.359.633.464 1.013.112.403.168.85.168 1.338zM86.885 146.06v-1.437h1.972c.804 0 1.064-.39.78-1.169l-2.078-5.796a.707.707 0 00-.213-.348.621.621 0 00-.422-.157l-.04.001v-3.476h2.208c.115 0 .204.022.264.065a.481.481 0 01.155.238l6.488 17.095h-3.38a.406.406 0 01-.23-.056.442.442 0 01-.141-.207l-1.457-4.058c-.154-.462-.512-.695-1.072-.695h-2.834zm50.036-12.346v1.59a6.367 6.367 0 00-1.568-.188h-2.063a.946.946 0 00-.717.315 1.03 1.03 0 00-.275.729v12.46c0 .139.023.269.069.39.05.132.123.247.219.34a.955.955 0 00.704.288h2.063c.552 0 1.074-.063 1.568-.188v1.59c-.299.024-.604.036-.914.036l-7.046-.003-.046-.037-.038-.047-.002-14.96c0-.488-.056-.935-.168-1.338a3.321 3.321 0 00-.464-1.013h7.764c.31 0 .615.012.914.036zm16.231 17.257v-17.165a.117.117 0 00-.039-.089.146.146 0 00-.043-.027.2.2 0 00-.075-.012h-3.925a3.3 3.3 0 01.465 1.013c.112.403.168.85.168 1.338l.002 14.96a.191.191 0 00.037.047l.046.037 3.207.003a.22.22 0 00.075-.011.124.124 0 00.042-.028l.037-.047.003-.019zm-16.231.069v-1.59c.318-.081.623-.187.917-.319a5.725 5.725 0 001.991-1.515 6.67 6.67 0 001.291-2.326c.282-.87.423-1.842.423-2.913 0-1.071-.141-2.043-.423-2.915a6.669 6.669 0 00-1.291-2.323 5.707 5.707 0 00-1.991-1.516 5.434 5.434 0 00-.917-.319v-1.59c2.233.176 4.129 1.011 5.688 2.504.883.845 1.545 1.78 1.986 2.801.439 1.019.659 2.13.659 3.332 0 1.221-.22 2.345-.659 3.373-.44 1.028-1.103 1.966-1.986 2.812-1.559 1.493-3.455 2.328-5.688 2.504z" fill="#2B2A29"/><defs><linearGradient id="paint0_linear_2_2806" x1="123.784" y1="94.956" x2="62.924" y2="9.752" gradientUnits="userSpaceOnUse"><stop stop-color="#DBC175"/><stop offset=".227" stop-color="#C9A550"/><stop offset=".459" stop-color="#EDDA8D"/><stop offset="1" stop-color="#B7892B"/></linearGradient><linearGradient id="paint1_linear_2_2806" x1="128.136" y1="182.015" x2="92.767" y2="104.177" gradientUnits="userSpaceOnUse"><stop stop-color="#DBC175"/><stop offset=".227" stop-color="#C9A550"/><stop offset=".459" stop-color="#EDDA8D"/><stop offset="1" stop-color="#B7892B"/></linearGradient></defs></svg>