<svg width="186" height="169" fill="none" xmlns="http://www.w3.org/2000/svg"><g clip-path="url(#clip0_2_2819)"><path fill-rule="evenodd" clip-rule="evenodd" d="M93.256 0c14.43 0 27.494 5.85 36.951 15.306 9.456 9.456 15.305 22.52 15.305 36.95 0 14.43-5.849 27.494-15.305 36.95-9.457 9.457-22.521 15.306-36.95 15.306-14.43 0-27.495-5.849-36.951-15.305C46.849 79.75 41 66.686 41 52.257c0-14.43 5.85-27.495 15.306-36.951C65.762 5.849 78.826 0 93.256 0zm34.125 18.131c-8.733-8.733-20.798-14.134-34.125-14.134-13.326 0-25.392 5.401-34.125 14.134S44.997 38.93 44.997 52.256c0 13.327 5.401 25.392 14.134 34.125s20.799 14.135 34.125 14.135c13.327 0 25.392-5.402 34.125-14.135s14.135-20.798 14.135-34.125c0-13.327-5.402-25.392-14.135-34.125z" fill="url(#paint0_linear_2_2819)"/><path fill-rule="evenodd" clip-rule="evenodd" d="M118.514 73.543c-2.327-2.005-4.942-.96-4.942-.96s-.647 2.74 1.68 4.745c2.326 2.006 6.746 2.517 6.746 2.517s-1.158-4.296-3.484-6.302zm-29.98-12.282h-.48v-5.999h.48c.595 3.33 2.33 4.991 5.205 4.991.994 0 1.821-.267 2.482-.8.661-.534.994-1.222.994-2.062 0-.948-.487-1.788-1.454-2.53-2.296-1.34-4.177-2.488-5.658-3.455-1.475-.968-2.21-2.249-2.21-3.837 0-1.314.488-2.409 1.476-3.283.98-.88 2.195-1.32 3.643-1.32.94 0 1.921.226 2.955.68.487.22.828.327 1.022.327.453 0 .747-.34.893-1.008h.474v6.052h-.474c-.253-1.788-.84-3.07-1.754-3.85-.921-.78-1.948-1.168-3.083-1.168-.847 0-1.581.26-2.188.781-.608.514-.915 1.148-.915 1.895 0 .487.208 1 .62 1.542.415.546 1.663 1.38 3.744 2.495 1.275.687 2.242 1.247 2.903 1.688a5.688 5.688 0 011.64 1.715c.441.7.661 1.46.661 2.282 0 1.394-.527 2.548-1.588 3.476-1.053.927-2.362 1.388-3.91 1.388-.84 0-1.881-.207-3.122-.614-.76-.254-1.288-.38-1.575-.38-.42 0-.68.326-.78.994zM67.999 31.034c2.326 2.005 4.941.96 4.941.96s.648-2.74-1.679-4.745-6.746-2.516-6.746-2.516 1.158 4.296 3.484 6.301zm0 42.51c2.326-2.006 4.941-.96 4.941-.96s.648 2.74-1.68 4.744c-2.326 2.006-6.746 2.517-6.746 2.517s1.158-4.296 3.485-6.302zm38.307-20.24c-1.286 0-2.826-1.047-2.826-1.047s1.54-1.045 2.826-1.045c1.285 0 1.828 1.045 1.828 1.045s-.543 1.046-1.828 1.046zm7.689-3.041c2.453 0 5.393 1.995 5.393 1.995s-2.94 1.995-5.393 1.995-3.49-1.995-3.49-1.995 1.037-1.995 3.49-1.995zm21.37 2.163c-.004.008-1.488 2.862-4.992 2.862-3.398 0-7.418-2.728-7.43-2.736l-.436-.295.436-.294c.012-.008 4.032-2.737 7.43-2.737 3.504 0 4.988 2.855 4.992 2.863l.091.168-.091.169zm-4.992 2.15c-2.519 0-5.453-1.635-6.569-2.319 1.116-.683 4.05-2.319 6.569-2.319 2.59 0 3.912 1.76 4.267 2.32-.355.558-1.677 2.319-4.267 2.319zm-20.446-3.053c3.193-3.264 7.951-1.373 11.259.735-3.871 2.466-8.098 3.856-11.259.734a5.092 5.092 0 01-.539-.734 5.1 5.1 0 01.539-.735zm-1.979 2.153c.269-.439.562-.833.878-1.183 1.433 1.451 3.058 2.695 5.2 2.695 3.447 0 7.548-2.783 7.56-2.79l.207-.14-.207-.14c-.012-.007-4.113-2.79-7.56-2.79-2.143 0-3.766 1.245-5.2 2.695a7.937 7.937 0 01-.878-1.183c-.408-.666-.683-1.327-.824-1.983-.142-.655-.164-1.267-.066-1.834.097-.567.298-1.08.599-1.537a3.652 3.652 0 011.154-1.115c.9-.552 1.788-.768 2.666-.65.876.12 1.755.404 2.638.853.882.45 1.78.977 2.694 1.58a16.839 16.839 0 002.815 1.505 8.34 8.34 0 002.976.645c1.021.03 2.098-.302 3.232-.996a5.31 5.31 0 001.665-1.614c.445-.669.746-1.41.903-2.224a6.846 6.846 0 00-.016-2.57c-.167-.9-.521-1.79-1.061-2.673A6.636 6.636 0 00125.7 36.4a7.692 7.692 0 00-1.891-1.087c-.632-.244-1.228-.368-1.787-.372-.559-.004-1.01.099-1.352.309-.539.33-.879.786-1.019 1.366-.139.58-.044 1.14.287 1.68.331.54.787.88 1.367 1.02.581.139 1.141.043 1.681-.287.54-.331.879-.786 1.019-1.367.139-.58.043-1.14-.287-1.68a1.089 1.089 0 00-.16-.2l-.186-.183a6.163 6.163 0 01-.203-.21c.457.14.915.343 1.374.606.407.221.833.523 1.279.906.445.383.855.88 1.229 1.492.376.612.62 1.224.734 1.834.115.61.131 1.183.048 1.716a3.84 3.84 0 01-.534 1.46 3.09 3.09 0 01-1.006 1.024c-.9.551-1.788.768-2.665.65a8.244 8.244 0 01-2.638-.853c-.882-.45-1.78-.977-2.694-1.58a16.97 16.97 0 00-2.816-1.505 8.266 8.266 0 00-2.99-.637c-1.029-.025-2.102.305-3.218.988a5.88 5.88 0 00-1.819 1.727 5.999 5.999 0 00-.945 2.305c-.155.838-.142 1.727.038 2.669.181.94.558 1.879 1.131 2.815a8.5 8.5 0 00.926 1.252c-.33.368-.639.785-.926 1.254-.573.935-.95 1.874-1.131 2.815-.18.942-.193 1.83-.038 2.668.155.838.47 1.606.945 2.306a5.885 5.885 0 001.819 1.727c1.116.683 2.189 1.013 3.218.988a8.246 8.246 0 002.99-.637c.963-.4 1.901-.903 2.816-1.506a27.927 27.927 0 012.694-1.579c.881-.45 1.761-.734 2.638-.852.877-.12 1.765.097 2.665.649.396.242.731.584 1.006 1.024.274.44.452.928.534 1.46a5.043 5.043 0 01-.048 1.715c-.114.611-.358 1.222-.734 1.834-.374.612-.784 1.11-1.229 1.492a7.434 7.434 0 01-1.279.906 6.777 6.777 0 01-1.374.606c.073-.078.141-.148.203-.21l.186-.182c.062-.061.115-.127.16-.2.33-.54.426-1.1.287-1.68-.14-.58-.479-1.036-1.019-1.367-.54-.33-1.1-.426-1.681-.287-.58.14-1.036.48-1.367 1.02-.331.539-.426 1.1-.287 1.68.14.58.48 1.036 1.019 1.367.342.209.793.311 1.352.308.559-.004 1.155-.128 1.787-.372a7.691 7.691 0 001.891-1.087 6.623 6.623 0 001.622-1.829c.54-.881.894-1.772 1.061-2.672.168-.9.173-1.756.016-2.57a6.028 6.028 0 00-.903-2.224 5.315 5.315 0 00-1.665-1.614c-1.134-.695-2.211-1.027-3.232-.996a8.327 8.327 0 00-2.976.645c-.963.4-1.901.902-2.815 1.505a28.033 28.033 0 01-2.694 1.58c-.883.45-1.762.734-2.638.852-.878.118-1.766-.098-2.666-.65a3.655 3.655 0 01-1.154-1.115 3.98 3.98 0 01-.599-1.537c-.098-.567-.076-1.178.066-1.833.141-.656.416-1.317.824-1.983zm-27.74-2.464c1.285 0 2.826 1.045 2.826 1.045s-1.541 1.047-2.826 1.047c-1.286 0-1.829-1.047-1.829-1.047s.543-1.045 1.83-1.045zm-7.69 3.041c-2.452 0-5.392-1.995-5.392-1.995s2.94-1.995 5.393-1.995c2.452 0 3.49 1.995 3.49 1.995s-1.038 1.995-3.49 1.995zm-21.37-2.163c.004-.008 1.489-2.863 4.992-2.863 3.398 0 7.419 2.729 7.43 2.736l.436.295-.436.294c-.011.009-4.032 2.737-7.43 2.737-3.504 0-4.988-2.854-4.992-2.862l-.09-.169.09-.169zm4.992-2.152c2.52 0 5.454 1.636 6.57 2.32-1.116.684-4.05 2.32-6.57 2.32-2.59 0-3.912-1.761-4.267-2.32.355-.56 1.678-2.32 4.267-2.32zm20.446 3.053c-3.192 3.266-7.95 1.374-11.258-.733 3.87-2.466 8.097-3.857 11.258-.735.287.328.463.605.54.735-.077.13-.253.407-.54.733zm1.98-2.152c-.27.44-.563.834-.879 1.184-1.432-1.451-3.058-2.696-5.2-2.696-3.446 0-7.548 2.784-7.56 2.79l-.207.141.208.139c.01.008 4.113 2.791 7.56 2.791 2.143 0 3.765-1.245 5.2-2.695.315.349.608.743.877 1.183.408.666.683 1.326.825 1.983.142.654.164 1.266.065 1.834a3.976 3.976 0 01-.599 1.536c-.301.458-.686.83-1.154 1.116-.9.551-1.787.767-2.665.65-.877-.12-1.757-.404-2.638-.854-.882-.45-1.78-.976-2.694-1.579a16.846 16.846 0 00-2.815-1.505 8.326 8.326 0 00-2.976-.645c-1.022-.031-2.098.3-3.233.996a5.308 5.308 0 00-1.665 1.614 6.024 6.024 0 00-.902 2.223c-.158.814-.152 1.671.015 2.571.168.9.522 1.791 1.062 2.672a6.634 6.634 0 001.621 1.829c.63.48 1.26.843 1.891 1.087.632.244 1.228.368 1.788.372.559.003 1.01-.1 1.351-.31.54-.33.88-.785 1.019-1.366.14-.58.043-1.14-.287-1.68-.33-.54-.787-.88-1.367-1.019-.58-.14-1.14-.044-1.68.287-.54.33-.88.787-1.02 1.367-.138.58-.043 1.14.288 1.68.045.073.097.138.16.2l.186.183c.062.06.13.13.202.21a6.793 6.793 0 01-1.374-.607 7.4 7.4 0 01-1.278-.906c-.445-.382-.855-.88-1.23-1.492s-.62-1.223-.734-1.834a5.1 5.1 0 01-.048-1.715c.083-.533.26-1.02.535-1.46a3.09 3.09 0 011.006-1.024c.899-.552 1.787-.768 2.665-.65.877.119 1.756.403 2.637.853.883.45 1.78.976 2.695 1.579a16.948 16.948 0 002.815 1.506c.963.4 1.96.612 2.99.636 1.03.025 2.103-.304 3.219-.987a5.867 5.867 0 001.818-1.728c.476-.7.79-1.467.945-2.305.156-.837.142-1.726-.038-2.669-.18-.94-.558-1.879-1.131-2.814a8.425 8.425 0 00-.926-1.253c.33-.367.64-.785.926-1.253.573-.936.95-1.874 1.13-2.816.181-.941.195-1.83.04-2.668a5.99 5.99 0 00-.946-2.305 5.868 5.868 0 00-1.818-1.727c-1.116-.684-2.19-1.013-3.22-.988a8.247 8.247 0 00-2.99.637c-.961.4-1.9.902-2.814 1.506a27.908 27.908 0 01-2.695 1.579c-.881.45-1.76.733-2.637.852-.878.118-1.766-.098-2.665-.649a3.091 3.091 0 01-1.006-1.025 3.847 3.847 0 01-.535-1.46 5.106 5.106 0 01.048-1.715c.115-.61.36-1.221.734-1.834.375-.611.785-1.11 1.23-1.492a7.425 7.425 0 011.278-.906 6.725 6.725 0 011.374-.606 6.68 6.68 0 01-.202.21c-.062.061-.125.121-.186.183-.063.06-.115.127-.16.199-.33.54-.426 1.1-.287 1.68.14.582.479 1.037 1.019 1.367.54.33 1.1.426 1.68.288.58-.14 1.036-.48 1.367-1.02.33-.54.427-1.1.287-1.68-.14-.58-.479-1.035-1.019-1.367-.342-.208-.792-.312-1.351-.308-.56.004-1.156.128-1.788.372a7.678 7.678 0 00-1.89 1.087 6.63 6.63 0 00-1.622 1.828c-.54.882-.894 1.773-1.062 2.672-.167.9-.173 1.757-.015 2.571a6.02 6.02 0 00.902 2.223c.444.67 1 1.207 1.665 1.615 1.135.694 2.211 1.027 3.233.996a8.334 8.334 0 002.976-.646c.962-.4 1.9-.901 2.815-1.505a27.84 27.84 0 012.694-1.579c.882-.45 1.761-.734 2.638-.852.878-.12 1.766.098 2.665.648a3.65 3.65 0 011.154 1.116c.302.457.502.97.6 1.537.098.567.076 1.18-.066 1.834-.142.655-.417 1.316-.825 1.982zM92.21 65.306c0 1.286 1.046 1.829 1.046 1.829s1.045-.543 1.045-1.829c0-1.285-1.045-2.825-1.045-2.825s-1.046 1.54-1.046 2.825zm3.041 7.69c0-2.453-1.995-3.49-1.995-3.49s-1.995 1.037-1.995 3.49c0 2.453 1.995 5.393 1.995 5.393s1.995-2.94 1.995-5.393zm-2.163 21.37l.168.09.169-.09c.008-.004 2.863-1.488 2.863-4.992 0-3.397-2.73-7.419-2.737-7.43l-.295-.437-.295.437c-.007.011-2.736 4.032-2.736 7.43 0 3.504 2.855 4.988 2.863 4.992zm-2.151-4.992c0 2.59 1.76 3.912 2.32 4.267.559-.355 2.319-1.678 2.319-4.267 0-2.52-1.636-5.453-2.32-6.57-.683 1.117-2.319 4.05-2.319 6.57zm3.053-20.446a4.994 4.994 0 00-.734-.539 4.98 4.98 0 00-.734.539c-3.122 3.161-1.732 7.388.734 11.259 2.108-3.308 4-8.067.734-11.26zm-2.153-1.979c-.665-.408-1.326-.683-1.982-.824-.655-.142-1.266-.165-1.834-.066a3.991 3.991 0 00-1.537.599 3.654 3.654 0 00-1.115 1.154c-.552.9-.768 1.788-.65 2.665.119.877.404 1.756.853 2.638.45.882.976 1.78 1.58 2.695a16.849 16.849 0 011.504 2.815c.4.963.616 1.955.646 2.976.03 1.02-.302 2.098-.996 3.232a5.317 5.317 0 01-1.614 1.665 6.054 6.054 0 01-2.224.903c-.814.157-1.67.151-2.57-.016-.9-.167-1.791-.521-2.673-1.061a6.634 6.634 0 01-1.828-1.622 7.694 7.694 0 01-1.087-1.89c-.244-.633-.368-1.229-.372-1.788-.004-.56.099-1.01.308-1.352.331-.54.787-.88 1.367-1.02.58-.138 1.14-.043 1.68.288.54.33.88.787 1.02 1.367s.043 1.14-.288 1.68c-.33.54-.786.88-1.366 1.02-.58.139-1.14.043-1.68-.288a1.023 1.023 0 01-.2-.159l-.183-.186a6.98 6.98 0 00-.21-.203 6.8 6.8 0 00.606 1.374c.221.407.523.833.906 1.278.383.445.88.856 1.493 1.23.611.375 1.223.62 1.834.734.61.114 1.181.13 1.715.048a3.832 3.832 0 001.46-.534 3.09 3.09 0 001.024-1.006c.551-.9.768-1.788.65-2.665-.12-.877-.404-1.757-.853-2.639-.45-.882-.976-1.78-1.58-2.693a16.9 16.9 0 01-1.505-2.816 8.247 8.247 0 01-.637-2.99c-.025-1.03.305-2.102.988-3.218a5.895 5.895 0 011.727-1.82 6 6 0 012.305-.944c.838-.155 1.727-.142 2.669.038.94.18 1.88.558 2.815 1.13.468.288.886.597 1.253.927a8.44 8.44 0 011.253-.926c.936-.573 1.874-.95 2.815-1.13.941-.181 1.83-.194 2.668-.04.838.156 1.606.47 2.306.946a5.892 5.892 0 011.726 1.819c.684 1.116 1.014 2.189.989 3.218a8.252 8.252 0 01-.638 2.99c-.4.963-.902 1.9-1.505 2.816a28.062 28.062 0 00-1.579 2.693c-.45.882-.734 1.762-.853 2.639-.118.877.098 1.765.65 2.665a3.1 3.1 0 001.024 1.006 3.83 3.83 0 001.46.534 5.084 5.084 0 001.715-.048c.611-.114 1.222-.359 1.834-.734.612-.374 1.11-.785 1.493-1.23.383-.445.685-.87.905-1.278a6.69 6.69 0 00.606-1.374 7.705 7.705 0 00-.392.389 1.056 1.056 0 01-.2.16c-.539.33-1.1.426-1.68.286-.581-.14-1.036-.479-1.367-1.019-.331-.54-.426-1.1-.287-1.68.139-.58.479-1.036 1.019-1.367.54-.33 1.1-.426 1.681-.287.58.14 1.036.48 1.367 1.019.209.342.311.792.307 1.352-.004.56-.127 1.155-.371 1.787a7.699 7.699 0 01-1.087 1.891 6.645 6.645 0 01-1.828 1.622c-.883.54-1.773.894-2.672 1.061-.901.167-1.757.173-2.572.016a6.046 6.046 0 01-2.223-.903 5.316 5.316 0 01-1.614-1.665c-.695-1.134-1.027-2.211-.997-3.232a8.338 8.338 0 01.646-2.976c.4-.963.902-1.901 1.505-2.815a28.059 28.059 0 001.58-2.695c.449-.882.733-1.76.853-2.638.118-.877-.099-1.765-.65-2.665a3.658 3.658 0 00-1.115-1.154 4.002 4.002 0 00-1.537-.6c-.568-.098-1.18-.075-1.835.067-.655.141-1.316.416-1.982.824a7.9 7.9 0 00-1.183.879c1.45 1.433 2.695 3.056 2.695 5.199 0 3.447-2.783 7.548-2.79 7.56l-.14.207-.14-.207c-.007-.012-2.79-4.113-2.79-7.56 0-2.142 1.244-3.768 2.695-5.2a7.876 7.876 0 00-1.184-.878zm2.464-27.74c0-1.286-1.045-1.83-1.045-1.83s-1.046.544-1.046 1.83c0 1.284 1.046 2.826 1.046 2.826s1.045-1.542 1.045-2.826zm-3.04-7.69c0 2.453 1.995 3.49 1.995 3.49s1.995-1.037 1.995-3.49c0-2.452-1.995-5.392-1.995-5.392s-1.996 2.94-1.996 5.393zm2.163-21.37l-.168-.09-.168.09c-.01.004-2.864 1.488-2.864 4.992 0 3.398 2.729 7.419 2.737 7.43l.295.436.294-.436c.008-.011 2.737-4.032 2.737-7.43 0-3.503-2.855-4.988-2.863-4.992zm2.151 4.992c0-2.59-1.76-3.912-2.32-4.267-.558.355-2.32 1.677-2.32 4.267 0 2.52 1.636 5.453 2.32 6.57.684-1.117 2.32-4.05 2.32-6.57zm-3.053 20.446c.327.287.605.463.734.54.13-.077.407-.253.734-.54 3.122-3.16 1.732-7.388-.734-11.259-2.108 3.308-4 8.067-.734 11.26zm2.153 1.98c.665.407 1.327.682 1.981.823.655.142 1.267.164 1.835.066a3.99 3.99 0 001.537-.599 3.65 3.65 0 001.115-1.154c.551-.9.768-1.788.65-2.665a8.246 8.246 0 00-.853-2.638 27.755 27.755 0 00-1.58-2.694 16.873 16.873 0 01-1.505-2.816 8.344 8.344 0 01-.646-2.975c-.03-1.021.302-2.098.997-3.233a5.3 5.3 0 011.615-1.665 6.021 6.021 0 012.222-.902c.814-.158 1.672-.152 2.572.015.899.168 1.789.522 2.672 1.062a6.65 6.65 0 011.828 1.621 7.678 7.678 0 011.087 1.891c.244.633.368 1.228.372 1.787.004.56-.1 1.01-.308 1.352-.332.54-.787.88-1.367 1.019-.581.14-1.141.044-1.681-.288-.539-.33-.879-.786-1.019-1.366-.139-.58-.043-1.14.287-1.68.331-.54.786-.88 1.367-1.02.581-.139 1.141-.043 1.681.288.072.045.138.097.199.16.061.06.122.124.182.185.062.063.132.13.21.203a6.676 6.676 0 00-.605-1.374 7.436 7.436 0 00-.906-1.278c-.383-.445-.881-.855-1.493-1.23-.612-.375-1.223-.62-1.833-.734a5.093 5.093 0 00-1.716-.049 3.853 3.853 0 00-1.46.535 3.08 3.08 0 00-1.024 1.007c-.551.898-.767 1.787-.649 2.665.119.877.402 1.756.852 2.637.45.883.976 1.78 1.579 2.695a16.821 16.821 0 011.505 2.815c.401.963.613 1.96.638 2.99.025 1.03-.304 2.103-.988 3.219a5.882 5.882 0 01-1.727 1.818 5.998 5.998 0 01-2.305.945c-.838.155-1.727.142-2.669-.039-.941-.18-1.88-.557-2.815-1.13a8.561 8.561 0 01-1.253-.926c-.367.33-.785.64-1.253.926-.935.573-1.874.95-2.815 1.13-.942.181-1.831.194-2.668.04a6 6 0 01-2.306-.946 5.876 5.876 0 01-1.727-1.818c-.683-1.116-1.013-2.19-.988-3.22a8.23 8.23 0 01.637-2.99c.4-.961.903-1.9 1.506-2.814a27.933 27.933 0 001.579-2.695c.45-.881.734-1.76.853-2.637.118-.878-.098-1.767-.65-2.665a3.087 3.087 0 00-1.024-1.007 3.845 3.845 0 00-1.46-.534 5.085 5.085 0 00-1.715.048c-.61.115-1.222.359-1.834.733-.612.376-1.11.786-1.493 1.23a7.403 7.403 0 00-.905 1.279 6.75 6.75 0 00-.607 1.374c.079-.073.15-.14.21-.203l.183-.185c.061-.063.127-.115.2-.16.54-.33 1.1-.427 1.68-.287.58.139 1.036.479 1.366 1.018.332.54.428 1.1.287 1.681-.139.58-.478 1.036-1.018 1.366-.54.331-1.1.428-1.68.288-.581-.14-1.037-.479-1.367-1.02-.21-.34-.312-.792-.31-1.35.005-.56.13-1.155.373-1.788a7.666 7.666 0 011.087-1.891 6.638 6.638 0 011.829-1.621c.88-.54 1.772-.894 2.672-1.062.9-.167 1.756-.173 2.57-.015a6.026 6.026 0 012.224.902c.668.444 1.207 1 1.614 1.665.695 1.135 1.027 2.212.996 3.233a8.329 8.329 0 01-.646 2.975c-.4.963-.9 1.9-1.505 2.816a27.865 27.865 0 00-1.578 2.694 8.239 8.239 0 00-.853 2.638c-.119.878.097 1.766.65 2.665.285.468.657.853 1.115 1.154.456.302.969.502 1.536.6.568.097 1.18.075 1.834-.067.656-.14 1.317-.416 1.983-.824.44-.269.834-.562 1.183-.878-1.45-1.434-2.695-3.056-2.695-5.2 0-3.446 2.783-7.548 2.79-7.56l.14-.207.14.208c.007.01 2.79 4.113 2.79 7.56 0 2.141-1.244 3.766-2.695 5.2.35.315.744.608 1.184.877zm23.839-6.533c-2.327 2.005-4.941.96-4.941.96s-.647-2.74 1.679-4.745c2.327-2.005 6.746-2.516 6.746-2.516s-1.157 4.296-3.484 6.301z" fill="#2B2A29"/><path fill-rule="evenodd" clip-rule="evenodd" d="M125.064 20.447c-8.14-8.14-19.386-13.175-31.808-13.175-12.421 0-23.668 5.035-31.808 13.175S48.273 39.833 48.273 52.255s5.035 23.668 13.175 31.808 19.387 13.175 31.808 13.175c12.422 0 23.668-5.035 31.808-13.175s13.176-19.386 13.176-31.808-5.036-23.668-13.176-31.808zM94.121 5.54h-1.73c-12.559.228-23.909 5.41-32.174 13.676-8.456 8.456-13.686 20.138-13.686 33.04 0 12.902 5.23 24.584 13.686 33.04 8.455 8.454 20.137 13.685 33.04 13.685 12.902 0 24.583-5.23 33.039-13.686 8.455-8.455 13.685-20.136 13.685-33.039 0-12.902-5.23-24.584-13.685-33.04C118.03 10.95 106.68 5.767 94.121 5.54z" fill="#2B2A29"/><path fill-rule="evenodd" clip-rule="evenodd" d="M69.51 112.504l1.602 4.963 5.215-.01-4.225 3.057 1.621 4.957-4.213-3.074-4.213 3.074 1.621-4.957-4.225-3.057 5.215.01 1.602-4.963zm46.897 0l1.602 4.963 5.215-.01-4.225 3.057 1.621 4.957-4.213-3.074-4.213 3.074 1.621-4.957-4.225-3.057 5.215.01 1.602-4.963zm-31.264 0l1.602 4.963 5.215-.01-4.225 3.057 1.62 4.957-4.213-3.074-4.213 3.074 1.621-4.957-4.224-3.057 5.215.01 1.602-4.963zm15.632 0l1.602 4.963 5.215-.01-4.225 3.057 1.621 4.957-4.213-3.074-4.213 3.074 1.62-4.957-4.224-3.057 5.215.01 1.602-4.963z" fill="url(#paint1_linear_2_2819)"/><path fill-rule="evenodd" clip-rule="evenodd" d="M74.613 150.688v-17.129a.136.136 0 00-.008-.05.148.148 0 00-.031-.043.128.128 0 00-.043-.027.223.223 0 00-.075-.012h-3.917c.204.295.36.632.464 1.011.112.403.168.849.168 1.336l.001 14.931a.168.168 0 00.038.047l.046.038 3.2.003a.225.225 0 00.076-.011.148.148 0 00.041-.028l.037-.047.003-.019zm-9.657-17.261h-3.102a.22.22 0 00-.075.012.117.117 0 00-.042.027.147.147 0 00-.033.043l-.007.05v6.648a.98.98 0 01-.3.717 1.038 1.038 0 01-.31.215.895.895 0 01-.38.084H54.97c-.308 0-.552-.094-.73-.282-.173-.181-.26-.426-.26-.734v-6.648a.142.142 0 00-.008-.05.154.154 0 00-.032-.042.11.11 0 00-.042-.028.22.22 0 00-.075-.012h-3.89c.203.295.358.632.463 1.011.111.403.167.849.167 1.336l.002 14.931.038.047.046.038 3.174.003a.224.224 0 00.075-.011.18.18 0 00.079-.077l.003-7.057c0-.677.33-1.016.99-1.016h5.736a.93.93 0 01.378.082 1.043 1.043 0 01.612.934l.001 7.057.039.047a.115.115 0 00.042.029.194.194 0 00.075.012h3.102a.222.222 0 00.076-.011.147.147 0 00.042-.028.19.19 0 00.037-.049l.002-17.146a.138.138 0 00-.007-.05.149.149 0 00-.032-.042.112.112 0 00-.042-.028.222.222 0 00-.076-.012zm21.828 0v3.47a.66.66 0 00-.382.14.685.685 0 00-.238.362l-2.152 5.783-.002.003a1.253 1.253 0 00-.085.423.696.696 0 00.473.684c.108.039.23.06.366.06h2.02v1.434h-3.011c-.232 0-.433.061-.601.182a.994.994 0 00-.365.512l-1.455 4.052a.42.42 0 01-.14.205.395.395 0 01-.229.056h-1.94l5.666-14.866c.21-.571.315-1.066.315-1.482 0-.187-.02-.367-.056-.537a2.169 2.169 0 00-.165-.476l-.002-.005h1.983zm-52.69 11.951l-1.068 1.961a.188.188 0 00-.026.091v.009a.537.537 0 00.064.21l.006.006c.24.507.56.969.953 1.382.4.42.88.795 1.44 1.127.558.33 1.166.578 1.822.743.66.167 1.373.251 2.138.251 1.816 0 3.251-.483 4.304-1.447a4.753 4.753 0 001.174-1.616c.259-.598.388-1.263.388-1.996 0-.777-.136-1.494-.408-2.151a5.222 5.222 0 00-1.142-1.722 13.383 13.383 0 00-.763-.704 9.338 9.338 0 00-.742-.574 14.396 14.396 0 00-.799-.516 19.025 19.025 0 00-.893-.502l-.169-.079-.226-.119a64.054 64.054 0 01-.934-.488c-.29-.156-.525-.285-.703-.389a4.858 4.858 0 01-1.12-.904 2.292 2.292 0 01-.422-.631 1.764 1.764 0 01-.152-.711c0-.321.06-.614.177-.877.12-.268.3-.5.535-.691a2.29 2.29 0 01.806-.414 3.52 3.52 0 01.984-.129c.404 0 .788.051 1.15.154.366.104.707.259 1.022.466.297.195.566.405.803.628.238.224.445.462.62.713.025.036.05.061.072.075l.03.011.916-1.522a.588.588 0 00.07-.259.13.13 0 00-.042-.084 5.438 5.438 0 00-2-1.207c-.79-.274-1.696-.411-2.719-.411a6.98 6.98 0 00-2.107.303 5.551 5.551 0 00-1.731.896c-.507.389-.888.837-1.142 1.342-.253.505-.384 1.076-.393 1.71.002.377.033.732.095 1.064.06.332.153.648.276.945.122.293.275.571.46.831.187.262.405.506.653.731.527.476 1.041.873 1.543 1.192.256.161.541.328.856.5.325.178.678.36 1.058.546 1.199.589 2.086 1.131 2.662 1.625.325.278.57.602.733.972.161.368.244.774.244 1.214 0 .416-.074.794-.22 1.135a2.491 2.491 0 01-.663.905c-.29.254-.638.444-1.04.569-.388.12-.825.18-1.31.18-1.224 0-2.322-.433-3.292-1.298a6.07 6.07 0 01-1.173-1.404 5.553 5.553 0 01-.654-1.642zm88.623 5.31v-17.129a.137.137 0 00-.008-.05.135.135 0 00-.073-.07.228.228 0 00-.076-.012h-3.916c.203.295.358.632.463 1.011.112.403.167.849.167 1.336l.003 14.931a.16.16 0 00.037.047l.046.038 3.2.003a.222.222 0 00.076-.011.149.149 0 00.041-.028l.038-.047.002-.019zm-22.406-14.914l.002 14.931.038.047.046.038 3.174.003a.22.22 0 00.075-.011.154.154 0 00.042-.028l.037-.047.002-5.964c0-.217.03-.417.088-.597.063-.197.16-.366.289-.508l.261-.288c.405-.474.805-.456 1.197.055l5.22 6.992c.206.263.549.396 1.027.396h3.234l-7.411-9.712c-.373-.466-.362-.898.032-1.292l5.959-6.362h-2.075c-.21 0-.393.034-.549.1-.15.066-.281.163-.392.293-1.837 2.142-3.905 4.173-5.758 6.309a.965.965 0 01-.277.197.577.577 0 01-.782-.304l-.002-.003a.88.88 0 01-.061-.334v-6.126a.14.14 0 00-.007-.05.134.134 0 00-.074-.07.222.222 0 00-.075-.012h-3.89c.203.295.358.632.462 1.011.112.403.168.849.168 1.336zm-13.527 10.012v-1.434h1.968c.803 0 1.063-.39.78-1.167l-2.075-5.785a.716.716 0 00-.213-.348.623.623 0 00-.42-.156l-.04.001v-3.47h2.203c.115 0 .204.022.264.066a.47.47 0 01.154.236l6.476 17.064h-3.374a.405.405 0 01-.23-.056.444.444 0 01-.14-.206l-1.454-4.051c-.154-.462-.51-.694-1.07-.694h-2.83zm49.942-12.323v1.587a6.335 6.335 0 00-1.564-.187h-2.06c-.135 0-.265.027-.39.078a.955.955 0 00-.326.236 1.045 1.045 0 00-.274.728v12.436c0 .139.023.269.07.39a.956.956 0 00.92.626h2.06c.55 0 1.072-.063 1.564-.187v1.587c-.298.024-.602.036-.912.036l-7.032-.003-.046-.038-.038-.047-.003-14.931c0-.487-.055-.933-.167-1.336a3.343 3.343 0 00-.463-1.011h7.749c.31 0 .614.012.912.036zm16.201 17.225v-17.133a.119.119 0 00-.008-.046.134.134 0 00-.074-.07.218.218 0 00-.075-.012h-3.917c.204.295.359.632.464 1.011.111.403.167.849.167 1.336l.002 14.931a.189.189 0 00.038.047l.046.038 3.2.003a.216.216 0 00.075-.011.14.14 0 00.042-.028l.037-.047.003-.019zm-16.201.069v-1.587c.318-.081.623-.187.915-.319a5.71 5.71 0 001.989-1.512 6.638 6.638 0 001.287-2.321c.282-.869.423-1.839.423-2.908s-.141-2.039-.423-2.91a6.662 6.662 0 00-1.287-2.318 5.712 5.712 0 00-1.989-1.513 5.439 5.439 0 00-.915-.319v-1.587c2.229.176 4.122 1.009 5.678 2.499.881.844 1.543 1.777 1.982 2.796.438 1.017.658 2.126.658 3.326 0 1.218-.22 2.341-.658 3.366-.439 1.027-1.1 1.963-1.982 2.808-1.556 1.49-3.449 2.323-5.678 2.499zM33.082 163.385h6.968v-.576h-6.968v.576z" fill="#2B2A29"/><path d="M50.66 161.039c.416-.419.8-.629 1.15-.629.207 0 .38.066.516.199a.648.648 0 01.207.485.543.543 0 01-.14.384.434.434 0 01-.327.152c-.237 0-.397-.146-.48-.436-.034-.125-.09-.187-.169-.187-.143 0-.296.094-.465.282.18.244.301.455.367.635s.1.373.1.581c0 .36-.087.678-.262.951-.175.275-.467.519-.873.73-.407.21-.796.316-1.167.316h-.683c-.484 0-.804.049-.964.148a.51.51 0 00-.237.453c0 .164.064.286.194.373.128.087.373.132.732.132l1.545-.039c.78 0 1.342.13 1.685.388.344.26.517.614.517 1.067 0 .498-.196.915-.589 1.256-.546.481-1.361.72-2.445.72-.897 0-1.562-.163-1.998-.491-.341-.256-.512-.544-.512-.862 0-.246.111-.468.331-.671.22-.204.589-.354 1.105-.454-.412-.099-.723-.245-.932-.438a.936.936 0 01-.312-.716c0-.265.086-.495.254-.692.169-.195.463-.365.88-.504-.355-.195-.622-.43-.8-.706a1.684 1.684 0 01-.27-.944c0-.564.224-1.034.67-1.415.446-.379 1.027-.57 1.74-.57a2.903 2.903 0 011.632.502zm-1.643-.108c-.374 0-.679.136-.922.407-.241.271-.363.65-.363 1.139 0 .521.122.926.363 1.212.243.288.55.432.928.432.376 0 .683-.14.922-.42.241-.279.36-.679.36-1.2 0-.483-.121-.867-.367-1.148a1.164 1.164 0 00-.921-.422zm.36 5.591c-.768 0-1.314.106-1.64.318-.327.212-.491.466-.491.765 0 .281.123.504.369.665.324.216.787.324 1.387.324.717 0 1.255-.119 1.617-.354.363-.237.544-.5.544-.79a.76.76 0 00-.168-.476c-.113-.149-.293-.259-.538-.337-.245-.076-.606-.115-1.08-.115zm9.135-5.985c.79 0 1.45.282 1.986.845.536.564.805 1.307.805 2.226 0 .638-.12 1.18-.361 1.627a2.67 2.67 0 01-1.024 1.063c-.446.26-.924.39-1.436.39-.76 0-1.404-.286-1.931-.856-.527-.57-.792-1.309-.792-2.217 0-.911.265-1.652.794-2.222a2.574 2.574 0 011.959-.856zm0 .445c-.468 0-.85.21-1.15.627-.301.419-.45 1.08-.45 1.982 0 .919.149 1.591.447 2.014.297.426.681.638 1.153.638.488 0 .883-.212 1.186-.638.3-.423.452-1.118.452-2.081 0-.896-.149-1.542-.448-1.943a1.407 1.407 0 00-1.19-.599zm8.55-3.736v8.417c0 .114.035.203.106.264a.581.581 0 00.377.125h.617v.47h-3.316v-.47h.585c.192 0 .335-.044.427-.135a.515.515 0 00.14-.386v-7.063c0-.205-.055-.358-.168-.451a.849.849 0 00-.572-.199h-.527v-.47l2.33-.102zm7.819.102l2.292-.102v7.944c0 .312.06.532.177.663.12.134.296.199.531.199h.406v.47h-1.998l-.153-1.167c-.237.418-.515.731-.833.941a1.905 1.905 0 01-1.069.315c-.665 0-1.23-.277-1.698-.832-.468-.553-.702-1.286-.702-2.196 0-.983.299-1.769.898-2.357.47-.46 1.01-.689 1.62-.689.375 0 .71.093 1.007.282.299.186.557.47.777.849v-3.285a.493.493 0 00-.203-.413c-.135-.101-.346-.152-.634-.152h-.418v-.47zm-.356 3.71c-.449 0-.803.184-1.067.553-.263.371-.395.991-.395 1.866 0 .951.134 1.618.405 2.005.27.388.615.583 1.037.583.453 0 .839-.216 1.161-.65.322-.432.482-1.068.482-1.9 0-.788-.172-1.408-.516-1.86-.299-.398-.668-.597-1.108-.597zm11.03-.356l1.69-.101c.093.432.152.843.18 1.234.316-.453.632-.773.947-.957a2.034 2.034 0 011.042-.277c.403 0 .736.106.998.315.263.21.463.551.606 1.025.278-.449.587-.785.928-1.008a2.011 2.011 0 011.118-.332c.532 0 .93.157 1.198.472.341.413.512.947.512 1.599v2.885c0 .173.045.29.132.353.117.096.29.142.52.142h.295v.47h-2.957v-.47h.294c.252 0 .427-.042.527-.125.1-.082.152-.205.152-.372v-2.889c0-.43-.107-.763-.318-1-.211-.235-.489-.354-.832-.354-.263 0-.498.07-.709.208a1.41 1.41 0 00-.5.595c-.176.369-.266.68-.266.938v2.502c0 .171.045.296.137.377.091.08.232.12.424.12h.4v.47h-2.996v-.47h.339c.213 0 .371-.042.475-.125a.383.383 0 00.158-.315v-2.679c0-.568-.1-.979-.3-1.235a.978.978 0 00-.81-.386c-.439 0-.776.149-1.01.447a2.304 2.304 0 00-.504 1.476v2.322c0 .178.04.298.12.364.112.087.287.131.526.131h.301v.47h-2.97v-.47h.442c.166 0 .294-.042.384-.125a.406.406 0 00.134-.315v-3.808c0-.21-.053-.369-.162-.47-.106-.104-.322-.17-.644-.2v-.432zm19.889 5.172l.224.348c-.307.311-.646.466-1.02.466-.286 0-.525-.077-.721-.229-.194-.155-.365-.422-.512-.807-.395.413-.74.688-1.039.828-.299.138-.657.208-1.076.208-.597 0-1.052-.13-1.36-.386a1.218 1.218 0 01-.468-.985c0-.603.356-1.105 1.067-1.505.71-.399 1.656-.666 2.838-.797v-.874c0-.312-.126-.579-.38-.801-.254-.222-.576-.333-.967-.333-.36 0-.672.075-.934.225-.186.11-.28.22-.28.328 0 .062.051.159.152.292.121.166.181.312.181.441 0 .186-.06.339-.181.455a.642.642 0 01-.472.178.696.696 0 01-.52-.212.735.735 0 01-.21-.54c0-.411.233-.787.698-1.126.465-.341 1.075-.511 1.829-.511.697 0 1.229.149 1.596.447.367.301.55.667.55 1.097v3.173c0 .279.045.487.137.618.092.138.211.206.356.206.162 0 .333-.068.512-.204zm-2.067-2.452c-1.052.144-1.797.381-2.237.707-.326.25-.49.602-.49 1.057 0 .32.085.568.254.748.17.18.392.271.665.271.489 0 .911-.187 1.27-.557.358-.371.538-.835.538-1.394v-.832zm6.413.915c.258.709.553 1.198.888 1.472.335.273.747.408 1.237.408.453 0 .801-.097 1.044-.294a.917.917 0 00.365-.745.775.775 0 00-.506-.746c-.16-.063-.57-.157-1.231-.282-.634-.122-1.076-.252-1.325-.389a1.467 1.467 0 01-.583-.562 1.534 1.534 0 01-.209-.779c0-.426.143-.811.431-1.158.371-.441.892-.661 1.56-.661.508 0 .979.157 1.415.472l.414-.434h.256l.162 2.071h-.423c-.183-.586-.431-1.008-.744-1.264-.314-.259-.7-.388-1.159-.388-.397 0-.708.096-.935.288a.888.888 0 00-.337.701c0 .242.105.445.314.604.203.165.604.294 1.201.387.692.115 1.142.212 1.351.289.341.124.608.315.796.576.188.258.282.574.282.946 0 .513-.203.949-.611 1.305-.405.356-.922.534-1.547.534-.58 0-1.118-.187-1.615-.559l-.457.521h-.33l-.126-2.313h.422zm9.469-5.998h.423v2.363h1.895v.572h-1.895v3.738c0 .324.077.572.228.744a.745.745 0 00.581.258c.279 0 .518-.131.714-.394.199-.26.314-.692.346-1.296h.423c-.026.775-.203 1.349-.532 1.724-.328.375-.755.563-1.28.563-.482 0-.86-.131-1.133-.394-.273-.262-.41-.607-.41-1.035v-3.908h-1.024v-.434c.47-.078.828-.271 1.073-.576.365-.457.561-1.099.591-1.925zm11.612 5.312h-4.187c.022.885.188 1.512.5 1.876.358.409.813.614 1.368.614.815 0 1.47-.461 1.965-1.385l.405.174c-.608 1.171-1.487 1.758-2.635 1.758a2.628 2.628 0 01-1.978-.843c-.536-.562-.802-1.279-.802-2.154 0-.943.262-1.703.789-2.283.527-.581 1.176-.871 1.946-.871.566 0 1.054.144 1.468.434.412.288.721.704.93 1.244.146.379.222.857.231 1.436zm-4.187-.445h2.535c.15 0 .267-.051.35-.153.084-.099.124-.271.124-.514 0-.454-.143-.839-.427-1.157-.286-.317-.621-.476-1.009-.476-.433 0-.8.19-1.101.574-.301.383-.459.959-.472 1.726zm7.705-2.504l2.112-.101v2.346c.227-.773.498-1.355.813-1.751.318-.396.709-.595 1.176-.595.318 0 .572.095.762.288.19.19.284.449.284.769 0 .26-.064.463-.19.607a.612.612 0 01-.478.217.59.59 0 01-.455-.187c-.113-.123-.17-.29-.17-.502 0-.135.032-.262.098-.383a.757.757 0 00.094-.193c0-.061-.041-.093-.12-.093-.171 0-.363.099-.58.299-.299.277-.529.658-.692 1.141-.249.754-.375 1.355-.375 1.807v1.247c0 .14.049.248.149.322.101.074.273.112.514.112h.745v.47h-3.649v-.47h.583c.196 0 .346-.038.446-.114a.34.34 0 00.149-.278v-3.699c0-.282-.06-.488-.181-.619-.122-.129-.295-.195-.521-.195h-.514v-.445z" fill="#2B2A29"/><path fill-rule="evenodd" clip-rule="evenodd" d="M145.953 163.416h6.892v-.576h-6.892v.576z" fill="#2B2A29"/></g><defs><linearGradient id="paint0_linear_2_2819" x1="178.444" y1="110.732" x2="141.798" y2="-6.22" gradientUnits="userSpaceOnUse"><stop stop-color="#DBC175"/><stop offset=".227" stop-color="#C9A550"/><stop offset=".459" stop-color="#EDDA8D"/><stop offset="1" stop-color="#B7892B"/></linearGradient><linearGradient id="paint1_linear_2_2819" x1="52.264" y1="214.256" x2="15.618" y2="97.304" gradientUnits="userSpaceOnUse"><stop stop-color="#DBC175"/><stop offset=".227" stop-color="#C9A550"/><stop offset=".459" stop-color="#EDDA8D"/><stop offset="1" stop-color="#B7892B"/></linearGradient><clipPath id="clip0_2_2819"><path fill="#fff" d="M0 0h186v169H0z"/></clipPath></defs></svg>