<svg width="225" height="205" fill="none" xmlns="http://www.w3.org/2000/svg"><path d="M26.358 155.147c-3.655 0-6.615-1.179-8.879-3.537-2.263-2.358-3.395-5.424-3.395-9.197 0-3.797 1.132-6.874 3.395-9.232 2.264-2.358 5.224-3.537 8.879-3.537 3.655 0 6.614 1.179 8.878 3.537 2.287 2.358 3.431 5.435 3.431 9.232 0 3.066-.766 5.683-2.3 7.853-1.532 2.169-3.607 3.631-6.225 4.386.637.212 1.45.542 2.441.99a28.61 28.61 0 002.724 1.061c.825.26 1.662.389 2.511.389.472 0 .884-.047 1.238-.141.354-.071.59-.142.708-.212l.176-.142.248.248c0 .471-.035.919-.106 1.344-.07.448-.142.766-.212.955l-.106.318c-.354.236-.967.354-1.84.354-1.037 0-2.099-.248-3.183-.743-1.085-.471-2.016-1.002-2.795-1.591-.754-.59-1.639-1.132-2.652-1.628-1.015-.471-1.993-.707-2.936-.707zm-8.808-12.734c0 3.537.802 6.332 2.405 8.383 1.604 2.028 3.738 3.042 6.403 3.042 2.664 0 4.798-1.014 6.402-3.042 1.604-2.051 2.405-4.846 2.405-8.383 0-3.561-.801-6.355-2.405-8.383-1.604-2.052-3.738-3.077-6.402-3.077-2.665 0-4.8 1.025-6.403 3.077-1.603 2.028-2.405 4.822-2.405 8.383zm44.894 3.254v-15.74h1.627v15.67c0 2.759-.908 5.011-2.724 6.756-1.792 1.745-4.185 2.617-7.18 2.617-2.971 0-5.353-.872-7.145-2.617-1.769-1.745-2.653-3.997-2.653-6.756v-15.67h3.183v16.129c0 2.17.672 3.938 2.017 5.306 1.344 1.368 3.112 2.052 5.305 2.052 2.264 0 4.092-.708 5.483-2.123 1.391-1.438 2.087-3.313 2.087-5.624zm9.928 1.769l-3.042 7.251h-1.804l10.046-23.734-.425-.708v-.318h3.467l10.576 24.76H87.9l-3.077-7.251h-12.45zm7.64-11.355c-.707-1.579-1.214-2.676-1.52-3.289l-5.519 13.194h11.213l-4.174-9.905zm15.832 18.606v-24.76h3.148v23.31h5.978a33.96 33.96 0 003.289-.142c.967-.118 1.627-.235 1.981-.353l.566-.177.318.283v1.839h-15.28zm20.311 0v-24.76h3.148v24.76h-3.148zm20.442-23.31v23.31h-3.148v-23.31h-3.077c-1.227 0-2.335.059-3.325.177-.967.094-1.628.2-1.981.318l-.531.177-.318-.283v-1.839h21.647v1.839l-.318.283c-1.155-.448-3.101-.672-5.836-.672h-3.113zm32.917-1.45l-8.985 13.583v11.177h-3.148v-11.036l-4.103-6.19a105.164 105.164 0 00-2.617-3.785c-.849-1.202-1.486-2.075-1.91-2.617l-.673-.814v-.318h3.891l7.782 11.566 7.782-11.566h1.981zm13.17 24.76v-24.76h3.149v24.76h-3.149zm17.648-23.734c-1.65 0-2.888.341-3.714 1.025-.802.684-1.202 1.627-1.202 2.83 0 1.108.4 2.016 1.202 2.724.826.684 2.653 1.827 5.483 3.431 1.202.707 2.016 1.191 2.44 1.45.449.259 1.05.649 1.804 1.167.779.496 1.286.885 1.521 1.168.236.259.519.613.849 1.061.354.448.578.884.672 1.309.095.424.142.919.142 1.485 0 2.005-.731 3.573-2.193 4.705-1.462 1.108-3.643 1.662-6.544 1.662-1.179 0-2.276-.094-3.29-.283-1.014-.189-1.839-.413-2.476-.672a17.785 17.785 0 01-1.627-.778c-.448-.26-.766-.484-.955-.672l-.283-.283c0-.59.13-1.144.389-1.663.26-.542.507-.931.743-1.167l.389-.354h.425c.071.118.165.283.283.496.118.212.401.577.849 1.096.448.519.919.979 1.415 1.38.518.4 1.179.766 1.98 1.096.802.33 1.639.495 2.512.495 1.627 0 2.947-.365 3.961-1.096 1.038-.755 1.557-1.757 1.557-3.007 0-.637-.153-1.214-.46-1.733-.283-.542-.719-1.038-1.309-1.486a14.91 14.91 0 00-1.91-1.273c-.707-.401-1.544-.861-2.511-1.38l-.637-.318c-2.712-1.391-4.587-2.582-5.624-3.572-1.038-1.014-1.556-2.359-1.556-4.033 0-1.981.695-3.49 2.086-4.527 1.392-1.062 3.42-1.592 6.084-1.592 1.604 0 3.031.188 4.28.566 1.274.353 2.146.707 2.618 1.061l.707.566c0 .613-.129 1.191-.389 1.733-.259.542-.507.932-.743 1.167l-.389.354h-.389a6.495 6.495 0 00-.212-.46c-.094-.188-.318-.519-.672-.99a6.665 6.665 0 00-1.203-1.238c-.424-.377-1.002-.708-1.733-.991a6.075 6.075 0 00-2.37-.459zM0 203.815v-24.761h16.59v2.866l-.425.424c-1.226-.731-3.172-1.096-5.836-1.096H5.483v8.772h8.666l.283.318v1.91h-8.95v9.374h5.2c1.18 0 2.252-.095 3.22-.283.99-.189 1.673-.378 2.05-.566l.567-.248.424.425v2.865H0zm29.306-.743l-7.216-17.757a47.1 47.1 0 00-1.485-3.219c-.472-.99-.826-1.674-1.061-2.051l-.354-.566v-.425h6.26l7.889 19.526 7.392-19.526h2.724l-9.515 24.761h-3.891l-.743-.743zm17.396.743v-24.761h16.59v2.866l-.425.424c-1.226-.731-3.172-1.096-5.836-1.096h-4.846v8.772h8.666l.283.318v1.91h-8.95v9.374h5.2c1.18 0 2.252-.095 3.22-.283.99-.189 1.673-.378 2.05-.566l.567-.248.424.425v2.865H46.702zm21.348 0v-24.761h8.949c3.089 0 5.518.614 7.286 1.84 1.792 1.226 2.689 2.936 2.689 5.129 0 1.533-.449 2.841-1.345 3.926-.896 1.085-2.17 1.887-3.82 2.405l2.795 5.2a40.851 40.851 0 001.945 3.254c.684.991 1.203 1.686 1.556 2.087l.496.637-.248.283h-5.978l-5.8-10.824h-3.043v10.824H68.05zm8.1-22.532h-2.618v9.515h2.618c1.603 0 2.853-.413 3.75-1.238.895-.825 1.343-2.004 1.343-3.537s-.448-2.7-1.344-3.502c-.896-.825-2.146-1.238-3.75-1.238zm35.186-2.229l-8.454 13.336v11.425h-5.483v-11.072l-3.89-6.19a55.808 55.808 0 00-2.548-3.678c-.849-1.179-1.497-2.028-1.945-2.547l-.672-.814v-.46H95.1l6.65 10.258 6.579-10.258h3.007zm15.48 2.194v22.567h-5.483v-22.567h-2.193c-1.179 0-2.264.094-3.254.282-.967.189-1.639.378-2.016.566l-.566.248-.425-.424v-2.866h22.391v2.866l-.425.424c-1.226-.731-3.171-1.096-5.836-1.096h-2.193zm28.846 22.567v-11.567h-11.248v11.567h-5.482v-24.761h5.482v10.966h11.248v-10.966h5.483v24.761h-5.483zm10.938 0v-24.761h5.483v24.761H166.6zm10.881 0v-14.856a50.3 50.3 0 00-.247-5.2c-.142-1.58-.295-2.688-.46-3.325l-.248-.955.425-.425h1.875l16.447 16.165v-16.165h2.724v24.761h-1.627l-16.448-16.201v16.201h-2.441zm39.313-10.046v-1.91h2.688c.967 0 1.863-.035 2.688-.106.849-.071 1.45-.142 1.804-.212l.566-.106.46.424v8.525a8.263 8.263 0 01-.354.424c-.165.165-.53.472-1.096.92-.566.424-1.191.802-1.875 1.132-.684.33-1.603.636-2.759.919-1.132.26-2.335.39-3.608.39-3.962 0-7.121-1.168-9.48-3.502-2.334-2.335-3.501-5.424-3.501-9.268 0-3.82 1.167-6.885 3.501-9.196 2.359-2.335 5.554-3.502 9.586-3.502 2.924 0 5.247.613 6.968 1.839 1.722 1.203 2.583 2.842 2.583 4.917 0 .471-.048.884-.142 1.238-.071.354-.141.589-.212.707l-.142.212c-1.226.283-2.853.425-4.881.425l-.46-.425c.33-.471.495-1.308.495-2.511 0-3.042-1.438-4.563-4.315-4.563-2.122 0-3.796.908-5.023 2.724-1.226 1.792-1.839 4.315-1.839 7.569 0 3.42.672 6.049 2.016 7.888 1.368 1.84 3.325 2.759 5.872 2.759 1.179 0 2.405-.224 3.679-.672v-2.723c0-1.274-.13-2.606-.39-3.997h-2.546l-.283-.319z" fill="#fff"/><path fill-rule="evenodd" clip-rule="evenodd" d="M138.938 26.68c-2.393 2.1-5.075 1.003-5.075 1.003s-.661-2.869 1.723-4.96c2.393-2.1 6.932-2.635 6.932-2.635s-1.187 4.493-3.58 6.592zm-30.794 31.614h-.492v-6.272h.492c.611 3.482 2.393 5.218 5.346 5.218 1.018 0 1.867-.276 2.546-.838.678-.561 1.018-1.279 1.018-2.16 0-.993-.501-1.866-1.494-2.644-2.358-1.4-4.293-2.6-5.812-3.611-1.519-1.011-2.266-2.35-2.266-4.01 0-1.373.501-2.522 1.519-3.43 1.01-.924 2.257-1.382 3.742-1.382.968 0 1.977.233 3.038.709.501.233.849.345 1.052.345.467 0 .764-.354.917-1.054h.483v6.333h-.483c-.263-1.866-.866-3.214-1.799-4.026-.942-.82-2.003-1.218-3.165-1.218-.874 0-1.621.276-2.249.82-.628.536-.942 1.202-.942 1.98 0 .509.212 1.045.637 1.615.424.57 1.705 1.443 3.844 2.61 1.306.716 2.299 1.304 2.978 1.762.67.458 1.23 1.063 1.689 1.797.449.734.678 1.53.678 2.385 0 1.46-.543 2.67-1.629 3.637-1.086.968-2.427 1.452-4.013 1.452-.866 0-1.935-.216-3.208-.64-.781-.267-1.324-.397-1.621-.397-.441-.017-.704.32-.806 1.02zm6.305-24.788c.687.423 1.366.717 2.036.864.671.147 1.299.173 1.884.069a3.971 3.971 0 001.578-.63 3.775 3.775 0 001.146-1.21c.568-.942.789-1.866.67-2.791-.119-.916-.415-1.84-.874-2.756a27.796 27.796 0 00-1.62-2.817 17.455 17.455 0 01-1.545-2.946 9.045 9.045 0 01-.662-3.11c-.034-1.072.314-2.195 1.027-3.379.416-.7.967-1.279 1.655-1.745a6.136 6.136 0 012.282-.942c.84-.164 1.714-.155 2.639.017.925.173 1.842.545 2.741 1.115.755.475 1.383 1.037 1.875 1.693.492.657.866 1.314 1.12 1.979.255.665.382 1.287.382 1.866 0 .588-.102 1.054-.314 1.417-.339.562-.806.925-1.4 1.063-.594.147-1.171.043-1.722-.303-.552-.345-.908-.82-1.044-1.425-.144-.605-.042-1.192.297-1.754.339-.562.806-.925 1.4-1.063.594-.147 1.171-.043 1.723.303a.946.946 0 01.203.164l.187.19c.059.069.136.138.212.216a6.992 6.992 0 00-.619-1.434 7.794 7.794 0 00-.934-1.34c-.39-.466-.908-.898-1.536-1.287-.628-.389-1.255-.648-1.883-.769a5.103 5.103 0 00-1.765-.052 4.01 4.01 0 00-1.502.562 3.18 3.18 0 00-1.052 1.054c-.569.942-.79 1.866-.671 2.79.119.917.416 1.841.874 2.757a27.622 27.622 0 001.621 2.817 17.45 17.45 0 011.544 2.946 8.843 8.843 0 01.654 3.127c.025 1.08-.314 2.204-1.019 3.37a6.076 6.076 0 01-1.773 1.901 5.97 5.97 0 01-2.367.985c-.858.164-1.774.147-2.741-.043-.968-.19-1.935-.58-2.894-1.184a9.12 9.12 0 01-1.29-.968 8.62 8.62 0 01-1.289.968c-.959.596-1.927.994-2.894 1.184a7.34 7.34 0 01-2.741.043 6.232 6.232 0 01-2.367-.985 6.076 6.076 0 01-1.773-1.9c-.705-1.167-1.044-2.29-1.019-3.37a8.843 8.843 0 01.654-3.128 17.782 17.782 0 011.544-2.947 28.987 28.987 0 001.621-2.816c.458-.925.755-1.84.874-2.756.118-.916-.102-1.85-.671-2.791a3.175 3.175 0 00-1.052-1.054 3.905 3.905 0 00-1.502-.562 5.103 5.103 0 00-1.765.052 5.433 5.433 0 00-1.883.769 6.498 6.498 0 00-1.536 1.287c-.39.467-.705.908-.934 1.34a7.184 7.184 0 00-.62 1.434 2.37 2.37 0 00.213-.216l.187-.19a.745.745 0 01.203-.164c.552-.346 1.129-.45 1.723-.303.594.147 1.06.501 1.4 1.063.34.562.441 1.15.297 1.754-.144.605-.492 1.08-1.044 1.425-.551.346-1.128.45-1.722.303-.594-.147-1.061-.501-1.4-1.063-.213-.354-.323-.83-.314-1.417.008-.587.135-1.21.381-1.866.247-.665.62-1.322 1.12-1.979a6.761 6.761 0 011.876-1.693c.908-.562 1.824-.933 2.741-1.115.925-.173 1.807-.181 2.639-.017.84.164 1.595.475 2.282.942a5.466 5.466 0 011.655 1.745c.713 1.184 1.052 2.316 1.027 3.378a8.96 8.96 0 01-.662 3.11 17.455 17.455 0 01-1.545 2.947 28.766 28.766 0 00-1.62 2.817c-.459.924-.756 1.84-.874 2.756-.119.916.101 1.849.67 2.79.297.493.679.89 1.145 1.21.467.32.993.527 1.579.631.585.104 1.213.078 1.884-.07.67-.146 1.349-.431 2.036-.863.45-.285.857-.588 1.213-.916-1.485-1.503-2.766-3.197-2.766-5.435 0-3.603 2.86-7.897 2.868-7.905l.144-.216.145.216c.008.008 2.868 4.302 2.868 7.905 0 2.238-1.281 3.94-2.766 5.435.39.328.797.64 1.247.916zm-2.215-2.065c.34.302.62.484.755.561.136-.077.416-.267.756-.561 3.207-3.31 1.782-7.724-.756-11.776-2.163 3.456-4.106 8.432-.755 11.776zm3.14-21.384a5.274 5.274 0 00-2.385-4.467 5.274 5.274 0 00-2.384 4.467c0 2.635 1.68 5.702 2.384 6.869.705-1.167 2.385-4.234 2.385-6.87zm-2.206-5.228l-.17-.095-.17.095c-.008.01-2.944 1.556-2.944 5.219 0 3.551 2.8 7.759 2.808 7.768l.306.457.305-.457c.009-.01 2.809-4.217 2.809-7.768-.008-3.655-2.936-5.21-2.944-5.219zm-2.224 22.352c0 2.566 2.054 3.646 2.054 3.646s2.053-1.088 2.053-3.646c0-2.566-2.053-5.642-2.053-5.642s-2.054 3.076-2.054 5.642zm3.123 8.044c0-1.348-1.078-1.91-1.078-1.91s-1.077.571-1.077 1.91c0 1.34 1.077 2.955 1.077 2.955s1.078-1.607 1.078-2.955zm-2.537 29.022c-.687-.423-1.366-.717-2.037-.864-.67-.147-1.298-.172-1.883-.069a3.983 3.983 0 00-1.579.631c-.466.32-.848.717-1.145 1.21-.569.941-.789 1.866-.67 2.79.118.916.415 1.84.874 2.757a28.777 28.777 0 001.62 2.816c.62.96 1.137 1.936 1.545 2.947a9.043 9.043 0 01.661 3.11c.034 1.071-.314 2.194-1.026 3.378a5.553 5.553 0 01-1.655 1.745 6.136 6.136 0 01-2.282.942c-.841.165-1.715.156-2.639-.017-.925-.173-1.842-.544-2.741-1.106-.755-.475-1.383-1.037-1.875-1.693a8.197 8.197 0 01-1.12-1.979c-.255-.665-.382-1.287-.382-1.866 0-.588.101-1.054.314-1.417.339-.562.806-.916 1.4-1.063.594-.147 1.17-.043 1.722.303.552.345.908.82 1.044 1.425.144.605.042 1.192-.297 1.754-.34.562-.806.916-1.4 1.063-.594.147-1.171.043-1.723-.303a.946.946 0 01-.203-.164c-.06-.06-.128-.13-.187-.198-.06-.07-.136-.139-.212-.217.144.476.348.96.62 1.435.228.423.534.872.933 1.339.39.466.908.898 1.536 1.287.627.39 1.255.648 1.883.77a5.1 5.1 0 001.765.051 3.868 3.868 0 001.502-.561c.45-.286.806-.64 1.052-1.055.569-.941.789-1.866.671-2.79-.119-.916-.416-1.84-.874-2.757a28.987 28.987 0 00-1.621-2.816 17.45 17.45 0 01-1.544-2.947 8.843 8.843 0 01-.654-3.127c-.025-1.08.314-2.203 1.018-3.37a6.09 6.09 0 011.774-1.9 5.969 5.969 0 012.367-.986c.857-.164 1.774-.146 2.741.044.967.19 1.935.578 2.894 1.183a9.07 9.07 0 011.289.968 8.683 8.683 0 011.29-.968c.959-.596 1.926-.993 2.894-1.183a7.338 7.338 0 012.74-.044 6.235 6.235 0 012.368.985 6.17 6.17 0 011.773 1.901c.705 1.167 1.044 2.29 1.019 3.37a8.865 8.865 0 01-.654 3.127 17.45 17.45 0 01-1.544 2.947 28.58 28.58 0 00-1.621 2.817c-.458.924-.755 1.84-.874 2.756-.119.915.102 1.849.67 2.79.247.415.603.76 1.053 1.055.449.285.95.475 1.502.561a5.1 5.1 0 001.765-.052 5.435 5.435 0 001.883-.769 6.501 6.501 0 001.536-1.287c.39-.467.704-.907.934-1.34a7.16 7.16 0 00.619-1.434 2.43 2.43 0 00-.212.216c-.06.061-.127.13-.187.2a.742.742 0 01-.203.163c-.552.346-1.129.45-1.723.303-.594-.147-1.061-.501-1.4-1.063-.34-.562-.441-1.15-.297-1.754.144-.605.492-1.08 1.044-1.425.551-.346 1.128-.45 1.722-.303.594.147 1.061.501 1.4 1.063.212.354.323.83.314 1.417a5.334 5.334 0 01-.382 1.866 8.042 8.042 0 01-1.12 1.979 6.762 6.762 0 01-1.875 1.693c-.908.562-1.824.933-2.741 1.106-.925.173-1.807.181-2.639.017a6.075 6.075 0 01-2.282-.942 5.454 5.454 0 01-1.655-1.745c-.713-1.184-1.052-2.315-1.027-3.378a8.96 8.96 0 01.662-3.11 17.381 17.381 0 011.545-2.947 28.777 28.777 0 001.62-2.816c.458-.925.755-1.84.874-2.757.119-.915-.102-1.849-.67-2.79a3.866 3.866 0 00-1.146-1.21 4.103 4.103 0 00-1.578-.63c-.585-.104-1.213-.078-1.884.068-.67.147-1.349.432-2.036.864a8.53 8.53 0 00-1.214.916c1.494 1.504 2.767 3.197 2.767 5.435 0 3.603-2.86 7.897-2.868 7.906l-.145.216-.144-.216c-.008-.01-2.868-4.303-2.868-7.906 0-2.238 1.281-3.94 2.766-5.435a9.744 9.744 0 00-1.247-.916zm2.215 2.065a4.764 4.764 0 00-.756-.561 5.477 5.477 0 00-.755.561c-3.207 3.31-1.782 7.725.755 11.777 2.164-3.456 4.107-8.433.756-11.777zm-3.14 21.385a5.288 5.288 0 002.384 4.467 5.274 5.274 0 002.385-4.467c0-2.636-1.68-5.703-2.385-6.87-.695 1.167-2.384 4.234-2.384 6.87zm2.215 5.227l.169.095.17-.095c.009-.009 2.945-1.555 2.945-5.219 0-3.55-2.801-7.758-2.809-7.767l-.306-.458-.305.458c-.009.008-2.809 4.216-2.809 7.767 0 3.655 2.936 5.21 2.945 5.219zm2.223-22.352c0-2.566-2.054-3.655-2.054-3.655s-2.053 1.089-2.053 3.655 2.053 5.642 2.053 5.642 2.054-3.085 2.054-5.642zm-3.123-8.044c0 1.348 1.078 1.91 1.078 1.91s1.078-.57 1.078-1.91c0-1.348-1.078-2.955-1.078-2.955s-1.078 1.607-1.078 2.955zM97.903 47.391a8.67 8.67 0 01-.9 1.235c-1.468-1.52-3.14-2.817-5.337-2.817-3.539 0-7.756 2.912-7.764 2.92l-.213.148.213.146c.008.01 4.225 2.92 7.764 2.92 2.197 0 3.869-1.304 5.337-2.816.323.363.628.778.9 1.236.415.7.704 1.39.848 2.073.144.683.17 1.322.068 1.919a4.14 4.14 0 01-.62 1.607 3.769 3.769 0 01-1.188 1.166c-.924.579-1.832.803-2.74.682-.9-.12-1.808-.423-2.707-.89a27.039 27.039 0 01-2.766-1.65 16.99 16.99 0 00-2.894-1.572 8.248 8.248 0 00-3.055-.674c-1.052-.035-2.155.32-3.317 1.045a5.447 5.447 0 00-1.714 1.685 6.376 6.376 0 00-.925 2.324c-.162.856-.153 1.746.017 2.687.17.942.534 1.875 1.094 2.791.467.77 1.018 1.409 1.663 1.91.645.5 1.29.881 1.944 1.14.653.26 1.264.389 1.832.389.577 0 1.036-.104 1.392-.32.552-.345.9-.82 1.044-1.425.144-.605.042-1.193-.297-1.754-.34-.562-.806-.916-1.4-1.063-.594-.147-1.171-.043-1.723.302-.552.346-.908.821-1.044 1.426-.144.605-.042 1.192.297 1.754a.961.961 0 00.162.207l.186.19c.068.06.136.139.212.216a7.212 7.212 0 01-1.408-.63 7.61 7.61 0 01-1.315-.95c-.459-.398-.883-.925-1.265-1.565-.382-.639-.636-1.278-.755-1.918a5.38 5.38 0 01-.05-1.797 4.121 4.121 0 01.55-1.53 3.18 3.18 0 011.036-1.07c.925-.58 1.833-.804 2.74-.683.9.12 1.808.423 2.708.89a27.23 27.23 0 012.766 1.65c.942.63 1.9 1.158 2.893 1.573a8.44 8.44 0 003.072.665c1.06.026 2.164-.32 3.31-1.037a6.064 6.064 0 001.866-1.806 6.204 6.204 0 00.967-2.41c.162-.873.145-1.806-.042-2.791-.187-.985-.569-1.961-1.162-2.946a9.218 9.218 0 00-.95-1.314c.338-.38.652-.82.95-1.313.585-.976.975-1.961 1.162-2.946a7.748 7.748 0 00.042-2.79 6.477 6.477 0 00-.967-2.412 6.063 6.063 0 00-1.867-1.805c-1.145-.717-2.248-1.063-3.309-1.037a8.421 8.421 0 00-3.072.665c-.984.424-1.951.942-2.893 1.573a27.985 27.985 0 01-2.766 1.65c-.908.466-1.808.769-2.707.89-.9.12-1.816-.104-2.741-.683a3.182 3.182 0 01-1.035-1.071 4.067 4.067 0 01-.552-1.53 5.38 5.38 0 01.051-1.796c.119-.64.365-1.28.755-1.919a6.564 6.564 0 011.265-1.563c.458-.398.89-.718 1.315-.95a6.926 6.926 0 011.408-.632 2.521 2.521 0 01-.212.216l-.186.19a.755.755 0 00-.162.208c-.339.561-.44 1.149-.297 1.754.145.605.492 1.08 1.044 1.425.552.346 1.129.45 1.723.303.594-.147 1.06-.501 1.4-1.063.34-.562.44-1.15.297-1.754-.145-.605-.493-1.08-1.044-1.425-.348-.216-.815-.329-1.392-.32a5.099 5.099 0 00-1.832.389c-.654.25-1.299.63-1.944 1.14a6.804 6.804 0 00-1.663 1.91c-.551.924-.916 1.857-1.094 2.79-.17.942-.178 1.84-.017 2.687.16.856.466 1.625.925 2.325a5.45 5.45 0 001.714 1.684c1.162.726 2.274 1.072 3.317 1.046a8.525 8.525 0 003.055-.674 16.92 16.92 0 002.894-1.573 27.986 27.986 0 012.766-1.65c.908-.475 1.807-.769 2.707-.89.9-.12 1.816.104 2.74.683a3.86 3.86 0 011.188 1.166 4.14 4.14 0 01.62 1.607c.102.597.076 1.236-.068 1.918a6.748 6.748 0 01-.849 2.109zm-2.037 2.255c-3.284 3.413-8.171 1.434-11.566-.77 3.98-2.583 8.316-4.034 11.566-.768.297.345.475.63.552.769a4.841 4.841 0 01-.552.769zm-21.001-3.197c2.588 0 5.6 1.71 6.746 2.428-1.146.717-4.158 2.427-6.746 2.427-2.656 0-4.022-1.84-4.387-2.427.365-.588 1.722-2.428 4.387-2.428zm-5.125 2.255c0-.009 1.527-2.998 5.125-2.998 3.487 0 7.62 2.851 7.628 2.86l.45.31-.45.312c-.008.008-4.14 2.86-7.628 2.86-3.598 0-5.125-2.99-5.125-2.998l-.094-.173.094-.173zm21.951 2.264c-2.52 0-5.54-2.091-5.54-2.091s3.02-2.083 5.54-2.083 3.581 2.083 3.581 2.083-1.06 2.09-3.58 2.09zm7.9-3.189c1.315 0 2.902 1.098 2.902 1.098s-1.587 1.097-2.902 1.097c-1.324 0-1.875-1.097-1.875-1.097s.551-1.098 1.875-1.098zm28.494 2.584c.28-.458.577-.873.899-1.236 1.468 1.52 3.14 2.817 5.338 2.817 3.538 0 7.755-2.912 7.764-2.92l.212-.147-.212-.147c-.009-.009-4.226-2.92-7.764-2.92-2.198 0-3.87 1.304-5.338 2.816a8.026 8.026 0 01-.899-1.235c-.416-.7-.704-1.392-.849-2.074-.144-.683-.169-1.322-.068-1.918a4.143 4.143 0 01.62-1.607 3.857 3.857 0 011.188-1.167c.925-.578 1.833-.803 2.741-.682.899.12 1.807.423 2.706.89a28.03 28.03 0 012.767 1.65c.942.63 1.9 1.158 2.893 1.573a8.609 8.609 0 003.055.673c1.052.035 2.155-.32 3.318-1.045a5.45 5.45 0 001.714-1.685c.458-.7.763-1.477.925-2.324.161-.855.152-1.745-.017-2.687-.17-.942-.535-1.875-1.095-2.79-.467-.77-1.018-1.41-1.663-1.91-.645-.501-1.29-.882-1.943-1.14-.654-.26-1.265-.39-1.833-.39-.577 0-1.035.104-1.392.32-.551.346-.899.82-1.043 1.426-.145.605-.043 1.192.297 1.754.339.561.806.924 1.4 1.062.594.147 1.171.044 1.722-.302.552-.346.9-.82 1.044-1.426.144-.605.042-1.192-.297-1.754a.96.96 0 00-.161-.207c-.068-.06-.128-.13-.195-.19-.068-.06-.136-.138-.213-.216a6.76 6.76 0 011.409.63c.416.234.857.545 1.315.951.458.398.883.925 1.265 1.564.381.64.636 1.279.755 1.918.119.64.136 1.236.051 1.797a4.182 4.182 0 01-.552 1.53c-.28.457-.628.82-1.035 1.07-.925.58-1.833.804-2.741.683-.899-.12-1.807-.423-2.707-.89a27.984 27.984 0 01-2.766-1.65 16.96 16.96 0 00-2.893-1.572 8.424 8.424 0 00-3.072-.666c-1.061-.026-2.164.32-3.309 1.037a6.05 6.05 0 00-1.867 1.806 6.213 6.213 0 00-.968 2.41c-.161.873-.144 1.806.043 2.791.187.985.568 1.97 1.162 2.947.297.492.611.924.951 1.313-.34.38-.654.82-.951 1.313-.585.977-.975 1.962-1.162 2.947a7.756 7.756 0 00-.043 2.79c.162.873.484 1.676.968 2.41a6.049 6.049 0 001.867 1.807c1.145.717 2.248 1.062 3.309 1.036a8.424 8.424 0 003.072-.665 16.96 16.96 0 002.893-1.572 27.984 27.984 0 012.766-1.65c.908-.467 1.808-.77 2.707-.89.9-.122 1.816.103 2.741.682.407.25.747.614 1.035 1.071.28.458.467.968.552 1.53a5.373 5.373 0 01-.051 1.797 5.658 5.658 0 01-.755 1.918 6.577 6.577 0 01-1.265 1.564c-.458.397-.891.717-1.315.95a6.916 6.916 0 01-1.409.63c.077-.085.145-.155.213-.215.067-.06.127-.13.195-.19a.744.744 0 00.161-.207c.339-.562.441-1.15.297-1.754-.144-.605-.492-1.08-1.044-1.426-.551-.346-1.128-.45-1.722-.303-.594.147-1.061.502-1.4 1.063-.34.562-.442 1.15-.297 1.754.144.605.492 1.08 1.043 1.426.348.216.815.328 1.392.32.577 0 1.188-.13 1.833-.39a7.856 7.856 0 001.943-1.14 6.799 6.799 0 001.663-1.91c.552-.924.916-1.857 1.095-2.79.169-.942.178-1.84.017-2.687a6.335 6.335 0 00-.925-2.324 5.45 5.45 0 00-1.714-1.685c-1.163-.726-2.274-1.072-3.318-1.045a8.526 8.526 0 00-3.055.673c-.993.415-1.951.942-2.893 1.573a28.015 28.015 0 01-2.767 1.65c-.907.467-1.807.77-2.706.89-.9.121-1.816-.104-2.741-.682a3.857 3.857 0 01-1.188-1.167 4.272 4.272 0 01-.62-1.607c-.101-.596-.076-1.236.068-1.918a6.386 6.386 0 01.849-2.108zm2.028-2.255c3.275-3.413 8.171-1.435 11.565.769-3.979 2.583-8.315 4.035-11.565.769a4.896 4.896 0 01-.552-.77c.077-.138.263-.423.552-.768zm21.001 3.197c-2.588 0-5.6-1.711-6.746-2.428 1.146-.718 4.158-2.428 6.746-2.428 2.656 0 4.022 1.84 4.387 2.428-.365.587-1.722 2.427-4.387 2.427zm5.134-2.255c-.009.008-1.528 2.998-5.125 2.998-3.488 0-7.62-2.852-7.629-2.86l-.449-.311.449-.311c.009-.009 4.141-2.86 7.629-2.86 3.597 0 5.125 2.99 5.125 2.998l.093.173-.093.172zm-21.952-2.264c2.52 0 5.541 2.09 5.541 2.09s-3.021 2.092-5.541 2.092c-2.52 0-3.581-2.091-3.581-2.091s1.061-2.091 3.581-2.091zm-7.9 3.188c-1.323 0-2.902-1.097-2.902-1.097s1.579-1.098 2.902-1.098c1.324 0 1.876 1.098 1.876 1.098s-.56 1.097-1.876 1.097zM87.041 71.142c2.393-2.1 5.074-1.002 5.074-1.002s.662 2.868-1.722 4.96C88 77.198 83.46 77.734 83.46 77.734s1.197-4.493 3.581-6.593zm.009-44.462c2.392 2.1 5.074 1.003 5.074 1.003s.662-2.869-1.723-4.96c-2.392-2.1-6.932-2.635-6.932-2.635s1.188 4.493 3.58 6.592zm51.888 44.462c-2.393-2.1-5.075-1.002-5.075-1.002s-.661 2.868 1.723 4.96c2.393 2.099 6.932 2.635 6.932 2.635s-1.187-4.493-3.58-6.593z" fill="#fff"/><path fill-rule="evenodd" clip-rule="evenodd" d="M112.99 0c13.254 0 25.252 5.47 33.941 14.317 8.689 8.847 14.06 21.064 14.06 34.56 0 13.496-5.371 25.713-14.06 34.56-8.689 8.848-20.687 14.317-33.941 14.317-13.255 0-25.253-5.47-33.942-14.317-8.689-8.847-14.06-21.064-14.06-34.56 0-13.496 5.371-25.713 14.06-34.56C87.738 5.477 99.735 0 112.99 0zm32.677 15.604c-8.358-8.51-19.916-13.78-32.677-13.78-12.762-.001-24.311 5.27-32.678 13.78-8.358 8.51-13.534 20.278-13.534 33.273 0 12.995 5.176 24.754 13.534 33.273 8.358 8.51 19.916 13.781 32.678 13.781 12.761 0 24.31-5.27 32.677-13.781 8.358-8.51 13.534-20.278 13.534-33.273 0-12.995-5.176-24.754-13.534-33.273z" fill="#fff"/></svg>