<svg width="77" height="478" fill="none" xmlns="http://www.w3.org/2000/svg"><path fill-rule="evenodd" clip-rule="evenodd" d="M74.427 64.55h-6.665a23.227 23.227 0 00-1.354-3.654c-1.423-2.962-3.541-5.629-6.353-7.933-2.777-2.271-6.04-3.983-9.755-5.135-3.644-1.119-7.74-1.679-12.219-1.679-4.478 0-8.574.56-12.22 1.68-3.679 1.151-6.942 2.863-9.754 5.134-2.811 2.304-4.93 4.938-6.352 7.933A21.04 21.04 0 008.4 64.55H1.736c.729-8.887 4.235-16.426 10.518-22.614 3.54-3.522 7.464-6.155 11.768-7.9 4.27-1.745 8.922-2.633 13.99-2.633 5.138 0 9.824.889 14.163 2.633 4.305 1.745 8.262 4.378 11.803 7.9 6.179 6.188 9.685 13.727 10.449 22.614zM74.114 0H2.152c-.07 0-.139 0-.208.033a.605.605 0 00-.174.132c-.034.065-.104.098-.104.164-.034.066-.034.165-.034.297v15.602c1.25-.823 2.673-1.415 4.235-1.843 1.7-.428 3.575-.659 5.623-.659h62.763c.035-.033.104-.065.209-.164l.173-.198V.626c0-.132 0-.23-.035-.297a.706.706 0 00-.104-.164L74.288 0h-.174zM1.736 64.55H8.4a24.308 24.308 0 00-.799 6.221v8.197c0 .526.105 1.053.348 1.547.208.493.555.921 1.006 1.283a4.67 4.67 0 001.423.823 5.45 5.45 0 001.632.264h52.28c.59 0 1.145-.1 1.63-.264a4.03 4.03 0 001.424-.856c.799-.757 1.215-1.711 1.215-2.797V70.77c0-2.205-.278-4.279-.798-6.221h6.665c.104 1.185.139 2.403.139 3.62v28.013l-.174.197-.208.165H11.42c-2.048 0-3.923.23-5.624.658-1.597.428-3.02 1.02-4.235 1.844V68.17c.035-1.218.07-2.436.174-3.621zm51.793 199.015h-6.04v-7.834c0-3.193-1.632-4.246-4.895-3.094l-24.3 8.262a3.182 3.182 0 00-1.458.856c-.451.46-.66 1.02-.66 1.678v.165H1.597v-8.789c0-.461.105-.823.279-1.053.173-.264.52-.461 1.006-.626l71.72-25.806v13.43c0 .395-.07.691-.244.921-.173.231-.45.395-.867.56l-17.01 5.793c-1.944.626-2.916 2.041-2.916 4.279v11.258h-.035zm-42.073-53.918h62.763l.208-.164.173-.198v-12.64c0-.132 0-.23-.034-.296a.716.716 0 00-.105-.165l-.208-.164H49.19a8.627 8.627 0 01-2.5-.362c-.833-.264-1.527-.626-2.152-1.152l-1.215-1.054c-1.979-1.613-1.91-3.193.243-4.773l29.403-20.803c1.11-.823 1.666-2.173 1.666-4.082v-12.903l-40.893 29.592c-1.944 1.481-3.784 1.448-5.415-.132l-26.73-23.733v8.262c0 .823.139 1.58.416 2.173.278.592.695 1.119 1.215 1.58 8.991 7.308 17.531 15.57 26.522 22.943.382.362.66.724.833 1.119.278.593.312 1.218.07 1.811-.244.592-.695 1.053-1.354 1.316-.417.165-.868.231-1.389.231H2.152c-.07 0-.139 0-.208.033-.07.032-.104.065-.174.131-.034.066-.104.099-.104.165-.034.066-.034.164-.034.296v15.504c1.25-.823 2.673-1.416 4.235-1.843 1.666-.461 3.54-.692 5.589-.692zm62.658-89.27H2.152c-.07 0-.139 0-.208.033-.07.033-.104.066-.174.131-.034.066-.104.099-.104.165-.034.066-.034.165-.034.296v15.603c1.25-.823 2.673-1.416 4.235-1.843 1.7-.428 3.575-.659 5.623-.659h62.763c.035-.033.104-.066.209-.164l.173-.198v-12.739c0-.131 0-.23-.035-.296a.716.716 0 00-.104-.165l-.208-.164h-.174zm-22.32 353.132l8.227 4.246a.963.963 0 00.416.099c.243 0 .555-.099.868-.264l.035-.033a22.786 22.786 0 005.797-3.785c1.77-1.58 3.332-3.489 4.72-5.728a26.463 26.463 0 003.125-7.274c.695-2.634 1.042-5.464 1.042-8.526 0-7.241-2.014-12.969-6.075-17.149-2.014-2.074-4.27-3.654-6.804-4.675-2.5-1.02-5.312-1.547-8.401-1.547-3.263 0-6.283.56-9.026 1.613a20.307 20.307 0 00-3.888 1.975 19.258 19.258 0 00-3.332 2.601 56.284 56.284 0 00-2.95 3.028 36.28 36.28 0 00-2.43 2.963 58.74 58.74 0 00-2.153 3.192 155.367 155.367 0 00-2.118 3.555l-.347.659-.486.889c-.764 1.415-1.458 2.633-2.048 3.719a154.488 154.488 0 01-1.632 2.798 19.58 19.58 0 01-1.7 2.337 17.414 17.414 0 01-2.083 2.107 10.404 10.404 0 01-2.639 1.679 7.906 7.906 0 01-2.985.592c-1.354 0-2.569-.23-3.68-.691a8.236 8.236 0 01-2.916-2.14 9.168 9.168 0 01-1.735-3.226 13.925 13.925 0 01-.556-3.917c0-1.613.208-3.127.66-4.575.451-1.448 1.076-2.831 1.944-4.082.833-1.185 1.7-2.271 2.638-3.193a18.696 18.696 0 012.986-2.469c.138-.098.242-.197.312-.296l.034-.131-6.387-3.654c-.451-.198-.833-.296-1.076-.264-.139 0-.243.066-.347.165-2.256 2.238-3.957 4.905-5.068 7.966C.59 445.2 0 448.821 0 452.903c0 3.061.417 5.859 1.284 8.393a21.253 21.253 0 003.784 6.913c1.632 2.008 3.506 3.555 5.624 4.542 2.117 1.021 4.513 1.548 7.186 1.58 1.596 0 3.09-.131 4.478-.362a19.37 19.37 0 003.957-1.119c1.215-.494 2.395-1.086 3.506-1.843a18.657 18.657 0 003.055-2.601c2.014-2.106 3.68-4.147 4.999-6.155.694-1.02 1.389-2.173 2.117-3.423.73-1.284 1.528-2.7 2.292-4.214 2.464-4.773 4.755-8.328 6.838-10.599 1.18-1.284 2.534-2.271 4.097-2.93 1.562-.658 3.263-.954 5.102-.954 1.736 0 3.333.296 4.756.889 1.458.592 2.708 1.481 3.819 2.633 1.076 1.152 1.874 2.535 2.395 4.147.52 1.548.764 3.292.764 5.234 0 4.872-1.805 9.25-5.45 13.134a24.399 24.399 0 01-5.902 4.674c-2.117 1.284-4.408 2.14-6.908 2.667zM1.596 263.565h14.58a2.66 2.66 0 00.59 1.514c.382.461.902.79 1.527.955l24.3 8.591c.66.23 1.25.329 1.77.329.66 0 1.25-.164 1.736-.493.52-.33.903-.79 1.146-1.416.173-.428.243-.922.243-1.448v-8.065h6.04v11.982c0 .922.243 1.711.764 2.403.52.658 1.215 1.152 2.152 1.448l17.045 5.793c.416.132.694.33.867.56.14.198.243.527.243.922v7.735l-62.485-22.581c-2.395-.823-4.478-1.251-6.214-1.251-.798 0-1.527.066-2.256.231a9.004 9.004 0 00-2.013.658h-.035v-7.867zm0 86.966v12.377c0 .132.035.23.035.296a.683.683 0 00.104.165c.07.066.139.099.173.131l.209.033h27.944c1.18 0 2.187.395 3.02 1.185.382.362.695.79.903 1.251.243.494.347.988.347 1.514v22.845c0 1.218-.382 2.205-1.18 2.896-.764.692-1.805 1.021-3.09 1.021H2.118c-.07 0-.174 0-.209.033-.034.033-.104.066-.173.131-.07.066-.104.099-.104.165-.035.066-.035.165-.035.296v15.504c1.25-.823 2.673-1.415 4.235-1.843 1.7-.461 3.575-.659 5.624-.659h62.763l.208-.164.173-.198v-12.64c0-.131 0-.23-.034-.296a.716.716 0 00-.105-.165c-.069-.065-.138-.131-.208-.164H44.608c-2.847 0-4.27-1.317-4.27-3.95v-22.844c0-.527.104-1.021.347-1.515.208-.46.52-.888.902-1.25.417-.395.868-.659 1.389-.889.52-.198 1.076-.329 1.632-.329h29.645l.209-.165c.069-.066.104-.099.104-.165.034-.065.034-.164.034-.296v-12.377c0-.131 0-.23-.034-.296-.035-.066-.07-.132-.105-.164a.912.912 0 00-.208-.165H2.187c-.07 0-.174 0-.208.033-.035.033-.104.066-.174.132-.07.065-.104.098-.104.164-.104.165-.104.263-.104.362zm72.517-38.48H2.152c-.07 0-.139 0-.208.033-.07.033-.104.066-.174.132-.034.066-.104.099-.104.165-.034.065-.034.164-.034.296v15.603c1.25-.823 2.673-1.416 4.235-1.844 1.7-.461 3.575-.658 5.623-.658h62.763c.035-.033.104-.066.209-.165l.173-.197v-12.739c0-.132 0-.231-.035-.296a.716.716 0 00-.104-.165l-.208-.132-.174-.033z" fill="#fff"/></svg>