<svg width="61" height="61" fill="none" xmlns="http://www.w3.org/2000/svg"><path fill-rule="evenodd" clip-rule="evenodd" d="M13.535 14.74c0-6.35 5.129-11.49 11.446-11.49s11.446 5.14 11.446 11.49c0 6.345-5.118 11.481-11.427 11.492h-.038c-6.308-.01-11.427-5.147-11.427-11.491zm4.89 12.352a13.996 13.996 0 01-7.39-12.351C11.035 7.018 17.275.75 24.981.75c7.706 0 13.946 6.268 13.946 13.99 0 5.348-2.99 9.997-7.389 12.352 10.756 2.887 18.674 12.704 18.674 24.37v9.121H-.25v-9.12c0-11.667 7.918-21.485 18.674-24.371zm6.536 1.64c-12.545.01-22.711 10.183-22.711 22.73v6.621h45.462v-6.62c0-12.548-10.166-22.72-22.71-22.732h-.04z" fill="#EB5F43"/><path d="M59.75 22.818c0 4.982-4.023 9.013-8.977 9.013-4.954 0-8.978-4.03-8.978-9.013 0-4.982 4.024-9.013 8.978-9.013 4.953 0 8.977 4.031 8.977 9.013z" stroke="#EB5F43" stroke-width="2.5"/><mask id="a" fill="#fff"><path d="M56.856 25.638a6.713 6.713 0 01-3.013 3.157 6.68 6.68 0 01-8.097-1.53 6.737 6.737 0 01-.497-8.253 6.703 6.703 0 013.498-2.604 6.679 6.679 0 014.355.105 6.705 6.705 0 013.37 2.77L54.8 20.32a4.737 4.737 0 00-2.38-1.956 4.718 4.718 0 00-3.077-.074 4.735 4.735 0 00-2.471 1.84 4.762 4.762 0 00.351 5.829 4.718 4.718 0 005.719 1.081 4.743 4.743 0 002.129-2.23l1.786.828z"/></mask><path d="M56.856 25.638a6.713 6.713 0 01-3.013 3.157 6.68 6.68 0 01-8.097-1.53 6.737 6.737 0 01-.497-8.253 6.703 6.703 0 013.498-2.604 6.679 6.679 0 014.355.105 6.705 6.705 0 013.37 2.77L54.8 20.32a4.737 4.737 0 00-2.38-1.956 4.718 4.718 0 00-3.077-.074 4.735 4.735 0 00-2.471 1.84 4.762 4.762 0 00.351 5.829 4.718 4.718 0 005.719 1.081 4.743 4.743 0 002.129-2.23l1.786.828z" stroke="#EB5F43" stroke-width="5" mask="url(#a)"/></svg>