<svg width="62" height="64" fill="none" xmlns="http://www.w3.org/2000/svg"><path d="M4.047 24.95V23.7h-1.25v1.25h1.25zm53.906 0h1.25V23.7h-1.25v1.25zm0 37.05v1.25h1.25V62h-1.25zM4.047 62h-1.25v1.25h1.25V62zM2 15.346v-1.25H.75v1.25H2zm58 0h1.25v-1.25H60v1.25zm0 9.605v1.25h1.25v-1.25H60zm-58 0H.75v1.25H2v-1.25zm28.908-9.798l-1.026-.714-1.526 2.193 2.661-.233-.109-1.246zM50.08 7.692l-1.231-.216 1.231.216zM46.921 2.19l-.43 1.173.43-1.173zM31.265 15.153l-.109 1.246 2.661.233-1.526-2.193-1.026.714zm-19.17-7.461l1.23-.216-1.23.216zm3.158-5.501l.43 1.173-.43-1.173zM4.047 26.2h53.906v-2.5H4.047v2.5zm52.656-1.25V62h2.5V24.95h-2.5zm1.25 35.799H4.047v2.5h53.906v-2.5zM5.297 62V24.95h-2.5V62h2.5zM2 16.596h58v-2.5H2v2.5zm56.75-1.25v9.605h2.5v-9.605h-2.5zM60 23.7H2v2.5h58v-2.5zM3.25 24.95v-9.605H.75v9.605h2.5zm26.5-9.605V62h2.5V15.346h-2.5zm1.158-.193l.11 1.246h.004l.012-.002a40.644 40.644 0 00.793-.08 72.506 72.506 0 002.106-.266c1.741-.244 4.084-.633 6.47-1.212 2.371-.575 4.851-1.353 6.83-2.399 1.91-1.01 3.714-2.456 4.078-4.533l-2.463-.431c-.15.86-1.001 1.813-2.782 2.753-1.711.904-3.96 1.624-6.253 2.18-2.279.553-4.535.929-6.228 1.166a70.08 70.08 0 01-2.776.332l-.008.001h-.002l.11 1.245zM51.31 7.907c.277-1.58.176-3.037-.537-4.279-.714-1.242-1.92-2.061-3.423-2.611l-.86 2.347c1.175.43 1.795.952 2.115 1.51.32.558.46 1.36.243 2.602l2.462.431zm-3.96-6.89c-1.978-.725-4.13.126-5.952 1.283-1.89 1.201-3.8 2.971-5.481 4.748-1.69 1.787-3.197 3.633-4.278 5.027a73.28 73.28 0 00-1.723 2.316l-.024.035a.386.386 0 00-.007.01l-.002.002 1.025.715 1.026.715.001-.002a.53.53 0 00.005-.007l.02-.03a51.292 51.292 0 01.417-.58c.29-.397.713-.966 1.237-1.642 1.051-1.355 2.503-3.133 4.12-4.841 1.625-1.719 3.37-3.317 5.004-4.355 1.703-1.082 2.945-1.342 3.753-1.047l.86-2.347zM31.265 15.153l.11-1.245h-.011a12.73 12.73 0 01-.18-.018 70.037 70.037 0 01-2.595-.315c-1.693-.237-3.95-.612-6.229-1.165-2.293-.557-4.541-1.277-6.252-2.18-1.781-.941-2.632-1.895-2.783-2.754l-2.462.431c.364 2.077 2.167 3.524 4.077 4.533 1.98 1.046 4.46 1.824 6.83 2.4 2.386.578 4.73.967 6.47 1.211a72.55 72.55 0 002.858.342l.042.004.011.001h.004l.11-1.245zm-17.94-7.677c-.217-1.241-.077-2.044.244-2.603.32-.557.94-1.078 2.114-1.509l-.86-2.347c-1.502.55-2.709 1.369-3.422 2.611-.713 1.242-.815 2.7-.538 4.28l2.463-.432zm2.358-4.112c.807-.295 2.05-.035 3.752 1.047 1.635 1.038 3.38 2.636 5.006 4.355 1.615 1.708 3.067 3.486 4.118 4.841a71.074 71.074 0 011.654 2.223c.01.013.016.023.02.03a.186.186 0 01.005.006l.001.001 1.026-.714 1.026-.714-.002-.004-.007-.009-.024-.035a30.28 30.28 0 00-.442-.615 73.864 73.864 0 00-1.281-1.7c-1.081-1.395-2.588-3.24-4.278-5.028-1.681-1.777-3.591-3.547-5.481-4.748-1.822-1.157-3.974-2.008-5.953-1.283l.86 2.347z" fill="#EB5F43"/></svg>