<svg width="60" height="63" fill="none" xmlns="http://www.w3.org/2000/svg"><path fill-rule="evenodd" clip-rule="evenodd" d="M10.344 20.717a5 5 0 10-6.688 0A6.667 6.667 0 000 26.667v4.666h14v-4.666a6.666 6.666 0 00-3.656-5.95zM10 17a3 3 0 11-6 0 3 3 0 016 0zm-3.333 5A4.667 4.667 0 002 26.667v2.666h10v-2.666A4.667 4.667 0 007.333 22h-.666zm49.677-1.283a5 5 0 10-6.688 0A6.666 6.666 0 0046 26.667v4.666h14v-4.666a6.666 6.666 0 00-3.656-5.95zM56 17a3 3 0 11-6 0 3 3 0 016 0zm-3.333 5A4.667 4.667 0 0048 26.667v2.666h10v-2.666A4.667 4.667 0 0053.333 22h-.666z" fill="#EB5F43"/><path d="M27.398 50l-.917.85a1.25 1.25 0 002.167-.85h-1.25zm-5.495-5.932l.918-.85-.017-.017-.017-.017-.884.884zM26.731 59h1.25v-.506l-.351-.363-.899.869zm-9.72-10.047l.898-.869-.007-.008-.008-.007-.883.884zm.003-4.885l-.884-.884.884.884zm33.717 10.599l1.17.439.08-.213v-.226h-1.25zm-24 6.666h-1.25v1.25h1.25v-1.25zm23 0v1.25h1.25v-1.25h-1.25zm0-4l-1.17-.439-.08.213v.226h1.25zM34.75 14c0 2.6-2.104 4.667-4.75 4.667v2.5c3.981 0 7.25-3.14 7.25-7.167h-2.5zM30 18.667c-2.646 0-4.75-2.066-4.75-4.667h-2.5c0 4.027 3.269 7.167 7.25 7.167v-2.5zM25.25 14A4.75 4.75 0 0130 9.25v-2.5A7.25 7.25 0 0022.75 14h2.5zM30 9.25A4.75 4.75 0 0134.75 14h2.5A7.25 7.25 0 0030 6.75v2.5zm-1 11.917h2v-2.5h-2v2.5zm2 0c2.328 0 4.168.7 5.413 1.862 1.235 1.154 2.004 2.87 2.004 5.151h2.5c0-2.873-.988-5.288-2.798-6.978-1.799-1.68-4.293-2.535-7.12-2.535v2.5zm-2-2.5c-2.876 0-5.394 1.008-7.197 2.807-1.803 1.8-2.815 4.316-2.815 7.193h2.5c0-2.278.791-4.137 2.08-5.423 1.29-1.287 3.153-2.077 5.432-2.077v-2.5zM15.916 17c0-7.594 6.157-13.75 13.75-13.75V.75c-8.974 0-16.25 7.275-16.25 16.25h2.5zm13.75-13.75c7.594 0 13.75 6.156 13.75 13.75h2.5c0-8.975-7.275-16.25-16.25-16.25v2.5zm-2.75 27.225c-6.276-1.274-11-6.824-11-13.475h-2.5c0 7.863 5.584 14.42 13.002 15.925l.497-2.45zM43.415 17c0 6.542-4.57 12.02-10.693 13.41l.553 2.437c7.237-1.642 12.64-8.112 12.64-15.847h-2.5zM31.48 26v11.333h2.5V26h-2.5zm0 11.333V44h2.5v-6.667h-2.5zM28.648 50V25.988h-2.5V50h2.5zm1.417-25.417c.782 0 1.416.635 1.416 1.417h2.5a3.917 3.917 0 00-3.916-3.917v2.5zm0-2.5a3.906 3.906 0 00-3.917 3.905h2.5c0-.775.627-1.405 1.417-1.405v-2.5zm-9.079 22.834l5.495 5.932 1.834-1.698-5.495-5.933-1.834 1.699zm6.644 13.214l-9.721-10.047-1.797 1.738 9.72 10.047 1.798-1.738zm-9.732-13.18a2.207 2.207 0 013.122 0l1.767-1.767a4.707 4.707 0 00-6.657 0l1.768 1.768zm-1.768-1.767a4.703 4.703 0 00-.003 6.653l1.768-1.768c-.86-.86-.86-2.254.003-3.117l-1.768-1.768zm21.351-5.85V44h2.5v-6.667h-2.5zm-1.75-1.417c.414 0 .882.175 1.241.482.358.305.51.647.51.934h2.5c0-1.185-.613-2.176-1.387-2.836-.772-.659-1.804-1.08-2.864-1.08v2.5zm0-2.5c-1.059 0-2.091.421-2.863 1.08-.774.66-1.387 1.65-1.387 2.836h2.5c0-.287.151-.63.51-.934.359-.307.827-.482 1.24-.482v-2.5zm7.75 3.916V44h2.5v-6.667h-2.5zm-1.75-1.416c.414 0 .882.175 1.241.482.358.305.51.647.51.934h2.5c0-1.185-.613-2.176-1.387-2.836-.772-.659-1.804-1.08-2.864-1.08v2.5zm0-2.5c-1.059 0-2.091.421-2.863 1.08-.774.66-1.387 1.65-1.387 2.836h2.5c0-.287.151-.63.51-.934.359-.307.827-.482 1.24-.482v-2.5zm7.75 3.916v17.334h2.5V37.333h-2.5zm-1.75-1.416c.414 0 .882.175 1.241.482.358.305.51.647.51.934h2.5c0-1.185-.613-2.176-1.387-2.836-.772-.659-1.804-1.08-2.864-1.08v2.5zm0-2.5c-1.059 0-2.091.421-2.863 1.08-.774.66-1.387 1.65-1.387 2.836h2.5c0-.287.151-.63.51-.934.359-.307.827-.482 1.24-.482v-2.5zM25.481 59v2.333h2.5V59h-2.5zm1.25 3.583h23v-2.5h-23v2.5zm24.25-1.25v-4h-2.5v4h2.5zm-.08-3.56l1-2.667-2.34-.878-1 2.666 2.34.878z" fill="#EB5F43"/></svg>