<svg width="60" height="60" fill="none" xmlns="http://www.w3.org/2000/svg"><path d="M47.641 29.675c0 9.984-8.075 18.073-18.03 18.073v2.5c11.34 0 20.53-9.213 20.53-20.573h-2.5zm-18.03 18.073c-9.957 0-18.032-8.089-18.032-18.073h-2.5c0 11.36 9.19 20.573 20.531 20.573v-2.5zM11.578 29.675c0-9.984 8.075-18.073 18.031-18.073v-2.5c-11.341 0-20.53 9.213-20.53 20.573h2.5zM29.61 11.602c9.956 0 18.031 8.089 18.031 18.073h2.5c0-11.36-9.19-20.573-20.53-20.573v2.5zm5.636 18.073c0 5.232-.757 9.914-1.944 13.244-.595 1.67-1.275 2.934-1.967 3.756-.698.827-1.286 1.074-1.725 1.074v2.5c1.463 0 2.686-.836 3.636-1.964.956-1.134 1.76-2.7 2.41-4.527 1.306-3.663 2.09-8.643 2.09-14.083h-2.5zM29.61 47.748c-.439 0-1.027-.246-1.724-1.073-.692-.822-1.372-2.085-1.967-3.756-1.187-3.33-1.945-8.012-1.945-13.244h-2.5c0 5.44.784 10.42 2.09 14.083.65 1.827 1.454 3.393 2.41 4.527.95 1.128 2.174 1.964 3.636 1.964v-2.5zm-5.636-18.073c0-5.232.758-9.914 1.945-13.244.595-1.67 1.274-2.934 1.967-3.756.697-.827 1.285-1.073 1.724-1.073v-2.5c-1.462 0-2.686.835-3.636 1.963-.956 1.134-1.76 2.7-2.41 4.527-1.306 3.663-2.09 8.643-2.09 14.083h2.5zm5.636-18.073c.44 0 1.027.246 1.725 1.073.692.822 1.372 2.085 1.967 3.756 1.187 3.33 1.944 8.012 1.944 13.244h2.5c0-5.44-.784-10.42-2.09-14.083-.65-1.827-1.454-3.393-2.41-4.527-.95-1.128-2.173-1.963-3.636-1.963v2.5zM11.706 25.059h35.808v-2.5H11.706v2.5zm0 11.042h35.808v-2.5H11.706v2.5z" fill="#EB5F43"/><mask id="a" fill="#fff"><path d="M0 29.675c0 16.39 13.257 29.676 29.61 29.676 6.087 0 11.177-.944 15.882-4.1L60 60l-4.567-15.793a29.59 29.59 0 003.788-14.532C59.22 13.286 45.964 0 29.61 0S0 13.286 0 29.675z"/></mask><path d="M45.492 55.251l.777-2.376-1.158-.379-1.012.679 1.393 2.076zm9.941-11.044l-2.18-1.224-.512.913.29 1.006 2.402-.695zM60 60l-.778 2.376 4.493 1.47-1.313-4.54L60 60zm-30.39-3.15C14.643 56.85 2.5 44.69 2.5 29.676h-5c0 17.765 14.371 32.176 32.11 32.176v-5zM2.5 29.676C2.5 14.662 14.643 2.5 29.61 2.5v-5C11.871-2.5-2.5 11.91-2.5 29.675h5zM29.61 2.5c14.968 0 27.11 12.162 27.11 27.175h5C61.72 11.911 47.35-2.5 29.61-2.5v5zM44.1 53.175c-4.138 2.776-8.67 3.676-14.489 3.676v5c6.356 0 12.002-.987 17.275-4.524L44.1 53.175zm12.622-23.5c0 4.84-1.26 9.378-3.468 13.308l4.36 2.448a32.091 32.091 0 004.108-15.756h-5zm4.057 27.949L46.27 52.875l-1.555 4.752 14.508 4.749 1.556-4.752zm-7.746-12.722l4.566 15.792 4.804-1.389-4.567-15.792-4.803 1.389z" fill="#EB5F43" mask="url(#a)"/></svg>