<svg width="457" height="37" fill="none" xmlns="http://www.w3.org/2000/svg"><path d="M5.648 31.55c-3.3-3.333-4.95-7.683-4.95-13.05 0-5.367 1.65-9.7 4.95-13 3.333-3.333 7.683-5 13.05-5 5.333 0 9.65 1.667 12.95 5 3.333 3.3 5 7.633 5 13s-1.667 9.717-5 13.05c-3.3 3.3-7.617 4.95-12.95 4.95-5.367 0-9.717-1.65-13.05-4.95zm6.2-24.45c-1.667 2.633-2.5 6.433-2.5 11.4 0 4.967.833 8.783 2.5 11.45 1.7 2.633 3.983 3.95 6.85 3.95 2.866 0 5.133-1.317 6.8-3.95 1.7-2.667 2.55-6.483 2.55-11.45s-.85-8.767-2.55-11.4c-1.667-2.667-3.934-4-6.8-4-2.867 0-5.15 1.333-6.85 4zM42.775 36V1h23.3v4.05l-.6.6c-1.733-1.033-4.483-1.55-8.25-1.55h-6.7v12.4h12.15l.45.45v2.7h-12.6V36h-7.75zm28.906 0V1h23.3v4.05l-.6.6c-1.733-1.033-4.483-1.55-8.25-1.55h-6.7v12.4h12.15l.45.45v2.7h-12.6V36h-7.75zm28.906 0V1h7.75v31.9h6c1.667 0 3.184-.133 4.55-.4 1.4-.267 2.367-.533 2.9-.8l.8-.35.6.6V36h-22.6zm27.881 0V1h7.75v35h-7.75zm15.381 0V15c0-2.667-.117-5.117-.35-7.35-.2-2.233-.417-3.8-.65-4.7l-.35-1.35.6-.6h2.65l23.25 22.85V1h3.85v35h-2.3l-23.25-22.9V36h-3.45zm36.67 0V1h23.45v4.05l-.6.6c-1.733-1.033-4.483-1.55-8.25-1.55h-6.85v12.4h12.25l.4.45v2.7h-12.65V32.9h7.35c1.667 0 3.183-.133 4.55-.4 1.4-.267 2.367-.533 2.9-.8l.8-.35.6.6V36h-23.95zm58.252-32.9c-2.9 0-5.217 1.283-6.95 3.85-1.734 2.567-2.6 6.15-2.6 10.75 0 9.533 3.833 14.3 11.5 14.3 1.933 0 3.783-.283 5.55-.85 1.766-.6 3.066-1.2 3.9-1.8l1.2-.9 1.25 1.25c-.1.2-.267.45-.5.75-.2.3-.7.85-1.5 1.65-.8.767-1.7 1.45-2.7 2.05-.967.6-2.3 1.15-4 1.65-1.667.467-3.467.7-5.4.7-5.367 0-9.7-1.667-13-5-3.3-3.333-4.95-7.683-4.95-13.05 0-5.367 1.65-9.7 4.95-13 3.333-3.3 7.783-4.95 13.35-4.95 4.233 0 7.583.933 10.05 2.8 2.5 1.867 3.75 4.3 3.75 7.3 0 .633-.067 1.217-.2 1.75-.134.5-.267.85-.4 1.05l-.15.3c-1.7.4-3.984.6-6.85.6l-.6-.6c.4-.733.6-1.95.6-3.65 0-2.267-.567-3.983-1.7-5.15-1.1-1.2-2.634-1.8-4.6-1.8zm23.175 28.45c-3.3-3.333-4.95-7.683-4.95-13.05 0-5.367 1.65-9.7 4.95-13 3.334-3.333 7.684-5 13.05-5 5.334 0 9.65 1.667 12.95 5 3.334 3.3 5 7.633 5 13s-1.666 9.717-5 13.05c-3.3 3.3-7.616 4.95-12.95 4.95-5.366 0-9.716-1.65-13.05-4.95zm6.2-24.45c-1.666 2.633-2.5 6.433-2.5 11.4 0 4.967.834 8.783 2.5 11.45 1.7 2.633 3.984 3.95 6.85 3.95 2.867 0 5.134-1.317 6.8-3.95 1.7-2.667 2.55-6.483 2.55-11.45s-.85-8.767-2.55-11.4c-1.666-2.667-3.933-4-6.8-4-2.866 0-5.15 1.333-6.85 4zm56.178 16.25V1h3.5v22.25c0 4-1.284 7.217-3.85 9.65-2.567 2.4-6.117 3.6-10.65 3.6-4.5 0-8.034-1.2-10.6-3.6-2.534-2.433-3.8-5.65-3.8-9.65V1h7.75v23.45c0 2.667.783 4.8 2.35 6.4 1.6 1.6 3.683 2.4 6.25 2.4 2.733 0 4.916-.883 6.55-2.65 1.666-1.8 2.5-4.217 2.5-7.25zM335.353 36V1h12.65c4.367 0 7.8.867 10.3 2.6 2.533 1.733 3.8 4.15 3.8 7.25 0 2.167-.633 4.017-1.9 5.55-1.267 1.533-3.067 2.667-5.4 3.4l3.95 7.35a57.89 57.89 0 002.75 4.6c.967 1.4 1.7 2.383 2.2 2.95l.7.9-.35.4h-8.45l-8.2-15.3h-4.3V36h-7.75zm11.45-31.85h-3.7V17.6h3.7c2.267 0 4.033-.583 5.3-1.75 1.267-1.167 1.9-2.833 1.9-5s-.633-3.817-1.9-4.95c-1.267-1.167-3.033-1.75-5.3-1.75zm33.088-1.05c-1.533 0-2.7.35-3.5 1.05-.8.7-1.2 1.667-1.2 2.9 0 1.233.5 2.317 1.5 3.25 1.033.933 3.417 2.65 7.15 5.15 1.967 1.333 3.383 2.317 4.25 2.95a43.56 43.56 0 012.9 2.25c1.033.833 1.733 1.55 2.1 2.15a9.29 9.29 0 01.95 2c.267.733.4 1.55.4 2.45 0 6.167-4.417 9.25-13.25 9.25-1.833 0-3.55-.133-5.15-.4-1.567-.267-2.85-.583-3.85-.95a30.9 30.9 0 01-2.5-1.15c-.7-.4-1.2-.733-1.5-1l-.45-.4c0-.9.133-1.767.4-2.6.267-.867.583-1.583.95-2.15.367-.6.733-1.133 1.1-1.6.367-.467.683-.817.95-1.05l.4-.3h.8c.1.233.233.567.4 1 .2.4.617 1.117 1.25 2.15a20.15 20.15 0 002 2.75c.7.767 1.6 1.483 2.7 2.15 1.133.633 2.267.95 3.4.95 1.6 0 2.9-.4 3.9-1.2 1-.8 1.5-1.817 1.5-3.05 0-1.333-.633-2.533-1.9-3.6-1.267-1.067-3.467-2.533-6.6-4.4-.3-.167-.533-.3-.7-.4-2.467-1.433-4.333-2.633-5.6-3.6a12.864 12.864 0 01-3.05-3.4c-.767-1.3-1.15-2.8-1.15-4.5 0-3 1.067-5.283 3.2-6.85 2.167-1.6 5.367-2.4 9.6-2.4 2.433 0 4.617.267 6.55.8 1.967.5 3.317 1 4.05 1.5l1.1.8a9.25 9.25 0 01-.95 4.1c-.633 1.3-1.267 2.233-1.9 2.8l-.95.9h-.75a6.831 6.831 0 00-.35-.9c-.133-.367-.467-1.017-1-1.95a16.917 16.917 0 00-1.7-2.55c-.6-.733-1.4-1.4-2.4-2-1-.6-2.033-.9-3.1-.9zM400.734 36V1h23.45v4.05l-.6.6c-1.733-1.033-4.483-1.55-8.25-1.55h-6.85v12.4h12.25l.4.45v2.7h-12.65V32.9h7.35c1.667 0 3.183-.133 4.55-.4 1.4-.267 2.367-.533 2.9-.8l.8-.35.6.6V36h-23.95zM441.61 3.1c-1.534 0-2.7.35-3.5 1.05-.8.7-1.2 1.667-1.2 2.9 0 1.233.5 2.317 1.5 3.25 1.033.933 3.416 2.65 7.15 5.15 1.966 1.333 3.383 2.317 4.25 2.95a43.82 43.82 0 012.9 2.25c1.033.833 1.733 1.55 2.1 2.15.366.567.683 1.233.95 2 .266.733.4 1.55.4 2.45 0 6.167-4.417 9.25-13.25 9.25-1.834 0-3.55-.133-5.15-.4-1.567-.267-2.85-.583-3.85-.95a30.9 30.9 0 01-2.5-1.15c-.7-.4-1.2-.733-1.5-1l-.45-.4c0-.9.133-1.767.4-2.6.266-.867.583-1.583.95-2.15.366-.6.733-1.133 1.1-1.6.366-.467.683-.817.95-1.05l.4-.3h.8c.1.233.233.567.4 1 .2.4.616 1.117 1.25 2.15a20.15 20.15 0 002 2.75c.7.767 1.6 1.483 2.7 2.15 1.133.633 2.266.95 3.4.95 1.6 0 2.9-.4 3.9-1.2 1-.8 1.5-1.817 1.5-3.05 0-1.333-.634-2.533-1.9-3.6-1.267-1.067-3.467-2.533-6.6-4.4-.3-.167-.534-.3-.7-.4-2.467-1.433-4.334-2.633-5.6-3.6a12.847 12.847 0 01-3.05-3.4c-.767-1.3-1.15-2.8-1.15-4.5 0-3 1.066-5.283 3.2-6.85 2.166-1.6 5.366-2.4 9.6-2.4 2.433 0 4.616.267 6.55.8 1.966.5 3.316 1 4.05 1.5l1.1.8a9.25 9.25 0 01-.95 4.1c-.634 1.3-1.267 2.233-1.9 2.8l-.95.9h-.75a6.976 6.976 0 00-.35-.9c-.134-.367-.467-1.017-1-1.95a16.993 16.993 0 00-1.7-2.55c-.6-.733-1.4-1.4-2.4-2-1-.6-2.034-.9-3.1-.9z" fill="#fff"/></svg>