<svg width="44" height="547" fill="none" xmlns="http://www.w3.org/2000/svg"><path d="M37.26 540.615c-4 3.96-9.22 5.94-15.66 5.94-6.44 0-11.64-1.98-15.6-5.94-4-4-6-9.22-6-15.66 0-6.4 2-11.58 6-15.54 3.96-4 9.16-6 15.6-6 6.44 0 11.66 2 15.66 6 3.96 3.96 5.94 9.14 5.94 15.54 0 6.44-1.98 11.66-5.94 15.66zm-29.34-7.44c3.16 2 7.72 3 13.68 3s10.54-1 13.74-3c3.16-2.04 4.74-4.78 4.74-8.22 0-3.44-1.58-6.16-4.74-8.16-3.2-2.04-7.78-3.06-13.74-3.06s-10.52 1.02-13.68 3.06c-3.2 2-4.8 4.72-4.8 8.16 0 3.44 1.6 6.18 4.8 8.22zm34.68-37.113H.6v-27.96h4.86l.72.72c-1.24 2.08-1.86 5.38-1.86 9.9v8.04H19.2v-14.58l.54-.54h3.24v15.12H42.6v9.3zm0-34.688H.6v-27.96h4.86l.72.72c-1.24 2.08-1.86 5.38-1.86 9.9v8.04H19.2v-14.58l.54-.54h3.24v15.12H42.6v9.3zm0-34.687H.6v-9.3h38.28v-7.2c0-2-.16-3.82-.48-5.46-.32-1.68-.64-2.84-.96-3.48l-.42-.96.72-.72h4.86v27.12zm0-33.457H.6v-9.3h42v9.3zm0-18.457H17.4c-3.2 0-6.14.14-8.82.42-2.68.24-4.56.5-5.64.78l-1.62.42-.72-.72v-3.18l27.42-27.9H.6v-4.62h42v2.76l-27.48 27.9H42.6v4.14zm0-44.004H.6v-28.14h4.86l.72.72c-1.24 2.08-1.86 5.38-1.86 9.9v8.22H19.2v-14.7l.54-.48h3.24v15.18h15.9v-8.82c0-2-.16-3.82-.48-5.46-.32-1.68-.64-2.84-.96-3.48l-.42-.96.72-.72h4.86v28.74zM3.12 260.867c0 3.48 1.54 6.26 4.62 8.34s7.38 3.12 12.9 3.12c11.44 0 17.16-4.6 17.16-13.8 0-2.32-.34-4.54-1.02-6.66-.72-2.12-1.44-3.68-2.16-4.68l-1.08-1.44 1.5-1.5c.24.12.54.32.9.6.36.24 1.02.84 1.98 1.8.92.96 1.74 2.04 2.46 3.24.72 1.16 1.38 2.76 1.98 4.8.56 2 .84 4.16.84 6.48 0 6.44-2 11.64-6 15.6-4 3.96-9.22 5.94-15.66 5.94-6.44 0-11.64-1.98-15.6-5.94-3.96-4-5.94-9.34-5.94-16.02 0-5.08 1.12-9.1 3.36-12.06 2.24-3 5.16-4.5 8.76-4.5.76 0 1.46.08 2.1.24.6.16 1.02.32 1.26.48l.36.18c.48 2.04.72 4.78.72 8.22l-.72.72c-.88-.48-2.34-.72-4.38-.72-2.72 0-4.78.68-6.18 2.04-1.44 1.32-2.16 3.16-2.16 5.52zm34.14-27.811c-4 3.96-9.22 5.94-15.66 5.94-6.44 0-11.64-1.98-15.6-5.94-4-4-6-9.22-6-15.66 0-6.4 2-11.58 6-15.54 3.96-4 9.16-6 15.6-6 6.44 0 11.66 2 15.66 6 3.96 3.96 5.94 9.14 5.94 15.54 0 6.44-1.98 11.66-5.94 15.66zm-29.34-7.44c3.16 2 7.72 3 13.68 3s10.54-1 13.74-3c3.16-2.04 4.74-4.78 4.74-8.22 0-3.44-1.58-6.16-4.74-8.16-3.2-2.04-7.78-3.06-13.74-3.06s-10.52 1.02-13.68 3.06c-3.2 2-4.8 4.72-4.8 8.16 0 3.44 1.6 6.18 4.8 8.22zm19.5-67.413H.6v-4.2h26.7c4.8 0 8.66 1.54 11.58 4.62 2.88 3.08 4.32 7.34 4.32 12.78 0 5.4-1.44 9.64-4.32 12.72-2.92 3.04-6.78 4.56-11.58 4.56H.6v-9.3h28.14c3.2 0 5.76-.94 7.68-2.82 1.92-1.92 2.88-4.42 2.88-7.5 0-3.28-1.06-5.9-3.18-7.86-2.16-2-5.06-3-8.7-3zm15.18-13.235H.6v-15.18c0-5.24 1.04-9.36 3.12-12.36 2.08-3.04 4.98-4.56 8.7-4.56 2.6 0 4.82.76 6.66 2.28 1.84 1.52 3.2 3.68 4.08 6.48l8.82-4.74c2-1.08 3.84-2.18 5.52-3.3 1.68-1.16 2.86-2.04 3.54-2.64l1.08-.84.48.42v10.14l-18.36 9.84v5.16H42.6v9.3zm-38.22-13.74v4.44h16.14v-4.44c0-2.72-.7-4.84-2.1-6.36-1.4-1.52-3.4-2.28-6-2.28s-4.58.76-5.94 2.28c-1.4 1.52-2.1 3.64-2.1 6.36zM3.12 91.522c0 1.84.42 3.24 1.26 4.2.84.96 2 1.44 3.48 1.44s2.78-.6 3.9-1.8c1.12-1.24 3.18-4.1 6.18-8.58 1.6-2.36 2.78-4.06 3.54-5.1.76-1.08 1.66-2.24 2.7-3.48 1-1.24 1.86-2.08 2.58-2.52.68-.44 1.48-.82 2.4-1.14.88-.32 1.86-.48 2.94-.48 7.4 0 11.1 5.3 11.1 15.9 0 2.2-.16 4.26-.48 6.18-.32 1.88-.7 3.42-1.14 4.62-.48 1.16-.94 2.16-1.38 3-.48.84-.88 1.44-1.2 1.8l-.48.54c-1.08 0-2.12-.16-3.12-.48-1.04-.32-1.9-.7-2.58-1.14-.72-.44-1.36-.88-1.92-1.32-.56-.44-.98-.82-1.26-1.14l-.36-.48v-.96c.28-.12.68-.28 1.2-.48.48-.24 1.34-.74 2.58-1.5s2.34-1.56 3.3-2.4c.92-.84 1.78-1.92 2.58-3.24.76-1.36 1.14-2.72 1.14-4.08 0-1.92-.48-3.48-1.44-4.68-.96-1.2-2.18-1.8-3.66-1.8-1.6 0-3.04.76-4.32 2.28-1.28 1.52-3.04 4.16-5.28 7.92-.2.36-.36.64-.48.84-1.72 2.96-3.16 5.2-4.32 6.72a15.43 15.43 0 01-4.08 3.66c-1.56.92-3.36 1.38-5.4 1.38-3.6 0-6.34-1.28-8.22-3.84C.96 98.762 0 94.922 0 89.842c0-2.92.32-5.54.96-7.86.6-2.36 1.2-3.98 1.8-4.86l.96-1.32c1.72 0 3.36.38 4.92 1.14 1.56.76 2.68 1.52 3.36 2.28l1.08 1.14v.9c-.28.08-.64.22-1.08.42-.44.16-1.22.56-2.34 1.2a20.33 20.33 0 00-3.06 2.04c-.88.72-1.68 1.68-2.4 2.88s-1.08 2.44-1.08 3.72zM42.6 66.51H.6V38.37h4.86l.72.72c-1.24 2.08-1.86 5.38-1.86 9.9v8.22H19.2v-14.7l.54-.48h3.24v15.18h15.9v-8.82c0-2-.16-3.82-.48-5.46-.32-1.68-.64-2.84-.96-3.48l-.42-.96.72-.72h4.86v28.74zM3.12 17.46c0 1.84.42 3.24 1.26 4.2.84.96 2 1.44 3.48 1.44s2.78-.6 3.9-1.8c1.12-1.24 3.18-4.1 6.18-8.58 1.6-2.36 2.78-4.06 3.54-5.1a52.4 52.4 0 012.7-3.48c1-1.24 1.86-2.08 2.58-2.52.68-.44 1.48-.82 2.4-1.14C30.04.16 31.02 0 32.1 0c7.4 0 11.1 5.3 11.1 15.9 0 2.2-.16 4.26-.48 6.18-.32 1.88-.7 3.42-1.14 4.62-.48 1.16-.94 2.16-1.38 3-.48.84-.88 1.44-1.2 1.8l-.48.54c-1.08 0-2.12-.16-3.12-.48-1.04-.32-1.9-.7-2.58-1.14-.72-.44-1.36-.88-1.92-1.32-.56-.44-.98-.82-1.26-1.14l-.36-.48v-.96c.28-.12.68-.28 1.2-.48.48-.24 1.34-.74 2.58-1.5s2.34-1.56 3.3-2.4c.92-.84 1.78-1.92 2.58-3.24.76-1.36 1.14-2.72 1.14-4.08 0-1.92-.48-3.48-1.44-4.68-.96-1.2-2.18-1.8-3.66-1.8-1.6 0-3.04.76-4.32 2.28-1.28 1.52-3.04 4.16-5.28 7.92-.2.36-.36.64-.48.84-1.72 2.96-3.16 5.2-4.32 6.72a15.43 15.43 0 01-4.08 3.66c-1.56.92-3.36 1.38-5.4 1.38-3.6 0-6.34-1.28-8.22-3.84C.96 24.7 0 20.86 0 15.78c0-2.92.32-5.54.96-7.86.6-2.36 1.2-3.98 1.8-4.86l.96-1.32c1.72 0 3.36.38 4.92 1.14 1.56.76 2.68 1.52 3.36 2.28l1.08 1.14v.9c-.28.08-.64.22-1.08.42-.44.16-1.22.56-2.34 1.2a20.33 20.33 0 00-3.06 2.04c-.88.72-1.68 1.68-2.4 2.88s-1.08 2.44-1.08 3.72z" fill="#fff"/></svg>