<svg width="574" height="48" fill="none" xmlns="http://www.w3.org/2000/svg"><path d="M6.534 40.986C2.178 36.586 0 30.844 0 23.76S2.178 10.956 6.534 6.6C10.934 2.2 16.676 0 23.76 0c7.04 0 12.738 2.2 17.094 6.6 4.4 4.356 6.6 10.076 6.6 17.16s-2.2 12.826-6.6 17.226C36.498 45.342 30.8 47.52 23.76 47.52c-7.084 0-12.826-2.178-17.226-6.534zm8.184-32.274c-2.2 3.476-3.3 8.492-3.3 15.048 0 6.556 1.1 11.594 3.3 15.114 2.244 3.476 5.258 5.214 9.042 5.214s6.776-1.738 8.976-5.214c2.244-3.52 3.366-8.558 3.366-15.114 0-6.556-1.122-11.572-3.366-15.048-2.2-3.52-5.192-5.28-8.976-5.28-3.784 0-6.798 1.76-9.042 5.28zM55.542 46.86V19.14c0-3.52-.154-6.754-.462-9.702-.264-2.948-.55-5.016-.858-6.204l-.462-1.782.792-.792h3.498l30.69 30.162V.66h5.082v46.2h-3.036l-30.69-30.228V46.86h-4.554zm48.404 0V.66h10.23v42.108h7.92c2.2 0 4.202-.176 6.006-.528 1.848-.352 3.124-.704 3.828-1.056l1.056-.462.792.792v5.346h-29.832zm36.803 0V.66h10.23v46.2h-10.23zm20.303 0V19.14c0-3.52-.154-6.754-.462-9.702-.264-2.948-.55-5.016-.858-6.204l-.462-1.782.792-.792h3.498l30.69 30.162V.66h5.082v46.2h-3.036l-30.69-30.228V46.86h-4.554zm48.404 0V.66h30.954v5.346l-.792.792c-2.288-1.364-5.918-2.046-10.89-2.046h-9.042V21.12h16.17l.528.594v3.564h-16.698v17.49h9.702c2.2 0 4.202-.176 6.006-.528 1.848-.352 3.124-.704 3.828-1.056l1.056-.462.792.792v5.346h-31.614zm76.892-43.428c-3.828 0-6.886 1.694-9.174 5.082-2.288 3.388-3.432 8.118-3.432 14.19 0 12.584 5.06 18.876 15.18 18.876 2.552 0 4.994-.374 7.326-1.122 2.332-.792 4.048-1.584 5.148-2.376l1.584-1.188 1.65 1.65c-.132.264-.352.594-.66.99-.264.396-.924 1.122-1.98 2.178a19.993 19.993 0 01-3.564 2.706c-1.276.792-3.036 1.518-5.28 2.178-2.2.616-4.576.924-7.128.924-7.084 0-12.804-2.2-17.16-6.6-4.356-4.4-6.534-10.142-6.534-17.226s2.178-12.804 6.534-17.16C273.258 2.178 279.132 0 286.48 0c5.588 0 10.01 1.232 13.266 3.696 3.3 2.464 4.95 5.676 4.95 9.636 0 .836-.088 1.606-.264 2.31-.176.66-.352 1.122-.528 1.386l-.198.396c-2.244.528-5.258.792-9.042.792l-.792-.792c.528-.968.792-2.574.792-4.818 0-2.992-.748-5.258-2.244-6.798-1.452-1.584-3.476-2.376-6.072-2.376zm30.592 37.554c-4.356-4.4-6.534-10.142-6.534-17.226s2.178-12.804 6.534-17.16c4.4-4.4 10.142-6.6 17.226-6.6 7.04 0 12.738 2.2 17.094 6.6 4.4 4.356 6.6 10.076 6.6 17.16s-2.2 12.826-6.6 17.226c-4.356 4.356-10.054 6.534-17.094 6.534-7.084 0-12.826-2.178-17.226-6.534zm8.184-32.274c-2.2 3.476-3.3 8.492-3.3 15.048 0 6.556 1.1 11.594 3.3 15.114 2.244 3.476 5.258 5.214 9.042 5.214s6.776-1.738 8.976-5.214c2.244-3.52 3.366-8.558 3.366-15.114 0-6.556-1.122-11.572-3.366-15.048-2.2-3.52-5.192-5.28-8.976-5.28-3.784 0-6.798 1.76-9.042 5.28zm74.154 21.45V.66h4.62v29.37c0 5.28-1.694 9.526-5.082 12.738-3.388 3.168-8.074 4.752-14.058 4.752-5.94 0-10.604-1.584-13.992-4.752-3.344-3.212-5.016-7.458-5.016-12.738V.66h10.23v30.954c0 3.52 1.034 6.336 3.102 8.448 2.112 2.112 4.862 3.168 8.25 3.168 3.608 0 6.49-1.166 8.646-3.498 2.2-2.376 3.3-5.566 3.3-9.57zm14.559 16.698V.66h16.698c5.764 0 10.296 1.144 13.596 3.432 3.344 2.288 5.016 5.478 5.016 9.57 0 2.86-.836 5.302-2.508 7.326-1.672 2.024-4.048 3.52-7.128 4.488l5.214 9.702a76.362 76.362 0 003.63 6.072c1.276 1.848 2.244 3.146 2.904 3.894l.924 1.188-.462.528h-11.154l-10.824-20.196h-5.676V46.86h-10.23zm15.114-42.042h-4.884v17.754h4.884c2.992 0 5.324-.77 6.996-2.31 1.672-1.54 2.508-3.74 2.508-6.6 0-2.86-.836-5.038-2.508-6.534-1.672-1.54-4.004-2.31-6.996-2.31zm43.676-1.386c-2.024 0-3.564.462-4.62 1.386-1.056.924-1.584 2.2-1.584 3.828 0 1.628.66 3.058 1.98 4.29 1.364 1.232 4.51 3.498 9.438 6.798 2.596 1.76 4.466 3.058 5.61 3.894a57.642 57.642 0 013.828 2.97c1.364 1.1 2.288 2.046 2.772 2.838.484.748.902 1.628 1.254 2.64.352.968.528 2.046.528 3.234 0 8.14-5.83 12.21-17.49 12.21-2.42 0-4.686-.176-6.798-.528-2.068-.352-3.762-.77-5.082-1.254a40.874 40.874 0 01-3.3-1.518c-.924-.528-1.584-.968-1.98-1.32l-.594-.528c0-1.188.176-2.332.528-3.432.352-1.144.77-2.09 1.254-2.838a21.94 21.94 0 011.452-2.112c.484-.616.902-1.078 1.254-1.386l.528-.396h1.056c.132.308.308.748.528 1.32.264.528.814 1.474 1.65 2.838a26.633 26.633 0 002.64 3.63c.924 1.012 2.112 1.958 3.564 2.838 1.496.836 2.992 1.254 4.488 1.254 2.112 0 3.828-.528 5.148-1.584 1.32-1.056 1.98-2.398 1.98-4.026 0-1.76-.836-3.344-2.508-4.752-1.672-1.408-4.576-3.344-8.712-5.808-.396-.22-.704-.396-.924-.528-3.256-1.892-5.72-3.476-7.392-4.752a16.973 16.973 0 01-4.026-4.488c-1.012-1.716-1.518-3.696-1.518-5.94 0-3.96 1.408-6.974 4.224-9.042C464.663 1.056 468.887 0 474.475 0c3.212 0 6.094.352 8.646 1.056 2.596.66 4.378 1.32 5.346 1.98l1.452 1.056c0 1.892-.418 3.696-1.254 5.412-.836 1.716-1.672 2.948-2.508 3.696l-1.254 1.188h-.99a9.013 9.013 0 00-.462-1.188c-.176-.484-.616-1.342-1.32-2.574-.704-1.276-1.452-2.398-2.244-3.366-.792-.968-1.848-1.848-3.168-2.64s-2.684-1.188-4.092-1.188zM500.14 46.86V.66h30.954v5.346l-.792.792c-2.288-1.364-5.918-2.046-10.89-2.046h-9.042V21.12h16.17l.528.594v3.564H510.37v17.49h9.702c2.2 0 4.202-.176 6.006-.528 1.848-.352 3.124-.704 3.828-1.056l1.056-.462.792.792v5.346H500.14zm53.956-43.428c-2.024 0-3.564.462-4.62 1.386-1.056.924-1.584 2.2-1.584 3.828 0 1.628.66 3.058 1.98 4.29 1.364 1.232 4.51 3.498 9.438 6.798 2.596 1.76 4.466 3.058 5.61 3.894a57.642 57.642 0 013.828 2.97c1.364 1.1 2.288 2.046 2.772 2.838.484.748.902 1.628 1.254 2.64.352.968.528 2.046.528 3.234 0 8.14-5.83 12.21-17.49 12.21-2.42 0-4.686-.176-6.798-.528-2.068-.352-3.762-.77-5.082-1.254a40.874 40.874 0 01-3.3-1.518c-.924-.528-1.584-.968-1.98-1.32l-.594-.528c0-1.188.176-2.332.528-3.432.352-1.144.77-2.09 1.254-2.838a21.94 21.94 0 011.452-2.112c.484-.616.902-1.078 1.254-1.386l.528-.396h1.056c.132.308.308.748.528 1.32.264.528.814 1.474 1.65 2.838a26.633 26.633 0 002.64 3.63c.924 1.012 2.112 1.958 3.564 2.838 1.496.836 2.992 1.254 4.488 1.254 2.112 0 3.828-.528 5.148-1.584 1.32-1.056 1.98-2.398 1.98-4.026 0-1.76-.836-3.344-2.508-4.752-1.672-1.408-4.576-3.344-8.712-5.808-.396-.22-.704-.396-.924-.528-3.256-1.892-5.72-3.476-7.392-4.752a16.973 16.973 0 01-4.026-4.488c-1.012-1.716-1.518-3.696-1.518-5.94 0-3.96 1.408-6.974 4.224-9.042C546.132 1.056 550.356 0 555.944 0c3.212 0 6.094.352 8.646 1.056 2.596.66 4.378 1.32 5.346 1.98l1.452 1.056c0 1.892-.418 3.696-1.254 5.412-.836 1.716-1.672 2.948-2.508 3.696l-1.254 1.188h-.99a9.013 9.013 0 00-.462-1.188c-.176-.484-.616-1.342-1.32-2.574-.704-1.276-1.452-2.398-2.244-3.366-.792-.968-1.848-1.848-3.168-2.64s-2.684-1.188-4.092-1.188z" fill="#fff"/></svg>