<svg width="62" height="62" fill="none" xmlns="http://www.w3.org/2000/svg"><path d="M13 19.333v-1.25h-1.25v1.25H13zm47.333 0h1.25v-1.25h-1.25v1.25zm0 40.667v1.25h1.25V60h-1.25zM13 60h-1.25v1.25H13V60zM27 4l.976-.78-.375-.47H27V4zm3 3.749l.975-.78-.976.78zm23 37.584h1.25v-.593l-.46-.376-.79.97zm0 7.334v1.25h1.25v-1.25H53zm-33.333 0h-1.25v1.25h1.25v-1.25zm0-7.334l-.7-1.035-.55.372v.663h1.25zM31 37.667l.836-.93-.726-.654-.81.548.7 1.036zm6.667 6l-.837.929.723.65.809-.54-.695-1.04zM13 20.583h47.333v-2.5H13v2.5zm46.083-1.25V60h2.5V19.333h-2.5zm1.25 39.417H13v2.5h47.333v-2.5zM14.25 60V19.333h-2.5V60h2.5zm-12-18.667v-34h-2.5v34h2.5zM4.333 5.25H27v-2.5H4.333v2.5zm21.69-.47l3 3.75 1.952-1.562-2.999-3.749-1.952 1.562zm6.58 5.47H49v-2.5H32.602v2.5zM51.75 13v6.333h2.5V13h-2.5zM13 43.417H4.333v2.5H13v-2.5zM29.023 8.53a4.583 4.583 0 003.58 1.72v-2.5a2.083 2.083 0 01-1.628-.782L29.023 8.53zM-.25 41.333a4.583 4.583 0 004.583 4.584v-2.5a2.083 2.083 0 01-2.083-2.084h-2.5zM49 10.25A2.75 2.75 0 0151.75 13h2.5c0-2.9-2.35-5.25-5.25-5.25v2.5zM2.25 7.333c0-1.15.933-2.083 2.083-2.083v-2.5A4.583 4.583 0 00-.25 7.333h2.5zm26.167 23.334a4.083 4.083 0 01-4.084 4.083v2.5a6.583 6.583 0 006.584-6.583h-2.5zm-4.084 4.083a4.083 4.083 0 01-4.083-4.083h-2.5a6.583 6.583 0 006.583 6.583v-2.5zm-4.083-4.083a4.083 4.083 0 014.083-4.084v-2.5a6.583 6.583 0 00-6.583 6.584h2.5zm4.083-4.084a4.083 4.083 0 014.084 4.084h2.5a6.583 6.583 0 00-6.584-6.584v2.5zm13.25-17.25v-3h-2.5v3h2.5zm3.084-6.083a3.083 3.083 0 013.083 3.083h2.5c0-3.083-2.5-5.583-5.583-5.583v2.5zm0-2.5a5.583 5.583 0 00-5.584 5.583h2.5a3.083 3.083 0 013.084-3.083V.75zM33.083 15v7.667h2.5V15h-2.5zm6.584 14.25a6.583 6.583 0 006.583-6.583h-2.5a4.083 4.083 0 01-4.083 4.083v2.5zm0-2.5a4.083 4.083 0 01-4.084-4.083h-2.5a6.583 6.583 0 006.584 6.583v-2.5zM51.75 45.333v7.334h2.5v-7.334h-2.5zM53 51.417H19.667v2.5H53v-2.5zm-32.083 1.25v-7.334h-2.5v7.334h2.5zm-.55-6.298L31.7 38.702l-1.4-2.07-11.334 7.666 1.401 2.07zm9.797-7.773l6.666 6 1.673-1.858-6.667-6-1.672 1.858zm8.198 6.11c2.715-1.816 4.644-2.51 6.544-2.32 1.948.193 4.14 1.337 7.304 3.916l1.58-1.938c-3.238-2.638-5.917-4.196-8.637-4.466-2.77-.276-5.306.807-8.181 2.73l1.39 2.078zM43.75 6.333v16.334h2.5V6.333h-2.5z" fill="#EB5F43"/></svg>