<svg width="48" height="64" fill="none" xmlns="http://www.w3.org/2000/svg"><path d="M2.43 53.543l1.077.634-1.077-.634zm.728 1.044l.229 1.229-.229-1.229zm7.35-1.365l-.227-1.229.228 1.23zm.78.438l1.167-.448-1.167.447zm2.758 7.19l-1.167.448 1.167-.447zm1.257.1l-1.083-.624 1.083.624zm30.267-6.707l-1.077.634 1.077-.634zm-.728 1.044l-.229 1.23.229-1.23zm-7.35-1.364l.227-1.23-.228 1.23zm-.78.437l-1.167-.448 1.167.448zm-2.759 7.191l1.168.448-1.168-.448zm-1.256.099l1.083-.624-1.083.624zM23.65 13.204l1.189-.386a1.25 1.25 0 00-2.378 0l1.189.386zm2.509 7.741l-1.19.386a1.25 1.25 0 001.19.864v-1.25zm8.119 0l.735 1.01a1.25 1.25 0 00-.736-2.26v1.25zM27.71 25.73l-.736-1.01a1.25 1.25 0 00-.453 1.395l1.19-.385zm2.509 7.741l-.736 1.01a1.25 1.25 0 001.925-1.395l-1.189.385zm-6.568-4.784l.736-1.01a1.25 1.25 0 00-1.472 0l.736 1.01zm-6.569 4.784l-1.189-.385a1.25 1.25 0 001.925 1.395l-.736-1.01zm2.51-7.741l1.189.385a1.25 1.25 0 00-.454-1.396l-.736 1.01zm-6.569-4.785v-1.25a1.25 1.25 0 00-.736 2.26l.736-1.01zm8.119 0v1.25a1.25 1.25 0 001.189-.864l-1.19-.386zm18.72 3.112c0 8.787-7.105 15.906-15.862 15.906v2.5c10.144 0 18.361-8.244 18.361-18.406h-2.5zM24 39.963c-8.757 0-15.861-7.119-15.861-15.906h-2.5c0 10.162 8.217 18.406 18.361 18.406v-2.5zM8.139 24.057C8.139 15.27 15.243 8.152 24 8.152v-2.5c-10.144 0-18.361 8.243-18.361 18.405h2.5zM24 8.152c8.757 0 15.861 7.118 15.861 15.905h2.5c0-10.162-8.217-18.405-18.361-18.405v2.5zm20.75 15.905c0 11.495-9.293 20.807-20.75 20.807v2.5c12.844 0 23.25-10.438 23.25-23.307h-2.5zM24 44.864c-11.457 0-20.75-9.312-20.75-20.807H.75c0 12.87 10.406 23.307 23.25 23.307v-2.5zM3.25 24.057C3.25 12.563 12.543 3.25 24 3.25V.75C11.156.75.75 11.188.75 24.057h2.5zM24 3.25c11.457 0 20.75 9.313 20.75 20.807h2.5C47.25 11.188 36.844.75 24 .75v2.5zM8.605 40.579l-7.253 12.33 2.155 1.268 7.253-12.33-2.155-1.268zM3.387 55.816l7.35-1.365-.457-2.458-7.35 1.365.457 2.458zm6.734-1.709l2.758 7.191 2.335-.895-2.76-7.191-2.333.895zm6.265 7.467l8.348-14.486-2.166-1.248-8.348 14.486 2.166 1.248zm-3.507-.276c.588 1.531 2.687 1.698 3.507.276l-2.166-1.248a.552.552 0 01.993.077l-2.334.895zm-2.142-6.847a.552.552 0 01-.616-.344l2.334-.895a1.948 1.948 0 00-2.175-1.219l.457 2.458zM1.352 52.91c-.843 1.434.384 3.214 2.035 2.907l-.457-2.458a.55.55 0 01.577.819L1.352 52.91zM37.24 42.547l7.253 12.33 2.155-1.268-7.253-12.33-2.155 1.268zm7.83 11.511l-7.35-1.364-.457 2.458 7.35 1.364.457-2.458zm-9.525-.146l-2.759 7.191 2.335.896 2.758-7.192-2.334-.895zm-1.765 7.114L25.432 46.54l-2.166 1.249 8.348 14.485 2.166-1.248zm-.994.077a.552.552 0 01.994-.077l-2.166 1.248c.82 1.423 2.92 1.255 3.507-.275l-2.335-.896zm4.933-8.41a1.948 1.948 0 00-2.174 1.219l2.334.895a.552.552 0 01-.616.345l.456-2.458zm6.774 2.184a.55.55 0 01.577-.819l-.457 2.458c1.651.307 2.878-1.472 2.035-2.907l-2.155 1.268zM22.462 13.589l2.509 7.742 2.378-.771-2.51-7.742-2.377.771zm3.698 8.606h8.119v-2.5h-8.12v2.5zm7.382-2.26l-6.568 4.784 1.472 2.021 6.568-4.784-1.472-2.021zm-7.02 6.18l2.508 7.741 2.378-.77-2.509-7.742-2.378.771zm4.433 6.346l-6.568-4.785-1.472 2.02 6.568 4.785 1.472-2.02zm-8.04-4.785l-6.569 4.785 1.473 2.02 6.568-4.784-1.472-2.02zm-4.643 6.18l2.509-7.741-2.379-.77-2.509 7.74 2.379.771zm2.055-9.137l-6.568-4.784-1.472 2.02 6.568 4.785 1.472-2.02zm-7.304-2.524h8.119v-2.5h-8.119v2.5zm9.308-.864l2.509-7.742-2.378-.77-2.51 7.74 2.379.771z" fill="#EB5F43"/></svg>