<svg width="62" height="64" fill="none" xmlns="http://www.w3.org/2000/svg"><path d="M2 36.286H.75v.413l.247.332L2 36.286zm8.092-7.366l.855-.912-.855.912zm20.713 9.703h1.25v-.543l-.398-.371-.852.914zM14.882 23.79l.852-.915-.852.915zM30.805 62v1.25h1.25V62h-1.25zM13.29 62h-1.25v1.25h1.25V62zm0-10.52h1.25v-.413l-.247-.332-1.003.745zm-3.28-27.603l-.884-.883.884.883zM60 36.286l1.003.745.247-.332v-.413H60zm-8.092-7.366l-.855-.912.855.912zm-20.713 9.703l-.852-.914-.398.37v.544h1.25zM47.118 23.79l-.852-.915.852.915zM31.195 62h-1.25v1.25h1.25V62zm17.516 0v1.25h1.25V62h-1.25zm0-10.52l-1.003-.745-.247.332v.413h1.25zm3.278-27.604l.884-.883-.884.883zM7.757 5.506v7.014h2.5V5.506h-2.5zm0 7.014v13.434h2.5V12.52h-2.5zm0 13.434v.202h2.5v-.202h-2.5zM3.25 36.286V5.506H.75v30.78h2.5zM5.503 3.25a2.255 2.255 0 012.254 2.256h2.5A4.755 4.755 0 005.503.75v2.5zm0-2.5A4.755 4.755 0 00.75 5.506h2.5A2.255 2.255 0 015.503 3.25V.75zm3.733 29.081l14.486 13.6 1.71-1.823-14.485-13.6-1.711 1.823zm22.421 7.878L15.734 22.874l-1.704 1.83 15.923 14.834 1.704-1.83zm-2.102.914V62h2.5V38.623h-2.5zm1.25 22.127H13.29v2.5h17.516v-2.5zM14.54 62V51.48h-2.5V62h2.5zm-.247-11.265L3.003 35.54.997 37.031l11.288 15.195 2.007-1.491zM9.127 22.993a4.746 4.746 0 00-1.362 2.818l2.484.286c.056-.489.27-.96.646-1.338l-1.768-1.766zM7.765 25.81a4.757 4.757 0 001.471 4.02l1.711-1.822a2.257 2.257 0 01-.698-1.912l-2.484-.286zm3.13-1.052a2.256 2.256 0 013.135-.056l1.704-1.829a4.756 4.756 0 00-6.607.119l1.768 1.767zm3.868-12.24v12.078h2.5V12.52h-2.5zm-2.253-2.256a2.255 2.255 0 012.253 2.257h2.5a4.755 4.755 0 00-4.753-4.757v2.5zm0-2.5a4.755 4.755 0 00-4.753 4.757h2.5a2.255 2.255 0 012.253-2.257v-2.5zm.779 48.864h17.906v-2.5H13.289v2.5zm38.454-51.12v7.013h2.5V5.506h-2.5zm0 7.013v13.434h2.5V12.52h-2.5zm0 13.434v.202h2.5v-.202h-2.5zm9.507 10.332V5.506h-2.5v30.78h2.5zM56.497.75a4.755 4.755 0 00-4.754 4.756h2.5a2.255 2.255 0 012.254-2.256V.75zm0 2.5a2.255 2.255 0 012.253 2.256h2.5A4.755 4.755 0 0056.497.75v2.5zm-5.444 24.759l-14.486 13.6 1.711 1.822 14.486-13.6-1.711-1.822zM32.047 39.538L47.97 24.703l-1.704-1.829L30.343 37.71l1.704 1.829zm-2.102-.915V62h2.5V38.623h-2.5zm1.25 24.627H48.71v-2.5H31.195v2.5zM49.96 62V51.48h-2.5V62h2.5zm-.246-9.774L61.003 37.03l-2.006-1.49-11.289 15.194 2.007 1.49zm1.39-27.466c.376.376.59.848.647 1.337l2.483-.286a4.746 4.746 0 00-1.362-2.818l-1.768 1.767zm.647 1.337a2.257 2.257 0 01-.7 1.912l1.712 1.822a4.757 4.757 0 001.471-4.02l-2.483.286zm1.121-3.104a4.756 4.756 0 00-6.607-.119l1.704 1.83a2.256 2.256 0 013.135.055l1.768-1.766zM44.737 12.52v12.077h2.5V12.52h-2.5zm4.753-4.757a4.755 4.755 0 00-4.753 4.757h2.5a2.255 2.255 0 012.253-2.257v-2.5zm0 2.5a2.255 2.255 0 012.253 2.257h2.5a4.755 4.755 0 00-4.753-4.757v2.5zm-.779 43.864H30.805v2.5h17.906v-2.5zm-14.484-39.66a3.423 3.423 0 01-3.422 3.426v2.5a5.923 5.923 0 005.922-5.926h-2.5zm-3.422 3.426a3.423 3.423 0 01-3.42-3.426h-2.5a5.923 5.923 0 005.92 5.926v-2.5zm-3.42-3.426a3.423 3.423 0 013.42-3.425v-2.5a5.923 5.923 0 00-5.92 5.925h2.5zm3.42-3.425a3.423 3.423 0 013.422 3.425h2.5a5.923 5.923 0 00-5.922-5.925v2.5zm-.778 9.35h1.557v-2.5h-1.557v2.5zm8.092 6.543v3.896h2.5v-3.896h-2.5zm-14.627 3.896v-3.896h-2.5v3.896h2.5zm8.092-10.438a6.539 6.539 0 016.535 6.542h2.5c0-4.993-4.044-9.042-9.035-9.042v2.5zm-1.557-2.5c-4.991 0-9.035 4.05-9.035 9.042h2.5a6.539 6.539 0 016.535-6.542v-2.5z" fill="#EB5F43"/></svg>