<svg width="225" height="205" viewBox="0 0 225 205" fill="none" xmlns="http://www.w3.org/2000/svg">
<path d="M26.3576 155.147C22.7025 155.147 19.7431 153.968 17.4793 151.61C15.2155 149.252 14.0836 146.186 14.0836 142.413C14.0836 138.616 15.2155 135.539 17.4793 133.181C19.7431 130.823 22.7025 129.644 26.3576 129.644C30.0127 129.644 32.9722 130.823 35.236 133.181C37.5234 135.539 38.667 138.616 38.667 142.413C38.667 145.479 37.9007 148.096 36.3679 150.266C34.8351 152.435 32.7599 153.897 30.1424 154.652C30.7791 154.864 31.5927 155.194 32.5831 155.642C33.5971 156.09 34.505 156.444 35.3067 156.703C36.1321 156.963 36.9692 157.092 37.8181 157.092C38.2897 157.092 38.7024 157.045 39.0561 156.951C39.4099 156.88 39.6457 156.809 39.7636 156.739L39.9404 156.597L40.188 156.845C40.188 157.316 40.1527 157.764 40.0819 158.189C40.0112 158.637 39.9404 158.955 39.8697 159.144L39.7636 159.462C39.4099 159.698 38.7967 159.816 37.9242 159.816C36.8867 159.816 35.8255 159.568 34.7408 159.073C33.656 158.602 32.7246 158.071 31.9464 157.482C31.1918 156.892 30.3075 156.35 29.2935 155.854C28.2795 155.383 27.3009 155.147 26.3576 155.147ZM17.55 142.413C17.55 145.95 18.3518 148.745 19.9553 150.796C21.5588 152.824 23.6929 153.838 26.3576 153.838C29.0223 153.838 31.1564 152.824 32.7599 150.796C34.3635 148.745 35.1652 145.95 35.1652 142.413C35.1652 138.852 34.3635 136.058 32.7599 134.03C31.1564 131.978 29.0223 130.953 26.3576 130.953C23.6929 130.953 21.5588 131.978 19.9553 134.03C18.3518 136.058 17.55 138.852 17.55 142.413Z" fill="white"/>
<path d="M62.4439 145.667V129.927H64.071V145.597C64.071 148.356 63.1631 150.608 61.3474 152.353C59.5552 154.098 57.1617 154.97 54.1669 154.97C51.1956 154.97 48.8139 154.098 47.0217 152.353C45.2531 150.608 44.3688 148.356 44.3688 145.597V129.927H47.5523V146.056C47.5523 148.226 48.2244 149.994 49.5685 151.362C50.9126 152.73 52.6812 153.414 54.8743 153.414C57.1381 153.414 58.9657 152.706 60.3569 151.291C61.7482 149.853 62.4439 147.978 62.4439 145.667Z" fill="white"/>
<path d="M72.3721 147.436L69.3301 154.687H67.5261L77.5717 130.953L77.1473 130.245V129.927H80.6137L91.1899 154.687H87.9003L84.823 147.436H72.3721ZM80.0124 136.081C79.305 134.502 78.798 133.405 78.4914 132.792L72.9734 145.986H84.1863L80.0124 136.081Z" fill="white"/>
<path d="M95.8436 154.687V129.927H98.9917V153.237H104.97C106.196 153.237 107.292 153.19 108.259 153.095C109.226 152.977 109.886 152.86 110.24 152.742L110.806 152.565L111.124 152.848V154.687H95.8436Z" fill="white"/>
<path d="M116.155 154.687V129.927H119.303V154.687H116.155Z" fill="white"/>
<path d="M136.597 131.377V154.687H133.449V131.377H130.372C129.145 131.377 128.037 131.436 127.047 131.554C126.08 131.648 125.419 131.754 125.066 131.872L124.535 132.049L124.217 131.766V129.927H145.864V131.766L145.546 132.049C144.391 131.601 142.445 131.377 139.71 131.377H136.597Z" fill="white"/>
<path d="M169.514 129.927L160.529 143.51V154.687H157.381V143.651L153.278 137.461C152.406 136.14 151.533 134.879 150.661 133.676C149.812 132.474 149.175 131.601 148.751 131.059L148.078 130.245V129.927H151.969L159.751 141.493L167.533 129.927H169.514Z" fill="white"/>
<path d="M182.684 154.687V129.927H185.833V154.687H182.684Z" fill="white"/>
<path d="M200.332 130.953C198.682 130.953 197.444 131.294 196.618 131.978C195.816 132.662 195.416 133.605 195.416 134.808C195.416 135.916 195.816 136.824 196.618 137.532C197.444 138.216 199.271 139.359 202.101 140.963C203.303 141.67 204.117 142.154 204.541 142.413C204.99 142.672 205.591 143.062 206.345 143.58C207.124 144.076 207.631 144.465 207.866 144.748C208.102 145.007 208.385 145.361 208.715 145.809C209.069 146.257 209.293 146.693 209.387 147.118C209.482 147.542 209.529 148.037 209.529 148.603C209.529 150.608 208.798 152.176 207.336 153.308C205.874 154.416 203.693 154.97 200.792 154.97C199.613 154.97 198.516 154.876 197.502 154.687C196.488 154.498 195.663 154.274 195.026 154.015C194.413 153.756 193.871 153.496 193.399 153.237C192.951 152.977 192.633 152.753 192.444 152.565L192.161 152.282C192.161 151.692 192.291 151.138 192.55 150.619C192.81 150.077 193.057 149.688 193.293 149.452L193.682 149.098H194.107C194.178 149.216 194.272 149.381 194.39 149.594C194.508 149.806 194.791 150.171 195.239 150.69C195.687 151.209 196.158 151.669 196.654 152.07C197.172 152.47 197.833 152.836 198.634 153.166C199.436 153.496 200.273 153.661 201.146 153.661C202.773 153.661 204.093 153.296 205.107 152.565C206.145 151.81 206.664 150.808 206.664 149.558C206.664 148.921 206.511 148.344 206.204 147.825C205.921 147.283 205.485 146.787 204.895 146.339C204.329 145.891 203.693 145.467 202.985 145.066C202.278 144.665 201.441 144.205 200.474 143.686C200.191 143.545 199.979 143.439 199.837 143.368C197.125 141.977 195.25 140.786 194.213 139.796C193.175 138.782 192.657 137.437 192.657 135.763C192.657 133.782 193.352 132.273 194.743 131.236C196.135 130.174 198.163 129.644 200.827 129.644C202.431 129.644 203.858 129.832 205.107 130.21C206.381 130.563 207.253 130.917 207.725 131.271L208.432 131.837C208.432 132.45 208.303 133.028 208.043 133.57C207.784 134.112 207.536 134.502 207.3 134.737L206.911 135.091H206.522C206.475 134.973 206.404 134.82 206.31 134.631C206.216 134.443 205.992 134.112 205.638 133.641C205.284 133.169 204.883 132.757 204.435 132.403C204.011 132.026 203.433 131.695 202.702 131.412C201.971 131.106 201.181 130.953 200.332 130.953Z" fill="white"/>
<path d="M0 203.815V179.054H16.5894V181.92L16.165 182.344C14.9387 181.613 12.9933 181.248 10.3286 181.248H5.48265V190.02H14.1488L14.4317 190.338V192.248H5.48265V201.622H10.6823C11.8614 201.622 12.9343 201.527 13.9012 201.339C14.8916 201.15 15.5754 200.961 15.9527 200.773L16.5187 200.525L16.9432 200.95V203.815H0Z" fill="white"/>
<path d="M29.3062 203.072L22.0903 185.315C21.5951 184.136 21.0999 183.063 20.6047 182.096C20.1331 181.106 19.7794 180.422 19.5435 180.045L19.1898 179.479V179.054H25.4507L33.3386 198.58L40.7313 179.054H43.455L33.9399 203.815H30.049L29.3062 203.072Z" fill="white"/>
<path d="M46.702 203.815V179.054H63.2914V181.92L62.867 182.344C61.6407 181.613 59.6953 181.248 57.0306 181.248H52.1846V190.02H60.8508L61.1337 190.338V192.248H52.1846V201.622H57.3843C58.5634 201.622 59.6363 201.527 60.6032 201.339C61.5936 201.15 62.2774 200.961 62.6547 200.773L63.2207 200.525L63.6451 200.95V203.815H46.702Z" fill="white"/>
<path d="M68.0495 203.815V179.054H76.9986C80.0877 179.054 82.5166 179.668 84.2852 180.894C86.0774 182.12 86.9735 183.83 86.9735 186.023C86.9735 187.556 86.5254 188.864 85.6294 189.949C84.7333 191.034 83.4599 191.836 81.8092 192.354L84.6036 197.554C85.2403 198.733 85.8887 199.818 86.549 200.808C87.2329 201.799 87.7517 202.494 88.1054 202.895L88.6006 203.532L88.353 203.815H82.3751L76.5741 192.991H73.5322V203.815H68.0495ZM76.1497 181.283H73.5322V190.798H76.1497C77.7532 190.798 79.003 190.385 79.8991 189.56C80.7952 188.735 81.2432 187.556 81.2432 186.023C81.2432 184.49 80.7952 183.323 79.8991 182.521C79.003 181.696 77.7532 181.283 76.1497 181.283Z" fill="white"/>
<path d="M111.336 179.054L102.882 192.39V203.815H97.3991V192.743L93.5082 186.553C92.6828 185.256 91.8339 184.03 90.9614 182.875C90.1125 181.696 89.464 180.847 89.0159 180.328L88.3439 179.514V179.054H95.0999L101.75 189.312L108.329 179.054H111.336Z" fill="white"/>
<path d="M126.816 181.248V203.815H121.333V181.248H119.14C117.961 181.248 116.876 181.342 115.886 181.53C114.919 181.719 114.247 181.908 113.87 182.096L113.304 182.344L112.879 181.92V179.054H135.27V181.92L134.845 182.344C133.619 181.613 131.674 181.248 129.009 181.248H126.816Z" fill="white"/>
<path d="M155.662 203.815V192.248H144.414V203.815H138.932V179.054H144.414V190.02H155.662V179.054H161.145V203.815H155.662Z" fill="white"/>
<path d="M166.6 203.815V179.054H172.083V203.815H166.6Z" fill="white"/>
<path d="M177.481 203.815V188.959C177.481 187.072 177.399 185.339 177.234 183.759C177.092 182.179 176.939 181.071 176.774 180.434L176.526 179.479L176.951 179.054H178.826L195.273 195.219V179.054H197.997V203.815H196.37L179.922 187.614V203.815H177.481Z" fill="white"/>
<path d="M216.794 193.769V191.859H219.482C220.449 191.859 221.345 191.824 222.17 191.753C223.019 191.682 223.62 191.611 223.974 191.541L224.54 191.435L225 191.859V200.384C224.929 200.478 224.811 200.62 224.646 200.808C224.481 200.973 224.116 201.28 223.55 201.728C222.984 202.152 222.359 202.53 221.675 202.86C220.991 203.19 220.072 203.496 218.916 203.779C217.784 204.039 216.581 204.169 215.308 204.169C211.346 204.169 208.187 203.001 205.828 200.667C203.494 198.332 202.327 195.243 202.327 191.399C202.327 187.579 203.494 184.514 205.828 182.203C208.187 179.868 211.382 178.701 215.414 178.701C218.338 178.701 220.661 179.314 222.382 180.54C224.104 181.743 224.965 183.382 224.965 185.457C224.965 185.928 224.917 186.341 224.823 186.695C224.752 187.049 224.682 187.284 224.611 187.402L224.469 187.614C223.243 187.897 221.616 188.039 219.588 188.039L219.128 187.614C219.458 187.143 219.623 186.306 219.623 185.103C219.623 182.061 218.185 180.54 215.308 180.54C213.186 180.54 211.512 181.448 210.285 183.264C209.059 185.056 208.446 187.579 208.446 190.833C208.446 194.253 209.118 196.882 210.462 198.721C211.83 200.561 213.787 201.48 216.334 201.48C217.513 201.48 218.739 201.256 220.013 200.808V198.085C220.013 196.811 219.883 195.479 219.623 194.088H217.077L216.794 193.769Z" fill="white"/>
<path fill-rule="evenodd" clip-rule="evenodd" d="M138.938 26.6802C136.545 28.7798 133.863 27.6825 133.863 27.6825C133.863 27.6825 133.202 24.814 135.586 22.7231C137.979 20.6235 142.518 20.0879 142.518 20.0879C142.518 20.0879 141.331 24.5807 138.938 26.6802ZM108.144 58.2944H107.652V52.0217H108.144C108.755 55.5036 110.537 57.2403 113.49 57.2403C114.508 57.2403 115.357 56.9638 116.036 56.4022C116.714 55.8406 117.054 55.1235 117.054 54.2422C117.054 53.2486 116.553 52.3759 115.56 51.5983C113.202 50.1986 111.267 48.9976 109.748 47.9867C108.229 46.9758 107.482 45.6366 107.482 43.9777C107.482 42.604 107.983 41.4548 109.001 40.5476C110.011 39.6231 111.258 39.1652 112.743 39.1652C113.711 39.1652 114.72 39.3985 115.781 39.8737C116.282 40.107 116.63 40.2193 116.833 40.2193C117.3 40.2193 117.597 39.865 117.75 39.1652H118.233V45.4984H117.75C117.487 43.6321 116.884 42.2843 115.951 41.4721C115.009 40.6513 113.948 40.2538 112.786 40.2538C111.912 40.2538 111.165 40.5303 110.537 41.0746C109.909 41.6103 109.595 42.2756 109.595 43.0532C109.595 43.563 109.807 44.0987 110.232 44.6689C110.656 45.2392 111.937 46.1118 114.076 47.2783C115.382 47.9954 116.375 48.5829 117.054 49.0408C117.724 49.4987 118.284 50.1036 118.743 50.838C119.192 51.5724 119.421 52.3673 119.421 53.2226C119.421 54.6828 118.878 55.8924 117.792 56.8601C116.706 57.8278 115.365 58.3117 113.779 58.3117C112.913 58.3117 111.844 58.0957 110.571 57.6723C109.79 57.4045 109.247 57.2748 108.95 57.2748C108.509 57.2576 108.246 57.5945 108.144 58.2944ZM114.449 33.5059C115.136 33.9293 115.815 34.2231 116.485 34.3699C117.156 34.5168 117.784 34.5427 118.369 34.439C118.955 34.3354 119.481 34.128 119.947 33.8083C120.414 33.4973 120.796 33.0912 121.093 32.5987C121.661 31.6569 121.882 30.7325 121.763 29.808C121.644 28.8921 121.348 27.9676 120.889 27.0518C120.431 26.1273 119.888 25.1855 119.269 24.2351C118.649 23.276 118.132 22.2997 117.724 21.2888C117.317 20.2779 117.096 19.2411 117.062 18.1784C117.028 17.107 117.376 15.9838 118.089 14.8001C118.505 14.1002 119.056 13.5214 119.744 13.0548C120.431 12.5882 121.195 12.2772 122.026 12.113C122.866 11.9489 123.74 11.9575 124.665 12.1303C125.59 12.3031 126.507 12.6746 127.406 13.2449C128.161 13.7201 128.789 14.2817 129.281 14.9383C129.773 15.595 130.147 16.2516 130.401 16.9169C130.656 17.5822 130.783 18.2043 130.783 18.7832C130.783 19.3707 130.681 19.8373 130.469 20.2002C130.13 20.7618 129.663 21.1247 129.069 21.2629C128.475 21.4098 127.898 21.3061 127.347 20.9605C126.795 20.6149 126.439 20.1397 126.303 19.5349C126.159 18.9301 126.261 18.3425 126.6 17.7809C126.939 17.2193 127.406 16.8564 128 16.7182C128.594 16.5713 129.171 16.675 129.723 17.0206C129.799 17.0638 129.867 17.1243 129.926 17.1848C129.986 17.2452 130.053 17.3144 130.113 17.3748C130.172 17.444 130.249 17.5131 130.325 17.5909C130.181 17.1156 129.977 16.6318 129.706 16.1566C129.476 15.7332 129.171 15.284 128.772 14.8174C128.382 14.3508 127.864 13.9188 127.236 13.53C126.608 13.1412 125.981 12.882 125.353 12.761C124.725 12.6401 124.139 12.6228 123.588 12.7092C123.045 12.7956 122.544 12.9857 122.086 13.2708C121.636 13.5559 121.28 13.9102 121.034 14.3249C120.465 15.2667 120.244 16.1912 120.363 17.1157C120.482 18.0315 120.779 18.956 121.237 19.8718C121.695 20.7963 122.238 21.7381 122.858 22.6885C123.477 23.6476 123.995 24.6239 124.402 25.6348C124.81 26.6457 125.03 27.6825 125.056 28.7625C125.081 29.8425 124.742 30.9657 124.037 32.1322C123.571 32.9011 122.985 33.5405 122.264 34.033C121.543 34.5341 120.754 34.8624 119.897 35.0179C119.039 35.1821 118.123 35.1648 117.156 34.9747C116.188 34.7846 115.221 34.3958 114.262 33.791C113.779 33.4886 113.354 33.169 112.972 32.8234C112.599 33.169 112.166 33.4886 111.683 33.791C110.724 34.3872 109.756 34.7846 108.789 34.9747C107.822 35.1648 106.905 35.1735 106.048 35.0179C105.191 34.8538 104.402 34.5254 103.681 34.033C102.96 33.5405 102.374 32.9011 101.908 32.1322C101.203 30.9657 100.864 29.8425 100.889 28.7625C100.915 27.6825 101.135 26.6457 101.543 25.6348C101.95 24.6325 102.468 23.6476 103.087 22.6885C103.706 21.7295 104.249 20.7963 104.708 19.8718C105.166 18.9474 105.463 18.0315 105.582 17.1157C105.7 16.1998 105.48 15.2667 104.911 14.3249C104.665 13.9102 104.309 13.5559 103.859 13.2708C103.409 12.9857 102.909 12.7956 102.357 12.7092C101.806 12.6228 101.22 12.6401 100.592 12.761C99.9644 12.882 99.3365 13.1325 98.7085 13.53C98.0806 13.9188 97.5715 14.3508 97.1727 14.8174C96.7824 15.284 96.4684 15.7246 96.2393 16.1566C95.9678 16.6404 95.7641 17.1156 95.6199 17.5909C95.7047 17.5131 95.7726 17.444 95.832 17.3748C95.8914 17.3144 95.9593 17.2452 96.0187 17.1848C96.0781 17.1156 96.146 17.0638 96.2223 17.0206C96.7739 16.675 97.3509 16.5713 97.9449 16.7182C98.5388 16.8651 99.0055 17.2193 99.345 17.7809C99.6844 18.3425 99.7862 18.9301 99.6419 19.5349C99.4977 20.1397 99.1498 20.6149 98.5983 20.9605C98.0467 21.3061 97.4697 21.4098 96.8757 21.2629C96.2818 21.116 95.815 20.7618 95.4756 20.2002C95.2635 19.8459 95.1532 19.3707 95.1617 18.7832C95.1702 18.1957 95.2974 17.5736 95.5435 16.9169C95.7896 16.2516 96.163 15.595 96.6636 14.9383C97.1557 14.2817 97.7837 13.7114 98.5389 13.2449C99.4468 12.6833 100.363 12.3117 101.28 12.1303C102.205 11.9575 103.087 11.9489 103.919 12.113C104.759 12.2772 105.514 12.5882 106.201 13.0548C106.888 13.5214 107.44 14.1002 107.856 14.8001C108.569 15.9838 108.908 17.1156 108.883 18.1784C108.849 19.2497 108.628 20.2866 108.221 21.2888C107.813 22.2997 107.296 23.276 106.676 24.2351C106.057 25.1941 105.514 26.1273 105.056 27.0518C104.597 27.9763 104.3 28.8921 104.182 29.808C104.063 30.7238 104.283 31.6569 104.852 32.5987C105.149 33.0912 105.531 33.4886 105.997 33.8083C106.464 34.128 106.99 34.3354 107.576 34.439C108.161 34.5427 108.789 34.5168 109.46 34.3699C110.13 34.2231 110.809 33.9379 111.496 33.5059C111.946 33.2208 112.353 32.9184 112.709 32.5901C111.224 31.0867 109.943 29.3932 109.943 27.1554C109.943 23.5525 112.803 19.2584 112.811 19.2498L112.955 19.0338L113.1 19.2498C113.108 19.2584 115.968 23.5525 115.968 27.1554C115.968 29.3932 114.687 31.0953 113.202 32.5901C113.592 32.9184 113.999 33.2294 114.449 33.5059ZM112.234 31.4409C112.574 31.7433 112.854 31.9248 112.989 32.0025C113.125 31.9248 113.405 31.7347 113.745 31.4409C116.952 28.1318 115.527 23.7167 112.989 19.6645C110.826 23.1205 108.883 28.0972 112.234 31.4409ZM115.374 10.0567C115.374 7.34369 113.566 5.96129 112.989 5.58976C112.412 5.96129 110.605 7.34369 110.605 10.0567C110.605 12.6919 112.285 15.7592 112.989 16.9256C113.694 15.7592 115.374 12.6919 115.374 10.0567ZM113.168 4.82943L112.998 4.73438L112.828 4.82943C112.82 4.83807 109.884 6.38463 109.884 10.048C109.884 13.5991 112.684 17.8069 112.692 17.8155L112.998 18.2734L113.303 17.8155C113.312 17.8069 116.112 13.5991 116.112 10.048C116.104 6.39327 113.176 4.83807 113.168 4.82943ZM110.944 27.1814C110.944 29.7475 112.998 30.8275 112.998 30.8275C112.998 30.8275 115.051 29.7388 115.051 27.1814C115.051 24.6153 112.998 21.5394 112.998 21.5394C112.998 21.5394 110.944 24.6153 110.944 27.1814ZM114.067 35.2253C114.067 33.8774 112.989 33.3158 112.989 33.3158C112.989 33.3158 111.912 33.8861 111.912 35.2253C111.912 36.5645 112.989 38.1802 112.989 38.1802C112.989 38.1802 114.067 36.5732 114.067 35.2253ZM111.53 64.2474C110.843 63.824 110.164 63.5303 109.493 63.3834C108.823 63.2365 108.195 63.2106 107.61 63.3143C107.024 63.418 106.498 63.6253 106.031 63.945C105.565 64.2647 105.183 64.6621 104.886 65.1546C104.317 66.0964 104.097 67.0209 104.216 67.9454C104.334 68.8612 104.631 69.7857 105.09 70.7016C105.548 71.626 106.091 72.5592 106.71 73.5182C107.33 74.4773 107.847 75.4536 108.255 76.4645C108.662 77.4754 108.882 78.5122 108.916 79.5749C108.95 80.6463 108.602 81.7695 107.89 82.9532C107.474 83.6531 106.914 84.232 106.235 84.6985C105.548 85.1651 104.784 85.4761 103.953 85.6403C103.112 85.8045 102.238 85.7958 101.314 85.623C100.389 85.4502 99.4723 85.0787 98.5728 84.5171C97.8176 84.0419 97.1897 83.4803 96.6975 82.8236C96.2054 82.167 95.832 81.5103 95.5774 80.845C95.3229 80.1797 95.1956 79.5576 95.1956 78.9788C95.1956 78.3912 95.2974 77.9247 95.5096 77.5618C95.849 77.0002 96.3157 76.6459 96.9097 76.4991C97.5036 76.3522 98.0806 76.4559 98.6322 76.8015C99.1837 77.1471 99.5401 77.6223 99.6759 78.2271C99.8201 78.8319 99.7183 79.4194 99.3789 79.981C99.0395 80.5426 98.5728 80.8969 97.9788 81.0438C97.3848 81.1906 96.8078 81.087 96.2563 80.7413C96.1799 80.6981 96.112 80.6377 96.0527 80.5772C95.9933 80.5167 95.9254 80.4476 95.866 80.3785C95.8066 80.3094 95.7302 80.2402 95.6538 80.1625C95.7981 80.6377 96.0017 81.1215 96.2733 81.5967C96.5024 82.0201 96.8078 82.4694 97.2066 82.9359C97.597 83.4025 98.1146 83.8345 98.7425 84.2233C99.3704 84.6121 99.9983 84.8713 100.626 84.9923C101.254 85.1133 101.84 85.1305 102.391 85.0441C102.934 84.9577 103.435 84.7763 103.893 84.4825C104.343 84.1974 104.699 83.8432 104.945 83.4284C105.514 82.4867 105.734 81.5622 105.616 80.6377C105.497 79.7218 105.2 78.7973 104.742 77.8815C104.283 76.957 103.74 76.0238 103.121 75.0648C102.502 74.1057 101.984 73.1294 101.577 72.1185C101.169 71.1077 100.949 70.0708 100.923 68.9908C100.898 67.9108 101.237 66.7876 101.941 65.6212C102.408 64.8522 102.994 64.2129 103.715 63.7204C104.436 63.2192 105.225 62.8909 106.082 62.7354C106.939 62.5712 107.856 62.5885 108.823 62.7786C109.79 62.9687 110.758 63.3575 111.717 63.9623C112.2 64.2647 112.625 64.5844 113.006 64.93C113.38 64.5844 113.813 64.2647 114.296 63.9623C115.255 63.3661 116.222 62.9687 117.19 62.7786C118.157 62.5885 119.073 62.5799 119.93 62.7354C120.787 62.8995 121.577 63.2279 122.298 63.7204C123.019 64.2215 123.605 64.8522 124.071 65.6212C124.776 66.7876 125.115 67.9108 125.09 68.9908C125.064 70.0708 124.843 71.1077 124.436 72.1185C124.029 73.1294 123.511 74.1057 122.892 75.0648C122.272 76.0238 121.729 76.957 121.271 77.8815C120.813 78.806 120.516 79.7218 120.397 80.6377C120.278 81.5535 120.499 82.4867 121.067 83.4284C121.314 83.8432 121.67 84.1888 122.12 84.4825C122.569 84.7677 123.07 84.9577 123.622 85.0441C124.173 85.1305 124.759 85.1133 125.387 84.9923C126.014 84.8713 126.642 84.6208 127.27 84.2233C127.898 83.8345 128.407 83.4025 128.806 82.9359C129.196 82.4694 129.51 82.0287 129.74 81.5967C130.011 81.1129 130.215 80.6377 130.359 80.1625C130.274 80.2402 130.206 80.3094 130.147 80.3785C130.087 80.439 130.02 80.5081 129.96 80.5772C129.901 80.6463 129.833 80.6981 129.757 80.7413C129.205 81.087 128.628 81.1906 128.034 81.0438C127.44 80.8969 126.973 80.5426 126.634 79.981C126.294 79.4194 126.193 78.8319 126.337 78.2271C126.481 77.6223 126.829 77.1471 127.381 76.8015C127.932 76.4559 128.509 76.3522 129.103 76.4991C129.697 76.6459 130.164 77.0002 130.503 77.5618C130.715 77.916 130.826 78.3912 130.817 78.9788C130.809 79.5663 130.69 80.1884 130.435 80.845C130.181 81.5017 129.816 82.167 129.315 82.8236C128.823 83.4803 128.195 84.0505 127.44 84.5171C126.532 85.0787 125.616 85.4502 124.699 85.623C123.774 85.7958 122.892 85.8045 122.06 85.6403C121.22 85.4761 120.465 85.1651 119.778 84.6985C119.09 84.232 118.539 83.6531 118.123 82.9532C117.41 81.7695 117.071 80.6377 117.096 79.5749C117.13 78.5036 117.351 77.4668 117.758 76.4645C118.165 75.4536 118.683 74.4773 119.303 73.5182C119.922 72.5592 120.465 71.626 120.923 70.7016C121.381 69.7771 121.678 68.8612 121.797 67.9454C121.916 67.0295 121.695 66.0964 121.127 65.1546C120.83 64.6621 120.448 64.2647 119.981 63.945C119.515 63.6339 118.989 63.418 118.403 63.3143C117.818 63.2106 117.19 63.2365 116.519 63.3834C115.849 63.5303 115.17 63.8154 114.483 64.2474C114.033 64.5325 113.626 64.8349 113.269 65.1632C114.763 66.6666 116.036 68.3601 116.036 70.5979C116.036 74.2008 113.176 78.4949 113.168 78.5036L113.023 78.7196L112.879 78.5036C112.871 78.4949 110.011 74.2008 110.011 70.5979C110.011 68.3601 111.292 66.658 112.777 65.1632C112.387 64.8349 111.988 64.5239 111.53 64.2474ZM113.745 66.3124C113.405 66.01 113.125 65.8285 112.989 65.7508C112.854 65.8285 112.574 66.0186 112.234 66.3124C109.027 69.6216 110.452 74.0366 112.989 78.0888C115.153 74.6328 117.096 69.6561 113.745 66.3124ZM110.605 87.6966C110.605 90.401 112.412 91.792 112.989 92.1636C113.566 91.792 115.374 90.4096 115.374 87.6966C115.374 85.0614 113.694 81.9942 112.989 80.8278C112.294 81.9942 110.605 85.0614 110.605 87.6966ZM112.82 92.9239L112.989 93.0189L113.159 92.9239C113.168 92.9153 116.104 91.3687 116.104 87.7053C116.104 84.1542 113.303 79.9465 113.295 79.9378L112.989 79.4799L112.684 79.9378C112.675 79.9465 109.875 84.1542 109.875 87.7053C109.875 91.36 112.811 92.9153 112.82 92.9239ZM115.043 70.572C115.043 68.0058 112.989 66.9172 112.989 66.9172C112.989 66.9172 110.936 68.0058 110.936 70.572C110.936 73.1381 112.989 76.2139 112.989 76.2139C112.989 76.2139 115.043 73.1294 115.043 70.572ZM111.92 62.528C111.92 63.8759 112.998 64.4375 112.998 64.4375C112.998 64.4375 114.076 63.8672 114.076 62.528C114.076 61.1802 112.998 59.5731 112.998 59.5731C112.998 59.5731 111.92 61.1802 111.92 62.528ZM97.9025 47.3906C97.6224 47.8485 97.3255 48.2632 97.003 48.6261C95.535 47.1054 93.8634 45.8094 91.6657 45.8094C88.1273 45.8094 83.9101 48.7211 83.9016 48.7298L83.6895 48.8767L83.9016 49.0235C83.9101 49.0322 88.1273 51.9439 91.6657 51.9439C93.8634 51.9439 95.535 50.6392 97.003 49.1272C97.3255 49.4901 97.6309 49.9048 97.9025 50.3627C98.3182 51.0626 98.6067 51.7538 98.751 52.4364C98.8952 53.119 98.9207 53.7583 98.8189 54.3545C98.717 54.9506 98.5134 55.4863 98.1994 55.9615C97.894 56.4368 97.4951 56.8256 97.0115 57.128C96.0866 57.7069 95.1787 57.9315 94.2707 57.8105C93.3713 57.6896 92.4633 57.3871 91.5639 56.9206C90.656 56.454 89.731 55.9011 88.7976 55.2703C87.8558 54.6396 86.8969 54.1126 85.9041 53.6978C84.9114 53.2745 83.8931 53.0498 82.8494 53.0239C81.7972 52.9894 80.6941 53.3436 79.5316 54.0694C78.8443 54.4927 78.2758 55.0543 77.8176 55.7542C77.3594 56.454 77.0539 57.2316 76.8927 58.0784C76.7315 58.9337 76.7399 59.8237 76.9096 60.7654C77.0794 61.7072 77.4442 62.6404 78.0043 63.5562C78.471 64.3252 79.0225 64.9645 79.6674 65.4657C80.3123 65.9668 80.9572 66.347 81.6105 66.6062C82.2639 66.8654 82.8749 66.9949 83.4434 66.9949C84.0204 66.9949 84.4786 66.8913 84.835 66.6753C85.3865 66.3297 85.7344 65.8545 85.8787 65.2497C86.0229 64.6448 85.9211 64.0573 85.5817 63.4957C85.2423 62.9341 84.7756 62.5799 84.1816 62.433C83.5876 62.2861 83.0106 62.3898 82.4591 62.7354C81.9075 63.081 81.5512 63.5562 81.4154 64.161C81.2711 64.7658 81.373 65.3533 81.7124 65.9149C81.7548 65.9927 81.8142 66.0618 81.8736 66.1223C81.933 66.1828 82.0009 66.2519 82.0603 66.3124C82.1282 66.3729 82.196 66.4506 82.2724 66.5284C81.8057 66.3815 81.3305 66.1655 80.8638 65.8977C80.448 65.6644 80.0068 65.3533 79.5486 64.9472C79.0904 64.5498 78.6661 64.0228 78.2843 63.3834C77.9025 62.744 77.6479 62.1047 77.5291 61.4653C77.4103 60.8259 77.3933 60.2298 77.4782 59.6682C77.563 59.1065 77.7497 58.6054 78.0297 58.1388C78.3097 57.6809 78.6576 57.318 79.0649 57.0675C79.9898 56.4886 80.8978 56.2639 81.8057 56.3849C82.7052 56.5059 83.6131 56.8083 84.5126 57.2748C85.4205 57.7414 86.3454 58.2944 87.2788 58.9251C88.2206 59.5558 89.1795 60.0829 90.1723 60.4976C91.1651 60.9123 92.1833 61.137 93.244 61.1629C94.3046 61.1888 95.4078 60.8432 96.5533 60.1261C97.3085 59.6509 97.9364 59.0547 98.42 58.3203C98.9122 57.5859 99.2347 56.7824 99.3874 55.9097C99.5486 55.0371 99.5316 54.1039 99.345 53.1189C99.1583 52.134 98.7764 51.1576 98.1825 50.1727C97.8855 49.6802 97.5715 49.2482 97.2321 48.8594C97.5715 48.4792 97.8855 48.0386 98.1825 47.5461C98.7679 46.5698 99.1583 45.5848 99.345 44.5998C99.5316 43.6148 99.5401 42.6817 99.3874 41.8091C99.2262 40.9364 98.9037 40.1329 98.42 39.3985C97.9364 38.664 97.3085 38.0679 96.5533 37.5927C95.4078 36.8756 94.3046 36.53 93.244 36.5559C92.1833 36.5818 91.1651 36.8064 90.1723 37.2212C89.188 37.6445 88.2206 38.1629 87.2788 38.7937C86.3369 39.4244 85.4205 39.9774 84.5126 40.4439C83.6046 40.9105 82.7052 41.2129 81.8057 41.3339C80.9063 41.4548 79.9898 41.2302 79.0649 40.6513C78.6576 40.4007 78.3097 40.0378 78.0297 39.5799C77.7497 39.122 77.563 38.6122 77.4782 38.0506C77.3933 37.489 77.4103 36.8928 77.5291 36.2535C77.6479 35.6141 77.894 34.9747 78.2843 34.3354C78.6661 33.696 79.0904 33.1776 79.5486 32.7715C80.0068 32.3741 80.4396 32.0544 80.8638 31.8211C81.339 31.5446 81.8057 31.3372 82.2724 31.1904C82.196 31.2768 82.1282 31.3459 82.0603 31.4064C82.0009 31.4668 81.933 31.536 81.8736 31.5964C81.8057 31.6569 81.7548 31.7261 81.7124 31.8038C81.373 32.3654 81.2711 32.953 81.4154 33.5578C81.5597 34.1626 81.9075 34.6378 82.4591 34.9834C83.0106 35.329 83.5876 35.4327 84.1816 35.2858C84.7756 35.1389 85.2423 34.7847 85.5817 34.223C85.9211 33.6614 86.0229 33.0739 85.8787 32.4691C85.7344 31.8643 85.3865 31.3891 84.835 31.0435C84.4871 30.8275 84.0204 30.7152 83.4434 30.7238C82.8664 30.7325 82.2554 30.8534 81.6105 31.1126C80.9572 31.3632 80.3123 31.7433 79.6674 32.2531C79.0225 32.7542 78.4625 33.3936 78.0043 34.1626C77.4527 35.087 77.0878 36.0202 76.9096 36.9533C76.7399 37.8951 76.7315 38.7937 76.8927 39.6404C77.0539 40.4958 77.3594 41.2647 77.8176 41.9646C78.2758 42.6644 78.8443 43.226 79.5316 43.6494C80.6941 44.3752 81.8057 44.7208 82.8494 44.6948C83.9016 44.6603 84.9198 44.4356 85.9041 44.0209C86.8969 43.6062 87.8558 43.0791 88.7976 42.4484C89.7395 41.8177 90.656 41.2647 91.5639 40.7982C92.4718 40.323 93.3713 40.0292 94.2707 39.9082C95.1702 39.7873 96.0866 40.0119 97.0115 40.5908C97.4951 40.8932 97.8855 41.282 98.1994 41.7572C98.5134 42.2324 98.717 42.7681 98.8189 43.3643C98.9207 43.9605 98.8952 44.5998 98.751 45.2824C98.5983 46.0081 98.3182 46.6993 97.9025 47.3906ZM95.866 49.6456C92.5821 53.0585 87.6946 51.0799 84.3004 48.8767C88.2801 46.2933 92.6161 44.8417 95.866 48.1077C96.163 48.4533 96.3411 48.7384 96.4175 48.8767C96.3411 49.0149 96.163 49.3 95.866 49.6456ZM74.8647 46.4488C77.4527 46.4488 80.465 48.1595 81.6105 48.8767C80.465 49.5938 77.4527 51.3045 74.8647 51.3045C72.2088 51.3045 70.8426 49.4642 70.4778 48.8767C70.8426 48.2891 72.2003 46.4488 74.8647 46.4488ZM69.7395 48.7039C69.7395 48.6952 71.2669 45.7057 74.8647 45.7057C78.3522 45.7057 82.4845 48.557 82.493 48.5656L82.9428 48.8767L82.493 49.1877C82.4845 49.1963 78.3522 52.0476 74.8647 52.0476C71.2669 52.0476 69.7395 49.0581 69.7395 49.0495L69.6462 48.8767L69.7395 48.7039ZM91.6912 50.9676C89.171 50.9676 86.1502 48.8767 86.1502 48.8767C86.1502 48.8767 89.171 46.7944 91.6912 46.7944C94.2113 46.7944 95.272 48.8767 95.272 48.8767C95.272 48.8767 94.2113 50.9676 91.6912 50.9676ZM99.591 47.7794C100.906 47.7794 102.493 48.8767 102.493 48.8767C102.493 48.8767 100.906 49.974 99.591 49.974C98.2673 49.974 97.7158 48.8767 97.7158 48.8767C97.7158 48.8767 98.2673 47.7794 99.591 47.7794ZM128.085 50.3627C128.365 49.9048 128.662 49.4901 128.984 49.1272C130.452 50.6479 132.124 51.9439 134.322 51.9439C137.86 51.9439 142.077 49.0322 142.086 49.0235L142.298 48.8767L142.086 48.7298C142.077 48.7211 137.86 45.8094 134.322 45.8094C132.124 45.8094 130.452 47.1141 128.984 48.6261C128.662 48.2632 128.356 47.8485 128.085 47.3906C127.669 46.6907 127.381 45.9995 127.236 45.3169C127.092 44.6344 127.067 43.995 127.168 43.3988C127.27 42.8027 127.474 42.267 127.788 41.7918C128.102 41.3166 128.492 40.9278 128.976 40.6254C129.901 40.0465 130.809 39.8218 131.717 39.9428C132.616 40.0638 133.524 40.3662 134.423 40.8327C135.331 41.2993 136.248 41.8523 137.19 42.483C138.132 43.1137 139.09 43.6408 140.083 44.0555C141.076 44.4702 142.094 44.6949 143.138 44.7294C144.19 44.764 145.293 44.4097 146.456 43.684C147.143 43.2606 147.712 42.699 148.17 41.9991C148.628 41.2993 148.933 40.5217 149.095 39.6749C149.256 38.8196 149.247 37.9297 149.078 36.9879C148.908 36.0461 148.543 35.113 147.983 34.1971C147.516 33.4282 146.965 32.7888 146.32 32.2877C145.675 31.7865 145.03 31.4064 144.377 31.1472C143.723 30.888 143.112 30.7584 142.544 30.7584C141.967 30.7584 141.509 30.8621 141.152 31.0781C140.601 31.4237 140.253 31.8989 140.109 32.5037C139.964 33.1085 140.066 33.696 140.406 34.2576C140.745 34.8192 141.212 35.1821 141.806 35.3203C142.4 35.4672 142.977 35.3636 143.528 35.0179C144.08 34.6723 144.428 34.1971 144.572 33.5923C144.716 32.9875 144.614 32.4 144.275 31.8384C144.233 31.7606 144.173 31.6915 144.114 31.631C144.046 31.5705 143.986 31.5014 143.919 31.4409C143.851 31.3805 143.783 31.3027 143.706 31.2249C144.173 31.3718 144.648 31.5792 145.115 31.8557C145.531 32.0889 145.972 32.4 146.43 32.8061C146.888 33.2035 147.313 33.7306 147.695 34.3699C148.076 35.0093 148.331 35.6487 148.45 36.288C148.569 36.9274 148.586 37.5236 148.501 38.0852C148.416 38.6381 148.229 39.1479 147.949 39.6145C147.669 40.0724 147.321 40.4353 146.914 40.6859C145.989 41.2647 145.081 41.4894 144.173 41.3684C143.274 41.2474 142.366 40.945 141.466 40.4785C140.558 40.0119 139.642 39.459 138.7 38.8282C137.758 38.1975 136.799 37.6705 135.807 37.2557C134.814 36.841 133.796 36.6163 132.735 36.5904C131.674 36.5645 130.571 36.9101 129.426 37.6272C128.67 38.1025 128.042 38.6986 127.559 39.433C127.067 40.1674 126.744 40.971 126.591 41.8436C126.43 42.7163 126.447 43.6494 126.634 44.6344C126.821 45.6193 127.202 46.6043 127.796 47.5806C128.093 48.0731 128.407 48.5051 128.747 48.8939C128.407 49.2741 128.093 49.7147 127.796 50.2072C127.211 51.1836 126.821 52.1685 126.634 53.1535C126.447 54.1385 126.439 55.0716 126.591 55.9443C126.753 56.8169 127.075 57.6204 127.559 58.3548C128.042 59.0893 128.67 59.6854 129.426 60.1606C130.571 60.8777 131.674 61.2234 132.735 61.1974C133.796 61.1715 134.814 60.9469 135.807 60.5322C136.799 60.1174 137.758 59.5904 138.7 58.9597C139.642 58.3289 140.558 57.776 141.466 57.3094C142.374 56.8428 143.274 56.5404 144.173 56.4195C145.073 56.2985 145.989 56.5232 146.914 57.102C147.321 57.3526 147.661 57.7155 147.949 58.1734C148.229 58.6313 148.416 59.1411 148.501 59.7027C148.586 60.2643 148.569 60.8605 148.45 61.4999C148.331 62.1392 148.085 62.7786 147.695 63.418C147.313 64.0573 146.888 64.5757 146.43 64.9818C145.972 65.3793 145.539 65.6989 145.115 65.9322C144.64 66.2087 144.173 66.4161 143.706 66.5629C143.783 66.4765 143.851 66.4074 143.919 66.3469C143.986 66.2865 144.046 66.2173 144.114 66.1569C144.182 66.0964 144.233 66.0273 144.275 65.9495C144.614 65.3879 144.716 64.8004 144.572 64.1956C144.428 63.5908 144.08 63.1156 143.528 62.7699C142.977 62.4243 142.4 62.3207 141.806 62.4675C141.212 62.6144 140.745 62.9687 140.406 63.5303C140.066 64.0919 139.964 64.6794 140.109 65.2842C140.253 65.889 140.601 66.3642 141.152 66.7098C141.5 66.9258 141.967 67.0382 142.544 67.0295C143.121 67.0295 143.732 66.8999 144.377 66.6407C145.022 66.3815 145.675 66.01 146.32 65.5002C146.965 64.9991 147.525 64.3597 147.983 63.5907C148.535 62.6663 148.899 61.7331 149.078 60.8C149.247 59.8582 149.256 58.9597 149.095 58.1129C148.933 57.2576 148.628 56.4886 148.17 55.7887C147.712 55.0889 147.143 54.5273 146.456 54.1039C145.293 53.3782 144.182 53.0325 143.138 53.0585C142.086 53.093 141.067 53.3177 140.083 53.7324C139.09 54.1471 138.132 54.6742 137.19 55.3049C136.248 55.9356 135.331 56.4886 134.423 56.9552C133.516 57.4217 132.616 57.7241 131.717 57.8451C130.817 57.966 129.901 57.7414 128.976 57.1625C128.492 56.8601 128.102 56.4713 127.788 55.9961C127.482 55.5209 127.27 54.9852 127.168 54.389C127.067 53.7929 127.092 53.1535 127.236 52.4709C127.381 51.7452 127.661 51.054 128.085 50.3627ZM130.113 48.1077C133.388 44.6949 138.284 46.6734 141.678 48.8767C137.699 51.46 133.363 52.9116 130.113 49.6456C129.816 49.3 129.638 49.0149 129.561 48.8767C129.638 48.7384 129.824 48.4533 130.113 48.1077ZM151.114 51.3045C148.526 51.3045 145.514 49.5938 144.368 48.8767C145.514 48.1595 148.526 46.4488 151.114 46.4488C153.77 46.4488 155.136 48.2891 155.501 48.8767C155.136 49.4642 153.779 51.3045 151.114 51.3045ZM156.248 49.0495C156.239 49.0581 154.72 52.0476 151.123 52.0476C147.635 52.0476 143.503 49.1963 143.494 49.1877L143.045 48.8767L143.494 48.5656C143.503 48.557 147.635 45.7057 151.123 45.7057C154.72 45.7057 156.248 48.6952 156.248 48.7039L156.341 48.8767L156.248 49.0495ZM134.296 46.7858C136.816 46.7858 139.837 48.8767 139.837 48.8767C139.837 48.8767 136.816 50.9676 134.296 50.9676C131.776 50.9676 130.715 48.8767 130.715 48.8767C130.715 48.8767 131.776 46.7858 134.296 46.7858ZM126.396 49.974C125.073 49.974 123.494 48.8767 123.494 48.8767C123.494 48.8767 125.073 47.7794 126.396 47.7794C127.72 47.7794 128.272 48.8767 128.272 48.8767C128.272 48.8767 127.712 49.974 126.396 49.974ZM87.0412 71.1422C89.434 69.0427 92.1154 70.14 92.1154 70.14C92.1154 70.14 92.7773 73.0085 90.3929 75.0994C88 77.1989 83.4603 77.7346 83.4603 77.7346C83.4603 77.7346 84.6568 73.2418 87.0412 71.1422ZM87.0497 26.6802C89.4425 28.7798 92.1239 27.6825 92.1239 27.6825C92.1239 27.6825 92.7858 24.814 90.4014 22.7231C88.0085 20.6235 83.4688 20.0879 83.4688 20.0879C83.4688 20.0879 84.6568 24.5807 87.0497 26.6802ZM138.938 71.1422C136.545 69.0427 133.863 70.14 133.863 70.14C133.863 70.14 133.202 73.0085 135.586 75.0994C137.979 77.1989 142.518 77.7346 142.518 77.7346C142.518 77.7346 141.331 73.2418 138.938 71.1422Z" fill="white"/>
<path fill-rule="evenodd" clip-rule="evenodd" d="M112.99 0C126.244 0 138.242 5.46916 146.931 14.3166C155.62 23.1641 160.991 35.3812 160.991 48.877C160.991 62.3728 155.62 74.5899 146.931 83.4374C138.242 92.2849 126.244 97.754 112.99 97.754C99.7354 97.754 87.7371 92.2849 79.048 83.4374C70.359 74.5899 64.9878 62.3728 64.9878 48.877C64.9878 35.3812 70.359 23.1641 79.048 14.3166C87.7371 5.4778 99.7354 0 112.99 0ZM145.667 15.604C137.309 7.09352 125.751 1.82305 112.99 1.82305C100.228 1.82305 88.6789 7.09352 80.3124 15.604C71.9543 24.1145 66.7782 35.8823 66.7782 48.877C66.7782 61.8717 71.9543 73.6309 80.3124 82.15C88.6704 90.6605 100.228 95.931 112.99 95.931C125.751 95.931 137.3 90.6605 145.667 82.15C154.025 73.6395 159.201 61.8717 159.201 48.877C159.201 35.8823 154.025 24.1231 145.667 15.604Z" fill="white"/>
</svg>
