<svg width="60" height="61" fill="none" xmlns="http://www.w3.org/2000/svg"><path fill-rule="evenodd" clip-rule="evenodd" d="M30 58.077c15.188 0 27.5-12.312 27.5-27.5S45.188 3.077 30 3.077 2.5 15.389 2.5 30.577s12.312 27.5 27.5 27.5zm0 2.5c16.569 0 30-13.432 30-30 0-16.569-13.431-30-30-30-16.569 0-30 13.431-30 30 0 16.568 13.431 30 30 30z" fill="#E21C83"/><path fill-rule="evenodd" clip-rule="evenodd" d="M22.5 25.077a3 3 0 100-6 3 3 0 000 6zm0 2.5a5.5 5.5 0 100-11 5.5 5.5 0 000 11zm15 14.5a3 3 0 100-6 3 3 0 000 6zm0 2.5a5.5 5.5 0 100-11 5.5 5.5 0 000 11zM18.95 45.9l20-31 2.1 1.354-20 31-2.1-1.355z" fill="#E21C83"/></svg>