<svg width="60" height="45" fill="none" xmlns="http://www.w3.org/2000/svg"><path fill-rule="evenodd" clip-rule="evenodd" d="M0 .577h38.537v39.277H18.293v-2.486h17.805V3.063H2.439v34.305h4.146v2.486H0V.577z" fill="#E21C83"/><path fill-rule="evenodd" clip-rule="evenodd" d="M37.317 11.515V9.029h.109a74.943 74.943 0 011.383.016c.9.015 2.118.047 3.385.11 1.262.062 2.594.157 3.715.303.56.073 1.088.161 1.54.27.414.1.901.249 1.276.504.418.283.714.715.922 1.075.224.389.427.846.61 1.32.37.952.704 2.093.983 3.168a65.093 65.093 0 01.916 4.095l.014.07.003.019.001.006-1.198.23-1.199.23-.004-.02-.012-.064-.047-.247a62.48 62.48 0 00-.832-3.683c-.27-1.037-.575-2.071-.893-2.89a7.315 7.315 0 00-.446-.976c-.1-.175-.165-.25-.183-.27a2.801 2.801 0 00-.474-.148 12.86 12.86 0 00-1.286-.223c-1.028-.134-2.288-.225-3.525-.287a105.044 105.044 0 00-4.366-.12l-.292-.002h-.1z" fill="#E21C83"/><path fill-rule="evenodd" clip-rule="evenodd" d="M50.597 21.458H36.342v-2.486h15.013L60 25.03v14.824h-6.585v-2.486h4.146v-11.03l-6.964-4.88zm-14.255 15.91h5.853v2.486h-5.853v-2.486zM12.44 42.091c2.154 0 3.902-1.78 3.902-3.977s-1.748-3.978-3.903-3.978c-2.155 0-3.902 1.781-3.902 3.978 0 2.196 1.747 3.977 3.902 3.977zm0 2.486c3.501 0 6.34-2.894 6.34-6.463 0-3.57-2.839-6.464-6.34-6.464-3.503 0-6.342 2.894-6.342 6.464 0 3.57 2.839 6.463 6.341 6.463z" fill="#E21C83"/><path fill-rule="evenodd" clip-rule="evenodd" d="M47.56 42.091c2.156 0 3.903-1.78 3.903-3.977s-1.747-3.978-3.902-3.978c-2.155 0-3.903 1.781-3.903 3.978 0 2.196 1.748 3.977 3.903 3.977zm0 2.486c3.503 0 6.342-2.894 6.342-6.463 0-3.57-2.839-6.464-6.341-6.464-3.502 0-6.342 2.894-6.342 6.464 0 3.57 2.84 6.463 6.342 6.463z" fill="#E21C83"/></svg>