<svg width="57" height="60" fill="none" xmlns="http://www.w3.org/2000/svg"><g clip-path="url(#clip0_785_11748)" fill="#242333"><path d="M29.18 30.644c-4.2 0-8.002-1.701-10.755-4.452a15.147 15.147 0 01-4.455-10.748c0-4.198 1.702-7.998 4.455-10.748A15.168 15.168 0 0129.18.243c4.2 0 8.003 1.702 10.756 4.453a15.147 15.147 0 014.455 10.748c0 4.197-1.702 7.997-4.455 10.748a15.169 15.169 0 01-10.756 4.452zm-8.45-6.754a11.919 11.919 0 008.451 3.498 11.92 11.92 0 008.452-3.498 11.902 11.902 0 003.5-8.446 11.9 11.9 0 00-3.5-8.446A11.919 11.919 0 0029.181 3.5a11.92 11.92 0 00-8.452 3.498 11.903 11.903 0 00-3.5 8.446c0 3.298 1.337 6.284 3.5 8.446z"/><path d="M28.062 27.38h1.704c7.42 0 14.172 2.888 19.074 7.54 4.921 4.672 7.976 11.12 7.976 18.219v6.6H1.012v-6.6c0-7.098 3.055-13.547 7.976-18.219 4.901-4.652 11.654-7.54 19.074-7.54zm1.704 3.257h-1.704c-6.561 0-12.52 2.541-16.833 6.636C6.935 41.35 4.27 46.965 4.27 53.14v3.343h49.288V53.14c0-6.174-2.665-11.79-6.959-15.866-4.314-4.095-10.272-6.637-16.833-6.637z"/></g><defs><clipPath id="clip0_785_11748"><path fill="#fff" transform="translate(.885)" d="M0 0h56v60H0z"/></clipPath></defs></svg>