<svg width="84" height="52" fill="none" xmlns="http://www.w3.org/2000/svg"><path d="M21.866 1V0h-.816l-.163.799.979.201zM62.32 1l.98.201L63.545 0H62.32v1zm-49.2 42.6l-.98-.201-.247 1.201h1.226v-1zm61.227-31.2l-.59.807.59-.807zM82 23.2l.978.21.085-.397-.216-.344L82 23.2zm-4.373 20.4v1h.808l.17-.79-.978-.21zM21.866 2H62.32V0H21.866v2zM61.34.799L59.264 10.91l1.96.402L63.299 1.2 61.34.8zM59.264 10.91l-2.482 12.088 1.96.402 2.481-12.088-1.959-.402zm-2.482 12.088l-4.188 20.4 1.959.402 4.188-20.4-1.959-.4zM14.1 43.801l8.747-42.6L20.886.8 12.14 43.4l1.959.402zm5.034-1.2H13.12v2h6.014v-2zm41.11-31.49l-.006 1h.008l.026.001a40.343 40.343 0 01.498.006 163.79 163.79 0 015.86.187c1.65.085 3.334.207 4.697.38.682.086 1.265.183 1.714.288.225.053.402.105.533.154.141.051.188.084.183.08l1.181-1.614c-.383-.28-.936-.448-1.438-.566a19.131 19.131 0 00-1.922-.327c-1.436-.181-3.176-.306-4.845-.393a158.148 158.148 0 00-6.471-.195h-.01l-.007 1zm13.513 2.096c.103.075.312.278.629.65.301.354.656.808 1.047 1.333a94.898 94.898 0 012.525 3.617 210.544 210.544 0 013.129 4.818l.05.08.012.02.004.004v.002L82 23.2l.847-.532v-.002l-.004-.005-.013-.021-.052-.082a158.55 158.55 0 00-.902-1.418 212.038 212.038 0 00-2.257-3.447 96.85 96.85 0 00-2.582-3.697 28.475 28.475 0 00-1.13-1.437c-.325-.382-.663-.742-.97-.967l-1.18 1.614zM57.762 24.2H82v-2H57.762v2zm23.26-1.21l-4.373 20.4 1.955.42 4.374-20.4-1.956-.42zM59.04 42.6h-5.467v2h5.467v-2zm18.587 0h-6.014v2h6.014v-2zM31.602 44c0 3.325-2.66 6-5.915 6v2c4.383 0 7.915-3.593 7.915-8h-2zm-5.915 6c-3.256 0-5.916-2.675-5.916-6h-2c0 4.407 3.533 8 7.916 8v-2zm-5.916-6c0-3.325 2.66-6 5.916-6v-2c-4.383 0-7.916 3.593-7.916 8h2zm5.916-6c3.255 0 5.915 2.675 5.915 6h2c0-4.407-3.532-8-7.915-8v2zm45.433 6c0 3.325-2.66 6-5.915 6v2c4.383 0 7.915-3.593 7.915-8h-2zm-5.915 6c-3.256 0-5.916-2.675-5.916-6h-2c0 4.407 3.533 8 7.916 8v-2zm-5.916-6c0-3.325 2.66-6 5.916-6v-2c-4.383 0-7.916 3.593-7.916 8h2zm5.916-6c3.255 0 5.915 2.675 5.915 6h2c0-4.407-3.532-8-7.915-8v2zM10.934 14.8h15.307v-2H10.934v2zm-5.467 8.4h18.586v-2H5.467v2zM0 31.6h21.867v-2H0v2zm53.573 11h-21.32v2h21.32v-2z" fill="#242333"/></svg>