<svg width="62" height="61" fill="none" xmlns="http://www.w3.org/2000/svg"><path fill-rule="evenodd" clip-rule="evenodd" d="M14.535 14.667c0-6.303 5.122-11.417 11.446-11.417s11.446 5.114 11.446 11.417c0 6.296-5.111 11.406-11.427 11.416h-.038c-6.315-.01-11.427-5.12-11.427-11.416zm4.879 12.28c-4.39-2.343-7.379-6.962-7.379-12.28C12.035 6.978 18.282.75 25.981.75c7.7 0 13.946 6.228 13.946 13.917 0 5.318-2.988 9.937-7.378 12.28 10.75 2.89 18.663 12.705 18.663 24.368v8.935H.75v-8.935c0-11.663 7.913-21.478 18.664-24.368zm6.547 1.636C13.416 28.594 3.25 38.767 3.25 51.315v6.435h45.462v-6.435c0-12.548-10.166-22.72-22.71-22.732h-.04z" fill="#242333"/><path d="M60.75 22.697c0 4.942-4.017 8.953-8.977 8.953-4.961 0-8.978-4.011-8.978-8.953 0-4.943 4.017-8.954 8.978-8.954 4.96 0 8.977 4.011 8.977 8.954z" stroke="#242333" stroke-width="2.5"/><mask id="a" fill="#fff"><path d="M57.855 25.5a6.692 6.692 0 01-3.013 3.139 6.714 6.714 0 01-8.096-1.521 6.677 6.677 0 013.001-10.794 6.715 6.715 0 014.355.104 6.697 6.697 0 013.37 2.753L55.8 20.213a4.744 4.744 0 00-7.928-.19 4.714 4.714 0 00.351 5.796 4.736 4.736 0 005.72 1.075 4.727 4.727 0 002.127-2.217l1.786.824z"/></mask><path d="M57.855 25.5a6.692 6.692 0 01-3.013 3.139 6.714 6.714 0 01-8.096-1.521 6.677 6.677 0 013.001-10.794 6.715 6.715 0 014.355.104 6.697 6.697 0 013.37 2.753L55.8 20.213a4.744 4.744 0 00-7.928-.19 4.714 4.714 0 00.351 5.796 4.736 4.736 0 005.72 1.075 4.727 4.727 0 002.127-2.217l1.786.824z" stroke="#242333" stroke-width="5" mask="url(#a)"/></svg>