<svg width="48" height="60" fill="none" xmlns="http://www.w3.org/2000/svg"><path d="M3.538 56.382h40.809l-3.228-42.547H6.767L3.538 56.382zm42.567 3.257H.021l3.723-49.06h40.397l3.723 49.06h-1.758z" fill="#242333"/><path d="M23.958.142c3.403 0 6.495 1.388 8.736 3.623a12.287 12.287 0 013.632 8.715v9.638h-3.264v-9.637a9.043 9.043 0 00-2.676-6.413 9.086 9.086 0 00-6.428-2.67 9.086 9.086 0 00-6.428 2.67 9.043 9.043 0 00-2.676 6.412v9.638H11.59v-9.637c0-3.395 1.39-6.48 3.632-8.716A12.346 12.346 0 0123.958.142z" fill="#242333"/></svg>