<svg width="60" height="46" fill="none" xmlns="http://www.w3.org/2000/svg"><path fill-rule="evenodd" clip-rule="evenodd" d="M11.9 37.839V16.075h2.48v19.216l6.183-4.854a1.242 1.242 0 011.506-.02l6.691 4.961V16.075h2.48V37.84c0 .467-.264.895-.683 1.105-.419.21-.92.166-1.297-.113l-7.909-5.866-7.444 5.845a1.242 1.242 0 01-2.006-.971z" fill="#242333"/><path fill-rule="evenodd" clip-rule="evenodd" d="M0 8.161C0 3.654 3.663 0 8.182 0H60v16.323H8.182C3.663 16.323 0 12.669 0 8.16zm8.182-5.688c-3.15 0-5.703 2.547-5.703 5.688 0 3.142 2.553 5.689 5.703 5.689H57.52V2.473H8.18z" fill="#242333"/><path fill-rule="evenodd" clip-rule="evenodd" d="M11.653 16.57H8.678c-3.287 0-5.95 2.657-5.95 5.935 0 3.278 2.663 5.936 5.95 5.936h2.975V16.57zm-2.975-2.473c-4.656 0-8.43 3.764-8.43 8.408s3.774 8.409 8.43 8.409h5.454V14.097H8.678zm20.082-.247H60v17.31H28.76V13.85zm2.48 2.473v12.365h26.28V16.323H31.24z" fill="#242333"/><path fill-rule="evenodd" clip-rule="evenodd" d="M0 37.344c0-4.78 3.885-8.656 8.678-8.656h5.454v2.473H8.678c-3.424 0-6.199 2.768-6.199 6.183s2.775 6.183 6.199 6.183H57.52V31.16H29.008v-2.473H60V46H8.678C3.885 46 0 42.125 0 37.344z" fill="#242333"/></svg>