<svg width="85" height="52" fill="none" xmlns="http://www.w3.org/2000/svg"><path d="M23.05 1V0h-.814l-.166.797.98.203zm40.947 0l.979.203.25-1.203h-1.23v1zM14.196 43.6l-.98-.203-.25 1.203h1.23v-1zM76.17 12.4l-.586.81.586-.81zm7.747 10.8l.977.212.087-.4-.22-.347-.844.535zM79.49 43.6v1h.806l.171-.788-.977-.212zM23.05 2h40.947V0H23.049v2zM63.017.797l-2.102 10.111 1.958.407 2.102-10.112-1.959-.406zm-2.102 10.111l-2.512 12.089 1.958.407 2.512-12.089-1.958-.407zm-2.512 12.089l-4.24 20.4 1.958.407 4.24-20.4-1.958-.407zM15.175 43.804l8.853-42.6L22.07.796l-8.853 42.6 1.958.407zm5.108-1.204h-6.087v2h6.087v-2zm41.612-31.488l-.007 1h.035a41.464 41.464 0 01.504.006 167.838 167.838 0 015.932.187c1.672.085 3.376.207 4.756.38.692.086 1.282.183 1.738.29.228.052.408.104.542.153.144.052.193.085.19.082l1.17-1.62c-.384-.279-.941-.446-1.448-.564a19.582 19.582 0 00-1.944-.326c-1.452-.181-3.212-.306-4.902-.393a162.307 162.307 0 00-6.55-.195h-.008l-.008 1zm13.69 2.098c.104.076.316.28.637.652.305.354.664.808 1.06 1.333a94.856 94.856 0 012.556 3.616 209.834 209.834 0 012.972 4.514l.195.304.05.08.013.02.003.005.001.001.845-.535.844-.536v-.001l-.004-.006a28.494 28.494 0 00-7.02-10.101c-.33-.383-.671-.742-.981-.966l-1.172 1.62zM59.382 24.2h24.534v-2H59.383v2zm23.556-1.212l-4.426 20.4 1.954.424 4.427-20.4-1.955-.424zM60.677 42.6h-5.534v2h5.533v-2zm18.813 0h-6.087v2h6.087v-2zM32.917 44a6 6 0 01-6 6v2a8 8 0 008-8h-2zm-6 6a6 6 0 01-6-6h-2a8 8 0 008 8v-2zm-6-6a6 6 0 016-6v-2a8 8 0 00-8 8h2zm6-6a6 6 0 016 6h2a8 8 0 00-8-8v2zm46 6a6 6 0 01-6 6v2a8 8 0 008-8h-2zm-6 6a6 6 0 01-6-6h-2a8 8 0 008 8v-2zm-6-6a6 6 0 016-6v-2a8 8 0 00-8 8h2zm6-6a6 6 0 016 6h2a8 8 0 00-8-8v2zM11.984 14.8h15.493v-2H11.984v2zM6.45 23.2h18.813v-2H6.45v2zM.917 31.6H23.05v-2H.917v2zm54.226 11h-21.58v2h21.58v-2z" fill="#242333"/></svg>