<svg width="56" height="57" fill="none" xmlns="http://www.w3.org/2000/svg"><path d="M47 32c0 8.837-7.163 16-16 16v2c9.941 0 18-8.059 18-18h-2zM31 48c-8.837 0-16-7.163-16-16h-2c0 9.941 8.059 18 18 18v-2zM15 32c0-8.837 7.163-16 16-16v-2c-9.941 0-18 8.059-18 18h2zm16-16c8.837 0 16 7.163 16 16h2c0-9.941-8.059-18-18-18v2zm23 16c0 12.703-10.297 23-23 23v2c13.807 0 25-11.193 25-25h-2zM31 55C18.297 55 8 44.703 8 32H6c0 13.807 11.193 25 25 25v-2zM8 32C8 19.297 18.297 9 31 9V7C17.193 7 6 18.193 6 32h2zM31 9c12.703 0 23 10.297 23 23h2C56 18.193 44.807 7 31 7v2zm3 23a3 3 0 01-3 3v2a5 5 0 005-5h-2zm-3 3a3 3 0 01-3-3h-2a5 5 0 005 5v-2zm-3-3a3 3 0 013-3v-2a5 5 0 00-5 5h2zm3-3a3 3 0 013 3h2a5 5 0 00-5-5v2zM24.116 2h13.5V0h-13.5v2zM3 24h5.745v-2H3v2zm-3 9h7v-2H0v2zm3 10h6.176v-2H3v2zm11-10h5.09v-2H14v2zm29 0h5v-2h-5v2zm-8 0h5.09v-2H35v2zm-3-13v-5h-2v5h2zm0-12V1h-2v7h2zm0 41v-6h-2v6h2zm0-20.91V23h-2v5.09h2zm-13.707-6.383l.008.008.008.009.009.008.008.008.008.009.009.008.008.008a18725093552.155 18725093552.155 0 00.025.025l.009.009.008.008a.677.677 0 01.017.017l.008.009.009.008a19175426982.601 19175426982.601 0 00.017.017l.009.009.008.008.009.009.008.008a.701.701 0 01.017.018l.01.008.008.009.008.009a20086274585.052 20086274585.052 0 00.018.017l.008.009.01.008.008.01.009.008.008.009.01.009.008.008.009.01.009.008.009.009.008.009.01.008.008.01.009.008.009.01.009.008.009.009.009.009.009.009.008.009.01.009.008.009.01.009.009.009.009.009.009.009.009.009.009.009.009.009.009.009.009.009.009.01a.39.39 0 01.027.026l.01.01.008.009.01.009.009.009.009.01.009.008.01.01.008.009.01.009.009.009.009.01.01.008a.802.802 0 01.008.01l.01.009.009.01.01.008.008.01.01.009.009.01.01.009.008.009.01.009.01.01.008.009.01.009a.829.829 0 00.018.019l.01.009.009.01.01.009.009.009.01.01.008.009.01.009.01.01.009.009.009.01.01.008a.028.028 0 00.009.01l.01.01.009.009.009.01.01.009.009.009.01.01.009.009.009.01.01.009.009.009a.838.838 0 01.01.01l.009.009.009.01.01.009.009.01.01.009.009.009.01.01.009.009.01.01.009.009.009.01.01.009.009.01.01.009.009.009.01.01.009.009.01.01a.846.846 0 01.009.009l.01.01.009.009.009.01.01.009.009.01.01.009.009.009.01.01.009.009.01.01.009.009.01.01.009.009.009.01.01.009.009.01.01.009a.838.838 0 01.018.018l.01.01.01.01.008.009.01.01.01.009.009.009.01.01.009.009a.838.838 0 01.018.019l.01.01.01.009.009.009.01.01.009.009.009.01.01.009a.829.829 0 01.009.009l.009.01.01.009.009.009.01.01.008.009a.829.829 0 01.01.009l.01.01a.829.829 0 01.008.009l.01.009.01.01.009.009.009.009.01.01.008.009.01.009.009.01.01.009a.399.399 0 00.008.009l.01.009.01.01.008.008.01.01.009.009.009.01.01.008.009.01.009.009.009.01.01.008.008.01.01.009.009.009.009.009.009.01.009.008.01.01.008.009.01.009.009.009.009.009.009.009.009.009.009.009a.777.777 0 01.018.018l.009.01.009.008.009.01.009.008.009.01.009.008.009.01.009.008.009.009a.751.751 0 01.009.009l.009.009.008.009.01.009.008.008.01.01.008.008.009.009.009.009a.734.734 0 01.009.009l.008.008.009.01a.726.726 0 01.009.008l.009.009.008.008.01.01.008.008.009.009.008.008.009.01.009.008.008.008.009.009.008.009.009.008.009.009.008.008.009.009.008.009.009.008.008.009.009.008.008.009.009.008.008.008a18725093552.155 18725093552.155 0 00.017.017l.008.009.009.008.008.008.008.009.009.008.008.008.009.009.008.008.008.008.008.008a.638.638 0 01.008.009l.009.008.008.008.008.008a.63.63 0 01.008.008l.008.009.008.008.009.008.008.008.008.008.008.008a.607.607 0 01.024.024l.008.008.008.008.007.008.008.008.008.007.008.008.008.008a8072338200.86 8072338200.86 0 00.015.016l.008.007.008.008.008.008.007.008.008.007.008.008.007.008.008.007.008.008.007.007.008.008a.541.541 0 00.007.008l.008.007.007.007a7463403434.857 7463403434.857 0 00.015.015l.008.008a.513.513 0 01.007.007l.007.008.008.007.007.007.007.008a.499.499 0 01.008.007l.007.007.007.007.007.007.007.008.008.007.007.007.007.007.007.007.007.007.007.007a.459.459 0 01.014.014l.007.007.007.007.007.007a.44.44 0 01.013.014l.007.006.007.007.007.007.006.007.007.006.007.007.006.007.007.006.007.007.006.006.007.007.006.006.007.007.006.006.007.007.006.006.006.007.007.006.006.006.006.006.007.007.006.006.006.006.006.006.006.006.006.007.006.006.006.006.007.006.006.006a.331.331 0 01.023.023l.006.006.006.006.006.006.005.005.006.006.006.006.005.006.006.005a.293.293 0 01.011.011l.006.006.005.005.006.006a.283.283 0 01.005.005l.005.006.006.005.005.005.005.006.006.005.005.005.005.005a6902981586.73 6902981586.73 0 01.01.01l.005.005.005.006.005.005.005.005.005.005.005.004.005.005.005.005.005.005.004.005.005.004.005.005.005.005.004.004.005.005.004.005.005.004.004.005.005.004.004.004.005.005a.176.176 0 01.008.009c.002 0 .003.002.005.004l.004.004.004.004.004.004.004.004.004.005c.002 0 .003.002.004.004.002 0 .003.002.004.003a.149.149 0 01.008.008l.004.004.004.004.004.004.003.004a1816458794.431 1816458794.431 0 01.008.007l.003.004.004.003.004.004a.117.117 0 01.007.007l.003.003.004.004.003.003.003.003.004.004.003.003.003.003a2550472373.854 2550472373.854 0 00.006.007l.003.003c.002 0 .002.002.003.003.002 0 .002.002.003.003a.08.08 0 01.003.003l.003.003.003.002.003.003.003.003.003.003.002.003.003.002.003.003.002.002.003.003.002.002.003.003.002.002.003.003.002.002.002.002.002.002.003.003.002.002a.045.045 0 00.004.004l.002.002.002.002.002.002.002.002.001.002.002.001.002.002.002.002.001.002.002.001.002.002.001.001.002.002v.001l.002.002h.002v.002l.002.001.001.002h.001l.002.002.002.002.001.002h.001l.001.001v.001h.002v.002h.001l.001.001v.001h.001v.001h.001a687.295 687.295 0 001.415-1.414h-.001v-.001h-.001v-.001h-.001v-.001h-.002v-.002H23.3v-.002h-.001l-.001-.002h-.001l-.001-.001-.001-.002h-.001l-.002-.002-.002-.002-.001-.001-.002-.002v-.001l-.002-.002-.002-.001-.001-.002-.002-.001-.002-.002-.001-.001-.002-.002-.002-.002-.001-.002-.002-.001-.002-.002-.002-.002-.002-.002-.002-.002-.002-.002-.002-.002-.002-.003-.003-.002-.002-.002-.002-.002-.002-.003-.003-.002-.002-.002-.003-.003-.002-.002a.06.06 0 01-.003-.003l-.002-.002-.003-.003-.002-.003-.003-.002-.003-.003-.003-.003a.075.075 0 01-.003-.003l-.002-.003-.003-.003a.08.08 0 01-.003-.003l-.003-.003-.003-.003-.003-.003a.092.092 0 01-.004-.003l-.003-.003-.003-.003-.003-.003-.003-.004c-.002 0-.003-.002-.004-.003l-.003-.003-.004-.004-.003-.003a.117.117 0 01-.007-.007l-.004-.004-.003-.003-.004-.004-.004-.004-.003-.003-.004-.004-.004-.004-.004-.004a2018166796.8 2018166796.8 0 01-.012-.012l-.003-.004-.005-.004-.004-.004-.004-.004-.004-.004-.004-.004-.004-.005c-.002 0-.003-.002-.005-.004a.087.087 0 01-.004-.004l-.004-.004-.005-.005-.004-.004-.004-.005-.005-.004-.004-.005-.005-.004-.005-.005-.004-.004-.005-.005-.005-.005-.004-.005-.005-.004-.005-.005-.005-.005-.005-.005-.005-.005-.004-.005-.005-.005-.005-.005-.006-.005-.005-.005-.005-.005-.005-.005-.005-.005-.005-.005-.005-.006-.006-.005-.005-.005-.005-.006-.006-.005-.005-.005-.006-.006-.005-.005-.006-.006a.293.293 0 01-.016-.017l-.006-.005-.006-.006-.006-.006-.005-.005-.006-.006-.006-.006-.006-.006-.006-.006-.005-.006-.006-.005a.331.331 0 01-.006-.006l-.006-.006-.006-.006-.006-.006-.006-.007-.006-.006-.007-.006-.006-.006-.006-.006-.006-.006-.007-.007-.006-.006-.006-.006-.006-.007-.007-.006-.006-.006-.007-.007-.006-.006-.006-.007a.401.401 0 01-.007-.006l-.007-.007-.006-.006-.007-.007-.006-.007-.007-.006-.007-.007-.006-.007-.007-.006-.007-.007-.007-.007-.006-.007-.007-.007-.007-.006-.007-.007-.007-.007-.007-.007a.459.459 0 01-.014-.014l-.007-.007-.007-.007-.007-.007-.007-.007-.007-.008-.007-.007-.008-.007-.007-.007-.007-.007-.007-.008a.499.499 0 01-.008-.007l-.007-.007-.007-.007-.008-.008-.007-.007a.513.513 0 01-.007-.008l-.008-.007a7264776749.879 7264776749.879 0 00-.015-.015l-.007-.007-.008-.008a.541.541 0 00-.007-.007l-.008-.008-.007-.007-.008-.008-.007-.008-.008-.007-.008-.008-.007-.008-.008-.007-.008-.008-.008-.008-.007-.008a8072338200.86 8072338200.86 0 00-.016-.015l-.008-.008-.008-.008-.008-.008-.007-.008-.008-.008-.008-.007-.008-.008a.6.6 0 01-.024-.024l-.008-.008-.008-.008-.008-.008-.008-.009-.008-.008-.009-.008-.008-.008-.008-.008-.008-.008-.008-.009a.638.638 0 01-.009-.008l-.008-.008-.008-.008-.008-.008-.009-.009-.008-.008-.008-.009-.009-.008-.008-.008-.008-.009-.009-.008a.677.677 0 00-.008-.008l-.009-.009-.008-.008-.008-.009-.009-.008-.008-.009-.009-.008-.008-.009-.009-.008-.009-.009-.008-.008-.009-.009-.008-.009-.009-.008-.009-.009-.008-.008-.009-.01-.009-.008-.008-.008-.009-.01-.009-.008-.009-.009-.008-.008-.009-.01-.009-.008-.009-.009-.008-.008a.734.734 0 01-.01-.01l-.008-.008-.009-.009-.009-.009-.009-.009-.008-.009-.01-.009-.008-.008-.01-.01-.008-.008a.751.751 0 01-.009-.01l-.009-.008-.009-.01-.009-.008-.009-.01-.009-.008-.009-.01-.009-.008-.009-.01a.777.777 0 01-.009-.008l-.009-.01-.01-.008-.008-.01-.01-.008-.008-.01-.01-.009-.008-.009-.01-.009-.009-.009-.009-.01-.009-.008-.01-.01-.008-.009-.01-.009-.009-.009-.009-.01-.01-.008-.008-.01-.01-.009-.009-.009-.009-.01-.01-.008-.009-.01-.009-.009-.009-.01-.01-.009a.399.399 0 00-.008-.009l-.01-.009-.01-.01-.008-.009-.01-.009-.009-.01-.01-.008c-.002-.004-.006-.007-.009-.01a.829.829 0 01-.009-.01l-.01-.009-.009-.009a.829.829 0 01-.009-.01l-.01-.009a.829.829 0 01-.009-.009l-.01-.01-.008-.009-.01-.009-.01-.01-.008-.009a.829.829 0 01-.02-.018c-.002-.004-.006-.007-.009-.01l-.01-.01-.008-.009-.01-.01-.01-.008a23698762248.34 23698762248.34 0 01-.028-.029l-.009-.01-.01-.009-.009-.009-.01-.01-.009-.009-.01-.01-.009-.009-.009-.01-.01-.009-.009-.01-.01-.009a.838.838 0 01-.009-.009l-.01-.01-.009-.009-.01-.01-.009-.009-.009-.01-.01-.009-.009-.01-.01-.009-.009-.01-.01-.009-.009-.009-.01-.01-.009-.009-.01-.01-.009-.009-.01-.01-.009-.009-.009-.01-.01-.009-.009-.01-.01-.008-.009-.01-.01-.01-.009-.009-.01-.01-.009-.009-.009-.01-.01-.009-.009-.01-.01-.009-.009-.009-.01-.01-.009-.009-.009-.01a.838.838 0 01-.01-.009l-.009-.01-.01-.008c-.002-.004-.006-.007-.009-.01l-.01-.01-.008-.009-.01-.01-.01-.008-.009-.01-.01-.01-.009-.009-.009-.01-.01-.009-.009-.009-.009-.01-.01-.009-.009-.009-.01-.01-.008-.009-.01-.009-.01-.01-.008-.009-.01-.009-.01-.01-.008-.009-.01-.009-.009-.01-.01-.009a.802.802 0 01-.008-.009l-.01-.009-.01-.01-.008-.009-.01-.009-.009-.01-.01-.008a.802.802 0 01-.008-.01l-.01-.009-.009-.009-.009-.01-.01-.008-.008-.01-.01-.009-.009-.009-.009-.01-.01-.008-.008-.01-.01-.009-.009-.009-.009-.009a.785.785 0 01-.027-.027l-.009-.01-.01-.008-.008-.01-.01-.008-.008-.01-.01-.008-.008-.01-.01-.009-.008-.009-.01-.009-.008-.009-.01-.009-.008-.008-.01-.01-.008-.008-.009-.01-.009-.008-.009-.009-.009-.009-.009-.009-.008-.009-.01-.009-.008-.008-.009-.01-.009-.008-.008-.009-.01-.009-.008-.008-.009-.009-.009-.009-.008-.009-.009-.008-.009-.009-.008-.009-.009-.008-.009-.009a19852749257.604 19852749257.604 0 00-.017-.017l-.009-.009-.008-.008-.009-.009-.008-.008-.009-.01a.685.685 0 01-.008-.008l-.009-.008-.008-.009-.009-.008a.677.677 0 01-.017-.017l-.008-.008-.009-.009-.008-.008a.325.325 0 00-.008-.009l-.009-.008-.008-.008-.009-.009-.008-.008-.008-.008-.008-.009-.009-.008-.008-.008-1.414 1.414zm4.014 18L21.6 39l-.002.002-.005.005a4.88 4.88 0 00-.02.02l-.08.08-.291.29-.98.981-2.433 2.433 1.414 1.414 2.433-2.433.98-.98.292-.292.078-.078.02-.02.006-.006.001-.001-.706-.708zM39 40l4 4 1.414-1.414-4-4L39 40zm3.81-20.21L39 23.6l1.414 1.414 3.81-3.81-1.414-1.414z" fill="#242333"/></svg>