<svg width="60" height="63" fill="none" xmlns="http://www.w3.org/2000/svg"><path fill-rule="evenodd" clip-rule="evenodd" d="M10.286 20.612a4.972 4.972 0 10-6.65 0A6.629 6.629 0 000 26.528v4.64h13.921v-4.64a6.629 6.629 0 00-3.635-5.916zm-.342-3.696a2.983 2.983 0 11-5.966 0 2.983 2.983 0 015.966 0zm-3.315 4.972a4.64 4.64 0 00-4.64 4.64v2.652h9.944v-2.652a4.64 4.64 0 00-4.64-4.64h-.664zm49.399-1.276a4.972 4.972 0 10-6.65 0 6.629 6.629 0 00-3.636 5.916v4.64h13.92v-4.64a6.629 6.629 0 00-3.634-5.916zm-.343-3.696a2.983 2.983 0 11-5.966 0 2.983 2.983 0 015.966 0zm-3.314 4.972a4.64 4.64 0 00-4.64 4.64v2.652h9.943v-2.652a4.64 4.64 0 00-4.64-4.64h-.663z" fill="#242333"/><path d="M27.244 49.73l-.917.85a1.25 1.25 0 002.167-.85h-1.25zm-5.463-5.899l.917-.85-.017-.017-.017-.017-.884.884zm4.8 14.849h1.25v-.506l-.351-.363-.899.869zm-9.666-9.99l.899-.87-.008-.007-.007-.008-.884.884zm.004-4.859l-.884-.884.884.884zm33.527 10.54l1.17.439.08-.213v-.226h-1.25zM26.581 61h-1.25v1.25h1.25V61zm22.871 0v1.25h1.25V61h-1.25zm0-3.977l-1.17-.44-.08.213v.227h1.25zm-14.904-43.09c0 2.582-2.089 4.633-4.717 4.633v2.5c3.963 0 7.217-3.125 7.217-7.133h-2.5zm-4.717 4.633c-2.627 0-4.716-2.051-4.716-4.633h-2.5c0 4.008 3.254 7.133 7.216 7.133v-2.5zm-4.716-4.633a4.716 4.716 0 014.716-4.717v-2.5a7.216 7.216 0 00-7.216 7.217h2.5zm4.716-4.717a4.716 4.716 0 014.717 4.717h2.5a7.216 7.216 0 00-7.217-7.217v2.5zm-.994 11.85h1.989v-2.5h-1.989v2.5zm1.989 0c2.314 0 4.14.695 5.378 1.85 1.226 1.146 1.99 2.851 1.99 5.117h2.5c0-2.86-.983-5.262-2.784-6.944-1.79-1.672-4.273-2.523-7.084-2.523v2.5zm-1.989-2.5c-2.86 0-5.367 1.003-7.162 2.794-1.794 1.79-2.801 4.294-2.801 7.157h2.5c0-2.263.787-4.11 2.067-5.388 1.281-1.278 3.131-2.063 5.396-2.063v-2.5zm-13.003-1.65c0-7.548 6.119-13.666 13.666-13.666V.75c-8.928 0-16.166 7.238-16.166 16.166h2.5zM29.5 3.25c7.547 0 13.666 6.118 13.666 13.666h2.5C45.666 7.988 38.428.75 29.5.75v2.5zm-2.735 27.058c-6.237-1.266-10.93-6.782-10.93-13.392h-2.5c0 7.822 5.554 14.344 12.933 15.842l.497-2.45zm16.4-13.392c0 6.502-4.541 11.946-10.627 13.327l.553 2.438c7.2-1.634 12.575-8.07 12.575-15.765h-2.5zm-11.867 8.95v11.269h2.5v-11.27h-2.5zm0 11.269v6.629h2.5v-6.63h-2.5zM28.494 49.73V25.853h-2.5V49.73h2.5zm1.402-25.266a1.4 1.4 0 011.401 1.401h2.5a3.902 3.902 0 00-3.901-3.901v2.5zm0-2.5a3.891 3.891 0 00-3.902 3.889h2.5c0-.767.62-1.39 1.402-1.39v-2.5zM20.863 44.68l5.464 5.899 1.834-1.699-5.463-5.9-1.835 1.7zm6.617 13.13l-9.666-9.99-1.797 1.738 9.666 9.99 1.797-1.738zm-9.677-13.096a2.188 2.188 0 013.094 0l1.767-1.768a4.688 4.688 0 00-6.63 0l1.769 1.768zm-1.768-1.768a4.683 4.683 0 00-.004 6.626l1.768-1.767a2.183 2.183 0 01.004-3.09l-1.768-1.769zm21.229-5.812v6.629h2.5v-6.63h-2.5zm-1.733-1.402c.41 0 .873.174 1.23.478.354.302.503.64.503.924h2.5c0-1.182-.61-2.169-1.382-2.826-.768-.656-1.796-1.076-2.851-1.076v2.5zm0-2.5c-1.055 0-2.083.42-2.852 1.076-.771.657-1.382 1.644-1.382 2.826h2.5c0-.283.15-.622.504-.924.357-.304.82-.478 1.23-.478v-2.5zm7.7 3.902v6.629h2.5v-6.63h-2.5zm-1.734-1.402c.41 0 .873.174 1.23.478.354.302.503.64.503.924h2.5c0-1.182-.61-2.169-1.381-2.826-.769-.656-1.797-1.076-2.852-1.076v2.5zm0-2.5c-1.055 0-2.083.42-2.852 1.076-.77.657-1.381 1.644-1.381 2.826h2.5c0-.283.149-.622.503-.924.357-.304.82-.478 1.23-.478v-2.5zm7.7 3.902V54.37h2.5V37.135h-2.5zm-1.734-1.402c.41 0 .873.174 1.23.478.355.302.503.64.503.924h2.5c0-1.182-.61-2.169-1.38-2.826-.77-.656-1.798-1.076-2.853-1.076v2.5zm0-2.5c-1.055 0-2.083.42-2.852 1.076-.77.657-1.38 1.644-1.38 2.826h2.5c0-.283.148-.622.503-.924.356-.304.82-.478 1.23-.478v-2.5zM25.331 58.68V61h2.5v-2.32h-2.5zm1.25 3.57h22.871v-2.5h-22.87v2.5zM50.702 61v-3.977h-2.5V61h2.5zm-.08-3.539l.995-2.651-2.341-.878-.994 2.652 2.34.877z" fill="#242333"/></svg>