<svg width="62" height="37" fill="none" xmlns="http://www.w3.org/2000/svg"><path d="M2 18.502l-.924-.842-.767.842.767.842.924-.842zm58 0l.97.79.642-.79-.643-.789-.969.79zm-58.924.842c10.371 11.383 20.813 17.04 31.065 16.908 10.264-.131 19.953-6.057 28.828-16.96l-1.938-1.579c-8.625 10.596-17.685 15.921-26.922 16.04-9.248.118-19.056-4.976-29.185-16.093l-1.848 1.684zm1.848 0C13.053 8.227 22.862 3.134 32.109 3.252c9.236.118 18.297 5.443 26.922 16.04l1.938-1.579C52.094 6.81 42.404.883 32.141.753 21.889.62 11.447 6.276 1.076 17.66l1.848 1.684z" fill="#242333"/><circle cx="31" cy="18.502" r="8.75" stroke="#242333" stroke-width="2.5"/></svg>