<svg width="63" height="45" fill="none" xmlns="http://www.w3.org/2000/svg"><path d="M2 22.63l-.936-.849-.77.85.77.849.936-.85zm58.636 0l.982.796.645-.796-.645-.796-.982.796zm-59.572.85c10.485 11.55 21.04 17.29 31.408 17.156 10.378-.134 20.174-6.147 29.146-17.21l-1.963-1.592c-8.72 10.753-17.88 16.154-27.216 16.274-9.347.12-19.263-5.047-29.503-16.327L1.064 23.48zm1.872 0C13.176 12.2 23.092 7.032 32.439 7.152c9.336.12 18.496 5.522 27.216 16.274l1.963-1.592C52.646 10.772 42.85 4.76 32.472 4.625c-10.367-.133-20.923 5.607-31.408 17.156l1.872 1.699z" fill="#BABABA"/><path d="M40.164 22.63c0 4.91-3.965 8.882-8.846 8.882-4.88 0-8.846-3.972-8.846-8.882s3.965-8.883 8.846-8.883 8.846 3.973 8.846 8.883z" stroke="#BABABA" stroke-width="2.527"/><path transform="matrix(-.70582 .70839 -.70582 -.70839 52.09 0)" stroke="#BABABA" stroke-width="2.521" d="M0-1.261h60.701"/></svg>