<svg width="37" height="63" fill="none" xmlns="http://www.w3.org/2000/svg"><path fill-rule="evenodd" clip-rule="evenodd" d="M23.166.743C26.442.236 30.4.24 35.087.571c.648.045 1.15.584 1.15 1.234V13.59c0 .684-.554 1.238-1.237 1.238h-9.343v7.346H35c.683 0 1.237.554 1.237 1.237v12.277c0 .683-.554 1.237-1.237 1.237h-9.343v24.052c0 .683-.554 1.237-1.237 1.237H11.824a1.238 1.238 0 01-1.237-1.237V36.925H2a1.237 1.237 0 01-1.238-1.237V23.41c0-.683.554-1.237 1.238-1.237h8.514c-.428-8.734.73-14.621 4.64-18.08 2.047-1.809 4.728-2.842 8.012-3.35zM16.794 5.95c-3.137 2.774-4.346 7.93-3.735 17.383a1.238 1.238 0 01-1.235 1.317H3.237v9.801h8.587c.684 0 1.238.554 1.238 1.238V59.74h10.12V35.688c0-.684.554-1.238 1.238-1.238h9.343v-9.8H24.42a1.237 1.237 0 01-1.238-1.238v-9.82c0-.684.554-1.238 1.238-1.238h9.343v-9.39c-4.095-.246-7.467-.2-10.218.225-2.998.464-5.177 1.368-6.75 2.76z" fill="#242333"/></svg>