<svg width="58" height="61" fill="none" xmlns="http://www.w3.org/2000/svg"><path fill-rule="evenodd" clip-rule="evenodd" d="M19.184 1.681c2.423 1.182 4.658 3.115 5.7 4.13 1.091 1.066 2.526 2.985 3.644 4.56a105.935 105.935 0 011.868 2.725l.117.177.03.047.012.016-1.055.656-.09 1.216h-.006l-.018-.002-.064-.005a46.503 46.503 0 01-1.12-.104 57.757 57.757 0 01-2.964-.39c-2.342-.37-5.345-1-7.745-2.04-2.235-.97-4.609-2.16-6.001-3.732-.725-.818-1.247-1.81-1.28-2.973-.034-1.16.423-2.308 1.288-3.434C12.502 1.226 13.847.674 15.263.653c1.348-.02 2.713.439 3.921 1.028zM29.5 13.991l-.09 1.217 2.478.173-1.333-2.045-1.055.656zm-2.51-1.495a92.912 92.912 0 00-.518-.737c-1.132-1.596-2.447-3.336-3.356-4.223-.959-.935-2.973-2.66-5.05-3.673-1.042-.509-1.989-.782-2.766-.771-.709.01-1.3.25-1.8.9-.634.825-.803 1.445-.79 1.901.014.452.21.924.674 1.448.982 1.11 2.859 2.115 5.124 3.097 2.1.91 4.846 1.5 7.13 1.862.48.076.934.14 1.352.196z" fill="#242333"/><path fill-rule="evenodd" clip-rule="evenodd" d="M39.316 1.605c-2.423 1.182-4.658 3.115-5.7 4.131-1.09 1.065-2.526 2.984-3.643 4.559a105.5 105.5 0 00-1.985 2.902l-.031.047-.011.017 1.054.655.09 1.216h.007l.017-.002.065-.004.24-.02a57.741 57.741 0 003.844-.474c2.341-.37 5.345-1 7.745-2.041 2.235-.97 4.608-2.16 6-3.732.725-.818 1.247-1.809 1.28-2.973.034-1.16-.422-2.308-1.288-3.434C46 1.15 44.654.598 43.237.577c-1.347-.019-2.712.44-3.92 1.028zM29 13.915l.09 1.217-2.478.173 1.334-2.044 1.054.655zm2.51-1.494c.164-.237.338-.484.518-.738 1.133-1.596 2.448-3.336 3.356-4.222.959-.935 2.974-2.661 5.05-3.674 1.042-.508 1.99-.782 2.767-.77.708.01 1.3.25 1.8.899.634.825.802 1.446.789 1.901-.013.452-.21.925-.673 1.448-.983 1.11-2.86 2.115-5.124 3.097-2.1.91-4.847 1.5-7.13 1.862-.48.076-.934.141-1.353.197z" fill="#242333"/><path fill-rule="evenodd" clip-rule="evenodd" d="M55.5 15.943h-53v6.829h53v-6.83zM0 13.503v11.708h58V13.504H0z" fill="#242333"/><path fill-rule="evenodd" clip-rule="evenodd" d="M4.25 58.138V23.26h-2.5v37.317h54.5V23.26h-2.5v34.878H4.25z" fill="#242333"/><path fill-rule="evenodd" clip-rule="evenodd" d="M28 59.357V14.48h2.5v44.878H28z" fill="#242333"/></svg>