<svg width="61" height="61" fill="none" xmlns="http://www.w3.org/2000/svg"><path fill-rule="evenodd" clip-rule="evenodd" d="M44.333 3.077h-28c-7.455 0-13.5 6.044-13.5 13.5v28c0 7.456 6.045 13.5 13.5 13.5h28c7.456 0 13.5-6.044 13.5-13.5v-28c0-7.456-6.044-13.5-13.5-13.5zm-28-2.5c-8.836 0-16 7.163-16 16v28c0 8.837 7.164 16 16 16h28c8.837 0 16-7.163 16-16v-28c0-8.837-7.163-16-16-16h-28z" fill="#242333"/><path fill-rule="evenodd" clip-rule="evenodd" d="M30.333 44.077c7.456 0 13.5-6.044 13.5-13.5s-6.044-13.5-13.5-13.5c-7.455 0-13.5 6.044-13.5 13.5s6.045 13.5 13.5 13.5zm0 2.5c8.837 0 16-7.163 16-16s-7.163-16-16-16c-8.836 0-16 7.163-16 16 0 8.836 7.164 16 16 16zm18-31.5a2.5 2.5 0 100-5 2.5 2.5 0 000 5zm0 2.5a5 5 0 100-10 5 5 0 000 10z" fill="#242333"/></svg>