<svg width="60" height="43" fill="none" xmlns="http://www.w3.org/2000/svg"><path d="M1.744.198h57.981v42.71H.232V.198h1.512zm54.958 2.996H3.256v36.717h53.446V3.194z" fill="#242333"/><path d="M37.208 21.251l22.43 19.38v2.247H.391v-2.696l23.112-19.967 6.413 5.994 6.259-5.85 1.033.892zm5.784 8.96l-6.735-5.82-6.34 5.927-6.496-6.071L5.324 39.882h48.863l-11.195-9.671z" fill="#242333"/><path d="M29.916 26.209L54.573 3.162H5.26L29.916 26.21zM45.18 16.052L29.916 30.318.391 2.72V.166h59.247v2.371l-14.46 13.515z" fill="#242333"/></svg>