<svg width="61" height="46" fill="none" xmlns="http://www.w3.org/2000/svg"><g clip-path="url(#clip0_785_11744)"><path d="M5.291 31.307h27.044c-.606-1.357-.948-2.729-.948-4.12 0-1.818.795-3.465 2.1-4.702l-4.5-4.215-4.884 4.289-4.887-4.292-13.925 13.04zm28.468 2.521H1.084V.305h46.172v21.8a7.57 7.57 0 01.727-.565c1.26-.857 2.732-1.285 4.66-1.285 2.143 0 4.097.75 5.522 1.962 1.482 1.261 2.4 3.018 2.4 4.97 0 6.253-6.89 12.114-13.78 17.976l-.81.688-.808-.688c-4.401-3.744-8.803-7.489-11.408-11.335zm10.988-11.71V4.429l-8.826 7.751-5.04 4.427 4.744 4.442a8.81 8.81 0 013.683-.794c2.414 0 4.073.621 5.44 1.863zm4.638 1.5c-.863.587-1.586 1.523-2.331 2.791l-1.078 1.834-1.078-1.834c-1.424-2.422-2.827-3.633-5.59-3.633-1.536 0-2.916.52-3.905 1.361-.931.793-1.508 1.872-1.508 3.05 0 4.878 5.917 10.116 12.08 15.368 6.164-5.252 12.08-10.49 12.08-15.368 0-1.178-.576-2.257-1.507-3.05-.989-.84-2.369-1.361-3.905-1.361-1.406 0-2.434.28-3.258.842zM3.592 4.546V29.46l13.73-12.857L3.592 4.546zm20.511 14.676l4.94-4.337L42.757 2.839H5.448l18.655 16.383z" fill="#242333"/></g><defs><clipPath id="clip0_785_11744"><path fill="#fff" transform="translate(.885)" d="M0 0h60v46H0z"/></clipPath></defs></svg>