<svg width="60" height="57" fill="none" xmlns="http://www.w3.org/2000/svg"><path fill-rule="evenodd" clip-rule="evenodd" d="M14.912 5.173A5.198 5.198 0 0120.115 0h34.678A5.205 5.205 0 0160 5.204v21.809a5.206 5.206 0 01-5.207 5.204h-1.735v11.648a1.239 1.239 0 01-2.15.84L39.374 32.218h-3.177v11.648a3.222 3.222 0 01-3.223 3.222H18.613l-9.555 9.55a1.24 1.24 0 01-2.116-.876v-8.674H3.223A3.222 3.222 0 010 43.865v-21.56a3.222 3.222 0 013.223-3.222h11.654c.003-4.866.02-10.771.035-13.91zm2.444 13.91h15.62a3.222 3.222 0 013.222 3.221v7.435h4.262l10.118 10.957V29.739h4.215a2.727 2.727 0 002.728-2.726V5.204a2.727 2.727 0 00-2.728-2.726H20.115a2.72 2.72 0 00-2.724 2.706c-.014 3.136-.031 9.036-.035 13.899zM3.223 21.56a.744.744 0 00-.744.743v21.561c0 .41.333.744.744.744h6.198v8.16l8.165-8.16h15.39c.41 0 .743-.333.743-.744v-21.56a.744.744 0 00-.744-.744H3.223z" fill="#242333"/><path fill-rule="evenodd" clip-rule="evenodd" d="M28.512 30.978H13.636V28.5h14.876v2.478zm22.314-19.826H28.512V8.674h22.314v2.478zM28.512 37.174H13.636v-2.478h14.876v2.478zm22.314-19.826H28.512V14.87h22.314v2.478zm0 6.196H35.95v-2.479h14.876v2.479z" fill="#242333"/><path d="M9.917 29.74a1.24 1.24 0 11-2.478-.001 1.24 1.24 0 012.478 0zM24.793 9.913a1.24 1.24 0 11-2.478 0 1.24 1.24 0 012.478 0zM9.917 35.935a1.24 1.24 0 11-2.478 0 1.24 1.24 0 012.478 0zm14.876-19.826a1.24 1.24 0 11-2.478 0 1.24 1.24 0 012.478 0z" fill="#242333"/></svg>