<svg width="60" height="60" fill="none" xmlns="http://www.w3.org/2000/svg"><path d="M59.25 50.643l-2.692 2.691c-4.425 4.425-10.256 6.638-16.086 6.638-5.83 0-11.66-2.213-16.086-6.638L7.053 36.001C2.628 31.576.415 25.745.415 19.915c0-5.83 2.213-11.66 6.638-16.086l2.691-2.691a1.66 1.66 0 012.348 0L25.904 14.95a1.66 1.66 0 010 2.347l-5.988 5.988a4.442 4.442 0 00-1.298 3.151c0 1.144.433 2.286 1.298 3.151l10.99 10.99a4.442 4.442 0 003.151 1.299 4.442 4.442 0 003.152-1.298l5.987-5.988a1.66 1.66 0 012.348 0L59.25 48.295a1.66 1.66 0 010 2.348zm-5.04.344l1.518-1.518L44.37 38.111l-4.814 4.814a7.753 7.753 0 01-5.498 2.27 7.753 7.753 0 01-5.5-2.27l-10.99-10.99a7.754 7.754 0 01-2.27-5.499c0-1.992.757-3.985 2.27-5.498l4.814-4.815L10.918 4.66 9.401 6.177c-3.777 3.776-5.665 8.757-5.665 13.738 0 4.982 1.888 9.962 5.665 13.739l17.332 17.333c3.777 3.776 8.758 5.665 13.74 5.665 4.98 0 9.961-1.889 13.738-5.665z" fill="#242333"/></svg>