<svg width="63" height="57" fill="none" xmlns="http://www.w3.org/2000/svg"><path d="M1 19l-.877-.48-.123.224V19h1zm61 0h1v-.242l-.11-.215L62 19zM52.758 1l.89-.457-.28-.543h-.61v1zm-41.9 0V0h-.592l-.284.52.877.48zM6.117 55.121h-1v1h1v-1zm51.163 0v1h1v-1h-1zM14 31v-1h-1v1h1zm14 0h1v-1h-1v1zm0 24.121v1h1v-1h-1zm-14 0h-1v1h1v-1zm19.5-24.303v-1h-1v1h1zm16.105 0h1v-1h-1v1zm0 15.35v1h1v-1h-1zm-16.105 0h-1v1h1v-1zM1 20h61v-2H1v2zm61.89-1.457l-9.243-18-1.779.914 9.242 18 1.78-.914zM52.758 0h-41.9v2h41.9V0zM9.982.52l-9.86 18 1.755.96 9.859-18L9.982.52zM15 19c0 3.801-2.748 6.981-6.326 6.981v2c4.9 0 8.326-4.305 8.326-8.981h-2zm-6.326 6.981C5.038 25.981 2 22.737 2 19H0c0 4.74 3.834 8.981 8.674 8.981v-2zM30.5 19c0 3.773-2.873 6.981-6.477 6.981v2c4.873 0 8.477-4.277 8.477-8.981h-2zm-6.477 6.981C20.33 25.981 17 22.68 17 19h-2c0 4.797 4.239 8.981 9.023 8.981v-2zM46 19c0 3.746-3 6.981-6.628 6.981v2C44.221 27.981 48 23.731 48 19h-2zm-6.628 6.981c-3.668 0-6.872-3.277-6.872-6.981h-2c0 4.773 4.064 8.981 8.872 8.981v-2zM61 19c0 3.81-2.709 6.981-6.28 6.981v2c4.908 0 8.28-4.314 8.28-8.981h-2zm-6.28 6.981C51.078 25.981 48 22.73 48 19h-2c0 4.747 3.888 8.981 8.72 8.981v-2zm-49.604.528v28.612h2V26.509h-2zm1 29.612H57.28v-2H6.116v2zm52.163-1v-28.63h-2v28.63h2zM14 32h14v-2H14v2zm13-1v24.121h2V31h-2zm1 23.121H14v2h14v-2zm-13 1V31h-2v24.121h2zm18.5-23.303h16.105v-2H33.5v2zm15.105-1v15.35h2v-15.35h-2zm1 14.35H33.5v2h16.105v-2zm-15.105 1v-15.35h-2v15.35h2z" fill="#242333"/></svg>