<svg width="64" height="62" fill="none" xmlns="http://www.w3.org/2000/svg"><path d="M14.135 19.333v-1.25h-1.25v1.25h1.25zm47.865 0h1.25v-1.25H62v1.25zM62 60v1.25h1.25V60H62zm-47.865 0h-1.25v1.25h1.25V60zM28.292 4l.972-.786-.375-.464h-.597V4zm3.033 3.749l.972-.786-.972.786zm23.26 37.584h1.25v-.598l-.466-.375-.785.973zm0 7.334v1.25h1.25v-1.25h-1.25zm-33.709 0h-1.25v1.25h1.25v-1.25zm0-7.334l-.695-1.039-.555.372v.667h1.25zm11.461-7.666l.831-.934-.722-.643-.804.538.695 1.039zm6.742 6l-.831.933.718.64.802-.53-.69-1.043zM14.135 20.583H62v-2.5H14.135v2.5zm46.615-1.25V60h2.5V19.333h-2.5zM62 58.75H14.135v2.5H62v-2.5zM15.385 60V19.333h-2.5V60h2.5zM3.25 41.333v-34H.75v34h2.5zM5.37 5.25h22.922v-2.5H5.371v2.5zm21.95-.464l3.033 3.75 1.944-1.573-3.033-3.75-1.944 1.573zm6.637 5.464H50.54v-2.5H33.957v2.5zM53.334 13v6.333h2.5V13h-2.5zm-39.2 30.417H5.372v2.5h8.764v-2.5zm16.22-34.882a4.635 4.635 0 003.603 1.715v-2.5c-.65 0-1.26-.292-1.66-.787l-1.944 1.572zM.75 41.333c0 2.545 2.082 4.584 4.62 4.584v-2.5c-1.184 0-2.12-.946-2.12-2.084H.75zM50.54 10.25c1.556 0 2.794 1.244 2.794 2.75h2.5c0-2.913-2.384-5.25-5.295-5.25v2.5zM3.25 7.333c0-1.137.936-2.083 2.12-2.083v-2.5C2.833 2.75.75 4.789.75 7.333h2.5zm26.489 23.334c0 2.242-1.842 4.083-4.143 4.083v2.5c3.655 0 6.643-2.934 6.643-6.583h-2.5zm-4.143 4.083c-2.302 0-4.144-1.841-4.144-4.083h-2.5c0 3.649 2.988 6.583 6.643 6.583v-2.5zm-4.144-4.083c0-2.242 1.842-4.084 4.143-4.084v-2.5c-3.655 0-6.643 2.935-6.643 6.584h2.5zm4.143-4.084c2.302 0 4.144 1.842 4.144 4.084h2.5c0-3.65-2.988-6.584-6.643-6.584v2.5zM38.98 9.333v-3h-2.5v3h2.5zm3.132-6.083c1.743 0 3.132 1.394 3.132 3.083h2.5c0-3.096-2.534-5.583-5.632-5.583v2.5zm0-2.5c-3.097 0-5.632 2.487-5.632 5.583h2.5c0-1.69 1.39-3.083 3.132-3.083V.75zM34.458 15v7.667h2.5V15h-2.5zM41.1 29.25c3.656 0 6.643-2.934 6.643-6.583h-2.5c0 2.242-1.841 4.083-4.143 4.083v2.5zm0-2.5c-2.301 0-4.143-1.841-4.143-4.083h-2.5c0 3.649 2.987 6.583 6.643 6.583v-2.5zm12.233 18.583v7.334h2.5v-7.334h-2.5zm1.25 6.084H20.876v2.5h33.708v-2.5zm-32.458 1.25v-7.334h-2.5v7.334h2.5zm-.555-6.295l11.461-7.666-1.39-2.078-11.46 7.666 1.39 2.078zm9.935-7.772l6.742 6 1.662-1.867-6.742-6-1.662 1.867zm8.262 6.11c2.746-1.817 4.703-2.514 6.634-2.325 1.978.195 4.2 1.343 7.398 3.922l1.569-1.947c-3.275-2.639-5.98-4.193-8.723-4.463-2.79-.274-5.35.804-8.257 2.727l1.38 2.085zm5.476-38.377v16.334h2.5V6.333h-2.5z" fill="#242333"/></svg>