<svg width="62" height="70" fill="none" xmlns="http://www.w3.org/2000/svg"><path d="M32.895 2l.185-.983-1.185-.222V2h1zm28.022 5.264h1v-.83l-.816-.153-.184.983zm0 55.598l.195.98.805-.16v-.82h-1zm-28.022 5.593h-1v1.219l1.196-.239-.196-.98zM38.986 8.04l.203-.98-1.203-.248V8.04h1zm17.057 3.533h1v-.814l-.797-.165-.203.979zm0 18.629l.185.983.815-.154v-.83h-1zm-17.057 3.212h-1v1.206l1.185-.224-.185-.982zM1 35v-1H0v1h1zm27 0h1v-1h-1v1zM1 61H0v1h1v-1zM23.148 6.833v-1h-1v1h1zM10 35v-1H9v1h1zm9 0h1v-1h-1v1zm0 9v1h1v-1h-1zm-9 0H9v1h1v-1zm5.839-16.627l.685.728.804-.757-.833-.725-.656.754zM32.71 2.983l28.022 5.264.37-1.966L33.08 1.017l-.37 1.966zm27.207 4.28v55.599h2V7.264h-2zm.804 54.618l-28.022 5.593.392 1.961 28.021-5.593-.391-1.96zm-26.826 6.574V2h-2v66.455h2zM38.783 9.02l17.057 3.533.406-1.958-17.057-3.533-.406 1.958zm16.26 2.554v18.629h2V11.574h-2zm.815 17.646L38.8 32.432l.37 1.965 17.057-3.211-.37-1.966zm-15.872 4.195V8.04h-2v25.374h2zM1 36h27v-2H1v2zm26-1v26h2V35h-2zm1 25H1v2h27v-2zM2 61V35H0v26h2zm22.148-26.377V6.833h-2v27.79h2zm-1-26.79h9.747v-2h-9.747v2zM28 62h4.873v-2H28v2zM47.515 9.25v21.748h2V9.25h-2zm-8.529 12.082h17.057v-2H38.986v2zM10 36h9v-2h-9v2zm8-1v9h2v-9h-2zm1 8h-9v2h9v-2zm-8 1v-9H9v9h2zm3.62 6.33h6.091v-2H14.62v2zm0 6.042h9.746v-2H14.62v2zM44 42a2 2 0 01-2 2v2a4 4 0 004-4h-2zm-2 2a2 2 0 01-2-2h-2a4 4 0 004 4v-2zm-2-2a2 2 0 012-2v-2a4 4 0 00-4 4h2zm2-2a2 2 0 012 2h2a4 4 0 00-4-4v2zM3.655 28.373H15.84v-2H3.655v2zm7.36-3.87l4.167 3.625 1.313-1.51-4.168-3.624-1.313 1.51zm4.138 2.142l-3.848 3.625 1.372 1.456 3.847-3.625-1.371-1.456z" fill="#242333"/></svg>