<svg width="60" height="60" fill="none" xmlns="http://www.w3.org/2000/svg"><g clip-path="url(#clip0_785_11749)" fill="#242333"><path fill-rule="evenodd" clip-rule="evenodd" d="M25.482 51.541C11.41 51.541 0 40.133 0 26.06 0 11.986 11.409.577 25.482.577c14.074 0 25.483 11.409 25.483 25.482 0 14.074-11.41 25.482-25.483 25.482zM9.788 41.753a22.125 22.125 0 0015.694 6.5 22.125 22.125 0 0015.694-6.5 22.125 22.125 0 006.5-15.694 22.125 22.125 0 00-6.5-15.694 22.125 22.125 0 00-15.694-6.5 22.125 22.125 0 00-15.694 6.5 22.125 22.125 0 00-6.5 15.694 22.125 22.125 0 006.5 15.694z"/><path d="M43.621 42.082l15.776 15.772-2.325 2.325-15.776-15.773 2.325-2.324z"/></g><defs><clipPath id="clip0_785_11749"><path fill="#fff" d="M0 0h60v60H0z"/></clipPath></defs></svg>