<svg width="83" height="15" fill="none" xmlns="http://www.w3.org/2000/svg"><g clip-path="url(#clip0_785_10920)" fill="#F8CAC1"><path d="M7.84.289l1.59 4.926 5.181-.01a.367.367 0 01.215.664L10.63 8.906l1.61 4.923a.368.368 0 01-.587.394L7.49 11.186 3.305 14.24a.366.366 0 01-.564-.41H2.74l1.61-4.923L.154 5.87a.368.368 0 01.242-.665l5.154.01L7.14.286a.367.367 0 01.7.003zm.974 5.406L7.49 1.593 6.166 5.695a.367.367 0 01-.35.254l-4.31-.008 3.492 2.527a.368.368 0 01.134.411l-1.34 4.098 3.477-2.536a.366.366 0 01.437-.005l3.483 2.541-1.336-4.085a.368.368 0 01.13-.424l3.491-2.527-4.293.008a.367.367 0 01-.367-.254z"/><path d="M8.814 5.695L7.49 1.593 6.166 5.695a.367.367 0 01-.35.254l-4.31-.008 3.492 2.527a.368.368 0 01.134.411l-1.34 4.098 3.477-2.536a.366.366 0 01.437-.005l3.483 2.541-1.336-4.085a.368.368 0 01.13-.424l3.491-2.527-4.293.008a.367.367 0 01-.367-.254z"/></g><g clip-path="url(#clip1_785_10920)" fill="#F8CAC1"><path d="M24.84.289l1.59 4.926 5.181-.01a.367.367 0 01.215.664L27.63 8.906l1.61 4.923a.368.368 0 01-.587.394l-4.163-3.037-4.185 3.053a.366.366 0 01-.564-.41h-.001l1.61-4.923-4.196-3.036a.368.368 0 01.242-.665l5.154.01L24.14.286a.367.367 0 01.7.003zm.974 5.406L24.49 1.593l-1.324 4.102a.367.367 0 01-.35.254l-4.31-.008 3.492 2.527a.368.368 0 01.134.411l-1.34 4.098 3.476-2.536a.367.367 0 01.438-.005l3.483 2.541-1.336-4.085a.368.368 0 01.13-.424l3.491-2.527-4.293.008a.367.367 0 01-.367-.254z"/><path d="M25.814 5.695L24.49 1.593l-1.324 4.102a.367.367 0 01-.35.254l-4.31-.008 3.492 2.527a.368.368 0 01.134.411l-1.34 4.098 3.476-2.536a.367.367 0 01.438-.005l3.483 2.541-1.336-4.085a.368.368 0 01.13-.424l3.491-2.527-4.293.008a.367.367 0 01-.367-.254z"/></g><g clip-path="url(#clip2_785_10920)" fill="#F8CAC1"><path d="M41.84.289l1.59 4.926 5.181-.01a.367.367 0 01.215.664L44.63 8.906l1.61 4.923a.368.368 0 01-.587.394l-4.163-3.037-4.185 3.053a.366.366 0 01-.564-.41h-.001l1.61-4.923-4.196-3.036a.368.368 0 01.242-.665l5.154.01L41.14.286a.367.367 0 01.7.003zm.974 5.406L41.49 1.593l-1.324 4.102a.367.367 0 01-.35.254l-4.31-.008 3.492 2.527a.368.368 0 01.134.411l-1.34 4.098 3.477-2.536a.367.367 0 01.437-.005l3.483 2.541-1.336-4.085a.368.368 0 01.13-.424l3.491-2.527-4.293.008a.367.367 0 01-.367-.254z"/><path d="M42.814 5.695L41.49 1.593l-1.324 4.102a.367.367 0 01-.35.254l-4.31-.008 3.492 2.527a.368.368 0 01.134.411l-1.34 4.098 3.477-2.536a.367.367 0 01.437-.005l3.483 2.541-1.336-4.085a.368.368 0 01.13-.424l3.491-2.527-4.293.008a.367.367 0 01-.367-.254z"/></g><g clip-path="url(#clip3_785_10920)" fill="#F8CAC1"><path d="M58.84.289l1.59 4.926 5.181-.01a.367.367 0 01.215.664L61.63 8.906l1.61 4.923a.368.368 0 01-.587.394l-4.163-3.037-4.185 3.053a.366.366 0 01-.564-.41h-.001l1.61-4.923-4.196-3.036a.368.368 0 01.242-.665l5.154.01L58.14.286a.367.367 0 01.7.003zm.974 5.406L58.49 1.593l-1.324 4.102a.367.367 0 01-.35.254l-4.31-.008 3.492 2.527a.368.368 0 01.134.411l-1.34 4.098 3.477-2.536a.367.367 0 01.437-.005l3.483 2.541-1.336-4.085a.368.368 0 01.13-.424l3.491-2.527-4.293.008a.367.367 0 01-.367-.254z"/><path d="M59.814 5.695L58.49 1.593l-1.324 4.102a.367.367 0 01-.35.254l-4.31-.008 3.492 2.527a.368.368 0 01.134.411l-1.34 4.098 3.477-2.536a.367.367 0 01.437-.005l3.483 2.541-1.336-4.085a.368.368 0 01.13-.424l3.491-2.527-4.293.008a.367.367 0 01-.367-.254z"/></g><g clip-path="url(#clip4_785_10920)" fill="#F8CAC1"><path d="M75.84.289l1.59 4.926 5.181-.01a.367.367 0 01.215.664L78.63 8.906l1.61 4.923a.368.368 0 01-.587.394l-4.163-3.037-4.185 3.053a.366.366 0 01-.564-.41h-.001l1.61-4.923-4.196-3.036a.368.368 0 01.242-.665l5.154.01L75.14.286a.367.367 0 01.7.003zm.974 5.406L75.49 1.593l-1.324 4.102a.367.367 0 01-.35.254l-4.31-.008 3.492 2.527a.368.368 0 01.134.411l-1.34 4.098 3.477-2.536a.367.367 0 01.437-.005l3.483 2.541-1.336-4.085a.368.368 0 01.13-.424l3.491-2.527-4.293.008a.367.367 0 01-.367-.254z"/><path d="M76.814 5.695L75.49 1.593l-1.324 4.102a.367.367 0 01-.35.254l-4.31-.008 3.492 2.527a.368.368 0 01.134.411l-1.34 4.098 3.477-2.536a.367.367 0 01.437-.005l3.483 2.541-1.336-4.085a.368.368 0 01.13-.424l3.491-2.527-4.293.008a.367.367 0 01-.367-.254z"/></g><defs><clipPath id="clip0_785_10920"><path fill="#fff" d="M0 0h15v14.348H0z"/></clipPath><clipPath id="clip1_785_10920"><path fill="#fff" transform="translate(17)" d="M0 0h15v14.348H0z"/></clipPath><clipPath id="clip2_785_10920"><path fill="#fff" transform="translate(34)" d="M0 0h15v14.348H0z"/></clipPath><clipPath id="clip3_785_10920"><path fill="#fff" transform="translate(51)" d="M0 0h15v14.348H0z"/></clipPath><clipPath id="clip4_785_10920"><path fill="#fff" transform="translate(68)" d="M0 0h15v14.348H0z"/></clipPath></defs></svg>