<svg width="60" height="57" fill="none" xmlns="http://www.w3.org/2000/svg"><path d="M31.362 1.147l6.36 19.571 20.722-.04c.81 0 1.467.653 1.467 1.457 0 .485-.239.915-.606 1.18l.002.003L42.522 35.38l6.44 19.56a1.457 1.457 0 01-.943 1.839 1.477 1.477 0 01-1.407-.277L29.961 44.44 13.22 56.57a1.472 1.472 0 01-2.048-.32 1.445 1.445 0 01-.209-1.307l-.004-.002 6.44-19.559L.615 23.318a1.454 1.454 0 01-.328-2.04 1.48 1.48 0 011.298-.6l20.615.04 6.364-19.582a1.47 1.47 0 012.799.01zm3.895 21.476L29.96 6.328l-5.296 16.295a1.467 1.467 0 01-1.398 1.01l-17.243-.032 13.97 10.039c.502.362.737 1.016.535 1.634l-5.361 16.28 13.907-10.076a1.474 1.474 0 011.75-.017l13.93 10.093-5.343-16.228a1.455 1.455 0 01.518-1.686L53.897 23.6l-17.174.034a1.468 1.468 0 01-1.466-1.011z" fill="#242333"/></svg>