<svg width="61" height="64" fill="none" xmlns="http://www.w3.org/2000/svg"><path d="M1.663 36.286H.413v.413l.247.332 1.003-.745zm8.092-7.366l.855-.912-.855.912zm20.713 9.703h1.25v-.543l-.398-.371-.852.914zM14.545 23.79l.852-.915-.852.915zM30.468 62v1.25h1.25V62h-1.25zm-17.517 0h-1.25v1.25h1.25V62zm0-10.52h1.25v-.413l-.246-.332-1.004.745zM9.674 23.877l-.884-.883.884.883zm49.989 12.41l1.003.745.247-.332v-.413h-1.25zM51.57 28.92l-.855-.912.855.912zm-20.713 9.703l-.852-.914-.398.37v.544h1.25zM46.78 23.79l-.852-.915.852.915zM30.858 62h-1.25v1.25h1.25V62zm17.516 0v1.25h1.25V62h-1.25zm0-10.52l-1.003-.745-.247.332v.413h1.25zm3.278-27.604l.884-.883-.884.883zM7.42 5.506v7.014h2.5V5.506h-2.5zm0 7.014v13.434h2.5V12.52h-2.5zm0 13.434v.202h2.5v-.202h-2.5zM2.913 36.286V5.506h-2.5v30.78h2.5zM5.166 3.25A2.255 2.255 0 017.42 5.506h2.5A4.755 4.755 0 005.166.75v2.5zm0-2.5A4.755 4.755 0 00.413 5.506h2.5A2.255 2.255 0 015.166 3.25V.75zM8.9 29.831l14.486 13.6 1.71-1.823-14.485-13.6L8.9 29.832zm22.42 7.879L15.397 22.874l-1.704 1.83 15.923 14.834 1.704-1.83zm-2.102.914V62h2.5V38.623h-2.5zm1.25 22.127H12.951v2.5h17.517v-2.5zM14.201 62V51.48h-2.5V62h2.5zm-.246-11.265L2.666 35.54.66 37.031l11.288 15.195 2.007-1.491zM8.79 22.993a4.746 4.746 0 00-1.362 2.818l2.483.286c.057-.489.27-.96.647-1.338L8.79 22.993zM7.428 25.81a4.757 4.757 0 001.471 4.02l1.711-1.822a2.257 2.257 0 01-.699-1.912l-2.483-.286zm3.13-1.052a2.256 2.256 0 013.135-.056l1.704-1.829a4.756 4.756 0 00-6.607.119l1.768 1.767zm3.868-12.24v12.078h2.5V12.52h-2.5zm-2.253-2.256a2.255 2.255 0 012.253 2.257h2.5a4.755 4.755 0 00-4.753-4.757v2.5zm0-2.5A4.755 4.755 0 007.42 12.52h2.5a2.255 2.255 0 012.253-2.257v-2.5zm.778 48.864h17.907v-2.5H12.95v2.5zm38.455-51.12v7.013h2.5V5.506h-2.5zm0 7.013v13.434h2.5V12.52h-2.5zm0 13.434v.202h2.5v-.202h-2.5zm9.507 10.332V5.506h-2.5v30.78h2.5zM56.16.75a4.755 4.755 0 00-4.754 4.756h2.5A2.255 2.255 0 0156.16 3.25V.75zm0 2.5a2.255 2.255 0 012.253 2.256h2.5A4.755 4.755 0 0056.16.75v2.5zm-5.444 24.759l-14.486 13.6 1.711 1.822 14.486-13.6-1.711-1.822zM31.71 39.538l15.923-14.835-1.704-1.829L30.005 37.71l1.705 1.829zm-2.102-.915V62h2.5V38.623h-2.5zm1.25 24.627h17.516v-2.5H30.858v2.5zM49.624 62V51.48h-2.5V62h2.5zm-.246-9.774L60.666 37.03l-2.006-1.49-11.29 15.194 2.007 1.49zm1.39-27.466c.376.376.59.848.646 1.337l2.484-.286a4.745 4.745 0 00-1.362-2.818l-1.768 1.767zm.646 1.337c.08.69-.155 1.402-.698 1.912l1.71 1.822a4.757 4.757 0 001.472-4.02l-2.484.286zm1.122-3.104a4.756 4.756 0 00-6.607-.119l1.704 1.83a2.256 2.256 0 013.135.055l1.768-1.766zM44.4 12.52v12.077h2.5V12.52h-2.5zm4.753-4.757A4.755 4.755 0 0044.4 12.52h2.5a2.255 2.255 0 012.253-2.257v-2.5zm0 2.5a2.255 2.255 0 012.253 2.257h2.5a4.755 4.755 0 00-4.753-4.757v2.5zm-.779 43.864H30.468v2.5h17.906v-2.5zM33.89 14.467a3.423 3.423 0 01-3.42 3.426v2.5a5.923 5.923 0 005.92-5.926h-2.5zm-3.42 3.426a3.423 3.423 0 01-3.422-3.426h-2.5a5.923 5.923 0 005.921 5.926v-2.5zm-3.422-3.426a3.423 3.423 0 013.421-3.425v-2.5a5.923 5.923 0 00-5.92 5.925h2.5zm3.421-3.425a3.423 3.423 0 013.421 3.425h2.5a5.923 5.923 0 00-5.92-5.925v2.5zm-.778 9.35h1.557v-2.5H29.69v2.5zm8.092 6.543v3.896h2.5v-3.896h-2.5zm-14.627 3.896v-3.896h-2.5v3.896h2.5zm8.092-10.438a6.539 6.539 0 016.535 6.542h2.5c0-4.993-4.044-9.042-9.035-9.042v2.5zm-1.557-2.5c-4.991 0-9.035 4.05-9.035 9.042h2.5a6.539 6.539 0 016.535-6.542v-2.5z" fill="#242333"/></svg>