<svg width="54" height="61" fill="none" xmlns="http://www.w3.org/2000/svg"><path fill-rule="evenodd" clip-rule="evenodd" d="M30.083.327h10.5v1.25c0 5.65 5.486 9.502 11.75 9.502h1.25v12.748h-1.25c-3.6 0-6.507-.79-8.522-1.588a20.38 20.38 0 01-1.228-.532v17.87c0 11.736-9.514 21.25-21.25 21.25S.083 51.313.083 39.577c0-11.75 9.695-21.25 21.417-21.25h1.25v12.5H21.5c-4.86 0-8.917 3.944-8.917 8.75a8.75 8.75 0 1017.5 0V.327zm10 16.81l1.978 1.423.001.002h.001l.024.016a10.175 10.175 0 00.62.38c.453.256 1.135.605 2.024.957a20.48 20.48 0 006.352 1.376v-7.759c-6.186-.46-12.233-4.302-12.932-10.705h-5.568v36.75c0 6.213-5.036 11.25-11.25 11.25-6.213 0-11.25-5.037-11.25-11.25 0-5.815 4.542-10.562 10.167-11.181v-7.528c-9.797.643-17.667 8.786-17.667 18.709 0 10.355 8.395 18.75 18.75 18.75 10.356 0 18.75-8.395 18.75-18.75v-22.44z" fill="#242333"/></svg>