<svg width="61" height="43" fill="none" xmlns="http://www.w3.org/2000/svg"><path fill-rule="evenodd" clip-rule="evenodd" d="M49.334 3.066h-38c-4.695 0-8.5 3.788-8.5 8.462v20.098c0 4.673 3.805 8.462 8.5 8.462h38c4.694 0 8.5-3.789 8.5-8.462V11.528c0-4.674-3.806-8.462-8.5-8.462zm-38-2.49c-6.076 0-11 4.904-11 10.952v20.098c0 6.048 4.924 10.95 11 10.95h38c6.075 0 11-4.902 11-10.95V11.528c0-6.048-4.925-10.951-11-10.951h-38z" fill="#242333"/><path fill-rule="evenodd" clip-rule="evenodd" d="M39.456 21.577l-14.005-8.182v16.364l14.005-8.182zm2 1.717a1.987 1.987 0 000-3.434l-15.493-9.052c-1.333-.779-3.012.178-3.012 1.717v18.103c0 1.54 1.679 2.496 3.012 1.718l15.494-9.052z" fill="#242333"/></svg>