<svg width="802" height="801" fill="none" xmlns="http://www.w3.org/2000/svg"><rect width="801" height="800" rx="400" fill="#F8CAC1"/><path fill-rule="evenodd" clip-rule="evenodd" d="M356.058 477.101h4.123c.858-5.713 3.088-8.514 6.693-8.514 2.458 0 6.98 1.085 13.504 3.258 10.64 3.486 19.564 5.256 26.774 5.256 13.272 0 24.49-3.943 33.525-11.886 9.099-7.942 13.619-17.822 13.619-29.762 0-7.031-1.886-13.543-5.664-19.541-3.776-5.997-8.467-10.911-14.075-14.685-5.663-3.769-13.959-8.566-24.891-14.453-17.846-9.54-28.546-16.682-32.095-21.364-3.545-4.631-5.319-9.027-5.319-13.2 0-6.4 2.632-11.826 7.839-16.225 5.205-4.457 11.497-6.686 18.766-6.686 9.727 0 18.537 3.313 26.435 10.001 7.834 6.683 12.868 17.652 15.042 32.963h4.064v-51.818h-4.064c-1.257 5.71-3.775 8.63-7.662 8.63-1.662 0-4.58-.918-8.759-2.802-8.866-3.887-17.275-5.828-25.344-5.828-12.414 0-22.826 3.769-31.236 11.312-8.47 7.485-12.649 16.853-12.649 28.107 0 13.599 6.297 24.57 18.943 32.852 12.7 8.285 28.832 18.112 48.517 29.592 8.295 6.346 12.472 13.543 12.472 21.656 0 7.198-2.859 13.085-8.526 17.65-5.666 4.573-12.758 6.86-21.283 6.86-24.661 0-39.534-14.229-44.626-42.735h-4.123v51.362zm218.818 96.949s22.422-8.948 42.373 8.222c19.951 17.172 29.879 53.957 29.879 53.957s-37.902-4.375-57.853-21.547c-19.951-17.17-14.399-40.632-14.399-40.632zM226.452 226.506s-22.423 8.947-42.371-8.224c-19.951-17.17-29.879-53.955-29.879-53.955s37.899 4.375 57.85 21.547c19.953 17.17 14.4 40.632 14.4 40.632zm-.003 347.544s-22.422-8.948-42.371 8.222c-19.951 17.172-29.881 53.957-29.881 53.957s37.902-4.375 57.853-21.547c19.951-17.17 14.399-40.632 14.399-40.632zm261.875-174.04s13.209 8.953 24.231 8.953c11.021 0 15.68-8.953 15.68-8.953s-4.659-8.95-15.68-8.95c-11.022 0-24.231 8.95-24.231 8.95zm136.408 0s-25.21-17.082-46.241-17.082c-21.034 0-29.925 17.082-29.925 17.082s8.891 17.086 29.925 17.086c21.031 0 46.241-17.086 46.241-17.086zm137.008 1.444l.001-.002.774-1.444-.774-1.441-.001-.003c-.155-.293-12.9-24.512-42.81-24.512-29.134 0-63.61 23.368-63.709 23.435l-3.743 2.521 3.743 2.526.01.006c.662.446 34.807 23.422 63.699 23.422 29.911 0 42.656-24.215 42.81-24.508zm-99.139-1.446c9.573 5.853 34.729 19.86 56.329 19.86 22.207 0 33.545-15.072 36.592-19.86-3.047-4.785-14.385-19.857-36.592-19.857-21.6 0-46.756 14.007-56.329 19.857zm-22.449.007c-28.361-18.053-69.166-34.245-96.543-6.29-2.45 2.802-3.965 5.182-4.621 6.29.656 1.108 2.171 3.485 4.621 6.285 27.108 26.729 63.351 14.832 96.543-6.285zm-105.981 2.014c-2.715 2.991-5.225 6.37-7.529 10.127-3.499 5.702-5.859 11.362-7.073 16.976-1.216 5.611-1.405 10.846-.563 15.704.837 4.863 2.553 9.245 5.136 13.159a31.322 31.322 0 009.899 9.552c7.718 4.72 15.33 6.572 22.855 5.558 7.517-1.014 15.057-3.448 22.622-7.299 7.564-3.853 15.263-8.359 23.1-13.524 7.839-5.164 15.888-9.457 24.143-12.883 8.257-3.431 16.761-5.271 25.515-5.53 8.755-.263 17.995 2.581 27.719 8.528 5.709 3.491 10.471 8.103 14.276 13.823 3.816 5.723 6.394 12.068 7.741 19.039 1.349 6.97 1.303 14.305-.133 22.011-1.437 7.704-4.471 15.332-9.102 22.882-3.878 6.318-8.516 11.539-13.906 15.655-5.395 4.119-10.798 7.219-16.215 9.311-5.423 2.086-10.53 3.145-15.325 3.182-4.795.031-8.661-.848-11.592-2.64-4.625-2.832-7.542-6.734-8.738-11.705-1.195-4.969-.375-9.766 2.464-14.387 2.833-4.622 6.741-7.532 11.717-8.727 4.979-1.193 9.783-.376 14.414 2.458 4.628 2.833 7.537 6.734 8.736 11.703 1.194 4.969.375 9.766-2.462 14.388a8.897 8.897 0 01-1.366 1.707l-1.598 1.567a50.657 50.657 0 00-1.738 1.797c3.919-1.205 7.846-2.937 11.78-5.189 3.494-1.89 7.145-4.477 10.965-7.758 3.816-3.279 7.334-7.54 10.545-12.78 3.216-5.236 5.313-10.471 6.292-15.701.982-5.227 1.12-10.12.414-14.685-.704-4.561-2.23-8.731-4.585-12.502-2.355-3.769-5.228-6.698-8.625-8.773-7.716-4.72-15.33-6.574-22.855-5.555-7.517 1.014-15.062 3.447-22.62 7.297-7.561 3.848-15.265 8.359-23.102 13.523-7.839 5.165-15.886 9.46-24.143 12.889-8.256 3.426-16.801 5.244-25.636 5.457-8.828.215-18.028-2.608-27.597-8.461-6.325-3.871-11.523-8.801-15.595-14.789-4.077-5.988-6.778-12.567-8.108-19.739-1.327-7.17-1.219-14.783.332-22.846 1.549-8.062 4.78-16.097 9.693-24.108 2.464-4.014 5.111-7.587 7.943-10.731-2.834-3.141-5.484-6.715-7.943-10.723-4.913-8.016-8.144-16.051-9.693-24.109-1.551-8.059-1.659-15.677-.332-22.848 1.33-7.171 4.031-13.751 8.108-19.736 4.072-5.993 9.27-10.919 15.595-14.789 9.569-5.853 18.769-8.676 27.597-8.463 8.835.217 17.38 2.035 25.636 5.457 8.257 3.431 16.304 7.729 24.143 12.889 7.837 5.164 15.541 9.672 23.102 13.523 7.558 3.854 15.103 6.283 22.62 7.299 7.525 1.014 15.139-.838 22.855-5.558 3.397-2.074 6.27-5.001 8.625-8.772 2.355-3.772 3.881-7.939 4.585-12.497.706-4.566.568-9.463-.414-14.69-.979-5.23-3.076-10.463-6.292-15.705-3.211-5.239-6.729-9.495-10.545-12.779-3.82-3.279-7.471-5.863-10.965-7.754-3.934-2.257-7.861-3.988-11.78-5.188a49.558 49.558 0 001.738 1.794c.532.524 1.064 1.046 1.598 1.567a9.053 9.053 0 011.366 1.707c2.837 4.623 3.656 9.421 2.462 14.39-1.199 4.972-4.108 8.871-8.736 11.703-4.631 2.83-9.435 3.651-14.414 2.459-4.976-1.193-8.884-4.106-11.717-8.727-2.839-4.626-3.659-9.421-2.464-14.393 1.196-4.966 4.113-8.866 8.738-11.698 2.931-1.794 6.797-2.675 11.592-2.644 4.795.036 9.902 1.099 15.325 3.185 5.417 2.089 10.82 5.191 16.215 9.308 5.39 4.122 10.028 9.339 13.906 15.656 4.631 7.552 7.665 15.18 9.102 22.879 1.436 7.705 1.482 15.043.133 22.014-1.347 6.973-3.925 13.318-7.741 19.041-3.805 5.722-8.567 10.329-14.276 13.82-9.724 5.947-18.964 8.792-27.719 8.531-8.754-.259-17.258-2.1-25.515-5.527-8.255-3.426-16.304-7.721-24.143-12.886-7.837-5.165-15.536-9.672-23.1-13.527-7.565-3.848-15.105-6.282-22.622-7.298-7.525-1.017-15.137.837-22.855 5.56a31.307 31.307 0 00-9.899 9.547c-2.583 3.916-4.299 8.304-5.136 13.162-.842 4.855-.653 10.092.563 15.704 1.214 5.616 3.574 11.275 7.073 16.979 2.304 3.759 4.814 7.135 7.529 10.126 12.296-12.415 26.209-23.078 44.586-23.078 29.555 0 64.727 23.831 64.828 23.901l1.778 1.193-1.778 1.193-.029.02c-1.16.776-35.702 23.879-64.799 23.879-18.365 0-32.304-10.655-44.586-23.078zm-221.17-2.019s-13.214-8.95-24.228-8.95c-11.026 0-15.686 8.95-15.686 8.95s4.66 8.958 15.686 8.958c11.014 0 24.228-8.958 24.228-8.958zm-136.409 0s25.208 17.088 46.245 17.088c21.029 0 29.922-17.088 29.922-17.088s-8.893-17.08-29.922-17.08c-21.037 0-46.245 17.08-46.245 17.08zm-94.2-25.951c-30.042 0-42.773 24.447-42.807 24.513l-.777 1.443.777 1.444c.034.07 12.759 24.51 42.807 24.51 29.137 0 63.612-23.361 63.712-23.433l3.738-2.521-3.738-2.523-.009-.005c-.628-.423-34.793-23.428-63.703-23.428zm56.33 25.956c-9.569-5.855-34.724-19.861-56.33-19.861-22.205 0-33.548 15.071-36.591 19.861 3.043 4.786 14.386 19.864 36.59 19.864 21.607 0 46.762-14.006 56.331-19.864zm22.451 0c28.363 18.042 69.164 34.241 96.543 6.278 2.454-2.793 3.968-5.172 4.623-6.278-.655-1.116-2.169-3.488-4.623-6.29-27.106-26.733-63.352-14.829-96.543 6.29zm105.983-2.016c2.708-2.996 5.222-6.37 7.527-10.134 3.496-5.701 5.856-11.36 7.07-16.971 1.219-5.607 1.41-10.849.563-15.709-.834-4.853-2.55-9.241-5.136-13.159-2.584-3.914-5.882-7.094-9.896-9.552-7.713-4.711-15.327-6.57-22.855-5.553-7.517 1.016-15.062 3.442-22.62 7.298-7.561 3.847-15.265 8.359-23.1 13.524-7.848 5.168-15.888 9.46-24.143 12.887-8.258 3.429-16.762 5.268-25.517 5.529-8.758.263-17.992-2.584-27.719-8.533-5.706-3.494-10.473-8.096-14.278-13.826-3.818-5.715-6.391-12.067-7.737-19.033-1.35-6.971-1.303-14.311.13-22.018 1.437-7.695 4.474-15.323 9.106-22.88 3.876-6.314 8.512-11.537 13.902-15.651 5.393-4.117 10.796-7.224 16.215-9.308 5.421-2.091 10.526-3.151 15.326-3.187 4.797-.029 8.658.857 11.589 2.644 4.633 2.837 7.542 6.734 8.737 11.7 1.201 4.969.374 9.767-2.465 14.388-2.831 4.622-6.741 7.534-11.715 8.734-4.976 1.185-9.776.367-14.408-2.463-4.633-2.83-7.545-6.729-8.739-11.706-1.194-4.969-.373-9.762 2.466-14.388a8.712 8.712 0 011.368-1.707c.307-.307.619-.612.932-.917l.66-.647a58.98 58.98 0 001.738-1.799c-3.917 1.2-7.849 2.933-11.785 5.191-3.487 1.893-7.144 4.477-10.958 7.756-3.817 3.276-7.334 7.545-10.55 12.779-3.211 5.242-5.307 10.477-6.29 15.7-.978 5.234-1.115 10.124-.416 14.69.71 4.563 2.235 8.73 4.588 12.502 2.356 3.774 5.231 6.693 8.627 8.772 7.708 4.718 15.328 6.568 22.855 5.556 7.52-1.014 15.057-3.443 22.613-7.297 7.568-3.851 15.268-8.357 23.104-13.521 7.844-5.17 15.891-9.46 24.139-12.891 8.262-3.427 16.805-5.24 25.638-5.452 8.833-.218 18.033 2.6 27.604 8.456 6.325 3.87 11.526 8.796 15.591 14.791 4.079 5.985 6.778 12.565 8.107 19.734 1.33 7.171 1.219 14.786-.331 22.848-1.545 8.06-4.78 16.095-9.696 24.107-2.46 4.012-5.111 7.586-7.941 10.732 2.83 3.139 5.489 6.712 7.941 10.726 4.916 8.011 8.151 16.046 9.696 24.101 1.55 8.07 1.661 15.683.331 22.849-1.329 7.176-4.028 13.751-8.107 19.741-4.065 5.995-9.266 10.92-15.591 14.791-9.571 5.85-18.771 8.671-27.604 8.456-8.833-.205-17.376-2.026-25.638-5.452-8.248-3.426-16.295-7.732-24.139-12.894-7.836-5.164-15.536-9.67-23.104-13.518-7.556-3.854-15.093-6.285-22.613-7.305-7.527-1.011-15.147.838-22.855 5.563-3.396 2.077-6.271 4.999-8.627 8.773-2.353 3.768-3.878 7.936-4.588 12.502-.699 4.565-.562 9.46.416 14.683.983 5.229 3.079 10.467 6.29 15.703 3.216 5.237 6.733 9.506 10.55 12.78 3.814 3.281 7.471 5.862 10.958 7.753 3.936 2.253 7.868 3.989 11.785 5.194a46.065 46.065 0 00-1.738-1.797c-.282-.28-.567-.559-.851-.837l-.015-.015a.043.043 0 00-.007-.006c-.241-.237-.482-.472-.719-.707a8.813 8.813 0 01-1.368-1.709c-2.839-4.624-3.66-9.419-2.466-14.388 1.194-4.966 4.106-8.873 8.739-11.703 4.632-2.839 9.432-3.655 14.408-2.458 4.974 1.195 8.884 4.103 11.715 8.727 2.839 4.621 3.666 9.418 2.465 14.387-1.195 4.969-4.104 8.873-8.737 11.699-2.931 1.798-6.792 2.674-11.589 2.648-4.8-.039-9.905-1.098-15.326-3.19-5.419-2.083-10.822-5.186-16.215-9.305-5.39-4.122-10.026-9.337-13.902-15.657-4.632-7.546-7.669-15.18-9.107-22.88-1.432-7.708-1.48-15.043-.13-22.011 1.347-6.975 3.92-13.316 7.738-19.041 3.805-5.723 8.572-10.332 14.278-13.818 9.727-5.952 18.961-8.797 27.719-8.533 8.755.258 17.259 2.101 25.517 5.532 8.255 3.421 16.295 7.716 24.143 12.883 7.835 5.165 15.539 9.671 23.1 13.522 7.558 3.85 15.103 6.279 22.62 7.301 7.528 1.014 15.142-.838 22.855-5.561a31.143 31.143 0 009.896-9.552c2.586-3.911 4.302-8.298 5.136-13.154.847-4.86.656-10.1-.563-15.706-1.214-5.618-3.574-11.274-7.07-16.979-2.305-3.762-4.819-7.14-7.527-10.124-12.301 12.41-26.209 23.075-44.588 23.075-29.553 0-64.732-23.831-64.824-23.901l-1.782-1.188 1.782-1.2.01-.007c.693-.465 35.518-23.887 64.814-23.887 18.367 0 32.304 10.653 44.588 23.078zM400.665 527.4s-8.966-4.651-8.966-15.658c0-11.008 8.966-24.196 8.966-24.196s8.963 13.188 8.963 24.196c0 11.007-8.963 15.658-8.963 15.658zm0 20.301s17.106 8.878 17.106 29.885c0 21.001-17.106 46.175-17.106 46.175s-17.109-25.174-17.109-46.175c0-21.007 17.109-29.885 17.109-29.885zm.003 213.641l-1.444-.773c-.07-.036-24.55-12.741-24.55-42.744 0-28.988 23.233-63.28 23.463-63.62l.001-.002 2.53-3.741 2.526 3.741c.066.096 23.467 34.53 23.467 63.622 0 29.864-24.256 42.59-24.547 42.743l-.003.001-1.443.773zm0-6.983c-4.796-3.04-19.888-14.364-19.888-36.534 0-21.574 14.027-46.692 19.888-56.251 5.861 9.559 19.887 34.677 19.887 56.251 0 22.17-15.092 33.494-19.887 36.534zm-.005-216.22c1.109.652 3.494 2.164 6.296 4.612 27.997 27.337 11.782 68.082-6.296 96.405-21.148-33.145-33.066-69.333-6.294-96.405 2.802-2.448 5.181-3.96 6.294-4.612zm-29.159-19.39c5.622 1.212 11.29 3.568 16.996 7.06 3.77 2.303 7.15 4.809 10.146 7.521-12.438 12.261-23.113 26.181-23.113 44.518 0 28.893 22.878 63.156 23.9 64.686l.004.006.013.019.004.006.01.015.004.007 1.195 1.772 1.194-1.772.003-.004c.297-.438 23.93-35.361 23.93-64.735 0-18.35-10.676-32.243-23.108-44.518 2.996-2.712 6.376-5.218 10.14-7.521 5.712-3.492 11.379-5.848 17.001-7.06 5.619-1.217 10.864-1.406 15.729-.565 4.862.838 9.259 2.549 13.178 5.128a31.3 31.3 0 019.563 9.885c4.725 7.705 6.584 15.311 5.571 22.819-1.02 7.512-3.457 15.04-7.312 22.593-3.858 7.55-8.375 15.243-13.547 23.069-5.173 7.825-9.472 15.863-12.901 24.106-3.433 8.245-5.281 16.74-5.539 25.48-.259 8.743 2.587 17.969 8.543 27.678 3.498 5.701 8.112 10.457 13.842 14.258 5.731 3.805 12.086 6.379 19.067 7.729 6.983 1.345 14.328 1.298 22.047-.136 7.711-1.432 15.347-4.462 22.912-9.088 6.326-3.871 11.551-8.502 15.677-13.883 4.122-5.387 7.231-10.783 9.321-16.192 2.091-5.416 3.152-10.515 3.187-15.306.031-4.79-.849-8.646-2.64-11.575-2.839-4.619-6.747-7.529-11.723-8.726-4.976-1.193-9.778-.375-14.409 2.46-4.631 2.83-7.544 6.734-8.739 11.703-1.194 4.969-.374 9.767 2.459 14.388 2.837 4.624 6.744 7.531 11.723 8.727 4.976 1.192 9.781.372 14.409-2.461a8.91 8.91 0 001.709-1.362c.525-.531 1.047-1.065 1.567-1.596a59.552 59.552 0 011.801-1.736c-1.206 3.917-2.935 7.838-5.196 11.767-1.893 3.486-4.478 7.134-7.766 10.944-3.286 3.811-7.552 7.326-12.799 10.535-5.247 3.209-10.487 5.302-15.726 6.28-5.233.978-10.137 1.12-14.709.415-4.565-.702-8.739-2.226-12.518-4.577-3.775-2.355-6.705-5.223-8.782-8.615-4.73-7.706-6.582-15.309-5.569-22.82 1.02-7.507 3.456-15.04 7.31-22.593 3.857-7.55 8.371-15.24 13.543-23.063 5.172-7.833 9.474-15.866 12.907-24.109 3.429-8.245 5.252-16.779 5.467-25.599.211-8.818-2.614-18.005-8.477-27.561-3.876-6.314-8.809-11.506-14.805-15.573-6-4.069-12.586-6.766-19.77-8.092-7.182-1.327-14.808-1.217-22.882.331-8.068 1.543-16.115 4.769-24.141 9.677-4.016 2.458-7.596 5.102-10.74 7.934-3.148-2.827-6.729-5.471-10.743-7.934-8.023-4.908-16.075-8.134-24.143-9.677-8.075-1.548-15.701-1.658-22.88-.331-7.181 1.326-13.77 4.023-19.769 8.092-5.997 4.067-10.932 9.259-14.81 15.573-5.859 9.556-8.686 18.743-8.471 27.561.213 8.82 2.034 17.354 5.465 25.599 3.433 8.243 7.735 16.276 12.907 24.109 5.172 7.823 9.687 15.513 13.543 23.063 3.855 7.553 6.29 15.086 7.307 22.593 1.019 7.511-.836 15.114-5.566 22.82-2.077 3.392-5.008 6.26-8.781 8.615-3.78 2.351-7.956 3.875-12.521 4.577-4.572.705-9.474.563-14.706-.415-5.24-.978-10.48-3.071-15.727-6.28s-9.515-6.724-12.801-10.535c-3.284-3.81-5.87-7.458-7.766-10.944-2.259-3.929-3.988-7.85-5.194-11.767a61.392 61.392 0 011.796 1.736l.408.416c.387.393.774.788 1.164 1.18a8.748 8.748 0 001.707 1.362c4.631 2.833 9.435 3.653 14.411 2.461 4.977-1.196 8.882-4.103 11.718-8.727 2.839-4.621 3.659-9.419 2.461-14.388-1.194-4.969-4.107-8.873-8.736-11.703-4.628-2.835-9.435-3.653-14.409-2.46-4.978 1.197-8.886 4.107-11.722 8.726-1.794 2.929-2.676 6.785-2.643 11.575.034 4.791 1.098 9.89 3.187 15.306 2.092 5.409 5.199 10.805 9.324 16.192 4.123 5.381 9.35 10.012 15.675 13.883 7.562 4.626 15.202 7.656 22.916 9.088 7.716 1.434 15.062 1.481 22.045.136 6.975-1.35 13.33-3.924 19.063-7.729 5.731-3.801 10.347-8.557 13.846-14.258 5.953-9.709 8.801-18.935 8.537-27.678-.258-8.74-2.1-17.235-5.534-25.48-3.432-8.243-7.733-16.281-12.905-24.106-5.172-7.826-9.684-15.519-13.543-23.069-3.855-7.553-6.294-15.081-7.31-22.593-1.013-7.508.839-15.114 5.569-22.819a31.295 31.295 0 019.565-9.885c3.917-2.579 8.309-4.29 13.176-5.128 4.868-.841 10.11-.652 15.729.565zm29.161-246.131s8.963 4.656 8.963 15.663c0 10.998-8.963 24.196-8.963 24.196s-8.968-13.198-8.968-24.196c0-11.007 8.968-15.663 8.968-15.663zm0-20.299s-17.112-8.88-17.112-29.879c0-21.004 17.112-46.178 17.112-46.178s17.104 25.174 17.104 46.178c0 20.999-17.104 29.879-17.104 29.879zm-.002-213.641l1.446.773.009.005c.544.289 24.535 13.045 24.535 42.741 0 29.095-23.396 63.524-23.464 63.62l-2.526 3.736-2.527-3.736c-.07-.096-23.467-34.525-23.467-63.62 0-30.005 24.475-42.71 24.55-42.747l1.444-.772zm0 6.983c4.794 3.037 19.887 14.361 19.887 36.536 0 21.574-14.026 46.695-19.887 56.249-5.869-9.554-19.896-34.675-19.896-56.249 0-22.175 15.101-33.5 19.896-36.536zm0 216.224c-1.108-.651-3.492-2.163-6.29-4.616-28.002-27.338-11.78-68.08 6.29-96.405 21.147 33.147 33.068 69.339 6.296 96.405-2.802 2.453-5.179 3.965-6.296 4.616zm29.16 19.384c-5.615-1.207-11.289-3.564-16.993-7.055-3.77-2.304-7.147-4.814-10.148-7.516 12.44-12.269 23.108-26.183 23.108-44.527 0-29.251-23.45-64.02-23.921-64.717l-.007-.01-1.199-1.78-1.192 1.78c-.068.091-23.933 35.218-23.933 64.727 0 18.355 10.682 32.242 23.108 44.527-2.989 2.702-6.371 5.212-10.141 7.516-5.711 3.491-11.377 5.848-17.001 7.055-5.617 1.22-10.861 1.408-15.731.568-4.863-.836-9.257-2.548-13.171-5.131a31.144 31.144 0 01-9.566-9.883c-4.732-7.7-6.584-15.305-5.571-22.82 1.028-7.509 3.455-15.042 7.315-22.587 3.854-7.553 8.366-15.245 13.538-23.066 5.177-7.838 9.478-15.868 12.905-24.111 3.434-8.246 5.281-16.74 5.539-25.478.264-8.746-2.587-17.967-8.547-27.681-3.489-5.7-8.108-10.457-13.839-14.257-5.73-3.81-12.082-6.382-19.065-7.726-6.981-1.348-14.327-1.3-22.042.128-7.714 1.438-15.36 4.469-22.914 9.092-6.329 3.873-11.555 8.502-15.68 13.884-4.125 5.384-7.232 10.778-9.322 16.194-2.089 5.413-3.155 10.51-3.192 15.301-.026 4.788.852 8.649 2.651 11.573 2.831 4.626 6.741 7.533 11.717 8.725 4.974 1.201 9.781.375 14.409-2.464 4.631-2.826 7.542-6.73 8.736-11.696 1.202-4.967.383-9.762-2.461-14.391-2.834-4.622-6.746-7.531-11.72-8.723-4.974-1.193-9.778-.373-14.409 2.464a8.7 8.7 0 00-1.709 1.365l-.713.723c-.284.289-.569.58-.854.866a50.988 50.988 0 01-1.799 1.735c1.206-3.913 2.942-7.837 5.201-11.765 1.891-3.484 4.475-7.133 7.759-10.945 3.284-3.813 7.556-7.324 12.801-10.535 5.247-3.206 10.492-5.298 15.729-6.28 5.23-.981 10.132-1.115 14.704-.415 4.573.707 8.743 2.231 12.521 4.58 3.778 2.354 6.702 5.225 8.781 8.618 4.732 7.695 6.587 15.303 5.571 22.819-1.018 7.507-3.455 15.035-7.312 22.583-3.856 7.555-8.368 15.245-13.54 23.071-5.17 7.828-9.482 15.868-12.91 24.104-3.431 8.25-5.256 16.778-5.462 25.598-.215 8.823 2.609 18.01 8.468 27.567 3.878 6.317 8.811 11.507 14.812 15.569 6 4.071 12.586 6.767 19.769 8.096 7.177 1.328 14.803 1.217 22.882-.336 8.064-1.54 16.116-4.769 24.139-9.677 4.014-2.453 7.595-5.107 10.741-7.929 3.146 2.822 6.726 5.471 10.744 7.929 8.024 4.908 16.071 8.137 24.144 9.677 8.072 1.553 15.698 1.664 22.882.336 7.179-1.329 13.768-4.025 19.765-8.096 5.998-4.062 10.931-9.252 14.809-15.569 5.862-9.557 8.684-18.744 8.471-27.567-.213-8.82-2.034-17.348-5.465-25.598-3.433-8.236-7.73-16.276-12.91-24.104-5.171-7.826-9.683-15.516-13.54-23.071-3.854-7.548-6.287-15.076-7.305-22.583-1.015-7.516.839-15.124 5.564-22.819 2.079-3.393 5.003-6.264 8.782-8.618 3.777-2.349 7.953-3.873 12.521-4.58 4.572-.7 9.468-.566 14.713.415 5.227.982 10.472 3.074 15.719 6.28 5.245 3.211 9.518 6.722 12.799 10.535 3.288 3.812 5.873 7.461 7.769 10.945 2.26 3.928 3.994 7.852 5.193 11.765a68.797 68.797 0 01-1.801-1.735l-.61-.622c-.317-.325-.634-.649-.952-.967a8.642 8.642 0 00-1.709-1.365c-4.633-2.837-9.435-3.657-14.409-2.464-4.984 1.192-8.891 4.101-11.723 8.723-2.836 4.629-3.656 9.424-2.466 14.391 1.199 4.966 4.118 8.87 8.743 11.696 4.629 2.839 9.433 3.665 14.407 2.464 4.976-1.192 8.881-4.099 11.725-8.725 1.786-2.924 2.674-6.785 2.642-11.573-.033-4.791-1.095-9.888-3.191-15.301-2.087-5.416-5.194-10.81-9.321-16.194-4.121-5.382-9.351-10.011-15.674-13.884-7.568-4.623-15.204-7.654-22.915-9.092-7.716-1.427-15.069-1.476-22.047-.128-6.975 1.344-13.336 3.916-19.059 7.726-5.738 3.8-10.352 8.557-13.845 14.257-5.961 9.714-8.812 18.935-8.548 27.681.263 8.738 2.106 17.232 5.539 25.478 3.431 8.243 7.728 16.273 12.905 24.111 5.172 7.821 9.691 15.513 13.543 23.066 3.862 7.545 6.292 15.078 7.312 22.587 1.013 7.515-.846 15.12-5.566 22.82-2.461 4.008-5.648 7.304-9.566 9.883-3.921 2.583-8.318 4.295-13.177 5.131-4.868.84-10.115.652-15.732-.568zM574.881 226.5s22.417 8.947 42.37-8.218c19.951-17.17 29.877-53.952 29.877-53.952s-37.9 4.372-57.846 21.539c-19.953 17.175-14.401 40.631-14.401 40.631zM399.454 642.565l-.004-.006.004.006z" fill="#fff"/><path fill-rule="evenodd" clip-rule="evenodd" d="M408.08 0h-14.834C285.554 1.953 188.229 46.328 117.353 117.106 44.849 189.506 0 289.532 0 400.01c0 110.479 44.849 210.507 117.353 282.904 72.502 72.397 172.672 117.183 283.31 117.183 110.637 0 210.805-44.786 283.311-117.183 72.503-72.4 117.349-172.425 117.349-282.904 0-110.478-44.846-210.502-117.349-282.904C613.096 46.328 515.771 1.953 408.08 0zm-7.417 14.834c106.514 0 202.948 43.114 272.748 112.819 69.803 69.7 112.983 165.996 112.983 272.357 0 106.362-43.18 202.66-112.983 272.36-69.8 69.699-166.234 112.815-272.748 112.815-106.515 0-202.95-43.116-272.752-112.815-69.804-69.7-112.98-165.998-112.98-272.36 0-106.361 43.176-202.657 112.98-272.357C197.713 57.948 294.148 14.834 400.663 14.834z" fill="#fff"/></svg>