<svg width="803" height="53" fill="none" xmlns="http://www.w3.org/2000/svg"><path d="M.544 52V1.6h33.768v5.832l-.864.864c-2.496-1.488-6.456-2.232-11.88-2.232h-9.864V23.92h17.64l.576.648v3.888H11.704v19.08h10.584c2.4 0 4.584-.192 6.552-.576 2.016-.384 3.408-.768 4.176-1.152l1.152-.504.864.864V52H.544zM86.333 1.6L69.125 28.744V52h-11.16V29.464l-7.92-12.6a113.859 113.859 0 00-5.184-7.488c-1.728-2.4-3.048-4.128-3.96-5.184l-1.368-1.656V1.6h13.752l13.536 20.88L80.213 1.6h6.12zM93.075 52V1.6h33.768v5.832l-.864.864c-2.496-1.488-6.456-2.232-11.88-2.232h-9.864V23.92h17.64l.576.648v3.888h-18.216v19.08h10.584c2.4 0 4.584-.192 6.552-.576 2.016-.384 3.408-.768 4.176-1.152l1.152-.504.864.864V52H93.075zm43.453 0V1.6h11.16v45.936h8.64c2.4 0 4.584-.192 6.552-.576 2.016-.384 3.408-.768 4.176-1.152l1.152-.504.864.864V52h-32.544zm46.773-13.392L178.117 52h-5.616l18.504-46.728-1.656-2.808V1.6h12.168L221.893 52h-11.52l-5.4-13.392h-21.672zm11.952-24.264l-1.296-3.024-8.928 22.824h18.144l-7.92-19.8zm48.933-9.72c-2.208 0-3.888.504-5.04 1.512-1.152 1.008-1.728 2.4-1.728 4.176 0 1.776.72 3.336 2.16 4.68 1.488 1.344 4.92 3.816 10.296 7.416 2.832 1.92 4.872 3.336 6.12 4.248a62.882 62.882 0 014.176 3.24c1.488 1.2 2.496 2.232 3.024 3.096.528.816.984 1.776 1.368 2.88.384 1.056.576 2.232.576 3.528 0 8.88-6.36 13.32-19.08 13.32-2.64 0-5.112-.192-7.416-.576-2.256-.384-4.104-.84-5.544-1.368a44.59 44.59 0 01-3.6-1.656c-1.008-.576-1.728-1.056-2.16-1.44l-.648-.576c0-1.296.192-2.544.576-3.744.384-1.248.84-2.28 1.368-3.096a23.934 23.934 0 011.584-2.304c.528-.672.984-1.176 1.368-1.512l.576-.432h1.152c.144.336.336.816.576 1.44.288.576.888 1.608 1.8 3.096s1.872 2.808 2.88 3.96c1.008 1.104 2.304 2.136 3.888 3.096 1.632.912 3.264 1.368 4.896 1.368 2.304 0 4.176-.576 5.616-1.728 1.44-1.152 2.16-2.616 2.16-4.392 0-1.92-.912-3.648-2.736-5.184-1.824-1.536-4.992-3.648-9.504-6.336a37.01 37.01 0 01-1.008-.576c-3.552-2.064-6.24-3.792-8.064-5.184a18.516 18.516 0 01-4.392-4.896c-1.104-1.872-1.656-4.032-1.656-6.48 0-4.32 1.536-7.608 4.608-9.864 3.12-2.304 7.728-3.456 13.824-3.456 3.504 0 6.648.384 9.432 1.152 2.832.72 4.776 1.44 5.832 2.16l1.584 1.152c0 2.064-.456 4.032-1.368 5.904-.912 1.872-1.824 3.216-2.736 4.032l-1.368 1.296h-1.08a9.832 9.832 0 00-.504-1.296c-.192-.528-.672-1.464-1.44-2.808-.768-1.392-1.584-2.616-2.448-3.672-.864-1.056-2.016-2.016-3.456-2.88-1.44-.864-2.928-1.296-4.464-1.296zM308.256 52V28.456H285.36V52H274.2V1.6h11.16v22.32h22.896V1.6h11.16V52h-11.16zm38.718 0V1.6h33.768v5.832l-.864.864c-2.496-1.488-6.456-2.232-11.88-2.232h-9.864V23.92h17.64l.576.648v3.888h-18.216v19.08h10.584c2.4 0 4.584-.192 6.552-.576 2.016-.384 3.408-.768 4.176-1.152l1.152-.504.864.864V52h-34.488zm52.957-50.4l12.6 18.72 13.32-18.72h6.624l-17.064 23.04 8.784 12.96c1.632 2.448 3.288 4.8 4.968 7.056 1.728 2.256 3.048 3.888 3.96 4.896l1.296 1.584V52h-13.32l-13.896-20.232L392.515 52h-6.048l17.856-24.552L386.683 1.6h13.248zm66.24 4.464V52h-11.16V6.064h-4.464c-2.4 0-4.608.192-6.624.576-1.968.384-3.336.768-4.104 1.152l-1.152.504-.864-.864V1.6h45.576v5.832l-.864.864c-2.496-1.488-6.456-2.232-11.88-2.232h-4.464zM490.833 52V1.6h33.768v5.832l-.864.864c-2.496-1.488-6.456-2.232-11.88-2.232h-9.864V23.92h17.64l.576.648v3.888h-18.216v19.08h10.584c2.4 0 4.584-.192 6.552-.576 2.016-.384 3.408-.768 4.176-1.152l1.152-.504.864.864V52h-34.488zm43.453 0V21.76c0-3.84-.168-7.368-.504-10.584-.288-3.216-.6-5.472-.936-6.768l-.504-1.944.864-.864h3.816l33.48 32.904V1.6h5.544V52h-3.312l-33.48-32.976V52h-4.968zm68.213-47.376c-2.208 0-3.888.504-5.04 1.512-1.152 1.008-1.728 2.4-1.728 4.176 0 1.776.72 3.336 2.16 4.68 1.488 1.344 4.92 3.816 10.296 7.416 2.832 1.92 4.872 3.336 6.12 4.248a62.882 62.882 0 014.176 3.24c1.488 1.2 2.496 2.232 3.024 3.096.528.816.984 1.776 1.368 2.88.384 1.056.576 2.232.576 3.528 0 8.88-6.36 13.32-19.08 13.32-2.64 0-5.112-.192-7.416-.576-2.256-.384-4.104-.84-5.544-1.368a44.59 44.59 0 01-3.6-1.656c-1.008-.576-1.728-1.056-2.16-1.44l-.648-.576c0-1.296.192-2.544.576-3.744.384-1.248.84-2.28 1.368-3.096a23.934 23.934 0 011.584-2.304c.528-.672.984-1.176 1.368-1.512l.576-.432h1.152c.144.336.336.816.576 1.44.288.576.888 1.608 1.8 3.096s1.872 2.808 2.88 3.96c1.008 1.104 2.304 2.136 3.888 3.096 1.632.912 3.264 1.368 4.896 1.368 2.304 0 4.176-.576 5.616-1.728 1.44-1.152 2.16-2.616 2.16-4.392 0-1.92-.912-3.648-2.736-5.184-1.824-1.536-4.992-3.648-9.504-6.336a37.01 37.01 0 01-1.008-.576c-3.552-2.064-6.24-3.792-8.064-5.184a18.516 18.516 0 01-4.392-4.896c-1.104-1.872-1.656-4.032-1.656-6.48 0-4.32 1.536-7.608 4.608-9.864 3.12-2.304 7.728-3.456 13.824-3.456 3.504 0 6.648.384 9.432 1.152 2.832.72 4.776 1.44 5.832 2.16l1.584 1.152c0 2.064-.456 4.032-1.368 5.904-.912 1.872-1.824 3.216-2.736 4.032l-1.368 1.296h-1.08a9.832 9.832 0 00-.504-1.296c-.192-.528-.672-1.464-1.44-2.808-.768-1.392-1.584-2.616-2.448-3.672-.864-1.056-2.016-2.016-3.456-2.88-1.44-.864-2.928-1.296-4.464-1.296zM632.513 52V1.6h11.16V52h-11.16zm27.044-6.408c-4.752-4.8-7.128-11.064-7.128-18.792 0-7.728 2.376-13.968 7.128-18.72 4.8-4.8 11.064-7.2 18.792-7.2 7.68 0 13.896 2.4 18.648 7.2 4.8 4.752 7.2 10.992 7.2 18.72 0 7.728-2.4 13.992-7.2 18.792-4.752 4.752-10.968 7.128-18.648 7.128-7.728 0-13.992-2.376-18.792-7.128zm8.928-35.208c-2.4 3.792-3.6 9.264-3.6 16.416 0 7.152 1.2 12.648 3.6 16.488 2.448 3.792 5.736 5.688 9.864 5.688 4.128 0 7.392-1.896 9.792-5.688 2.448-3.84 3.672-9.336 3.672-16.488 0-7.152-1.224-12.624-3.672-16.416-2.4-3.84-5.664-5.76-9.792-5.76s-7.416 1.92-9.864 5.76zM713.021 52V21.76c0-3.84-.168-7.368-.504-10.584-.288-3.216-.6-5.472-.936-6.768l-.504-1.944.864-.864h3.816l33.48 32.904V1.6h5.544V52h-3.312l-33.48-32.976V52h-4.968zm68.212-47.376c-2.208 0-3.888.504-5.04 1.512-1.152 1.008-1.728 2.4-1.728 4.176 0 1.776.72 3.336 2.16 4.68 1.488 1.344 4.92 3.816 10.296 7.416 2.832 1.92 4.872 3.336 6.12 4.248a62.882 62.882 0 014.176 3.24c1.488 1.2 2.496 2.232 3.024 3.096.528.816.984 1.776 1.368 2.88.384 1.056.576 2.232.576 3.528 0 8.88-6.36 13.32-19.08 13.32-2.64 0-5.112-.192-7.416-.576-2.256-.384-4.104-.84-5.544-1.368a44.59 44.59 0 01-3.6-1.656c-1.008-.576-1.728-1.056-2.16-1.44l-.648-.576c0-1.296.192-2.544.576-3.744.384-1.248.84-2.28 1.368-3.096a23.934 23.934 0 011.584-2.304c.528-.672.984-1.176 1.368-1.512l.576-.432h1.152c.144.336.336.816.576 1.44.288.576.888 1.608 1.8 3.096s1.872 2.808 2.88 3.96c1.008 1.104 2.304 2.136 3.888 3.096 1.632.912 3.264 1.368 4.896 1.368 2.304 0 4.176-.576 5.616-1.728 1.44-1.152 2.16-2.616 2.16-4.392 0-1.92-.912-3.648-2.736-5.184-1.824-1.536-4.992-3.648-9.504-6.336a37.01 37.01 0 01-1.008-.576c-3.552-2.064-6.24-3.792-8.064-5.184a18.516 18.516 0 01-4.392-4.896c-1.104-1.872-1.656-4.032-1.656-6.48 0-4.32 1.536-7.608 4.608-9.864 3.12-2.304 7.728-3.456 13.824-3.456 3.504 0 6.648.384 9.432 1.152 2.832.72 4.776 1.44 5.832 2.16l1.584 1.152c0 2.064-.456 4.032-1.368 5.904-.912 1.872-1.824 3.216-2.736 4.032l-1.368 1.296h-1.08a9.832 9.832 0 00-.504-1.296c-.192-.528-.672-1.464-1.44-2.808-.768-1.392-1.584-2.616-2.448-3.672-.864-1.056-2.016-2.016-3.456-2.88-1.44-.864-2.928-1.296-4.464-1.296z" fill="#fff"/></svg>